<svg xmlns="http://www.w3.org/2000/svg" viewBox="0 0 512 512" height="512.0px" width="512.0px">
<path id="" fill="#D2691E" fill-opacity="1.0" stroke="#000000" stroke-width="0.0" stroke-opacity="1.0" stroke-linecap="round" stroke-linejoin="round"  filling="0" d="M256.000000 400.000000 C239.333328 350.000000 222.666672 300.000000 206.000000 250.000000 C239.333344 250.000000 272.666656 250.000000 306.000000 250.000000 C289.333344 300.000000 272.666656 350.000000 256.000000 400.000000"></path>
<path id="" fill="#FFB6C1" fill-opacity="1.0" stroke="#000000" stroke-width="0.0" stroke-opacity="1.0" stroke-linecap="round" stroke-linejoin="round"  filling="0" d="M316.000000 220.000000 C316.000000 235.906891 309.674255 251.178528 298.426392 262.426392 C287.178528 273.674255 271.906891 280.000000 256.000000 280.000000 C240.093109 280.000000 224.821457 273.674255 213.573593 262.426392 C202.325729 251.178528 196.000000 235.906891 196.000000 220.000000 C196.000000 204.093109 202.325729 188.821457 213.573593 177.573593 C224.821457 166.325729 240.093109 160.000000 256.000000 160.000000 C271.906891 160.000000 287.178528 166.325714 298.426392 177.573578 C309.674255 188.821442 316.000000 204.093124 316.000000 220.000015"></path>
<path id="" fill="#8B4513" fill-opacity="1.0" stroke="#000000" stroke-width="0.0" stroke-opacity="1.0" stroke-linecap="round" stroke-linejoin="round"  filling="0" d="M311.000000 150.000000 C311.000000 164.581314 305.201416 178.580322 294.890869 188.890869 C284.580322 199.201416 270.581299 205.000000 256.000000 205.000000 C241.418686 205.000000 227.419678 199.201416 217.109131 188.890869 C206.798584 178.580322 201.000000 164.581314 201.000000 150.000000 C201.000000 135.418686 206.798584 121.419678 217.109131 111.109131 C227.419678 100.798584 241.418686 95.000000 256.000000 95.000000 C270.581299 95.000000 284.580322 100.798576 294.890869 111.109116 C305.201416 121.419662 311.000000 135.418701 311.000000 150.000015"></path>
<path id="" fill="#FFFAF0" fill-opacity="1.0" stroke="#000000" stroke-width="0.0" stroke-opacity="1.0" stroke-linecap="round" stroke-linejoin="round"  filling="0" d="M306.000000 90.000000 C306.000000 103.255737 300.728577 115.982117 291.355347 125.355339 C281.982117 134.728561 269.255737 140.000000 256.000000 140.000000 C242.744263 140.000000 230.017883 134.728561 220.644653 125.355339 C211.271423 115.982117 206.000000 103.255737 206.000000 89.999992 C206.000000 76.744255 211.271439 64.017883 220.644653 54.644665 C230.017883 45.271439 242.744263 40.000000 256.000000 40.000000 C269.255737 40.000000 281.982117 45.271439 291.355347 54.644657 C300.728577 64.017883 306.000000 76.744263 306.000000 90.000008"></path>
</svg>