<?xml version="1.0" ?>
<svg xmlns="http://www.w3.org/2000/svg" version="1.1" width="256" height="256" viewBox="0 0 256 256">
  <defs/>
  <g>
    <path d="M 139.91847229 164.52577209 C 138.16123962 171.42477417 135.91844177 175.48826599 134.10560608 183.42179871 C 130.43051147 191.55450439 131.24055481 197.16012573 127.62371826 199.13839722 C 125.44524384 193.40036011 123.52631378 186.54644775 120.69221497 179.59005737 C 118.85768890 172.98255920 117.03444672 167.30110168 114.42881775 159.54504395 C 111.72311401 150.76985168 110.65917206 147.35478210 108.09282684 139.20977783 C 106.45366669 130.66584778 102.81359863 127.80249023 109.71808624 125.01225281 C 117.23787689 124.42678833 122.55914307 122.76315308 130.43078613 121.81880951 C 138.63029480 121.09227753 144.54853821 119.35319519 149.48864746 122.94122314 C 152.06811523 129.30548096 148.11340332 135.40315247 146.42596436 143.01278687 C 143.94058228 150.50085449 142.49652100 157.23155212 139.91847229 164.52577209" stroke-width="0.44854066" fill="rgb(183, 120, 63)" opacity="1.0" stroke="rgb(67, 18, 0)" stroke-opacity="0.32359353" stroke-linecap="round" stroke-linejoin="round"/>
    <path d="M 148.82067871 129.85520935 C 143.29174805 134.12332153 137.79769897 135.83920288 132.68283081 136.72763062 C 126.39761353 137.57844543 119.58768463 137.02966309 114.73049927 134.58183289 C 108.75247955 131.94291687 104.00662231 128.14117432 100.96723175 122.54848480 C 98.37377930 118.01174164 96.90381622 112.49444580 98.36918640 104.62476349 C 99.68057251 99.86044312 101.83070374 94.32803345 107.44207764 89.27722168 C 112.77157593 85.64629364 116.33291626 83.80919647 121.91430664 83.91591644 C 128.00863647 83.57664490 132.87461853 83.90043640 140.40338135 85.32469940 C 145.13804626 86.78219604 149.86735535 88.89107513 153.88075256 95.76336670 C 156.63111877 100.47810364 157.61006165 105.91556549 157.34718323 113.69869232 C 156.36900330 120.60910797 153.54043579 125.87664795 148.82067871 129.85520935" stroke-width="0.96631753" fill="rgb(247, 207, 154)" opacity="1.0" stroke="rgb(200, 173, 102)" stroke-opacity="0.11694898" stroke-linecap="round" stroke-linejoin="round"/>
    <path d="M 153.15763855 82.83877563 C 152.30178833 86.55097198 149.91018677 90.46036530 145.28765869 94.60208130 C 141.35772705 97.78917694 135.82185364 101.12315369 130.31571960 101.11376953 C 125.39354706 101.32617188 120.55972290 101.26652527 114.51955414 98.00745392 C 110.84744263 95.65266418 106.68675232 92.81108093 103.54753113 85.90000916 C 102.26614380 81.61199951 101.36707306 76.62973022 102.93757629 70.01969147 C 104.74867249 64.15763092 107.04447937 60.20736694 109.19837189 58.63391495 C 113.35184479 54.38304138 118.27667236 51.64322662 124.62669373 50.86445618 C 130.98301697 50.13025665 136.61695862 50.85647583 140.40808105 52.83824539 C 144.98571777 54.96092987 148.35304260 59.69425964 151.38223267 64.98171234 C 153.47341919 69.67332458 154.56498718 73.37731934 153.15763855 82.83877563" stroke-width="1.50917757" fill="rgb(193, 88, 100)" opacity="1.0" stroke="rgb(149, 66, 78)" stroke-opacity="1.0" stroke-linecap="round" stroke-linejoin="round"/>
    <path d="M 127.21960449 69.70684814 C 122.43942261 70.10177612 116.96656799 68.04064941 113.27235413 65.81147766 C 109.19484711 62.74742889 106.58670807 58.90920258 105.40393829 53.66094971 C 104.64884949 49.52890778 103.60110474 44.83436203 105.23667908 39.18390274 C 106.53096008 33.51966095 109.49522400 29.86864471 113.47417450 26.41186142 C 116.74005890 22.59114647 121.38467407 21.43882370 127.47297668 21.08486557 C 135.86636353 21.94676399 134.38470459 21.38694000 139.35084534 23.92199707 C 144.20500183 27.06382942 147.14559937 31.21891403 149.67971802 36.71556091 C 151.89215088 42.41021347 152.18203735 47.82390594 150.90943909 51.96436310 C 149.58767700 57.36386871 146.35139465 61.43095016 142.47854614 64.37061310 C 138.80749512 67.57040405 131.74057007 69.68139648 127.21960449 69.70684814" stroke-width="0.93706918" fill="rgb(253, 238, 205)" opacity="1.0" stroke="rgb(195, 179, 93)" stroke-opacity="0.12888536" stroke-linecap="round" stroke-linejoin="round"/>
    <path d="M 145.94895935 133.34284973 C 143.87310791 133.84706116 141.18890381 135.51065063 137.43333435 136.50987244 C 133.95423889 137.21311951 130.77044678 137.60597229 127.36729431 137.54016113 C 123.33995056 137.31694031 120.75549316 137.28643799 117.14004517 136.21498108 C 112.68363953 134.79814148 110.37973785 133.45581055 108.08034515 132.10720825 C 104.62969208 128.93237305 105.87427521 128.70600891 109.50523376 131.09028625 C 114.54273987 132.55941772 114.13987732 133.24095154 116.98765564 134.23886108 C 120.52067566 135.58370972 122.94764709 134.78756714 125.81598663 135.03176880 C 130.07295227 135.56748962 131.71328735 135.83445740 135.19483948 134.93849182 C 139.65553284 134.05050659 142.21067810 132.89015198 144.67935181 131.78370667 C 148.97064209 129.27088928 151.33264160 129.94622803 145.94895935 133.34284973" stroke-width="1.36023962" fill="rgb(243, 237, 215)" opacity="1.0" stroke="rgb(142, 115, 101)" stroke-opacity="0.3984102" stroke-linecap="round" stroke-linejoin="round"/>
  </g>
</svg>
