<?xml version="1.0" ?>
<svg xmlns="http://www.w3.org/2000/svg" version="1.1" width="512" height="512" viewBox="0 0 512 512">
  <defs/>
  <g>
    <path d="M 278.27456665 329.12567139 C 276.56408691 334.37954712 274.98992920 339.74322510 273.52194214 345.10296631 C 271.60971069 350.28475952 269.93850708 355.36047363 268.29104614 360.54568481 C 266.76013184 365.49606323 265.30017090 370.28247070 263.76541138 374.71310425 C 262.74331665 378.91256714 261.57141113 382.77801514 260.20611572 386.06710815 C 259.40249634 389.15148926 258.36804199 391.71157837 257.43783569 393.78576660 C 256.69860840 395.09649658 256.47460938 395.94445801 256.35153198 396.17233276 C 256.00469971 395.39541626 255.30755615 393.71502686 254.44879150 391.34350586 C 253.55287170 388.44747925 252.17991638 385.00350952 250.80039978 380.92428589 C 249.22528076 376.59741211 247.49948120 371.94757080 245.81929016 366.99285889 C 244.22314453 361.78775024 242.41581726 356.55661011 240.64053345 351.21270752 C 239.23492432 345.47424316 237.26184082 339.87728882 235.28079224 334.40017700 C 233.33209229 328.68914795 231.88909912 323.00039673 230.24551392 317.26806641 C 228.34324646 311.76522827 226.61051941 306.34451294 224.69795227 301.02178955 C 223.01181030 295.81594849 221.68426514 290.65499878 220.20117188 285.68917847 C 218.80847168 280.97052002 217.45933533 276.28787231 216.04438782 271.93029785 C 214.83757019 267.82540894 213.88180542 263.96801758 212.89231873 260.45678711 C 212.14408875 257.43060303 212.04804993 254.72624207 212.63841248 252.29112244 C 214.01710510 250.19496155 216.19615173 248.34976196 219.01533508 246.73657227 C 222.34359741 245.32458496 226.14859009 244.11734009 230.34060669 243.11840820 C 234.87400818 242.27572632 239.70301819 241.56286621 244.72918701 241.07589722 C 249.84645081 240.78802490 255.02787781 240.67529297 260.26773071 240.72097778 C 265.51950073 240.92396545 270.64999390 241.29977417 275.50192261 241.94026184 C 280.07403564 242.87371826 284.35766602 243.96170044 288.29412842 245.19134521 C 291.73144531 246.65170288 294.55938721 248.44665527 296.82415771 250.57675171 C 298.48651123 252.89781189 299.33135986 255.37200928 299.27154541 258.07360840 C 298.61874390 261.03295898 297.54089355 264.34613037 296.39315796 267.97943115 C 295.24594116 271.84197998 294.33663940 276.15701294 292.99243164 280.67294312 C 291.74957275 285.37091064 290.21682739 290.13900757 288.65570068 295.12106323 C 287.06988525 300.13214111 285.41137695 305.24237061 284.03781128 310.31182861 C 282.55780029 315.45730591 280.86904907 320.54772949 278.27456665 329.12567139" stroke-width="1.82248282" fill="rgb(187, 122, 65)" opacity="1.0" stroke="rgb(102, 38, 0)" stroke-opacity="0.79093874" stroke-linecap="round" stroke-linejoin="round"/>
    <path d="M 291.74661255 264.69888306 C 288.52157593 265.92807007 285.32739258 267.13385010 282.08483887 268.26428223 C 278.75628662 269.34719849 275.41137695 270.35327148 272.04595947 271.26687622 C 268.59631348 272.00372314 265.05603027 272.63604736 261.50262451 273.16717529 C 257.85382080 273.49887085 254.07810974 273.62454224 250.26640320 273.63803101 C 246.48747253 273.48806763 242.74314880 273.05258179 239.02268982 272.32656860 C 235.32705688 271.34197998 231.60488892 270.15228271 227.90325928 268.72268677 C 224.36965942 266.97564697 220.98156738 264.89324951 217.76927185 262.44924927 C 214.79176331 259.75216675 211.85968018 257.10391235 208.81365967 254.65940857 C 206.03613281 252.35931396 204.02476501 249.57267761 202.58247375 246.15594482 C 200.97383118 242.64579773 199.20571899 239.09384155 197.75869751 235.37249756 C 196.82711792 231.47415161 196.20960999 227.41490173 195.87979126 223.33567810 C 195.96484375 219.26036072 196.28475952 215.14569092 196.71890259 211.09651184 C 197.45176697 207.18069458 198.62150574 203.41464233 199.99740601 199.76060486 C 201.42143250 196.16511536 203.12443542 192.72134399 205.17210388 189.46461487 C 207.48695374 186.41658020 209.98600769 183.51481628 212.78166199 180.82765198 C 215.77204895 178.32522583 218.94406128 176.04055786 222.30801392 173.96426392 C 225.83102417 172.14056396 229.46903992 170.55259705 233.23738098 169.16748047 C 237.13450623 167.97062683 241.08912659 167.00900269 245.12808228 166.25946045 C 249.25251770 165.71315002 253.39479065 165.40162659 257.51666260 165.27874756 C 261.70358276 165.37438965 265.90512085 165.71247864 269.99545288 166.27577209 C 274.01525879 167.03547668 278.04415894 168.00376892 281.96887207 169.22534180 C 285.65350342 170.70220947 289.17474365 172.42211914 292.60180664 174.38047791 C 295.74548340 176.64733887 298.58422852 179.20121765 301.19219971 181.97651672 C 303.43780518 185.06896973 305.52737427 188.30094910 307.52795410 191.61944580 C 309.27389526 195.10841370 310.76855469 198.70646667 312.04476929 202.33027649 C 313.01809692 206.05528259 313.76879883 209.83164978 314.34512329 213.58966064 C 314.68289185 217.33880615 314.75067139 221.04284668 314.62915039 224.72366333 C 314.41171265 228.31758118 313.91470337 231.86135864 313.11764526 235.34269714 C 312.17041016 238.67086792 310.77371216 241.82540894 309.22747803 244.90956116 C 307.88711548 248.00576782 306.45642090 251.03744507 291.74661255 264.69888306" stroke-width="1.36427701" fill="rgb(248, 207, 154)" opacity="1.0" stroke="rgb(183, 138, 46)" stroke-opacity="0.16191694" stroke-linecap="round" stroke-linejoin="round"/>
    <path d="M 306.99478149 163.69168091 C 306.73403931 167.32490540 305.85635376 170.81970215 304.41030884 174.02374268 C 302.78192139 177.07064819 300.74349976 179.79440308 298.37298584 182.32572937 C 295.98254395 184.86485291 293.59716797 187.59863281 291.10690308 190.19487000 C 288.45446777 192.66613770 285.38134766 194.69491577 282.15951538 196.47834778 C 278.87191772 198.30485535 275.32342529 199.69555664 271.70147705 200.84869385 C 268.05545044 202.10206604 264.32745361 203.03353882 260.45977783 203.53622437 C 256.51156616 203.71226501 252.56230164 203.62425232 248.60975647 203.45248413 C 244.79298401 203.10902405 241.01550293 202.33734131 237.34420776 201.25022888 C 233.81257629 199.85238647 230.52963257 198.24134827 227.23713684 196.46655273 C 224.16633606 194.48870850 221.25747681 192.49114990 218.93798828 190.18133545 C 217.53257751 187.39547729 215.59777832 185.02529907 213.08599854 182.97892761 C 210.79322815 180.65058899 208.78892517 178.11520386 207.31858826 175.04182434 C 206.10932922 171.75935364 205.06164551 168.00314331 204.46797180 164.02511597 C 203.78359985 160.10250854 203.38163757 155.96208191 203.23994446 151.65600586 C 203.56721497 147.53378296 203.99958801 143.68356323 204.67825317 139.81959534 C 205.76564026 136.21788025 207.10522461 132.92802429 208.72467041 129.78425598 C 210.33209229 126.59809875 211.89865112 123.55240631 213.64984131 120.62072754 C 215.55134583 117.78460693 217.68275452 115.25106812 220.04248047 112.94047546 C 222.58720398 110.80410767 225.33782959 108.89060211 228.31030273 107.28881836 C 231.44343567 105.90232086 234.70507812 104.64498138 238.04768372 103.56684113 C 241.45382690 102.71502686 244.99330139 102.07861328 248.59434509 101.66524506 C 252.24603271 101.42921448 255.96087646 101.39127350 259.64645386 101.60525513 C 263.32955933 101.99375153 267.03192139 102.53212738 270.70114136 103.31641388 C 274.31518555 104.34348297 277.80834961 105.60418701 281.17895508 107.08721924 C 284.45565796 108.71366882 287.61508179 110.61242676 290.57522583 112.82187653 C 293.23687744 115.35265350 295.66281128 118.09205627 298.07431030 120.89971924 C 300.25842285 123.90221405 302.19964600 127.09260559 304.07220459 130.28102112 C 305.54718018 133.80603027 306.71331787 137.50808716 307.53604126 141.42768860 C 308.18640137 145.52783203 308.63998413 149.83064270 308.56610107 154.16598511 C 308.41320801 158.58946228 308.67593384 163.08595276 306.99478149 163.69168091" stroke-width="2.00000000" fill="rgb(194, 86, 98)" opacity="1.0" stroke="rgb(128, 55, 64)" stroke-opacity="1.0" stroke-linecap="round" stroke-linejoin="round"/>
    <path d="M 248.77050781 139.55938721 C 245.95886230 139.10478210 243.17803955 138.60397339 240.40243530 138.16029358 C 237.74685669 137.45767212 235.24433899 136.38418579 232.77603149 135.13175964 C 230.37738037 133.84466553 227.94796753 132.44958496 225.56219482 130.93177795 C 223.36511230 129.18443298 221.19538879 127.37898254 219.10519409 125.37179565 C 217.43399048 122.96906281 215.81535339 120.35993195 214.25106812 117.74246979 C 212.90521240 114.86342621 211.79830933 111.79353333 210.81985474 108.56370544 C 209.87207031 105.25273895 209.11941528 101.93709564 208.61308289 98.56946564 C 208.39620972 95.08824158 208.31445312 91.55364227 208.32666016 88.07541656 C 208.47717285 84.68182373 208.96080017 81.33250427 209.81016541 78.01248169 C 210.99563599 74.76825714 212.34747314 71.56581116 213.85206604 68.40798187 C 215.62785339 65.39752960 217.52944946 62.43207550 219.53215027 59.55971527 C 221.71267700 56.85074997 224.00122070 54.30150223 226.45988464 51.98815536 C 229.17897034 50.07950592 232.03619385 48.35710526 234.96586609 46.76221466 C 237.91598511 45.22690964 240.82479858 43.81624985 243.75794983 42.62182617 C 246.85400391 41.84427643 250.05778503 41.42311478 253.29154968 41.24364471 C 256.51803589 41.19423294 259.75088501 41.38809967 263.00723267 41.93985367 C 266.25442505 42.76678085 269.46258545 43.78490067 272.58435059 44.96745300 C 275.67163086 46.23389053 278.69821167 47.66227722 281.61679077 49.32493210 C 284.34085083 51.26776505 286.89462280 53.45412827 289.30267334 55.80309677 C 291.60974121 58.30118179 293.78018188 60.97124100 295.76461792 63.75662613 C 297.49554443 66.70751190 298.97399902 69.78492737 300.19845581 72.99560547 C 301.26498413 76.34033966 302.13720703 79.75213623 302.80230713 83.17997742 C 303.31930542 86.59935760 303.54190063 90.01345825 303.51223755 93.43367004 C 303.27301025 96.75550842 302.74276733 99.96214294 301.98721313 103.12751770 C 300.97753906 106.29385376 299.86325073 109.45933533 298.55096436 112.54636383 C 297.02523804 115.42190552 295.17984009 118.08371735 293.29504395 120.70977783 C 291.29324341 123.26726532 289.13247681 125.61655426 286.68566895 127.64624023 C 284.05282593 129.59548950 281.31399536 131.47424316 278.39007568 133.16018677 C 275.12777710 134.59376526 271.78027344 135.96139526 268.28396606 137.35636902 C 264.61337280 138.59515381 260.85604858 139.98503113 248.77050781 139.55938721" stroke-width="2.00000000" fill="rgb(251, 237, 203)" opacity="1.0" stroke="rgb(202, 182, 100)" stroke-opacity="0.071848795" stroke-linecap="round" stroke-linejoin="round"/>
    <path d="M 295.20294189 265.36486816 C 291.49533081 267.03869629 287.84716797 268.05917358 284.71588135 269.33895874 C 282.94262695 271.86331177 280.79885864 273.05020142 277.52035522 272.59283447 C 273.33392334 273.33020020 268.53424072 274.18063354 263.29412842 274.81497192 C 258.02236938 274.76397705 252.95675659 274.71908569 248.26438904 274.85522461 C 244.20268250 274.15533447 240.72254944 274.07641602 237.59159851 274.57882690 C 234.87919617 273.59790039 232.51203918 271.81561279 230.03038025 270.64141846 C 227.14418030 270.99792480 224.94282532 269.91882324 223.16317749 267.54571533 C 220.47459412 266.34127808 217.62944031 265.36962891 215.13796997 264.10079956 C 213.36386108 262.47482300 212.48376465 260.64697266 212.22048950 259.02139282 C 212.33122253 257.82125854 212.78350830 257.15124512 213.54306030 257.46667480 C 214.67523193 258.64749146 216.38287354 260.18649292 218.82395935 261.62155151 C 222.09678650 262.90371704 225.68464661 264.48135376 229.34368896 266.29934692 C 233.12838745 267.68951416 236.69450378 269.04602051 239.88755798 269.94424438 C 243.06346130 268.75436401 246.10186768 269.08621216 249.16380310 270.65945435 C 252.72085571 270.08938599 256.44525146 270.03997803 260.07394409 271.03268433 C 263.70605469 270.37533569 267.44635010 269.98229980 271.22827148 269.95913696 C 274.86093140 268.48284912 278.60952759 267.13388062 282.23815918 266.01452637 C 285.19369507 264.14636230 287.95343018 263.25210571 290.69287109 263.43020630 C 292.78945923 262.40643311 294.53268433 260.51895142 296.56271362 258.48812866 C 298.94470215 256.75659180 301.62661743 255.36550903 295.20294189 265.36486816" stroke-width="1.87934971" fill="rgb(247, 239, 215)" opacity="1.0" stroke="rgb(133, 103, 85)" stroke-opacity="0.5427932" stroke-linecap="round" stroke-linejoin="round"/>
  </g>
</svg>
