<svg xmlns="http://www.w3.org/2000/svg" viewBox="0 0 512 512" height="512.0px" width="512.0px">
<path id="" fill="#D2691E" fill-opacity="1.0" stroke="#000000" stroke-width="0.0" stroke-opacity="1.0" stroke-linecap="round" stroke-linejoin="round"  filling="0" d="M256.000 400.000 C239.333 350.000 222.667 300.000 206.000 250.000 C239.333 250.000 272.667 250.000 306.000 250.000 C289.333 300.000 272.667 350.000 256.000 400.000"></path>
<path id="" fill="#FFB6C1" fill-opacity="1.0" stroke="#000000" stroke-width="0.0" stroke-opacity="1.0" stroke-linecap="round" stroke-linejoin="round"  filling="0" d="M316.000 220.000 C316.000 235.907 309.674 251.179 298.426 262.426 C287.179 273.674 271.907 280.000 256.000 280.000 C240.093 280.000 224.821 273.674 213.574 262.426 C202.326 251.179 196.000 235.907 196.000 220.000 C196.000 204.093 202.326 188.821 213.574 177.574 C224.821 166.326 240.093 160.000 256.000 160.000 C271.907 160.000 287.179 166.326 298.426 177.574 C309.674 188.821 316.000 204.093 316.000 220.000"></path>
<path id="" fill="#8B4513" fill-opacity="1.0" stroke="#000000" stroke-width="0.0" stroke-opacity="1.0" stroke-linecap="round" stroke-linejoin="round"  filling="0" d="M311.000 150.000 C311.000 164.581 305.201 178.580 294.891 188.891 C284.580 199.201 270.581 205.000 256.000 205.000 C241.419 205.000 227.420 199.201 217.109 188.891 C206.799 178.580 201.000 164.581 201.000 150.000 C201.000 135.419 206.799 121.420 217.109 111.109 C227.420 100.799 241.419 95.000 256.000 95.000 C270.581 95.000 284.580 100.799 294.891 111.109 C305.201 121.420 311.000 135.419 311.000 150.000"></path>
<path id="" fill="#f8edd5" fill-opacity="1.0" stroke="#000000" stroke-width="0.0" stroke-opacity="1.0" stroke-linecap="round" stroke-linejoin="round"  filling="0" d="M306.000 90.000 C306.000 103.256 300.729 115.982 291.355 125.355 C281.982 134.729 269.256 140.000 256.000 140.000 C242.744 140.000 230.018 134.729 220.645 125.355 C211.271 115.982 206.000 103.256 206.000 90.000 C206.000 76.744 211.271 64.018 220.645 54.645 C230.018 45.271 242.744 40.000 256.000 40.000 C269.256 40.000 281.982 45.271 291.355 54.645 C300.729 64.018 306.000 76.744 306.000 90.000"></path>
<path id="" fill="#f7f0d8" fill-opacity="1.0" stroke="#000000" stroke-width="0.0" stroke-opacity="1.0" stroke-linecap="round" stroke-linejoin="round"  filling="0" d="M299.500 256.000 C299.167 257.667 298.833 259.333 298.500 261.000 C297.333 262.500 296.167 264.000 295.000 265.500 C294.667 265.500 294.333 265.500 294.000 265.500 C292.333 266.500 290.667 267.500 289.000 268.500 C288.333 268.500 287.667 268.500 287.000 268.500 C286.667 268.833 286.333 269.167 286.000 269.500 C285.667 269.500 285.333 269.500 285.000 269.500 C284.000 270.500 283.000 271.500 282.000 272.500 C281.333 272.500 280.667 272.500 280.000 272.500 C279.667 272.833 279.333 273.167 279.000 273.500 C277.000 273.500 275.000 273.500 273.000 273.500 C272.667 273.833 272.333 274.167 272.000 274.500 C270.000 274.500 268.000 274.500 266.000 274.500 C265.667 274.833 265.333 275.167 265.000 275.500 C264.333 275.500 263.667 275.500 263.000 275.500 C262.667 275.833 262.333 276.167 262.000 276.500 C260.667 276.500 259.333 276.500 258.000 276.500 C257.667 276.167 257.333 275.833 257.000 275.500 C253.000 275.500 249.000 275.500 245.000 275.500 C244.667 275.167 244.333 274.833 244.000 274.500 C241.667 274.500 239.333 274.500 237.000 274.500 C236.667 274.167 236.333 273.833 236.000 273.500 C235.333 273.500 234.667 273.500 234.000 273.500 C232.333 272.500 230.667 271.500 229.000 270.500 C227.667 270.500 226.333 270.500 225.000 270.500 C224.000 269.500 223.000 268.500 222.000 267.500 C221.667 267.500 221.333 267.500 221.000 267.500 C220.667 267.167 220.333 266.833 220.000 266.500 C219.333 266.500 218.667 266.500 218.000 266.500 C217.333 265.833 216.667 265.167 216.000 264.500 C215.667 264.500 215.333 264.500 215.000 264.500 C213.833 263.333 212.667 262.167 211.500 261.000 C211.500 260.333 211.500 259.667 211.500 259.000 C211.167 258.667 210.833 258.333 210.500 258.000 C210.667 257.500 210.833 257.000 211.000 256.500 C212.000 256.500 213.000 256.500 214.000 256.500 C214.333 256.833 214.667 257.167 215.000 257.500 C217.333 258.500 219.667 259.500 222.000 260.500 C222.667 261.167 223.333 261.833 224.000 262.500 C225.000 262.500 226.000 262.500 227.000 262.500 C228.667 263.500 230.333 264.500 232.000 265.500 C233.000 265.500 234.000 265.500 235.000 265.500 C236.000 266.167 237.000 266.833 238.000 267.500 C239.000 267.500 240.000 267.500 241.000 267.500 C241.333 267.167 241.667 266.833 242.000 266.500 C242.667 266.500 243.333 266.500 244.000 266.500 C244.333 266.833 244.667 267.167 245.000 267.500 C245.667 267.500 246.333 267.500 247.000 267.500 C247.333 267.833 247.667 268.167 248.000 268.500 C248.667 268.500 249.333 268.500 250.000 268.500 C250.333 268.167 250.667 267.833 251.000 267.500 C253.000 267.500 255.000 267.500 257.000 267.500 C257.333 267.833 257.667 268.167 258.000 268.500 C259.000 268.500 260.000 268.500 261.000 268.500 C261.333 268.167 261.667 267.833 262.000 267.500 C262.667 267.500 263.333 267.500 264.000 267.500 C264.333 267.167 264.667 266.833 265.000 266.500 C265.333 266.500 265.667 266.500 266.000 266.500 C266.333 266.833 266.667 267.167 267.000 267.500 C268.667 267.500 270.333 267.500 272.000 267.500 C272.333 267.167 272.667 266.833 273.000 266.500 C273.667 266.500 274.333 266.500 275.000 266.500 C275.333 266.167 275.667 265.833 276.000 265.500 C277.667 265.167 279.333 264.833 281.000 264.500 C282.667 263.500 284.333 262.500 286.000 261.500 C287.333 261.500 288.667 261.500 290.000 261.500 C292.000 259.833 294.000 258.167 296.000 256.500 C296.667 256.500 297.333 256.500 298.000 256.500 C298.333 256.167 298.667 255.833 299.000 255.500 C299.167 255.667 299.333 255.833 299.500 256.000"></path>
</svg>