<svg xmlns="http://www.w3.org/2000/svg" viewBox="0 0 512 512" height="512.0px" width="512.0px">
<path id="" fill="#FF0000" fill-opacity="1.0" stroke="#000000" stroke-width="0.0" stroke-opacity="1.0" stroke-linecap="round" stroke-linejoin="round"  filling="0" d="M356 256 C356 283 345 308 327 327 C308 345 283 356 256 356 C229 356 204 345 185 327 C167 308 156 283 156 256 C156 229 167 204 185 185 C204 167 229 156 256 156 C283 156 308 167 327 185 C345 204 356 229 356 256"></path>
<path id="" fill="#FFFFFF" fill-opacity="1.0" stroke="#000000" stroke-width="0.0" stroke-opacity="1.0" stroke-linecap="round" stroke-linejoin="round"  filling="0" d="M221 216 C221 219 219 221 217 223 C214 225 210 226 206 226 C202 226 198 225 195 223 C193 221 191 219 191 216 C191 213 193 211 195 209 C198 207 202 206 206 206 C210 206 214 207 217 209 C219 211 221 213 221 216"></path>
<path id="" fill="#8B4513" fill-opacity="1.0" stroke="#000000" stroke-width="0.0" stroke-opacity="1.0" stroke-linecap="round" stroke-linejoin="round"  filling="0" d="M254 156 C254 146 254 136 254 126 C255 126 257 126 258 126 C258 136 258 146 258 156 C257 156 255 156 254 156"></path>
<path id="" fill="#008000" fill-opacity="1.0" stroke="#000000" stroke-width="0.0" stroke-opacity="1.0" stroke-linecap="round" stroke-linejoin="round"  filling="0" d="M256 156 C243 143 229 139 216 146 C229 149 243 153 256 156"></path>
<path id="" fill="#008000" fill-opacity="1.0" stroke="#000000" stroke-width="0.0" stroke-opacity="1.0" stroke-linecap="round" stroke-linejoin="round"  filling="0" d="M256 156 C269 143 283 139 296 146 C283 149 269 153 256 156"></path>
</svg>