<svg xmlns="http://www.w3.org/2000/svg" viewBox="0 0 256 256" height="256.0px" width="256.0px">
<path id="" fill="#D32F2F" fill-opacity="1.0" stroke="#000000" stroke-width="0.0" stroke-opacity="1.0" stroke-linecap="round" stroke-linejoin="round"  filling="0" d="M83.000 175.000 C113.000 175.000 143.000 175.000 173.000 175.000 C174.326 175.000 175.598 175.527 176.536 176.464 C177.473 177.402 178.000 178.674 178.000 180.000 C178.000 193.333 178.000 206.667 178.000 220.000 C178.000 221.326 177.473 222.598 176.536 223.536 C175.598 224.473 174.326 225.000 173.000 225.000 C143.000 225.000 113.000 225.000 83.000 225.000 C81.674 225.000 80.402 224.473 79.465 223.536 C78.527 222.598 78.000 221.326 78.000 220.000 C78.000 206.667 78.000 193.333 78.000 180.000 C78.000 178.674 78.527 177.402 79.465 176.464 C80.402 175.527 81.674 175.000 83.000 175.000"></path>
<path id="" fill="#8B0000" fill-opacity="1.0" stroke="#000000" stroke-width="0.0" stroke-opacity="1.0" stroke-linecap="round" stroke-linejoin="round"  filling="0" d="M80.500 220.000 C112.166 220.000 143.833 220.000 175.500 220.000 C175.500 221.667 175.500 223.333 175.500 225.000 C143.833 225.000 112.166 225.000 80.500 225.000 C80.500 223.333 80.500 221.667 80.500 220.000"></path>
<path id="" fill="#5D4037" fill-opacity="1.0" stroke="#000000" stroke-width="0.0" stroke-opacity="1.0" stroke-linecap="round" stroke-linejoin="round"  filling="0" d="M124.518 176.393 C117.576 159.036 115.843 141.660 119.323 124.265 C122.607 107.840 124.250 91.419 124.250 75.000 C124.250 74.876 124.250 74.753 124.250 74.629 C124.274 74.507 124.299 74.386 124.323 74.265 C127.558 58.088 127.558 41.912 124.323 25.736 C126.774 25.245 129.225 24.755 131.677 24.264 C135.085 41.300 135.109 58.335 131.749 75.370 C131.725 92.161 130.035 108.950 126.677 125.735 C123.490 141.673 125.091 157.631 131.482 173.607 C129.161 174.536 126.840 175.464 124.518 176.393"></path>
<path id="" fill="#5D4037" fill-opacity="1.0" stroke="#000000" stroke-width="0.0" stroke-opacity="1.0" stroke-linecap="round" stroke-linejoin="round"  filling="0" d="M121.586 126.414 C115.453 120.282 106.086 118.790 93.485 121.940 C93.161 120.647 92.839 119.353 92.515 118.060 C106.580 114.543 117.214 116.385 124.414 123.586 C123.471 124.529 122.529 125.471 121.586 126.414"></path>
<path id="" fill="#5D4037" fill-opacity="1.0" stroke="#000000" stroke-width="0.0" stroke-opacity="1.0" stroke-linecap="round" stroke-linejoin="round"  filling="0" d="M126.891 98.336 C137.381 91.342 149.579 89.583 163.485 93.060 C163.161 94.353 162.839 95.647 162.515 96.940 C149.753 93.750 138.618 95.325 129.109 101.664 C128.370 100.554 127.630 99.446 126.891 98.336"></path>
<path id="" fill="#5D4037" fill-opacity="1.0" stroke="#000000" stroke-width="0.0" stroke-opacity="1.0" stroke-linecap="round" stroke-linejoin="round"  filling="0" d="M127.168 76.248 C117.723 69.951 108.277 69.951 98.832 76.248 C98.277 75.416 97.723 74.584 97.168 73.752 C107.723 66.715 118.277 66.715 128.832 73.752 C128.277 74.584 127.723 75.416 127.168 76.248"></path>
<path id="" fill="#1B5E20" fill-opacity="1.0" stroke="#000000" stroke-width="0.0" stroke-opacity="1.0" stroke-linecap="round" stroke-linejoin="round"  filling="0" d="M113.000 120.000 C113.000 125.302 110.892 130.393 107.142 134.142 C103.393 137.891 98.302 140.000 93.000 140.000 C87.698 140.000 82.607 137.891 78.858 134.142 C75.108 130.393 73.000 125.302 73.000 120.000 C73.000 114.698 75.108 109.607 78.858 105.858 C82.607 102.108 87.698 100.000 93.000 100.000 C98.302 100.000 103.393 102.108 107.142 105.858 C110.892 109.607 113.000 114.698 113.000 120.000"></path>
<path id="" fill="#2E7D32" fill-opacity="1.0" stroke="#000000" stroke-width="0.0" stroke-opacity="1.0" stroke-linecap="round" stroke-linejoin="round"  filling="0" d="M158.000 40.000 C158.000 47.953 154.837 55.590 149.213 61.213 C143.589 66.837 135.954 70.000 128.000 70.000 C120.047 70.000 112.410 66.837 106.787 61.213 C101.163 55.590 98.000 47.953 98.000 40.000 C98.000 32.047 101.163 24.410 106.787 18.787 C112.410 13.163 120.047 10.000 128.000 10.000 C135.954 10.000 143.589 13.163 149.213 18.787 C154.837 24.410 158.000 32.047 158.000 40.000"></path>
<path id="" fill="#388E3C" fill-opacity="1.0" stroke="#000000" stroke-width="0.0" stroke-opacity="1.0" stroke-linecap="round" stroke-linejoin="round"  filling="0" d="M188.000 95.000 C188.000 101.628 185.365 107.991 180.678 112.677 C175.991 117.365 169.628 120.000 163.000 120.000 C156.372 120.000 150.009 117.365 145.322 112.677 C140.635 107.991 138.000 101.628 138.000 95.000 C138.000 88.372 140.635 82.009 145.322 77.323 C150.009 72.635 156.372 70.000 163.000 70.000 C169.628 70.000 175.991 72.635 180.678 77.323 C185.365 82.009 188.000 88.372 188.000 95.000"></path>
<path id="" fill="#43A047" fill-opacity="1.0" stroke="#000000" stroke-width="0.0" stroke-opacity="1.0" stroke-linecap="round" stroke-linejoin="round"  filling="0" d="M120.500 75.000 C120.500 80.965 118.128 86.692 113.910 90.910 C109.692 95.128 103.965 97.500 98.000 97.500 C92.035 97.500 86.308 95.128 82.090 90.910 C77.872 86.692 75.500 80.965 75.500 75.000 C75.500 69.035 77.872 63.308 82.090 59.090 C86.308 54.872 92.035 52.500 98.000 52.500 C103.965 52.500 109.692 54.872 113.910 59.090 C118.128 63.308 120.500 69.035 120.500 75.000"></path>
<path id="" fill="#4CAF50" fill-opacity="1.0" stroke="#000000" stroke-width="0.0" stroke-opacity="1.0" stroke-linecap="round" stroke-linejoin="round"  filling="0" d="M173.000 55.000 C173.000 60.303 170.891 65.393 167.142 69.142 C163.393 72.892 158.303 75.000 153.000 75.000 C147.697 75.000 142.607 72.892 138.858 69.142 C135.109 65.393 133.000 60.303 133.000 55.000 C133.000 49.697 135.109 44.607 138.858 40.858 C142.607 37.109 147.697 35.000 153.000 35.000 C158.303 35.000 163.393 37.109 167.142 40.858 C170.891 44.607 173.000 49.697 173.000 55.000"></path>
<path id="" fill="#66BB6A" fill-opacity="1.0" stroke="#000000" stroke-width="0.0" stroke-opacity="1.0" stroke-linecap="round" stroke-linejoin="round"  filling="0" d="M125.500 85.000 C125.500 88.314 124.182 91.495 121.839 93.839 C119.495 96.182 116.314 97.500 113.000 97.500 C109.686 97.500 106.505 96.182 104.161 93.839 C101.818 91.495 100.500 88.314 100.500 85.000 C100.500 81.686 101.818 78.505 104.161 76.161 C106.505 73.818 109.686 72.500 113.000 72.500 C116.314 72.500 119.495 73.818 121.839 76.161 C124.182 78.505 125.500 81.686 125.500 85.000"></path>
<path id="" fill="#81C784" fill-opacity="1.0" stroke="#000000" stroke-width="0.0" stroke-opacity="1.0" stroke-linecap="round" stroke-linejoin="round"  filling="0" d="M158.000 75.000 C158.000 78.977 156.419 82.795 153.607 85.606 C150.794 88.419 146.977 90.000 143.000 90.000 C139.023 90.000 135.206 88.419 132.393 85.606 C129.581 82.795 128.000 78.977 128.000 75.000 C128.000 71.023 129.581 67.205 132.393 64.394 C135.206 61.581 139.023 60.000 143.000 60.000 C146.977 60.000 150.794 61.581 153.607 64.394 C156.419 67.205 158.000 71.023 158.000 75.000"></path>
<path id="" fill="#A5D6A7" fill-opacity="1.0" stroke="#000000" stroke-width="0.0" stroke-opacity="1.0" stroke-linecap="round" stroke-linejoin="round"  filling="0" d="M133.000 105.000 C133.000 107.651 131.945 110.197 130.071 112.071 C128.197 113.946 125.651 115.000 123.000 115.000 C120.349 115.000 117.803 113.946 115.929 112.071 C114.054 110.197 113.000 107.651 113.000 105.000 C113.000 102.349 114.054 99.803 115.929 97.929 C117.803 96.054 120.349 95.000 123.000 95.000 C125.651 95.000 128.197 96.054 130.071 97.929 C131.945 99.803 133.000 102.349 133.000 105.000"></path>
<path id="" fill="#C8E6C9" fill-opacity="1.0" stroke="#000000" stroke-width="0.0" stroke-opacity="1.0" stroke-linecap="round" stroke-linejoin="round"  filling="0" d="M145.500 35.000 C145.500 36.988 144.710 38.897 143.303 40.303 C141.898 41.710 139.988 42.500 138.000 42.500 C136.012 42.500 134.102 41.710 132.697 40.303 C131.290 38.897 130.500 36.988 130.500 35.000 C130.500 33.012 131.290 31.103 132.697 29.697 C134.102 28.290 136.012 27.500 138.000 27.500 C139.988 27.500 141.898 28.290 143.303 29.697 C144.710 31.103 145.500 33.012 145.500 35.000"></path>
<path id="" fill="#ded1aa" fill-opacity="1.0" stroke="#000000" stroke-width="0.0" stroke-opacity="1.0" stroke-linecap="round" stroke-linejoin="round"  filling="0" d="M116.250 172.500 C116.250 172.833 116.250 173.167 116.250 173.500 C115.834 173.917 115.416 174.333 115.000 174.750 C113.500 174.750 112.000 174.750 110.500 174.750 C110.334 174.917 110.166 175.083 110.000 175.250 C104.000 175.250 98.000 175.250 92.000 175.250 C91.750 175.000 91.500 174.750 91.250 174.500 C91.250 174.000 91.250 173.500 91.250 173.000 C91.416 172.833 91.584 172.667 91.750 172.500 C91.750 172.333 91.750 172.167 91.750 172.000 C92.084 171.667 92.416 171.333 92.750 171.000 C92.750 170.833 92.750 170.667 92.750 170.500 C94.000 169.250 95.250 168.000 96.500 166.750 C96.666 166.750 96.834 166.750 97.000 166.750 C97.334 166.417 97.666 166.083 98.000 165.750 C98.166 165.750 98.334 165.750 98.500 165.750 C98.666 165.583 98.834 165.417 99.000 165.250 C99.334 165.250 99.666 165.250 100.000 165.250 C100.166 165.083 100.334 164.917 100.500 164.750 C102.500 164.750 104.500 164.750 106.500 164.750 C106.666 164.917 106.834 165.083 107.000 165.250 C107.334 165.250 107.666 165.250 108.000 165.250 C108.166 165.417 108.334 165.583 108.500 165.750 C108.666 165.750 108.834 165.750 109.000 165.750 C109.166 165.917 109.334 166.083 109.500 166.250 C109.666 166.250 109.834 166.250 110.000 166.250 C110.166 166.417 110.334 166.583 110.500 166.750 C110.666 166.750 110.834 166.750 111.000 166.750 C111.334 167.083 111.666 167.417 112.000 167.750 C112.166 167.750 112.334 167.750 112.500 167.750 C112.584 167.833 112.666 167.917 112.750 168.000 C112.750 168.167 112.750 168.333 112.750 168.500 C113.750 169.500 114.750 170.500 115.750 171.500 C115.750 171.667 115.750 171.833 115.750 172.000 C115.916 172.167 116.084 172.333 116.250 172.500"></path>
<path id="" fill="#dacd9f" fill-opacity="1.0" stroke="#000000" stroke-width="0.0" stroke-opacity="1.0" stroke-linecap="round" stroke-linejoin="round"  filling="0" d="M149.250 174.500 C149.000 174.750 148.750 175.000 148.500 175.250 C140.667 175.250 132.833 175.250 125.000 175.250 C124.750 175.000 124.500 174.750 124.250 174.500 C124.250 174.333 124.250 174.167 124.250 174.000 C124.666 173.583 125.084 173.167 125.500 172.750 C125.666 172.750 125.834 172.750 126.000 172.750 C126.250 172.500 126.500 172.250 126.750 172.000 C126.750 171.833 126.750 171.667 126.750 171.500 C127.834 170.417 128.917 169.333 130.000 168.250 C130.167 168.250 130.333 168.250 130.500 168.250 C130.833 167.917 131.167 167.583 131.500 167.250 C131.833 167.250 132.167 167.250 132.500 167.250 C132.667 167.083 132.833 166.917 133.000 166.750 C133.167 166.750 133.333 166.750 133.500 166.750 C133.667 166.583 133.833 166.417 134.000 166.250 C134.500 166.250 135.000 166.250 135.500 166.250 C135.667 166.083 135.833 165.917 136.000 165.750 C137.167 165.750 138.333 165.750 139.500 165.750 C139.667 165.917 139.833 166.083 140.000 166.250 C140.333 166.250 140.667 166.250 141.000 166.250 C141.167 166.417 141.333 166.583 141.500 166.750 C141.833 166.750 142.167 166.750 142.500 166.750 C142.667 166.917 142.833 167.083 143.000 167.250 C143.167 167.250 143.333 167.250 143.500 167.250 C144.750 168.500 146.000 169.750 147.250 171.000 C147.250 171.167 147.250 171.333 147.250 171.500 C147.750 172.000 148.250 172.500 148.750 173.000 C148.750 173.167 148.750 173.333 148.750 173.500 C148.917 173.667 149.083 173.833 149.250 174.000 C149.250 174.167 149.250 174.333 149.250 174.500"></path>
<path id="" fill="#efeace" fill-opacity="1.0" stroke="#000000" stroke-width="0.0" stroke-opacity="1.0" stroke-linecap="round" stroke-linejoin="round"  filling="0" d="M169.250 174.000 C169.250 174.333 169.250 174.667 169.250 175.000 C169.167 175.083 169.083 175.167 169.000 175.250 C166.000 175.250 163.000 175.250 160.000 175.250 C159.917 175.167 159.833 175.083 159.750 175.000 C159.750 174.833 159.750 174.667 159.750 174.500 C160.000 174.250 160.250 174.000 160.500 173.750 C160.667 173.750 160.833 173.750 161.000 173.750 C161.167 173.583 161.333 173.417 161.500 173.250 C161.667 173.250 161.833 173.250 162.000 173.250 C162.167 173.083 162.333 172.917 162.500 172.750 C164.167 172.750 165.833 172.750 167.500 172.750 C167.667 172.917 167.833 173.083 168.000 173.250 C168.167 173.250 168.333 173.250 168.500 173.250 C168.750 173.500 169.000 173.750 169.250 174.000"></path>
<path id="" fill="#c7b89d" fill-opacity="1.0" stroke="#000000" stroke-width="0.0" stroke-opacity="1.0" stroke-linecap="round" stroke-linejoin="round"  filling="0" d="M158.250 174.500 C158.000 174.750 157.750 175.000 157.500 175.250 C155.167 175.250 152.833 175.250 150.500 175.250 C150.417 175.167 150.333 175.083 150.250 175.000 C150.250 174.667 150.250 174.333 150.250 174.000 C150.500 173.750 150.750 173.500 151.000 173.250 C151.167 173.250 151.333 173.250 151.500 173.250 C151.667 173.083 151.833 172.917 152.000 172.750 C153.167 172.750 154.333 172.750 155.500 172.750 C155.667 172.917 155.833 173.083 156.000 173.250 C156.167 173.250 156.333 173.250 156.500 173.250 C156.667 173.417 156.833 173.583 157.000 173.750 C157.167 173.750 157.333 173.750 157.500 173.750 C157.750 174.000 158.000 174.250 158.250 174.500"></path>
</svg>