<?xml version="1.0" ?>
<svg xmlns="http://www.w3.org/2000/svg" version="1.1" width="256" height="256" viewBox="0 0 256 256">
  <defs/>
  <g>
    <path d="M 177.94076538 219.76943970 C 175.99967957 227.70964050 161.67089844 225.46794128 152.15594482 225.10087585 C 142.65182495 224.66670227 134.18518066 224.96429443 122.73120117 224.87646484 C 113.98591614 225.23422241 103.73360443 225.29370117 93.94192505 224.81756592 C 82.32350159 225.72296143 75.33979797 225.01766968 77.95089722 208.44209290 C 78.63432312 201.55813599 76.43680573 190.07960510 79.39204407 180.27291870 C 87.73731995 172.75180054 92.27574158 174.66056824 102.45941162 175.06425476 C 115.77457428 175.39999390 120.30690002 175.09858704 132.28674316 174.88580322 C 143.48103333 174.74188232 150.98185730 175.41078186 161.10505676 174.84130859 C 175.68309021 173.07415771 179.16702271 178.39350891 177.63183594 189.63317871 C 177.41548157 198.98548889 179.74604797 210.58543396 177.94076538 219.76943970" stroke-width="0.80000001" fill="rgb(211, 47, 47)" opacity="1.0" stroke="rgb(0, 0, 0)" stroke-opacity="1.0" stroke-linecap="round" stroke-linejoin="round"/>
    <path d="M 163.11830139 224.95709229 C 156.52806091 225.00759888 152.31605530 225.31497192 143.50740051 224.98040771 C 137.51885986 224.73867798 130.70463562 225.21086121 124.23214722 225.02369690 C 115.83808136 225.12170410 110.78343964 225.14605713 104.55652618 224.61335754 C 94.17093658 224.32583618 93.06061554 226.83222961 82.27206421 224.83389282 C 76.88375854 219.27284241 85.19142914 220.00939941 92.62805176 220.05693054 C 103.30238342 220.38209534 103.75668335 220.15493774 110.56787109 219.71949768 C 120.97492981 219.86628723 123.32048035 220.01736450 130.83026123 220.19816589 C 140.12701416 219.22027588 143.43518066 220.26573181 151.92340088 220.14587402 C 159.63618469 220.82489014 164.39859009 218.84930420 172.65466309 219.50779724 C 180.81063843 224.16610718 172.10537720 226.12515259 163.11830139 224.95709229" stroke-width="0.80000001" fill="rgb(139, 0, 0)" opacity="1.0" stroke="rgb(0, 0, 0)" stroke-opacity="1.0" stroke-linecap="round" stroke-linejoin="round"/>
    <path d="M 125.36518097 135.71005249 C 124.95462799 147.82823181 125.72082520 154.75680542 129.00364685 166.60995483 C 130.74867249 183.16029358 120.67433167 172.81317139 119.69452667 160.58274841 C 116.38041687 149.36874390 117.89616394 140.22998047 118.60617828 128.34297180 C 120.56240082 117.01999664 121.47295380 110.39646149 123.74822235 96.85682678 C 123.63244629 86.34205627 124.63808441 77.53900909 124.60492706 64.23626709 C 126.53807831 47.69398880 127.67524719 47.78780746 125.61033630 35.73492432 C 123.02669525 14.22669220 135.67395020 29.69000244 133.93627930 40.10359573 C 135.90202332 54.80470657 133.36471558 60.48440552 132.18132019 70.85996246 C 131.28627014 83.11589813 131.78469849 93.68397522 130.06248474 103.65195465 C 128.89282227 118.43881989 126.33600616 120.88831329 125.36518097 135.71005249" stroke-width="0.80000001" fill="rgb(93, 64, 55)" opacity="1.0" stroke="rgb(0, 0, 0)" stroke-opacity="1.0" stroke-linecap="round" stroke-linejoin="round"/>
    <path d="M 94.05509949 117.74613953 C 95.86033630 117.24675751 98.51109314 116.69409180 100.71318817 116.55197906 C 103.55696869 116.30029297 105.58890533 116.27326202 107.85960388 116.42071533 C 110.75824738 116.75859833 112.53247833 116.89616394 114.95863342 117.74449921 C 117.60135651 118.75687408 119.51018524 119.68502808 121.44638824 120.95523834 C 123.49419403 122.15902710 125.53810883 125.39408112 121.82519531 125.23794556 C 118.94703674 124.58607483 118.26667786 124.35577393 116.77074432 122.85559082 C 113.40670776 121.16352844 113.31661987 121.45431519 109.44779205 120.81267548 C 107.26770782 120.63638306 105.34445953 120.06600952 102.16841888 120.36090088 C 99.97406006 120.47354889 98.35648346 121.13725281 95.36621094 121.74150848 C 92.03370667 121.91828918 91.25420380 118.65775299 94.05509949 117.74613953" stroke-width="0.80000001" fill="rgb(93, 64, 55)" opacity="1.0" stroke="rgb(0, 0, 0)" stroke-opacity="1.0" stroke-linecap="round" stroke-linejoin="round"/>
    <path d="M 154.03802490 95.53015900 C 152.13345337 95.37055969 149.88143921 95.11494446 146.44920349 95.48031616 C 143.57890320 95.90563202 142.09727478 96.19732666 138.63117981 97.03932190 C 135.84506226 97.82115173 134.45033264 98.74573517 131.40589905 100.59202576 C 129.02235413 101.07476044 125.98104858 100.11295319 127.95396423 97.57625580 C 131.50738525 95.24406433 131.98884583 95.41542816 135.62075806 93.94931030 C 139.48368835 92.72358704 139.43289185 92.66833496 142.39038086 91.91895294 C 146.67562866 91.53902435 146.45384216 91.29349518 150.98118591 91.29026794 C 153.65022278 91.53009033 156.25675964 91.55908203 159.52815247 92.05535126 C 161.48243713 92.29647827 166.14106750 93.67807007 163.70390320 96.36498260 C 159.85997009 97.02736664 158.12719727 96.06211090 154.03802490 95.53015900" stroke-width="0.80000001" fill="rgb(93, 64, 55)" opacity="1.0" stroke="rgb(0, 0, 0)" stroke-opacity="1.0" stroke-linecap="round" stroke-linejoin="round"/>
    <path d="M 117.07229614 71.69277191 C 115.48888397 71.52756500 114.10516357 71.20979309 110.98857880 71.70970154 C 107.96983337 72.04540253 107.54316711 72.19153595 104.35449982 73.18848419 C 101.44962311 74.57081604 100.69673157 76.06978607 98.29771423 75.58890533 C 96.96737671 73.54425049 98.47674561 72.39694977 101.32180786 71.37074280 C 104.42285919 69.89024353 105.01147461 69.67562103 108.17676544 69.00022125 C 112.15818024 68.58044434 111.41993713 68.50258636 114.42325592 68.57286835 C 118.29402161 68.99525452 117.90267181 68.75499725 121.73459625 70.09632111 C 123.75578308 70.97769165 125.79747009 71.45475006 128.03915405 73.27145386 C 130.71128845 76.08889771 127.58426666 76.25758362 125.37428284 74.86814880 C 121.63904572 73.62610626 121.60821533 73.17456818 117.07229614 71.69277191" stroke-width="0.80000001" fill="rgb(93, 64, 55)" opacity="1.0" stroke="rgb(0, 0, 0)" stroke-opacity="1.0" stroke-linecap="round" stroke-linejoin="round"/>
    <path d="M 83.97779846 137.91712952 C 81.58983612 136.87777710 78.24462891 134.11079407 75.73786163 130.10859680 C 73.71977234 126.59267426 72.03784943 122.40129852 73.06459045 117.79538727 C 74.06766510 113.10219574 74.54169464 110.93634033 78.40452576 106.31204987 C 80.82871246 103.51425171 83.72433472 101.49191284 89.24635315 100.31696320 C 92.10543060 99.81733704 98.40627289 99.99189758 101.58351135 102.26390076 C 105.75749969 104.80060577 108.10697937 106.54193115 109.62576294 109.32226562 C 112.49709320 114.39862823 113.37315369 117.57505035 112.86322021 121.19484711 C 112.07106018 126.68387604 111.01792145 129.89836121 108.27785492 133.07308960 C 104.28691864 136.67884827 101.82608032 138.29537964 98.16687012 139.63687134 C 91.37310028 140.70034790 90.82862854 140.07250977 83.97779846 137.91712952" stroke-width="0.80000001" fill="rgb(27, 94, 32)" opacity="1.0" stroke="rgb(0, 0, 0)" stroke-opacity="1.0" stroke-linecap="round" stroke-linejoin="round"/>
    <path d="M 114.32822418 66.81259155 C 110.88815308 65.01974487 106.08126831 61.42121124 102.04531097 55.33739853 C 98.94853210 49.45355225 97.85353088 44.26015472 98.17445374 37.88542938 C 97.95520020 29.84501266 101.80270386 24.46413422 104.79205322 21.10875702 C 111.99179077 14.05456924 114.03442383 13.15039825 121.24000549 10.48629951 C 131.18118286 9.40610886 132.28153992 9.80558205 139.99542236 12.76351166 C 150.04371643 19.38527679 147.39358521 16.64628029 152.81289673 23.76442719 C 156.87382507 31.34532547 158.33180237 35.50980377 158.07073975 41.96612930 C 157.41743469 48.17986298 154.81027222 55.89469910 151.07319641 59.53276825 C 146.11886597 64.61629486 140.98837280 67.40660095 134.88630676 69.49563599 C 126.94455719 71.03514099 125.23752594 70.32482910 114.32822418 66.81259155" stroke-width="0.80000001" fill="rgb(46, 125, 50)" opacity="1.0" stroke="rgb(0, 0, 0)" stroke-opacity="1.0" stroke-linecap="round" stroke-linejoin="round"/>
    <path d="M 167.21180725 119.79827118 C 162.89608765 120.51343536 156.45445251 119.65873718 151.91021729 117.44893646 C 147.63636780 115.44612122 143.18754578 111.48596191 140.88328552 106.70466614 C 138.68644714 102.46643066 137.26844788 96.57865906 138.46478271 91.24488068 C 138.72767639 86.72135925 141.04278564 81.42223358 145.15197754 77.37305450 C 148.63081360 74.34056091 154.19314575 71.06880188 159.51802063 70.63369751 C 166.03704834 70.18427277 168.99157715 70.29766846 172.93217468 72.70108032 C 179.40560913 76.60190582 181.33235168 77.79330444 184.95951843 83.11503601 C 187.43826294 88.42401886 188.70593262 91.01370239 187.81018066 98.39771271 C 186.64566040 104.07423401 185.57380676 106.76484680 181.15589905 112.30554962 C 177.18696594 116.31989288 173.19757080 118.88800049 167.21180725 119.79827118" stroke-width="0.80000001" fill="rgb(56, 142, 60)" opacity="1.0" stroke="rgb(0, 0, 0)" stroke-opacity="1.0" stroke-linecap="round" stroke-linejoin="round"/>
    <path d="M 119.73953247 81.52763367 C 117.52792358 86.33954620 117.12521362 87.09190369 112.10858154 92.57598877 C 109.08302307 95.08896637 104.66181183 97.70462799 98.75445557 97.23518372 C 94.25459290 97.08803558 91.27739716 97.44514465 85.82173157 94.30867004 C 80.33744812 90.16136932 79.66946411 87.94155121 77.04452515 83.46932220 C 74.78355408 75.12719727 74.97360992 75.80710602 76.56140137 68.91340637 C 80.77183533 60.86257172 78.85871887 63.28012466 83.22727966 58.39377213 C 87.84387970 54.21417999 91.94261169 52.89668274 95.97412872 52.67676544 C 102.23404694 52.62405396 105.99984741 52.66625214 110.38505554 56.13280869 C 114.31745148 59.67478943 115.64619446 60.79602814 119.16033173 66.84761047 C 121.08965302 71.99021149 120.86604309 74.86636353 119.73953247 81.52763367" stroke-width="0.80000001" fill="rgb(67, 160, 71)" opacity="1.0" stroke="rgb(0, 0, 0)" stroke-opacity="1.0" stroke-linecap="round" stroke-linejoin="round"/>
    <path d="M 168.26997375 67.92798615 C 166.41569519 70.55870819 162.10282898 73.11148071 158.01272583 74.37747192 C 153.88655090 75.04712677 150.39125061 75.37905884 146.13490295 73.79107666 C 140.90634155 71.44725800 139.32788086 69.98350525 136.85314941 66.65409851 C 133.52061462 61.16831207 133.28320312 58.43029404 132.68247986 54.73354721 C 133.24316406 49.36785126 134.91178894 45.57674408 137.62864685 42.15649796 C 143.35810852 37.47438812 141.57562256 38.21023941 146.97004700 36.30671692 C 152.37307739 34.89382172 155.75488281 34.86558914 159.86849976 35.99087524 C 164.02236938 37.56306839 168.27328491 41.15296173 169.77111816 43.46900177 C 172.33773804 48.19638062 172.89309692 52.01844025 173.01679993 55.81589127 C 172.97875977 59.93093491 171.33473206 64.39595795 168.26997375 67.92798615" stroke-width="0.80000001" fill="rgb(76, 175, 80)" opacity="1.0" stroke="rgb(0, 0, 0)" stroke-opacity="1.0" stroke-linecap="round" stroke-linejoin="round"/>
    <path d="M 125.39474487 87.07162476 C 125.13972473 88.98748016 123.54195404 91.88736725 121.87992859 93.87835693 C 120.05627441 95.42553711 117.89318085 97.05961609 115.00714111 97.26252747 C 112.67877197 97.54905701 109.83538818 97.54463196 107.49272156 96.20475006 C 104.84010315 95.03974152 103.32836914 93.06098175 101.96469116 90.82682800 C 100.44670105 88.40756226 100.32528687 85.62017059 100.68473816 83.13781738 C 102.42377472 78.70876312 101.65703583 79.89714050 103.70258331 77.07560730 C 105.73007965 74.60144043 108.69707489 72.99723816 110.39440155 72.59848022 C 114.14318848 72.23517609 116.42658234 72.67996216 118.50308228 73.75603485 C 120.93943024 74.79768372 123.04402924 77.28855896 123.93204498 79.08359528 C 125.53652954 81.84864044 125.83528137 84.04164124 125.39474487 87.07162476" stroke-width="0.80000001" fill="rgb(102, 187, 106)" opacity="1.0" stroke="rgb(0, 0, 0)" stroke-opacity="1.0" stroke-linecap="round" stroke-linejoin="round"/>
    <path d="M 154.24981689 85.06061554 C 152.78875732 86.83662415 149.39826965 88.83626556 146.25981140 89.68527985 C 143.52575684 90.19609833 140.27561951 90.20856476 137.16433716 88.78656006 C 134.50482178 87.36047363 131.83757019 85.92361450 130.34513855 82.89074707 C 128.48760986 79.90756989 127.76875305 77.08668518 128.08992004 73.82844543 C 128.19468689 70.44734192 129.56675720 67.82332611 131.75607300 65.24888611 C 136.03294373 61.84468079 135.11854553 62.12142181 138.43618774 61.16688538 C 143.84643555 59.61571503 144.32481384 59.85026169 148.68234253 61.12085724 C 151.30332947 61.98206329 154.63714600 64.38558960 156.08767700 66.99786377 C 157.73988342 69.85029602 157.89935303 73.19971466 157.93734741 76.12973785 C 157.80801392 79.25471497 156.81121826 82.42399597 154.24981689 85.06061554" stroke-width="0.80000001" fill="rgb(129, 199, 132)" opacity="1.0" stroke="rgb(0, 0, 0)" stroke-opacity="1.0" stroke-linecap="round" stroke-linejoin="round"/>
    <path d="M 130.76213074 98.64607239 C 131.70129395 99.69965363 132.89337158 102.48222351 133.04826355 104.31755066 C 133.27404785 106.68289948 132.71586609 108.41091156 131.44335938 110.16407013 C 130.29710388 111.80841827 128.93319702 113.55624390 126.93955994 114.18326569 C 124.99313354 115.01088715 122.59342194 115.23236084 120.58619690 114.76477814 C 118.82090759 114.17827606 116.69480896 113.18823242 115.10134888 111.06847382 C 114.16089630 109.12205505 113.41593170 108.24971008 113.26689911 106.37275696 C 112.83372498 103.86568451 113.52589417 101.41195679 114.21727753 100.05123901 C 115.93955231 97.60359192 117.19646454 96.45990753 119.05616760 95.81887817 C 120.81719971 94.91578674 123.83206177 94.85655975 125.10392761 95.22612000 C 128.06401062 95.94722748 128.81202698 96.57695007 130.76213074 98.64607239" stroke-width="0.80000001" fill="rgb(165, 214, 167)" opacity="1.0" stroke="rgb(0, 0, 0)" stroke-opacity="1.0" stroke-linecap="round" stroke-linejoin="round"/>
    <path d="M 133.46171570 28.98262978 C 134.29943848 28.48852539 135.50227356 28.00284576 137.40188599 27.50338173 C 138.81622314 27.52852440 140.25677490 27.55696487 141.65556335 28.51431656 C 143.32579041 29.49350357 144.10481262 30.45617676 144.69169617 31.61557388 C 145.69168091 33.79895782 145.37414551 34.92265701 145.50257874 36.29506302 C 145.15322876 38.25152588 144.21627808 39.65211868 143.02485657 40.65398407 C 140.50219727 42.04421616 141.25282288 41.76673889 139.30068970 42.20970154 C 137.45408630 42.54781723 135.45101929 42.21513367 134.44398499 41.73116302 C 132.61026001 40.60692596 131.66171265 39.44097900 131.10223389 38.10971832 C 130.54899597 36.71645737 130.45292664 34.97365570 130.64260864 33.39357758 C 130.95405579 31.85830116 131.34628296 30.83322144 133.46171570 28.98262978" stroke-width="0.80000001" fill="rgb(200, 230, 201)" opacity="1.0" stroke="rgb(0, 0, 0)" stroke-opacity="1.0" stroke-linecap="round" stroke-linejoin="round"/>
    <path d="M 112.45856476 167.92094421 C 112.63440704 168.03228760 114.95175934 169.93598938 115.66999054 171.79537964 C 116.80975342 173.85205078 115.43434906 174.68196106 112.63756561 175.00439453 C 110.50593567 174.99230957 109.41050720 175.31929016 106.65351868 175.22639465 C 104.87583923 175.22634888 102.79154968 175.18925476 100.60533905 175.32870483 C 98.22817993 175.23748779 96.63851166 175.28804016 94.55854797 175.24169922 C 92.43209076 174.41284180 90.95541382 173.76332092 91.94631195 172.21281433 C 92.79757690 170.19149780 93.96369171 169.23803711 95.60993958 167.63830566 C 97.44429016 166.27212524 98.68309021 165.68211365 100.41495514 165.03768921 C 102.96468353 164.36366272 104.54238129 164.45414734 106.29239655 164.80513000 C 109.20677185 165.91780090 109.28593445 165.86297607 112.45856476 167.92094421" stroke-width="0.80000001" fill="rgb(222, 209, 170)" opacity="1.0" stroke="rgb(0, 0, 0)" stroke-opacity="1.0" stroke-linecap="round" stroke-linejoin="round"/>
    <path d="M 146.99444580 175.17214966 C 144.74157715 175.24119568 143.60311890 175.28916931 141.20265198 175.37329102 C 138.80303955 175.39616394 137.46351624 175.19982910 135.36267090 175.11286926 C 132.51222229 175.27369690 131.94660950 175.21791077 129.17643738 175.32342529 C 127.36111450 175.17436218 124.63272095 175.79112244 124.36549377 174.06242371 C 125.83438873 172.05232239 126.46971893 171.76004028 128.70942688 169.70291138 C 130.52688599 168.34823608 130.80718994 167.68792725 132.67434692 166.92895508 C 135.05606079 166.06866455 136.22802734 165.78192139 138.49113464 165.71760559 C 140.23345947 165.96026611 141.54338074 166.04479980 143.83015442 167.73490906 C 145.12315369 168.74401855 146.39241028 170.00378418 147.95812988 172.04733276 C 149.01052856 173.29736328 150.06712341 175.12910461 146.99444580 175.17214966" stroke-width="0.80000001" fill="rgb(218, 205, 159)" opacity="1.0" stroke="rgb(0, 0, 0)" stroke-opacity="1.0" stroke-linecap="round" stroke-linejoin="round"/>
    <path d="M 161.42439270 173.24111938 C 162.24098206 172.94868469 162.42370605 172.92684937 163.41908264 172.76541138 C 164.35166931 172.71917725 164.59037781 172.64303589 165.56669617 172.69996643 C 166.43145752 172.82392883 166.70953369 172.83283997 167.84631348 173.10314941 C 168.30567932 173.21868896 169.22479248 173.46450806 169.50390625 174.25584412 C 168.94854736 174.94456482 168.68682861 174.97439575 167.57522583 175.03863525 C 166.56065369 175.17224121 166.65539551 175.15834045 165.74087524 175.24172974 C 164.93202209 175.29672241 164.62396240 175.38040161 163.69282532 175.60150146 C 162.85745239 175.52900696 162.42170715 175.43493652 161.52220154 175.35443115 C 160.53637695 175.06816101 160.20497131 175.17985535 159.63275146 174.58044434 C 159.81578064 173.87187195 160.74011230 173.46337891 161.42439270 173.24111938" stroke-width="0.80000001" fill="rgb(239, 234, 206)" opacity="1.0" stroke="rgb(0, 0, 0)" stroke-opacity="1.0" stroke-linecap="round" stroke-linejoin="round"/>
    <path d="M 157.08738708 175.18153381 C 156.42861938 175.29913330 156.02420044 175.33857727 155.24798584 175.36570740 C 154.42802429 175.37608337 154.11645508 175.34938049 153.47496033 175.30895996 C 152.43505859 175.19139099 152.41790771 175.20208740 151.43785095 175.10293579 C 150.98529053 175.03207397 150.20933533 175.03135681 149.89671326 174.41421509 C 150.42858887 173.65060425 150.65017700 173.72860718 151.44575500 173.37121582 C 152.38830566 173.04597473 152.16766357 173.06954956 152.96382141 172.87786865 C 153.79612732 172.71266174 154.04693604 172.65390015 154.74070740 172.64254761 C 155.43391418 172.87481689 155.70971680 173.03378296 156.42527771 173.26519775 C 157.19287109 173.73071289 157.32154846 173.64340210 158.10452271 174.16836548 C 158.52734375 174.80091858 157.63235474 175.17053223 157.08738708 175.18153381" stroke-width="0.80000001" fill="rgb(199, 184, 157)" opacity="1.0" stroke="rgb(0, 0, 0)" stroke-opacity="1.0" stroke-linecap="round" stroke-linejoin="round"/>
  </g>
</svg>
