<?xml version="1.0" ?>
<svg xmlns="http://www.w3.org/2000/svg" version="1.1" width="256" height="256" viewBox="0 0 256 256">
  <defs/>
  <g>
    <path d="M 175.94210815 218.54583740 C 173.47262573 225.59422302 162.92070007 222.41702271 150.92149353 222.10391235 C 139.91183472 221.90579224 131.36170959 222.83209229 120.52444458 222.44984436 C 110.55096436 223.55439758 100.93298340 222.94528198 91.14916992 222.79769897 C 75.61503601 223.33895874 77.08346558 221.14234924 76.79266357 207.20507812 C 78.00073242 199.19909668 75.35584259 186.10426331 77.85390472 177.23213196 C 85.90843201 174.23945618 88.37211609 175.06277466 99.57512665 173.92242432 C 113.01491547 173.54867554 116.99072266 174.27943420 129.14279175 173.92536926 C 139.49215698 173.86759949 149.25267029 175.62937927 158.21499634 175.25921631 C 173.51235962 176.85211182 178.05027771 172.99931335 176.33197021 185.94529724 C 175.65338135 198.89390564 176.92466736 208.77391052 175.94210815 218.54583740" stroke-width="1.35613585" fill="rgb(174, 85, 42)" opacity="1.0" stroke="rgb(35, 11, 0)" stroke-opacity="0.75452447" stroke-linecap="round" stroke-linejoin="round"/>
    <path d="M 163.20764160 223.92004395 C 156.48132324 224.51647949 153.68635559 224.09529114 144.37442017 224.22721863 C 136.69975281 224.00080872 131.89807129 224.43150330 123.80590057 224.10255432 C 116.66983795 224.31837463 112.34193420 224.49984741 103.10871887 224.20205688 C 96.43912506 223.77125549 89.49981689 224.79135132 80.86737061 224.01301575 C 75.70244598 217.90425110 82.79263306 220.64926147 90.72013855 220.82850647 C 99.99235535 221.01766968 102.27777863 221.16642761 108.02951050 220.72329712 C 116.37004089 220.53245544 120.63950348 220.79156494 126.61669159 221.01644897 C 134.98405457 220.04658508 138.34698486 221.08131409 146.81622314 220.84719849 C 154.48596191 221.53303528 160.48704529 220.20118713 168.12686157 220.46009827 C 176.70306396 221.45414734 176.39678955 225.74510193 163.20764160 223.92004395" stroke-width="0.59580201" fill="rgb(133, 60, 34)" opacity="1.0" stroke="rgb(134, 94, 75)" stroke-opacity="0.53541213" stroke-linecap="round" stroke-linejoin="round"/>
    <path d="M 123.89442444 138.99159241 C 123.42212677 147.22158813 124.74151611 155.73298645 127.84979248 168.70193481 C 126.91871643 181.95120239 120.67725372 171.62435913 119.41765594 158.97825623 C 117.02781677 148.93818665 117.88838959 138.52206421 119.06743622 127.78684235 C 121.92797089 115.77266693 123.68169403 110.51354218 123.63489532 98.82603455 C 121.94091797 87.75924683 121.18887329 81.83331299 125.28985596 68.37992096 C 130.92144775 57.22767639 133.08291626 56.37101746 132.26913452 45.07997894 C 128.67410278 24.39280701 135.39355469 32.34324646 137.34214783 48.14503860 C 139.03686523 57.87416458 135.11785889 63.66419983 131.28646851 74.46264648 C 129.65548706 88.16268158 130.60646057 95.54761505 128.60453796 105.90023041 C 127.26328278 117.87904358 124.58642578 123.04286194 123.89442444 138.99159241" stroke-width="0.42859519" fill="rgb(110, 57, 33)" opacity="1.0" stroke="rgb(0, 0, 0)" stroke-opacity="0.40177616" stroke-linecap="round" stroke-linejoin="round"/>
    <path d="M 102.01238251 118.03550720 C 103.64691162 117.64326477 104.97512054 117.04374695 106.40519714 116.23528290 C 108.09032440 115.57479858 109.69401550 115.89943695 111.03229523 116.77909088 C 112.52049255 117.64109039 114.09425354 117.87668610 115.86773682 118.47319031 C 118.16022491 118.92311859 119.10736084 119.05543518 120.73359680 119.75719452 C 122.40261841 120.84970093 122.79496765 123.04103851 120.64301300 122.97976685 C 118.80532837 122.81703949 118.18793488 122.07089996 117.24451447 121.87709808 C 115.17010498 121.40828705 114.35408783 121.00945282 112.47136688 120.42134857 C 110.72937012 119.86378479 109.69425201 119.19467926 107.49591064 119.73965454 C 106.08486938 120.17437744 104.61764526 120.81049347 102.59633636 120.42759705 C 100.47728729 119.61476135 99.65673828 118.76612854 102.01238251 118.03550720" stroke-width="0.22236010" fill="rgb(89, 50, 31)" opacity="1.0" stroke="rgb(5, 14, 8)" stroke-opacity="0.373682" stroke-linecap="round" stroke-linejoin="round"/>
    <path d="M 148.34513855 95.95542145 C 146.88945007 95.83386230 145.65386963 95.83583069 143.14874268 95.98027039 C 141.41874695 96.09266663 139.99447632 95.85624695 137.42942810 96.13471985 C 135.42630005 96.43142700 134.50723267 97.23715210 132.70358276 98.56774902 C 131.38327026 98.43750763 129.81771851 97.93231964 130.20130920 96.43965149 C 132.05484009 95.03401947 133.80227661 94.23083496 135.31376648 93.81441498 C 138.43350220 92.85010529 138.10134888 93.02211761 140.13972473 92.25765228 C 143.29837036 91.80594635 142.81089783 91.74228668 146.30505371 91.83775330 C 148.53085327 92.05053711 150.03945923 92.03874969 152.05474854 92.58777618 C 153.71537781 92.89643097 156.62924194 94.08358765 154.98297119 96.09252930 C 153.07366943 96.76811981 151.56559753 96.47826385 148.34513855 95.95542145" stroke-width="0.26087943" fill="rgb(86, 47, 38)" opacity="1.0" stroke="rgb(70, 62, 52)" stroke-opacity="0.5622587" stroke-linecap="round" stroke-linejoin="round"/>
    <path d="M 116.56932831 68.56184387 C 114.16996002 68.69034576 113.90666962 68.46681976 110.86937714 69.61717224 C 108.43148804 70.83627319 107.60944366 71.19141388 104.93119812 72.35602570 C 102.31111145 73.63841248 101.06571960 74.54312897 101.19732666 71.68679047 C 101.49703979 68.82869720 101.59631348 67.54419708 102.96237946 66.44261932 C 104.93533325 64.77941132 106.26639557 64.69893646 108.65509033 64.28592682 C 112.30950928 64.16852570 111.96792603 64.41054535 113.99424744 63.88816071 C 116.75036621 62.99478149 118.08882904 63.40647888 120.35628510 65.14794922 C 122.55435944 66.37228394 122.31497955 67.21358490 124.77569580 68.84573364 C 127.47361755 70.76155090 126.96813202 72.40372467 123.98017883 71.01720428 C 120.95768738 69.98620605 119.85010529 69.08354950 116.56932831 68.56184387" stroke-width="0.72704542" fill="rgb(65, 38, 24)" opacity="1.0" stroke="rgb(0, 0, 0)" stroke-opacity="0.3581491" stroke-linecap="round" stroke-linejoin="round"/>
    <path d="M 86.53542328 138.08726501 C 82.30348969 136.62214661 80.60255432 135.83763123 77.09056854 131.94860840 C 74.71973419 128.86175537 72.68801117 124.77928925 72.86606598 119.89550018 C 72.91800690 116.30811310 72.91632843 112.90268707 76.05165100 108.20588684 C 77.36153412 105.63165283 81.27450562 102.42446899 85.56900787 100.93190765 C 89.16938782 99.74128723 93.89137268 99.20380402 98.61244965 101.11398315 C 102.29418945 102.92008972 104.00604248 103.21697998 106.73042297 106.21869659 C 110.25132751 109.49482727 111.95870972 113.85102081 111.96943665 117.17422485 C 111.85457611 122.34080505 111.06999207 125.78027344 108.91170502 129.54014587 C 105.44611359 133.77606201 104.24114227 134.88897705 100.22628784 137.00537109 C 94.88492584 139.13867188 90.82084656 138.67193604 86.53542328 138.08726501" stroke-width="0.24520157" fill="rgb(40, 90, 37)" opacity="1.0" stroke="rgb(17, 0, 27)" stroke-opacity="0.43979314" stroke-linecap="round" stroke-linejoin="round"/>
    <path d="M 110.91344452 61.32219315 C 107.12652588 59.51384354 104.87938690 56.29459000 101.21790314 50.05017090 C 98.88437653 44.17721939 97.59560394 40.29751968 98.66072083 34.31534195 C 100.56652832 27.10240936 103.40088654 21.89618874 106.81383514 19.36854935 C 113.81204987 13.84722900 117.45932770 13.35004616 123.63936615 12.08576393 C 132.03524780 11.75589180 137.14343262 13.54190636 141.10195923 15.46834755 C 149.57885742 21.90272141 147.72793579 19.66706848 151.86006165 26.31250381 C 154.65644836 33.11407089 154.85398865 38.33409500 154.37695312 44.17271423 C 153.19544983 50.42889404 150.88269043 57.14482880 146.80929565 59.99263382 C 142.56454468 63.32485962 136.65023804 63.78868103 130.31643677 64.52906799 C 124.42681885 64.55227661 119.40383911 65.27899933 110.91344452 61.32219315" stroke-width="1.30837488" fill="rgb(54, 137, 37)" opacity="1.0" stroke="rgb(44, 76, 39)" stroke-opacity="0.96290153" stroke-linecap="round" stroke-linejoin="round"/>
    <path d="M 164.68600464 117.02021790 C 161.06900024 117.66337585 155.07299805 116.88686371 150.86204529 114.51861572 C 146.85443115 112.58811188 142.98957825 108.58027649 141.23010254 103.94518280 C 139.54550171 99.94367981 138.75611877 94.57992554 140.30641174 89.58451843 C 140.93287659 85.62052917 143.44618225 80.61359406 147.32510376 76.98689270 C 151.29124451 73.77297974 155.71640015 71.56352997 161.16630554 71.36964417 C 166.49546814 71.47764587 169.06999207 71.31446075 173.42237854 73.97830963 C 176.62750244 75.64900208 180.04335022 78.17626190 183.61389160 84.35885620 C 184.85859680 87.04953766 186.51853943 93.32659149 185.38380432 98.33175659 C 184.85565186 102.62005615 181.91542053 107.89216614 178.32279968 111.31118774 C 174.32191467 114.73640442 170.45005798 116.36752319 164.68600464 117.02021790" stroke-width="1.23502123" fill="rgb(68, 143, 50)" opacity="1.0" stroke="rgb(6, 32, 0)" stroke-opacity="0.808526" stroke-linecap="round" stroke-linejoin="round"/>
    <path d="M 114.64227295 79.41585541 C 112.44248962 83.72975922 112.02986145 84.93576050 108.09592438 90.03411102 C 105.97531891 92.25947571 102.10166931 95.62057495 96.82135773 95.17012787 C 93.04046631 95.22731018 88.83687592 94.75416565 84.49569702 91.69416046 C 79.26216125 87.61057281 78.99657440 86.26039124 76.88539124 81.66989136 C 75.33808136 73.81610107 75.46867371 74.75865173 77.06435394 67.56594849 C 80.51980591 61.10989380 79.47604370 62.15713882 82.84426880 58.65601730 C 86.40396118 55.21248627 91.24246979 53.43217468 95.13989258 52.97518539 C 100.62707520 52.57508850 104.82874298 52.72427368 108.48178101 55.16365051 C 111.39355469 56.49464798 115.81055450 61.51617813 116.59233856 65.02543640 C 118.00971985 69.94326782 115.90561676 72.83161163 114.64227295 79.41585541" stroke-width="1.24018109" fill="rgb(75, 163, 61)" opacity="1.0" stroke="rgb(25, 58, 22)" stroke-opacity="0.8968619" stroke-linecap="round" stroke-linejoin="round"/>
    <path d="M 164.55976868 68.74951172 C 163.35861206 70.60957336 158.95269775 70.04583740 154.14358521 70.85330200 C 150.26560974 70.60075378 146.38687134 73.71446991 143.45339966 71.55889893 C 139.42262268 69.29119873 135.69900513 67.17771912 134.19555664 64.17004395 C 132.06277466 60.61544800 131.51832581 55.36381149 131.48809814 51.63878250 C 132.12968445 47.07095337 133.57470703 43.31679153 136.35070801 40.12797165 C 142.24125671 35.98722076 140.66291809 36.52616882 145.33575439 35.45005798 C 149.82025146 34.48813629 154.16125488 34.92145538 158.40661621 36.61468506 C 162.61940002 38.56489563 165.79415894 41.96924210 167.55702209 44.64342499 C 169.80055237 48.92027664 170.54310608 52.83240509 170.16546631 56.67517090 C 169.75398254 60.45926666 167.75755310 65.92211914 164.55976868 68.74951172" stroke-width="1.16308689" fill="rgb(93, 171, 61)" opacity="1.0" stroke="rgb(27, 62, 18)" stroke-opacity="0.8450215" stroke-linecap="round" stroke-linejoin="round"/>
    <path d="M 124.72439575 82.87827301 C 124.68328857 84.23096466 123.72862244 88.33448792 123.01155090 90.30153656 C 121.96598816 92.37808228 119.77031708 91.76564789 117.92647552 93.06205750 C 115.10007477 94.57080078 112.58785248 94.50855255 110.18746948 94.30528259 C 107.10684204 93.69657135 104.63302612 93.15409851 103.49784851 91.17208862 C 101.71850586 89.14730835 100.38429260 86.69565582 100.16873169 83.78916931 C 100.41462708 79.22476959 100.22607422 80.21611786 101.24172974 77.57640839 C 102.49881744 74.57980347 104.77601624 72.76069641 107.23704529 71.63367462 C 111.51418304 70.56394196 112.68860626 70.56864929 115.25860596 70.93431854 C 118.29775238 71.68357849 119.91967010 73.84247589 121.23607635 75.55420685 C 123.46842957 77.32210541 124.65489960 78.71551514 124.72439575 82.87827301" stroke-width="1.11794853" fill="rgb(111, 195, 93)" opacity="1.0" stroke="rgb(44, 60, 40)" stroke-opacity="0.81608045" stroke-linecap="round" stroke-linejoin="round"/>
    <path d="M 150.65785217 84.54181671 C 148.23576355 86.47304535 144.80813599 87.16888428 142.40017700 87.30332947 C 138.85537720 87.18658447 136.37336731 86.59225464 133.61230469 84.90265656 C 131.20066833 83.08184814 129.41069031 82.32643127 127.61693573 78.64524078 C 126.45606995 75.55772400 125.97944641 73.68898773 126.76852417 69.57113647 C 127.60783386 66.51374054 129.73353577 63.96588516 132.02474976 61.87084198 C 136.55940247 59.30759048 135.45854187 59.50439453 138.90029907 58.96326447 C 142.29402161 58.56711578 145.31416321 59.08137131 148.60789490 60.64998627 C 151.86399841 62.51774597 154.20620728 65.06710052 155.02612305 67.16990662 C 156.46846008 70.50973511 156.42666626 73.53566742 155.95481873 76.46346283 C 155.51342773 79.41877747 152.92691040 83.05278015 150.65785217 84.54181671" stroke-width="1.05203104" fill="rgb(144, 207, 118)" opacity="1.0" stroke="rgb(28, 45, 27)" stroke-opacity="0.8031402" stroke-linecap="round" stroke-linejoin="round"/>
    <path d="M 129.86639404 98.03792572 C 130.79783630 99.04830170 131.30923462 101.35704041 131.31648254 102.91252136 C 131.09181213 104.99886322 131.17335510 106.44544220 129.97785950 107.82891846 C 128.83055115 109.11724091 128.16635132 110.10462189 126.08898163 110.96631622 C 124.49332428 111.50154877 123.17031097 111.76178741 120.63824463 111.61806488 C 119.32877350 111.19007874 117.62150574 110.59538269 116.21578979 108.78171539 C 115.13724518 106.54697418 114.96446991 106.58300018 114.60324860 105.03203583 C 114.13191986 103.35504150 115.17164612 100.87326050 115.76971436 99.65350342 C 117.53819275 97.44543457 118.46159363 96.91220093 119.93147278 96.29037476 C 121.73392487 95.44865417 123.84986115 95.21330261 125.20545197 95.35292053 C 127.39273834 95.74533081 128.77235413 96.62049866 129.86639404 98.03792572" stroke-width="1.21948183" fill="rgb(159, 218, 132)" opacity="1.0" stroke="rgb(22, 37, 19)" stroke-opacity="0.77943283" stroke-linecap="round" stroke-linejoin="round"/>
    <path d="M 130.97163391 28.78284836 C 131.76853943 28.01455498 133.52323914 26.98604584 134.78657532 26.42341805 C 135.97247314 26.14974594 137.16381836 26.02000618 138.46615601 26.54055595 C 139.80389404 26.86831665 141.47257996 27.86621094 142.21290588 28.90650368 C 143.50987244 30.33597565 143.97204590 32.05490875 144.18653870 33.31306076 C 144.32398987 35.05102539 143.51293945 36.37744141 142.42843628 37.79171371 C 140.20704651 39.57643127 140.79064941 39.23279572 139.13012695 40.02429962 C 137.58674622 40.91239548 135.58180237 40.99533463 134.23471069 40.53528976 C 131.78907776 39.29106903 131.76135254 39.16055679 130.23617554 37.72914505 C 129.00903320 36.02057648 129.01327515 34.45592499 129.21107483 33.40017319 C 129.28456116 31.23727417 129.59091187 29.97419167 130.97163391 28.78284836" stroke-width="1.07579541" fill="rgb(178, 224, 156)" opacity="1.0" stroke="rgb(24, 15, 32)" stroke-opacity="0.57480764" stroke-linecap="round" stroke-linejoin="round"/>
    <path d="M 111.18153381 168.04486084 C 111.98214722 168.51776123 113.85541534 170.39846802 114.81636810 171.82905579 C 117.01736450 173.54066467 116.60366821 175.32270813 113.28221893 174.95475769 C 111.29241943 174.85784912 109.89438629 175.09461975 107.24274445 175.06398010 C 105.11293030 175.08172607 103.17712402 174.90270996 101.23625946 175.07334900 C 98.48431396 175.02073669 97.02645874 174.92468262 95.38372803 175.21272278 C 92.35652161 175.34350586 91.08844757 175.33825684 91.82820892 174.19067383 C 92.29695892 172.81736755 93.49002075 171.26863098 94.96511841 169.60522461 C 96.29647827 168.36032104 97.09680939 167.56771851 99.08140564 166.51119995 C 101.99057770 165.43562317 102.16086578 165.48025513 105.11000824 165.56964111 C 106.85691071 165.84315491 108.87151337 166.47552490 111.18153381 168.04486084" stroke-width="1.19148517" fill="rgb(227, 215, 186)" opacity="1.0" stroke="rgb(35, 33, 40)" stroke-opacity="0.7683413" stroke-linecap="round" stroke-linejoin="round"/>
    <path d="M 146.80401611 175.16943359 C 144.66288757 175.20104980 144.38996887 175.11154175 141.29060364 175.24505615 C 139.54185486 175.19232178 137.76852417 175.16671753 135.31864929 175.03782654 C 133.50537109 175.12322998 131.47692871 175.09631348 129.16990662 175.18394470 C 126.76463318 174.90701294 125.60266876 175.61914062 124.09392548 174.83370972 C 125.43412018 173.14808655 126.66007996 172.69444275 128.59640503 170.69544983 C 130.14883423 169.48719788 130.81987000 168.77656555 132.51699829 168.05256653 C 134.80505371 167.11154175 136.50225830 166.80039978 138.05523682 166.78358459 C 140.38363647 166.92636108 142.18258667 167.33316040 143.76019287 168.59432983 C 145.31127930 169.57244873 146.37435913 171.37518311 147.71894836 172.97674561 C 148.90982056 174.51263428 151.25225830 175.75456238 146.80401611 175.16943359" stroke-width="1.21410942" fill="rgb(223, 218, 181)" opacity="1.0" stroke="rgb(21, 19, 27)" stroke-opacity="0.69974303" stroke-linecap="round" stroke-linejoin="round"/>
    <path d="M 162.77151489 174.08154297 C 163.36408997 174.01968384 163.37582397 174.06175232 164.17449951 173.96864319 C 164.61268616 173.98454285 165.02722168 173.95622253 165.68269348 173.94320679 C 166.07324219 173.95655823 166.53968811 173.98538208 167.17753601 174.07116699 C 167.59309387 174.15693665 168.23231506 174.29394531 168.50466919 174.79048157 C 168.21958923 175.23965454 167.88465881 175.11077881 167.22297668 175.17446899 C 166.53086853 175.20480347 166.58625793 175.21839905 165.93988037 175.23863220 C 165.30570984 175.28018188 165.23640442 175.27963257 164.50068665 175.36990356 C 164.11875916 175.37217712 163.57263184 175.29254150 162.95870972 175.27568054 C 162.50796509 175.22261047 161.89186096 175.19218445 161.52436829 174.80029297 C 161.60382080 174.23027039 162.07235718 174.21229553 162.77151489 174.08154297" stroke-width="1.28307950" fill="rgb(221, 221, 189)" opacity="1.0" stroke="rgb(74, 58, 48)" stroke-opacity="0.7294876" stroke-linecap="round" stroke-linejoin="round"/>
    <path d="M 156.60296631 175.36033630 C 156.01994324 175.37724304 155.97749329 175.36662292 155.22274780 175.38732910 C 154.73851013 175.40515137 154.41516113 175.38098145 153.79644775 175.40267944 C 153.31796265 175.43206787 152.92271423 175.40617371 152.33389282 175.44082642 C 151.88029480 175.44911194 151.31024170 175.56347656 151.03074646 174.99673462 C 151.05560303 174.50274658 151.28454590 174.26934814 151.92884827 174.09982300 C 152.60375977 173.98733521 152.49577332 174.02485657 153.11555481 173.95240784 C 153.76496887 173.94013977 153.97512817 173.96641541 154.53425598 173.97128296 C 154.92776489 174.00718689 155.36328125 174.09393311 155.97186279 174.20957947 C 156.43035889 174.30496216 156.81539917 174.35972595 157.36351013 174.72868347 C 157.84556580 175.24989319 157.15739441 175.35736084 156.60296631 175.36033630" stroke-width="1.12212360" fill="rgb(231, 220, 191)" opacity="1.0" stroke="rgb(53, 40, 34)" stroke-opacity="0.8078951" stroke-linecap="round" stroke-linejoin="round"/>
  </g>
</svg>
