<?xml version="1.0" ?>
<svg xmlns="http://www.w3.org/2000/svg" version="1.1" width="256" height="256" viewBox="0 0 256 256">
  <defs/>
  <g>
    <path d="M 176.02075195 218.61914062 C 173.34800720 225.65893555 162.57524109 222.54917908 151.36740112 222.05044556 C 140.09832764 221.92596436 131.59684753 222.85456848 120.66288757 222.48902893 C 110.61668396 223.61381531 101.43194580 223.01850891 91.45930481 222.82615662 C 75.70199585 223.24963379 76.95967102 221.53890991 76.78135681 207.15122986 C 77.89386749 199.08677673 75.31040192 186.13960266 77.80559540 177.21528625 C 86.17788696 173.92352295 88.92242432 174.90972900 99.98709106 174.08670044 C 113.50468445 173.79028320 117.06814575 174.67990112 129.63952637 174.22644043 C 139.61749268 174.10035706 150.23585510 175.72282410 158.79267883 175.26359558 C 174.03273010 176.56852722 178.08560181 172.82101440 176.42773438 185.90449524 C 175.77293396 199.28039551 177.05508423 208.17570496 176.02075195 218.61914062" stroke-width="1.31350493" fill="rgb(175, 84, 41)" opacity="1.0" stroke="rgb(38, 12, 0)" stroke-opacity="0.75438255" stroke-linecap="round" stroke-linejoin="round"/>
    <path d="M 162.39987183 223.93644714 C 156.28004456 224.47148132 154.06924438 224.03385925 144.04667664 224.28578186 C 137.04537964 224.04342651 131.19227600 224.34010315 123.84318542 224.16435242 C 114.75643921 224.27354431 113.31430054 224.59210205 102.87817383 224.16416931 C 96.94816589 223.89855957 89.78680420 224.61863708 80.97225952 224.15362549 C 75.85472107 218.61529541 82.14254761 220.37948608 90.40705109 220.79177856 C 100.20480347 221.17553711 101.62989044 220.96418762 107.85838318 220.78977966 C 117.13000488 220.57348633 120.44091797 220.78813171 126.85432434 220.99615479 C 135.44091797 220.17970276 139.67631531 221.10279846 147.85459900 220.85861206 C 155.77389526 221.52413940 161.55169678 220.05252075 168.74891663 220.33508301 C 177.45199585 221.72201538 175.67286682 225.73908997 162.39987183 223.93644714" stroke-width="0.56542176" fill="rgb(133, 62, 35)" opacity="1.0" stroke="rgb(139, 98, 82)" stroke-opacity="0.5320672" stroke-linecap="round" stroke-linejoin="round"/>
    <path d="M 123.76522064 138.99832153 C 123.45108795 144.65136719 124.58695221 155.94583130 127.64607239 168.21101379 C 128.15594482 182.78118896 120.57904816 172.63998413 119.63502502 159.89700317 C 116.92646790 149.03916931 117.85275269 139.10011292 119.10532379 128.35540771 C 122.02190399 116.22050476 123.25389099 110.66021729 123.00430298 97.54508972 C 122.37085724 86.04155731 122.43130493 80.40850067 125.43177795 65.36431122 C 129.90071106 52.45195389 131.19404602 52.41982651 131.20848083 39.39264297 C 130.05143738 18.60623169 137.02493286 30.91548157 137.66198730 44.63257980 C 138.83720398 55.84439850 134.94125366 62.34286880 131.15626526 73.31494141 C 129.78349304 85.57243347 130.65740967 93.71765137 128.72259521 104.42752838 C 127.50025177 118.09992218 124.65968323 121.77486420 123.76522064 138.99832153" stroke-width="0.49262464" fill="rgb(112, 58, 35)" opacity="1.0" stroke="rgb(0, 0, 0)" stroke-opacity="0.33645612" stroke-linecap="round" stroke-linejoin="round"/>
    <path d="M 100.03781128 118.05996704 C 101.62494659 117.69073486 103.36811066 116.88330078 104.87781525 116.21918488 C 106.87462616 115.63295746 108.61731720 115.85327148 110.18733978 116.71800232 C 112.11510468 117.57370758 113.76356506 117.78497314 115.60429382 118.42706299 C 118.22982025 119.03174591 119.06417847 119.04645538 120.96163177 119.88299561 C 122.75887299 121.00373077 123.46361542 123.54865265 120.93219757 123.08946228 C 118.52189636 122.63095093 118.32473755 122.21289062 116.99855804 121.81047821 C 114.60189819 121.27201843 113.73039246 120.90949249 111.61547852 120.24533844 C 109.70326996 119.75016022 108.63133240 119.18098450 106.08504486 119.76438904 C 104.56197357 120.14228821 102.93378448 120.77792358 100.64019775 120.58984375 C 98.29196167 119.77519989 97.27217102 118.81980133 100.03781128 118.05996704" stroke-width="0.17544048" fill="rgb(88, 51, 27)" opacity="1.0" stroke="rgb(53, 27, 0)" stroke-opacity="0.42600212" stroke-linecap="round" stroke-linejoin="round"/>
    <path d="M 149.95672607 95.57717133 C 148.38916016 95.41564941 146.97624207 95.40050507 144.26252747 95.60433960 C 142.34138489 95.75700378 140.90019226 95.77029419 138.09289551 96.18460846 C 135.81857300 96.54768372 134.74140930 97.22814941 132.67304993 98.68399048 C 131.12965393 98.63655090 129.51553345 98.13957214 130.20825195 96.54718781 C 132.41818237 95.16104889 134.12620544 94.28363037 135.88169861 93.82897949 C 139.30004883 92.81809235 138.91113281 92.92543030 141.12594604 92.13799286 C 144.54609680 91.65612030 144.04388428 91.59232330 147.76606750 91.56665802 C 150.10226440 91.73911285 151.98538208 91.64624023 154.13394165 92.25995636 C 155.90658569 92.59769440 159.18678284 93.89759827 157.22865295 95.95506287 C 155.10626221 96.50808716 153.41235352 96.17026520 149.95672607 95.57717133" stroke-width="0.25298390" fill="rgb(100, 55, 38)" opacity="1.0" stroke="rgb(13, 2, 0)" stroke-opacity="0.51163954" stroke-linecap="round" stroke-linejoin="round"/>
    <path d="M 115.25064087 68.07804871 C 112.83239746 68.18068695 112.61320496 67.90510559 109.55332947 69.01366425 C 106.97958374 70.14903259 106.13489532 70.56960297 103.52887726 71.78820801 C 101.03252411 73.50683594 99.45219421 74.47364044 99.75946045 71.46170807 C 100.09543610 68.61907196 100.36152649 67.23073578 101.93830872 66.05796051 C 104.14780426 64.38331604 105.03273010 64.34807587 107.58589935 63.70880508 C 111.20719147 63.31628418 110.73078156 63.46880341 112.88101196 63.00022888 C 115.53836060 62.24785995 117.31704712 62.66080856 119.46360779 64.06186676 C 121.90031433 65.47468567 121.87308502 66.05423737 123.75843048 68.26077271 C 126.18852997 70.72841644 125.86913300 71.88440704 122.69328308 70.26011658 C 119.94220734 69.24696350 118.19637299 68.44610596 115.25064087 68.07804871" stroke-width="0.62393707" fill="rgb(67, 46, 30)" opacity="1.0" stroke="rgb(0, 0, 0)" stroke-opacity="0.5478034" stroke-linecap="round" stroke-linejoin="round"/>
    <path d="M 86.54833984 138.10168457 C 82.27203369 136.61167908 80.65818024 135.86218262 77.10305786 131.95542908 C 74.72713470 128.84579468 72.73580933 124.78325653 72.91879272 119.90677643 C 72.97180176 116.27713013 72.99199677 112.91779327 76.12460327 108.21634674 C 77.52561951 105.59707642 81.24752045 102.52813721 85.64544678 100.98042297 C 89.08869171 99.84249115 93.90647125 99.23760986 98.66271973 101.13407898 C 102.43323517 102.97875977 104.01443481 103.21771240 106.80516815 106.27179718 C 110.29933167 109.69183350 111.95691681 113.80162811 111.97779846 117.23585510 C 111.89193726 122.14572906 111.10276794 125.75457764 108.91001892 129.52651978 C 105.40879822 133.79740906 104.31490326 134.85044861 100.18530273 137.03160095 C 94.89706421 139.12858582 90.68114471 138.69798279 86.54833984 138.10168457" stroke-width="0.24979465" fill="rgb(38, 86, 32)" opacity="1.0" stroke="rgb(5, 0, 12)" stroke-opacity="0.42976582" stroke-linecap="round" stroke-linejoin="round"/>
    <path d="M 111.37729645 60.43566132 C 107.38209534 58.22535706 105.08676910 55.59774017 100.95169830 49.40988159 C 98.68612671 43.52490234 97.72517395 39.77473068 98.74842834 34.00044632 C 100.64305878 26.72856522 103.80608368 21.37442207 107.23043823 19.15717125 C 113.89395142 13.73174667 119.33145142 12.92102242 123.42028046 12.15468407 C 132.23785400 12.13434029 136.60079956 13.18867302 140.96395874 15.45412064 C 149.84967041 22.00287247 147.61483765 19.65395927 151.89834595 26.47674751 C 154.55250549 33.70238876 155.00123596 38.06597137 154.56755066 43.92692947 C 153.58398438 49.80963516 150.74540710 56.74574280 146.67913818 59.71974182 C 142.19982910 63.32209778 136.35533142 64.75865936 130.48333740 64.98657990 C 124.82012939 64.84064484 120.60404205 64.56880188 111.37729645 60.43566132" stroke-width="1.35719717" fill="rgb(52, 136, 37)" opacity="1.0" stroke="rgb(51, 81, 46)" stroke-opacity="1.0" stroke-linecap="round" stroke-linejoin="round"/>
    <path d="M 165.60635376 116.92398834 C 161.85015869 117.74936676 155.76425171 117.08145142 151.56896973 114.93795013 C 147.31956482 113.02025604 143.43385315 109.21821594 141.58897400 104.75295258 C 139.63107300 100.62813568 138.66839600 95.34207153 140.03277588 90.51074219 C 140.52398682 86.30772400 142.88847351 81.39693451 146.67881775 77.75888824 C 150.62467957 74.47413635 154.94056702 72.19312286 160.48080444 71.65061188 C 165.66096497 71.46693420 168.32044983 71.14073181 172.68905640 73.62178040 C 176.67582703 75.80049133 179.56997681 77.88304901 183.18624878 83.65051270 C 184.62652588 86.40140533 186.45388794 92.49233246 185.51422119 97.58793640 C 185.15155029 101.84006500 182.42733765 107.09919739 178.94427490 110.71727753 C 175.04376221 114.29613495 171.09262085 116.15759277 165.60635376 116.92398834" stroke-width="1.24943364" fill="rgb(71, 143, 47)" opacity="1.0" stroke="rgb(6, 36, 0)" stroke-opacity="0.81737113" stroke-linecap="round" stroke-linejoin="round"/>
    <path d="M 114.91701508 79.56648254 C 112.70587158 83.87495422 112.30749512 84.92610168 108.20764160 90.13041687 C 106.02936554 92.22001648 102.12585449 95.59044647 96.86452484 95.22141266 C 93.14408875 95.24566650 88.80158234 94.77586365 84.46711731 91.66997528 C 79.31084442 87.54118347 79.09226227 86.33270264 76.99776459 81.69060516 C 75.44470978 73.80873871 75.56822968 74.73790741 77.19422913 67.57898712 C 80.64248657 61.12796021 79.51000977 62.23656082 83.04860687 58.58531189 C 86.84638977 55.10736084 91.78141022 53.38709259 95.10740662 53.06114578 C 100.68984222 52.59049988 104.82713318 52.73390198 108.66339874 55.35860443 C 111.23169708 56.55313873 115.68437958 61.35668182 116.64297485 65.27802277 C 117.80892181 70.07618713 116.16623688 72.95972443 114.91701508 79.56648254" stroke-width="1.23048580" fill="rgb(78, 162, 62)" opacity="1.0" stroke="rgb(29, 62, 26)" stroke-opacity="0.8897892" stroke-linecap="round" stroke-linejoin="round"/>
    <path d="M 165.10488892 68.20715332 C 163.87962341 70.00588226 160.15437317 70.40990448 155.44946289 71.78913879 C 151.06686401 71.77253723 147.55287170 74.34802246 144.54629517 72.27567291 C 140.32528687 70.11045837 136.63816833 67.96111298 135.07276917 65.08255768 C 132.68812561 61.45626068 131.73023987 56.36166763 131.60765076 52.76644897 C 131.97079468 48.13409042 133.16297913 44.15625763 135.70504761 40.90508652 C 141.23225403 36.15911102 139.56147766 37.12748337 144.51548767 35.54218292 C 149.35140991 34.45873260 153.25190735 34.87105560 157.40089417 36.15244675 C 161.30740356 37.75572968 165.14849854 41.00878906 167.06890869 43.88260651 C 169.32843018 47.72637939 170.33940125 51.65245438 170.18510437 55.51349640 C 169.85342407 59.27885056 168.76434326 64.17803192 165.10488892 68.20715332" stroke-width="1.22527969" fill="rgb(94, 174, 65)" opacity="1.0" stroke="rgb(35, 69, 23)" stroke-opacity="0.86582625" stroke-linecap="round" stroke-linejoin="round"/>
    <path d="M 124.71715546 83.07358551 C 124.69463348 84.88844299 123.66514587 88.71026611 122.99232483 90.69409943 C 121.83390808 92.60868073 119.76296997 91.69036102 117.59956360 93.25919342 C 114.46764374 94.76202393 112.68273926 94.56298828 109.82572937 94.29846191 C 107.15683746 93.64303589 104.32532501 92.93918610 103.14727020 90.82646942 C 101.53562927 88.69780731 100.32288361 86.14308167 100.18793488 83.45333099 C 100.61483002 78.86510468 100.34999084 79.88641357 101.49169922 77.26680756 C 102.76881409 74.36360931 105.07685852 72.60398102 107.65875244 71.52255249 C 111.72370148 70.62507629 113.38906097 70.57917786 115.65007782 71.02549744 C 118.49941254 71.77758789 120.17385101 74.08116150 121.53861237 75.81450653 C 123.73934937 77.86950684 124.86911011 79.31398010 124.71715546 83.07358551" stroke-width="1.11546040" fill="rgb(111, 197, 91)" opacity="1.0" stroke="rgb(34, 52, 36)" stroke-opacity="0.7970181" stroke-linecap="round" stroke-linejoin="round"/>
    <path d="M 151.15199280 84.11039734 C 149.18400574 85.99212646 145.50538635 87.03524017 142.82304382 87.22828674 C 139.51214600 87.17696381 136.81642151 86.71375275 134.05320740 85.16075897 C 131.86842346 83.54008484 129.57504272 82.56214142 127.77542877 79.12397003 C 126.43874359 75.93198395 126.06941223 74.32312775 126.59580231 70.11251831 C 127.23985291 66.94833374 129.30975342 64.38944244 131.53738403 62.19557953 C 135.97454834 59.48625183 134.87242126 59.74227524 138.29006958 59.05860519 C 141.62457275 58.54125977 144.76263428 59.00009537 148.11447144 60.42177200 C 151.50059509 62.21645737 153.86831665 64.60437012 154.77468872 66.63594055 C 156.38803101 69.96958923 156.48268127 73.00709534 156.06680298 75.89672852 C 155.68844604 78.86824799 153.43923950 82.42948914 151.15199280 84.11039734" stroke-width="1.03303003" fill="rgb(146, 209, 117)" opacity="1.0" stroke="rgb(32, 47, 28)" stroke-opacity="0.78014624" stroke-linecap="round" stroke-linejoin="round"/>
    <path d="M 129.81655884 98.08821106 C 130.72270203 99.01126099 131.19361877 101.39701080 131.20001221 102.94823456 C 130.96725464 105.10560608 131.08853149 106.52566528 129.88658142 107.87982941 C 128.84069824 109.00082397 128.00198364 110.21424103 126.02809143 110.97935486 C 124.46666718 111.55232239 123.07746887 111.77751923 120.58976746 111.64053345 C 119.36910248 111.24026489 117.44252014 110.57797241 116.15097046 108.77865601 C 115.15805054 106.61826324 114.88548279 106.58269501 114.55858612 104.96137238 C 114.08718872 103.18170929 115.26248169 100.68868256 115.77923584 99.62039185 C 117.63222504 97.39986420 118.24281311 97.01391602 119.88490295 96.31749725 C 121.71874237 95.44541931 123.80619049 95.25819397 125.14981079 95.41905975 C 127.40723419 95.88327789 128.68951416 96.64720154 129.81655884 98.08821106" stroke-width="1.23989892" fill="rgb(161, 220, 131)" opacity="1.0" stroke="rgb(20, 32, 16)" stroke-opacity="0.7524394" stroke-linecap="round" stroke-linejoin="round"/>
    <path d="M 131.32069397 28.62923622 C 131.75091553 28.24197197 133.49273682 27.09773254 134.87413025 26.48749352 C 136.06933594 26.21096039 137.33494568 26.08573723 138.65222168 26.64791489 C 140.06204224 26.99725151 141.60807800 28.07288361 142.26892090 28.99992943 C 143.60537720 30.55900002 143.97537231 32.22980499 144.20291138 33.37504578 C 144.25061035 35.16279602 143.39172363 36.58089066 142.39411926 37.80402374 C 140.16090393 39.57484436 140.80633545 39.18037796 139.12342834 40.00109863 C 137.59426880 40.89050674 135.65684509 40.92226410 134.29737854 40.47730637 C 132.04367065 39.33192444 131.46571350 38.83819580 130.43263245 37.76232910 C 129.22431946 36.19624710 129.14280701 34.57157898 129.26159668 33.30721283 C 129.32102966 31.32573700 129.59942627 30.23017693 131.32069397 28.62923622" stroke-width="1.11153257" fill="rgb(182, 223, 160)" opacity="1.0" stroke="rgb(20, 17, 29)" stroke-opacity="0.61739135" stroke-linecap="round" stroke-linejoin="round"/>
    <path d="M 111.31881714 168.07395935 C 112.16448975 168.60372925 114.07675171 170.45774841 114.95643616 171.86231995 C 117.14714050 173.67872620 116.36645508 175.27391052 113.13950348 174.91712952 C 111.28819275 174.84864807 109.70235443 175.09373474 107.13636017 175.02851868 C 104.98988342 175.03575134 103.09696198 174.84893799 101.15707397 175.02542114 C 98.35787964 174.98905945 97.02008820 174.87210083 95.30279541 175.17784119 C 92.26741028 175.22279358 90.95728302 175.24354553 91.88941193 174.02177429 C 92.49792480 172.54528809 93.60735321 170.99179077 95.14319611 169.36163330 C 96.57338715 168.13302612 97.24806213 167.38578796 99.30752563 166.36726379 C 102.19756317 165.33721924 102.38939667 165.40637207 105.39291382 165.54263306 C 106.97671509 165.83085632 109.04637146 166.50498962 111.31881714 168.07395935" stroke-width="1.19480121" fill="rgb(223, 216, 181)" opacity="1.0" stroke="rgb(41, 40, 42)" stroke-opacity="0.7757229" stroke-linecap="round" stroke-linejoin="round"/>
    <path d="M 146.84625244 175.15615845 C 144.67129517 175.16304016 144.45852661 175.09550476 141.30358887 175.19796753 C 139.63841248 175.16253662 137.90014648 174.99385071 135.38938904 174.90699768 C 133.45855713 175.03561401 131.63005066 175.02946472 129.24909973 175.14752197 C 126.95217896 174.91456604 125.55398560 175.59829712 124.13487244 174.75743103 C 125.63569641 172.96461487 126.53961945 172.69126892 128.62904358 170.64186096 C 130.20280457 169.44824219 130.87896729 168.67201233 132.60382080 168.00724792 C 134.91760254 167.10000610 136.43672180 166.73242188 138.25425720 166.78219604 C 140.11614990 166.84893799 142.12750244 167.29937744 143.84335327 168.63694763 C 145.26568604 169.58087158 146.44554138 171.39085388 147.79481506 172.97776794 C 149.11453247 174.66537476 151.19720459 175.65226746 146.84625244 175.15615845" stroke-width="1.22437012" fill="rgb(227, 213, 184)" opacity="1.0" stroke="rgb(32, 25, 32)" stroke-opacity="0.7216616" stroke-linecap="round" stroke-linejoin="round"/>
    <path d="M 162.83642578 174.09040833 C 163.44078064 174.00044250 163.46997070 174.03805542 164.24693298 173.94348145 C 164.71040344 173.95405579 165.08186340 173.92582703 165.74388123 173.91683960 C 166.14173889 173.93914795 166.59782410 173.96882629 167.24594116 174.05776978 C 167.67068481 174.14346313 168.30870056 174.27455139 168.55659485 174.76542664 C 168.22868347 175.20329285 167.92512512 175.09582520 167.25653076 175.15747070 C 166.55503845 175.19972229 166.62702942 175.20780945 165.97172546 175.24266052 C 165.37550354 175.29406738 165.25227356 175.32151794 164.56097412 175.42657471 C 164.18026733 175.42883301 163.65695190 175.33718872 162.99951172 175.30555725 C 162.56224060 175.25524902 161.99392700 175.21006775 161.59916687 174.82087708 C 161.67703247 174.25930786 162.22802734 174.20803833 162.83642578 174.09040833" stroke-width="1.28788435" fill="rgb(223, 211, 185)" opacity="1.0" stroke="rgb(82, 62, 48)" stroke-opacity="0.7595182" stroke-linecap="round" stroke-linejoin="round"/>
    <path d="M 156.88320923 175.38186646 C 156.25834656 175.39897156 156.14984131 175.39283752 155.37388611 175.41116333 C 154.83476257 175.41780090 154.49725342 175.39343262 153.84788513 175.40991211 C 153.24389648 175.41931152 152.94361877 175.39736938 152.24749756 175.42063904 C 151.78332520 175.42245483 151.15396118 175.52252197 150.83451843 174.94290161 C 150.94329834 174.35452271 151.19206238 174.25346375 151.89738464 174.03569031 C 152.62544250 173.89541626 152.49765015 173.93032837 153.17304993 173.83911133 C 153.87290955 173.81896973 154.09933472 173.83599854 154.70304871 173.83927917 C 155.10562134 173.87605286 155.56813049 173.96449280 156.24333191 174.10461426 C 156.75798035 174.22880554 157.14294434 174.29457092 157.71607971 174.70849609 C 158.20909119 175.27053833 157.42729187 175.40933228 156.88320923 175.38186646" stroke-width="1.00776315" fill="rgb(228, 212, 178)" opacity="1.0" stroke="rgb(25, 20, 17)" stroke-opacity="0.7382015" stroke-linecap="round" stroke-linejoin="round"/>
  </g>
</svg>
