<?xml version="1.0" ?>
<svg xmlns="http://www.w3.org/2000/svg" version="1.1" width="256" height="256" viewBox="0 0 256 256">
  <defs/>
  <g>
    <path d="M 175.94387817 218.58599854 C 173.37609863 225.57260132 162.85336304 222.38658142 150.77864075 222.10871887 C 139.71713257 221.89126587 131.28002930 222.83668518 120.41989136 222.42340088 C 110.56007385 223.50253296 100.77456665 222.84101868 90.98179626 222.75910950 C 75.50885773 223.34054565 77.18695831 220.77760315 76.78254700 207.19219971 C 78.02812958 199.30154419 75.42271423 185.99490356 77.83010864 177.23689270 C 85.68338013 174.25440979 88.23068237 175.02842712 99.37182617 173.88615417 C 112.75000000 173.52235413 116.97413635 174.26617432 128.95074463 173.90129089 C 139.42657471 173.86898804 148.98443604 175.58758545 158.05398560 175.21173096 C 173.37554932 176.82144165 178.14334106 172.98117065 176.35426331 185.91647339 C 175.67953491 199.09922791 176.95248413 208.43136597 175.94387817 218.58599854" stroke-width="1.35582685" fill="rgb(173, 83, 39)" opacity="1.0" stroke="rgb(35, 10, 0)" stroke-opacity="0.7615924" stroke-linecap="round" stroke-linejoin="round"/>
    <path d="M 163.76765442 223.96144104 C 156.93992615 224.43679810 153.52239990 224.07298279 144.67425537 224.23565674 C 136.94523621 224.00411987 132.19563293 224.47036743 123.91361237 224.08319092 C 117.27320862 224.30505371 112.16514587 224.46966553 103.21726990 224.10925293 C 96.27159119 223.66705322 89.37082672 224.76306152 80.90020752 223.97705078 C 75.77710724 217.68305969 83.22534180 220.76034546 91.08351135 220.84832764 C 100.29276276 220.97534180 102.61912537 221.24375916 108.39444733 220.74113464 C 116.50421906 220.50657654 120.86485291 220.85346985 126.75640869 221.02503967 C 134.89143372 220.10960388 138.12297058 221.15473938 146.69567871 220.82839966 C 154.43316650 221.52947998 160.44541931 220.24400330 168.08154297 220.52912903 C 176.56155396 221.44403076 176.69375610 225.61810303 163.76765442 223.96144104" stroke-width="0.59361726" fill="rgb(132, 62, 34)" opacity="1.0" stroke="rgb(142, 93, 71)" stroke-opacity="0.5391863" stroke-linecap="round" stroke-linejoin="round"/>
    <path d="M 123.94808197 139.19514465 C 123.52561188 147.79534912 124.87075043 155.73995972 127.85859680 168.60253906 C 126.84908295 182.10940552 120.69438934 171.55789185 119.42050171 159.27227783 C 117.07327271 149.28706360 117.91838837 138.95103455 118.96638489 128.51989746 C 121.66889191 116.99992371 123.33969879 112.30196381 123.52039337 100.03827667 C 122.46032715 89.95140076 121.61714935 83.15013885 124.68648529 69.64326477 C 129.62367249 59.12664795 132.50151062 57.50003433 131.06553650 47.25354004 C 127.19832611 27.73844910 134.24736023 36.13108063 136.98797607 50.41636658 C 138.17213440 60.42321396 134.62017822 65.19636536 131.14167786 75.86905670 C 129.63713074 89.80854797 130.59114075 97.12279510 128.56340027 106.92124939 C 127.05815887 118.59028625 124.47536469 123.93325806 123.94808197 139.19514465" stroke-width="0.38495484" fill="rgb(113, 61, 36)" opacity="1.0" stroke="rgb(0, 0, 0)" stroke-opacity="0.34164047" stroke-linecap="round" stroke-linejoin="round"/>
    <path d="M 103.51402283 118.11045074 C 105.01945496 117.71427155 106.33529663 117.19170380 107.63587952 116.41968536 C 109.16086578 115.67510223 110.64206696 115.94883728 111.88604736 116.90698242 C 113.09976196 117.78939056 114.64235687 118.04123688 116.38299561 118.58591461 C 118.47673798 118.95234680 119.50427246 119.14563751 120.99237061 119.82762909 C 122.46210480 120.92385101 122.85545349 122.82665253 121.03701782 123.08488464 C 119.36879730 123.06598663 118.56561279 122.26525116 117.89328766 122.18239594 C 116.08783722 121.77457428 115.07594299 121.27925873 113.33412933 120.80938721 C 111.67285919 120.27573395 110.71953583 119.52003479 108.67713928 119.93405151 C 107.30647278 120.34310913 105.86231232 120.95980072 104.09716034 120.51142883 C 102.21192169 119.68884277 101.32949066 118.85531616 103.51402283 118.11045074" stroke-width="0.58391476" fill="rgb(85, 48, 31)" opacity="1.0" stroke="rgb(50, 46, 38)" stroke-opacity="0.2208555" stroke-linecap="round" stroke-linejoin="round"/>
    <path d="M 147.11596680 96.23452759 C 145.75132751 96.12519836 144.64299011 96.11314392 142.26936340 96.21307373 C 140.61558533 96.27337646 139.26834106 95.98100281 136.91665649 96.28534698 C 135.08828735 96.67274475 134.32070923 97.55213165 132.60075378 98.63320923 C 131.28556824 98.37390137 129.84640503 97.88601685 130.23237610 96.55514526 C 131.92504883 95.27128601 133.62149048 94.47002411 135.00080872 94.09049225 C 137.94503784 93.18244934 137.60945129 93.38811493 139.54359436 92.59592438 C 142.45735168 92.06688690 142.00212097 92.01120758 145.28967285 92.14241791 C 147.35614014 92.35100555 148.76814270 92.41349792 150.59667969 92.91184235 C 152.14418030 93.21996307 154.82839966 94.32302856 153.29675293 96.28494263 C 151.51713562 96.97667694 150.13340759 96.74947357 147.11596680 96.23452759" stroke-width="0.28733048" fill="rgb(91, 45, 28)" opacity="1.0" stroke="rgb(23, 29, 16)" stroke-opacity="0.3789769" stroke-linecap="round" stroke-linejoin="round"/>
    <path d="M 116.98923492 68.53114319 C 114.76986694 68.64062500 114.22418976 68.46960449 111.46677399 69.49716949 C 109.18340302 70.52791595 108.21464539 70.94030762 105.81039429 71.93753052 C 103.52980804 73.15416718 102.44933319 73.92958069 102.58975220 71.36928558 C 102.95842743 68.71279907 102.83833313 67.61952209 104.15825653 66.63653564 C 106.03462219 64.98459625 107.19343567 64.93481445 109.55482483 64.47484589 C 112.99782562 64.32315063 112.81340027 64.66394806 114.63661957 64.03287506 C 117.33569336 63.04965973 118.33333588 63.31879807 120.57826233 65.10237885 C 122.55390167 66.32520294 122.23577118 67.31678772 124.65824127 68.64028168 C 127.19995117 70.25389099 127.12699890 72.01874542 124.11672211 70.83022308 C 121.28336334 69.97140503 119.93938446 68.94339752 116.98923492 68.53114319" stroke-width="0.70540601" fill="rgb(65, 44, 34)" opacity="1.0" stroke="rgb(0, 0, 0)" stroke-opacity="0.3696896" stroke-linecap="round" stroke-linejoin="round"/>
    <path d="M 86.66267395 138.12767029 C 82.46289062 136.73135376 80.71298981 135.93527222 77.19746399 132.09127808 C 74.79286957 129.05549622 72.74018860 124.99970245 72.88211823 120.09297943 C 72.90425110 116.56218719 72.90142822 113.05317688 75.99107361 108.38182831 C 77.22893524 105.81389618 81.21620941 102.53601074 85.46023560 101.03350067 C 89.15045166 99.80062866 93.80351257 99.20773315 98.49235535 101.07682037 C 102.09496307 102.80059814 103.92690277 103.15058899 106.61650085 106.11302948 C 110.15349579 109.33309174 111.92624664 113.70976257 111.95546722 117.03817749 C 111.88257599 122.26165771 111.10776520 125.69063568 108.99536896 129.42926025 C 105.53762817 133.69786072 104.37196350 134.78967285 100.37947845 136.92642212 C 94.94288635 139.12380981 91.18625641 138.67318726 86.66267395 138.12767029" stroke-width="0.24010038" fill="rgb(37, 90, 35)" opacity="1.0" stroke="rgb(18, 0, 25)" stroke-opacity="0.43215984" stroke-linecap="round" stroke-linejoin="round"/>
    <path d="M 111.18389893 62.10640335 C 107.81028748 60.64916229 105.32126617 56.81379700 101.42214203 50.54855347 C 99.18693542 44.97894669 97.65425110 41.16445160 98.50550842 35.00965881 C 100.18059540 28.11864471 102.90748596 22.39649391 106.45948029 19.73129272 C 113.09092712 13.97328186 117.48963165 13.40480614 122.83349609 12.28722954 C 129.87632751 11.53935051 135.59797668 12.75637054 141.28933716 15.64742661 C 149.34754944 21.55846786 147.66369629 19.59434319 151.69772339 25.91956520 C 154.57733154 32.43515396 154.91380310 38.44126129 154.56443787 44.04995346 C 153.49169922 50.65684128 151.34367371 57.08999252 147.24485779 59.83453369 C 143.29389954 62.63899231 137.19042969 63.12550354 130.54890442 64.32527161 C 124.87138367 64.54846191 119.35169983 65.78839111 111.18389893 62.10640335" stroke-width="1.31525278" fill="rgb(55, 133, 38)" opacity="1.0" stroke="rgb(30, 61, 24)" stroke-opacity="0.9283292" stroke-linecap="round" stroke-linejoin="round"/>
    <path d="M 164.38996887 117.08959198 C 160.99932861 117.68402100 155.00192261 116.92987061 150.66510010 114.43490601 C 146.79930115 112.61080933 143.02409363 108.59706116 141.10035706 103.64270020 C 139.62594604 100.06232452 138.72412109 94.54429626 140.30842590 89.43450165 C 140.89599609 85.58423615 143.44953918 80.47346497 147.37081909 76.81368256 C 151.48915100 73.49012756 155.77438354 71.45004272 161.31436157 71.31513977 C 166.54954529 71.51261902 169.07318115 71.33511353 173.50010681 74.04401398 C 176.58645630 75.64487457 180.14294434 78.21617889 183.65498352 84.48629761 C 184.88278198 87.15242767 186.52543640 93.50292969 185.37861633 98.48572540 C 184.82714844 102.78225708 181.90795898 107.99302673 178.25360107 111.40632629 C 174.23139954 114.80358887 170.41931152 116.41880035 164.38996887 117.08959198" stroke-width="1.23082423" fill="rgb(70, 144, 47)" opacity="1.0" stroke="rgb(6, 33, 0)" stroke-opacity="0.81009257" stroke-linecap="round" stroke-linejoin="round"/>
    <path d="M 114.47409058 79.48131561 C 112.27062225 83.82710266 111.86082458 84.99246216 107.92333984 90.08265686 C 105.87761688 92.29848480 101.99296570 95.59805298 96.68470764 95.13732910 C 92.85878754 95.17991638 88.72230530 94.66373444 84.40097046 91.60000610 C 79.19027710 87.54740143 78.93339539 86.09869385 76.87184906 81.54344177 C 75.42082214 73.76570892 75.53191376 74.36720276 77.12574005 67.54510498 C 80.68728638 60.88489532 79.58766174 62.11895752 82.93169403 58.63013458 C 86.39274597 55.22238922 91.13856506 53.45722961 95.36544800 52.95750046 C 100.81496429 52.64485168 105.01529694 52.82215881 108.59416199 55.22547531 C 111.58507538 56.62972260 115.87203979 61.65517426 116.63326263 65.14083862 C 118.03350830 70.09729004 115.79331207 72.95769501 114.47409058 79.48131561" stroke-width="1.22929060" fill="rgb(76, 162, 60)" opacity="1.0" stroke="rgb(26, 58, 24)" stroke-opacity="0.89308983" stroke-linecap="round" stroke-linejoin="round"/>
    <path d="M 164.73252869 68.72726440 C 162.93803406 70.93286133 158.46601868 70.02616119 153.80886841 70.48690796 C 150.19741821 70.25569153 146.18241882 73.03231812 143.06782532 71.10755157 C 138.92178345 68.97164917 135.36883545 66.80944061 133.98193359 63.84436798 C 131.96966553 60.33141708 131.60321045 55.05801392 131.56745911 51.24857712 C 132.22222900 46.76353455 133.62159729 43.20316315 136.60978699 39.80733871 C 142.46885681 35.85399628 140.98178101 36.25764465 145.53836060 35.32128525 C 149.82736206 34.41907501 154.23902893 34.81853104 158.60820007 36.64552689 C 162.91247559 38.70463562 165.98168945 42.17237854 167.61367798 44.74868011 C 169.94993591 49.20126724 170.54139709 53.14993668 170.08828735 56.92005920 C 169.63838196 60.85757828 167.21856689 66.45077515 164.73252869 68.72726440" stroke-width="1.17307127" fill="rgb(97, 175, 63)" opacity="1.0" stroke="rgb(31, 65, 24)" stroke-opacity="0.8401671" stroke-linecap="round" stroke-linejoin="round"/>
    <path d="M 124.82222748 83.33848572 C 124.63918304 84.24799347 123.87486267 88.19028473 122.99853516 90.48263550 C 121.76701355 92.61280060 119.60652924 91.85533905 117.86267090 93.10675812 C 115.20694733 94.57817078 112.07898712 94.54183960 110.08052063 94.24590302 C 106.58630371 93.45278168 104.50371552 93.00008392 103.43098450 90.99748230 C 101.69071198 88.91843414 100.36848450 86.45523071 100.24037170 83.47731781 C 100.53043365 78.89830780 100.38198853 79.86822510 101.44728088 77.25481415 C 102.84833527 74.35030365 105.08356476 72.58444977 107.56876373 71.51635742 C 111.59177399 70.58155823 113.52269745 70.59732056 115.70093536 71.07035065 C 118.50926971 71.80206299 120.10862732 74.02092743 121.41063690 75.82922363 C 123.78671265 77.36154938 124.55884552 78.46340942 124.82222748 83.33848572" stroke-width="1.17018378" fill="rgb(110, 194, 92)" opacity="1.0" stroke="rgb(36, 53, 33)" stroke-opacity="0.8254212" stroke-linecap="round" stroke-linejoin="round"/>
    <path d="M 150.67817688 84.51690674 C 148.23832703 86.46110535 144.87583923 87.12283325 142.44470215 87.24899292 C 138.87544250 87.14234924 136.41624451 86.60389709 133.61456299 84.92864990 C 131.26651001 83.12422943 129.36795044 82.32645416 127.57604218 78.67361450 C 126.42438507 75.60181427 125.95524597 73.77297974 126.72969818 69.57288361 C 127.54003143 66.55558777 129.68627930 63.99480820 131.95715332 61.88410950 C 136.47467041 59.31453705 135.38757324 59.49721527 138.83692932 58.96265793 C 142.23577881 58.57225800 145.21885681 59.07282257 148.51953125 60.61512756 C 151.74075317 62.42346954 154.17102051 64.99867249 154.99688721 67.11248779 C 156.45135498 70.45718384 156.42236328 73.48976135 155.96995544 76.40431213 C 155.53620911 79.38291931 152.89860535 83.08101654 150.67817688 84.51690674" stroke-width="1.04313517" fill="rgb(146, 207, 119)" opacity="1.0" stroke="rgb(30, 45, 28)" stroke-opacity="0.7851947" stroke-linecap="round" stroke-linejoin="round"/>
    <path d="M 129.77322388 98.03215790 C 130.73930359 99.07645416 131.21061707 101.35571289 131.20889282 102.86819458 C 130.98872375 104.99153900 131.10949707 106.42974854 129.91503906 107.80247498 C 128.79844666 109.07382202 128.11334229 110.08692932 126.04647064 110.95641327 C 124.43629456 111.49771118 123.16280365 111.75651550 120.61008453 111.62667084 C 119.31523132 111.21047211 117.58052063 110.61209869 116.18757629 108.81265259 C 115.11837006 106.64199066 114.93817139 106.57691193 114.56912994 105.11354065 C 114.12263489 103.51585388 115.05357361 101.03956604 115.69276428 99.73689270 C 117.35699463 97.54016876 118.40620422 96.92554474 119.83985138 96.33567810 C 121.57154083 95.50728607 123.72557831 95.23366547 125.08776855 95.36904907 C 127.27241516 95.74312592 128.70921326 96.67283630 129.77322388 98.03215790" stroke-width="1.22913551" fill="rgb(156, 217, 133)" opacity="1.0" stroke="rgb(22, 36, 18)" stroke-opacity="0.76896363" stroke-linecap="round" stroke-linejoin="round"/>
    <path d="M 131.02539062 28.81300163 C 131.85183716 28.04443741 133.60317993 27.01290894 134.82360840 26.44102097 C 135.99664307 26.15959930 137.12576294 26.05149269 138.40666199 26.55012512 C 139.70269775 26.82305717 141.39848328 27.76729584 142.18539429 28.87766075 C 143.41772461 30.19954300 143.96937561 31.96019173 144.16705322 33.27750015 C 144.32017517 34.99312592 143.52233887 36.32815933 142.45693970 37.72698975 C 140.25857544 39.51556778 140.82623291 39.17589951 139.17114258 39.95889664 C 137.61990356 40.84844208 135.66870117 40.98532867 134.30357361 40.51109695 C 131.88705444 39.28934097 131.83943176 39.14273071 130.31561279 37.72410583 C 129.08555603 36.02600479 129.07801819 34.48733139 129.26638794 33.41041565 C 129.31196594 31.28767204 129.65620422 29.99757576 131.02539062 28.81300163" stroke-width="1.10051072" fill="rgb(175, 226, 158)" opacity="1.0" stroke="rgb(21, 13, 31)" stroke-opacity="0.57716435" stroke-linecap="round" stroke-linejoin="round"/>
    <path d="M 111.21971893 168.06579590 C 112.03697968 168.52629089 113.84396362 170.45350647 114.85458374 171.89346313 C 117.01767731 173.58732605 116.94355774 175.53625488 113.51888275 175.00518799 C 111.53083801 174.89305115 110.04894257 175.08381653 107.42250061 175.08695984 C 105.26753998 175.11857605 103.36653137 174.99870300 101.39328003 175.13584900 C 98.74546051 175.08277893 97.00198364 174.94142151 95.47990417 175.23115540 C 92.47721100 175.36013794 91.25715637 175.45472717 91.88484192 174.31944275 C 92.22956848 173.04090881 93.50623322 171.25006104 94.86602783 169.71887207 C 96.05846405 168.61093140 96.81117249 167.76959229 99.08434296 166.54504395 C 101.97795868 165.45657349 102.20105743 165.48274231 105.05033112 165.58505249 C 106.93503571 165.85493469 108.95471954 166.51596069 111.21971893 168.06579590" stroke-width="1.19300234" fill="rgb(228, 216, 179)" opacity="1.0" stroke="rgb(38, 42, 46)" stroke-opacity="0.74887806" stroke-linecap="round" stroke-linejoin="round"/>
    <path d="M 146.73236084 175.17541504 C 144.72311401 175.20083618 144.25759888 175.11123657 141.26998901 175.22824097 C 139.31188965 175.17805481 137.61889648 175.20945740 135.20083618 175.03785706 C 133.44450378 175.09532166 131.28735352 175.05682373 129.04774475 175.16188049 C 126.69889069 174.88227844 125.45522308 175.56927490 123.91644287 174.91558838 C 125.21286011 173.28942871 126.59175873 172.69282532 128.45207214 170.74607849 C 130.00956726 169.52941895 130.68000793 168.86927795 132.38969421 168.10690308 C 134.70364380 167.10934448 136.33657837 166.83493042 137.88694763 166.78283691 C 140.41624451 166.97094727 142.09890747 167.36997986 143.65480042 168.57322693 C 145.32807922 169.58552551 146.36279297 171.40061951 147.64172363 172.95387268 C 148.83297729 174.52670288 151.24037170 175.80044556 146.73236084 175.17541504" stroke-width="1.20128000" fill="rgb(226, 215, 178)" opacity="1.0" stroke="rgb(21, 21, 28)" stroke-opacity="0.69511306" stroke-linecap="round" stroke-linejoin="round"/>
    <path d="M 162.83953857 174.08357239 C 163.40129089 174.02331543 163.41754150 174.06788635 164.20936584 173.97369385 C 164.63844299 173.98684692 165.04760742 173.95637512 165.69209290 173.93812561 C 166.06149292 173.94174194 166.53796387 173.96044922 167.15498352 174.04185486 C 167.54901123 174.12322998 168.17552185 174.28843689 168.45088196 174.78103638 C 168.21354675 175.23167419 167.88049316 175.11112976 167.21890259 175.16313171 C 166.54829407 175.18827820 166.59335327 175.20169067 165.96093750 175.21627808 C 165.33486938 175.24885559 165.27949524 175.24374390 164.55154419 175.32658386 C 164.16253662 175.33726501 163.63145447 175.26806641 163.03985596 175.25595093 C 162.59466553 175.21063232 161.98939514 175.18434143 161.61923218 174.79820251 C 161.68698120 174.23841858 162.12590027 174.22943115 162.83953857 174.08357239" stroke-width="1.26549816" fill="rgb(228, 222, 193)" opacity="1.0" stroke="rgb(76, 57, 45)" stroke-opacity="0.7742928" stroke-linecap="round" stroke-linejoin="round"/>
    <path d="M 156.54817200 175.37339783 C 155.97801208 175.38537598 155.91473389 175.37811279 155.19619751 175.39184570 C 154.67045593 175.41294861 154.41589355 175.38793945 153.78369141 175.40769958 C 153.31947327 175.43888855 152.90953064 175.41110229 152.34024048 175.44691467 C 151.89402771 175.45988464 151.34977722 175.58334351 151.06715393 175.01319885 C 151.12855530 174.46733093 151.27699280 174.30242920 151.91816711 174.10342407 C 152.60534668 173.99269104 152.47709656 174.03305054 153.09709167 173.96086121 C 153.72656250 173.94900513 153.96592712 173.97732544 154.49890137 173.98802185 C 154.91078186 174.02478027 155.31999207 174.12211609 155.91593933 174.24324036 C 156.37289429 174.34295654 156.74067688 174.38838196 157.29228210 174.75201416 C 157.78189087 175.26274109 157.12246704 175.36367798 156.54817200 175.37339783" stroke-width="1.14030588" fill="rgb(216, 208, 176)" opacity="1.0" stroke="rgb(55, 44, 39)" stroke-opacity="0.81581295" stroke-linecap="round" stroke-linejoin="round"/>
  </g>
</svg>
