<?xml version="1.0" ?>
<svg xmlns="http://www.w3.org/2000/svg" version="1.1" width="256" height="256" viewBox="0 0 256 256">
  <defs/>
  <g>
    <path d="M 176.00672913 218.56956482 C 172.88031006 226.48303223 159.79310608 222.97372437 150.48681641 222.01554871 C 139.36743164 221.79647827 132.53758240 222.51545715 120.61519623 222.05996704 C 112.05693054 222.53620911 102.91955566 222.50949097 91.65217590 222.28276062 C 75.86073303 222.43966675 76.47463989 223.17546082 76.60127258 206.57073975 C 77.43676758 200.64817810 75.14112854 185.10116577 77.64484406 177.18171692 C 86.08419800 173.37265015 88.85798645 174.65280151 100.41918182 173.92445374 C 114.24081421 173.69541931 116.37454224 174.71350098 129.88204956 174.10472107 C 139.83961487 174.02589417 149.21740723 175.13662720 159.00553894 174.94659424 C 173.30847168 176.08235168 177.78338623 172.89817810 176.56460571 186.33351135 C 176.12806702 199.86653137 177.46737671 208.24005127 176.00672913 218.56956482" stroke-width="1.03881931" fill="rgb(173, 84, 39)" opacity="1.0" stroke="rgb(0, 0, 0)" stroke-opacity="0.71545184" stroke-linecap="round" stroke-linejoin="round"/>
    <path d="M 162.59747314 223.86656189 C 155.44161987 224.15194702 152.36968994 224.29623413 142.88673401 224.22190857 C 137.04414368 223.99285889 130.25421143 224.19741821 123.54821777 224.10469055 C 114.12114716 223.88677979 110.18897247 224.80476379 102.58329010 224.00634766 C 92.91712952 223.69853210 90.93319702 225.32624817 79.98234558 223.46681213 C 74.44836426 218.38737488 81.86184692 220.09750366 90.34440613 220.46955872 C 99.92935181 221.24807739 102.25241089 220.77890015 108.23757935 220.64006042 C 118.60144043 220.67332458 121.10215759 220.76652527 128.24034119 221.00643921 C 137.63307190 219.54280090 140.83879089 220.66828918 149.72750854 221.05053711 C 157.70176697 221.69413757 162.50495911 219.69183350 170.65422058 219.51239014 C 180.06924438 222.52667236 172.41491699 225.10179138 162.59747314 223.86656189" stroke-width="0.69786632" fill="rgb(134, 62, 34)" opacity="1.0" stroke="rgb(142, 97, 71)" stroke-opacity="0.5975692" stroke-linecap="round" stroke-linejoin="round"/>
    <path d="M 124.00709534 137.39909363 C 123.47415161 145.81358337 124.58859253 155.62174988 127.54670715 167.15699768 C 128.96554565 182.86686707 120.44651031 173.09197998 119.77761841 160.50396729 C 116.72456360 149.02722168 117.84470367 140.10237122 119.03603363 128.78361511 C 121.92086792 117.37316895 122.34737396 111.80151367 123.41712189 97.55136108 C 123.25144958 87.14551544 123.67523956 79.60903168 124.13896942 65.18824005 C 126.63586426 49.40584946 127.01020050 49.38690948 126.13104248 37.05887604 C 125.69580841 16.66214752 135.26081848 31.84554291 134.66761780 43.46163559 C 136.52043152 56.12729645 133.91885376 62.71867371 131.68453979 72.78177643 C 130.09150696 83.92205048 130.36599731 94.81818390 128.70567322 104.80339813 C 127.63552856 119.12189484 124.85610962 121.17381287 124.00709534 137.39909363" stroke-width="0.47720298" fill="rgb(113, 60, 34)" opacity="1.0" stroke="rgb(0, 3, 0)" stroke-opacity="0.28487635" stroke-linecap="round" stroke-linejoin="round"/>
    <path d="M 96.70997620 118.11432648 C 98.52634430 117.60755157 100.63679504 116.96941376 102.73554230 116.76684570 C 105.27311707 116.40973663 107.24938202 116.57392883 109.34818268 116.95187378 C 111.93117523 117.46514893 113.80183411 117.54889679 115.93173981 118.26060486 C 119.02826691 119.03186035 120.07231140 119.28533936 122.25595093 120.37621307 C 124.43136597 121.74219513 125.57790375 124.70206451 122.39112854 123.90019226 C 119.31650543 123.06742096 119.33361816 122.83410645 117.54008484 121.97431946 C 114.23813629 120.98162842 113.87937927 121.01902771 110.77770233 120.47084045 C 108.70008087 120.30665588 107.00000000 119.75646210 104.09322357 120.15386200 C 102.10816956 120.31999969 100.33504486 120.96096039 97.69670868 121.38426971 C 94.69763947 121.08096313 93.62631989 118.97309113 96.70997620 118.11432648" stroke-width="0.13799268" fill="rgb(100, 53, 37)" opacity="1.0" stroke="rgb(70, 71, 65)" stroke-opacity="0.3231972" stroke-linecap="round" stroke-linejoin="round"/>
    <path d="M 151.76570129 94.84669495 C 149.88911438 94.72487640 148.21128845 94.56307220 144.92968750 94.89198303 C 142.50437927 95.15452576 140.96493530 95.33421326 137.71218872 96.02817535 C 135.12390137 96.58402252 133.95539856 97.46170807 131.43049622 99.42447662 C 129.53131104 99.99530029 127.22863770 99.37669373 128.63208008 97.22849274 C 131.45277405 95.48154449 133.20260620 94.60211945 135.48609924 93.87900543 C 139.44203186 92.53969574 138.93775940 92.65927124 141.66664124 91.67218018 C 145.55850220 91.11284637 145.24261475 90.92637634 149.38504028 90.87452698 C 152.01538086 91.02904510 154.63912964 90.99472809 157.11477661 91.55927277 C 159.03683472 91.90959167 163.08337402 93.46538544 160.54898071 95.69001770 C 157.21218872 96.23374176 155.68417358 95.40042114 151.76570129 94.84669495" stroke-width="0.26877370" fill="rgb(89, 44, 30)" opacity="1.0" stroke="rgb(0, 0, 0)" stroke-opacity="0.44875216" stroke-linecap="round" stroke-linejoin="round"/>
    <path d="M 115.84144592 68.43181610 C 113.07093811 68.53208923 112.95982361 68.36324310 109.73454285 69.43141174 C 106.73447418 70.57290649 106.23573303 70.81663513 103.25798798 71.95481873 C 100.35677338 73.45233154 98.64152527 75.12216187 98.26791382 72.47714233 C 98.49667358 69.67092133 99.57452393 68.36933136 101.55513000 67.47461700 C 103.87325287 66.00035095 104.70603180 65.87888336 107.50019836 65.19068909 C 111.28805542 64.77659607 110.92404175 64.77168274 113.11066437 64.45693970 C 116.12076569 64.13671112 117.50043488 64.65952301 120.02510834 66.08573914 C 122.36238098 67.26499939 123.26190948 67.55153656 125.59467316 69.37849426 C 128.41563416 71.58411407 126.35369110 72.32040405 123.58154297 70.86795807 C 120.71015930 69.66928864 118.89269257 68.72951508 115.84144592 68.43181610" stroke-width="0.37517437" fill="rgb(81, 53, 33)" opacity="1.0" stroke="rgb(52, 87, 84)" stroke-opacity="0.52766454" stroke-linecap="round" stroke-linejoin="round"/>
    <path d="M 85.37622070 137.74624634 C 81.47708130 136.21255493 79.58638000 135.13619995 76.39430237 131.08317566 C 74.28953552 128.07699585 72.60918427 123.82442474 72.87689209 118.86349487 C 73.14254761 114.97651672 73.24359894 112.17704010 76.74739075 107.39293671 C 78.49467468 104.82168579 82.05841827 102.05080414 86.76779938 100.62557220 C 89.86529541 99.76686096 95.01110077 99.41520691 99.70858002 101.56096649 C 103.04605865 103.31255341 105.22442627 104.01789093 107.70118713 107.15451813 C 111.05333710 111.15802765 112.35882568 114.97774506 112.14814758 118.15603638 C 111.72628784 122.84632111 110.84745789 126.63884735 108.40069580 130.29627991 C 104.71177673 134.40623474 103.36235809 135.46511841 99.13344574 137.51940918 C 93.25446320 139.27775574 90.57911682 138.61163330 85.37622070 137.74624634" stroke-width="0.26429754" fill="rgb(40, 86, 36)" opacity="1.0" stroke="rgb(36, 0, 47)" stroke-opacity="0.35913476" stroke-linecap="round" stroke-linejoin="round"/>
    <path d="M 112.71094513 63.32726288 C 107.64226532 59.79829407 106.34297943 58.76592255 101.08757019 51.64115524 C 98.54235840 45.96717453 97.02665710 41.47049713 97.79951477 35.45034790 C 99.15933228 27.41279221 102.22267151 22.20159149 105.86838531 19.30147171 C 112.24457550 13.61456871 118.74095154 12.14436531 122.23738861 11.37537384 C 131.23916626 11.07868958 136.12466431 12.26078796 140.70846558 14.47025108 C 150.10250854 20.97401810 147.80651855 18.52822495 152.42355347 25.62147713 C 155.42530823 33.27505493 156.03709412 37.16200256 155.80885315 43.60052109 C 155.02545166 49.40860748 152.59460449 56.73053741 148.26840210 60.28414154 C 143.27035522 64.27645111 138.36096191 66.50374603 131.69329834 67.74699402 C 123.31951904 67.90180969 122.11038971 67.00090027 112.71094513 63.32726288" stroke-width="0.59233648" fill="rgb(54, 135, 37)" opacity="1.0" stroke="rgb(5, 0, 5)" stroke-opacity="0.6715923" stroke-linecap="round" stroke-linejoin="round"/>
    <path d="M 166.14199829 117.81829834 C 162.68547058 118.66294861 156.26820374 118.12686157 151.65350342 116.00378418 C 147.49270630 114.27015686 143.02772522 110.31301880 140.95120239 105.68009949 C 138.73156738 101.42932892 137.63235474 95.87425232 138.90629578 90.87684631 C 139.28808594 86.39424896 141.64065552 81.23339844 145.48103333 77.43024445 C 149.44851685 73.92355347 153.89866638 71.43576050 159.75994873 70.71780396 C 165.01562500 70.45437622 167.83132935 70.06068420 172.41848755 72.43833160 C 177.37236023 75.15597534 180.09442139 76.96501160 183.53823853 82.43879700 C 185.77636719 86.59757233 187.15515137 90.82171631 186.41146851 97.52681732 C 186.33143616 100.78836823 184.16494751 106.40361023 180.17008972 110.79391479 C 176.38485718 114.54244995 172.00299072 116.95753479 166.14199829 117.81829834" stroke-width="0.42679963" fill="rgb(69, 140, 50)" opacity="1.0" stroke="rgb(0, 0, 0)" stroke-opacity="0.5096445" stroke-linecap="round" stroke-linejoin="round"/>
    <path d="M 115.55733490 79.35649872 C 113.32205200 83.78517914 113.08286285 84.26805115 108.64642334 89.84416199 C 106.12637329 91.97092438 102.18163300 95.49607849 96.90846252 95.11067200 C 93.20729828 94.98971558 89.39793396 94.71405792 84.69779968 91.70857239 C 79.60542297 87.69322968 79.27471924 85.95067596 77.15411377 81.67456818 C 75.48917389 73.81207275 75.67051697 74.56295776 77.27384949 67.82689667 C 80.97756958 60.74253845 79.35510254 62.62876892 83.37058258 58.41389847 C 87.56225586 54.79677200 91.95057678 53.48068619 95.25352478 53.13864899 C 101.02421570 52.81468964 105.00392151 52.87965393 109.04657745 55.43615723 C 111.39190674 56.56307983 115.19417572 60.29903412 116.68196869 65.27005005 C 117.65633392 70.35963440 116.65847778 73.23308563 115.55733490 79.35649872" stroke-width="1.31049347" fill="rgb(78, 163, 59)" opacity="1.0" stroke="rgb(39, 70, 35)" stroke-opacity="0.9256001" stroke-linecap="round" stroke-linejoin="round"/>
    <path d="M 165.31814575 68.55842590 C 162.92605591 70.96395874 161.26698303 71.46553802 155.57267761 73.79896545 C 151.87217712 74.35354614 148.57321167 75.35131073 144.60798645 73.67250061 C 139.96237183 71.30139160 136.75520325 68.86774445 135.20056152 65.77976990 C 132.65090942 61.61727905 131.60800171 56.82503891 131.25152588 53.37643814 C 131.10360718 48.53651047 132.04495239 44.85806274 135.35588074 41.28582764 C 141.24165344 36.79183960 139.51718140 37.54920578 144.92611694 35.74768066 C 150.24449158 34.48487854 153.40559387 34.09895325 157.74670410 35.59686661 C 161.20494080 37.05770111 165.52876282 40.76721573 167.54431152 43.74677658 C 169.85081482 47.89099884 170.70870972 51.74019241 170.62269592 55.62147522 C 170.39503479 59.39825058 169.52963257 63.55764771 165.31814575 68.55842590" stroke-width="0.68031442" fill="rgb(94, 170, 63)" opacity="1.0" stroke="rgb(0, 0, 0)" stroke-opacity="0.6714876" stroke-linecap="round" stroke-linejoin="round"/>
    <path d="M 124.78621674 84.31122589 C 124.64954376 86.03540039 123.60461426 89.21162415 122.27881622 91.47257233 C 120.21839905 93.05319977 119.01010895 93.18536377 115.38085938 94.08608246 C 112.86100769 94.73365021 111.40029144 94.86228943 108.21463013 93.97100067 C 105.48114777 92.94075012 103.52976990 91.82889557 102.25802612 89.68756104 C 100.58025360 87.24345398 99.94805908 84.67141724 100.09293365 82.02647400 C 101.17153931 77.53431702 100.63183594 78.65809631 102.20660400 75.95503998 C 103.68859863 73.48573303 106.99093628 71.56930542 108.66854095 71.03453827 C 112.86335754 70.50064087 114.34658813 70.78798676 116.64432526 71.60157776 C 119.21849060 72.65193939 121.09734344 74.81258392 122.38468933 76.60858917 C 124.25808716 78.97468567 124.97290039 80.84364319 124.78621674 84.31122589" stroke-width="1.10941744" fill="rgb(113, 194, 91)" opacity="1.0" stroke="rgb(15, 21, 15)" stroke-opacity="0.6191561" stroke-linecap="round" stroke-linejoin="round"/>
    <path d="M 151.97438049 83.32142639 C 150.53222656 85.02162933 147.03890991 86.71605682 143.98165894 87.22094727 C 141.21559143 87.43754578 138.17948914 87.14401245 135.22595215 85.62466431 C 133.04707336 84.25758362 130.48442078 83.05567169 128.44415283 80.04505920 C 126.73989105 76.63661194 126.40464020 75.56082153 126.47210693 71.55654144 C 126.91352844 67.99140167 128.48518372 65.53069305 130.66253662 63.01075363 C 134.84193420 59.88836670 133.85858154 60.27761459 137.11157227 59.35467529 C 141.65043640 58.42591095 143.08810425 58.73059082 146.99800110 60.01387787 C 149.92640686 61.16540909 152.89675903 63.46782303 154.29373169 65.91734314 C 155.97334290 68.62798309 156.39225769 71.83568573 156.15512085 74.77313232 C 155.98629761 77.74899292 154.39941406 81.17396545 151.97438049 83.32142639" stroke-width="1.21514952" fill="rgb(146, 211, 116)" opacity="1.0" stroke="rgb(39, 66, 42)" stroke-opacity="0.8208775" stroke-linecap="round" stroke-linejoin="round"/>
    <path d="M 129.33372498 97.71736145 C 130.58547974 98.70079803 131.66639709 100.77039337 132.10675049 102.35149384 C 132.41877747 104.38992310 132.23596191 106.00150299 131.11553955 107.66343689 C 130.13507080 109.01937866 129.30949402 109.71438599 126.77308655 110.73115540 C 125.43444824 111.23950958 123.41080475 111.99218750 120.91963196 112.44737244 C 119.11944580 112.44013977 117.98870850 111.99575806 116.13688660 109.92021942 C 114.95002747 107.56959534 114.68081665 107.67012024 114.14240265 105.74574280 C 113.51823425 103.69946289 114.16944885 101.50639343 114.76119995 100.01839447 C 116.29437256 97.64143372 117.17079926 96.76323700 118.74530792 96.00196838 C 120.29496765 94.99324799 122.87320709 94.66780853 123.96001434 95.04120636 C 126.66274261 95.68289185 127.66802216 96.41913605 129.33372498 97.71736145" stroke-width="0.41530779" fill="rgb(152, 210, 128)" opacity="1.0" stroke="rgb(0, 0, 12)" stroke-opacity="0.71675086" stroke-linecap="round" stroke-linejoin="round"/>
    <path d="M 131.98246765 28.00629425 C 132.45596313 27.72143745 134.00582886 26.76939774 135.62403870 26.16510391 C 136.89999390 25.99439240 138.26040649 26.02242851 139.60633850 26.87782478 C 141.11831665 27.52316093 142.37191772 28.71891785 142.86726379 29.61993027 C 144.04922485 31.34462547 144.25332642 33.00519180 144.21733093 34.24660110 C 143.83316040 35.99343109 142.90658569 37.44810867 141.87977600 38.50862885 C 139.52323914 40.16667938 140.25398254 39.80736160 138.44075012 40.44130707 C 136.73452759 40.98747635 134.79110718 40.69512558 133.58506775 40.27221680 C 131.56266785 39.17313385 130.53129578 38.17044449 129.92103577 37.12047958 C 129.15826416 35.71052551 129.08343506 33.99156570 129.28970337 32.53821945 C 129.52775574 30.87031555 130.02212524 29.86589432 131.98246765 28.00629425" stroke-width="1.04043961" fill="rgb(178, 227, 158)" opacity="1.0" stroke="rgb(8, 0, 20)" stroke-opacity="0.52262974" stroke-linecap="round" stroke-linejoin="round"/>
    <path d="M 111.96454620 168.60504150 C 112.19885254 168.73735046 114.42309570 170.66102600 115.27411652 172.25630188 C 117.13917542 174.36476135 115.71068573 175.17208862 112.71838379 175.00906372 C 110.81192017 174.97625732 109.28873444 175.26217651 106.78253174 175.10968018 C 104.85749054 175.06355286 102.90106964 174.91706848 100.86161041 175.04660034 C 98.57983398 174.99789429 96.70835876 174.99687195 94.87981415 175.34100342 C 92.35842133 175.15722656 90.44487000 174.75395203 92.06661987 173.53062439 C 93.10145569 171.87971497 94.06918335 170.60726929 95.59011078 168.97213745 C 97.19668579 167.64248657 98.32774353 166.89674377 99.96364594 166.15995789 C 102.71778870 165.33386230 103.49148560 165.40039062 105.95101929 165.63946533 C 108.14006042 166.32244873 108.94911957 166.57611084 111.96454620 168.60504150" stroke-width="1.20571160" fill="rgb(227, 217, 178)" opacity="1.0" stroke="rgb(37, 38, 43)" stroke-opacity="0.735823" stroke-linecap="round" stroke-linejoin="round"/>
    <path d="M 146.70263672 175.21313477 C 144.46255493 175.20802307 143.96449280 175.13700867 141.16165161 175.19850159 C 139.09510803 175.19256592 137.75743103 174.96656799 135.30191040 174.86756897 C 132.99571228 175.02116394 131.73168945 174.99588013 129.20439148 175.13459778 C 127.09363556 174.94192505 125.28906250 175.57899475 124.08728027 174.69447327 C 125.76983643 172.85296631 126.44357300 172.72283936 128.62915039 170.71012878 C 130.22402954 169.49261475 130.82861328 168.67642212 132.59588623 168.02557373 C 134.91178894 167.20465088 136.19200134 166.80976868 138.26399231 166.80725098 C 139.82417297 166.91447449 141.70852661 167.12911987 143.79243469 168.69773865 C 145.00273132 169.49673462 146.39993286 171.20071411 147.68310547 172.91606140 C 148.97880554 174.56260681 150.63449097 175.66644287 146.70263672 175.21313477" stroke-width="1.27660859" fill="rgb(228, 218, 181)" opacity="1.0" stroke="rgb(32, 30, 32)" stroke-opacity="0.7438235" stroke-linecap="round" stroke-linejoin="round"/>
    <path d="M 162.82760620 173.99491882 C 163.42976379 173.85922241 163.50636292 173.87864685 164.25860596 173.78862000 C 164.81002808 173.79911804 165.09710693 173.77833557 165.75927734 173.79394531 C 166.24166870 173.84870911 166.58120728 173.87750244 167.30960083 174.00358582 C 167.69158936 174.08665466 168.34086609 174.22926331 168.58003235 174.72819519 C 168.16613770 175.17446899 167.88887024 175.05499268 167.22346497 175.12736511 C 166.48538208 175.18811035 166.59701538 175.19177246 165.92086792 175.23141479 C 165.33239746 175.27491760 165.16928101 175.32167053 164.49859619 175.44642639 C 164.04423523 175.43760681 163.65180969 175.34721375 162.92559814 175.27769470 C 162.42890930 175.19978333 161.94432068 175.15492249 161.56097412 174.78654480 C 161.65632629 174.27775574 162.31239319 174.10171509 162.82760620 173.99491882" stroke-width="1.07792211" fill="rgb(221, 207, 175)" opacity="1.0" stroke="rgb(59, 53, 45)" stroke-opacity="0.7585188" stroke-linecap="round" stroke-linejoin="round"/>
    <path d="M 156.68132019 175.45343018 C 156.11959839 175.48887634 155.81465149 175.50013733 155.16145325 175.51754761 C 154.50628662 175.50244141 154.24150085 175.49572754 153.65554810 175.48902893 C 152.91290283 175.45085144 152.77626038 175.44323730 151.99627686 175.41198730 C 151.59271240 175.38526917 150.94232178 175.42254639 150.61253357 174.92575073 C 150.98200989 174.33488464 151.15975952 174.37751770 151.87954712 174.14215088 C 152.61398315 173.95054626 152.48640442 173.96832275 153.14817810 173.85830688 C 153.85940552 173.80923462 154.04473877 173.77264404 154.65589905 173.71656799 C 155.15731812 173.79031372 155.43864441 173.84510803 156.13436890 174.05780029 C 156.76753235 174.37226868 156.91896057 174.32221985 157.56646729 174.74642944 C 157.99700928 175.27050781 157.15965271 175.46868896 156.68132019 175.45343018" stroke-width="0.96359903" fill="rgb(221, 211, 172)" opacity="1.0" stroke="rgb(20, 22, 22)" stroke-opacity="0.66355383" stroke-linecap="round" stroke-linejoin="round"/>
  </g>
</svg>
