<?xml version="1.0" ?>
<svg xmlns="http://www.w3.org/2000/svg" version="1.1" width="256" height="256" viewBox="0 0 256 256">
  <defs/>
  <g>
    <path d="M 177.94076538 219.76947021 C 175.99969482 227.70965576 161.67092896 225.46795654 152.15596008 225.10090637 C 142.65182495 224.66671753 134.18518066 224.96430969 122.73120880 224.87648010 C 113.98591614 225.23425293 103.73360443 225.29371643 93.94191742 224.81759644 C 82.32350159 225.72297668 75.33979797 225.01768494 77.95090485 208.44210815 C 78.63432312 201.55816650 76.43681335 190.07960510 79.39205170 180.27293396 C 87.73733521 172.75181580 92.27575684 174.66058350 102.45941162 175.06427002 C 115.77458191 175.40000916 120.30690765 175.09860229 132.28674316 174.88581848 C 143.48101807 174.74189758 150.98188782 175.41079712 161.10505676 174.84132385 C 175.68310547 173.07418823 179.16703796 178.39352417 177.63183594 189.63319397 C 177.41548157 198.98550415 179.74604797 210.58544922 177.94076538 219.76947021" stroke-width="1.00000000" fill="rgb(211, 47, 47)" opacity="1.0"/>
    <path d="M 163.11828613 224.95709229 C 156.52804565 225.00759888 152.31605530 225.31497192 143.50740051 224.98039246 C 137.51885986 224.73867798 130.70463562 225.21086121 124.23214722 225.02369690 C 115.83808136 225.12170410 110.78344727 225.14605713 104.55652618 224.61335754 C 94.17093658 224.32583618 93.06061554 226.83222961 82.27206421 224.83387756 C 76.88375854 219.27285767 85.19142914 220.00939941 92.62806702 220.05693054 C 103.30237579 220.38209534 103.75668335 220.15492249 110.56787109 219.71949768 C 120.97492981 219.86628723 123.32048035 220.01736450 130.83023071 220.19815063 C 140.12699890 219.22029114 143.43518066 220.26573181 151.92340088 220.14587402 C 159.63618469 220.82487488 164.39859009 218.84930420 172.65466309 219.50779724 C 180.81063843 224.16609192 172.10536194 226.12515259 163.11828613 224.95709229" stroke-width="1.00000000" fill="rgb(139, 0, 0)" opacity="1.0"/>
    <path d="M 125.36518097 135.71005249 C 124.95462036 147.82823181 125.72082520 154.75680542 129.00364685 166.60993958 C 130.74865723 183.16027832 120.67433167 172.81317139 119.69451141 160.58273315 C 116.38040161 149.36874390 117.89615631 140.22998047 118.60616302 128.34295654 C 120.56239319 117.02000427 121.47294617 110.39645386 123.74822235 96.85682678 C 123.63243866 86.34207153 124.63807678 77.53900909 124.60491943 64.23626709 C 126.53807068 47.69399643 127.67524719 47.78780365 125.61033630 35.73490906 C 123.02668762 14.22669220 135.67395020 29.69000244 133.93627930 40.10359192 C 135.90200806 54.80470657 133.36471558 60.48439026 132.18132019 70.85995483 C 131.28627014 83.11590576 131.78468323 93.68398285 130.06248474 103.65195465 C 128.89280701 118.43881226 126.33599854 120.88832092 125.36518097 135.71005249" stroke-width="1.00000000" fill="rgb(93, 64, 55)" opacity="1.0"/>
    <path d="M 94.05509949 117.74613953 C 95.86033630 117.24676514 98.51109314 116.69409180 100.71319580 116.55197906 C 103.55696869 116.30029297 105.58890533 116.27326202 107.85960388 116.42071533 C 110.75824738 116.75859833 112.53247833 116.89616394 114.95863342 117.74449921 C 117.60135651 118.75687408 119.51018524 119.68502808 121.44638824 120.95523834 C 123.49418640 122.15901947 125.53810883 125.39407349 121.82519531 125.23794556 C 118.94703674 124.58607483 118.26667786 124.35577393 116.77074432 122.85559082 C 113.40670776 121.16352844 113.31661987 121.45431519 109.44779205 120.81267548 C 107.26770782 120.63638306 105.34445953 120.06600952 102.16841888 120.36090088 C 99.97406006 120.47354889 98.35649109 121.13725281 95.36621857 121.74150848 C 92.03370667 121.91828918 91.25421143 118.65776062 94.05509949 117.74613953" stroke-width="1.00000000" fill="rgb(93, 64, 55)" opacity="1.0"/>
    <path d="M 154.03802490 95.53015900 C 152.13345337 95.37055969 149.88143921 95.11494446 146.44920349 95.48031616 C 143.57890320 95.90563202 142.09727478 96.19732666 138.63117981 97.03931427 C 135.84506226 97.82115173 134.45033264 98.74573517 131.40589905 100.59202576 C 129.02235413 101.07476044 125.98104858 100.11294556 127.95396423 97.57625580 C 131.50738525 95.24406433 131.98886108 95.41542053 135.62075806 93.94931030 C 139.48370361 92.72357941 139.43289185 92.66833496 142.39038086 91.91895294 C 146.67562866 91.53902435 146.45384216 91.29348755 150.98118591 91.29026794 C 153.65022278 91.53009033 156.25675964 91.55908203 159.52815247 92.05535126 C 161.48245239 92.29647064 166.14106750 93.67807007 163.70388794 96.36498260 C 159.85997009 97.02735901 158.12719727 96.06211090 154.03802490 95.53015900" stroke-width="1.00000000" fill="rgb(93, 64, 55)" opacity="1.0"/>
    <path d="M 117.07230377 71.69277191 C 115.48889923 71.52756500 114.10517120 71.20980072 110.98858643 71.70970154 C 107.96984100 72.04540253 107.54317474 72.19153595 104.35451508 73.18848419 C 101.44963074 74.57081604 100.69674683 76.06977844 98.29772949 75.58889771 C 96.96739197 73.54425049 98.47675323 72.39694977 101.32181549 71.37073517 C 104.42286682 69.89024353 105.01148987 69.67562866 108.17677307 69.00022125 C 112.15819550 68.58044434 111.41993713 68.50257874 114.42326355 68.57286835 C 118.29402161 68.99525452 117.90267944 68.75500488 121.73459625 70.09632874 C 123.75578308 70.97768402 125.79747772 71.45475006 128.03915405 73.27145386 C 130.71128845 76.08889771 127.58427429 76.25758362 125.37428284 74.86814880 C 121.63905334 73.62609863 121.60822296 73.17456818 117.07230377 71.69277191" stroke-width="1.00000000" fill="rgb(93, 64, 55)" opacity="1.0"/>
    <path d="M 83.97779846 137.91712952 C 81.58982849 136.87777710 78.24462891 134.11079407 75.73786163 130.10859680 C 73.71977234 126.59267426 72.03784943 122.40129852 73.06459808 117.79537964 C 74.06766510 113.10219574 74.54169464 110.93634033 78.40452576 106.31204224 C 80.82871246 103.51425171 83.72434235 101.49191284 89.24634552 100.31696320 C 92.10543060 99.81733704 98.40628052 99.99188995 101.58351898 102.26390076 C 105.75750732 104.80059814 108.10697937 106.54193115 109.62576294 109.32225800 C 112.49709320 114.39862061 113.37315369 117.57505798 112.86321259 121.19483948 C 112.07105255 126.68387604 111.01792145 129.89836121 108.27785492 133.07308960 C 104.28692627 136.67884827 101.82607269 138.29537964 98.16687012 139.63687134 C 91.37310028 140.70034790 90.82862854 140.07250977 83.97779846 137.91712952" stroke-width="1.00000000" fill="rgb(27, 94, 32)" opacity="1.0"/>
    <path d="M 114.32821655 66.81259918 C 110.88815308 65.01974487 106.08125305 61.42121887 102.04529572 55.33740616 C 98.94851685 49.45355225 97.85353088 44.26016235 98.17443848 37.88543701 C 97.95520020 29.84501266 101.80268860 24.46414185 104.79203796 21.10876465 C 111.99177551 14.05457687 114.03442383 13.15040398 121.23999023 10.48630714 C 131.18116760 9.40611649 132.28152466 9.80558968 139.99540710 12.76351929 C 150.04370117 19.38527870 147.39356995 16.64628410 152.81289673 23.76443100 C 156.87380981 31.34533310 158.33178711 35.50980759 158.07072449 41.96612930 C 157.41743469 48.17987061 154.81025696 55.89470673 151.07318115 59.53277588 C 146.11885071 64.61629486 140.98835754 67.40660095 134.88629150 69.49564362 C 126.94456482 71.03515625 125.23751831 70.32483673 114.32821655 66.81259918" stroke-width="1.00000000" fill="rgb(46, 125, 50)" opacity="1.0"/>
    <path d="M 167.21180725 119.79827118 C 162.89608765 120.51343536 156.45445251 119.65873718 151.91021729 117.44893646 C 147.63636780 115.44611359 143.18754578 111.48595428 140.88328552 106.70466614 C 138.68646240 102.46643066 137.26844788 96.57865906 138.46478271 91.24488831 C 138.72767639 86.72135925 141.04278564 81.42223358 145.15199280 77.37305450 C 148.63082886 74.34055328 154.19314575 71.06880951 159.51802063 70.63369751 C 166.03704834 70.18428040 168.99157715 70.29766846 172.93217468 72.70108032 C 179.40560913 76.60190582 181.33235168 77.79330444 184.95951843 83.11503601 C 187.43826294 88.42401886 188.70593262 91.01370239 187.81016541 98.39770508 C 186.64566040 104.07423401 185.57380676 106.76483917 181.15589905 112.30554962 C 177.18698120 116.31989288 173.19757080 118.88800049 167.21180725 119.79827118" stroke-width="1.00000000" fill="rgb(56, 142, 60)" opacity="1.0"/>
    <path d="M 119.73953247 81.52761841 C 117.52792358 86.33953857 117.12521362 87.09188843 112.10858154 92.57597351 C 109.08302307 95.08895111 104.66181183 97.70461273 98.75445557 97.23516083 C 94.25460052 97.08802032 91.27740479 97.44512939 85.82173157 94.30865479 C 80.33744812 90.16136169 79.66946411 87.94153595 77.04452515 83.46929932 C 74.78355408 75.12718964 74.97360992 75.80707550 76.56139374 68.91339874 C 80.77183533 60.86255264 78.85871887 63.28011322 83.22727966 58.39376068 C 87.84387970 54.21416473 91.94262695 52.89665985 95.97412872 52.67675018 C 102.23404694 52.62403870 105.99985504 52.66624069 110.38506317 56.13279724 C 114.31744385 59.67477036 115.64620972 60.79601288 119.16033173 66.84759521 C 121.08966064 71.99019623 120.86605072 74.86634827 119.73953247 81.52761841" stroke-width="1.00000000" fill="rgb(67, 160, 71)" opacity="1.0"/>
    <path d="M 168.26997375 67.92796326 C 166.41567993 70.55868530 162.10282898 73.11145020 158.01272583 74.37744141 C 153.88655090 75.04710388 150.39125061 75.37902832 146.13490295 73.79104614 C 140.90634155 71.44723511 139.32788086 69.98347473 136.85314941 66.65406799 C 133.52061462 61.16829300 133.28320312 58.43026733 132.68247986 54.73352814 C 133.24316406 49.36782837 134.91178894 45.57672882 137.62864685 42.15647888 C 143.35810852 37.47436905 141.57562256 38.21022034 146.97004700 36.30669785 C 152.37307739 34.89380264 155.75486755 34.86557007 159.86849976 35.99085999 C 164.02236938 37.56305313 168.27326965 41.15294266 169.77110291 43.46897888 C 172.33773804 48.19636154 172.89308167 52.01842117 173.01679993 55.81586838 C 172.97875977 59.93090820 171.33473206 64.39593506 168.26997375 67.92796326" stroke-width="1.00000000" fill="rgb(76, 175, 80)" opacity="1.0"/>
    <path d="M 125.39474487 87.07163239 C 125.13972473 88.98747253 123.54195404 91.88735962 121.87992859 93.87835693 C 120.05627441 95.42553711 117.89318085 97.05961609 115.00714111 97.26252747 C 112.67877197 97.54905701 109.83538818 97.54463196 107.49272156 96.20475006 C 104.84010315 95.03974152 103.32837677 93.06098175 101.96469116 90.82682800 C 100.44670105 88.40756989 100.32528687 85.62017059 100.68473816 83.13781738 C 102.42377472 78.70877075 101.65703583 79.89714050 103.70257568 77.07560730 C 105.73007965 74.60144043 108.69707489 72.99723816 110.39440155 72.59847260 C 114.14318848 72.23517609 116.42658997 72.67996216 118.50308228 73.75603485 C 120.93943024 74.79768372 123.04402924 77.28855896 123.93204498 79.08359528 C 125.53652954 81.84864044 125.83528900 84.04164124 125.39474487 87.07163239" stroke-width="1.00000000" fill="rgb(102, 187, 106)" opacity="1.0"/>
    <path d="M 154.24983215 85.06061554 C 152.78877258 86.83662415 149.39828491 88.83626556 146.25982666 89.68527222 C 143.52577209 90.19609833 140.27561951 90.20855713 137.16435242 88.78655243 C 134.50483704 87.36046600 131.83758545 85.92361450 130.34515381 82.89073944 C 128.48760986 79.90756226 127.76876068 77.08668518 128.08993530 73.82844543 C 128.19470215 70.44734192 129.56677246 67.82332611 131.75608826 65.24888611 C 136.03295898 61.84468079 135.11856079 62.12142563 138.43620300 61.16688919 C 143.84645081 59.61571884 144.32482910 59.85026550 148.68235779 61.12086105 C 151.30334473 61.98206329 154.63716125 64.38558960 156.08767700 66.99787140 C 157.73988342 69.85029602 157.89935303 73.19971466 157.93736267 76.12974548 C 157.80801392 79.25471497 156.81123352 82.42399597 154.24983215 85.06061554" stroke-width="1.00000000" fill="rgb(129, 199, 132)" opacity="1.0"/>
    <path d="M 130.76213074 98.64607239 C 131.70129395 99.69965363 132.89337158 102.48223114 133.04826355 104.31755066 C 133.27404785 106.68289948 132.71586609 108.41091156 131.44335938 110.16407013 C 130.29710388 111.80841827 128.93319702 113.55624390 126.93955994 114.18326569 C 124.99313354 115.01088715 122.59342194 115.23236084 120.58619690 114.76477814 C 118.82090759 114.17827606 116.69480896 113.18823242 115.10134888 111.06847382 C 114.16090393 109.12205505 113.41593170 108.24971008 113.26689911 106.37275696 C 112.83372498 103.86568451 113.52589417 101.41195679 114.21728516 100.05123901 C 115.93955231 97.60358429 117.19645691 96.45990753 119.05616760 95.81887817 C 120.81719971 94.91578674 123.83206177 94.85655975 125.10392761 95.22612000 C 128.06401062 95.94721985 128.81202698 96.57694244 130.76213074 98.64607239" stroke-width="1.00000000" fill="rgb(165, 214, 167)" opacity="1.0"/>
    <path d="M 133.46171570 28.98263550 C 134.29943848 28.48852539 135.50225830 28.00285149 137.40190125 27.50338554 C 138.81622314 27.52852631 140.25677490 27.55696487 141.65556335 28.51431847 C 143.32579041 29.49350548 144.10481262 30.45618057 144.69169617 31.61557579 C 145.69166565 33.79895782 145.37414551 34.92265701 145.50256348 36.29506302 C 145.15322876 38.25152588 144.21627808 39.65211868 143.02485657 40.65398407 C 140.50219727 42.04421234 141.25282288 41.76673889 139.30068970 42.20969772 C 137.45408630 42.54781723 135.45101929 42.21513367 134.44398499 41.73116302 C 132.61026001 40.60692596 131.66172791 39.44097900 131.10223389 38.10971832 C 130.54899597 36.71645737 130.45292664 34.97365570 130.64260864 33.39357758 C 130.95405579 31.85830116 131.34628296 30.83322334 133.46171570 28.98263550" stroke-width="1.00000000" fill="rgb(200, 230, 201)" opacity="1.0"/>
    <path d="M 112.45857239 167.92095947 C 112.63442230 168.03231812 114.95177460 169.93600464 115.67000580 171.79539490 C 116.80976105 173.85206604 115.43436432 174.68197632 112.63757324 175.00440979 C 110.50595093 174.99232483 109.41052246 175.31930542 106.65353394 175.22640991 C 104.87585449 175.22636414 102.79156494 175.18928528 100.60535431 175.32872009 C 98.22819519 175.23750305 96.63852692 175.28805542 94.55856323 175.24171448 C 92.43210602 174.41287231 90.95543671 173.76333618 91.94633484 172.21282959 C 92.79759216 170.19151306 93.96370697 169.23805237 95.60995483 167.63832092 C 97.44430542 166.27215576 98.68311310 165.68212891 100.41497040 165.03770447 C 102.96469879 164.36369324 104.54239655 164.45416260 106.29241180 164.80514526 C 109.20678711 165.91781616 109.28594971 165.86300659 112.45857239 167.92095947" stroke-width="1.00000000" fill="rgb(222, 209, 170)" opacity="1.0"/>
    <path d="M 146.99443054 175.17214966 C 144.74157715 175.24119568 143.60311890 175.28916931 141.20263672 175.37329102 C 138.80303955 175.39616394 137.46351624 175.19982910 135.36267090 175.11286926 C 132.51222229 175.27369690 131.94660950 175.21791077 129.17643738 175.32341003 C 127.36111450 175.17436218 124.63272095 175.79112244 124.36550140 174.06242371 C 125.83438873 172.05232239 126.46971893 171.76004028 128.70942688 169.70291138 C 130.52688599 168.34823608 130.80718994 167.68792725 132.67434692 166.92895508 C 135.05606079 166.06866455 136.22802734 165.78192139 138.49113464 165.71760559 C 140.23345947 165.96026611 141.54338074 166.04479980 143.83015442 167.73490906 C 145.12313843 168.74401855 146.39241028 170.00378418 147.95812988 172.04733276 C 149.01052856 173.29736328 150.06712341 175.12910461 146.99443054 175.17214966" stroke-width="1.00000000" fill="rgb(218, 205, 159)" opacity="1.0"/>
    <path d="M 161.42439270 173.24111938 C 162.24098206 172.94868469 162.42370605 172.92684937 163.41908264 172.76541138 C 164.35166931 172.71917725 164.59037781 172.64303589 165.56669617 172.69996643 C 166.43147278 172.82392883 166.70953369 172.83283997 167.84631348 173.10316467 C 168.30567932 173.21868896 169.22479248 173.46450806 169.50390625 174.25584412 C 168.94854736 174.94456482 168.68681335 174.97439575 167.57522583 175.03863525 C 166.56065369 175.17224121 166.65539551 175.15834045 165.74087524 175.24172974 C 164.93202209 175.29672241 164.62396240 175.38040161 163.69282532 175.60150146 C 162.85745239 175.52900696 162.42170715 175.43493652 161.52220154 175.35443115 C 160.53639221 175.06814575 160.20497131 175.17985535 159.63275146 174.58044434 C 159.81578064 173.87187195 160.74011230 173.46337891 161.42439270 173.24111938" stroke-width="1.00000000" fill="rgb(239, 234, 206)" opacity="1.0"/>
    <path d="M 157.08738708 175.18153381 C 156.42861938 175.29913330 156.02420044 175.33857727 155.24798584 175.36570740 C 154.42802429 175.37608337 154.11645508 175.34938049 153.47496033 175.30895996 C 152.43505859 175.19139099 152.41790771 175.20208740 151.43786621 175.10293579 C 150.98529053 175.03207397 150.20933533 175.03135681 149.89671326 174.41421509 C 150.42858887 173.65060425 150.65017700 173.72860718 151.44575500 173.37121582 C 152.38830566 173.04597473 152.16766357 173.06954956 152.96382141 172.87786865 C 153.79612732 172.71266174 154.04693604 172.65390015 154.74070740 172.64254761 C 155.43391418 172.87481689 155.70971680 173.03378296 156.42527771 173.26519775 C 157.19287109 173.73071289 157.32154846 173.64340210 158.10452271 174.16836548 C 158.52734375 174.80091858 157.63235474 175.17053223 157.08738708 175.18153381" stroke-width="1.00000000" fill="rgb(199, 184, 157)" opacity="1.0"/>
  </g>
</svg>
