<svg xmlns="http://www.w3.org/2000/svg" viewBox="0 0 256 256" height="256.0px" width="256.0px">
<path id="" fill="#D2691E" fill-opacity="1.0" stroke="#000000" stroke-width="0.0" stroke-opacity="1.0" stroke-linecap="round" stroke-linejoin="round"  filling="0" d="M128.000 200.000 C119.666 175.000 111.334 150.000 103.000 125.000 C119.666 125.000 136.333 125.000 153.000 125.000 C144.667 150.000 136.333 175.000 128.000 200.000"></path>
<path id="" fill="#FFB6C1" fill-opacity="1.0" stroke="#000000" stroke-width="0.0" stroke-opacity="1.0" stroke-linecap="round" stroke-linejoin="round"  filling="0" d="M158.000 110.000 C158.000 117.953 154.837 125.590 149.213 131.213 C143.589 136.837 135.954 140.000 128.000 140.000 C120.047 140.000 112.410 136.837 106.787 131.213 C101.163 125.590 98.000 117.953 98.000 110.000 C98.000 102.047 101.163 94.410 106.787 88.787 C112.410 83.163 120.047 80.000 128.000 80.000 C135.954 80.000 143.589 83.163 149.213 88.787 C154.837 94.410 158.000 102.047 158.000 110.000"></path>
<path id="" fill="#8B4513" fill-opacity="1.0" stroke="#000000" stroke-width="0.0" stroke-opacity="1.0" stroke-linecap="round" stroke-linejoin="round"  filling="0" d="M155.500 75.000 C155.500 82.290 152.600 89.290 147.445 94.446 C142.290 99.601 135.290 102.500 128.000 102.500 C120.710 102.500 113.710 99.601 108.554 94.446 C103.399 89.290 100.500 82.290 100.500 75.000 C100.500 67.710 103.399 60.710 108.554 55.555 C113.710 50.400 120.710 47.500 128.000 47.500 C135.290 47.500 142.290 50.400 147.445 55.555 C152.600 60.710 155.500 67.710 155.500 75.000"></path>
<path id="" fill="#f8edd5" fill-opacity="1.0" stroke="#000000" stroke-width="0.0" stroke-opacity="1.0" stroke-linecap="round" stroke-linejoin="round"  filling="0" d="M153.000 45.000 C153.000 51.628 150.365 57.991 145.678 62.678 C140.991 67.365 134.628 70.000 128.000 70.000 C121.372 70.000 115.009 67.365 110.323 62.678 C105.635 57.991 103.000 51.628 103.000 45.000 C103.000 38.372 105.635 32.009 110.323 27.323 C115.009 22.635 121.372 20.000 128.000 20.000 C134.628 20.000 140.991 22.635 145.678 27.323 C150.365 32.009 153.000 38.372 153.000 45.000"></path>
<path id="" fill="#f7f0d8" fill-opacity="1.0" stroke="#000000" stroke-width="0.0" stroke-opacity="1.0" stroke-linecap="round" stroke-linejoin="round"  filling="0" d="M149.750 128.000 C149.583 128.833 149.417 129.667 149.250 130.500 C148.667 131.250 148.083 132.000 147.500 132.750 C147.333 132.750 147.167 132.750 147.000 132.750 C146.167 133.250 145.333 133.750 144.500 134.250 C144.167 134.250 143.833 134.250 143.500 134.250 C143.333 134.417 143.167 134.583 143.000 134.750 C142.833 134.750 142.667 134.750 142.500 134.750 C142.000 135.250 141.500 135.750 141.000 136.250 C140.667 136.250 140.333 136.250 140.000 136.250 C139.833 136.417 139.667 136.583 139.500 136.750 C138.500 136.750 137.500 136.750 136.500 136.750 C136.333 136.917 136.167 137.083 136.000 137.250 C135.000 137.250 134.000 137.250 133.000 137.250 C132.833 137.417 132.667 137.583 132.500 137.750 C132.167 137.750 131.833 137.750 131.500 137.750 C131.333 137.917 131.167 138.083 131.000 138.250 C130.333 138.250 129.667 138.250 129.000 138.250 C128.833 138.083 128.667 137.917 128.500 137.750 C126.500 137.750 124.500 137.750 122.500 137.750 C122.334 137.583 122.166 137.417 122.000 137.250 C120.834 137.250 119.666 137.250 118.500 137.250 C118.334 137.083 118.166 136.917 118.000 136.750 C117.666 136.750 117.334 136.750 117.000 136.750 C116.166 136.250 115.334 135.750 114.500 135.250 C113.834 135.250 113.166 135.250 112.500 135.250 C112.000 134.750 111.500 134.250 111.000 133.750 C110.834 133.750 110.666 133.750 110.500 133.750 C110.334 133.583 110.166 133.417 110.000 133.250 C109.666 133.250 109.334 133.250 109.000 133.250 C108.666 132.917 108.334 132.583 108.000 132.250 C107.834 132.250 107.666 132.250 107.500 132.250 C106.916 131.667 106.334 131.083 105.750 130.500 C105.750 130.167 105.750 129.833 105.750 129.500 C105.584 129.333 105.416 129.167 105.250 129.000 C105.334 128.750 105.416 128.500 105.500 128.250 C106.000 128.250 106.500 128.250 107.000 128.250 C107.166 128.417 107.334 128.583 107.500 128.750 C108.666 129.250 109.834 129.750 111.000 130.250 C111.334 130.583 111.666 130.917 112.000 131.250 C112.500 131.250 113.000 131.250 113.500 131.250 C114.334 131.750 115.166 132.250 116.000 132.750 C116.500 132.750 117.000 132.750 117.500 132.750 C118.000 133.083 118.500 133.417 119.000 133.750 C119.500 133.750 120.000 133.750 120.500 133.750 C120.666 133.583 120.834 133.417 121.000 133.250 C121.334 133.250 121.666 133.250 122.000 133.250 C122.166 133.417 122.334 133.583 122.500 133.750 C122.834 133.750 123.166 133.750 123.500 133.750 C123.666 133.917 123.834 134.083 124.000 134.250 C124.334 134.250 124.666 134.250 125.000 134.250 C125.166 134.083 125.334 133.917 125.500 133.750 C126.500 133.750 127.500 133.750 128.500 133.750 C128.667 133.917 128.833 134.083 129.000 134.250 C129.500 134.250 130.000 134.250 130.500 134.250 C130.667 134.083 130.833 133.917 131.000 133.750 C131.333 133.750 131.667 133.750 132.000 133.750 C132.167 133.583 132.333 133.417 132.500 133.250 C132.667 133.250 132.833 133.250 133.000 133.250 C133.167 133.417 133.333 133.583 133.500 133.750 C134.333 133.750 135.167 133.750 136.000 133.750 C136.167 133.583 136.333 133.417 136.500 133.250 C136.833 133.250 137.167 133.250 137.500 133.250 C137.667 133.083 137.833 132.917 138.000 132.750 C138.833 132.583 139.667 132.417 140.500 132.250 C141.333 131.750 142.167 131.250 143.000 130.750 C143.667 130.750 144.333 130.750 145.000 130.750 C146.000 129.917 147.000 129.083 148.000 128.250 C148.333 128.250 148.667 128.250 149.000 128.250 C149.167 128.083 149.333 127.916 149.500 127.750 C149.583 127.834 149.667 127.916 149.750 128.000"></path>
</svg>