<?xml version="1.0" ?>
<svg xmlns="http://www.w3.org/2000/svg" version="1.1" width="256" height="256" viewBox="0 0 256 256">
  <defs/>
  <g>
    <path d="M 139.81555176 164.79606628 C 138.03898621 171.70733643 135.84776306 175.67106628 134.03115845 183.60418701 C 130.36682129 191.70108032 131.19033813 197.44911194 127.55494690 199.04985046 C 125.44635010 193.23753357 123.43659973 186.33964539 120.66183472 179.38862610 C 118.83651733 172.96347046 116.97411346 166.99301147 114.39615631 159.37370300 C 111.68997955 150.64471436 110.59558105 147.38244629 108.09432220 139.24604797 C 106.46464539 130.55030823 102.87815857 127.99485016 109.86518860 125.06459808 C 117.37580872 124.33555603 122.73279572 122.74411011 130.60984802 121.86541748 C 138.71110535 121.20964813 144.65026855 119.50599670 149.45835876 123.32659912 C 151.91395569 129.78149414 147.97000122 135.87557983 146.31806946 143.41423035 C 143.85087585 150.83717346 142.38232422 157.51762390 139.81555176 164.79606628" stroke-width="0.45273864" fill="rgb(184, 117, 61)" opacity="1.0" stroke="rgb(70, 23, 0)" stroke-opacity="0.3214046" stroke-linecap="round" stroke-linejoin="round"/>
    <path d="M 147.60295105 130.65985107 C 141.84580994 134.59356689 136.23687744 136.10806274 131.10517883 136.82035828 C 124.66385651 137.42410278 117.89948273 136.83648682 113.25948334 134.14093018 C 107.38430023 131.17541504 102.92887115 127.08857727 100.31089020 121.29360199 C 97.98310852 116.60810852 96.86688995 111.02166748 98.77006531 103.24125671 C 100.35397339 98.55030060 102.76695251 93.12850952 108.62875366 88.33866119 C 114.09623718 84.99970245 117.75689697 83.26650238 123.30767822 83.59579468 C 129.41311646 83.49082184 134.23603821 83.96736908 141.73477173 85.82601166 C 146.31546021 87.54247284 150.94615173 90.00268555 154.53334045 97.09963226 C 156.99504089 101.83877563 157.75648499 107.44459534 157.09454346 115.17099762 C 155.80987549 121.97071075 152.59640503 126.97055054 147.60295105 130.65985107" stroke-width="0.90832430" fill="rgb(249, 206, 152)" opacity="1.0" stroke="rgb(205, 182, 110)" stroke-opacity="0.1523766" stroke-linecap="round" stroke-linejoin="round"/>
    <path d="M 153.07086182 83.25741577 C 152.16009521 86.92185974 149.56788635 90.86930847 144.92098999 94.92919159 C 140.81312561 98.04490662 135.30259705 101.22594452 129.84750366 101.09307861 C 124.84555817 101.23140717 120.15398407 101.13714600 114.08515930 97.71255493 C 110.49999237 95.36421204 106.35633087 92.39370728 103.41497040 85.43448639 C 102.16470337 81.04163361 101.35128784 76.26871490 103.08428955 69.51621246 C 104.98728180 63.69154739 107.22850037 59.76087570 109.82475281 58.35192871 C 114.58459473 54.42407227 119.39482880 51.78848267 125.31867218 50.96553421 C 131.59295654 50.19150543 137.25317383 50.72966003 141.26062012 53.06045532 C 145.23521423 54.96694946 148.50921631 59.94916534 151.64572144 65.40548706 C 153.54684448 70.14229584 154.61982727 73.68851471 153.07086182 83.25741577" stroke-width="1.50954247" fill="rgb(195, 88, 100)" opacity="1.0" stroke="rgb(150, 69, 80)" stroke-opacity="1.0" stroke-linecap="round" stroke-linejoin="round"/>
    <path d="M 127.21029663 69.73938751 C 122.35384369 70.15187073 116.94700623 68.04672241 113.32768250 65.86219025 C 109.31572723 62.77021790 106.63422394 58.84775543 105.46420288 53.72673035 C 104.62672424 49.51709366 103.58897400 44.93869019 105.22009277 39.26726151 C 106.45586395 33.62908936 109.43246460 29.80279541 113.40142822 26.43481636 C 116.72358704 22.64037323 121.37892151 21.43588066 127.42555237 21.08176422 C 135.85250854 21.91224670 134.28753662 21.38142204 139.31208801 23.89942741 C 144.20437622 27.06837273 147.13319397 31.19765472 149.67353821 36.71353912 C 151.91377258 42.46936035 152.16271973 47.82541656 150.94667053 51.94665527 C 149.66442871 57.35391998 146.41276550 61.40454865 142.49577332 64.35327148 C 138.80787659 67.54605865 131.70639038 69.69390869 127.21029663 69.73938751" stroke-width="0.92597455" fill="rgb(253, 237, 204)" opacity="1.0" stroke="rgb(198, 176, 96)" stroke-opacity="0.12654023" stroke-linecap="round" stroke-linejoin="round"/>
    <path d="M 145.93304443 133.33934021 C 143.89276123 133.84156799 141.19548035 135.50805664 137.41395569 136.51467896 C 133.92288208 137.22563171 130.72892761 137.61860657 127.35079956 137.55287170 C 123.32910156 137.33630371 120.73440552 137.31164551 117.11557770 136.22875977 C 112.66189575 134.80209351 110.36756134 133.46017456 108.04786682 132.11880493 C 104.59911346 128.96461487 105.73460388 128.74363708 109.45905304 131.09733582 C 114.51845551 132.56533813 114.11096191 133.18133545 116.96874237 134.23002625 C 120.50667572 135.62469482 122.94355011 134.86552429 125.79236603 135.12960815 C 130.06947327 135.62565613 131.80151367 135.77508545 135.30711365 134.89179993 C 139.80554199 134.00390625 142.29071045 132.87181091 144.76248169 131.76147461 C 149.02807617 129.22822571 151.33602905 129.97152710 145.93304443 133.33934021" stroke-width="1.44318318" fill="rgb(244, 243, 219)" opacity="1.0" stroke="rgb(137, 109, 101)" stroke-opacity="0.42685702" stroke-linecap="round" stroke-linejoin="round"/>
  </g>
</svg>
