<?xml version="1.0" ?>
<svg xmlns="http://www.w3.org/2000/svg" version="1.1" width="256" height="256" viewBox="0 0 256 256">
  <defs/>
  <g>
    <path d="M 139.04368591 166.76985168 C 136.66473389 173.93594360 135.79821777 176.49089050 132.70462036 185.80447388 C 130.17015076 192.13433838 129.42961121 202.78543091 126.08120728 195.28306580 C 124.34191132 188.33563232 122.21791840 182.18440247 119.43866730 175.01470947 C 117.45621490 168.37396240 115.54471588 161.77957153 113.20811462 155.26708984 C 110.40449524 145.88252258 109.36139679 145.90965271 105.68561554 135.21652222 C 104.90541840 127.83583069 103.74101257 123.85339355 112.66345978 124.77522278 C 120.05468750 125.63053894 125.67652130 124.75796509 133.47235107 124.89514923 C 141.74285889 125.60013580 147.56796265 123.61370850 152.24557495 126.69715118 C 151.03894043 133.36892700 147.80122375 138.23143005 146.16961670 146.01829529 C 142.93586731 154.06231689 142.52383423 157.28320312 139.04368591 166.76985168" stroke-width="1.00000000" fill="rgb(210, 105, 30)" opacity="1.0"/>
    <path d="M 141.48326111 137.17297363 C 136.81530762 139.53671265 129.20484924 140.53039551 122.89737701 139.64733887 C 117.70954132 138.64683533 110.76867676 135.83467102 106.65856171 131.25218201 C 102.83471680 127.00045013 99.02492523 120.84474945 98.34686279 113.81912994 C 97.42041016 108.73256683 97.84403992 102.83915710 101.93706512 95.12963867 C 103.67627716 92.11315918 108.88418579 85.96580505 115.60664368 83.09542847 C 122.54675293 80.46579742 126.26104736 79.52996063 131.76245117 80.79723358 C 140.43972778 83.01995087 143.15930176 83.72113037 149.04872131 88.73024750 C 154.03335571 94.39144135 156.02000427 96.05403137 157.70610046 105.15306854 C 158.19319153 112.99987793 158.24682617 115.06308746 154.97590637 123.59656525 C 152.23213196 128.86894226 147.87892151 134.45594788 141.48326111 137.17297363" stroke-width="1.00000000" fill="rgb(255, 182, 193)" opacity="1.0"/>
    <path d="M 153.27917480 86.27190399 C 151.09692383 90.28295898 149.19390869 93.29071045 142.77070618 98.22679138 C 138.62196350 100.91931915 132.76477051 103.12921143 126.23157501 102.47248840 C 120.22207642 101.42729950 116.86705780 101.07453918 110.33293152 96.03004456 C 106.12030029 92.05046082 103.58063507 89.58905029 101.07945251 81.43200684 C 100.32274628 77.21662903 100.05838013 71.13600159 102.90882874 64.39800262 C 105.91456604 58.29147339 107.78018188 55.23156738 112.46890259 52.76986694 C 119.80889130 48.87153625 121.96574402 47.51375198 129.45256042 47.44293213 C 136.06803894 48.49738312 138.23893738 48.22123718 145.38821411 53.62007904 C 150.53463745 58.59312439 151.29754639 60.11846924 155.30299377 67.88042450 C 156.60983276 74.02454376 155.91574097 77.76517487 153.27917480 86.27190399" stroke-width="1.00000000" fill="rgb(139, 69, 19)" opacity="1.0"/>
    <path d="M 126.67796326 69.87762451 C 122.60240936 70.15000916 116.82165527 67.87854004 112.37539673 64.54208374 C 108.47306061 61.20479584 105.87684631 57.55007935 103.84478760 51.90773010 C 103.21574402 45.91647720 102.06925201 43.42259598 104.59802246 36.41682434 C 106.93458557 31.25279045 108.06805420 28.86591339 114.39946747 23.79936981 C 119.28681946 21.12434769 121.78256989 20.41622543 129.14208984 20.17984772 C 138.83174133 22.08074188 136.20739746 20.71401978 142.56741333 24.73609161 C 147.90988159 29.41632080 149.95799255 32.30097961 152.11038208 37.57825470 C 153.66273499 42.58632660 153.81852722 49.64090729 152.06152344 53.22318268 C 149.44941711 58.85538483 146.44642639 62.14392853 142.24821472 65.71347809 C 138.56655884 68.54950714 132.14277649 70.46788788 126.67796326 69.87762451" stroke-width="1.00000000" fill="rgb(248, 237, 213)" opacity="1.0"/>
    <path d="M 145.50170898 133.65284729 C 142.61553955 135.11280823 140.06990051 136.41546631 136.88223267 137.17277527 C 132.25570679 137.80711365 130.18519592 138.08824158 126.72086334 137.91889954 C 121.88941193 137.70555115 121.55028534 137.65290833 116.42679596 136.34237671 C 113.47625732 135.21432495 111.25429535 134.51573181 107.17796326 131.98214722 C 104.04254150 128.85990906 106.20617676 127.90077209 111.00279999 130.28637695 C 115.10749054 131.84425354 115.21982574 132.13232422 118.52877808 133.09211731 C 123.63782501 133.88533020 125.33366394 133.70211792 128.44657898 133.99455261 C 132.35096741 133.65089417 134.89575195 133.66868591 138.28033447 132.99986267 C 142.04682922 131.76443481 144.02998352 130.04417419 147.61314392 128.59532166 C 152.35647583 128.26184082 148.14555359 131.99606323 145.50170898 133.65284729" stroke-width="1.00000000" fill="rgb(247, 240, 216)" opacity="1.0"/>
  </g>
</svg>
