<?xml version="1.0" ?>
<svg xmlns="http://www.w3.org/2000/svg" version="1.1" width="256" height="256" viewBox="0 0 256 256">
  <defs/>
  <g>
    <path d="M 139.34613037 166.38871765 C 137.59875488 173.06771851 135.47491455 177.74281311 133.46603394 185.16348267 C 129.98905945 194.07748413 129.98574829 202.10208130 126.46527863 196.75357056 C 124.56197357 189.68218994 122.56877899 183.94216919 119.81291199 176.58792114 C 117.86383820 170.22204590 116.05271149 164.37138367 113.43489838 156.15832520 C 110.84193420 147.51301575 109.53068542 144.55946350 107.18128967 136.22215271 C 105.88278961 127.15475464 102.14187622 124.16744232 110.23937225 123.12334442 C 118.31010437 122.95991516 123.97126770 122.22732544 131.85299683 122.04556274 C 139.89978027 121.92398071 145.78790283 120.75598907 150.28283691 124.72171021 C 151.07032776 131.73783875 147.55055237 137.15039062 145.97921753 144.79988098 C 143.43721008 152.34851074 142.00556946 158.92597961 139.34613037 166.38871765" stroke-width="0.49052960" fill="rgb(183, 118, 65)" opacity="1.0" stroke="rgb(72, 32, 0)" stroke-opacity="0.28226003" stroke-linecap="round" stroke-linejoin="round"/>
    <path d="M 143.26138306 133.29019165 C 137.04808044 136.26110840 130.68182373 137.19590759 125.76486969 136.91777039 C 118.96826172 136.59918213 112.66089630 134.96601868 108.62806702 131.43028259 C 103.50830078 127.24977112 99.84170532 122.38695526 98.54376984 116.01285553 C 97.19834900 111.11330414 97.35006714 105.36928558 100.70092010 98.06011963 C 103.13539124 93.85968781 106.51907349 88.85439301 113.16673279 85.01647949 C 119.07510376 82.53055573 122.99723816 81.17268372 128.47169495 82.24984741 C 134.61500549 83.04995728 139.19145203 83.93049622 146.24357605 87.88093567 C 150.28956604 90.75450897 154.29261780 94.18656921 156.44345093 102.01643372 C 157.92658997 107.13607025 157.84684753 112.68622589 155.65379333 120.13804626 C 153.27577209 126.44969940 149.12770081 130.44438171 143.26138306 133.29019165" stroke-width="1.18167901" fill="rgb(246, 205, 152)" opacity="1.0" stroke="rgb(203, 172, 102)" stroke-opacity="0.10657388" stroke-linecap="round" stroke-linejoin="round"/>
    <path d="M 152.83909607 84.06230164 C 151.94200134 87.30400085 149.17892456 91.25803375 144.34002686 95.45562744 C 140.17962646 98.41455841 134.82247925 101.30467987 129.01768494 101.20394897 C 123.72489166 101.02827454 119.68964386 100.95854950 113.57364655 97.39086914 C 109.71698761 94.93699646 105.99298859 91.93082428 103.29412079 84.83961487 C 102.21682739 80.56661987 101.36177063 75.59201050 103.30287933 68.80370331 C 105.37007141 63.29204559 107.25997925 59.32081604 110.62789917 57.80592728 C 116.44196320 54.11408234 120.49744415 51.96754456 125.99330139 50.86460876 C 130.78205872 50.04450226 136.87907410 49.58359909 142.02604675 53.64749908 C 145.29258728 55.76991653 148.46766663 59.85544968 151.86372375 65.95352173 C 153.40983582 70.90518188 154.69635010 74.50600433 152.83909607 84.06230164" stroke-width="1.56899071" fill="rgb(193, 86, 97)" opacity="1.0" stroke="rgb(151, 67, 79)" stroke-opacity="1.0" stroke-linecap="round" stroke-linejoin="round"/>
    <path d="M 127.18498993 69.66938782 C 122.29904175 70.11042786 116.89852142 67.91493225 113.33283234 65.85970306 C 109.36119843 62.68917084 106.61441803 58.80763626 105.47071838 53.82633591 C 104.57158661 49.52574921 103.57269287 45.16373444 105.24019623 39.41775131 C 106.53566742 33.65489960 109.25612640 29.91583252 113.21731567 26.61771202 C 116.70927429 22.70050430 121.37807465 21.42616463 127.35446930 21.06756592 C 135.86798096 21.84602547 134.15072632 21.34570503 139.25923157 23.87435532 C 144.24226379 27.12252808 147.13351440 31.22618103 149.64498901 36.72332382 C 151.93353271 42.53891373 152.07380676 47.86598206 150.89910889 51.91449356 C 149.52349854 57.47448730 146.16996765 61.53650665 142.37164307 64.36563110 C 138.48228455 67.63437653 131.72303772 69.65098572 127.18498993 69.66938782" stroke-width="0.91899979" fill="rgb(251, 239, 203)" opacity="1.0" stroke="rgb(196, 173, 99)" stroke-opacity="0.11928764" stroke-linecap="round" stroke-linejoin="round"/>
    <path d="M 144.86041260 133.76385498 C 143.06991577 134.16311646 140.39027405 135.78863525 136.69458008 136.67430115 C 133.55731201 137.30944824 130.31663513 137.58549500 126.87533569 137.55302429 C 123.19580841 137.37760925 120.57997894 137.39183044 117.11203003 136.26689148 C 113.21617889 134.95101929 111.01040649 133.58827209 107.91905975 132.18705750 C 104.46970367 128.46124268 106.55650330 128.88333130 110.32533264 131.35426331 C 115.14870453 133.04536438 114.54344940 133.28460693 117.63881683 134.42457581 C 121.40082550 135.57490540 123.81592560 134.98635864 126.65038300 135.27940369 C 130.25778198 135.50996399 132.40798950 135.67886353 135.71264648 134.99095154 C 139.72480774 133.99728394 142.18696594 132.56256104 145.25325012 131.51203918 C 150.18417358 128.74923706 150.22811890 131.14422607 144.86041260 133.76385498" stroke-width="1.39663911" fill="rgb(242, 240, 220)" opacity="1.0" stroke="rgb(138, 114, 104)" stroke-opacity="0.39680406" stroke-linecap="round" stroke-linejoin="round"/>
  </g>
</svg>
