<?xml version="1.0" ?>
<svg xmlns="http://www.w3.org/2000/svg" version="1.1" width="256" height="256" viewBox="0 0 256 256">
  <defs/>
  <g>
    <path d="M 139.62261963 165.69358826 C 137.95159912 172.39012146 135.66156006 177.19804382 133.84422302 184.60900879 C 130.05851746 193.52947998 130.67063904 200.35729980 126.96972656 198.10211182 C 124.96673584 191.56626892 123.11149597 185.52423096 120.22983551 178.18586731 C 118.33914185 171.53929138 116.49575043 165.58349609 113.86128998 157.62472534 C 111.24858856 148.97676086 110.04811859 146.00817871 107.59825897 137.58248901 C 106.16514587 128.78317261 102.45199585 126.02822876 110.03314209 123.73186493 C 117.99116516 123.03876495 123.52500916 121.97702789 131.44685364 121.34719849 C 139.45556641 120.93955994 145.57505798 119.67651367 149.98895264 123.96273804 C 151.41503906 130.98513794 147.76345825 136.40861511 146.17630005 144.16999817 C 143.65846252 151.71672058 142.30140686 158.05366516 139.62261963 165.69358826" stroke-width="0.53377509" fill="rgb(184, 120, 65)" opacity="1.0" stroke="rgb(75, 33, 0)" stroke-opacity="0.21918903" stroke-linecap="round" stroke-linejoin="round"/>
    <path d="M 144.66398621 132.55175781 C 138.35232544 135.83399963 132.71823120 136.77655029 127.62162781 136.95170593 C 120.82070160 136.90423584 114.34337616 135.75271606 110.16635132 132.49459839 C 104.79646301 128.77760315 100.86341858 124.06372070 99.07357788 117.87159729 C 97.40126038 112.99276733 96.98136902 107.36651611 99.82471466 99.82857513 C 102.00711823 95.35725403 105.10953522 90.22026062 111.48828125 86.22802734 C 117.35250854 83.54844666 121.23803711 82.20558929 126.65539551 83.05831909 C 132.77163696 83.61396790 137.47195435 84.52857208 144.83389282 87.35340881 C 149.13446045 89.73416138 153.21572876 92.72354126 155.88717651 100.31814575 C 157.75918579 105.33027649 157.93829346 111.05965424 156.25091553 118.57894135 C 154.19575500 125.12088776 150.14810181 129.51753235 144.66398621 132.55175781" stroke-width="0.98042470" fill="rgb(249, 207, 154)" opacity="1.0" stroke="rgb(204, 181, 108)" stroke-opacity="0.110113464" stroke-linecap="round" stroke-linejoin="round"/>
    <path d="M 153.00996399 83.61235809 C 152.16043091 86.96661377 149.43928528 91.07305145 144.72601318 95.13907623 C 140.61312866 98.17933655 135.17579651 101.20237732 129.45089722 101.12088776 C 124.30050659 101.07434082 120.10928345 101.06858826 113.84593201 97.56344604 C 110.17099762 95.16349030 106.26225281 92.28408051 103.36416626 85.22652435 C 102.16196442 80.86705017 101.31416321 76.00428772 103.14279175 69.31529236 C 105.12664795 63.44995117 107.12527466 59.54156494 110.13796234 58.11913681 C 115.42520905 54.30054474 119.90283966 52.12280655 125.69364166 51.06606293 C 130.86747742 50.18689728 137.18887329 50.17250443 142.00088501 53.50013351 C 145.11308289 55.19415283 148.38993835 59.61860275 151.77496338 65.55268860 C 153.50823975 70.47486877 154.71722412 74.04458618 153.00996399 83.61235809" stroke-width="1.50084949" fill="rgb(193, 86, 100)" opacity="1.0" stroke="rgb(148, 66, 79)" stroke-opacity="1.0" stroke-linecap="round" stroke-linejoin="round"/>
    <path d="M 127.21040344 69.69709778 C 122.34342194 70.11578369 116.87414551 67.96430969 113.30332184 65.86587524 C 109.18309784 62.72402191 106.59867859 58.84771729 105.47111511 53.76283646 C 104.65560150 49.50405884 103.59474182 45.05784988 105.24935913 39.32894135 C 106.53475952 33.62316895 109.37771606 29.89249992 113.35272217 26.51350021 C 116.73596954 22.66297722 121.41687012 21.42977905 127.43788910 21.07226181 C 135.90397644 21.88422203 134.27062988 21.36323547 139.32656860 23.89869690 C 144.23390198 27.12404442 147.14004517 31.26234245 149.66307068 36.75363541 C 151.92478943 42.54237366 152.13153076 47.89016724 150.91693115 51.95612335 C 149.55944824 57.47979355 146.22692871 61.54523468 142.41627502 64.40296173 C 138.56187439 67.67195129 131.74537659 69.66375732 127.21040344 69.69709778" stroke-width="0.96094602" fill="rgb(250, 235, 201)" opacity="1.0" stroke="rgb(191, 168, 88)" stroke-opacity="0.13414852" stroke-linecap="round" stroke-linejoin="round"/>
    <path d="M 145.74316406 133.41641235 C 143.77099609 133.93293762 141.21777344 135.53262329 137.30480957 136.57980347 C 133.92239380 137.27178955 130.69409180 137.60305786 127.26494598 137.57745361 C 123.26855469 137.35290527 120.66712952 137.32763672 117.15981293 136.27868652 C 112.74358368 134.84907532 110.62760162 133.59597778 108.02925110 132.17892456 C 104.66523743 128.91073608 105.76678467 128.71244812 109.62773132 131.11399841 C 114.65370178 132.64448547 114.17031097 133.13070679 117.09513092 134.27177429 C 120.67041779 135.60797119 123.21248627 134.89520264 125.96582031 135.19084167 C 130.15608215 135.63108826 132.05863953 135.73007202 135.47169495 134.90898132 C 139.78089905 134.06030273 142.24409485 132.77241516 145.01480103 131.68185425 C 149.17030334 129.17521667 151.15046692 130.26783752 145.74316406 133.41641235" stroke-width="1.43664968" fill="rgb(247, 238, 215)" opacity="1.0" stroke="rgb(131, 108, 102)" stroke-opacity="0.36085424" stroke-linecap="round" stroke-linejoin="round"/>
  </g>
</svg>
