<?xml version="1.0" ?>
<svg xmlns="http://www.w3.org/2000/svg" version="1.1" width="256" height="256" viewBox="0 0 256 256">
  <defs/>
  <g>
    <path d="M 138.72909546 167.84190369 C 137.09875488 174.07983398 135.14860535 178.55187988 132.97380066 186.33050537 C 129.79371643 195.36767578 129.28283691 203.08522034 126.08071136 195.71583557 C 124.40750885 188.72720337 122.19347382 182.97125244 119.42673492 175.62004089 C 117.55861664 169.32205200 115.83426666 163.23023987 113.33358765 155.69955444 C 110.83509827 147.06588745 109.46215820 144.39047241 107.07455444 136.01484680 C 105.94395447 127.56257629 102.12463379 123.38352966 110.93497467 124.28999329 C 118.30077362 125.23828125 124.19502258 124.17039490 132.15182495 124.18372345 C 140.25006104 124.08334351 145.97520447 122.59243774 150.23901367 126.76907349 C 150.07444763 133.96844482 147.02635193 138.70738220 145.54408264 146.18473816 C 142.80598450 153.89321899 142.07437134 159.04273987 138.72909546 167.84190369" stroke-width="0.51537102" fill="rgb(181, 116, 65)" opacity="1.0" stroke="rgb(60, 6, 0)" stroke-opacity="0.30547783" stroke-linecap="round" stroke-linejoin="round"/>
    <path d="M 141.91845703 133.51794434 C 136.04444885 135.93116760 129.19190979 136.68386841 123.73379517 136.40028381 C 117.65293884 135.68878174 111.18766785 134.22994995 107.39518738 130.40299988 C 102.78198242 126.06478882 99.60194397 120.77821350 98.77191162 114.34660339 C 97.62251282 109.20684052 97.99521637 103.39540863 101.64935303 96.42650604 C 104.30496216 92.43807983 107.74552155 87.87022400 115.09567261 84.05956268 C 120.68788147 81.97105408 124.50645447 80.49094391 130.16856384 81.78806305 C 136.82450867 82.95101929 140.55772400 83.90322876 147.29302979 88.62767029 C 151.07534790 91.89252472 154.89945984 95.76911163 156.62896729 103.75561523 C 157.82128906 108.63607788 157.71485901 113.96064758 155.10073853 121.33188629 C 152.58706665 127.36518860 148.06591797 131.14433289 141.91845703 133.51794434" stroke-width="0.92267638" fill="rgb(248, 207, 152)" opacity="1.0" stroke="rgb(182, 138, 52)" stroke-opacity="0.15369338" stroke-linecap="round" stroke-linejoin="round"/>
    <path d="M 153.92485046 85.49879456 C 152.98852539 88.48047638 149.92042542 92.55065918 144.51849365 97.15625000 C 139.80264282 100.25107574 134.41760254 102.96640015 128.26028442 102.74216461 C 122.83263397 102.40649414 118.14736176 101.97311401 112.03142548 98.14441681 C 107.85466766 95.43745422 104.18647003 91.99433899 101.68656921 84.44521332 C 100.70393372 80.39287567 99.91609192 74.58754730 102.29214478 67.14659882 C 104.66528320 62.05681610 106.14214325 58.43849945 110.85357666 55.62432861 C 117.33798981 51.62168884 119.90108490 50.10092163 127.14169312 48.80961609 C 130.75321960 48.65777588 137.44686890 48.35897827 143.69903564 53.06590271 C 146.96150208 55.15681076 150.12013245 59.68521118 153.54074097 66.31930542 C 154.83570862 71.73973083 156.43511963 75.56761932 153.92485046 85.49879456" stroke-width="0.32683924" fill="rgb(192, 86, 96)" opacity="1.0" stroke="rgb(0, 0, 0)" stroke-opacity="0.25102633" stroke-linecap="round" stroke-linejoin="round"/>
    <path d="M 126.42518616 69.80539703 C 122.05354309 70.26364136 116.47987366 68.09145355 112.36563873 65.17337036 C 108.45992279 61.80446625 106.08499146 57.94572449 104.46105957 52.41119003 C 104.04760742 47.71927643 102.88870239 43.80506516 105.32133484 37.85342789 C 106.71633911 32.95678711 109.54725647 29.01057434 114.54856873 24.79311562 C 119.53788757 21.09029388 124.62654114 20.26009941 128.77485657 20.26012802 C 137.70164490 22.06956482 135.52433777 21.00330353 141.07270813 24.86219788 C 145.86221313 28.97147369 148.64152527 33.09225845 150.65451050 37.87370300 C 152.33517456 42.94910812 152.86477661 49.13829041 151.09617615 53.08402634 C 148.88504028 58.47573853 145.47102356 62.02961731 141.68377686 65.04032898 C 137.80339050 67.92156982 131.28274536 69.88244629 126.42518616 69.80539703" stroke-width="0.94973958" fill="rgb(253, 240, 205)" opacity="1.0" stroke="rgb(222, 212, 161)" stroke-opacity="0.055411298" stroke-linecap="round" stroke-linejoin="round"/>
    <path d="M 144.88775635 133.94798279 C 141.86172485 135.09942627 139.82180786 135.82762146 136.52345276 136.78758240 C 132.05383301 137.37145996 130.94235229 137.54203796 126.66394043 137.60421753 C 123.73754120 137.71531677 121.42979431 137.39714050 117.29512024 136.23072815 C 114.41768646 135.24029541 111.51264954 134.29902649 108.00863647 132.41075134 C 104.94134521 128.80519104 107.72049713 129.37860107 111.65553284 131.74949646 C 115.93680573 133.49165344 115.75122070 133.36312866 118.73852539 134.47346497 C 123.04085541 135.46177673 125.12954712 135.07725525 127.74532318 135.36616516 C 131.69013977 135.11592102 133.82606506 135.24031067 137.44253540 134.34172058 C 141.55805969 133.37908936 143.56411743 131.68165588 146.59950256 130.67520142 C 151.79428101 129.23826599 148.05775452 132.27110291 144.88775635 133.94798279" stroke-width="0.57579660" fill="rgb(242, 231, 209)" opacity="1.0" stroke="rgb(114, 88, 127)" stroke-opacity="0.4914215" stroke-linecap="round" stroke-linejoin="round"/>
  </g>
</svg>
