<?xml version="1.0" ?>
<svg xmlns="http://www.w3.org/2000/svg" version="1.1" width="256" height="256" viewBox="0 0 256 256">
  <defs/>
  <g>
    <path d="M 139.04368591 166.76985168 C 136.66473389 173.93594360 135.79821777 176.49089050 132.70462036 185.80447388 C 130.17015076 192.13433838 129.42959595 202.78544617 126.08120728 195.28306580 C 124.34191132 188.33563232 122.21792603 182.18440247 119.43866730 175.01470947 C 117.45621490 168.37396240 115.54471588 161.77957153 113.20812225 155.26708984 C 110.40449524 145.88252258 109.36140442 145.90963745 105.68561554 135.21652222 C 104.90541840 127.83581543 103.74101257 123.85337830 112.66346741 124.77522278 C 120.05468750 125.63053131 125.67652130 124.75796509 133.47235107 124.89514923 C 141.74287415 125.60013580 147.56796265 123.61370850 152.24557495 126.69715118 C 151.03894043 133.36892700 147.80123901 138.23141479 146.16961670 146.01829529 C 142.93586731 154.06231689 142.52383423 157.28320312 139.04368591 166.76985168" stroke-width="0.80000001" fill="rgb(210, 105, 30)" opacity="1.0" stroke="rgb(0, 0, 0)" stroke-opacity="1.0" stroke-linecap="round" stroke-linejoin="round"/>
    <path d="M 141.48326111 137.17297363 C 136.81530762 139.53669739 129.20484924 140.53039551 122.89737701 139.64732361 C 117.70954895 138.64685059 110.76867676 135.83467102 106.65856934 131.25219727 C 102.83471680 127.00045776 99.02493286 120.84474182 98.34686279 113.81912994 C 97.42042542 108.73257446 97.84403992 102.83915710 101.93706512 95.12963867 C 103.67627716 92.11316681 108.88418579 85.96580505 115.60664368 83.09544373 C 122.54676056 80.46580505 126.26104736 79.52996826 131.76245117 80.79723358 C 140.43972778 83.01995850 143.15930176 83.72113037 149.04872131 88.73024750 C 154.03335571 94.39144135 156.02000427 96.05403900 157.70610046 105.15306854 C 158.19319153 112.99987030 158.24682617 115.06308746 154.97590637 123.59656525 C 152.23213196 128.86894226 147.87892151 134.45594788 141.48326111 137.17297363" stroke-width="0.80000001" fill="rgb(255, 182, 193)" opacity="1.0" stroke="rgb(0, 0, 0)" stroke-opacity="1.0" stroke-linecap="round" stroke-linejoin="round"/>
    <path d="M 153.27919006 86.27191162 C 151.09692383 90.28297424 149.19393921 93.29072571 142.77072144 98.22679901 C 138.62196350 100.91932678 132.76478577 103.12922668 126.23158264 102.47250366 C 120.22208405 101.42732239 116.86706543 101.07455444 110.33293915 96.03005981 C 106.12031555 92.05049133 103.58064270 89.58906555 101.07946014 81.43201447 C 100.32275391 77.21663666 100.05838776 71.13601685 102.90883636 64.39802551 C 105.91457367 58.29148483 107.78018951 55.23157883 112.46890259 52.76987839 C 119.80889893 48.87154770 121.96575928 47.51375961 129.45256042 47.44294357 C 136.06805420 48.49739456 138.23893738 48.22124481 145.38821411 53.62008667 C 150.53465271 58.59313202 151.29756165 60.11848068 155.30299377 67.88043976 C 156.60984802 74.02455139 155.91575623 77.76519012 153.27919006 86.27191162" stroke-width="0.80000001" fill="rgb(139, 69, 19)" opacity="1.0" stroke="rgb(0, 0, 0)" stroke-opacity="1.0" stroke-linecap="round" stroke-linejoin="round"/>
    <path d="M 126.67794800 69.87763977 C 122.60240173 70.15002441 116.82166290 67.87854004 112.37540436 64.54209900 C 108.47306061 61.20479965 105.87684631 57.55008698 103.84478760 51.90773773 C 103.21574402 45.91648483 102.06924438 43.42260361 104.59800720 36.41683197 C 106.93457794 31.25280190 108.06805420 28.86591721 114.39945984 23.79937172 C 119.28680420 21.12436104 121.78256226 20.41622734 129.14208984 20.17985725 C 138.83174133 22.08074188 136.20739746 20.71402359 142.56739807 24.73609924 C 147.90988159 29.41632652 149.95797729 32.30098343 152.11038208 37.57826614 C 153.66273499 42.58633423 153.81852722 49.64092255 152.06152344 53.22319794 C 149.44941711 58.85540771 146.44641113 62.14394379 142.24821472 65.71349335 C 138.56655884 68.54952240 132.14277649 70.46791077 126.67794800 69.87763977" stroke-width="0.80000001" fill="rgb(248, 237, 213)" opacity="1.0" stroke="rgb(0, 0, 0)" stroke-opacity="1.0" stroke-linecap="round" stroke-linejoin="round"/>
    <path d="M 145.50170898 133.65284729 C 142.61553955 135.11280823 140.06990051 136.41546631 136.88223267 137.17277527 C 132.25570679 137.80711365 130.18519592 138.08822632 126.72086334 137.91891479 C 121.88940430 137.70555115 121.55028534 137.65290833 116.42679596 136.34237671 C 113.47625732 135.21432495 111.25429535 134.51573181 107.17795563 131.98214722 C 104.04253387 128.85989380 106.20617676 127.90077209 111.00279999 130.28637695 C 115.10749054 131.84425354 115.21981812 132.13232422 118.52877045 133.09211731 C 123.63781738 133.88533020 125.33366394 133.70211792 128.44657898 133.99455261 C 132.35096741 133.65089417 134.89575195 133.66868591 138.28033447 132.99986267 C 142.04684448 131.76443481 144.02998352 130.04417419 147.61315918 128.59530640 C 152.35649109 128.26184082 148.14555359 131.99606323 145.50170898 133.65284729" stroke-width="0.80000001" fill="rgb(247, 240, 216)" opacity="1.0" stroke="rgb(0, 0, 0)" stroke-opacity="1.0" stroke-linecap="round" stroke-linejoin="round"/>
  </g>
</svg>
