<svg xmlns="http://www.w3.org/2000/svg" viewBox="0 0 512 512" height="512.0px" width="512.0px">
<path id="" fill="#001f3f" fill-opacity="1.0" stroke="#000000" stroke-width="0.0" stroke-opacity="1.0" stroke-linecap="round" stroke-linejoin="round"  filling="0" d="M0.000 0.000 C170.667 0.000 341.333 0.000 512.000 0.000 C512.000 170.667 512.000 341.333 512.000 512.000 C341.333 512.000 170.667 512.000 0.000 512.000 C0.000 341.333 0.000 170.667 0.000 0.000"></path>
<path id="" fill="#ffffff" fill-opacity="1.0" stroke="#000000" stroke-width="0.0" stroke-opacity="1.0" stroke-linecap="round" stroke-linejoin="round"  filling="0" d="M51.500 50.000 C51.500 50.398 51.342 50.779 51.061 51.061 C50.779 51.342 50.398 51.500 50.000 51.500 C49.602 51.500 49.221 51.342 48.939 51.061 C48.658 50.779 48.500 50.398 48.500 50.000 C48.500 49.602 48.658 49.221 48.939 48.939 C49.221 48.658 49.602 48.500 50.000 48.500 C50.398 48.500 50.779 48.658 51.061 48.939 C51.342 49.221 51.500 49.602 51.500 50.000"></path>
<path id="" fill="#ffffff" fill-opacity="1.0" stroke="#000000" stroke-width="0.0" stroke-opacity="1.0" stroke-linecap="round" stroke-linejoin="round"  filling="0" d="M152.000 80.000 C152.000 80.530 151.789 81.039 151.414 81.414 C151.039 81.789 150.530 82.000 150.000 82.000 C149.470 82.000 148.961 81.789 148.586 81.414 C148.211 81.039 148.000 80.530 148.000 80.000 C148.000 79.470 148.211 78.961 148.586 78.586 C148.961 78.211 149.470 78.000 150.000 78.000 C150.530 78.000 151.039 78.211 151.414 78.586 C151.789 78.961 152.000 79.470 152.000 80.000"></path>
<path id="" fill="#ffffff" fill-opacity="1.0" stroke="#000000" stroke-width="0.0" stroke-opacity="1.0" stroke-linecap="round" stroke-linejoin="round"  filling="0" d="M351.500 70.000 C351.500 70.398 351.342 70.779 351.061 71.061 C350.779 71.342 350.398 71.500 350.000 71.500 C349.602 71.500 349.221 71.342 348.939 71.061 C348.658 70.779 348.500 70.398 348.500 70.000 C348.500 69.602 348.658 69.221 348.939 68.939 C349.221 68.658 349.602 68.500 350.000 68.500 C350.398 68.500 350.779 68.658 351.061 68.939 C351.342 69.221 351.500 69.602 351.500 70.000"></path>
<path id="" fill="#ffffff" fill-opacity="1.0" stroke="#000000" stroke-width="0.0" stroke-opacity="1.0" stroke-linecap="round" stroke-linejoin="round"  filling="0" d="M201.500 60.000 C201.500 60.398 201.342 60.779 201.061 61.061 C200.779 61.342 200.398 61.500 200.000 61.500 C199.602 61.500 199.221 61.342 198.939 61.061 C198.658 60.779 198.500 60.398 198.500 60.000 C198.500 59.602 198.658 59.221 198.939 58.939 C199.221 58.658 199.602 58.500 200.000 58.500 C200.398 58.500 200.779 58.658 201.061 58.939 C201.342 59.221 201.500 59.602 201.500 60.000"></path>
<path id="" fill="#ffffff" fill-opacity="1.0" stroke="#000000" stroke-width="0.0" stroke-opacity="1.0" stroke-linecap="round" stroke-linejoin="round"  filling="0" d="M402.000 20.000 C402.000 20.530 401.789 21.039 401.414 21.414 C401.039 21.789 400.530 22.000 400.000 22.000 C399.470 22.000 398.961 21.789 398.586 21.414 C398.211 21.039 398.000 20.530 398.000 20.000 C398.000 19.470 398.211 18.961 398.586 18.586 C398.961 18.211 399.470 18.000 400.000 18.000 C400.530 18.000 401.039 18.211 401.414 18.586 C401.789 18.961 402.000 19.470 402.000 20.000"></path>
<path id="" fill="#0074D9" fill-opacity="1.0" stroke="#000000" stroke-width="0.0" stroke-opacity="1.0" stroke-linecap="round" stroke-linejoin="round"  filling="0" d="M0.000 256.000 C170.667 256.000 341.333 256.000 512.000 256.000 C512.000 341.333 512.000 426.667 512.000 512.000 C341.333 512.000 170.667 512.000 0.000 512.000 C0.000 426.667 0.000 341.333 0.000 256.000"></path>
<path id="" fill="#ffffff" fill-opacity="1.0" stroke="#000000" stroke-width="0.0" stroke-opacity="1.0" stroke-linecap="round" stroke-linejoin="round"  filling="0" d="M-0.196 479.019 C16.536 475.673 33.268 472.326 50.000 468.980 C66.667 472.313 83.333 475.647 100.000 478.980 C116.667 475.647 133.333 472.313 150.000 468.980 C166.667 472.313 183.333 475.647 200.000 478.980 C216.667 475.647 233.333 472.313 250.000 468.980 C266.667 472.313 283.333 475.647 300.000 478.980 C316.667 475.647 333.333 472.313 350.000 468.980 C366.667 472.313 383.333 475.647 400.000 478.980 C416.660 475.648 433.321 472.316 449.981 468.984 C470.707 472.327 491.433 475.670 512.159 479.013 C512.053 479.671 511.947 480.329 511.841 480.987 C491.234 477.663 470.626 474.340 450.019 471.016 C433.346 474.351 416.673 477.685 400.000 481.020 C383.333 477.687 366.667 474.353 350.000 471.020 C333.333 474.353 316.667 477.687 300.000 481.020 C283.333 477.687 266.667 474.353 250.000 471.020 C233.333 474.353 216.667 477.687 200.000 481.020 C183.333 477.687 166.667 474.353 150.000 471.020 C133.333 474.353 116.667 477.687 100.000 481.020 C83.333 477.687 66.667 474.353 50.000 471.020 C33.399 474.340 16.797 477.661 0.196 480.981 C0.065 480.327 -0.065 479.673 -0.196 479.019"></path>
<path id="" fill="#ffffff" fill-opacity="1.0" stroke="#000000" stroke-width="0.0" stroke-opacity="1.0" stroke-linecap="round" stroke-linejoin="round"  filling="0" d="M-0.062 489.253 C19.959 487.584 39.979 485.916 60.000 484.247 C80.000 485.914 100.000 487.580 120.000 489.247 C140.000 487.580 160.000 485.914 180.000 484.247 C200.000 485.914 220.000 487.580 240.000 489.247 C260.000 487.580 280.000 485.914 300.000 484.247 C320.000 485.914 340.000 487.580 360.000 489.247 C380.000 487.580 400.000 485.914 420.000 484.247 C440.021 485.916 460.041 487.584 480.062 489.253 C480.021 489.751 479.979 490.249 479.938 490.747 C459.959 489.082 439.979 487.418 420.000 485.753 C400.000 487.420 380.000 489.086 360.000 490.753 C340.000 489.086 320.000 487.420 300.000 485.753 C280.000 487.420 260.000 489.086 240.000 490.753 C220.000 489.086 200.000 487.420 180.000 485.753 C160.000 487.420 140.000 489.086 120.000 490.753 C100.000 489.086 80.000 487.420 60.000 485.753 C40.021 487.418 20.041 489.082 0.062 490.747 C0.021 490.249 -0.021 489.751 -0.062 489.253"></path>
<path id="" fill="#8B4513" fill-opacity="1.0" stroke="#000000" stroke-width="0.0" stroke-opacity="1.0" stroke-linecap="round" stroke-linejoin="round"  filling="0" d="M300.000 512.000 C370.667 512.000 441.333 512.000 512.000 512.000 C512.000 474.667 512.000 437.333 512.000 400.000 C491.333 393.333 470.667 386.667 450.000 380.000 C433.333 383.333 416.667 386.667 400.000 390.000 C383.333 383.333 366.667 376.667 350.000 370.000 C333.333 417.333 316.667 464.667 300.000 512.000"></path>
<path id="" fill="#ffffff" fill-opacity="1.0" stroke="#000000" stroke-width="0.0" stroke-opacity="1.0" stroke-linecap="round" stroke-linejoin="round"  filling="0" d="M380.000 200.000 C406.667 200.000 433.333 200.000 460.000 200.000 C460.000 266.667 460.000 333.333 460.000 400.000 C433.333 400.000 406.667 400.000 380.000 400.000 C380.000 333.333 380.000 266.667 380.000 200.000"></path>
<path id="" fill="#FF4136" fill-opacity="1.0" stroke="#000000" stroke-width="0.0" stroke-opacity="1.0" stroke-linecap="round" stroke-linejoin="round"  filling="0" d="M380.000 200.000 C406.667 200.000 433.333 200.000 460.000 200.000 C456.667 190.000 453.333 180.000 450.000 170.000 C430.000 170.000 410.000 170.000 390.000 170.000 C386.667 180.000 383.333 190.000 380.000 200.000"></path>
<path id="" fill="#DDDDDD" fill-opacity="1.0" stroke="#000000" stroke-width="0.0" stroke-opacity="1.0" stroke-linecap="round" stroke-linejoin="round"  filling="0" d="M440.000 160.000 C440.000 165.302 437.891 170.393 434.142 174.142 C430.393 177.891 425.302 180.000 420.000 180.000 C414.698 180.000 409.607 177.891 405.858 174.142 C402.109 170.393 400.000 165.302 400.000 160.000 C400.000 154.698 402.109 149.607 405.858 145.858 C409.607 142.109 414.698 140.000 420.000 140.000 C425.302 140.000 430.393 142.109 434.142 145.858 C437.891 149.607 440.000 154.698 440.000 160.000"></path>
<path id="" fill="#FFDC00" fill-opacity="1.0" stroke="#000000" stroke-width="0.0" stroke-opacity="1.0" stroke-linecap="round" stroke-linejoin="round"  filling="0" d="M420.000 160.000 C403.333 126.667 386.667 93.333 370.000 60.000 C403.333 60.000 436.667 60.000 470.000 60.000 C453.333 93.333 436.667 126.667 420.000 160.000"></path>
<path id="" fill="#7FDBFF" fill-opacity="1.0" stroke="#000000" stroke-width="0.0" stroke-opacity="1.0" stroke-linecap="round" stroke-linejoin="round"  filling="0" d="M400.000 240.000 C405.000 240.000 410.000 240.000 415.000 240.000 C415.000 246.667 415.000 253.333 415.000 260.000 C410.000 260.000 405.000 260.000 400.000 260.000 C400.000 253.333 400.000 246.667 400.000 240.000"></path>
<path id="" fill="#7FDBFF" fill-opacity="1.0" stroke="#000000" stroke-width="0.0" stroke-opacity="1.0" stroke-linecap="round" stroke-linejoin="round"  filling="0" d="M425.000 240.000 C430.000 240.000 435.000 240.000 440.000 240.000 C440.000 246.667 440.000 253.333 440.000 260.000 C435.000 260.000 430.000 260.000 425.000 260.000 C425.000 253.333 425.000 246.667 425.000 240.000"></path>
<path id="" fill="#7FDBFF" fill-opacity="1.0" stroke="#000000" stroke-width="0.0" stroke-opacity="1.0" stroke-linecap="round" stroke-linejoin="round"  filling="0" d="M400.000 290.000 C405.000 290.000 410.000 290.000 415.000 290.000 C415.000 296.667 415.000 303.333 415.000 310.000 C410.000 310.000 405.000 310.000 400.000 310.000 C400.000 303.333 400.000 296.667 400.000 290.000"></path>
<path id="" fill="#7FDBFF" fill-opacity="1.0" stroke="#000000" stroke-width="0.0" stroke-opacity="1.0" stroke-linecap="round" stroke-linejoin="round"  filling="0" d="M425.000 290.000 C430.000 290.000 435.000 290.000 440.000 290.000 C440.000 296.667 440.000 303.333 440.000 310.000 C435.000 310.000 430.000 310.000 425.000 310.000 C425.000 303.333 425.000 296.667 425.000 290.000"></path>
<path id="" fill="#7FDBFF" fill-opacity="1.0" stroke="#000000" stroke-width="0.0" stroke-opacity="1.0" stroke-linecap="round" stroke-linejoin="round"  filling="0" d="M400.000 340.000 C405.000 340.000 410.000 340.000 415.000 340.000 C415.000 346.667 415.000 353.333 415.000 360.000 C410.000 360.000 405.000 360.000 400.000 360.000 C400.000 353.333 400.000 346.667 400.000 340.000"></path>
<path id="" fill="#7FDBFF" fill-opacity="1.0" stroke="#000000" stroke-width="0.0" stroke-opacity="1.0" stroke-linecap="round" stroke-linejoin="round"  filling="0" d="M425.000 340.000 C430.000 340.000 435.000 340.000 440.000 340.000 C440.000 346.667 440.000 353.333 440.000 360.000 C435.000 360.000 430.000 360.000 425.000 360.000 C425.000 353.333 425.000 346.667 425.000 340.000"></path>
<path id="" fill="#0ba8b0" fill-opacity="1.0" stroke="#000000" stroke-width="0.0" stroke-opacity="1.0" stroke-linecap="round" stroke-linejoin="round"  filling="0" d="M0.000 501.500 C10.333 498.833 20.667 496.167 31.000 493.500 C37.667 493.500 44.333 493.500 51.000 493.500 C60.333 495.500 69.667 497.500 79.000 499.500 C88.333 499.500 97.667 499.500 107.000 499.500 C117.333 497.500 127.667 495.500 138.000 493.500 C144.333 493.500 150.667 493.500 157.000 493.500 C166.667 495.500 176.333 497.500 186.000 499.500 C195.333 499.500 204.667 499.500 214.000 499.500 C223.667 497.500 233.333 495.500 243.000 493.500 C249.000 493.500 255.000 493.500 261.000 493.500 C268.333 495.167 275.667 496.833 283.000 498.500 C289.000 498.833 295.000 499.167 301.000 499.500 C301.167 501.333 301.333 503.167 301.500 505.000 C300.833 507.000 300.167 509.000 299.500 511.000 C199.667 507.833 99.833 504.667 0.000 501.500"></path>
<path id="" fill="#fad731" fill-opacity="1.0" stroke="#000000" stroke-width="0.0" stroke-opacity="1.0" stroke-linecap="round" stroke-linejoin="round"  filling="0" d="M462.500 408.000 C462.333 408.167 462.167 408.333 462.000 408.500 C434.333 408.500 406.667 408.500 379.000 408.500 C378.500 408.000 378.000 407.500 377.500 407.000 C377.500 403.667 377.500 400.333 377.500 397.000 C377.833 396.667 378.167 396.333 378.500 396.000 C378.500 395.000 378.500 394.000 378.500 393.000 C379.000 392.500 379.500 392.000 380.000 391.500 C381.000 391.500 382.000 391.500 383.000 391.500 C383.333 391.833 383.667 392.167 384.000 392.500 C399.000 392.500 414.000 392.500 429.000 392.500 C429.333 392.167 429.667 391.833 430.000 391.500 C430.333 391.833 430.667 392.167 431.000 392.500 C436.000 392.500 441.000 392.500 446.000 392.500 C446.333 392.167 446.667 391.833 447.000 391.500 C452.000 391.500 457.000 391.500 462.000 391.500 C462.167 391.667 462.333 391.833 462.500 392.000 C462.500 397.333 462.500 402.667 462.500 408.000"></path>
<path id="" fill="#fbfbfa" fill-opacity="1.0" stroke="#000000" stroke-width="0.0" stroke-opacity="1.0" stroke-linecap="round" stroke-linejoin="round"  filling="0" d="M437.000 171.500 C436.333 171.500 435.667 171.500 435.000 171.500 C434.667 171.833 434.333 172.167 434.000 172.500 C431.667 172.500 429.333 172.500 427.000 172.500 C426.500 172.000 426.000 171.500 425.500 171.000 C425.500 163.667 425.500 156.333 425.500 149.000 C425.667 148.833 425.833 148.667 426.000 148.500 C429.000 148.500 432.000 148.500 435.000 148.500 C435.333 148.167 435.667 147.833 436.000 147.500 C436.500 148.000 437.000 148.500 437.500 149.000 C437.500 156.333 437.500 163.667 437.500 171.000 C437.333 171.167 437.167 171.333 437.000 171.500"></path>
<path id="" fill="#f9faf9" fill-opacity="1.0" stroke="#000000" stroke-width="0.0" stroke-opacity="1.0" stroke-linecap="round" stroke-linejoin="round"  filling="0" d="M410.000 171.500 C407.000 171.500 404.000 171.500 401.000 171.500 C400.833 171.333 400.667 171.167 400.500 171.000 C400.500 163.333 400.500 155.667 400.500 148.000 C400.667 147.833 400.833 147.667 401.000 147.500 C403.333 147.500 405.667 147.500 408.000 147.500 C408.500 148.000 409.000 148.500 409.500 149.000 C409.500 150.333 409.500 151.667 409.500 153.000 C409.833 153.333 410.167 153.667 410.500 154.000 C410.500 159.667 410.500 165.333 410.500 171.000 C410.333 171.167 410.167 171.333 410.000 171.500"></path>
<path id="" fill="#081028" fill-opacity="1.0" stroke="#000000" stroke-width="0.0" stroke-opacity="1.0" stroke-linecap="round" stroke-linejoin="round"  filling="0" d="M49.000 51.500 C47.667 51.500 46.333 51.500 45.000 51.500 C43.833 50.333 42.667 49.167 41.500 48.000 C41.500 46.333 41.500 44.667 41.500 43.000 C41.667 42.833 41.833 42.667 42.000 42.500 C43.333 42.500 44.667 42.500 46.000 42.500 C47.500 44.000 49.000 45.500 50.500 47.000 C50.500 48.000 50.500 49.000 50.500 50.000 C50.000 50.500 49.500 51.000 49.000 51.500"></path>
<path id="" fill="#0e1937" fill-opacity="1.0" stroke="#000000" stroke-width="0.0" stroke-opacity="1.0" stroke-linecap="round" stroke-linejoin="round"  filling="0" d="M204.500 63.000 C204.000 63.500 203.500 64.000 203.000 64.500 C202.667 64.500 202.333 64.500 202.000 64.500 C201.667 64.833 201.333 65.167 201.000 65.500 C200.667 65.167 200.333 64.833 200.000 64.500 C199.667 64.500 199.333 64.500 199.000 64.500 C198.667 64.167 198.333 63.833 198.000 63.500 C197.667 63.500 197.333 63.500 197.000 63.500 C196.500 63.000 196.000 62.500 195.500 62.000 C195.500 61.667 195.500 61.333 195.500 61.000 C195.167 60.667 194.833 60.333 194.500 60.000 C194.500 59.333 194.500 58.667 194.500 58.000 C195.000 57.500 195.500 57.000 196.000 56.500 C197.333 56.500 198.667 56.500 200.000 56.500 C200.333 56.833 200.667 57.167 201.000 57.500 C201.333 57.500 201.667 57.500 202.000 57.500 C202.167 57.667 202.333 57.833 202.500 58.000 C202.500 58.333 202.500 58.667 202.500 59.000 C202.833 59.333 203.167 59.667 203.500 60.000 C203.500 60.333 203.500 60.667 203.500 61.000 C203.833 61.333 204.167 61.667 204.500 62.000 C204.500 62.333 204.500 62.667 204.500 63.000"></path>
<path id="" fill="#040a27" fill-opacity="1.0" stroke="#000000" stroke-width="0.0" stroke-opacity="1.0" stroke-linecap="round" stroke-linejoin="round"  filling="0" d="M353.000 75.500 C352.667 75.500 352.333 75.500 352.000 75.500 C351.667 75.167 351.333 74.833 351.000 74.500 C350.333 74.500 349.667 74.500 349.000 74.500 C348.500 74.000 348.000 73.500 347.500 73.000 C347.500 72.667 347.500 72.333 347.500 72.000 C347.167 71.667 346.833 71.333 346.500 71.000 C346.500 70.667 346.500 70.333 346.500 70.000 C346.167 69.667 345.833 69.333 345.500 69.000 C345.833 68.667 346.167 68.333 346.500 68.000 C346.500 67.667 346.500 67.333 346.500 67.000 C346.667 66.833 346.833 66.667 347.000 66.500 C348.000 66.500 349.000 66.500 350.000 66.500 C350.333 66.833 350.667 67.167 351.000 67.500 C351.333 67.500 351.667 67.500 352.000 67.500 C352.833 68.333 353.667 69.167 354.500 70.000 C354.500 70.333 354.500 70.667 354.500 71.000 C354.833 71.333 355.167 71.667 355.500 72.000 C355.500 72.333 355.500 72.667 355.500 73.000 C354.667 73.833 353.833 74.667 353.000 75.500"></path>
<path id="" fill="#090e22" fill-opacity="1.0" stroke="#000000" stroke-width="0.0" stroke-opacity="1.0" stroke-linecap="round" stroke-linejoin="round"  filling="0" d="M147.000 88.500 C146.000 88.500 145.000 88.500 144.000 88.500 C142.500 87.000 141.000 85.500 139.500 84.000 C139.500 83.333 139.500 82.667 139.500 82.000 C140.000 81.500 140.500 81.000 141.000 80.500 C142.000 80.500 143.000 80.500 144.000 80.500 C144.333 80.833 144.667 81.167 145.000 81.500 C145.333 81.500 145.667 81.500 146.000 81.500 C146.167 81.667 146.333 81.833 146.500 82.000 C146.500 82.333 146.500 82.667 146.500 83.000 C147.167 83.667 147.833 84.333 148.500 85.000 C148.500 85.333 148.500 85.667 148.500 86.000 C148.167 86.333 147.833 86.667 147.500 87.000 C147.500 87.333 147.500 87.667 147.500 88.000 C147.333 88.167 147.167 88.333 147.000 88.500"></path>
<path id="" fill="#050d2b" fill-opacity="1.0" stroke="#000000" stroke-width="0.0" stroke-opacity="1.0" stroke-linecap="round" stroke-linejoin="round"  filling="0" d="M401.500 27.000 C401.333 27.167 401.167 27.333 401.000 27.500 C400.000 27.500 399.000 27.500 398.000 27.500 C397.667 27.167 397.333 26.833 397.000 26.500 C396.667 26.500 396.333 26.500 396.000 26.500 C395.500 26.000 395.000 25.500 394.500 25.000 C394.500 24.667 394.500 24.333 394.500 24.000 C394.167 23.667 393.833 23.333 393.500 23.000 C393.500 22.333 393.500 21.667 393.500 21.000 C393.667 20.833 393.833 20.667 394.000 20.500 C394.333 20.500 394.667 20.500 395.000 20.500 C395.333 20.167 395.667 19.833 396.000 19.500 C396.333 19.500 396.667 19.500 397.000 19.500 C397.333 19.833 397.667 20.167 398.000 20.500 C398.333 20.500 398.667 20.500 399.000 20.500 C400.167 21.667 401.333 22.833 402.500 24.000 C402.500 24.333 402.500 24.667 402.500 25.000 C402.167 25.333 401.833 25.667 401.500 26.000 C401.500 26.333 401.500 26.667 401.500 27.000"></path>
<path id="" fill="#070d22" fill-opacity="1.0" stroke="#000000" stroke-width="0.0" stroke-opacity="1.0" stroke-linecap="round" stroke-linejoin="round"  filling="0" d="M202.000 64.500 C201.333 64.500 200.667 64.500 200.000 64.500 C199.667 64.167 199.333 63.833 199.000 63.500 C198.667 63.500 198.333 63.500 198.000 63.500 C197.167 62.667 196.333 61.833 195.500 61.000 C195.500 60.000 195.500 59.000 195.500 58.000 C196.000 57.500 196.500 57.000 197.000 56.500 C197.667 56.500 198.333 56.500 199.000 56.500 C199.333 56.833 199.667 57.167 200.000 57.500 C200.333 57.500 200.667 57.500 201.000 57.500 C201.833 58.333 202.667 59.167 203.500 60.000 C203.500 61.000 203.500 62.000 203.500 63.000 C203.000 63.500 202.500 64.000 202.000 64.500"></path>
<path id="" fill="#0b1127" fill-opacity="1.0" stroke="#000000" stroke-width="0.0" stroke-opacity="1.0" stroke-linecap="round" stroke-linejoin="round"  filling="0" d="M354.000 74.500 C352.667 74.500 351.333 74.500 350.000 74.500 C348.833 73.333 347.667 72.167 346.500 71.000 C346.500 70.000 346.500 69.000 346.500 68.000 C347.000 67.500 347.500 67.000 348.000 66.500 C348.333 66.500 348.667 66.500 349.000 66.500 C349.333 66.833 349.667 67.167 350.000 67.500 C350.333 67.500 350.667 67.500 351.000 67.500 C352.167 68.667 353.333 69.833 354.500 71.000 C354.500 72.000 354.500 73.000 354.500 74.000 C354.333 74.167 354.167 74.333 354.000 74.500"></path>
<path id="" fill="#767d8f" fill-opacity="1.0" stroke="#000000" stroke-width="0.0" stroke-opacity="1.0" stroke-linecap="round" stroke-linejoin="round"  filling="0" d="M400.000 27.500 C399.667 27.500 399.333 27.500 399.000 27.500 C398.667 27.167 398.333 26.833 398.000 26.500 C397.667 26.500 397.333 26.500 397.000 26.500 C396.167 25.667 395.333 24.833 394.500 24.000 C394.500 23.000 394.500 22.000 394.500 21.000 C394.667 20.833 394.833 20.667 395.000 20.500 C396.000 20.500 397.000 20.500 398.000 20.500 C399.167 21.667 400.333 22.833 401.500 24.000 C401.500 24.667 401.500 25.333 401.500 26.000 C401.000 26.500 400.500 27.000 400.000 27.500"></path>
</svg>