<svg viewBox="0 0 512 512" xmlns="http://www.w3.org/2000/svg">
  <!-- Sky -->
  <rect x="0" y="0" width="512" height="512" fill="#001f3f"/>
  
  <!-- Stars -->
  <circle cx="50" cy="50" r="1.5" fill="#ffffff"/>
  <circle cx="150" cy="80" r="2" fill="#ffffff"/>
  <circle cx="250" cy="30" r="1" fill="#ffffff"/>
  <circle cx="350" cy="70" r="1.5" fill="#ffffff"/>
  <circle cx="450" cy="40" r="1" fill="#ffffff"/>
  <circle cx="100" cy="120" r="1" fill="#ffffff"/>
  <circle cx="200" cy="60" r="1.5" fill="#ffffff"/>
  <circle cx="300" cy="100" r="1" fill="#ffffff"/>
  <circle cx="400" cy="20" r="2" fill="#ffffff"/>
  
  <!-- Sea -->
  <rect x="0" y="256" width="512" height="256" fill="#0074D9"/>
  
  <!-- Waves -->
  <polyline points="0,480 50,470 100,480 150,470 200,480 250,470 300,480 350,470 400,480 450,470 512,480" fill="none" stroke="#ffffff" stroke-width="2"/>
  <polyline points="0,490 60,485 120,490 180,485 240,490 300,485 360,490 420,485 480,490" fill="none" stroke="#ffffff" stroke-width="1.5"/>
  
  <!-- Cliff -->
  <polygon points="300,512 512,512 512,400 450,380 400,390 350,370" fill="#8B4513"/>
  
  <!-- Lighthouse base -->
  <rect x="380" y="200" width="80" height="200" fill="#ffffff"/>
  
  <!-- Lighthouse top -->
  <polygon points="380,200 460,200 450,170 390,170" fill="#FF4136"/>
  
  <!-- Lighthouse dome -->
  <circle cx="420" cy="160" r="20" fill="#DDDDDD"/>
  
  <!-- Light beam -->
  <polygon points="420,160 370,60 470,60" fill="#FFDC00" fill-opacity="0.3"/>
  
  <!-- Windows -->
  <rect x="400" y="240" width="15" height="20" fill="#7FDBFF"/>
  <rect x="425" y="240" width="15" height="20" fill="#7FDBFF"/>
  <rect x="400" y="290" width="15" height="20" fill="#7FDBFF"/>
  <rect x="425" y="290" width="15" height="20" fill="#7FDBFF"/>
  <rect x="400" y="340" width="15" height="20" fill="#7FDBFF"/>
  <rect x="425" y="340" width="15" height="20" fill="#7FDBFF"/>
</svg>