<svg xmlns="http://www.w3.org/2000/svg" viewBox="0 0 512 512" height="512.0px" width="512.0px">
<path id="" fill="#001f3f" fill-opacity="1.0" stroke="#000000" stroke-width="0.0" stroke-opacity="1.0" stroke-linecap="round" stroke-linejoin="round"  filling="0" d="M0.000000 0.000000 C170.666672 0.000000 341.333313 0.000000 512.000000 0.000000 C512.000000 170.666672 512.000000 341.333313 512.000000 512.000000 C341.333313 512.000000 170.666672 512.000000 0.000000 512.000000 C0.000000 341.333313 0.000000 170.666672 0.000000 0.000000"></path>
<path id="" fill="#ffffff" fill-opacity="1.0" stroke="#000000" stroke-width="0.0" stroke-opacity="1.0" stroke-linecap="round" stroke-linejoin="round"  filling="0" d="M51.500000 50.000000 C51.500000 50.397671 51.341858 50.779465 51.060661 51.060661 C50.779465 51.341858 50.397671 51.500000 50.000000 51.500000 C49.602329 51.500000 49.220535 51.341858 48.939339 51.060661 C48.658142 50.779465 48.500000 50.397671 48.500000 50.000000 C48.500000 49.602329 48.658142 49.220535 48.939339 48.939339 C49.220535 48.658142 49.602329 48.500000 50.000000 48.500000 C50.397671 48.500000 50.779465 48.658142 51.060661 48.939339 C51.341858 49.220535 51.500000 49.602329 51.500000 50.000000"></path>
<path id="" fill="#ffffff" fill-opacity="1.0" stroke="#000000" stroke-width="0.0" stroke-opacity="1.0" stroke-linecap="round" stroke-linejoin="round"  filling="0" d="M152.000000 80.000000 C152.000000 80.530228 151.789139 81.039284 151.414215 81.414215 C151.039291 81.789146 150.530228 82.000000 150.000000 82.000000 C149.469772 82.000000 148.960709 81.789146 148.585785 81.414215 C148.210861 81.039284 148.000000 80.530228 148.000000 80.000000 C148.000000 79.469772 148.210861 78.960716 148.585785 78.585785 C148.960709 78.210854 149.469772 78.000000 150.000000 78.000000 C150.530228 78.000000 151.039291 78.210854 151.414215 78.585785 C151.789139 78.960716 152.000000 79.469772 152.000000 80.000000"></path>
<path id="" fill="#ffffff" fill-opacity="1.0" stroke="#000000" stroke-width="0.0" stroke-opacity="1.0" stroke-linecap="round" stroke-linejoin="round"  filling="0" d="M351.500000 70.000000 C351.500000 70.397675 351.341858 70.779465 351.060669 71.060661 C350.779480 71.341858 350.397675 71.500000 350.000000 71.500000 C349.602325 71.500000 349.220520 71.341858 348.939331 71.060661 C348.658142 70.779465 348.500000 70.397675 348.500000 70.000000 C348.500000 69.602325 348.658142 69.220535 348.939331 68.939339 C349.220520 68.658142 349.602325 68.500000 350.000000 68.500000 C350.397675 68.500000 350.779480 68.658142 351.060669 68.939339 C351.341858 69.220535 351.500000 69.602325 351.500000 70.000000"></path>
<path id="" fill="#ffffff" fill-opacity="1.0" stroke="#000000" stroke-width="0.0" stroke-opacity="1.0" stroke-linecap="round" stroke-linejoin="round"  filling="0" d="M201.500000 60.000000 C201.500000 60.397671 201.341858 60.779465 201.060654 61.060661 C200.779449 61.341858 200.397675 61.500000 200.000000 61.500000 C199.602325 61.500000 199.220551 61.341858 198.939346 61.060661 C198.658142 60.779465 198.500000 60.397671 198.500000 60.000000 C198.500000 59.602329 198.658142 59.220535 198.939346 58.939339 C199.220551 58.658142 199.602325 58.500000 200.000000 58.500000 C200.397675 58.500000 200.779449 58.658142 201.060654 58.939339 C201.341858 59.220535 201.500000 59.602329 201.500000 60.000000"></path>
<path id="" fill="#ffffff" fill-opacity="1.0" stroke="#000000" stroke-width="0.0" stroke-opacity="1.0" stroke-linecap="round" stroke-linejoin="round"  filling="0" d="M402.000000 20.000000 C402.000000 20.530230 401.789154 21.039284 401.414215 21.414213 C401.039276 21.789143 400.530243 22.000000 400.000000 22.000000 C399.469757 22.000000 398.960724 21.789143 398.585785 21.414213 C398.210846 21.039284 398.000000 20.530230 398.000000 20.000000 C398.000000 19.469770 398.210846 18.960716 398.585785 18.585787 C398.960724 18.210857 399.469757 18.000000 400.000000 18.000000 C400.530243 18.000000 401.039276 18.210857 401.414215 18.585787 C401.789154 18.960716 402.000000 19.469770 402.000000 20.000000"></path>
<path id="" fill="#0074D9" fill-opacity="1.0" stroke="#000000" stroke-width="0.0" stroke-opacity="1.0" stroke-linecap="round" stroke-linejoin="round"  filling="0" d="M0.000000 256.000000 C170.666672 256.000000 341.333313 256.000000 512.000000 256.000000 C512.000000 341.333344 512.000000 426.666656 512.000000 512.000000 C341.333313 512.000000 170.666672 512.000000 0.000000 512.000000 C0.000000 426.666656 0.000000 341.333344 0.000000 256.000000"></path>
<path id="" fill="#ffffff" fill-opacity="1.0" stroke="#000000" stroke-width="0.0" stroke-opacity="1.0" stroke-linecap="round" stroke-linejoin="round"  filling="0" d="M-0.196000 479.019012 C16.536001 475.672668 33.267998 472.326355 50.000000 468.980011 C66.666672 472.313354 83.333328 475.646667 100.000000 478.980011 C116.666672 475.646667 133.333328 472.313354 150.000000 468.980011 C166.666672 472.313354 183.333328 475.646667 200.000000 478.980011 C216.666672 475.646667 233.333328 472.313354 250.000000 468.980011 C266.666656 472.313354 283.333344 475.646667 300.000000 478.980011 C316.666656 475.646667 333.333344 472.313354 350.000000 468.980011 C366.666656 472.313354 383.333344 475.646667 400.000000 478.980011 C416.660339 475.648010 433.320648 472.316010 449.980988 468.984009 C470.707001 472.326996 491.432983 475.670013 512.158997 479.013000 C512.052979 479.670990 511.946991 480.329010 511.841003 480.987000 C491.233673 477.663330 470.626343 474.339661 450.019012 471.015991 C433.346008 474.350647 416.673004 477.685333 400.000000 481.019989 C383.333344 477.686646 366.666656 474.353333 350.000000 471.019989 C333.333344 474.353333 316.666656 477.686646 300.000000 481.019989 C283.333344 477.686646 266.666656 474.353333 250.000000 471.019989 C233.333328 474.353333 216.666672 477.686646 200.000000 481.019989 C183.333328 477.686646 166.666672 474.353333 150.000000 471.019989 C133.333328 474.353333 116.666672 477.686646 100.000000 481.019989 C83.333328 477.686646 66.666672 474.353333 50.000000 471.019989 C33.398666 474.340332 16.797333 477.660645 0.196000 480.980988 C0.065333 480.326996 -0.065333 479.673004 -0.196000 479.019012"></path>
<path id="" fill="#ffffff" fill-opacity="1.0" stroke="#000000" stroke-width="0.0" stroke-opacity="1.0" stroke-linecap="round" stroke-linejoin="round"  filling="0" d="M-0.062000 489.252991 C19.958668 487.584320 39.979332 485.915680 60.000000 484.247009 C80.000000 485.913666 100.000000 487.580353 120.000000 489.247009 C140.000000 487.580353 160.000000 485.913666 180.000000 484.247009 C200.000000 485.913666 220.000000 487.580353 240.000000 489.247009 C260.000000 487.580353 280.000000 485.913666 300.000000 484.247009 C320.000000 485.913666 340.000000 487.580353 360.000000 489.247009 C380.000000 487.580353 400.000000 485.913666 420.000000 484.247009 C440.020660 485.915680 460.041351 487.584320 480.062012 489.252991 C480.020660 489.751007 479.979340 490.248993 479.937988 490.747009 C459.958649 489.082336 439.979340 487.417664 420.000000 485.752991 C400.000000 487.419647 380.000000 489.086334 360.000000 490.752991 C340.000000 489.086334 320.000000 487.419647 300.000000 485.752991 C280.000000 487.419647 260.000000 489.086334 240.000000 490.752991 C220.000000 489.086334 200.000000 487.419647 180.000000 485.752991 C160.000000 487.419647 140.000000 489.086334 120.000000 490.752991 C100.000000 489.086334 80.000000 487.419647 60.000000 485.752991 C40.020668 487.417664 20.041334 489.082336 0.062000 490.747009 C0.020667 490.248993 -0.020667 489.751007 -0.062000 489.252991"></path>
<path id="" fill="#8B4513" fill-opacity="1.0" stroke="#000000" stroke-width="0.0" stroke-opacity="1.0" stroke-linecap="round" stroke-linejoin="round"  filling="0" d="M300.000000 512.000000 C370.666687 512.000000 441.333313 512.000000 512.000000 512.000000 C512.000000 474.666656 512.000000 437.333344 512.000000 400.000000 C491.333344 393.333344 470.666656 386.666656 450.000000 380.000000 C433.333344 383.333344 416.666656 386.666656 400.000000 390.000000 C383.333344 383.333344 366.666656 376.666656 350.000000 370.000000 C333.333344 417.333344 316.666656 464.666656 300.000000 512.000000"></path>
<path id="" fill="#ffffff" fill-opacity="1.0" stroke="#000000" stroke-width="0.0" stroke-opacity="1.0" stroke-linecap="round" stroke-linejoin="round"  filling="0" d="M380.000000 200.000000 C406.666656 200.000000 433.333344 200.000000 460.000000 200.000000 C460.000000 266.666687 460.000000 333.333313 460.000000 400.000000 C433.333344 400.000000 406.666656 400.000000 380.000000 400.000000 C380.000000 333.333313 380.000000 266.666687 380.000000 200.000000"></path>
<path id="" fill="#FF4136" fill-opacity="1.0" stroke="#000000" stroke-width="0.0" stroke-opacity="1.0" stroke-linecap="round" stroke-linejoin="round"  filling="0" d="M380.000000 200.000000 C406.666656 200.000000 433.333344 200.000000 460.000000 200.000000 C456.666656 190.000000 453.333344 180.000000 450.000000 170.000000 C430.000000 170.000000 410.000000 170.000000 390.000000 170.000000 C386.666656 180.000000 383.333344 190.000000 380.000000 200.000000"></path>
<path id="" fill="#DDDDDD" fill-opacity="1.0" stroke="#000000" stroke-width="0.0" stroke-opacity="1.0" stroke-linecap="round" stroke-linejoin="round"  filling="0" d="M440.000000 160.000000 C440.000000 165.302292 437.891449 170.392853 434.142151 174.142136 C430.392853 177.891418 425.302307 180.000000 420.000000 180.000000 C414.697693 180.000000 409.607147 177.891418 405.857849 174.142136 C402.108551 170.392853 400.000000 165.302292 400.000000 160.000000 C400.000000 154.697708 402.108551 149.607147 405.857849 145.857864 C409.607147 142.108582 414.697693 140.000000 420.000000 140.000000 C425.302307 140.000000 430.392822 142.108582 434.142120 145.857864 C437.891418 149.607147 440.000000 154.697708 440.000000 160.000000"></path>
<path id="" fill="#FFDC00" fill-opacity="1.0" stroke="#000000" stroke-width="0.0" stroke-opacity="1.0" stroke-linecap="round" stroke-linejoin="round"  filling="0" d="M420.000000 160.000000 C403.333344 126.666664 386.666656 93.333336 370.000000 60.000000 C403.333344 60.000000 436.666656 60.000000 470.000000 60.000000 C453.333344 93.333336 436.666656 126.666664 420.000000 160.000000"></path>
<path id="" fill="#7FDBFF" fill-opacity="1.0" stroke="#000000" stroke-width="0.0" stroke-opacity="1.0" stroke-linecap="round" stroke-linejoin="round"  filling="0" d="M400.000000 240.000000 C405.000000 240.000000 410.000000 240.000000 415.000000 240.000000 C415.000000 246.666672 415.000000 253.333328 415.000000 260.000000 C410.000000 260.000000 405.000000 260.000000 400.000000 260.000000 C400.000000 253.333328 400.000000 246.666672 400.000000 240.000000"></path>
<path id="" fill="#7FDBFF" fill-opacity="1.0" stroke="#000000" stroke-width="0.0" stroke-opacity="1.0" stroke-linecap="round" stroke-linejoin="round"  filling="0" d="M425.000000 240.000000 C430.000000 240.000000 435.000000 240.000000 440.000000 240.000000 C440.000000 246.666672 440.000000 253.333328 440.000000 260.000000 C435.000000 260.000000 430.000000 260.000000 425.000000 260.000000 C425.000000 253.333328 425.000000 246.666672 425.000000 240.000000"></path>
<path id="" fill="#7FDBFF" fill-opacity="1.0" stroke="#000000" stroke-width="0.0" stroke-opacity="1.0" stroke-linecap="round" stroke-linejoin="round"  filling="0" d="M400.000000 290.000000 C405.000000 290.000000 410.000000 290.000000 415.000000 290.000000 C415.000000 296.666656 415.000000 303.333344 415.000000 310.000000 C410.000000 310.000000 405.000000 310.000000 400.000000 310.000000 C400.000000 303.333344 400.000000 296.666656 400.000000 290.000000"></path>
<path id="" fill="#7FDBFF" fill-opacity="1.0" stroke="#000000" stroke-width="0.0" stroke-opacity="1.0" stroke-linecap="round" stroke-linejoin="round"  filling="0" d="M425.000000 290.000000 C430.000000 290.000000 435.000000 290.000000 440.000000 290.000000 C440.000000 296.666656 440.000000 303.333344 440.000000 310.000000 C435.000000 310.000000 430.000000 310.000000 425.000000 310.000000 C425.000000 303.333344 425.000000 296.666656 425.000000 290.000000"></path>
<path id="" fill="#7FDBFF" fill-opacity="1.0" stroke="#000000" stroke-width="0.0" stroke-opacity="1.0" stroke-linecap="round" stroke-linejoin="round"  filling="0" d="M400.000000 340.000000 C405.000000 340.000000 410.000000 340.000000 415.000000 340.000000 C415.000000 346.666656 415.000000 353.333344 415.000000 360.000000 C410.000000 360.000000 405.000000 360.000000 400.000000 360.000000 C400.000000 353.333344 400.000000 346.666656 400.000000 340.000000"></path>
<path id="" fill="#7FDBFF" fill-opacity="1.0" stroke="#000000" stroke-width="0.0" stroke-opacity="1.0" stroke-linecap="round" stroke-linejoin="round"  filling="0" d="M425.000000 340.000000 C430.000000 340.000000 435.000000 340.000000 440.000000 340.000000 C440.000000 346.666656 440.000000 353.333344 440.000000 360.000000 C435.000000 360.000000 430.000000 360.000000 425.000000 360.000000 C425.000000 353.333344 425.000000 346.666656 425.000000 340.000000"></path>
</svg>