<?xml version="1.0" ?>
<svg xmlns="http://www.w3.org/2000/svg" version="1.1" width="512" height="512" viewBox="0 0 512 512">
  <defs/>
  <g>
    <path d="M 577.60766602 419.87695312 C 557.80926514 426.33868408 537.98516846 432.81924438 518.14575195 439.25619507 C 498.30865479 445.59771729 478.42697144 451.79602051 458.53207397 457.77978516 C 438.61264038 463.49716187 418.60638428 468.82394409 398.57623291 473.65594482 C 378.52783203 477.93811035 358.43923950 481.59008789 338.33084106 484.50637817 C 318.21017456 486.54922485 298.13861084 487.63311768 278.11862183 487.73489380 C 258.19796753 486.74255371 238.42356873 484.57403564 218.83387756 481.18347168 C 199.51219177 476.51583862 180.47390747 470.49398804 161.78221130 463.15512085 C 143.56266785 454.49078369 125.85667419 444.46179199 108.65147400 433.07229614 C 92.06640625 420.40087891 76.15347290 406.45901489 61.02514267 391.33343506 C 46.70594025 375.12765503 33.22073746 357.84780884 20.62483597 339.61071777 C 8.99250031 320.53952026 -1.64536977 300.75222778 -11.22613621 280.37011719 C -19.72393417 259.56390381 -27.04950333 238.48332214 -33.17688751 217.17304993 C -38.13153076 195.79379272 -41.87207413 174.54176331 -44.27106857 153.62457275 C -45.26753616 133.17121887 -44.84857941 113.30586243 -43.00803757 94.11912537 C -39.69982147 75.78464508 -34.87293625 58.39654922 -28.45628929 42.15768433 C -20.38252831 27.22209358 -10.55536652 13.70379925 1.08900177 1.72611880 C 14.58632755 -8.60728264 29.80349922 -17.44813156 46.59622574 -24.90239716 C 64.82176971 -31.08720970 84.34870911 -36.19620132 104.99135590 -40.41521072 C 126.63579559 -43.85257339 149.14212036 -46.60824585 172.35185242 -48.77696609 C 196.15617371 -50.35196304 220.42057800 -51.35403061 244.93663025 -51.86136246 C 269.53680420 -51.95166397 294.13223267 -51.64989090 318.57504272 -50.81558990 C 342.60198975 -49.39255142 366.13916016 -47.30093384 389.02206421 -44.49419022 C 411.06655884 -40.86204147 432.09530640 -36.28557968 451.94454956 -30.60926247 C 470.47473145 -23.68604660 487.50155640 -15.29681587 502.88873291 -5.31523228 C 516.45507812 6.35829973 528.25250244 19.73463249 538.40051270 34.75067139 C 547.03070068 51.26412964 554.26501465 69.13243866 560.28936768 88.20720673 C 565.24896240 108.33427429 569.32891846 129.37567139 572.71813965 151.16864014 C 575.48645020 173.57298279 577.70874023 196.49859619 579.55957031 219.78802490 C 581.18499756 243.34695435 582.62908936 267.07852173 583.96734619 290.91284180 C 585.23663330 314.80026245 586.46374512 338.72506714 577.60766602 419.87695312" stroke-width="2.00000000" fill="rgb(12, 28, 68)" opacity="1.0" stroke="rgb(8, 26, 68)" stroke-opacity="0.9993364" stroke-linecap="round" stroke-linejoin="round"/>
    <path d="M 41.28788757 54.52587509 C 41.29309082 54.52997208 41.28637695 54.53060150 41.28923035 54.52875900 C 41.29397202 54.52627182 41.28437424 54.53324890 41.28461075 54.52944946 C 41.29837036 54.53074646 41.28134537 54.53121185 41.28963089 54.52995682 C 41.29113007 54.53370285 41.28070068 54.53381348 41.29412460 54.52250290 C 41.28682709 54.53813553 41.28143311 54.53355026 41.29109573 54.52691650 C 41.28927231 54.52971268 41.28109741 54.53973389 41.29381180 54.52991486 C 41.28777695 54.53063965 41.28430176 54.52960968 41.29387665 54.53114319 C 41.28975677 54.53635406 41.28496933 54.52566147 41.29715729 54.52877426 C 41.29313278 54.53555298 41.29005814 54.52838135 41.29249191 54.52501297 C 41.29501343 54.53594589 41.29441833 54.52525330 41.28788757 54.52587509" stroke-width="0.00000000" fill="rgb(255, 255, 243)" opacity="1.0" stroke="rgb(49, 0, 0)" stroke-opacity="1.0" stroke-linecap="round" stroke-linejoin="round"/>
    <path d="M 141.34684753 82.34916687 C 141.53764343 82.26708221 141.76747131 82.29022217 142.24829102 82.30115509 C 142.87229919 82.38868713 143.31015015 82.27243042 143.45675659 82.18674469 C 143.62155151 82.62184143 144.13922119 82.98476410 144.66409302 83.44094849 C 145.00595093 83.88410950 145.56201172 84.26879883 146.13374329 84.49596405 C 146.63574219 84.69965363 146.99914551 84.99201965 147.42288208 85.20223999 C 147.73597717 85.43651581 147.73330688 85.81884766 147.51052856 86.11396027 C 147.35548401 86.30650330 147.22378540 86.62092590 146.85531616 86.93952179 C 146.59597778 87.13935852 146.26885986 87.22885895 145.77160645 87.31257629 C 145.30664062 87.00647736 144.80827332 86.81025696 144.12905884 86.50074768 C 143.46466064 86.13926697 142.56736755 86.02447510 141.34684753 82.34916687" stroke-width="2.00000000" fill="rgb(131, 145, 155)" opacity="1.0" stroke="rgb(9, 3, 0)" stroke-opacity="0.4557945" stroke-linecap="round" stroke-linejoin="round"/>
    <path d="M 342.82690430 67.26337433 C 342.84194946 67.26932526 342.85684204 67.29180145 342.86303711 67.29651642 C 342.88150024 67.30699921 342.87652588 67.33032990 342.88842773 67.31762695 C 342.89962769 67.34536743 342.88250732 67.35680389 342.89089966 67.34896088 C 342.90661621 67.36367798 342.89624023 67.38124084 342.88894653 67.37443542 C 342.91149902 67.38058472 342.90200806 67.39468384 342.90173340 67.40024567 C 342.90048218 67.39860535 342.89144897 67.40046692 342.88400269 67.41130829 C 342.89782715 67.41390991 342.86914062 67.40946960 342.87011719 67.41248322 C 342.86706543 67.42133331 342.85186768 67.41458893 342.83764648 67.41127014 C 342.83294678 67.41821289 342.80944824 67.41526794 342.79586792 67.39813995 C 342.78619385 67.41312408 342.76269531 67.39173126 342.82690430 67.26337433" stroke-width="0.15442528" fill="rgb(11, 31, 87)" opacity="1.0" stroke="rgb(38, 50, 100)" stroke-opacity="0.19975734" stroke-linecap="round" stroke-linejoin="round"/>
    <path d="M 204.02969360 55.41416168 C 203.97506714 55.36257172 203.95976257 55.30299759 203.92399597 55.30113602 C 203.90103149 55.24907303 203.87780762 55.23161697 203.85025024 55.24235916 C 203.84727478 55.22618103 203.82362366 55.22253418 203.81349182 55.23808289 C 203.80302429 55.23034286 203.79901123 55.24161148 203.79060364 55.25490189 C 203.77554321 55.24913788 203.78381348 55.26181030 203.76589966 55.26793671 C 203.77200317 55.26533890 203.75610352 55.27445221 203.75794983 55.27281570 C 203.74633789 55.27965164 203.74078369 55.28336334 203.73716736 55.28823090 C 203.71817017 55.29420853 203.72752380 55.31259918 203.71342468 55.33621979 C 203.69548035 55.34741974 203.71492004 55.38217163 203.70762634 55.42771912 C 203.69807434 55.46466064 203.72816467 55.50892639 204.02969360 55.41416168" stroke-width="2.00000000" fill="rgb(76, 11, 44)" opacity="1.0" stroke="rgb(9, 25, 66)" stroke-opacity="0.9720421" stroke-linecap="round" stroke-linejoin="round"/>
    <path d="M 400.07205200 25.10953522 C 400.07568359 25.10863495 400.07354736 25.10406303 400.07794189 25.12523842 C 400.06951904 25.10757065 400.07955933 25.12414932 400.08023071 25.12296486 C 400.06961060 25.11543655 400.08041382 25.13504601 400.07479858 25.13038826 C 400.07250977 25.12443733 400.07461548 25.13584328 400.06924438 25.13635826 C 400.07299805 25.13309860 400.06637573 25.14247322 400.06005859 25.14087105 C 400.06753540 25.13924789 400.05047607 25.14555931 400.05819702 25.14995766 C 400.04785156 25.14180756 400.04568481 25.15370941 400.03570557 25.15271187 C 400.04147339 25.14860725 400.02313232 25.15408516 400.02603149 25.16456604 C 400.02960205 25.15192223 400.00628662 25.15846825 400.00314331 25.16978264 C 400.01989746 25.15440178 399.98251343 25.17263985 400.07205200 25.10953522" stroke-width="0.00000000" fill="rgb(7, 12, 0)" opacity="1.0" stroke="rgb(255, 255, 255)" stroke-opacity="1.0" stroke-linecap="round" stroke-linejoin="round"/>
    <path d="M 608.26483154 422.72229004 C 594.89422607 430.24066162 581.52624512 437.82308960 568.14318848 445.40972900 C 554.72039795 452.94653320 541.21240234 460.40667725 527.59472656 467.77484131 C 513.84265137 475.03225708 499.88565063 482.14480591 485.65579224 489.02487183 C 471.17370605 495.70373535 456.35055542 502.10934448 441.18273926 508.22137451 C 425.58035278 514.02148438 409.56460571 519.46667480 393.11538696 524.54211426 C 376.21829224 529.24896240 358.81777954 533.53619385 340.95846558 537.43615723 C 322.68707275 540.88018799 303.97592163 543.90759277 284.88439941 546.43267822 C 265.48126221 548.48083496 245.77313232 550.03753662 225.86268616 551.04309082 C 205.83128357 551.45495605 185.73593140 551.25299072 165.69703674 550.39923096 C 145.80783081 548.77008057 126.19075775 546.37133789 106.97119904 543.08825684 C 88.24973297 538.90093994 70.19969177 533.66687012 52.93011093 527.32672119 C 36.62864685 519.77105713 21.44925690 510.90487671 7.49084473 500.67507935 C -5.01790142 488.97061157 -16.03690529 475.82247925 -25.56728554 461.48999023 C -33.64710617 446.13891602 -40.27912521 429.91290283 -45.48264694 413.07723999 C -49.27886963 395.92117310 -51.67107010 378.60354614 -52.66469193 361.39831543 C -52.26764679 344.58715820 -50.52746964 328.47598267 -47.40451050 313.27066040 C -42.89266205 299.21740723 -37.00660706 286.63168335 -29.72337723 275.88098145 C -21.05832291 267.33377075 -10.99080086 261.31253052 0.47144711 258.00408936 C 13.27935123 257.75140381 27.37797356 257.98831177 42.64093018 257.98922729 C 58.95102692 257.96496582 76.25829315 257.90890503 94.39901733 257.82818604 C 113.27608490 257.88946533 132.73878479 257.80337524 152.66151428 257.96301270 C 172.91247559 257.89938354 193.43159485 257.87466431 214.08486938 257.90173340 C 234.66589355 257.99591064 255.18827820 257.87979126 275.58016968 257.91967773 C 295.68762207 258.22802734 315.53976440 257.86807251 335.13818359 257.94070435 C 354.37191772 258.11148071 373.29446411 257.93814087 391.85574341 257.75650024 C 410.04562378 257.99371338 427.86676025 258.31365967 445.27551270 258.41510010 C 462.32357788 258.08837891 479.05990601 257.78338623 495.51107788 257.91986084 C 511.69119263 257.92080688 527.67156982 257.96505737 543.51434326 258.08331299 C 559.24572754 258.17587280 574.86352539 258.23648071 590.46002197 258.28823853 C 606.04791260 258.32354736 621.60894775 258.37530518 608.26483154 422.72229004" stroke-width="1.27406967" fill="rgb(14, 114, 204)" opacity="1.0" stroke="rgb(34, 117, 194)" stroke-opacity="1.0" stroke-linecap="round" stroke-linejoin="round"/>
    <path d="M 360.66049194 473.93487549 C 347.31799316 475.28253174 334.18344116 477.01693726 321.45410156 479.03689575 C 309.16699219 481.46530151 297.25738525 482.42846680 285.73641968 480.53320312 C 274.61459351 476.65377808 263.49942017 473.99749756 251.97781372 474.28991699 C 240.45057678 473.76977539 229.04415894 476.69296265 216.44607544 480.27261353 C 201.78829956 482.73205566 186.78770447 482.22958374 171.70693970 477.11163330 C 155.23281860 473.19500732 138.25044250 473.00042725 121.58642578 477.60662842 C 104.73127747 482.64987183 87.46833801 483.26113892 70.78089905 478.68478394 C 54.21197510 473.39834595 37.49352646 472.83554077 21.94288063 475.96124268 C 8.91979504 479.66616821 0.04138412 482.11459351 -3.76766968 480.31698608 C -1.44437635 477.56011963 6.98846960 475.95574951 18.99944115 472.34384155 C 33.25814438 468.91107178 48.89205551 468.80239868 64.92170715 473.05731201 C 81.15608215 478.23046875 98.04565430 479.24667358 114.91575623 475.40576172 C 131.51049805 469.26846313 148.72746277 468.44006348 166.17553711 471.77114868 C 181.70643616 477.03826904 196.40472412 478.81219482 210.88772583 477.14517212 C 223.56045532 474.36117554 235.09506226 470.46334839 246.88642883 469.85186768 C 258.89111328 469.62615967 270.41247559 471.14904785 281.69497681 475.53317261 C 293.91558838 478.50219727 306.90667725 477.84603882 321.36816406 474.66241455 C 337.35089111 471.93908691 354.45556641 469.49523926 372.48544312 467.40292358 C 391.23043823 465.51251221 410.40133667 463.71096802 429.83959961 462.00765991 C 449.47622681 460.28912354 469.10937500 458.46667480 360.66049194 473.93487549" stroke-width="1.78236806" fill="rgb(199, 243, 241)" opacity="1.0" stroke="rgb(19, 100, 80)" stroke-opacity="0.3765488" stroke-linecap="round" stroke-linejoin="round"/>
    <path d="M 407.66528320 499.31216431 C 398.87329102 499.60092163 390.07275391 499.90670776 381.27670288 500.19253540 C 372.45016479 500.51751709 363.56695557 500.85595703 354.69091797 501.19531250 C 345.73992920 501.57641602 336.66262817 502.02761841 327.44491577 502.55166626 C 318.10791016 503.15838623 308.65048218 503.89010620 298.95272827 504.70767212 C 289.01254272 505.60781860 278.81851196 506.56161499 268.35122681 507.56643677 C 257.56719971 508.62319946 246.41545105 509.68783569 234.94935608 510.71273804 C 223.11962891 511.65991211 210.92230225 512.52691650 198.35778809 513.30883789 C 185.44229126 513.95892334 172.21559143 514.41815186 158.72247314 514.68383789 C 144.98295593 514.73754883 131.08038330 514.59674072 117.14738464 514.29620361 C 103.25380707 513.76470947 89.45999908 513.02258301 75.93864441 512.12487793 C 62.89053345 510.99069214 50.53629303 509.70910645 39.02279663 508.30349731 C 28.48781967 506.74502563 19.18208122 505.04266357 11.34912586 503.23858643 C 5.25868750 501.33084106 1.14494503 499.36978149 -0.81750578 497.56195068 C -0.39792916 496.28094482 2.29101515 495.33822632 6.93713903 494.34826660 C 13.12766933 492.41104126 20.65837860 490.26834106 29.51149178 488.97958374 C 39.24495697 488.20208740 49.52941513 488.55929565 60.01997375 490.26882935 C 70.29803467 493.07250977 80.68025970 495.29019165 91.57446289 495.40692139 C 102.80381012 495.47042847 114.07047272 493.62304688 125.44445038 490.75277710 C 136.66197205 488.25183105 148.08316040 488.01226807 159.34823608 489.13479614 C 170.06323242 491.25503540 180.22912598 493.98657227 190.57685852 495.01306152 C 200.87046814 495.89862061 211.06291199 495.19445801 221.08512878 493.17974854 C 230.85543823 490.67486572 240.16416931 488.72537231 249.62063599 488.73992920 C 259.12374878 488.51412964 268.41317749 489.68737793 277.46960449 492.23510742 C 286.59292603 494.52655029 295.55691528 495.93887329 304.61892700 494.83517456 C 314.38815308 493.79022217 324.73385620 493.24142456 335.52734375 493.00268555 C 346.56851196 493.02963257 357.71166992 493.20318604 368.92697144 493.52844238 C 380.09219360 493.90951538 391.15502930 494.29776001 402.04663086 494.71475220 C 412.74774170 495.14257812 423.33261108 495.60516357 433.79745483 496.09457397 C 444.17211914 496.57336426 454.46322632 497.06423950 464.69107056 497.55822754 C 474.88952637 498.03680420 485.10754395 498.47869873 407.66528320 499.31216431" stroke-width="0.66394323" fill="rgb(207, 246, 250)" opacity="1.0" stroke="rgb(170, 255, 195)" stroke-opacity="0.47621217" stroke-linecap="round" stroke-linejoin="round"/>
    <path d="M 521.39453125 511.09149170 C 513.12573242 511.87002563 504.87823486 512.71124268 496.64712524 513.55877686 C 488.40057373 514.40661621 480.12139893 515.23193359 471.81863403 516.09423828 C 463.42437744 516.94201660 454.95278931 517.83312988 446.39840698 518.70281982 C 437.78628540 519.56213379 429.13891602 520.40960693 420.42944336 521.25885010 C 411.66107178 522.05847168 402.84625244 522.84930420 393.99929810 523.64392090 C 385.22573853 524.34729004 376.53573608 524.95593262 367.91845703 525.44171143 C 359.44659424 525.78875732 351.25314331 526.01544189 343.41815186 526.01269531 C 335.93133545 525.75189209 328.88790894 525.18157959 322.43438721 524.36395264 C 316.65866089 523.22326660 311.65747070 521.74810791 307.50817871 519.87701416 C 304.29708862 517.55798340 302.09222412 514.75750732 300.99835205 511.36914062 C 301.08145142 507.41180420 302.62612915 503.22842407 305.58248901 498.78601074 C 307.95755005 492.98809814 310.01730347 486.18115234 312.74148560 478.93899536 C 315.10180664 471.09329224 318.06710815 463.20785522 320.73733521 454.85968018 C 323.24554443 446.30560303 326.33398438 437.86120605 329.38937378 429.47470093 C 332.09960938 421.13476562 335.09283447 413.16879272 337.70541382 405.46884155 C 339.96505737 398.14935303 342.15408325 391.43997192 344.43923950 385.54153442 C 346.92379761 380.52148438 349.85861206 376.57305908 353.31112671 373.79339600 C 356.81213379 371.86392212 360.36206055 371.02587891 363.73965454 371.45223999 C 366.61239624 373.85412598 370.01934814 376.74172974 375.10418701 378.42398071 C 381.87265015 379.72451782 389.94912720 380.92993164 399.10772705 381.95556641 C 409.05535889 382.80584717 419.37084961 383.43643188 429.62158203 383.77578735 C 439.48986816 383.76495361 448.76623535 383.35778809 457.09173584 382.38406372 C 463.98501587 380.70635986 469.38079834 380.52716064 473.80151367 382.80798340 C 477.55261230 386.44238281 481.09335327 390.34539795 485.19467163 393.22753906 C 489.19137573 395.17254639 493.14932251 395.22567749 497.06094360 393.67254639 C 500.68963623 392.18408203 503.92868042 392.22064209 506.91564941 394.42175293 C 509.67999268 398.34426880 512.23004150 403.59295654 514.61938477 409.94818115 C 516.83831787 417.36749268 518.91778564 425.58480835 520.91516113 434.45742798 C 522.85852051 443.76452637 524.70495605 453.35833740 526.47814941 463.13861084 C 528.26776123 473.08340454 530.09521484 483.19177246 521.39453125 511.09149170" stroke-width="1.28298807" fill="rgb(132, 66, 29)" opacity="1.0" stroke="rgb(84, 85, 99)" stroke-opacity="0.858216" stroke-linecap="round" stroke-linejoin="round"/>
    <path d="M 427.69186401 405.98883057 C 422.69116211 406.02642822 417.70315552 406.14080811 412.76635742 406.24041748 C 407.97924805 406.14007568 403.38421631 405.83813477 399.02447510 405.38079834 C 394.95697021 404.68023682 391.17321777 403.58984375 387.75076294 402.11160278 C 384.93798828 400.30288696 382.93768311 398.07015991 381.89590454 395.27285767 C 381.87567139 391.86590576 382.15533447 387.97265625 382.22164917 383.47076416 C 382.09802246 378.65496826 382.60797119 373.37197876 382.29544067 367.52728271 C 382.28323364 361.08435059 382.45599365 354.09918213 382.37005615 346.72421265 C 382.37155151 339.12731934 382.58657837 331.34936523 382.17895508 323.47061157 C 382.54971313 315.53976440 382.23867798 307.53640747 382.33120728 299.35122681 C 382.45404053 291.33029175 382.40231323 283.40213013 382.19641113 275.49411011 C 382.62774658 267.64340210 382.05368042 259.99752808 382.18945312 252.53552246 C 382.46160889 245.49238586 381.36303711 238.49528503 381.88095093 231.45274353 C 381.56195068 224.81417847 382.02551270 218.59687805 381.66693115 212.79629517 C 381.94714355 207.56404114 381.33340454 203.26887512 382.24041748 199.77166748 C 384.84069824 197.17749023 388.68011475 195.03367615 393.39294434 193.25868225 C 398.73028564 191.75454712 404.60153198 190.53852844 410.95700073 189.68179321 C 417.65402222 189.21456909 424.43002319 189.16227722 431.00915527 189.48097229 C 437.23321533 190.15730286 442.97094727 191.26600647 448.15878296 192.81239319 C 452.66894531 194.72717285 456.15655518 197.06866455 458.25692749 199.77737427 C 458.57089233 203.34988403 458.36431885 207.61968994 458.50518799 212.41339111 C 458.40460205 217.54205322 458.53173828 222.97503662 458.45635986 228.76417542 C 458.63104248 234.76254272 458.26965332 240.77458191 458.56591797 247.03984070 C 458.56060791 253.44831848 458.69982910 259.94586182 458.68521118 266.39700317 C 458.52145386 272.74682617 458.72943115 279.26571655 458.62051392 286.09030151 C 458.85058594 292.98016357 458.75323486 300.00122070 458.50830078 307.10211182 C 458.85369873 314.27841187 458.63323975 321.45788574 458.56478882 328.66137695 C 458.69140625 335.80621338 458.60037231 342.93695068 458.78317261 350.08569336 C 458.61209106 357.31384277 458.79257202 364.47451782 458.71548462 371.33279419 C 458.96112061 377.90194702 458.84066772 384.27670288 458.78997803 390.73876953 C 458.60235596 397.30654907 458.55606079 403.83676147 427.69186401 405.98883057" stroke-width="2.00000000" fill="rgb(251, 251, 252)" opacity="1.0" stroke="rgb(51, 6, 0)" stroke-opacity="0.19370079" stroke-linecap="round" stroke-linejoin="round"/>
    <path d="M 456.25665283 198.36048889 C 451.79241943 198.41748047 447.34823608 198.33583069 442.90625000 198.41845703 C 438.64270020 198.45350647 434.45291138 198.42094421 430.27200317 198.45932007 C 426.16870117 198.72735596 422.12167358 198.40246582 418.15237427 198.55462646 C 414.25759888 198.54344177 410.28466797 198.43995667 406.33377075 198.45707703 C 402.54284668 198.53881836 399.04104614 198.59040833 395.83880615 198.37826538 C 392.91531372 198.51805115 390.42605591 198.23112488 388.30438232 198.51402283 C 386.50039673 198.67483521 385.02764893 198.57147217 384.16268921 198.05664062 C 384.04824829 196.59942627 384.17687988 194.27166748 384.25384521 191.22969055 C 384.20520020 187.67897034 384.17608643 183.86923218 384.22552490 180.27827454 C 384.28323364 177.15666199 384.07852173 174.61195374 383.98657227 172.79971313 C 384.57589722 172.01864624 385.86499023 172.07392883 387.79818726 172.10960388 C 390.36734009 172.03111267 393.53350830 172.13955688 397.14257812 172.16871643 C 401.02270508 172.28149414 405.06842041 172.26002502 409.28384399 172.30624390 C 413.59219360 172.42185974 417.87966919 172.47962952 422.10119629 172.42944336 C 426.19732666 172.34312439 430.12982178 172.23687744 433.88909912 172.26847839 C 437.46780396 172.23184204 440.79736328 172.05319214 443.82629395 172.11158752 C 446.52200317 172.14204407 448.84655762 172.01101685 450.89495850 172.03384399 C 452.65026855 172.02429199 454.03094482 172.10629272 455.01855469 172.18940735 C 455.69226074 172.24269104 456.23828125 172.16758728 456.52017212 172.20275879 C 456.34988403 172.14100647 455.93109131 171.99012756 456.25665283 198.36048889" stroke-width="0.93069953" fill="rgb(243, 72, 71)" opacity="1.0" stroke="rgb(124, 20, 23)" stroke-opacity="0.8170256" stroke-linecap="round" stroke-linejoin="round"/>
    <path d="M 437.88961792 144.94635010 C 437.91226196 147.10700989 437.61566162 149.31022644 437.15780640 151.49224854 C 436.80694580 153.66748047 436.22674561 155.88510132 435.54846191 158.03044128 C 434.74472046 160.06828308 433.82818604 162.04962158 432.96151733 164.05413818 C 432.09005737 166.05535889 431.12136841 167.96177673 430.00738525 169.74180603 C 428.80273438 171.32743835 427.56530762 172.65856934 426.24761963 173.70877075 C 424.69888306 174.40762329 422.93167114 174.65026855 421.04833984 174.58100891 C 419.08621216 174.52291870 417.04849243 174.55688477 415.01544189 174.64619446 C 413.08422852 174.56553650 411.31939697 174.16163635 409.75924683 173.26277161 C 408.32174683 171.81620789 406.93191528 170.19273376 405.64334106 168.43572998 C 404.53353882 166.41035461 403.61724854 164.21374512 402.83193970 162.02424622 C 402.14852905 159.88513184 401.64907837 157.66363525 401.31311035 155.36065674 C 401.19418335 153.16680908 401.01220703 151.08206177 400.90713501 149.08638000 C 400.72119141 147.25213623 400.64746094 145.68363953 400.99838257 144.48449707 C 401.74798584 143.45776367 402.89678955 142.91918945 404.25711060 142.50439453 C 405.60284424 142.18275452 406.77624512 141.68992615 407.88919067 140.69990540 C 409.10440063 139.57142639 410.52856445 138.39151001 411.96563721 137.33355713 C 413.63757324 136.51271057 415.64749146 135.86688232 417.90408325 135.45599365 C 420.21762085 135.45027161 422.51425171 135.94177246 424.67599487 136.84983826 C 426.60833740 138.08958435 428.18368530 139.66223145 429.65164185 141.26039124 C 431.71066284 142.19773865 433.91336060 142.65545654 437.88961792 144.94635010" stroke-width="0.91417193" fill="rgb(233, 75, 80)" opacity="1.0" stroke="rgb(255, 35, 0)" stroke-opacity="0.19919932" stroke-linecap="round" stroke-linejoin="round"/>
    <path d="M 469.43399048 59.16205978 C 468.33636475 63.21006775 466.37875366 66.88487244 464.43093872 70.90038300 C 462.40475464 75.03424835 460.29754639 79.48780823 458.02560425 84.07362366 C 455.44183350 88.65476227 453.04830933 93.71218109 450.60687256 98.90806580 C 447.77297974 104.16236877 445.23223877 109.67899323 442.47827148 115.13527679 C 439.89694214 120.50334167 437.11886597 125.37979126 434.84939575 129.99072266 C 432.99426270 134.16397095 431.43386841 137.42724609 429.32006836 139.18516541 C 426.29980469 139.37048340 422.59451294 139.31221008 418.79534912 139.26336670 C 415.26034546 139.21092224 412.09231567 139.26901245 409.30392456 139.24139404 C 407.34744263 137.05061340 405.58517456 133.37191772 403.87042236 129.05760193 C 401.54598999 124.51289368 399.39111328 119.21501160 396.52966309 113.90096283 C 393.79293823 108.04087830 390.86645508 102.05275726 388.16757202 95.87786102 C 385.27777100 90.02804565 382.65151978 84.23071289 379.93930054 78.92958832 C 377.38177490 74.03791046 375.43188477 69.32966614 373.65145874 65.35391235 C 371.88256836 62.22139740 371.41433716 59.87221909 371.51565552 58.56476212 C 372.44989014 58.90536880 373.88067627 59.48972321 376.09359741 59.24208450 C 379.13803101 59.38871765 383.09756470 59.43485260 387.82830811 59.26037598 C 393.00823975 59.12919617 398.53680420 59.38104630 404.48602295 59.22704315 C 410.85949707 59.22879028 417.54541016 59.16831589 424.49160767 59.31728363 C 431.44696045 59.42473602 438.51400757 59.14760208 445.66189575 59.30020142 C 452.81811523 59.02679062 460.02828979 59.61964035 469.43399048 59.16205978" stroke-width="1.97702074" fill="rgb(246, 180, 52)" opacity="1.0" stroke="rgb(53, 14, 0)" stroke-opacity="0.42519706" stroke-linecap="round" stroke-linejoin="round"/>
    <path d="M 406.59078979 257.44763184 C 405.43606567 257.42910767 404.26635742 257.35964966 403.15179443 257.52520752 C 402.15896606 257.54394531 401.39425659 257.35168457 400.78723145 257.28488159 C 400.43081665 257.26156616 400.20852661 257.10327148 400.17993164 256.62460327 C 400.24499512 255.89785767 400.21530151 254.99645996 400.21282959 254.01136780 C 400.24224854 252.87985229 400.17636108 251.50741577 400.11029053 249.96232605 C 400.20446777 248.41340637 400.20477295 246.95011902 400.11764526 245.50364685 C 400.09683228 244.03602600 400.02804565 242.61231995 399.95321655 241.30381775 C 400.09036255 240.15116882 400.25302124 239.17007446 400.24639893 238.36238098 C 399.97683716 237.70086670 399.92669678 237.20446777 400.30847168 236.91870117 C 400.85955811 236.78639221 401.68151855 236.76313782 402.68542480 236.78099060 C 403.76544189 236.62391663 404.97802734 236.67652893 406.27468872 236.86514282 C 407.50656128 236.75859070 408.64523315 236.64685059 409.79473877 236.72914124 C 410.76306152 236.75593567 411.54937744 236.63130188 412.15737915 236.63975525 C 412.45373535 236.89041138 412.49227905 237.31860352 412.44308472 238.01846313 C 412.37167358 238.91548157 412.36108398 239.91099548 412.33755493 241.01223755 C 412.32986450 242.27882385 412.40853882 243.68540955 412.31072998 245.13804626 C 412.24279785 246.60293579 412.26708984 248.10572815 412.28488159 249.64085388 C 412.42181396 251.17065430 412.38568115 252.57473755 412.34603882 253.83723450 C 412.38034058 255.02828979 412.32650757 256.07510376 412.36056519 256.85321045 C 412.66030884 257.38717651 412.95471191 257.72344971 406.59078979 257.44763184" stroke-width="1.00327528" fill="rgb(76, 197, 237)" opacity="1.0" stroke="rgb(147, 218, 235)" stroke-opacity="0.7067163" stroke-linecap="round" stroke-linejoin="round"/>
    <path d="M 436.68038940 258.20022583 C 435.76519775 257.96636963 434.86651611 257.85363770 433.96914673 257.86734009 C 432.97729492 257.86367798 431.97448730 257.79385376 430.99758911 257.75131226 C 430.09848022 257.63348389 429.23779297 257.63916016 428.34204102 257.77593994 C 427.47778320 257.81359863 426.72714233 257.73822021 426.15936279 257.52151489 C 425.58795166 257.54019165 425.06011963 257.57342529 424.61682129 257.45846558 C 424.45526123 257.10067749 424.45675659 256.51062012 424.59106445 255.74655151 C 424.59954834 254.81028748 424.68835449 253.71704102 424.67404175 252.56054688 C 424.61865234 251.29309082 424.59722900 249.82815552 424.75564575 248.35437012 C 424.64703369 246.87892151 424.76644897 245.37139893 424.82708740 243.86044312 C 424.69470215 242.33782959 424.52554321 240.95288086 424.55209351 239.76310730 C 424.72244263 238.74177551 424.72033691 237.88716125 424.56781006 237.26626587 C 424.69879150 236.90214539 425.06036377 236.83476257 425.54449463 237.00569153 C 426.14343262 237.21630859 426.97442627 237.33001709 427.98040771 237.36456299 C 429.06454468 237.40954590 430.15005493 237.41229248 431.28649902 237.41198730 C 432.48754883 237.53182983 433.62045288 237.49101257 434.59902954 237.47268677 C 435.41326904 237.35499573 436.15951538 237.23870850 436.78549194 237.16311646 C 437.24511719 237.25088501 437.45129395 237.60879517 437.46231079 238.17057800 C 437.31011963 238.76283264 437.21649170 239.44206238 437.23556519 240.26512146 C 437.28118896 241.26461792 437.18652344 242.28567505 437.25881958 243.32566833 C 437.20587158 244.36671448 437.05334473 245.38267517 436.68038940 258.20022583" stroke-width="1.06037784" fill="rgb(78, 197, 233)" opacity="1.0" stroke="rgb(151, 221, 234)" stroke-opacity="0.6810914" stroke-linecap="round" stroke-linejoin="round"/>
    <path d="M 400.67398071 310.27438354 C 400.37271118 308.91854858 400.43771362 307.68536377 400.68862915 306.44586182 C 400.51193237 305.05184937 400.42276001 303.63024902 400.46426392 302.34387207 C 400.54898071 301.19918823 400.60467529 300.02059937 400.72180176 298.80786133 C 400.66058350 297.54672241 400.54879761 296.30154419 400.45977783 295.21646118 C 400.43231201 294.27490234 400.68286133 293.41806030 400.84695435 292.63586426 C 400.69137573 291.97216797 400.46029663 291.48071289 400.44335938 291.11239624 C 400.73214722 290.75738525 401.18908691 290.49041748 401.71630859 290.39376831 C 402.50396729 290.58798218 403.55056763 290.67163086 404.66394043 290.48941040 C 405.75433350 290.36401367 406.90206909 290.45599365 408.11010742 290.52462769 C 409.25289917 290.43463135 410.30566406 290.57382202 411.25405884 290.69522095 C 411.93762207 290.64709473 412.33981323 290.55191040 412.54034424 290.76599121 C 412.59387207 291.34835815 412.54501343 292.25402832 412.39904785 293.28927612 C 412.46615601 294.39236450 412.43362427 295.57592773 412.39315796 296.89703369 C 412.36837769 298.28146362 412.53555298 299.70999146 412.58599854 301.17098999 C 412.43505859 302.43844604 412.48587036 303.50482178 412.62451172 304.52838135 C 412.64004517 305.47940063 412.58099365 306.27502441 412.43176270 306.93054199 C 412.38116455 307.46246338 412.32568359 307.87664795 412.27832031 308.22134399 C 412.32632446 308.60781860 412.33151245 309.13806152 412.44226074 309.48068237 C 412.64230347 309.68173218 412.69732666 309.93045044 412.67245483 310.14770508 C 412.69644165 310.40832520 412.63717651 310.65826416 400.67398071 310.27438354" stroke-width="0.90339994" fill="rgb(72, 199, 239)" opacity="1.0" stroke="rgb(98, 195, 218)" stroke-opacity="0.8240329" stroke-linecap="round" stroke-linejoin="round"/>
    <path d="M 436.27395630 290.58654785 C 436.30056763 291.87884521 436.44451904 293.15234375 436.46322632 294.39019775 C 436.40734863 295.71453857 436.48669434 297.10818481 436.48620605 298.45880127 C 436.50247192 299.75607300 436.47875977 301.08001709 436.52285767 302.46759033 C 436.56857300 303.81488037 436.67526245 305.00485229 436.62698364 306.08950806 C 436.51837158 307.12658691 436.38064575 308.14266968 436.42346191 309.07550049 C 436.56051636 309.84600830 436.61669922 310.38159180 436.49407959 310.60061646 C 436.28155518 310.55279541 435.91528320 310.49688721 435.39715576 310.53536987 C 434.66253662 310.60339355 433.69638062 310.63366699 432.62805176 310.66006470 C 431.58734131 310.44912720 430.57675171 310.54626465 429.57986450 310.66738892 C 428.54150391 310.55947876 427.47534180 310.50668335 426.51678467 310.49044800 C 425.76565552 310.45559692 425.16687012 310.42233276 424.71655273 310.39273071 C 424.59475708 309.99554443 424.57116699 309.25451660 424.67742920 308.30236816 C 424.56820679 307.31857300 424.61187744 306.26461792 424.77877808 305.10870361 C 424.68759155 303.77670288 424.69808960 302.29388428 424.72274780 300.82427979 C 425.06814575 299.55969238 424.95562744 298.47860718 424.56298828 297.50469971 C 424.59317017 296.56243896 424.63967896 295.47769165 424.59368896 294.38470459 C 424.85305786 293.43774414 424.97357178 292.62429810 424.85937500 291.84085083 C 424.86312866 291.16470337 425.09658813 290.67218018 425.33578491 290.53005981 C 425.56307983 290.61230469 425.66439819 290.71939087 425.73715210 290.79953003 C 425.85733032 290.83013916 426.01492310 290.75082397 436.27395630 290.58654785" stroke-width="0.98728544" fill="rgb(74, 198, 236)" opacity="1.0" stroke="rgb(100, 196, 221)" stroke-opacity="0.85478526" stroke-linecap="round" stroke-linejoin="round"/>
    <path d="M 407.59918213 362.62466431 C 406.08865356 362.80691528 404.66366577 362.82986450 403.44326782 362.82809448 C 402.47137451 362.62823486 401.63031006 362.59100342 400.94244385 362.77136230 C 400.46096802 362.84490967 400.22561646 362.59783936 400.14080811 362.09597778 C 400.16354370 361.38793945 400.19024658 360.46948242 400.22241211 359.32836914 C 400.21649170 358.01950073 400.22570801 356.64093018 400.24511719 355.26501465 C 400.30221558 353.85894775 400.32019043 352.40435791 400.24340820 350.98928833 C 400.09432983 349.69012451 400.18188477 348.46582031 400.32675171 347.29809570 C 400.17126465 346.15847778 399.97613525 345.09252930 399.86428833 344.18194580 C 399.77490234 343.48718262 399.96844482 343.01113892 400.46609497 342.78808594 C 401.25247192 342.96002197 402.18832397 343.00958252 403.25021362 342.75375366 C 404.35449219 342.66189575 405.51193237 342.83190918 406.67584229 342.90838623 C 407.92315674 342.65472412 409.04409790 342.57263184 410.05276489 342.76419067 C 410.92907715 342.72860718 411.62310791 342.62393188 412.23635864 342.65237427 C 412.64254761 342.84039307 412.82510376 343.16824341 412.81817627 343.72976685 C 412.67370605 344.49374390 412.73641968 345.36865234 412.91653442 346.39511108 C 412.83837891 347.54476929 412.83590698 348.77868652 412.76654053 349.98489380 C 412.79147339 351.23013306 412.84951782 352.51397705 412.81286621 353.80752563 C 412.67581177 355.06195068 412.60281372 356.32635498 412.73538208 357.62124634 C 412.71380615 358.84194946 412.62448120 360.02691650 412.61682129 361.20895386 C 412.82614136 362.36416626 412.90148926 363.52529907 407.59918213 362.62466431" stroke-width="1.02888274" fill="rgb(69, 195, 236)" opacity="1.0" stroke="rgb(132, 211, 230)" stroke-opacity="0.69908184" stroke-linecap="round" stroke-linejoin="round"/>
    <path d="M 434.58685303 342.89129639 C 435.05740356 342.71499634 435.57336426 342.69140625 436.06195068 342.79776001 C 436.51419067 342.84136963 436.86233521 342.90237427 437.03121948 343.13540649 C 437.03500366 343.63925171 437.09039307 344.36071777 437.17050171 345.28057861 C 437.24133301 346.23800659 437.19952393 347.26626587 437.00881958 348.38534546 C 436.96264648 349.62246704 437.02062988 350.93905640 436.97192383 352.29632568 C 436.96069336 353.69552612 437.02713013 355.04293823 437.02734375 356.28350830 C 436.91659546 357.50228882 436.81851196 358.71566772 436.77951050 359.80822754 C 436.76245117 360.81100464 436.69082642 361.68698120 436.68804932 362.36129761 C 436.85284424 362.82485962 436.97351074 363.18954468 436.74844360 363.38037109 C 436.16601562 363.41732788 435.37280273 363.44293213 434.47885132 363.53323364 C 433.48861694 363.54400635 432.35494995 363.36474609 431.19119263 363.27359009 C 430.00646973 363.40545654 428.86123657 363.51229858 427.81365967 363.36465454 C 426.89764404 363.37063599 426.06997681 363.31637573 425.33361816 363.08593750 C 424.92666626 362.62207031 424.79699707 362.06329346 424.76736450 361.27056885 C 424.77294922 360.22979736 424.73785400 359.09393311 424.80978394 357.90750122 C 424.86022949 356.68392944 424.79965210 355.42837524 424.65460205 354.10305786 C 424.64764404 352.73440552 424.77990723 351.39016724 424.83343506 350.07986450 C 424.75427246 348.86761475 424.60949707 347.72232056 424.66448975 346.60452271 C 424.86700439 345.60910034 424.86834717 344.61523438 424.76794434 343.74334717 C 424.50332642 343.04962158 424.23577881 342.60427856 434.58685303 342.89129639" stroke-width="1.08656633" fill="rgb(74, 195, 236)" opacity="1.0" stroke="rgb(136, 219, 235)" stroke-opacity="0.689766" stroke-linecap="round" stroke-linejoin="round"/>
    <path d="M 292.98843384 521.51324463 C 286.19534302 521.25756836 279.46090698 521.07586670 272.77316284 520.90686035 C 266.04635620 520.76287842 259.27978516 520.65447998 252.49595642 520.57293701 C 245.71096802 520.47827148 238.84480286 520.41656494 231.90217590 520.38427734 C 224.91018677 520.35278320 217.79412842 520.28802490 210.50238037 520.16918945 C 203.10174561 520.09259033 195.58551025 520.03796387 187.94512939 519.98583984 C 180.14935303 519.94836426 172.15013123 519.90179443 163.96275330 519.82373047 C 155.61735535 519.76953125 147.12237549 519.70074463 138.43087769 519.63793945 C 129.60406494 519.60168457 120.67977905 519.55786133 111.65166473 519.56756592 C 102.55475616 519.57611084 93.43673706 519.52478027 84.33582306 519.46142578 C 75.27771759 519.40246582 66.32334137 519.28619385 57.59820938 519.11181641 C 49.11063004 518.87109375 40.94222260 518.49322510 33.13377380 518.00189209 C 25.82616425 517.38140869 19.09796333 516.59960938 13.06584930 515.64886475 C 7.75291967 514.48870850 3.24544072 513.12835693 -0.28893155 511.45593262 C -2.75357652 509.48086548 -4.26893091 507.46731567 -4.67601252 505.46777344 C -3.83761835 503.52194214 -1.89700711 501.80410767 1.19896150 500.46859741 C 5.55524158 499.45541382 10.73662853 498.20996094 16.68673897 496.76705933 C 22.96000099 495.07186890 29.75011635 493.69525146 37.06971359 493.33291626 C 44.52077866 492.95559692 52.25464630 493.70294189 60.14674759 495.07849121 C 67.99662018 496.99243164 75.74694824 498.75238037 83.71975708 499.69021606 C 91.73379517 500.26470947 99.77234650 500.06060791 107.68312073 499.07986450 C 115.63748169 497.80331421 123.54853058 496.07147217 131.37396240 494.75436401 C 139.03111267 493.33779907 146.68107605 493.00048828 154.27476501 493.47848511 C 161.68341064 494.18991089 168.99304199 495.68960571 176.30403137 497.26461792 C 183.46014404 498.91690063 190.63824463 499.99609375 197.82757568 500.14776611 C 205.04856873 500.24496460 212.36468506 499.66162109 219.66203308 498.37191772 C 226.91534424 496.70239258 234.24116516 495.12838745 241.73503113 493.86407471 C 249.15109253 493.22491455 256.40167236 493.29275513 263.44882202 493.93682861 C 269.96292114 495.02706909 276.00936890 496.46505737 281.83660889 497.70889282 C 287.53799438 498.79537964 293.09011841 499.58526611 298.40579224 499.79046631 C 303.40676880 499.17797852 308.34390259 498.08547974 292.98843384 521.51324463" stroke-width="0.62484789" fill="rgb(9, 165, 173)" opacity="1.0" stroke="rgb(32, 154, 153)" stroke-opacity="0.5313841" stroke-linecap="round" stroke-linejoin="round"/>
    <path d="M 461.07424927 406.58026123 C 456.78451538 406.32669067 452.34957886 406.57208252 447.80529785 406.67306519 C 443.07775879 406.53283691 438.31314087 406.45654297 433.49841309 406.43603516 C 428.71609497 406.65734863 424.07937622 406.56341553 419.48474121 406.61114502 C 414.80947876 406.57135010 410.20220947 406.53842163 405.77862549 406.53643799 C 401.61477661 406.53424072 397.72558594 406.58987427 393.99218750 406.46313477 C 390.49234009 406.52929688 387.44165039 406.61572266 384.81079102 406.46563721 C 382.71841431 406.61123657 381.20425415 406.65090942 380.39025879 406.38549805 C 380.20971680 405.39202881 380.33868408 403.95541382 380.40338135 402.38519287 C 380.36563110 400.51657104 380.49490356 398.51132202 380.59994507 396.75219727 C 380.49697876 395.36950684 380.45648193 394.41085815 380.76382446 394.02291870 C 381.84487915 394.08599854 383.71310425 394.07714844 386.20587158 394.14282227 C 389.18945312 394.02261353 392.61138916 394.14968872 396.43685913 394.02212524 C 400.55801392 393.96365356 404.77810669 394.15994263 409.08529663 394.12557983 C 413.53158569 394.01803589 418.07028198 393.98858643 422.54821777 394.15777588 C 426.93975830 394.10519409 431.21902466 394.01425171 435.25848389 394.10067749 C 439.15780640 394.08276367 442.91925049 394.06433105 446.40460205 393.93777466 C 449.44042969 394.15353394 452.05377197 394.13745117 454.19326782 393.96163940 C 455.90274048 394.18045044 457.36547852 393.93841553 458.57162476 393.73587036 C 459.57723999 393.81634521 460.39251709 393.91442871 460.88812256 393.71615601 C 461.13485718 393.51840210 461.31774902 393.66760254 461.07424927 406.58026123" stroke-width="1.61087489" fill="rgb(250, 216, 51)" opacity="1.0" stroke="rgb(240, 209, 79)" stroke-opacity="1.0" stroke-linecap="round" stroke-linejoin="round"/>
    <path d="M 436.76507568 149.10794067 C 436.92868042 150.35034180 437.03259277 151.40643311 437.21884155 152.47367859 C 437.14395142 153.69261169 437.27502441 155.08187866 437.24777222 156.72389221 C 437.08822632 158.39476013 437.21282959 160.02192688 437.36166382 161.49293518 C 437.08157349 162.66560364 437.27871704 163.70521545 437.48724365 164.66017151 C 437.38024902 165.78153992 437.25726318 166.91325378 437.53457642 167.89346313 C 437.45202637 168.92430115 437.51452637 170.09027100 437.52279663 171.00721741 C 437.63348389 171.52360535 437.87841797 171.93440247 437.93887329 172.10891724 C 437.53204346 172.16818237 436.81933594 172.17330933 435.96926880 172.14433289 C 434.97686768 172.24397278 433.76983643 172.44560242 432.47399902 172.36357117 C 431.13821411 172.22398376 429.89154053 172.08660889 428.81039429 172.07795715 C 427.89038086 172.20533752 427.19702148 172.19888306 426.78756714 172.00645447 C 426.68307495 171.60566711 426.74761963 170.93269348 426.87719727 169.91926575 C 427.04656982 168.69007874 427.11187744 167.40611267 427.03369141 166.01756287 C 427.08023071 164.44879150 427.01358032 162.81976318 426.68231201 161.45159912 C 426.79144287 160.08728027 426.92849731 158.65040588 427.02911377 157.28237915 C 426.85165405 156.11853027 426.79324341 155.21948242 426.90847778 154.35375977 C 426.64123535 153.46517944 426.68676758 152.64393616 426.94567871 151.96142578 C 427.06832886 151.33502197 426.95138550 150.75010681 426.70980835 150.25028992 C 426.66174316 149.78569031 426.70346069 149.46040344 426.77264404 149.33346558 C 426.65393066 149.28399658 426.79116821 149.29873657 436.76507568 149.10794067" stroke-width="0.60854840" fill="rgb(250, 250, 251)" opacity="1.0" stroke="rgb(222, 211, 208)" stroke-opacity="0.7650729" stroke-linecap="round" stroke-linejoin="round"/>
    <path d="M 409.89254761 172.18093872 C 407.68646240 172.26022339 405.87536621 172.27107239 404.33679199 172.27827454 C 403.01507568 172.13552856 401.98968506 172.26223755 401.33267212 172.22261047 C 401.09054565 171.77189636 401.24053955 170.83409119 401.28070068 169.28605652 C 401.37063599 167.46031189 401.57388306 165.55104065 401.30166626 163.51518250 C 401.07983398 161.29095459 401.07760620 158.94702148 401.61370850 156.90818787 C 401.44024658 155.00061035 401.28567505 153.13916016 401.27743530 151.25205994 C 401.45028687 149.82789612 401.42568970 148.85090637 401.63793945 148.13993835 C 402.28161621 148.35137939 403.56304932 148.70654297 405.03042603 148.89546204 C 406.50506592 149.13243103 407.92196655 149.23170471 409.20507812 149.01150513 C 409.89205933 148.53689575 410.12316895 148.01008606 409.89254761 172.18093872" stroke-width="0.66272366" fill="rgb(250, 249, 248)" opacity="1.0" stroke="rgb(200, 160, 158)" stroke-opacity="0.9663949" stroke-linecap="round" stroke-linejoin="round"/>
    <path d="M 43.74494171 46.97275543 C 43.79272079 46.56931686 43.83831406 46.16808319 43.72193909 45.66780472 C 43.69804764 45.21719742 43.56914902 44.72164154 43.73125458 44.51522064 C 43.81967163 44.63868332 44.39625549 44.70230865 44.90382385 44.90347290 C 45.55126953 44.98259354 46.06827927 45.24632263 46.52970505 45.82920074 C 46.96280670 46.30709076 47.47037506 46.76621246 47.87633133 47.21865082 C 48.45183563 47.57229233 48.86359787 47.77289581 48.91306686 48.31067657 C 48.95802307 48.71206665 48.84023666 49.18231201 48.78664398 49.65328598 C 48.75398254 50.06815338 48.59889221 50.22565842 48.13051987 50.31285477 C 47.68256378 50.07830429 47.15914154 49.94005203 46.55421829 49.47979736 C 45.75170517 49.16533661 44.92471313 48.93534470 43.74494171 46.97275543" stroke-width="0.37117761" fill="rgb(243, 248, 250)" opacity="1.0" stroke="rgb(168, 155, 120)" stroke-opacity="0.5784798" stroke-linecap="round" stroke-linejoin="round"/>
    <path d="M 198.48596191 59.26011276 C 198.34585571 59.27278519 198.23948669 59.33155823 198.12187195 59.37739944 C 198.02224731 59.44330978 197.97386169 59.45946503 197.97488403 59.56245041 C 197.99710083 59.66547775 197.94888306 59.75100708 197.87008667 59.88777924 C 197.81954956 60.03138351 197.80560303 60.18750381 197.77354431 60.25698090 C 197.76292419 60.17230606 197.75534058 60.10727310 197.78158569 60.09569931 C 197.82633972 60.12147141 197.83691406 60.08157349 197.82637024 60.03857040 C 197.77148438 60.00054932 197.75259399 59.94458389 197.73080444 59.93158340 C 197.66670227 59.92213440 197.56030273 59.81987000 197.42066956 59.71374512 C 197.34922791 59.61290741 197.33509827 59.51597595 197.39924622 59.38027573 C 197.40383911 59.22367477 197.32681274 59.11404800 198.48596191 59.26011276" stroke-width="1.82523119" fill="rgb(49, 101, 227)" opacity="1.0" stroke="rgb(4, 1, 9)" stroke-opacity="0.7168091" stroke-linecap="round" stroke-linejoin="round"/>
    <path d="M 351.49960327 71.78054047 C 351.48757935 71.76651001 351.49447632 71.76830292 351.49951172 71.78326416 C 351.49221802 71.77102661 351.49182129 71.76729584 351.50289917 71.76983643 C 351.49078369 71.77990723 351.49856567 71.76942444 351.49655151 71.76834869 C 351.49945068 71.77676392 351.49438477 71.76960754 351.49774170 71.77122498 C 351.50234985 71.77693176 351.49417114 71.76654816 351.50079346 71.78065491 C 351.49673462 71.76651001 351.49612427 71.76662445 351.50390625 71.77593231 C 351.49093628 71.77394867 351.49990845 71.76201630 351.50088501 71.77468109 C 351.49005127 71.76792145 351.50366211 71.76629639 351.49468994 71.77578735 C 351.49221802 71.76307678 351.49887085 71.76493073 351.50259399 71.77420044 C 351.48324585 71.75584412 351.50793457 71.77439117 351.49960327 71.78054047" stroke-width="0.00000000" fill="rgb(0, 0, 0)" opacity="1.0" stroke="rgb(81, 94, 133)" stroke-opacity="1.0" stroke-linecap="round" stroke-linejoin="round"/>
    <path d="M 145.14047241 83.14833832 C 145.59017944 83.61959839 145.96836853 83.99536133 146.42443848 84.27618408 C 146.72830200 84.67509460 146.96792603 85.21549225 147.03245544 85.82130432 C 146.75576782 86.27777100 146.57270813 86.57084656 146.57267761 86.78963470 C 146.59216309 86.94097900 146.52980042 87.03519440 146.38972473 87.26639557 C 146.10311890 87.23249054 145.81962585 87.23190308 145.60908508 87.37562561 C 145.41320801 87.40713501 145.13595581 87.32043457 144.90895081 87.19358826 C 144.71466064 86.68905640 144.28608704 86.38605499 143.71325684 86.12015533 C 143.28024292 85.65554047 142.65446472 85.22768402 142.12014771 84.79940796 C 141.81568909 84.30259705 141.71685791 83.71437073 141.70234680 83.11067200 C 141.33694458 82.44193268 141.05679321 81.81573486 145.14047241 83.14833832" stroke-width="0.42357507" fill="rgb(241, 244, 244)" opacity="1.0" stroke="rgb(255, 255, 255)" stroke-opacity="0.35641038" stroke-linecap="round" stroke-linejoin="round"/>
    <path d="M 398.66845703 24.64522552 C 398.94256592 24.99714279 399.28125000 25.32349968 399.61291504 25.67680359 C 399.87274170 25.91013527 400.02194214 26.07987404 400.07385254 26.16859055 C 399.99227905 26.27238655 399.86557007 26.40371895 399.70587158 26.57032394 C 399.64791870 26.68981743 399.70462036 26.76520348 399.76153564 26.73567581 C 399.64739990 26.69693184 399.47940063 26.69998169 399.41110229 26.76550293 C 399.36544800 26.78165817 399.33465576 26.72448921 399.40908813 26.61625862 C 399.35144043 26.44960403 399.20986938 26.21022987 398.89550781 26.07051468 C 398.56365967 26.19149780 398.32180786 26.35149574 398.37164307 26.27375031 C 398.11889648 26.19709015 398.02044678 25.87470245 397.94589233 25.49823189 C 397.93725586 25.25356102 397.90625000 25.09378624 398.66845703 24.64522552" stroke-width="1.39078200" fill="rgb(103, 115, 139)" opacity="1.0" stroke="rgb(6, 3, 0)" stroke-opacity="0.46753094" stroke-linecap="round" stroke-linejoin="round"/>
    <path d="M 201.35070801 62.86430740 C 200.31510925 62.67761612 199.66336060 62.27508163 199.06016541 61.67510223 C 198.37286377 61.28834152 198.00325012 60.60124588 197.60820007 60.13888931 C 197.36447144 59.89907074 197.27552795 59.55576324 197.28884888 59.21305466 C 197.53692627 59.05173492 197.88690186 58.94034576 198.22404480 58.69967651 C 198.59992981 58.77680588 198.99298096 58.69639587 199.39747620 58.47470856 C 199.70698547 58.65871811 199.92062378 59.10495377 200.32476807 59.58419800 C 200.85391235 60.06328201 201.23779297 60.58060837 201.77273560 61.09336472 C 202.38259888 61.53472519 202.71154785 61.81833267 202.73568726 61.96105576 C 202.73550415 62.25314713 202.63888550 62.58899689 202.25894165 63.08368683 C 201.91050720 63.45935059 201.32104492 63.79860687 201.35070801 62.86430740" stroke-width="0.52854633" fill="rgb(241, 246, 248)" opacity="1.0" stroke="rgb(144, 147, 156)" stroke-opacity="0.9440765" stroke-linecap="round" stroke-linejoin="round"/>
    <path d="M 351.57467651 73.54678345 C 351.04782104 73.01856995 350.38854980 72.50157928 349.78610229 72.14717865 C 349.45663452 71.42247009 348.96920776 70.93766785 348.48471069 70.51045227 C 348.17926025 70.17830658 348.16394043 69.64094543 348.43093872 69.00737000 C 348.46520996 68.52623749 348.57812500 68.44745636 349.01669312 68.43715668 C 349.55578613 68.45306396 350.05026245 68.58698273 350.26245117 68.90712738 C 350.28421021 69.35902405 350.48989868 69.60360718 350.77645874 69.81129456 C 351.11343384 70.09500885 351.40975952 70.22709656 351.75317383 70.28280640 C 351.98544312 70.35792542 352.36251831 70.51857758 352.60882568 71.08451080 C 353.02368164 71.57629395 353.25653076 72.22254181 353.74807739 72.78885651 C 354.10021973 73.67719269 354.32135010 74.46058655 351.57467651 73.54678345" stroke-width="0.42457455" fill="rgb(237, 246, 249)" opacity="1.0" stroke="rgb(206, 195, 176)" stroke-opacity="0.66865015" stroke-linecap="round" stroke-linejoin="round"/>
    <path d="M 399.12109375 26.06683350 C 398.34646606 25.59356689 397.54400635 24.96021271 396.85552979 24.54285240 C 396.52191162 24.06951332 396.43972778 23.69808578 396.16897583 23.36591339 C 395.61999512 23.24005127 395.54666138 23.11259460 395.59933472 22.75243378 C 395.69525146 22.24600029 395.97381592 21.94441795 396.03723145 21.67611122 C 396.39328003 21.67366982 396.89245605 21.72529984 397.37969971 21.78971672 C 397.88882446 22.03958130 398.46826172 22.37742805 398.90072632 22.81164742 C 399.26550293 23.22618866 399.65280151 23.76076698 399.89120483 24.36690331 C 400.03594971 25.06927490 400.33151245 25.45902443 400.53894043 25.55407333 C 400.85446167 25.37928963 401.28140259 25.13591576 401.37982178 25.37302780 C 401.73999023 25.95876503 402.22540283 26.42446899 399.12109375 26.06683350" stroke-width="0.43707114" fill="rgb(234, 241, 250)" opacity="1.0" stroke="rgb(211, 210, 207)" stroke-opacity="0.5129083" stroke-linecap="round" stroke-linejoin="round"/>
  </g>
</svg>
