<svg xmlns="http://www.w3.org/2000/svg" viewBox="0 0 512 512" height="512.0px" width="512.0px">
<path id="" fill="#e6f3ff" fill-opacity="1.0" stroke="#000000" stroke-width="0.0" stroke-opacity="1.0" stroke-linecap="round" stroke-linejoin="round"  filling="0" d="M0 340 C171 340 341 340 512 340 C512 397 512 455 512 512 C341 512 171 512 0 512 C0 455 0 397 0 340"></path>
<path id="" fill="#d6e9ff" fill-opacity="1.0" stroke="#000000" stroke-width="0.0" stroke-opacity="1.0" stroke-linecap="round" stroke-linejoin="round"  filling="0" d="M50 360 C60 367 70 373 80 380 C63 383 47 387 30 390 C37 380 43 370 50 360"></path>
<path id="" fill="#d6e9ff" fill-opacity="1.0" stroke="#000000" stroke-width="0.0" stroke-opacity="1.0" stroke-linecap="round" stroke-linejoin="round"  filling="0" d="M200 370 C210 377 220 383 230 390 C213 393 197 397 180 400 C187 390 193 380 200 370"></path>
<path id="" fill="#d6e9ff" fill-opacity="1.0" stroke="#000000" stroke-width="0.0" stroke-opacity="1.0" stroke-linecap="round" stroke-linejoin="round"  filling="0" d="M400 350 C410 357 420 363 430 370 C413 373 397 377 380 380 C387 370 393 360 400 350"></path>
<path id="" fill="#d6e9ff" fill-opacity="1.0" stroke="#000000" stroke-width="0.0" stroke-opacity="1.0" stroke-linecap="round" stroke-linejoin="round"  filling="0" d="M100 400 C110 407 120 413 130 420 C113 423 97 427 80 430 C87 420 93 410 100 400"></path>
<path id="" fill="#d6e9ff" fill-opacity="1.0" stroke="#000000" stroke-width="0.0" stroke-opacity="1.0" stroke-linecap="round" stroke-linejoin="round"  filling="0" d="M300 410 C310 417 320 423 330 430 C313 433 297 437 280 440 C287 430 293 420 300 410"></path>
<path id="" fill="#000000" fill-opacity="1.0" stroke="#000000" stroke-width="0.0" stroke-opacity="1.0" stroke-linecap="round" stroke-linejoin="round"  filling="0" d="M316 266 C316 287 310 308 298 323 C287 338 272 346 256 346 C240 346 225 338 214 323 C202 308 196 287 196 266 C196 245 202 224 214 209 C225 194 240 186 256 186 C272 186 287 194 298 209 C310 224 316 245 316 266"></path>
<path id="" fill="#f0f0f0" fill-opacity="1.0" stroke="#000000" stroke-width="0.0" stroke-opacity="1.0" stroke-linecap="round" stroke-linejoin="round"  filling="0" d="M306 286 C306 305 301 322 291 335 C282 349 269 356 256 356 C243 356 230 349 221 335 C211 322 206 305 206 286 C206 267 211 250 221 237 C230 223 243 216 256 216 C269 216 282 223 291 237 C301 250 306 267 306 286"></path>
<path id="" fill="#000000" fill-opacity="1.0" stroke="#000000" stroke-width="0.0" stroke-opacity="1.0" stroke-linecap="round" stroke-linejoin="round"  filling="0" d="M296 176 C296 187 292 197 284 204 C277 212 267 216 256 216 C245 216 235 212 228 204 C220 197 216 187 216 176 C216 165 220 155 228 148 C235 140 245 136 256 136 C267 136 277 140 284 148 C292 155 296 165 296 176"></path>
<path id="" fill="#ffa500" fill-opacity="1.0" stroke="#000000" stroke-width="0.0" stroke-opacity="1.0" stroke-linecap="round" stroke-linejoin="round"  filling="0" d="M246 206 C249 209 253 213 256 216 C259 213 263 209 266 206 C259 206 253 206 246 206"></path>
<path id="" fill="#000000" fill-opacity="1.0" stroke="#000000" stroke-width="0.0" stroke-opacity="1.0" stroke-linecap="round" stroke-linejoin="round"  filling="0" d="M196 246 C189 263 183 279 176 296 C183 313 189 329 196 346 C196 313 196 279 196 246"></path>
<path id="" fill="#000000" fill-opacity="1.0" stroke="#000000" stroke-width="0.0" stroke-opacity="1.0" stroke-linecap="round" stroke-linejoin="round"  filling="0" d="M316 246 C323 263 329 279 336 296 C329 313 323 329 316 346 C316 313 316 279 316 246"></path>
<path id="" fill="#ffa500" fill-opacity="1.0" stroke="#000000" stroke-width="0.0" stroke-opacity="1.0" stroke-linecap="round" stroke-linejoin="round"  filling="0" d="M226 356 C233 356 239 356 246 356 C243 363 239 369 236 376 C233 369 229 363 226 356"></path>
<path id="" fill="#ffa500" fill-opacity="1.0" stroke="#000000" stroke-width="0.0" stroke-opacity="1.0" stroke-linecap="round" stroke-linejoin="round"  filling="0" d="M266 356 C273 356 279 356 286 356 C283 363 279 369 276 376 C273 369 269 363 266 356"></path>
<path id="" fill="#ffffff" fill-opacity="1.0" stroke="#000000" stroke-width="0.0" stroke-opacity="1.0" stroke-linecap="round" stroke-linejoin="round"  filling="0" d="M246 171 C246 172 245 174 245 175 C244 175 242 176 241 176 C240 176 238 175 237 175 C237 174 236 172 236 171 C236 170 237 168 237 167 C238 167 240 166 241 166 C242 166 244 167 245 167 C245 168 246 170 246 171"></path>
<path id="" fill="#ffffff" fill-opacity="1.0" stroke="#000000" stroke-width="0.0" stroke-opacity="1.0" stroke-linecap="round" stroke-linejoin="round"  filling="0" d="M276 171 C276 172 275 174 275 175 C274 175 272 176 271 176 C270 176 268 175 267 175 C267 174 266 172 266 171 C266 170 267 168 267 167 C268 167 270 166 271 166 C272 166 274 167 275 167 C275 168 276 170 276 171"></path>
</svg>