<?xml version="1.0" ?>
<svg xmlns="http://www.w3.org/2000/svg" version="1.1" width="512" height="512" viewBox="0 0 512 512">
  <defs/>
  <g>
    <path d="M 557.31719971 383.22280884 C 542.23229980 395.71676636 527.12121582 408.46887207 511.99346924 421.06179810 C 496.56143188 433.36184692 480.73324585 445.05960083 464.32821655 456.01641846 C 447.24542236 466.04260254 429.54498291 474.87145996 411.01315308 482.36685181 C 391.65521240 488.37582397 371.54403687 492.88088989 350.89944458 495.84973145 C 329.79800415 497.38681030 308.22955322 497.49526978 286.57955933 496.29803467 C 264.90069580 493.92605591 243.34924316 490.34091187 221.97671509 485.89532471 C 200.91899109 480.42297363 180.08323669 474.16467285 159.81694031 466.92922974 C 139.98493958 459.02667236 120.99394226 450.05288696 102.68476868 440.19036865 C 85.38400269 429.28359985 68.89235687 417.30789185 53.45426941 404.18005371 C 39.01654816 389.78512573 25.69383240 374.07434082 13.58288574 357.01391602 C 2.81298518 338.51998901 -6.66049051 318.48254395 -14.88200188 297.31243896 C -21.68461418 275.01922607 -27.07722664 251.74342346 -31.19752884 227.81677246 C -34.01189041 203.45153809 -35.63725662 179.01899719 -36.06114960 154.78860474 C -35.60962677 131.17672729 -34.23361588 108.27667999 -31.97770309 86.53305817 C -28.66826057 66.08060455 -24.14696693 47.32810211 -18.23611450 30.44601250 C -10.67366791 15.79344177 -1.28839147 3.58591485 9.99213028 -6.07302713 C 23.29527473 -13.18136024 38.14215851 -18.13702965 54.69483948 -21.29574203 C 72.47228241 -22.68206787 91.35946655 -23.03738976 110.97111511 -22.28742218 C 131.39878845 -21.07888222 152.27742004 -19.40285301 173.73945618 -17.68462372 C 195.45668030 -16.01122093 217.58193970 -14.70147800 239.95942688 -13.70864010 C 262.56283569 -13.23936939 285.29449463 -13.45379448 308.26083374 -14.32722855 C 331.19363403 -15.78610706 354.08740234 -17.58920097 376.87307739 -19.32487106 C 399.47479248 -20.75325966 421.62365723 -21.39891243 443.05691528 -20.91556168 C 463.39785767 -18.62367249 482.25692749 -14.07810593 499.33560181 -6.69142056 C 514.31866455 3.61960673 527.10778809 16.96108818 537.70678711 33.11730194 C 546.35723877 51.63675308 553.18353271 72.28887177 558.32678223 94.49523163 C 561.90118408 117.88682556 564.19537354 142.05938721 565.26928711 166.65068054 C 565.38714600 191.52546692 564.59710693 216.34449768 563.32769775 241.08709717 C 561.63690186 265.45809937 559.82232666 289.43505859 557.82818604 313.19787598 C 555.80065918 336.84695435 553.78302002 360.52978516 557.31719971 383.22280884" stroke-width="2.00000000" fill="rgb(10, 29, 69)" opacity="1.0" stroke="rgb(5, 28, 65)" stroke-opacity="1.0" stroke-linecap="round" stroke-linejoin="round"/>
    <path d="M 41.28893661 54.54263306 C 41.27404022 54.52952957 41.32506180 54.52674866 41.24693680 54.55792236 C 41.31023407 54.50506973 41.28212357 54.54041290 41.29499054 54.53081894 C 41.28494644 54.52368164 41.25588226 54.53422546 41.32157516 54.53294754 C 41.27981949 54.51581955 41.27785492 54.52728271 41.30124664 54.54485703 C 41.28119278 54.51837540 41.27500153 54.52514267 41.30876923 54.53731537 C 41.26728058 54.53724670 41.31468964 54.51140594 41.26471329 54.54119873 C 41.28521347 54.53255844 41.32385635 54.52315140 41.26447296 54.53743744 C 41.30437469 54.52284622 41.29502106 54.53979111 41.28206635 54.51565933 C 41.31242371 54.54996490 41.26123428 54.51829910 41.32239914 54.52356720 C 41.28410721 54.54763031 41.28776550 54.50782013 41.28893661 54.54263306" stroke-width="0.00000000" fill="rgb(255, 255, 243)" opacity="1.0" stroke="rgb(49, 0, 0)" stroke-opacity="1.0" stroke-linecap="round" stroke-linejoin="round"/>
    <path d="M 142.39434814 84.96396637 C 142.65180969 84.81096649 142.93215942 84.73186493 143.22999573 84.61643219 C 143.47094727 84.48394775 143.78230286 84.39081573 144.10696411 84.29682922 C 144.33551025 84.25535583 144.59526062 84.18051147 144.80447388 84.26029205 C 145.09880066 84.20921326 145.32157898 84.25640106 145.46432495 84.33634186 C 145.53279114 84.52778625 145.65611267 84.69988251 145.65101624 84.88851166 C 145.73770142 85.11645508 145.74873352 85.26482391 145.68330383 85.48186493 C 145.60830688 85.74021912 145.50030518 85.92837524 145.32208252 86.11906433 C 145.22201538 86.29322815 145.01150513 86.44270325 144.76139832 86.50471497 C 144.54501343 86.65637970 144.28128052 86.61797333 144.07469177 86.57344055 C 143.88635254 86.59509277 143.64370728 86.59828949 142.39434814 84.96396637" stroke-width="2.00000000" fill="rgb(35, 0, 88)" opacity="1.0" stroke="rgb(8, 4, 0)" stroke-opacity="0.51375955" stroke-linecap="round" stroke-linejoin="round"/>
    <path d="M 342.75384521 67.28910065 C 342.88653564 67.26515961 342.87182617 67.29769135 342.89163208 67.35645294 C 342.91735840 67.32015991 342.93316650 67.36829376 342.89947510 67.34447479 C 342.89364624 67.39512634 342.97735596 67.33677673 342.89514160 67.37294006 C 342.92514038 67.40474701 342.92514038 67.36765289 342.92144775 67.39704895 C 342.91030884 67.35943604 342.92599487 67.42924500 342.90676880 67.38573456 C 342.93408203 67.40449524 342.88137817 67.38973999 342.91104126 67.42189789 C 342.95471191 67.38140106 342.84579468 67.39603424 342.91098022 67.39844513 C 342.87683105 67.37233734 342.87664795 67.41446686 342.85339355 67.36614990 C 342.87319946 67.39376831 342.83251953 67.43004608 342.84512329 67.35519409 C 342.84182739 67.34920502 342.81304932 67.40772247 342.75384521 67.28910065" stroke-width="0.00000000" fill="rgb(11, 31, 87)" opacity="1.0" stroke="rgb(188, 94, 110)" stroke-opacity="0.86478966" stroke-linecap="round" stroke-linejoin="round"/>
    <path d="M 203.93408203 55.29117966 C 203.82551575 55.27009583 203.87850952 55.29256821 203.87225342 55.26791763 C 203.80076599 55.26680374 203.85272217 55.26672363 203.82652283 55.28115463 C 203.83535767 55.21402359 203.83224487 55.29232788 203.81654358 55.25904846 C 203.79945374 55.25867081 203.83602905 55.23521805 203.79428101 55.27568436 C 203.76496887 55.28675079 203.81974792 55.24234390 203.78079224 55.31754303 C 203.76950073 55.24998474 203.79829407 55.27442932 203.74737549 55.28602219 C 203.79859924 55.33259583 203.76876831 55.24864578 203.72796631 55.33885574 C 203.78775024 55.28831100 203.76135254 55.30364609 203.74853516 55.32493973 C 203.75872803 55.31156158 203.75939941 55.31927490 203.72447205 55.30472946 C 203.78407288 55.32409668 203.70916748 55.32078552 203.93408203 55.29117966" stroke-width="0.79041445" fill="rgb(76, 11, 44)" opacity="1.0" stroke="rgb(0, 0, 0)" stroke-opacity="0.03252935" stroke-linecap="round" stroke-linejoin="round"/>
    <path d="M 400.10836792 25.26740837 C 400.18301392 25.21987343 400.15008545 25.26685333 400.13546753 25.22257805 C 400.15075684 25.22773743 400.17907715 25.27278709 400.12728882 25.20931053 C 400.14697266 25.23488426 400.16961670 25.25349426 400.13693237 25.19308662 C 400.17086792 25.26931190 400.14016724 25.21082115 400.15841675 25.21793938 C 400.15536499 25.25677490 400.12164307 25.25124741 400.18237305 25.18082047 C 400.14447021 25.27751350 400.15802002 25.20995712 400.14114380 25.23937416 C 400.16882324 25.24879646 400.16238403 25.21993828 400.13360596 25.23217583 C 400.17294312 25.24109650 400.15664673 25.24838066 400.14334106 25.22183800 C 400.15557861 25.22905540 400.14999390 25.24493408 400.15652466 25.24446678 C 400.14340210 25.21102715 400.16210938 25.25821114 400.10836792 25.26740837" stroke-width="0.19220109" fill="rgb(7, 12, 0)" opacity="1.0" stroke="rgb(0, 0, 83)" stroke-opacity="1.0" stroke-linecap="round" stroke-linejoin="round"/>
    <path d="M 579.56799316 384.57797241 C 571.79272461 399.98297119 564.01660156 415.39437866 556.11645508 430.60562134 C 547.73901367 445.39868164 538.98016357 459.59976196 529.50628662 472.99926758 C 519.34405518 485.26007080 508.16961670 496.31976318 495.96868896 505.99740601 C 482.61099243 514.16101074 468.22674561 520.80181885 452.86068726 526.09564209 C 436.61160278 529.92224121 419.51312256 532.55950928 401.74765015 534.04876709 C 383.43112183 534.58160400 364.82031250 534.39562988 346.01525879 533.62780762 C 327.16525269 532.71875000 308.14932251 531.80328369 289.05831909 531.03417969 C 269.98519897 530.42913818 250.99314880 530.18231201 231.88017273 530.30798340 C 212.81396484 530.91436768 193.68940735 531.76025391 174.70942688 532.82678223 C 155.67712402 533.77978516 136.88330078 534.43908691 118.28367615 534.56567383 C 100.01055908 533.97033691 82.13806915 532.17834473 64.95230103 529.15185547 C 48.46790695 524.61944580 33.00524902 518.44689941 18.56389236 510.39312744 C 5.74926090 500.28152466 -5.43503237 488.05493164 -14.65519714 473.71124268 C -22.25957870 457.62149048 -28.46467590 440.16390991 -33.46102905 421.83828735 C -37.27683640 402.99020386 -39.92357254 383.78533936 -41.41028214 364.84350586 C -41.78395462 346.26565552 -40.97894669 328.82025146 -38.96006393 312.57705688 C -35.61529541 298.00976562 -30.71453857 285.15835571 -24.23259735 274.50393677 C -15.99624729 266.24218750 -5.86226606 260.74096680 6.34919739 257.98400879 C 20.51691628 257.63241577 36.46298599 257.89895630 53.67398453 258.01678467 C 71.89159393 257.92306519 90.88909149 257.80825806 110.30048370 257.74716187 C 129.87471008 257.79568481 149.39051819 257.86785889 168.79721069 257.84237671 C 188.05645752 257.79748535 206.81915283 257.83670044 225.22587585 257.92996216 C 243.21357727 257.90609741 260.88952637 257.80960083 278.41714478 257.91406250 C 295.97039795 257.99237061 313.72567749 257.97238159 331.60498047 257.97140503 C 349.72332764 257.98004150 368.09115601 257.94573975 386.75625610 257.94485474 C 405.64712524 258.04464722 424.58651733 258.16821289 443.28488159 258.30679321 C 461.41809082 258.24282837 478.58047485 257.82165527 494.48129272 257.44003296 C 508.66049194 257.99713135 520.99829102 262.06829834 531.81286621 269.93060303 C 541.59210205 280.75772095 550.74938965 293.77969360 559.61004639 308.31506348 C 568.33282471 323.46533203 576.97412109 338.95346069 579.56799316 384.57797241" stroke-width="1.23818338" fill="rgb(16, 117, 206)" opacity="1.0" stroke="rgb(36, 124, 203)" stroke-opacity="0.9208754" stroke-linecap="round" stroke-linejoin="round"/>
    <path d="M 437.73385620 476.46166992 C 416.85186768 477.69754028 396.19772339 478.82809448 376.04061890 479.75329590 C 356.56729126 480.45495605 337.93994141 481.01458740 320.44332886 481.50625610 C 304.32687378 482.12808228 289.56585693 481.14425659 275.83212280 477.54354858 C 262.32745361 474.04971313 248.76898193 473.28091431 235.32984924 475.42376709 C 222.13928223 479.03268433 208.88583374 481.85372925 195.05303955 481.95870972 C 180.37840271 479.17391968 164.41986084 475.18518066 147.15684509 473.50430298 C 128.87564087 476.21490479 109.27501678 480.94503784 88.18912506 481.44488525 C 66.98113251 477.43759155 46.40368271 473.61755371 28.32329178 474.48974609 C 14.03290749 477.86981201 6.63790512 479.14004517 6.72719955 476.74789429 C 13.72108173 472.93637085 26.33912659 469.98519897 42.92869949 469.54470825 C 61.33395386 472.51870728 79.62902832 476.98748779 97.03730011 478.31323242 C 113.54209137 475.83126831 128.77777100 471.53530884 143.52874756 469.40264893 C 158.10150146 470.24142456 172.39752197 473.36743164 186.73760986 477.06814575 C 201.10859680 478.79617310 214.88545227 477.00973511 228.26452637 472.94125366 C 241.74101257 469.72186279 255.13211060 469.26071167 268.22589111 471.71463013 C 281.18301392 475.94305420 295.04785156 478.20779419 310.27053833 477.39913940 C 326.78100586 476.01715088 344.00979614 474.27682495 361.30682373 472.42950439 C 378.33172607 470.64816284 394.77551270 468.63021851 410.41403198 466.48110962 C 424.86599731 464.37170410 438.31246948 462.28057861 451.11740112 460.14352417 C 463.49349976 458.00271606 475.63272095 455.85101318 437.73385620 476.46166992" stroke-width="1.67845142" fill="rgb(197, 240, 243)" opacity="1.0" stroke="rgb(107, 144, 20)" stroke-opacity="0.21566278" stroke-linecap="round" stroke-linejoin="round"/>
    <path d="M 410.70352173 522.55664062 C 400.84280396 517.44915771 390.97396851 512.24310303 381.07272339 507.26947021 C 371.05865479 502.78903198 360.97030640 498.95266724 350.83105469 495.63565063 C 340.57977295 492.77658081 330.09219360 490.54785156 319.47668457 489.14868164 C 308.92269897 488.99639893 298.51623535 489.70901489 288.47738647 490.25985718 C 279.06393433 491.68560791 270.07943726 494.40658569 261.18804932 496.95355225 C 252.22683716 499.06134033 243.28474426 500.70687866 234.12283325 502.13912964 C 224.86138916 503.39602661 215.52082825 504.58798218 206.11697388 505.93463135 C 196.59144592 507.62051392 186.78721619 509.76733398 176.43038940 512.24066162 C 165.41188049 514.71606445 153.71807861 517.23583984 141.29129028 519.53692627 C 128.18972778 521.52355957 114.40251923 523.09661865 100.09785461 524.12695312 C 85.49760437 524.64447021 70.96822357 524.50103760 56.83721542 523.59838867 C 43.48571014 521.85900879 31.18432999 519.38757324 20.11070442 516.07403564 C 10.82449245 512.27172852 3.72918916 508.32849121 -0.93012983 504.43161011 C -2.75388622 500.91784668 -1.52097487 497.71136475 2.85897255 495.06542969 C 10.47537136 492.71447754 20.14071274 490.16061401 31.28632927 488.47229004 C 43.27201462 487.74505615 55.51274109 488.83236694 67.71700287 491.86157227 C 79.56220245 494.76657104 91.24978638 495.67971802 102.56804657 494.74230957 C 113.45787811 493.25210571 123.60919189 491.06359863 133.32855225 488.90731812 C 142.63737488 488.02453613 151.53205872 488.08953857 160.16281128 489.07687378 C 168.53129578 490.70465088 176.98098755 492.77819824 185.62246704 494.37622070 C 194.85523987 495.23629761 204.21342468 495.08319092 213.94110107 494.17855835 C 223.69627380 492.14782715 233.64477539 489.80996704 243.80867004 488.43939209 C 254.04957581 487.91592407 264.02996826 488.80718994 273.80407715 490.87176514 C 283.73425293 491.08584595 294.38143921 489.98626709 306.00396729 489.21896362 C 318.71441650 488.08175659 332.22955322 486.76910400 346.28329468 485.40460205 C 360.69412231 484.21450806 375.10046387 483.28405762 389.14053345 482.80453491 C 402.23348999 482.85140991 414.16934204 483.61663818 424.54483032 485.24249268 C 433.13507080 487.68478394 439.78887939 490.81375122 444.48443604 494.62811279 C 447.30941772 498.57919312 448.82684326 502.82580566 449.49450684 507.21258545 C 449.70437622 511.95904541 449.71963501 516.82305908 410.70352173 522.55664062" stroke-width="0.00000000" fill="rgb(202, 245, 247)" opacity="1.0" stroke="rgb(0, 97, 89)" stroke-opacity="0.39169228" stroke-linecap="round" stroke-linejoin="round"/>
    <path d="M 515.16625977 514.36407471 C 508.04663086 514.47637939 500.86077881 514.67016602 493.69128418 514.74993896 C 486.51498413 514.92523193 479.31338501 515.12829590 472.19485474 515.38049316 C 465.08212280 515.56896973 457.85766602 515.70483398 450.50485229 515.81353760 C 443.05917358 516.00079346 435.44403076 516.26898193 427.61956787 516.62066650 C 419.69042969 517.26696777 411.63235474 517.97766113 403.35565186 518.86688232 C 394.96319580 519.94787598 386.40124512 521.05407715 377.81890869 522.29388428 C 369.16625977 523.61047363 360.39782715 524.86712646 351.91348267 525.86541748 C 343.54437256 526.65875244 335.75448608 526.97784424 328.23977661 526.78649902 C 321.35998535 526.10412598 315.17385864 524.79626465 309.85116577 522.99523926 C 305.64706421 520.56115723 302.54486084 517.39538574 300.96908569 513.62274170 C 301.00241089 509.39123535 302.53704834 504.58401489 304.98797607 499.09298706 C 307.74780273 492.81802368 310.43756104 485.72845459 313.05596924 478.18218994 C 315.70324707 470.24484253 318.43768311 462.10144043 321.09365845 453.69570923 C 323.80990601 445.35903931 326.60437012 437.13787842 329.51712036 429.04379272 C 332.39712524 421.03005981 335.17120361 413.35952759 337.71252441 405.87280273 C 339.90301514 398.64987183 342.08514404 392.01074219 344.36831665 386.02493286 C 347.02133179 380.86758423 350.01678467 376.69653320 353.31164551 373.58435059 C 356.76364136 371.63504028 360.33197021 371.23516846 364.27575684 372.59228516 C 368.70132446 375.34030151 374.04473877 377.85064697 380.54943848 379.62176514 C 387.93884277 380.77474976 396.17089844 381.53317261 404.89025879 381.88598633 C 413.95452881 381.89385986 423.16784668 381.67926025 432.23474121 381.33172607 C 441.15948486 380.93185425 449.70169067 380.72491455 457.60531616 380.55764771 C 464.80773926 380.72827148 470.92849731 381.95327759 475.93817139 384.97918701 C 480.13018799 389.18188477 484.45306396 392.64517212 489.25000000 394.41793823 C 494.49105835 394.00637817 499.76425171 393.09994507 504.62939453 393.52935791 C 508.60815430 396.25088501 511.64584351 401.02072144 514.09820557 407.39239502 C 515.94830322 415.10220337 517.22540283 423.68731689 517.98175049 432.76898193 C 518.28613281 442.22174072 518.28869629 451.77194214 517.86108398 461.42150879 C 517.22924805 470.75738525 516.42559814 480.04470825 515.57305908 489.16516113 C 514.75500488 498.35342407 513.82855225 507.43307495 515.16625977 514.36407471" stroke-width="1.37577748" fill="rgb(135, 68, 27)" opacity="1.0" stroke="rgb(84, 87, 97)" stroke-opacity="0.8684911" stroke-linecap="round" stroke-linejoin="round"/>
    <path d="M 450.65042114 407.34466553 C 443.68075562 407.23083496 436.67553711 407.17202759 429.73001099 407.13269043 C 422.83822632 407.05349731 416.06878662 406.74270630 409.70825195 406.25100708 C 403.58444214 405.56149292 397.85357666 404.57687378 392.84197998 403.10510254 C 388.57217407 401.04971313 385.18222046 398.30322266 383.00381470 394.80319214 C 382.01318359 390.62991333 381.96554565 385.79483032 382.20654297 380.30099487 C 382.36505127 374.30099487 382.34899902 367.89111328 382.35025024 361.13562012 C 382.49252319 354.11953735 382.46701050 347.06378174 382.41522217 339.97381592 C 382.38836670 332.85699463 382.32626343 325.85711670 382.39318848 318.94454956 C 382.42227173 312.05178833 382.26266479 305.27578735 382.20227051 298.52526855 C 382.38494873 291.74081421 382.39370728 284.98742676 382.28341675 278.17694092 C 382.31112671 271.30252075 382.33007812 264.35940552 382.17257690 257.39102173 C 382.24237061 250.35418701 382.18957520 243.35919189 382.07629395 236.36651611 C 382.17355347 229.45741272 382.10012817 222.85148621 381.93978882 216.50788879 C 381.73059082 210.52627563 381.73156738 205.09053040 382.42276001 200.35218811 C 384.56387329 196.36360168 387.86291504 192.95660400 392.09973145 190.18450928 C 397.19488525 187.97657776 402.86520386 186.27372742 408.98892212 185.13063049 C 415.48068237 184.52311707 422.07769775 184.35192871 428.72320557 184.79248047 C 435.04174805 185.70529175 440.88247681 187.10597229 446.21282959 189.06706238 C 450.88827515 191.43222046 454.48547363 194.46858215 457.06369019 198.07876587 C 458.34298706 202.15570068 458.52441406 206.94445801 458.33435059 212.27331543 C 458.31478882 218.22866821 458.38470459 224.59577942 458.48062134 231.30819702 C 458.27194214 238.11190796 458.16744995 245.07939148 458.35467529 252.11544800 C 458.69338989 259.09167480 458.76345825 265.96090698 458.59576416 272.83355713 C 458.67361450 279.51498413 458.72540283 286.23391724 458.72760010 292.65521240 C 458.60079956 298.97183228 458.53408813 305.29425049 458.65621948 311.38427734 C 458.72955322 317.51324463 458.59304810 323.60852051 458.55166626 329.83920288 C 458.55294800 336.07742310 458.50354004 342.54943848 458.67108154 349.05410767 C 458.73815918 355.75341797 458.72940063 362.40594482 458.69631958 369.21228027 C 458.91351318 376.06341553 458.86868286 382.91931152 458.84426880 389.80206299 C 458.66470337 396.64144897 458.50857544 403.49813843 450.65042114 407.34466553" stroke-width="0.91750616" fill="rgb(252, 253, 252)" opacity="1.0" stroke="rgb(81, 93, 112)" stroke-opacity="0.566072" stroke-linecap="round" stroke-linejoin="round"/>
    <path d="M 456.42037964 198.34164429 C 453.17456055 198.39872742 449.89636230 198.46829224 446.69320679 198.42120361 C 443.46990967 198.54159546 440.21447754 198.55094910 436.95495605 198.50833130 C 433.58688354 198.46333313 430.10696411 198.48170471 426.37344360 198.49072266 C 422.68139648 198.42031860 418.60531616 198.44685364 414.36038208 198.49807739 C 410.00561523 198.47969055 405.62277222 198.52885437 401.50222778 198.53288269 C 397.43859863 198.47323608 393.71310425 198.47819519 390.29415894 198.40444946 C 387.55154419 198.68475342 385.53302002 198.68051147 384.36456299 197.98071289 C 384.01065063 196.18800354 384.06747437 193.58062744 384.30026245 190.52677917 C 384.38009644 187.08111572 384.29229736 183.52297974 384.06881714 180.09361267 C 383.95291138 176.95716858 383.95346069 174.53271484 384.47109985 172.82057190 C 385.83868408 171.95993042 387.91104126 171.87907410 390.59884644 172.00302124 C 393.68484497 172.12023926 397.02450562 172.26113892 400.71060181 172.27705383 C 404.44869995 172.24592590 408.40283203 172.26765442 412.52490234 172.28099060 C 416.60363770 172.18627930 420.79263306 172.14323425 424.85757446 172.06282043 C 428.95211792 172.08775330 433.00875854 172.07324219 436.97006226 172.06967163 C 440.80892944 172.09385681 444.51184082 172.13468933 447.96270752 172.02247620 C 451.14495850 171.90702820 453.65692139 171.95661926 455.40988159 172.39276123 C 456.26342773 173.56303406 456.41455078 175.38456726 456.21652222 177.69876099 C 456.04394531 180.43255615 456.03463745 183.42823792 456.05059814 186.51325989 C 456.02178955 189.75598145 455.97445679 192.96557617 456.42037964 198.34164429" stroke-width="0.90104908" fill="rgb(239, 75, 73)" opacity="1.0" stroke="rgb(130, 28, 33)" stroke-opacity="0.84914035" stroke-linecap="round" stroke-linejoin="round"/>
    <path d="M 437.89385986 144.89131165 C 437.82678223 147.06925964 437.62106323 149.22715759 437.31619263 151.41941833 C 437.07968140 153.53526306 436.69625854 155.60144043 436.31719971 157.53829956 C 435.76440430 159.45404053 435.21365356 161.25088501 434.50936890 163.08749390 C 433.68615723 164.76535034 432.75573730 166.39450073 431.62243652 167.93112183 C 430.37387085 169.26864624 428.83493042 170.60534668 427.28121948 171.60781860 C 425.53445435 172.39433289 423.70574951 173.15553284 421.71954346 173.60949707 C 419.76516724 173.96266174 417.72091675 174.04208374 415.76425171 174.02037048 C 413.81753540 173.82868958 411.93942261 173.34434509 410.19760132 172.70861816 C 408.66918945 171.70326233 407.31738281 170.35049438 406.05493164 168.92098999 C 404.97015381 167.15802002 404.16717529 165.31398010 403.51205444 163.26560974 C 402.75555420 161.24200439 402.13989258 159.16667175 401.67575073 157.00236511 C 401.39984131 154.92866516 401.11105347 152.83789062 400.85864258 150.81163025 C 400.74517822 148.85380554 400.66433716 147.06272888 400.74536133 145.49725342 C 401.13555908 144.30725098 401.93515015 143.50122070 403.12539673 142.92134094 C 404.63351440 142.36920166 406.17590332 141.75700378 407.65982056 140.79429626 C 409.22448730 139.73094177 410.92700195 138.59559631 412.79101562 137.85346985 C 414.81811523 137.22065735 416.84518433 136.91912842 418.91992188 136.96060181 C 421.00363159 137.13325500 422.93347168 137.51466370 424.90402222 138.08300781 C 426.64801025 138.97074890 428.20404053 139.96881104 429.67434692 141.12701416 C 431.30450439 141.99140930 432.98352051 142.73310852 437.89385986 144.89131165" stroke-width="0.66434634" fill="rgb(237, 73, 80)" opacity="1.0" stroke="rgb(255, 65, 8)" stroke-opacity="0.2893163" stroke-linecap="round" stroke-linejoin="round"/>
    <path d="M 469.62197876 59.30131912 C 468.12701416 62.74142456 466.62368774 66.14243317 465.03131104 69.52866364 C 463.38931274 73.04438782 461.58920288 76.73229218 459.61883545 80.50199127 C 457.68737793 84.57019043 455.52758789 88.90312958 453.16583252 93.58062744 C 450.63079834 98.71635437 448.05734253 103.96968842 445.28945923 109.53860474 C 442.50689697 115.18781281 439.42553711 120.96525574 436.62274170 126.41761017 C 434.33822632 131.53692627 432.23397827 135.89935303 429.72561646 138.82823181 C 426.47409058 139.78240967 422.80627441 139.57504272 418.80786133 139.30862427 C 414.95828247 139.29745483 411.40411377 139.00085449 408.50271606 138.15499878 C 406.70227051 135.76141357 405.09121704 132.15917969 403.25280762 127.90238953 C 401.15466309 123.28527069 398.91833496 118.44989777 396.34008789 113.54253387 C 393.74328613 108.42971039 391.28240967 103.19848633 388.93795776 97.83042908 C 386.48703003 92.43980408 383.98895264 87.09381866 381.43377686 81.91616058 C 378.90722656 76.87210846 376.59249878 72.16239929 374.65814209 67.63775635 C 372.95822144 64.00279236 371.87060547 61.26643372 371.71127319 59.57262039 C 372.96856689 59.07850647 375.54803467 59.15018082 379.19094849 59.35158157 C 383.78930664 59.28742981 388.98718262 59.17382050 394.87145996 59.25531006 C 401.08438110 59.27602768 407.48953247 59.33662796 413.79348755 59.28483582 C 420.02310181 59.31477356 426.09884644 59.36614227 431.85690308 59.26416779 C 437.33392334 59.21841049 442.60974121 59.26700592 447.73089600 59.31927490 C 452.78439331 59.32596970 458.05603027 59.46175766 469.62197876 59.30131912" stroke-width="1.99426460" fill="rgb(241, 180, 53)" opacity="1.0" stroke="rgb(51, 14, 0)" stroke-opacity="0.45254338" stroke-linecap="round" stroke-linejoin="round"/>
    <path d="M 407.12228394 257.21560669 C 406.17132568 257.30401611 405.36184692 257.39138794 404.47860718 257.37692261 C 403.59884644 257.39575195 402.81674194 257.38824463 402.02017212 257.36862183 C 401.37789917 257.28515625 400.80505371 257.07974243 400.48056030 256.72091675 C 400.25250244 256.09310913 400.24700928 255.27861023 400.20623779 254.32627869 C 400.29174805 253.15266418 400.27416992 251.94026184 400.27139282 250.63845825 C 400.28921509 249.19544983 400.23449707 247.80258179 400.25634766 246.36410522 C 400.20397949 244.88952637 400.22189331 243.49012756 400.25198364 242.14494324 C 400.16860962 240.89247131 400.10559082 239.74960327 400.18148804 238.80238342 C 400.25994873 237.98510742 400.46517944 237.37054443 400.97885132 236.98373413 C 401.64547729 236.79785156 402.56091309 236.76802063 403.61209106 236.74116516 C 404.71777344 236.84046936 405.92150879 236.76535034 407.14337158 236.85957336 C 408.32022095 236.77384949 409.38150024 236.75683594 410.35528564 236.77867126 C 411.17465210 236.83538818 411.77413940 236.91622925 412.22824097 237.40673828 C 412.39227295 237.90362549 412.40652466 238.71034241 412.31790161 239.69631958 C 412.29244995 240.76362610 412.27337646 241.98696899 412.32904053 243.20727539 C 412.33227539 244.54565430 412.28427124 245.85995483 412.27230835 247.13882446 C 412.29382324 248.40852356 412.26254272 249.65008545 412.30780029 250.78282166 C 412.34756470 251.92904663 412.34646606 252.94235229 412.34912109 253.93557739 C 412.20248413 254.86975098 412.31387329 255.72557068 412.29769897 256.51873779 C 412.31881714 257.35086060 412.38702393 258.03930664 407.12228394 257.21560669" stroke-width="0.99374580" fill="rgb(78, 199, 240)" opacity="1.0" stroke="rgb(129, 210, 233)" stroke-opacity="0.7391574" stroke-linecap="round" stroke-linejoin="round"/>
    <path d="M 436.59417725 257.05679321 C 436.72360229 257.26840210 436.72171021 257.54129028 436.69665527 257.73510742 C 436.36334229 257.82876587 435.97943115 257.95410156 435.29196167 257.89093018 C 434.63708496 257.82458496 433.67578125 257.81295776 432.64559937 257.72473145 C 431.51062012 257.69180298 430.33901978 257.67675781 429.18045044 257.62478638 C 428.00799561 257.59088135 427.01071167 257.65637207 426.09277344 257.56988525 C 425.32611084 257.43566895 424.90322876 257.04095459 424.63848877 256.47726440 C 424.55514526 255.63711548 424.53298950 254.66722107 424.62585449 253.52606201 C 424.62722778 252.29975891 424.72567749 250.93750000 424.67462158 249.62390137 C 424.75173950 248.15129089 424.78311157 246.76132202 424.85498047 245.32571411 C 424.77603149 243.94198608 424.74652100 242.61318970 424.65316772 241.37480164 C 424.55117798 240.33236694 424.57839966 239.35314941 424.61038208 238.55801392 C 424.77844238 237.91340637 425.11648560 237.48683167 425.62088013 237.25178528 C 426.41250610 237.31118774 427.29776001 237.29264832 428.28079224 237.45463562 C 429.48529053 237.53991699 430.67532349 237.50106812 431.98657227 237.54364014 C 433.15249634 237.44366455 434.32357788 237.43647766 435.26269531 237.36569214 C 436.06304932 237.30281067 436.65756226 237.50108337 437.02368164 237.89407349 C 437.14862061 238.48258972 437.29663086 239.31860352 437.24285889 240.35110474 C 437.26519775 241.50367737 437.26629639 242.73022461 437.14019775 244.08502197 C 437.03207397 245.53474426 436.93206787 246.98880005 436.89337158 248.48921204 C 436.89242554 250.02795410 436.97018433 251.59465027 436.59417725 257.05679321" stroke-width="1.02548659" fill="rgb(75, 197, 236)" opacity="1.0" stroke="rgb(134, 216, 230)" stroke-opacity="0.6744085" stroke-linecap="round" stroke-linejoin="round"/>
    <path d="M 400.62243652 310.32015991 C 400.50946045 309.56954956 400.46530151 308.89636230 400.46704102 308.05709839 C 400.36541748 307.19766235 400.42315674 306.31323242 400.44656372 305.36215210 C 400.45803833 304.37698364 400.46856689 303.22839355 400.46896362 302.08438110 C 400.42202759 300.83319092 400.48233032 299.58581543 400.52981567 298.30090332 C 400.50482178 296.98922729 400.48373413 295.74938965 400.43081665 294.48651123 C 400.41076660 293.28808594 400.39321899 292.31155396 400.39691162 291.48910522 C 400.59899902 290.91525269 400.94812012 290.56072998 401.57992554 290.43066406 C 402.42889404 290.32974243 403.50576782 290.32125854 404.57208252 290.36230469 C 405.82388306 290.33877563 407.03387451 290.39511108 408.18844604 290.40704346 C 409.31881714 290.41247559 410.25128174 290.46575928 411.10443115 290.51455688 C 411.83358765 290.68145752 412.24423218 290.97824097 412.51855469 291.48077393 C 412.61285400 292.21560669 412.61535645 293.11419678 412.56234741 294.18594360 C 412.49957275 295.36782837 412.55917358 296.60546875 412.52801514 297.91186523 C 412.58135986 299.27731323 412.59719849 300.60269165 412.51983643 302.01342773 C 412.51541138 303.29949951 412.55502319 304.58807373 412.58914185 305.86233521 C 412.47689819 307.01776123 412.56048584 308.01449585 412.58721924 308.91461182 C 412.57720947 309.53479004 412.37860107 310.13256836 412.00967407 310.39782715 C 411.46914673 310.55502319 410.75524902 310.59915161 409.84896851 310.53720093 C 408.88973999 310.50997925 407.88812256 310.46932983 406.81179810 310.45443726 C 405.74139404 310.45797729 404.68698120 310.40634155 400.62243652 310.32015991" stroke-width="0.88128757" fill="rgb(72, 198, 240)" opacity="1.0" stroke="rgb(109, 199, 222)" stroke-opacity="0.83450097" stroke-linecap="round" stroke-linejoin="round"/>
    <path d="M 436.80554199 290.27636719 C 436.74923706 291.08184814 436.87814331 291.96914673 436.88296509 292.80145264 C 436.82757568 293.73178101 436.77331543 294.59436035 436.65963745 295.65518188 C 436.64050293 296.66748047 436.65573120 297.79586792 436.72534180 298.93457031 C 436.77407837 300.18676758 436.85681152 301.44442749 436.85519409 302.75155640 C 436.84286499 304.01419067 436.85116577 305.33459473 436.80065918 306.61624146 C 436.78161621 307.73208618 436.70608521 308.76217651 436.71292114 309.74743652 C 436.58743286 310.38580322 436.29928589 310.91696167 435.74539185 311.08682251 C 434.97738647 311.15548706 433.91461182 311.15133667 432.76885986 311.14462280 C 431.53781128 311.03384399 430.28878784 311.09274292 429.07806396 311.07534790 C 427.96069336 311.13265991 426.90881348 311.10928345 425.98382568 311.07025146 C 425.27276611 310.88238525 424.75256348 310.55142212 424.42349243 309.99047852 C 424.28790283 309.31433105 424.30346680 308.39074707 424.35855103 307.34918213 C 424.40982056 306.22985840 424.46084595 304.99255371 424.43353271 303.66860962 C 424.47988892 302.40011597 424.44442749 300.95642090 424.44653320 299.62448120 C 424.45999146 298.24975586 424.46826172 296.89279175 424.46807861 295.59729004 C 424.46643066 294.33737183 424.37216187 293.26547241 424.40277100 292.26309204 C 424.43975830 291.41970825 424.70437622 290.83291626 425.19085693 290.41427612 C 425.80731201 290.17312622 426.63558960 290.13497925 427.55606079 290.13763428 C 428.56805420 290.14331055 429.67810059 290.24822998 430.81579590 290.34521484 C 431.91134644 290.41522217 433.15966797 290.55584717 436.80554199 290.27636719" stroke-width="0.93376178" fill="rgb(77, 196, 233)" opacity="1.0" stroke="rgb(131, 213, 230)" stroke-opacity="0.6906713" stroke-linecap="round" stroke-linejoin="round"/>
    <path d="M 406.86358643 362.63095093 C 405.84408569 362.76708984 404.78710938 362.84967041 403.79257202 362.80984497 C 402.83963013 362.80108643 401.99478149 362.81402588 401.25799561 362.67355347 C 400.65951538 362.61306763 400.32186890 362.38186646 400.11035156 361.85086060 C 400.11587524 361.19424438 400.11828613 360.30776978 400.16357422 359.20059204 C 400.20751953 358.05245972 400.17391968 356.76138306 400.21954346 355.36074829 C 400.25967407 353.98464966 400.26651001 352.52914429 400.17779541 351.06134033 C 400.22427368 349.73684692 400.16842651 348.29486084 400.15399170 347.11691284 C 400.01022339 345.93936157 399.89321899 344.98999023 399.85894775 344.14813232 C 399.96499634 343.50811768 400.28622437 343.09713745 400.94146729 342.92645264 C 401.76409912 342.89529419 402.75936890 342.87530518 403.84710693 342.82559204 C 405.12023926 342.81655884 406.34750366 342.77832031 407.56884766 342.68969727 C 408.81195068 342.68295288 409.87475586 342.64816284 410.84426880 342.64062500 C 411.67318726 342.76702881 412.25350952 342.86584473 412.67980957 343.30856323 C 412.83953857 343.95144653 412.94696045 344.77593994 412.96932983 345.76943970 C 412.88925171 346.94506836 412.89956665 348.15826416 412.80511475 349.38739014 C 412.79626465 350.71090698 412.80706787 352.01062012 412.81069946 353.20684814 C 412.69201660 354.48858643 412.76156616 355.61846924 412.62124634 356.77511597 C 412.62539673 357.77087402 412.56967163 358.80258179 412.58889771 359.63684082 C 412.54855347 360.48803711 412.59802246 361.27218628 412.52542114 361.96420288 C 412.55334473 362.69940186 412.58666992 363.34106445 406.86358643 362.63095093" stroke-width="0.97868204" fill="rgb(71, 198, 239)" opacity="1.0" stroke="rgb(125, 209, 227)" stroke-opacity="0.6755708" stroke-linecap="round" stroke-linejoin="round"/>
    <path d="M 431.47610474 342.89599609 C 432.32177734 342.86022949 433.11560059 342.79623413 433.89910889 342.74850464 C 434.75247192 342.76028442 435.42465210 342.67010498 436.07159424 342.72390747 C 436.56088257 342.91394043 436.91513062 343.30096436 437.10086060 343.89096069 C 437.18658447 344.74655151 437.14089966 345.70840454 437.11099243 346.85574341 C 437.02066040 348.13507080 436.99688721 349.45098877 436.95681763 350.90380859 C 436.99655151 352.39303589 436.97970581 353.80145264 436.97937012 355.31564331 C 436.93521118 356.79806519 436.86227417 358.12194824 436.80429077 359.41583252 C 436.82165527 360.57754517 436.85671997 361.63250732 436.80786133 362.41085815 C 436.56393433 363.04687500 436.19177246 363.38186646 435.58630371 363.48333740 C 434.71551514 363.53732300 433.78384399 363.44363403 432.73388672 363.36196899 C 431.61364746 363.36575317 430.48645020 363.34918213 429.40093994 363.38784790 C 428.30026245 363.43612671 427.32318115 363.39849854 426.52069092 363.38879395 C 425.71997070 363.19290161 425.18579102 362.83929443 424.90139771 362.35870361 C 424.74783325 361.61880493 424.71466064 360.77029419 424.75689697 359.76690674 C 424.79678345 358.64477539 424.80105591 357.45919800 424.78182983 356.21652222 C 424.76757812 354.95446777 424.69238281 353.67800903 424.75643921 352.40499878 C 424.77618408 351.16809082 424.75827026 350.07424927 424.73318481 348.94277954 C 424.70898438 347.91793823 424.71566772 346.97186279 424.66787720 346.04061890 C 424.77264404 345.26608276 424.72100830 344.44949341 424.84567261 343.80963135 C 424.81509399 343.19448853 424.93899536 342.60159302 431.47610474 342.89599609" stroke-width="1.10595620" fill="rgb(79, 195, 239)" opacity="1.0" stroke="rgb(138, 217, 233)" stroke-opacity="0.7142472" stroke-linecap="round" stroke-linejoin="round"/>
    <path d="M 294.90487671 518.79412842 C 288.11123657 519.21246338 281.19833374 519.62823486 274.30560303 519.95941162 C 267.36755371 520.33349609 260.45135498 520.71392822 253.37898254 520.97784424 C 246.37765503 521.41241455 239.26441956 521.73333740 232.09436035 522.08038330 C 224.72131348 522.31396484 217.40559387 522.47424316 209.90310669 522.59027100 C 202.40165710 522.50152588 194.73559570 522.26330566 187.02888489 521.89208984 C 179.36521912 521.36853027 171.76063538 520.83135986 164.07405090 520.08526611 C 156.46740723 519.32336426 148.93627930 518.46911621 141.53309631 517.68096924 C 134.18261719 516.97332764 126.84477234 516.11340332 119.46618652 515.53674316 C 112.00241089 514.96197510 104.21009827 514.69293213 96.03674316 514.46356201 C 87.49172974 514.30407715 78.63732147 514.34082031 69.44472504 514.44543457 C 60.24289322 514.64630127 51.02190781 514.99322510 41.97082520 515.30419922 C 33.09732056 515.58410645 24.78588867 515.59320068 17.09034920 515.33050537 C 10.51764011 514.78479004 4.87895632 513.62536621 0.53140551 511.75415039 C -2.18132639 509.17443848 -3.28382826 506.26181030 -2.91169310 503.42410278 C -0.81839782 501.14132690 2.70840120 499.63378906 7.37960434 498.51104736 C 12.90873814 497.24249268 19.03446960 495.72024536 25.62947464 494.24780273 C 32.54241180 493.24212646 39.62701035 492.95419312 46.85786819 493.11358643 C 54.04566574 493.76925659 61.00602341 495.05444336 67.87712097 496.57888794 C 74.59037781 498.07659912 81.32201385 499.09408569 88.19879913 499.58493042 C 95.24032593 499.79586792 102.25180817 499.47116089 109.24991608 498.65350342 C 116.36627197 497.36557007 123.59799194 495.95626831 130.98736572 494.43731689 C 138.23315430 493.31521606 145.45059204 492.94488525 152.55946350 493.12539673 C 159.58038330 493.54782104 166.42323303 494.71932983 173.15742493 496.25775146 C 179.91395569 497.82403564 186.78244019 499.04858398 193.84700012 499.78118896 C 201.18385315 499.97775269 208.75325012 499.64144897 216.52990723 498.54183960 C 224.69689941 496.91772461 232.99816895 495.06896973 241.34501648 493.53598022 C 249.51856995 492.84173584 257.38864136 493.09072876 264.80554199 493.92150879 C 271.70629883 494.92495728 277.97659302 495.50100708 283.67025757 496.26095581 C 288.85504150 497.20352173 293.54299927 498.08987427 297.80389404 498.45135498 C 301.71160889 498.00961304 305.35266113 497.22802734 294.90487671 518.79412842" stroke-width="2.00000000" fill="rgb(11, 165, 172)" opacity="1.0" stroke="rgb(203, 244, 241)" stroke-opacity="0.91400987" stroke-linecap="round" stroke-linejoin="round"/>
    <path d="M 461.24374390 407.19601440 C 457.18029785 407.22653198 453.14038086 407.23318481 449.26406860 407.29934692 C 445.38674927 407.33093262 441.67175293 407.24789429 438.09649658 407.21377563 C 434.65078735 407.29415894 431.18856812 407.30349731 427.64929199 407.32885742 C 424.03677368 407.26574707 420.27639771 407.30041504 416.17153931 407.39138794 C 411.87670898 407.31515503 407.38702393 407.27951050 402.66836548 407.21557617 C 398.02371216 407.15811157 393.42852783 407.21234131 389.25634766 407.29028320 C 385.52023315 407.39599609 382.60833740 407.40353394 380.52770996 406.85131836 C 379.49346924 405.64855957 379.29849243 403.82830811 379.51480103 401.61196899 C 379.80694580 399.15411377 379.78356934 396.92718506 379.70629883 394.97241211 C 380.00265503 393.74655151 381.11474609 393.16885376 383.00228882 393.17715454 C 385.54241943 393.28643799 388.60852051 393.26959229 391.99566650 393.24932861 C 395.71011353 393.21902466 399.46368408 393.19207764 403.36593628 393.21179199 C 407.22503662 393.28518677 411.00909424 393.32742310 414.83276367 393.29547119 C 418.56127930 393.20993042 422.15188599 393.21148682 425.76239014 393.26190186 C 429.38674927 393.28836060 433.17144775 393.26815796 436.99920654 393.20086670 C 440.82440186 393.13897705 444.60815430 393.14550781 448.32312012 393.19052124 C 451.78939819 393.14358521 454.89102173 392.92007446 457.52822876 392.66815186 C 459.56103516 392.54745483 460.99017334 392.91149902 461.72924805 394.02355957 C 461.98388672 395.95794678 462.03720093 398.37240601 461.99496460 401.16476440 C 461.96890259 404.23016357 462.00769043 407.34884644 461.24374390 407.19601440" stroke-width="0.89346606" fill="rgb(252, 214, 53)" opacity="1.0" stroke="rgb(245, 214, 98)" stroke-opacity="0.8897551" stroke-linecap="round" stroke-linejoin="round"/>
    <path d="M 436.73699951 149.11340332 C 436.83718872 149.97276306 436.98236084 150.97074890 437.09429932 151.87657166 C 437.11816406 152.88458252 437.16680908 153.92097473 437.20214844 155.06393433 C 437.20190430 156.20852661 437.19268799 157.42839050 437.24227905 158.66299438 C 437.24874878 160.03121948 437.26733398 161.47489929 437.32385254 162.92416382 C 437.40924072 164.28176880 437.46945190 165.75204468 437.47119141 167.07684326 C 437.36431885 168.34936523 437.40753174 169.49641418 437.57330322 170.47938538 C 437.65734863 171.26632690 437.59426880 171.81829834 437.18783569 172.14805603 C 436.47390747 172.22546387 435.38562012 172.28005981 434.19909668 172.32290649 C 432.80630493 172.34840393 431.50491333 172.33311462 430.21328735 172.16912842 C 429.03012085 172.15661621 428.03860474 172.18676758 427.34234619 172.20684814 C 426.78237915 172.07290649 426.70617676 171.67698669 426.74157715 171.06591797 C 426.91720581 170.24005127 426.96661377 169.26152039 427.03323364 168.03636169 C 427.07794189 166.77906799 427.02087402 165.35758972 426.91809082 163.96072388 C 426.72076416 162.51890564 426.65567017 161.06347656 426.76824951 159.70434570 C 426.86465454 158.25144958 426.90740967 156.77067566 426.85000610 155.50816345 C 426.76373291 154.15942383 426.82556152 152.94898987 426.83712769 151.84722900 C 426.71978760 150.86813354 426.74291992 150.12950134 426.94134521 149.58853149 C 427.44311523 149.31121826 428.09732056 149.19155884 429.00610352 149.19966125 C 429.96444702 149.21424866 431.02505493 149.19342041 432.13992310 149.16439819 C 433.23214722 149.20579529 434.38183594 149.20503235 436.73699951 149.11340332" stroke-width="0.61253971" fill="rgb(248, 251, 250)" opacity="1.0" stroke="rgb(219, 213, 212)" stroke-opacity="0.76775146" stroke-linecap="round" stroke-linejoin="round"/>
    <path d="M 409.90585327 171.97196960 C 409.75573730 172.01301575 409.32080078 172.10440063 408.51281738 172.18820190 C 407.40032959 172.24531555 405.98068237 172.30506897 404.35479736 172.44473267 C 402.89450073 172.48091125 401.83807373 172.10086060 401.21786499 170.96771240 C 401.21060181 169.16723633 401.34860229 166.79501343 401.37915039 163.94680786 C 401.39868164 160.93713379 401.52667236 157.79533386 401.47817993 154.91769409 C 401.30453491 152.37702942 401.24978638 150.37414551 401.66769409 149.05381775 C 402.55825806 148.52769470 403.85137939 148.63980103 405.35763550 148.87135315 C 406.98648071 148.86949158 408.55694580 149.17405701 409.45376587 149.82014465 C 409.88552856 151.01316833 409.98266602 152.64041138 410.03640747 154.55769348 C 410.00033569 156.62693787 409.84219360 158.58448792 409.90585327 171.97196960" stroke-width="0.67485541" fill="rgb(248, 250, 248)" opacity="1.0" stroke="rgb(201, 168, 166)" stroke-opacity="0.92029977" stroke-linecap="round" stroke-linejoin="round"/>
    <path d="M 43.76018143 47.19101715 C 43.65756989 46.56875229 43.66205597 46.04250336 43.69502640 45.56348038 C 43.69357300 45.21154785 43.68137360 44.93428040 43.84141159 44.75296402 C 44.09182358 44.72620392 44.48339462 44.82136154 44.82453156 44.90632629 C 45.28883743 45.01609802 45.86882782 45.23762894 46.34617233 45.67309570 C 46.83707428 46.15105057 47.34326553 46.71584320 47.80006790 47.04946899 C 48.26915741 47.52109146 48.66423035 48.05125427 48.82563400 48.55483246 C 48.93164825 49.01077652 48.92250824 49.40155411 48.83260345 49.72879791 C 48.68511963 49.95863724 48.32480240 50.11292648 48.02806473 50.10953903 C 47.60960007 50.03923416 47.17762756 49.79586411 46.64460373 49.59144211 C 45.99503708 49.35255051 45.41054535 49.20049286 43.76018143 47.19101715" stroke-width="0.44584304" fill="rgb(247, 252, 254)" opacity="1.0" stroke="rgb(174, 165, 137)" stroke-opacity="0.6836239" stroke-linecap="round" stroke-linejoin="round"/>
    <path d="M 197.17630005 59.26726532 C 197.13319397 59.42387390 197.19932556 59.52111435 197.18496704 59.68133545 C 197.23809814 59.80627441 197.26162720 59.91209793 197.30184937 60.03083038 C 197.29118347 60.12200546 197.36653137 60.21288681 197.33837891 60.25114059 C 197.35760498 60.32163239 197.40789795 60.33683777 197.36918640 60.31259155 C 197.35908508 60.33621216 197.36553955 60.32441330 197.40396118 60.26586914 C 197.33248901 60.25004196 197.37472534 60.20188904 197.38719177 60.19268417 C 197.33813477 60.11328888 197.32754517 60.09334183 197.34631348 60.05784607 C 197.27522278 59.95868301 197.26501465 59.93325806 197.25595093 59.89582062 C 197.22595215 59.74869156 197.17970276 59.75714874 197.18525696 59.64158630 C 197.09095764 59.57146072 197.19963074 59.56835175 197.17630005 59.26726532" stroke-width="2.00000000" fill="rgb(255, 255, 255)" opacity="1.0" stroke="rgb(4, 1, 10)" stroke-opacity="0.6165944" stroke-linecap="round" stroke-linejoin="round"/>
    <path d="M 351.52709961 71.73260498 C 351.46496582 71.81758118 351.50588989 71.74594879 351.50610352 71.76766968 C 351.46878052 71.77608490 351.49447632 71.76441956 351.50216675 71.77913666 C 351.49237061 71.75110626 351.47882080 71.78781891 351.51760864 71.78076172 C 351.47003174 71.73581696 351.52273560 71.78961182 351.47232056 71.77210236 C 351.48730469 71.76098633 351.52133179 71.77388000 351.47213745 71.77858734 C 351.49237061 71.74595642 351.52767944 71.80013275 351.47491455 71.74897766 C 351.49340820 71.76432037 351.51782227 71.79862976 351.47937012 71.76024628 C 351.49310303 71.77252197 351.49319458 71.77238464 351.49835205 71.78010559 C 351.49490356 71.75845337 351.49612427 71.80824280 351.49295044 71.75360870 C 351.48461914 71.74747467 351.49792480 71.80735779 351.52709961 71.73260498" stroke-width="0.00000000" fill="rgb(0, 0, 0)" opacity="1.0" stroke="rgb(81, 94, 133)" stroke-opacity="1.0" stroke-linecap="round" stroke-linejoin="round"/>
    <path d="M 143.73376465 82.60247040 C 144.39508057 82.87061310 144.96249390 83.19507599 145.54335022 83.56139374 C 145.90103149 83.88932800 146.30216980 84.14263153 146.63967896 84.44480896 C 146.97631836 84.88696289 147.16571045 85.38565063 147.16593933 85.90946960 C 147.13375854 86.23554230 146.99316406 86.57875824 146.81900024 86.84952545 C 146.55316162 87.10502625 146.14988708 87.25144196 145.81578064 87.27276611 C 145.42210388 87.22527313 145.01942444 87.17675018 144.61419678 87.02119446 C 144.27938843 86.71150208 143.89889526 86.30147552 143.46173096 85.93589783 C 143.03083801 85.54144287 142.60894775 85.18467712 142.29859924 84.79953766 C 142.01239014 84.30631256 141.64100647 83.83718872 141.44845581 83.32753754 C 141.22758484 82.60229492 141.08584595 81.96624756 143.73376465 82.60247040" stroke-width="0.24307172" fill="rgb(238, 241, 245)" opacity="1.0" stroke="rgb(186, 187, 177)" stroke-opacity="0.74013686" stroke-linecap="round" stroke-linejoin="round"/>
    <path d="M 400.58285522 25.83041763 C 400.82162476 25.87939835 400.88842773 25.91219330 401.02386475 25.99846268 C 401.06921387 25.93558502 401.09149170 26.06602097 401.14688110 26.09815979 C 401.16528320 26.19077301 401.21798706 26.30140305 401.11428833 26.51796913 C 400.93954468 26.46202087 400.77645874 26.61503792 400.55157471 26.67395973 C 400.37094116 26.73239326 400.23846436 26.80342865 400.00588989 26.87759209 C 399.81542969 26.86043739 399.59588623 26.87462807 399.32897949 26.82035065 C 399.24160767 26.64668274 399.10540771 26.59442520 399.01226807 26.42895317 C 398.96185303 26.32693672 398.96582031 26.19990921 399.02102661 25.93161392 C 399.10534668 25.69225693 399.21740723 25.35778618 399.33441162 25.02221298 C 399.39117432 24.72921562 399.53771973 24.36761475 400.58285522 25.83041763" stroke-width="1.50550246" fill="rgb(167, 182, 230)" opacity="1.0" stroke="rgb(4, 5, 14)" stroke-opacity="0.49015287" stroke-linecap="round" stroke-linejoin="round"/>
    <path d="M 200.59974670 62.64786148 C 199.91220093 62.33319473 199.41128540 61.97526169 198.91329956 61.45286942 C 198.48147583 61.11718750 198.05758667 60.75650787 197.73106384 60.25791931 C 197.53475952 59.94580460 197.45010376 59.64305878 197.41610718 59.35040665 C 197.48831177 59.08866119 197.78439331 58.85325623 198.12283325 58.74093628 C 198.60620117 58.64751816 199.08941650 58.57418060 199.51399231 58.72063065 C 199.86447144 59.03928375 200.25041199 59.48205948 200.54611206 59.94673157 C 201.01402283 60.30561066 201.46643066 60.65595627 201.83213806 61.02880478 C 202.28468323 61.36705399 202.52485657 61.69128418 202.76112366 61.99975204 C 202.83235168 62.28522873 202.70614624 62.61513901 202.48718262 62.85473251 C 202.23455811 63.16888046 201.91679382 63.47948837 200.59974670 62.64786148" stroke-width="0.58448482" fill="rgb(240, 242, 250)" opacity="1.0" stroke="rgb(160, 161, 164)" stroke-opacity="0.89612806" stroke-linecap="round" stroke-linejoin="round"/>
    <path d="M 351.49127197 73.55458069 C 350.92541504 73.18226624 350.28384399 72.72897339 349.82440186 72.32859039 C 349.30236816 71.88157654 348.84170532 71.31235504 348.56488037 70.75964355 C 348.37942505 70.16634369 348.31787109 69.73596191 348.29888916 69.21725464 C 348.37631226 68.76652527 348.44406128 68.51905060 348.64010620 68.44867706 C 348.84701538 68.44243622 349.19720459 68.55693054 349.63439941 68.70331573 C 350.04635620 69.06278229 350.44888306 69.44463348 350.91085815 69.70909119 C 351.39703369 70.02078247 351.79733276 70.34347534 352.24182129 70.68024445 C 352.64685059 71.11905670 352.99359131 71.55254364 353.30203247 71.99758148 C 353.49325562 72.54566193 353.78222656 72.89257050 354.09320068 73.24317932 C 354.19989014 73.73590851 354.26235962 74.32073212 351.49127197 73.55458069" stroke-width="0.36902776" fill="rgb(241, 243, 248)" opacity="1.0" stroke="rgb(202, 193, 179)" stroke-opacity="0.7060877" stroke-linecap="round" stroke-linejoin="round"/>
    <path d="M 398.64572144 25.93865776 C 398.13790894 25.36420059 397.55831909 24.97572708 396.95770264 24.51928711 C 396.45120239 24.04212379 396.05480957 23.57792664 395.71246338 23.09963226 C 395.47100830 22.72620773 395.49523926 22.42001534 395.73852539 22.13805962 C 395.97296143 22.01315308 396.38220215 21.81484604 396.92797852 21.63026428 C 397.41000366 21.74731445 397.95321655 21.95826721 398.48275757 22.34898758 C 398.92105103 22.77779579 399.19235229 23.32020569 399.35064697 23.87227440 C 399.67788696 24.28560638 400.02474976 24.56426811 400.38424683 24.83916283 C 400.71508789 25.01669121 400.97061157 25.16816139 401.22338867 25.30990982 C 401.35305786 25.44953918 401.44854736 25.53226280 401.52981567 25.75807190 C 401.54541016 26.04563332 401.75372314 26.19824982 398.64572144 25.93865776" stroke-width="0.46663424" fill="rgb(239, 243, 246)" opacity="1.0" stroke="rgb(178, 180, 186)" stroke-opacity="0.51321876" stroke-linecap="round" stroke-linejoin="round"/>
  </g>
</svg>
