<svg xmlns="http://www.w3.org/2000/svg" viewBox="0 0 512 512" height="512.0px" width="512.0px">
<path id="" fill="rgb(12, 28, 68)" fill-opacity="1.0" stroke="rgb(14, 24, 65)" stroke-width="2.0" stroke-opacity="1.0" stroke-linecap="round" stroke-linejoin="round"  filling="0" d="M541.978760 367.740784 C536.056030 384.751160 526.838928 401.429688 514.920593 417.025360 C503.002258 432.621033 488.382721 447.133881 471.655151 459.812927 C454.927612 472.491943 436.092041 483.337158 415.741669 491.597626 C389.082428 497.013855 364.935303 498.998657 342.639893 498.833954 C320.344482 498.669250 299.900818 496.355072 280.648499 493.173340 C261.396179 489.991638 243.335266 485.942383 225.805344 482.307556 C207.622559 477.627686 188.791000 472.365662 169.406158 465.710480 C150.021332 459.055328 130.083221 451.007050 109.687363 440.754669 C89.291489 430.502289 68.437851 418.045837 47.221954 402.574310 C31.149231 391.792725 18.214500 377.439789 7.936599 360.215912 C-2.341303 342.992004 -9.962378 322.897156 -15.407791 300.631714 C-20.853203 278.366272 -24.122955 253.930252 -25.698212 228.024017 C-26.191141 204.264755 -27.729784 180.518250 -29.027262 157.113220 C-30.324738 133.708191 -31.381052 110.644623 -30.909323 88.251236 C-30.437595 65.857857 -28.437826 44.134663 -23.623138 23.410370 C-11.251292 8.793538 1.369897 -1.794410 14.665145 -9.021328 C27.960394 -16.248247 41.929703 -20.114136 56.997787 -21.286848 C72.065872 -22.459560 88.232742 -20.939098 105.923096 -17.393311 C130.999634 -15.533722 155.203064 -14.227627 178.620361 -13.283223 C202.037659 -12.338820 224.668823 -11.756107 246.600876 -11.343282 C268.532898 -10.930457 289.765808 -10.687521 310.386597 -10.422668 C329.258881 -9.361470 348.741974 -9.695685 368.873108 -10.367212 C389.004272 -11.038739 409.783478 -12.047578 431.248047 -12.335628 C452.712646 -12.623678 474.862549 -12.190939 497.735107 -9.979309 C513.545227 3.281021 525.980835 18.998556 535.589905 37.088810 C545.198975 55.179062 551.981628 75.642036 556.485840 98.393250 C560.990112 121.144463 563.215942 146.183914 563.711548 173.427109 C563.337280 198.629807 562.856934 223.117279 561.696350 246.400681 C560.535828 269.684082 558.695129 291.763367 555.600220 312.149689 C552.505310 332.536011 548.156128 351.229309 541.978760 367.740784"></path>
<path id="" fill="rgb(255, 255, 243)" fill-opacity="1.0" stroke="rgb(49, 0, 0)" stroke-width="0.0" stroke-opacity="1.0" stroke-linecap="round" stroke-linejoin="round"  filling="0" d="M41.290405 54.533691 C41.289932 54.533569 41.289291 54.533539 41.288269 54.533661 C41.287567 54.533600 41.286636 54.534058 41.286133 54.534012 C41.286240 54.533432 41.286713 54.532440 41.286774 54.531921 C41.287170 54.530731 41.287506 54.530457 41.287872 54.529846 C41.288574 54.529037 41.289429 54.528778 41.289963 54.528656 C41.291473 54.528671 41.291107 54.528671 41.291946 54.528748 C41.292664 54.528641 41.293365 54.529449 41.293671 54.530060 C41.294006 54.531097 41.293991 54.531509 41.294006 54.532349 C41.294037 54.532852 41.293945 54.533798 41.293121 54.534058 C41.291992 54.533981 41.291626 54.533600 41.290405 54.533691"></path>
<path id="" fill="rgb(65, 75, 85)" fill-opacity="1.0" stroke="rgb(22, 10, 7)" stroke-width="2.0" stroke-opacity="1.0" stroke-linecap="round" stroke-linejoin="round"  filling="0" d="M143.676865 85.591339 C143.679581 85.422699 143.716629 85.112000 143.673477 84.816528 C143.682434 84.488770 143.507401 84.229614 143.598236 84.051971 C143.821259 84.080750 144.081497 84.159378 144.391525 84.206802 C144.777359 84.292694 144.998947 84.330292 145.274353 84.308868 C145.587402 84.381134 145.717545 84.546204 145.743729 84.869019 C145.704422 85.196838 145.674423 85.274719 145.603302 85.488464 C145.462112 85.857300 145.489075 85.931885 145.145203 86.221939 C144.867676 86.374496 144.829849 86.421661 144.424667 86.565369 C144.081406 86.674011 143.864059 86.668381 143.740372 86.535919 C143.567535 86.303802 143.705353 86.042953 143.676865 85.591339"></path>
<path id="" fill="rgb(11, 31, 87)" fill-opacity="1.0" stroke="rgb(223, 128, 144)" stroke-width="0.0" stroke-opacity="1.0" stroke-linecap="round" stroke-linejoin="round"  filling="0" d="M342.895142 67.358978 C342.906189 67.355652 342.908478 67.356598 342.920441 67.350861 C342.929291 67.347260 342.935150 67.339127 342.941589 67.338638 C342.941376 67.346130 342.937744 67.354736 342.939117 67.364822 C342.939575 67.378311 342.941437 67.382660 342.949005 67.391647 C342.954163 67.400604 342.949738 67.402283 342.937286 67.405121 C342.925140 67.405579 342.921448 67.403351 342.916840 67.407227 C342.908295 67.413574 342.900940 67.411453 342.891449 67.404633 C342.882599 67.398972 342.883301 67.396210 342.873505 67.386902 C342.865021 67.377411 342.862305 67.373047 342.864899 67.365479 C342.873352 67.357788 342.884918 67.362854 342.895142 67.358978"></path>
<path id="" fill="rgb(76, 11, 44)" fill-opacity="1.0" stroke="rgb(0, 22, 250)" stroke-width="1.91567993" stroke-opacity="1.0" stroke-linecap="round" stroke-linejoin="round"  filling="0" d="M203.745865 55.320404 C203.745209 55.320435 203.744827 55.320343 203.744156 55.320572 C203.743530 55.320633 203.743042 55.321045 203.742645 55.321045 C203.742752 55.320648 203.743149 55.320175 203.743271 55.319595 C203.743561 55.318771 203.743607 55.318527 203.743500 55.317841 C203.743515 55.317322 203.743652 55.317184 203.744476 55.317154 C203.745331 55.317307 203.745392 55.317429 203.745773 55.317322 C203.746460 55.317108 203.746796 55.317337 203.747269 55.317963 C203.747726 55.318481 203.747726 55.318649 203.747955 55.319351 C203.748230 55.319901 203.748352 55.320435 203.747787 55.320587 C203.747238 55.320740 203.746658 55.320282 203.745865 55.320404"></path>
<path id="" fill="rgb(7, 12, 0)" fill-opacity="1.0" stroke="rgb(0, 0, 0)" stroke-width="0.11523438" stroke-opacity="1.0" stroke-linecap="round" stroke-linejoin="round"  filling="0" d="M400.154388 25.236206 C400.153778 25.236557 400.153625 25.236496 400.153015 25.236938 C400.152496 25.237244 400.152252 25.237976 400.151947 25.237839 C400.151855 25.237289 400.151794 25.236786 400.151489 25.236282 C400.151154 25.235519 400.150970 25.235245 400.150452 25.234833 C400.150146 25.234222 400.150421 25.234222 400.151184 25.233810 C400.152130 25.233551 400.151917 25.233536 400.152527 25.233322 C400.153320 25.233017 400.153351 25.232849 400.154144 25.232971 C400.154846 25.233322 400.154999 25.233505 400.155426 25.233887 C400.155914 25.234375 400.156128 25.234909 400.156006 25.235214 C400.155609 25.235886 400.154938 25.235870 400.154388 25.236206"></path>
<path id="" fill="rgb(16, 116, 205)" fill-opacity="1.0" stroke="rgb(37, 141, 232)" stroke-width="0.88158685" stroke-opacity="1.0" stroke-linecap="round" stroke-linejoin="round"  filling="0" d="M565.777222 386.501221 C563.400146 397.032532 559.881653 409.656952 554.616211 423.521362 C549.350708 437.385773 542.338196 452.490173 532.973083 467.981537 C523.607971 483.472900 511.890259 499.351166 497.214264 514.763306 C484.448456 522.124146 470.428528 527.037109 454.889923 530.015198 C439.351318 532.993286 422.293976 534.036499 403.453369 533.657715 C384.612793 533.278931 363.988892 531.478149 341.317139 528.768372 C324.140808 528.727417 306.013947 528.232056 287.603790 527.790039 C269.193634 527.348022 250.500183 526.959351 232.190582 527.131714 C213.880981 527.304077 195.955261 528.037476 179.080612 529.839661 C157.844528 530.034729 138.064957 531.802307 119.340858 533.139526 C100.616760 534.476746 82.948128 535.383606 65.933891 533.857239 C48.919662 532.330872 32.559830 528.371277 16.453339 519.975647 C5.066732 507.181946 -4.196160 491.490936 -11.756556 474.343384 C-19.316952 457.195862 -25.174850 438.591797 -29.751471 419.972046 C-34.328091 401.352264 -37.623436 382.716797 -40.058716 365.506409 C-39.515594 344.559692 -38.078117 326.190979 -35.161629 310.824524 C-32.245140 295.458069 -27.849638 283.093811 -21.390465 274.156067 C-14.931292 265.218292 -6.408447 259.707001 4.762726 258.046387 C21.167114 257.797852 37.978916 257.787842 55.660130 257.850922 C73.341347 257.914001 91.891968 258.050171 111.774002 258.093994 C131.656036 258.137817 152.869476 258.089294 175.876312 257.783020 C191.824066 258.161987 207.070770 258.253540 222.908722 258.229584 C238.746674 258.205627 255.175842 258.066132 273.488525 257.983032 C291.801178 257.899963 311.997375 257.873291 335.369293 258.074890 C350.393646 258.100647 365.927155 258.115845 382.345856 258.117798 C398.764526 258.119720 416.068420 258.108337 434.633453 258.080902 C453.198486 258.053467 473.024719 258.009949 494.488129 257.947632 C508.186859 256.633972 520.618896 260.131439 531.125061 268.828033 C541.631226 277.524628 550.211426 291.420349 556.206543 310.903229 C562.201660 330.386108 565.611572 355.456116 565.777222 386.501221"></path>
<path id="" fill="rgb(188, 234, 225)" fill-opacity="1.0" stroke="rgb(255, 255, 255)" stroke-width="0.0" stroke-opacity="1.0" stroke-linecap="round" stroke-linejoin="round"  filling="0" d="M432.474762 477.130920 C419.387329 476.684998 400.612030 477.619202 380.700073 479.253601 C360.788116 480.887970 339.739502 483.222534 322.105377 485.577271 C299.505432 482.137329 282.585815 478.867432 269.277557 476.682190 C255.969284 474.496887 246.272369 473.396240 238.117783 474.294739 C223.309204 479.921234 213.690430 481.843018 200.925415 481.396606 C188.160416 480.950226 172.249207 478.135651 144.855774 474.289429 C123.572708 472.353394 107.184082 471.930237 90.629807 472.203247 C74.075546 472.476257 57.355637 473.445465 35.410019 474.294220 C0.776543 481.516907 -4.521618 479.632263 2.437458 476.520935 C9.396534 473.409607 28.612846 469.071594 43.008316 471.387634 C74.843513 470.444061 87.323471 471.767334 97.761703 472.422943 C108.199928 473.078522 116.596420 473.066406 140.264679 469.452087 C165.062195 471.659973 178.664398 475.308289 191.088760 476.804291 C203.513123 478.300323 214.759674 477.644043 234.845901 471.242828 C248.198334 468.111450 256.000488 469.384369 265.949127 471.623901 C275.897766 473.863434 287.992920 477.069550 309.931396 477.804535 C331.019287 481.600250 347.533630 481.870605 362.832550 479.480164 C378.131470 477.089722 392.214905 472.038483 408.441010 465.190948 C428.300781 456.295898 447.562744 454.002533 455.233002 456.572144 C462.903259 459.141724 458.981812 466.574249 432.474762 477.130920"></path>
<path id="" fill="rgb(142, 221, 233)" fill-opacity="1.0" stroke="rgb(94, 255, 255)" stroke-width="0.0" stroke-opacity="1.0" stroke-linecap="round" stroke-linejoin="round"  filling="0" d="M409.542786 517.957458 C398.048157 517.420349 389.079773 515.216736 380.584412 512.262512 C372.089050 509.308258 364.066772 505.603424 354.464386 502.063995 C344.862000 498.524536 333.679504 495.150513 318.863739 492.857788 C308.944946 489.165039 298.127960 487.724396 287.341827 487.587036 C276.555725 487.449707 265.800507 488.615662 256.005249 490.136230 C246.210022 491.656769 237.374756 493.531921 230.428589 494.812866 C222.141678 497.858917 214.015030 500.857117 205.561401 503.689972 C197.107758 506.522797 188.327148 509.190247 178.732300 511.574829 C169.137451 513.959412 158.728363 516.061096 147.017822 517.762390 C130.619003 519.853333 115.277069 522.175903 100.800507 524.073364 C86.323936 525.970886 72.712723 527.443359 59.775326 527.834045 C46.837929 528.224731 34.574348 527.533691 22.793045 525.104309 C8.227122 519.919434 -0.444872 514.468262 -3.694763 509.367462 C-6.944654 504.266663 -4.772442 499.516266 2.350046 495.732910 C9.472534 491.949585 21.545298 489.133270 38.096512 487.900696 C54.200405 489.311218 66.423889 491.332458 76.655624 492.918610 C86.887360 494.504761 95.127335 495.655853 103.264221 495.326050 C111.401108 494.996277 119.434891 493.185608 129.254242 488.848328 C144.545166 487.571381 155.283279 488.364349 164.115219 489.762817 C172.947144 491.161285 179.872910 493.165222 187.539124 494.310211 C195.205322 495.455170 203.611984 495.741150 215.405716 493.703674 C224.992630 491.355652 232.693329 489.852020 240.567398 488.952972 C248.441467 488.053955 256.488892 487.759521 266.769257 487.829926 C277.049622 487.900330 289.562897 488.335632 306.368683 488.895996 C319.734589 489.162018 332.440033 488.247498 344.956757 486.988586 C357.473450 485.729675 369.801392 484.126404 382.412262 483.014954 C395.023132 481.903473 407.916931 481.283783 421.565308 481.992065 C437.558258 481.154663 448.594238 485.343262 453.853912 491.143066 C459.113586 496.942871 458.597046 504.353882 451.484924 509.961212 C444.372833 515.568542 430.665222 519.372253 409.542786 517.957458"></path>
<path id="" fill="rgb(134, 68, 29)" fill-opacity="1.0" stroke="rgb(72, 91, 120)" stroke-width="0.84226686" stroke-opacity="1.0" stroke-linecap="round" stroke-linejoin="round"  filling="0" d="M511.576569 511.167542 C507.150848 514.731567 501.557037 516.007202 495.065430 516.271484 C488.573853 516.535767 481.184509 515.788818 473.167755 515.307739 C465.151001 514.826660 456.506836 514.611450 447.505615 515.939331 C440.205505 516.507202 433.579346 516.907288 426.884613 517.300659 C420.189880 517.693970 413.426544 518.080505 405.852051 518.621277 C398.277588 519.162048 389.891968 519.857056 379.952667 520.867371 C370.197327 521.259521 361.596252 521.657227 353.671356 522.201843 C345.746460 522.746399 338.497681 523.437805 331.447021 524.417419 C324.396332 525.397034 317.543701 526.664795 310.411072 528.362061 C302.987854 525.036011 300.159454 521.145569 299.951996 516.338013 C299.744507 511.530457 302.157959 505.805817 305.218384 498.811310 C308.278809 491.816772 311.986206 483.552429 314.366669 473.665497 C316.021790 469.485382 318.335876 462.953156 320.931915 455.367981 C323.527954 447.782776 326.405975 439.144653 329.188873 430.752747 C331.971771 422.360809 334.659576 414.215088 336.875244 407.614716 C339.497162 399.143677 342.253723 391.953857 345.053070 386.259857 C347.852417 380.565826 350.694519 376.367554 353.487518 373.879578 C356.280518 371.391602 359.024414 370.613892 361.627289 371.761017 C369.495087 376.098969 376.951019 378.977356 384.369141 380.847504 C391.787262 382.717651 399.167572 383.579529 406.884125 383.884491 C414.600647 384.189453 422.653442 383.937500 431.416565 383.579956 C442.361725 382.284973 450.615082 381.213562 457.239624 381.005005 C463.864197 380.796448 468.859985 381.450714 473.290009 383.607147 C477.720032 385.763580 481.584290 389.422180 485.945862 395.222168 C495.391296 392.681244 502.070953 392.750580 506.666809 395.281281 C511.262665 397.811951 513.774719 402.804016 514.884888 410.108612 C515.995117 417.413208 515.703430 427.030273 514.691895 438.811035 C514.224182 444.977844 514.360291 453.147095 514.536865 461.940582 C514.713501 470.734070 514.930664 480.151855 514.625061 488.815735 C514.319458 497.479614 513.491028 505.389587 511.576569 511.167542"></path>
<path id="" fill="rgb(250, 252, 251)" fill-opacity="1.0" stroke="rgb(255, 221, 180)" stroke-width="0.35025755" stroke-opacity="1.0" stroke-linecap="round" stroke-linejoin="round"  filling="0" d="M450.350403 403.698547 C444.413574 405.530304 438.251709 406.546448 432.049164 407.049988 C425.846619 407.553528 419.603363 407.544525 413.503784 407.326019 C407.404175 407.107513 401.448242 406.679504 395.820343 406.345032 C389.016083 402.638214 385.508362 398.527954 383.788239 393.837006 C382.068115 389.146088 382.135620 383.874512 382.481781 377.845062 C382.827942 371.815613 383.452759 365.028259 382.847260 357.305847 C383.035950 350.131714 382.990997 343.697021 382.879486 337.499603 C382.768005 331.302185 382.589996 325.342041 382.512604 319.117004 C382.435181 312.891968 382.458374 306.402039 382.749329 299.145020 C382.929932 292.190430 382.952972 285.126434 382.887939 278.172821 C382.822937 271.219177 382.669891 264.375916 382.498322 257.862671 C382.326721 251.349457 382.136658 245.166290 381.997559 239.532913 C382.927429 230.995026 382.540039 223.412888 382.205841 216.920853 C381.871643 210.428818 381.590637 205.026886 382.733368 200.849396 C383.876099 196.671906 386.442505 193.718872 391.803162 192.124619 C400.116669 191.406311 406.419067 190.708420 411.860748 190.044281 C417.302429 189.380127 421.883423 188.749741 426.754120 188.166443 C431.624786 187.583160 436.785156 187.046951 443.385559 186.571182 C450.247070 188.385788 454.023926 191.941315 456.047028 196.673203 C458.070129 201.405090 458.339478 207.313324 458.185974 213.833359 C458.032471 220.353394 457.456146 227.485229 457.787872 234.664276 C458.066528 242.527054 458.215790 249.317719 458.279510 255.585953 C458.343262 261.854187 458.321472 267.600006 458.257996 273.373108 C458.194580 279.146179 458.089478 284.946564 457.986572 291.323914 C458.315033 300.992767 458.470428 307.412323 458.529663 312.767670 C458.588928 318.123016 458.552002 322.414124 458.495880 327.826050 C458.439758 333.237976 458.364410 339.770721 458.346741 349.609314 C457.474213 356.045746 457.983490 363.075928 458.487457 369.963959 C458.991425 376.851990 459.490082 383.597839 458.596283 389.465607 C457.702484 395.333344 455.416229 400.322998 450.350403 403.698547"></path>
<path id="" fill="rgb(242, 74, 71)" fill-opacity="1.0" stroke="rgb(151, 8, 0)" stroke-width="0.75621736" stroke-opacity="1.0" stroke-linecap="round" stroke-linejoin="round"  filling="0" d="M454.585999 198.775070 C450.848206 198.673492 448.745544 198.524902 446.343811 198.452866 C443.942047 198.380829 441.241211 198.385330 436.307068 198.589966 C432.240509 198.557922 429.010712 198.534821 425.807007 198.544693 C422.603302 198.554581 419.425659 198.597443 415.463409 198.697357 C411.461395 198.711594 408.272278 198.664230 405.174805 198.643951 C402.077332 198.623657 399.071533 198.630463 395.436188 198.752991 C390.564606 198.832092 387.313477 199.012741 385.562317 197.985184 C383.811157 196.957611 383.559967 194.721832 384.688293 189.968048 C384.652832 186.402328 383.944580 182.204391 383.980499 178.762817 C384.016418 175.321259 384.796509 172.636047 387.737671 172.095764 C391.927582 171.973663 393.928833 172.074295 395.775208 172.249634 C397.621552 172.424957 399.313019 172.675003 402.883362 172.851715 C407.307861 172.246292 410.546600 171.868652 413.512238 171.664246 C416.477875 171.459808 419.170441 171.428604 422.502655 171.516022 C426.907898 171.850235 430.195465 172.111420 433.267914 172.222900 C436.340363 172.334381 439.197662 172.296158 442.742310 172.031555 C447.747803 172.244797 451.666199 171.660355 454.054504 172.217316 C456.442810 172.774261 457.300964 174.472610 456.186035 179.251419 C455.492004 183.857819 455.837952 187.553040 455.984467 190.689499 C456.130951 193.825958 456.077972 196.403671 454.585999 198.775070"></path>
<path id="" fill="rgb(230, 69, 78)" fill-opacity="1.0" stroke="rgb(255, 81, 41)" stroke-width="0.68260258" stroke-opacity="1.0" stroke-linecap="round" stroke-linejoin="round"  filling="0" d="M437.403961 145.559067 C437.802734 146.945007 437.485413 148.424225 436.971863 150.193970 C436.458313 151.963715 435.748535 154.023956 435.362366 156.571930 C434.618561 158.885254 434.672394 161.289780 434.607819 163.435349 C434.543213 165.580902 434.360229 167.467499 433.142731 168.744934 C431.530548 170.049194 429.860291 170.920044 428.030060 171.570465 C426.199829 172.220886 424.209686 172.650879 421.957733 173.073364 C419.837280 173.387878 418.177979 172.915405 416.451965 172.300613 C414.725922 171.685822 412.933197 170.928711 410.545898 170.673965 C407.331451 170.307495 405.438416 169.639999 404.305939 168.558640 C403.173462 167.477280 402.801575 165.982071 402.629456 163.960205 C403.055267 160.120071 403.468903 158.566589 403.736450 157.425491 C404.004028 156.284393 404.125519 155.555695 403.967072 153.365097 C402.312164 151.141388 401.258209 148.860580 401.218170 146.918854 C401.178131 144.977142 402.151978 143.374512 404.552734 142.507141 C407.191925 142.050354 408.432190 140.843903 409.395508 139.402573 C410.358826 137.961258 411.045197 136.285095 412.576630 134.888916 C414.963013 134.901688 417.141449 135.689331 419.172699 136.641479 C421.203918 137.593643 423.087982 138.710297 424.885651 139.381088 C426.059509 139.939270 428.026367 140.421631 430.281128 141.295532 C432.535889 142.169418 435.078552 143.434814 437.403961 145.559067"></path>
<path id="" fill="rgb(246, 177, 50)" fill-opacity="1.0" stroke="rgb(225, 162, 27)" stroke-width="0.43026823" stroke-opacity="1.0" stroke-linecap="round" stroke-linejoin="round"  filling="0" d="M465.354919 59.206543 C468.719177 60.584793 468.018829 63.810326 466.022827 67.746162 C464.026825 71.681999 460.735199 76.328140 458.916931 80.547607 C455.993347 86.150444 454.044159 90.663406 452.217773 94.783348 C450.391357 98.903290 448.687744 102.630196 446.255219 106.660919 C442.476929 112.849945 440.195374 117.898270 438.327545 122.230171 C436.459717 126.562073 435.005646 130.177551 432.882324 133.500900 C429.807007 137.726532 426.408173 139.816757 422.524384 140.284378 C418.640625 140.751999 414.271912 139.597015 409.256866 137.332260 C406.031067 133.350800 404.191925 129.370758 402.345642 125.149101 C400.499359 120.927444 398.645935 116.464195 395.391602 111.516342 C392.481903 102.979813 390.827728 99.647774 389.279755 97.034073 C387.731781 94.420372 386.290009 92.525009 383.805084 86.861832 C381.943878 80.902283 379.867004 77.428024 377.925323 73.886337 C375.983612 70.344650 374.177094 66.735535 372.856567 60.506256 C377.599945 59.339447 382.149811 59.255264 386.965851 59.393829 C391.781921 59.532394 396.864166 59.893707 402.672333 59.617889 C407.131470 59.677277 410.892517 59.721714 415.365326 59.699589 C419.838135 59.677464 425.022736 59.588776 432.329010 59.381912 C436.266907 59.588936 441.193970 59.685009 446.801270 59.659370 C452.408569 59.633728 458.696106 59.486374 465.354919 59.206543"></path>
<path id="" fill="rgb(77, 201, 237)" fill-opacity="1.0" stroke="rgb(96, 206, 226)" stroke-width="0.57572901" stroke-opacity="1.0" stroke-linecap="round" stroke-linejoin="round"  filling="0" d="M408.398254 257.541626 C407.994385 257.495056 407.204407 257.428741 406.127716 257.384186 C405.051056 257.339630 403.687683 257.316833 402.136963 257.357300 C400.903381 257.523132 400.191101 257.387878 399.889893 256.801147 C399.588654 256.214386 399.698456 255.176086 400.108978 253.535782 C400.172791 252.556885 400.168610 251.496582 400.147705 250.330048 C400.126831 249.163498 400.089233 247.890701 400.086273 246.486816 C400.075653 245.007751 400.096985 243.965576 400.066528 242.929749 C400.036072 241.893921 399.953796 240.864441 399.735992 239.410782 C399.751648 237.922913 400.183105 237.352814 400.973511 237.126694 C401.763885 236.900574 402.913208 237.018433 404.364594 236.906494 C405.527191 236.902985 406.330383 236.866699 407.111053 236.811981 C407.891724 236.757278 408.649872 236.684128 409.722351 236.606873 C411.062073 236.224777 411.809326 236.541061 412.197479 237.366913 C412.585632 238.192764 412.614685 239.528198 412.518005 241.184387 C412.522461 242.190796 412.511475 242.940994 412.499634 243.822861 C412.487823 244.704742 412.475189 245.718277 412.476318 247.251343 C412.508820 249.035217 412.485870 249.901886 412.480042 250.791473 C412.474243 251.681061 412.485565 252.593567 412.586639 254.469116 C412.890198 255.937531 412.851135 256.785034 412.232147 257.225708 C411.613190 257.666443 410.414307 257.700348 408.398254 257.541626"></path>
<path id="" fill="rgb(76, 197, 237)" fill-opacity="1.0" stroke="rgb(79, 193, 217)" stroke-width="0.49603716" stroke-opacity="1.0" stroke-linecap="round" stroke-linejoin="round"  filling="0" d="M436.726685 252.339844 C436.649323 253.700012 436.750183 254.780289 436.687012 255.689545 C436.623810 256.598816 436.396606 257.337036 435.663116 258.013092 C434.755615 258.188416 433.654297 258.050964 432.512146 257.890869 C431.369965 257.730774 430.186920 257.548096 429.115875 257.632904 C427.789948 257.595276 426.671814 257.878052 425.844727 257.775970 C425.017609 257.673889 424.481506 257.186951 424.319641 255.609894 C424.363617 254.594055 424.442566 253.598694 424.520905 252.524261 C424.599243 251.449844 424.677002 250.296356 424.718628 248.964249 C424.649780 247.974503 424.716583 246.940582 424.749634 245.808777 C424.782715 244.676971 424.781982 243.447296 424.578064 242.066040 C424.673920 241.050385 424.621887 240.135101 424.632507 239.365540 C424.643127 238.595993 424.716370 237.972168 425.062714 237.539444 C425.776978 237.217010 426.996216 237.240280 428.241638 237.340332 C429.487030 237.440384 430.758545 237.617233 431.577362 237.601990 C433.330841 237.704926 434.536499 237.400681 435.367859 237.355011 C436.199249 237.309357 436.656372 237.522247 436.912781 238.659439 C436.912292 239.763916 436.856171 240.702942 436.814148 241.718475 C436.772125 242.734009 436.744202 243.826080 436.800140 245.236649 C436.745605 246.731445 436.694580 247.876831 436.673523 248.963730 C436.652435 250.050613 436.661316 251.079010 436.726685 252.339844"></path>
<path id="" fill="rgb(72, 198, 236)" fill-opacity="1.0" stroke="rgb(83, 198, 221)" stroke-width="0.58401471" stroke-opacity="1.0" stroke-linecap="round" stroke-linejoin="round"  filling="0" d="M401.573517 310.526794 C400.873840 310.461304 400.576813 309.824707 400.455719 308.870453 C400.334656 307.916199 400.389557 306.644226 400.393799 305.307953 C400.435425 304.054962 400.502045 303.040558 400.550415 302.042297 C400.598785 301.044067 400.628906 300.061951 400.597534 298.873535 C400.673584 297.887146 400.576141 296.671387 400.441223 295.507263 C400.306274 294.343170 400.133850 293.230774 400.060028 292.451080 C400.015137 290.975159 400.667603 290.427429 401.621368 290.231018 C402.575134 290.034607 403.830200 290.189514 404.990540 290.118835 C406.129425 290.303894 407.307373 290.214386 408.422363 290.160309 C409.537323 290.106262 410.589355 290.087646 411.476410 290.414551 C412.176147 291.230286 412.471130 291.810059 412.587616 292.467834 C412.704102 293.125549 412.642090 293.861267 412.627869 294.988739 C412.605774 296.317505 412.512329 297.354187 412.421204 298.316406 C412.330078 299.278595 412.241211 300.166260 412.228302 301.197021 C412.056824 302.724823 412.083313 303.807922 412.185669 304.821472 C412.288025 305.834991 412.466187 306.778931 412.598022 308.028351 C413.085236 309.659729 412.777557 310.318390 412.017059 310.538208 C411.256561 310.758057 410.043274 310.539062 408.719208 310.415222 C407.828430 310.390289 406.691711 310.500366 405.452820 310.575623 C404.213928 310.650818 402.872894 310.691193 401.573517 310.526794"></path>
<path id="" fill="rgb(73, 200, 233)" fill-opacity="1.0" stroke="rgb(64, 184, 209)" stroke-width="0.53333127" stroke-opacity="1.0" stroke-linecap="round" stroke-linejoin="round"  filling="0" d="M435.956177 289.996460 C436.563782 290.769989 436.706665 291.292572 436.722107 292.067078 C436.737518 292.841583 436.625488 293.868042 436.723206 295.649323 C436.704437 296.738861 436.721802 297.765228 436.747437 298.848572 C436.773071 299.931915 436.807007 301.072205 436.821289 302.389648 C436.747192 303.134888 436.823425 304.333038 436.911102 305.597687 C436.998779 306.862335 437.097900 308.193481 437.069519 309.204651 C437.103699 310.813843 436.467712 311.223358 435.520874 311.174835 C434.574036 311.126312 433.316345 310.619720 432.107208 310.396637 C431.207092 310.191010 430.078461 310.471527 428.917786 310.789429 C427.757111 311.107300 426.564392 311.462524 425.536072 311.406342 C424.748413 310.363647 424.418030 309.795410 424.313324 309.177643 C424.208588 308.559875 424.329468 307.892639 424.444305 306.651978 C424.548218 305.225281 424.592102 304.074768 424.611572 303.043793 C424.631012 302.012848 424.626038 301.101501 424.632294 300.153168 C424.729675 298.474243 424.695892 297.362488 424.632385 296.356964 C424.568848 295.351440 424.475586 294.452179 424.453949 293.198212 C424.219757 291.514526 424.635712 290.614136 425.418854 290.212585 C426.201965 289.811035 427.352295 289.908325 428.586761 290.220123 C429.474670 290.381348 430.600464 290.270325 431.862549 290.146545 C433.124664 290.022797 434.523071 289.886292 435.956177 289.996460"></path>
<path id="" fill="rgb(67, 198, 238)" fill-opacity="1.0" stroke="rgb(60, 181, 215)" stroke-width="0.7706821" stroke-opacity="1.0" stroke-linecap="round" stroke-linejoin="round"  filling="0" d="M408.261047 362.462891 C406.999908 362.583252 405.975464 362.557343 404.993042 362.531494 C404.010590 362.505676 403.070129 362.479919 401.976929 362.600555 C400.668976 362.398193 400.283997 361.851196 400.229401 361.097137 C400.174774 360.343109 400.450500 359.382050 400.463928 358.351654 C400.589630 357.059326 400.628906 356.131622 400.630798 355.143097 C400.632660 354.154572 400.597137 353.105225 400.573212 351.569672 C400.580505 350.453674 400.518890 349.272797 400.431244 348.120026 C400.343628 346.967224 400.229919 345.842529 400.133057 344.838867 C400.146240 343.595947 400.630188 343.132385 401.483307 343.002716 C402.336456 342.873047 403.558807 343.077271 405.048828 343.169922 C406.266174 343.218292 407.036774 343.160126 407.781738 343.090637 C408.526703 343.021179 409.246033 342.940399 410.360809 342.943542 C411.543030 342.779846 412.274750 343.040833 412.651428 343.702667 C413.028137 344.364502 413.049805 345.427246 412.811920 346.866974 C412.663696 348.189545 412.559570 349.210785 412.487457 350.177887 C412.415314 351.144958 412.375153 352.057922 412.354828 353.163910 C412.313049 354.567291 412.261230 355.525726 412.224731 356.476379 C412.188171 357.427002 412.166931 358.369873 412.186157 359.742126 C412.564575 361.349792 412.120819 362.033905 411.313690 362.314117 C410.506561 362.594330 409.336060 362.470703 408.261047 362.462891"></path>
<path id="" fill="rgb(70, 193, 240)" fill-opacity="1.0" stroke="rgb(91, 190, 202)" stroke-width="0.61438847" stroke-opacity="1.0" stroke-linecap="round" stroke-linejoin="round"  filling="0" d="M428.960358 342.920441 C430.235657 342.876434 431.352386 342.931061 432.387665 342.956818 C433.422913 342.982574 434.376740 342.979431 435.326172 342.819885 C436.782074 342.789459 437.250671 343.502472 437.355164 344.477020 C437.459625 345.451599 437.199951 346.687683 437.199280 347.703369 C437.067383 349.255402 437.042542 350.298767 437.038116 351.289276 C437.033691 352.279785 437.049683 353.217407 436.999481 354.557953 C436.891785 355.699646 436.891846 356.749603 436.910797 357.913696 C436.929749 359.077759 436.967590 360.355988 436.935486 361.954224 C436.760315 363.163025 436.356110 363.556763 435.558838 363.590210 C434.761536 363.623688 433.571136 363.296875 431.823578 363.064636 C430.629364 363.002747 429.800385 363.056946 429.027405 363.194427 C428.254456 363.331909 427.537476 363.552673 426.567322 363.823853 C425.479431 363.895599 425.011169 363.392487 424.794556 362.515747 C424.577972 361.639038 424.613037 360.388672 424.531769 358.965881 C424.585999 357.622040 424.639771 356.595459 424.683746 355.620178 C424.727722 354.644867 424.761932 353.720856 424.777039 352.582123 C424.795013 351.083588 424.823792 350.166443 424.840668 349.213867 C424.857544 348.261322 424.862549 347.273315 424.832977 345.633118 C424.380920 343.839203 424.880554 343.153229 425.759277 342.919617 C426.638031 342.686035 427.895905 342.904816 428.960358 342.920441"></path>
<path id="" fill="rgb(12, 166, 175)" fill-opacity="1.0" stroke="rgb(255, 255, 247)" stroke-width="2.0" stroke-opacity="1.0" stroke-linecap="round" stroke-linejoin="round"  filling="0" d="M296.404175 516.737061 C287.932983 518.204163 280.857147 518.838562 274.185913 519.197327 C267.514648 519.556152 261.247955 519.639404 254.394989 520.004272 C247.542023 520.369202 240.102783 521.015686 231.086441 522.500977 C223.763107 522.874207 216.763382 523.355042 209.761307 523.615540 C202.759216 523.875977 195.754791 523.916138 188.422058 523.407837 C181.089310 522.899536 173.428253 521.842896 165.112900 519.909790 C156.225250 518.801636 148.177353 517.988220 140.484909 517.305481 C132.792465 516.622681 125.455475 516.070557 117.989639 515.484985 C110.523796 514.899414 102.929108 514.280396 94.721268 513.463867 C86.179176 512.831543 79.112457 512.366333 72.178162 512.124268 C65.243866 511.882202 58.442005 511.863281 50.429634 512.123474 C42.417259 512.383667 33.194374 512.922913 21.418045 513.797241 C9.445160 515.574646 0.983358 515.180725 -3.886612 513.581421 C-8.756582 511.982117 -10.034720 509.177399 -7.640278 506.133240 C-5.245836 503.089050 0.821187 499.805420 10.641541 497.248291 C20.724457 495.361237 28.382700 494.149292 34.619698 493.505829 C40.856697 492.862366 45.672447 492.787415 50.070381 493.174316 C54.468311 493.561218 58.448425 494.409973 63.014145 495.613953 C73.354889 498.308350 81.657211 499.403687 88.982956 499.571777 C96.308701 499.739868 102.657867 498.980743 109.092285 497.966187 C115.526703 496.951599 122.046387 495.681580 129.713165 494.827972 C141.363541 492.894043 149.428833 492.581787 155.897079 493.092743 C162.365326 493.603729 167.236511 494.937958 172.498718 496.297028 C177.760910 497.656067 183.414093 499.039978 191.446335 499.650269 C199.847900 499.809753 208.074051 499.088623 216.095245 498.094391 C224.116440 497.100159 231.932678 495.832825 239.514450 494.899933 C247.096222 493.967041 254.443542 493.368530 261.526855 493.712006 C272.974701 495.442017 282.215668 496.443298 288.932465 497.720703 C295.649231 498.998108 299.841858 500.551636 301.192902 503.386078 C302.543976 506.220520 301.053528 510.335907 296.404175 516.737061"></path>
<path id="" fill="rgb(248, 217, 56)" fill-opacity="1.0" stroke="rgb(255, 255, 164)" stroke-width="0.0" stroke-opacity="1.0" stroke-linecap="round" stroke-linejoin="round"  filling="0" d="M458.422363 408.212677 C453.892578 408.155670 451.263672 408.114502 448.438385 408.083801 C445.613068 408.053101 442.591400 408.032837 437.276123 408.017609 C434.152039 407.952698 431.380249 407.827209 428.076447 407.739349 C424.772644 407.651489 420.936768 407.601257 415.684601 407.686737 C412.803650 407.847229 409.273346 407.904175 405.589600 407.954010 C401.905884 408.003845 398.068726 408.046600 394.573975 408.178711 C391.456818 407.592499 387.476807 407.965271 384.243591 408.051331 C381.010376 408.137390 378.523926 407.936768 378.393921 406.203766 C379.376801 402.528381 378.658203 398.296539 378.965698 395.386963 C379.273224 392.477356 380.606873 390.890015 385.694275 392.503662 C391.770264 393.000946 394.640839 393.019135 396.804108 392.924957 C398.967377 392.830780 400.423340 392.624268 403.670074 392.672089 C408.442810 392.490356 411.827911 392.422119 414.844482 392.454895 C417.861084 392.487671 420.509155 392.621429 423.807831 392.843750 C428.512939 392.673126 432.046844 392.742157 435.319733 392.788788 C438.592621 392.835419 441.604523 392.859680 445.265625 392.599457 C450.772156 393.097534 454.288727 392.522217 456.873932 392.230469 C459.459137 391.938721 461.112976 391.930573 462.893951 393.562988 C462.262512 396.757202 463.096649 400.866516 463.112610 403.953827 C463.128601 407.041138 462.326416 409.106445 458.422363 408.212677"></path>
<path id="" fill="rgb(248, 253, 253)" fill-opacity="1.0" stroke="rgb(202, 191, 186)" stroke-width="0.22944528" stroke-opacity="1.0" stroke-linecap="round" stroke-linejoin="round"  filling="0" d="M437.036224 149.272705 C437.457184 150.188873 437.483917 150.819458 437.437653 151.636063 C437.391388 152.452667 437.272095 153.455292 437.401001 155.115540 C437.376251 156.346527 437.441284 157.484283 437.507019 158.666092 C437.572784 159.847885 437.639282 161.073746 437.617523 162.480957 C437.432129 163.314178 437.441803 164.518127 437.523926 165.769348 C437.606018 167.020584 437.760559 168.319122 437.864899 169.341537 C438.094543 171.129517 437.865906 172.038452 437.215576 172.418304 C436.565247 172.798187 435.493225 172.648987 434.036072 172.320679 C433.021667 172.295380 432.001862 172.529724 430.911133 172.668533 C429.820374 172.807327 428.658691 172.850586 427.360535 172.443069 C426.816895 170.973038 426.638855 170.287781 426.630493 169.655945 C426.622162 169.024109 426.783508 168.445679 426.918732 167.189285 C426.847626 165.383942 426.803925 164.337112 426.765289 163.348541 C426.726624 162.359985 426.693054 161.429688 426.642242 159.857361 C426.697327 158.593887 426.714172 157.722595 426.691376 156.687790 C426.668579 155.652985 426.606140 154.454666 426.502563 152.537155 C426.245453 151.059479 426.353241 150.105118 426.885010 149.564728 C427.416809 149.024323 428.372559 148.897903 429.811371 149.076111 C431.739136 149.085144 432.765503 148.951950 433.699829 148.907669 C434.634155 148.863373 435.476501 148.908020 437.036224 149.272705"></path>
<path id="" fill="rgb(249, 252, 247)" fill-opacity="1.0" stroke="rgb(198, 156, 154)" stroke-width="0.60014319" stroke-opacity="1.0" stroke-linecap="round" stroke-linejoin="round"  filling="0" d="M409.801544 164.886749 C409.722107 167.838089 409.826447 167.824036 409.748657 170.703064 C409.090027 172.679901 406.656281 172.124237 404.501556 172.143555 C402.171356 172.715668 400.967499 172.193542 401.538849 169.063507 C401.534180 167.242676 401.719788 164.901459 401.777954 162.805206 C401.578735 160.182770 401.890076 158.980667 401.348816 156.529785 C401.371307 154.252609 401.406097 153.392319 401.436462 151.643585 C402.320923 149.042313 403.684479 148.427643 406.291260 148.819794 C409.210541 149.567444 409.942108 149.371475 409.803192 152.336884 C409.772583 153.854599 409.665161 155.920380 409.838776 158.344803 C409.825928 160.974609 409.694885 162.333145 409.801544 164.886749"></path>
<path id="" fill="rgb(218, 220, 224)" fill-opacity="1.0" stroke="rgb(240, 225, 180)" stroke-width="0.0" stroke-opacity="1.0" stroke-linecap="round" stroke-linejoin="round"  filling="0" d="M44.297821 47.905228 C43.956879 47.337860 43.846191 47.104416 43.625137 46.477036 C43.629196 46.023468 43.518799 45.393478 43.625305 44.965958 C44.088959 44.679626 44.749390 44.773468 45.232666 44.792648 C46.026245 44.985535 46.292114 45.332031 46.732864 45.588379 C47.380524 45.773087 47.720001 46.323349 47.860718 46.742020 C48.196869 47.754776 47.964325 47.785660 48.575180 48.043472 C49.493042 48.126755 49.412384 48.999344 48.870728 49.413498 C48.178772 49.932587 47.798065 49.521790 47.196381 49.384338 C46.650421 49.413513 46.350067 49.349884 45.873428 48.875244 C45.304794 48.618042 45.150238 48.630508 44.297821 47.905228"></path>
<path id="" fill="rgb(0, 39, 149)" fill-opacity="1.0" stroke="rgb(2, 0, 14)" stroke-width="1.95824635" stroke-opacity="1.0" stroke-linecap="round" stroke-linejoin="round"  filling="0" d="M197.252365 59.935181 C197.276871 59.952881 197.321045 59.986664 197.364624 60.008163 C197.398376 60.035995 197.458862 60.055679 197.469238 60.084961 C197.467178 60.121063 197.441788 60.146500 197.406311 60.198563 C197.370880 60.239716 197.353394 60.275299 197.315872 60.307465 C197.262848 60.324738 197.204132 60.300354 197.181183 60.283646 C197.107590 60.218613 197.121063 60.237289 197.088440 60.201477 C197.051041 60.172623 197.009979 60.109619 197.004700 60.074158 C196.989609 59.996048 196.988098 59.988708 197.003998 59.934219 C197.013626 59.895203 197.060242 59.859207 197.106750 59.862534 C197.155426 59.855362 197.184265 59.899719 197.252365 59.935181"></path>
<path id="" fill="rgb(0, 0, 0)" fill-opacity="1.0" stroke="rgb(81, 94, 133)" stroke-width="0.0" stroke-opacity="1.0" stroke-linecap="round" stroke-linejoin="round"  filling="0" d="M351.492615 71.773071 C351.492035 71.772781 351.491791 71.772522 351.491302 71.772278 C351.490753 71.771851 351.490417 71.771820 351.490021 71.771393 C351.489807 71.770920 351.490112 71.770615 351.490295 71.770126 C351.490662 71.769470 351.490845 71.769089 351.491058 71.768707 C351.491669 71.768616 351.492035 71.768799 351.492493 71.769012 C351.493317 71.769592 351.493195 71.769409 351.493622 71.769745 C351.494110 71.770081 351.494507 71.770538 351.494690 71.770966 C351.495026 71.771759 351.495117 71.771851 351.495087 71.772461 C351.495087 71.772995 351.494690 71.773468 351.494263 71.773529 C351.493622 71.773712 351.493286 71.773270 351.492615 71.773071"></path>
<path id="" fill="rgb(243, 245, 246)" fill-opacity="1.0" stroke="rgb(201, 200, 187)" stroke-width="0.0" stroke-opacity="1.0" stroke-linecap="round" stroke-linejoin="round"  filling="0" d="M143.948364 82.701416 C144.176117 82.844788 144.962006 83.143188 145.578323 83.383041 C146.249588 83.514191 147.040375 83.468597 146.737015 84.280151 C146.376282 85.146790 146.640625 85.144135 147.273621 86.022705 C147.699112 86.746475 148.062302 87.187561 147.984726 87.847015 C147.247299 88.112473 146.260635 87.769196 146.030670 87.500183 C144.877472 86.740540 145.051270 86.780304 144.448349 86.461548 C143.639038 86.528610 143.076172 86.349976 142.435623 85.890503 C141.637619 85.293854 141.967682 85.030884 141.611053 84.325836 C141.364502 83.601624 141.271881 82.824310 141.706024 82.475006 C142.247009 81.945038 142.846680 82.451157 143.948364 82.701416"></path>
<path id="" fill="rgb(92, 110, 125)" fill-opacity="1.0" stroke="rgb(31, 0, 0)" stroke-width="1.76186848" stroke-opacity="1.0" stroke-linecap="round" stroke-linejoin="round"  filling="0" d="M399.930817 25.391724 C400.176971 25.576675 400.283997 25.721817 400.514374 25.860016 C400.751801 26.115051 400.906830 26.134583 401.181610 26.278488 C401.302673 26.435318 401.138062 26.640381 401.051971 26.922928 C400.932861 27.212372 400.881470 27.485870 400.773651 27.621643 C400.518463 27.587311 400.192352 27.462433 400.063629 27.346329 C399.649536 27.014847 399.755493 27.123535 399.523560 26.924454 C399.277283 26.722626 399.044983 26.536926 398.949280 26.381760 C398.807648 26.046921 398.747253 25.829147 398.744232 25.587799 C398.737518 25.334579 398.920654 25.080643 399.168030 25.058121 C399.442535 24.986237 399.654572 25.247009 399.930817 25.391724"></path>
<path id="" fill="rgb(232, 235, 240)" fill-opacity="1.0" stroke="rgb(174, 151, 108)" stroke-width="0.0" stroke-opacity="1.0" stroke-linecap="round" stroke-linejoin="round"  filling="0" d="M200.537308 63.312302 C199.941956 62.787048 199.858002 62.552338 199.263901 62.124786 C198.672287 61.720825 197.984573 61.779541 197.771378 61.504364 C197.843552 61.106613 197.765808 60.588943 197.655212 59.839294 C197.669373 59.115021 197.683090 58.474426 197.977112 58.159546 C198.707611 58.008804 199.398117 58.353821 199.656509 58.645721 C200.523148 59.536255 200.349365 59.431183 200.840622 59.776459 C201.636581 59.924698 202.121399 60.156219 202.578690 60.790344 C202.989258 61.486328 202.918411 61.491547 202.984070 62.453537 C202.991150 63.290207 202.743927 63.763947 202.313477 63.990234 C201.475967 64.294708 201.066162 63.702454 200.537308 63.312302"></path>
<path id="" fill="rgb(254, 253, 242)" fill-opacity="1.0" stroke="rgb(239, 231, 219)" stroke-width="0.0" stroke-opacity="1.0" stroke-linecap="round" stroke-linejoin="round"  filling="0" d="M351.945618 73.765869 C351.337433 73.458527 350.962433 73.184021 350.504181 72.915558 C349.787292 72.477448 349.208710 72.385498 349.222473 71.782608 C349.242584 71.267853 348.947113 70.817093 348.634888 70.202438 C348.363708 69.628662 348.020966 69.081238 348.263672 68.548401 C348.976440 68.262039 349.749817 68.448807 349.990936 68.687042 C350.919739 69.426880 350.720734 69.184067 351.187378 69.706863 C351.662048 70.262070 352.126251 70.776733 352.429901 71.104645 C353.078949 71.897125 353.181213 71.875427 353.683502 72.486084 C354.226532 73.243591 354.237030 73.765778 353.791046 74.042099 C353.065308 74.346436 352.475372 73.922455 351.945618 73.765869"></path>
<path id="" fill="rgb(241, 244, 238)" fill-opacity="1.0" stroke="rgb(204, 196, 165)" stroke-width="0.0" stroke-opacity="1.0" stroke-linecap="round" stroke-linejoin="round"  filling="0" d="M398.184052 25.489502 C397.567963 25.069336 397.679596 25.028595 396.909515 24.608688 C396.411987 24.367905 396.005859 24.186035 395.314423 23.902008 C394.940552 23.516647 395.421692 23.296692 395.685577 22.758698 C396.203949 22.119476 396.301331 21.759430 396.658081 21.370636 C397.337372 21.445007 397.593475 21.662399 398.071075 22.019989 C398.866180 22.761261 398.701996 22.515259 399.194733 22.966492 C399.856201 23.473160 400.170807 23.700989 400.440643 24.128357 C400.730713 24.906189 400.748199 25.316010 400.740967 25.787018 C400.708649 26.436111 400.296204 26.965576 399.802429 26.659683 C399.143250 26.439865 398.758270 25.813980 398.184052 25.489502"></path>
</svg>