<?xml version="1.0" ?>
<svg xmlns="http://www.w3.org/2000/svg" version="1.1" width="512" height="512" viewBox="0 0 512 512">
  <defs/>
  <g>
    <path d="M 577.59985352 419.83120728 C 557.79327393 426.29278564 537.96929932 432.77731323 518.15246582 439.22949219 C 498.31024170 445.57135010 478.43212891 451.76837158 458.54373169 457.76681519 C 438.60757446 463.47689819 418.62960815 468.80718994 398.60076904 473.66671753 C 378.54443359 477.92895508 358.45758057 481.59915161 338.33779907 484.50125122 C 318.24291992 486.56094360 298.16482544 487.67803955 278.13543701 487.75442505 C 258.20428467 486.75595093 238.43896484 484.61300659 218.84934998 481.22320557 C 199.51307678 476.54299927 180.48522949 470.54605103 161.79450989 463.20550537 C 143.55249023 454.51559448 125.82503510 444.49252319 108.66421509 433.13977051 C 92.06636810 420.44088745 76.15177155 406.49337769 61.00785446 391.38586426 C 46.69266891 375.15179443 33.20962906 357.88311768 20.62030602 339.65386963 C 8.99492073 320.58270264 -1.65042818 300.77835083 -11.23248577 280.39544678 C -19.71020126 259.57629395 -27.06422424 238.45886230 -33.20591354 217.18939209 C -38.11294174 195.82052612 -41.82658768 174.55604553 -44.27404022 153.60057068 C -45.27960205 133.13778687 -44.85974503 113.27581024 -43.01007843 94.12380981 C -39.67313385 75.77507019 -34.86224365 58.40889740 -28.44336319 42.15930176 C -20.35841942 27.21314812 -10.55620575 13.70300579 1.08351290 1.72157931 C 14.59598160 -8.62864971 29.79865265 -17.44111252 46.58770370 -24.85192490 C 64.84635925 -31.03853607 84.36217499 -36.16763687 104.99143982 -40.37562943 C 126.62371826 -43.80516815 149.10920715 -46.57426071 172.32447815 -48.72812653 C 196.16752625 -50.27392960 220.44789124 -51.26074600 244.93275452 -51.80849075 C 269.51361084 -51.92394257 294.11163330 -51.57562256 318.54760742 -50.74678421 C 342.61495972 -49.32776260 366.14181519 -47.26314926 389.03527832 -44.45247269 C 411.06298828 -40.81829834 432.07858276 -36.25725937 451.93682861 -30.59727478 C 470.49276733 -23.66285896 487.52914429 -15.29571247 502.91632080 -5.33520174 C 516.48339844 6.32500887 528.28851318 19.71658325 538.41271973 34.75001526 C 547.00921631 51.26618576 554.25012207 69.14138031 560.26525879 88.21145630 C 565.23852539 108.33120728 569.33227539 129.38079834 572.69458008 151.16961670 C 575.43731689 173.61804199 577.66131592 196.53190613 579.50292969 219.82533264 C 581.11999512 243.41557312 582.58782959 267.12252808 583.92095947 290.95632935 C 585.17083740 314.87860107 586.37268066 338.82495117 577.59985352 419.83120728" stroke-width="2.00000000" fill="rgb(10, 26, 66)" opacity="1.0" stroke="rgb(8, 24, 68)" stroke-opacity="1.0" stroke-linecap="round" stroke-linejoin="round"/>
    <path d="M 41.28704071 54.51440811 C 41.29347610 54.54272079 41.28577805 54.52181625 41.29227448 54.52204895 C 41.29165268 54.53989792 41.27904129 54.52519989 41.29479218 54.53025055 C 41.29198837 54.53202820 41.28384018 54.53087616 41.28833771 54.53133392 C 41.29040909 54.53139496 41.28765869 54.53363800 41.28247452 54.53086090 C 41.29381943 54.52217102 41.28698349 54.54430771 41.28008652 54.53038788 C 41.29241943 54.52376938 41.29286957 54.53664017 41.28025055 54.53864670 C 41.29062271 54.52274323 41.29227829 54.53014374 41.28725815 54.54319763 C 41.28849030 54.51813507 41.29615402 54.52959061 41.28178024 54.54000092 C 41.29625702 54.52520370 41.29919815 54.52759552 41.28266525 54.53785324 C 41.29997635 54.52434921 41.29170990 54.53447342 41.28704071 54.51440811" stroke-width="0.00000000" fill="rgb(255, 255, 243)" opacity="1.0" stroke="rgb(49, 0, 0)" stroke-opacity="1.0" stroke-linecap="round" stroke-linejoin="round"/>
    <path d="M 141.36196899 82.38418579 C 141.50262451 82.24936676 141.73020935 82.29149628 142.22206116 82.35417938 C 142.90652466 82.39570618 143.37907410 82.23310852 143.52142334 82.15584564 C 143.65119934 82.60125732 144.13478088 82.98412323 144.68566895 83.39257812 C 145.03514099 83.86460114 145.57530212 84.26030731 146.17863464 84.44117737 C 146.58361816 84.74681854 146.93432617 85.06391907 147.38967896 85.25656128 C 147.66856384 85.49082184 147.72500610 85.77281952 147.45092773 86.04692078 C 147.38362122 86.33493805 147.25286865 86.60953522 146.83352661 86.91912079 C 146.52915955 87.09533691 146.26255798 87.17073059 145.72276306 87.32702637 C 145.28440857 87.02261353 144.81762695 86.77606964 144.15452576 86.46437836 C 143.47067261 86.14152527 142.56529236 86.01247406 141.36196899 82.38418579" stroke-width="2.00000000" fill="rgb(130, 141, 151)" opacity="1.0" stroke="rgb(10, 3, 0)" stroke-opacity="0.450779" stroke-linecap="round" stroke-linejoin="round"/>
    <path d="M 342.83105469 67.25339508 C 342.84268188 67.28179932 342.85223389 67.27960205 342.87359619 67.30547333 C 342.87112427 67.31138611 342.88693237 67.31070709 342.88943481 67.33665466 C 342.88677979 67.33843994 342.90032959 67.34834290 342.89416504 67.35786438 C 342.89184570 67.36286163 342.90463257 67.37271118 342.90759277 67.38625336 C 342.89041138 67.37374878 342.91223145 67.39202118 342.90328979 67.40896606 C 342.89672852 67.39055634 342.89492798 67.40383148 342.89144897 67.41603088 C 342.88229370 67.40467072 342.88497925 67.41503906 342.86679077 67.41713715 C 342.86590576 67.41166687 342.84841919 67.42078400 342.84628296 67.41646576 C 342.82727051 67.40187073 342.81152344 67.42926788 342.80078125 67.39582825 C 342.78103638 67.40644073 342.76947021 67.40047455 342.83105469 67.25339508" stroke-width="0.15592742" fill="rgb(11, 31, 87)" opacity="1.0" stroke="rgb(40, 53, 103)" stroke-opacity="0.21312988" stroke-linecap="round" stroke-linejoin="round"/>
    <path d="M 203.99983215 55.41431427 C 203.98773193 55.35113525 203.94549561 55.32053757 203.91439819 55.27640533 C 203.90499878 55.26818466 203.87484741 55.23138046 203.84977722 55.23084641 C 203.84132385 55.23852539 203.83020020 55.22389603 203.81068420 55.23162842 C 203.80400085 55.23890305 203.79681396 55.23939514 203.79061890 55.25406265 C 203.78451538 55.25465775 203.76945496 55.25854111 203.78207397 55.26718140 C 203.75730896 55.27011108 203.76866150 55.27206802 203.75270081 55.27307510 C 203.74517822 55.28538895 203.74562073 55.27550888 203.73167419 55.29233170 C 203.72961426 55.30561447 203.71925354 55.29879761 203.71853638 55.33226013 C 203.70812988 55.36452866 203.70173645 55.36778259 203.70851135 55.41475296 C 203.71752930 55.47282028 203.71076965 55.49183655 203.99983215 55.41431427" stroke-width="2.00000000" fill="rgb(76, 11, 44)" opacity="1.0" stroke="rgb(7, 25, 65)" stroke-opacity="0.9749021" stroke-linecap="round" stroke-linejoin="round"/>
    <path d="M 400.07614136 25.11399841 C 400.06921387 25.10136795 400.08477783 25.11606026 400.06442261 25.11211014 C 400.08059692 25.11929131 400.07690430 25.11311150 400.07199097 25.12688065 C 400.08151245 25.12020683 400.07189941 25.12857056 400.07711792 25.13057899 C 400.07342529 25.12633705 400.07391357 25.13786316 400.07028198 25.13161278 C 400.07141113 25.13639069 400.06652832 25.14201164 400.06423950 25.13801765 C 400.06002808 25.14323616 400.05770874 25.14404106 400.05261230 25.14450836 C 400.05450439 25.15249825 400.03366089 25.14282608 400.05249023 25.15513992 C 400.02651978 25.15349770 400.02682495 25.15275764 400.03646851 25.15731239 C 400.01693726 25.15927315 400.00390625 25.15981483 400.02041626 25.15865517 C 400.00134277 25.16616440 399.99685669 25.16272163 400.07614136 25.11399841" stroke-width="0.00000000" fill="rgb(7, 12, 0)" opacity="1.0" stroke="rgb(255, 255, 255)" stroke-opacity="1.0" stroke-linecap="round" stroke-linejoin="round"/>
    <path d="M 608.19995117 422.65689087 C 594.86816406 430.23400879 581.52496338 437.80346680 568.10882568 445.37652588 C 554.68273926 452.92276001 541.20507812 460.40832520 527.59411621 467.77139282 C 513.83386230 475.02883911 499.88296509 482.14434814 485.67868042 489.04751587 C 471.17449951 495.69003296 456.37402344 502.12582397 441.19171143 508.24203491 C 425.60662842 514.02008057 409.58825684 519.47009277 393.14736938 524.55511475 C 376.22973633 529.25744629 358.85278320 533.53485107 341.00759888 537.42095947 C 322.70993042 540.89031982 304.00753784 543.88238525 284.91659546 546.42724609 C 265.51022339 548.47259521 245.81047058 550.00793457 225.88824463 551.02545166 C 205.85527039 551.43969727 185.76783752 551.22967529 165.71463013 550.36309814 C 145.83763123 548.76544189 126.21769714 546.34082031 106.97948456 543.09088135 C 88.27472687 538.87341309 70.20794678 533.65252686 52.95305252 527.31475830 C 36.65110016 519.78417969 21.43377495 510.91470337 7.51517725 500.67474365 C -4.99602938 488.97857666 -16.02824402 475.84082031 -25.55862617 461.48889160 C -33.61904526 446.16159058 -40.27067947 429.95034790 -45.47785568 413.11257935 C -49.26571655 395.93154907 -51.66630173 378.64459229 -52.65188599 361.43798828 C -52.27515411 344.61044312 -50.51609039 328.48294067 -47.38702393 313.28503418 C -42.89671326 299.24688721 -36.99567413 286.68130493 -29.72396469 275.90609741 C -21.07109070 267.34002686 -11.00714874 261.28057861 0.46097565 257.99639893 C 13.27646255 257.76498413 27.36282921 257.99636841 42.63987350 257.98181152 C 58.97032547 257.98522949 76.28060150 257.96234131 94.42861938 257.87796021 C 113.30373383 257.89846802 132.75376892 257.80523682 152.64657593 257.99502563 C 172.94190979 257.90295410 193.46632385 257.86755371 214.05892944 257.89483643 C 234.68121338 258.00253296 255.22010803 257.86868286 275.57989502 257.89514160 C 295.72134399 258.21166992 315.58462524 257.90444946 335.16232300 257.96658325 C 354.40762329 258.13204956 373.33038330 257.97521973 391.89401245 257.79290771 C 410.09091187 258.02520752 427.87988281 258.24145508 445.29876709 258.45306396 C 462.35852051 258.11199951 479.08358765 257.81948853 495.50741577 257.96008301 C 511.68548584 257.94375610 527.67761230 257.96688843 543.49908447 258.06488037 C 559.21520996 258.18423462 574.85681152 258.26983643 590.43554688 258.30163574 C 606.00720215 258.34533691 621.58258057 258.38052368 608.19995117 422.65689087" stroke-width="1.27113783" fill="rgb(16, 116, 204)" opacity="1.0" stroke="rgb(34, 116, 193)" stroke-opacity="1.0" stroke-linecap="round" stroke-linejoin="round"/>
    <path d="M 360.78103638 474.03155518 C 347.51083374 475.39224243 334.32025146 477.02221680 321.51702881 479.08139038 C 309.22363281 481.49713135 297.29205322 482.45803833 285.72857666 480.57015991 C 274.56689453 476.70297241 263.45425415 474.03085327 251.97506714 474.30865479 C 240.42337036 473.80511475 228.98742676 476.75439453 216.42231750 480.29962158 C 201.66845703 482.71569824 186.72096252 482.21978760 171.63542175 477.10879517 C 155.25424194 473.19259644 138.27165222 473.01727295 121.54941559 477.58908081 C 104.66719818 482.61059570 87.42854309 483.24160767 70.76531219 478.71060181 C 54.18774796 473.44528198 37.47507477 472.87826538 21.98992920 476.00021362 C 8.99118900 479.70501709 0.07866561 482.14556885 -3.76109242 480.30224609 C -1.43609238 477.54501343 7.02120066 475.96438599 19.02077484 472.33996582 C 33.26922226 468.90872192 48.85389328 468.82971191 64.89802551 473.08245850 C 81.14399719 478.24935913 98.01853943 479.25030518 114.87013245 475.40414429 C 131.50468445 469.30209351 148.70361328 468.46023560 166.13221741 471.75726318 C 181.66748047 477.00299072 196.41229248 478.77420044 210.89105225 477.16854858 C 223.58308411 474.39270020 235.10636902 470.47790527 246.90594482 469.82781982 C 258.90603638 469.62130737 270.41235352 471.20825195 281.67364502 475.59045410 C 293.96279907 478.53213501 306.95223999 477.85830688 321.45904541 474.67651367 C 337.37475586 471.94039917 354.48873901 469.49005127 372.63348389 467.42160034 C 391.35781860 465.54708862 410.47503662 463.75659180 429.96453857 462.03256226 C 449.61315918 460.30484009 469.27114868 458.53134155 360.78103638 474.03155518" stroke-width="1.78294218" fill="rgb(200, 245, 240)" opacity="1.0" stroke="rgb(21, 101, 79)" stroke-opacity="0.37918186" stroke-linecap="round" stroke-linejoin="round"/>
    <path d="M 407.66372681 499.28826904 C 398.84518433 499.61370850 390.07177734 499.91036987 381.26528931 500.21148682 C 372.43450928 500.52062988 363.57525635 500.85198975 354.66732788 501.21191406 C 345.73040771 501.58316040 336.66680908 502.03060913 327.45315552 502.55166626 C 318.11944580 503.15066528 308.62500000 503.86242676 298.95108032 504.69812012 C 289.02206421 505.59014893 278.83502197 506.56311035 268.36596680 507.57962036 C 257.56344604 508.62686157 246.45123291 509.68350220 234.96566772 510.71734619 C 223.13760376 511.65979004 210.94189453 512.54449463 198.38717651 513.33374023 C 185.49411011 513.93884277 172.24906921 514.42089844 158.75515747 514.70257568 C 145.03804016 514.74896240 131.14552307 514.62225342 117.19332123 514.30541992 C 103.28089142 513.77844238 89.53645325 513.03778076 76.01868439 512.12365723 C 62.95035172 511.02075195 50.56778717 509.72399902 39.04654312 508.28604126 C 28.52348328 506.73342896 19.22095680 505.06646729 11.38737297 503.24557495 C 5.25479221 501.35449219 1.12895584 499.42572021 -0.83741206 497.57638550 C -0.44129831 496.24404907 2.27714801 495.31384277 6.88232946 494.30697632 C 13.10570526 492.41381836 20.63369751 490.28366089 29.49276924 488.99548340 C 39.20123291 488.22592163 49.45759964 488.58166504 59.95066071 490.29049683 C 70.28676605 493.05630493 80.65261078 495.26889038 91.55423737 495.41555786 C 102.77338409 495.46667480 114.04913330 493.61575317 125.40870667 490.74642944 C 136.63560486 488.25546265 148.10792542 488.01986694 159.31611633 489.14489746 C 170.03335571 491.26412964 180.21784973 493.97729492 190.55026245 495.03204346 C 200.86048889 495.88577271 211.03889465 495.19995117 221.05992126 493.15887451 C 230.80877686 490.64282227 240.16485596 488.71887207 249.61610413 488.74987793 C 259.12683105 488.53616333 268.40206909 489.71835327 277.45425415 492.26074219 C 286.61706543 494.53274536 295.55874634 495.93856812 304.64099121 494.82348633 C 314.41867065 493.84326172 324.82385254 493.24475098 335.60278320 493.04772949 C 346.60070801 493.06121826 357.77783203 493.24356079 369.01107788 493.54629517 C 380.19961548 493.93649292 391.20413208 494.32138062 402.03125000 494.69317627 C 412.77435303 495.15170288 423.37707520 495.64093018 433.83819580 496.08944702 C 444.16036987 496.55847168 454.42651367 497.06246948 464.66134644 497.57882690 C 474.87484741 498.04211426 485.06726074 498.46615601 407.66372681 499.28826904" stroke-width="0.66599673" fill="rgb(208, 248, 250)" opacity="1.0" stroke="rgb(170, 255, 195)" stroke-opacity="0.47500405" stroke-linecap="round" stroke-linejoin="round"/>
    <path d="M 521.38116455 511.05569458 C 513.10534668 511.90011597 504.88500977 512.70086670 496.65502930 513.55578613 C 488.37585449 514.40875244 480.11599731 515.23760986 471.82357788 516.07611084 C 463.44845581 516.95092773 454.95361328 517.81909180 446.42077637 518.69805908 C 437.81466675 519.55603027 429.14535522 520.41351318 420.44519043 521.24932861 C 411.69036865 522.05987549 402.86178589 522.84362793 394.03063965 523.61907959 C 385.24087524 524.33807373 376.55325317 524.94415283 367.95452881 525.43804932 C 359.48440552 525.79992676 351.27862549 525.97839355 343.40701294 525.99914551 C 335.94485474 525.76733398 328.93859863 525.21856689 322.44140625 524.34826660 C 316.64569092 523.22277832 311.65695190 521.73162842 307.50500488 519.86944580 C 304.29071045 517.54766846 302.10537720 514.71990967 301.00546265 511.37930298 C 301.10485840 507.37261963 302.62460327 503.23883057 305.59494019 498.79513550 C 307.91577148 492.94046021 309.97558594 486.12127686 312.70678711 478.90634155 C 315.06225586 471.05203247 318.04302979 463.15121460 320.76770020 454.89920044 C 323.27462769 446.29895020 326.33135986 437.87414551 329.36981201 429.45983887 C 332.06222534 421.08575439 335.04739380 413.12667847 337.69924927 405.46450806 C 339.97409058 398.15667725 342.17266846 391.44638062 344.46459961 385.56408691 C 346.92974854 380.52359009 349.83831787 376.55834961 353.26342773 373.75363159 C 356.83297729 371.87924194 360.36358643 371.03109741 363.69952393 371.47286987 C 366.62380981 373.83557129 370.07138062 376.72705078 375.09204102 378.43914795 C 381.87069702 379.66598511 389.96948242 380.84881592 399.13488770 381.90267944 C 409.04867554 382.79165649 419.33755493 383.46298218 429.60137939 383.80432129 C 439.47454834 383.75454712 448.70797729 383.31353760 457.01232910 382.35827637 C 463.91259766 380.67425537 469.39837646 380.51190186 473.76922607 382.80606079 C 477.53927612 386.44531250 481.06677246 390.35766602 485.17196655 393.24502563 C 489.23718262 395.16390991 493.15649414 395.23339844 497.03128052 393.66116333 C 500.69683838 392.12875366 503.93847656 392.17541504 506.87802124 394.43368530 C 509.65979004 398.38226318 512.21453857 403.60281372 514.60986328 409.98434448 C 516.85894775 417.38458252 518.92425537 425.63357544 520.88714600 434.50079346 C 522.83789062 443.82022095 524.70642090 453.42568970 526.47161865 463.23004150 C 528.24072266 473.19857788 530.07421875 483.28582764 521.38116455 511.05569458" stroke-width="1.28296602" fill="rgb(135, 68, 28)" opacity="1.0" stroke="rgb(85, 85, 99)" stroke-opacity="0.8600458" stroke-linecap="round" stroke-linejoin="round"/>
    <path d="M 427.77038574 405.96322632 C 422.74197388 406.02062988 417.73944092 406.11907959 412.78762817 406.21731567 C 408.01263428 406.15417480 403.44268799 405.87896729 399.06811523 405.38330078 C 394.97543335 404.64257812 391.22399902 403.60409546 387.81997681 402.16494751 C 384.95828247 400.31582642 382.92987061 398.07284546 381.88088989 395.30706787 C 381.88098145 391.92611694 382.20159912 387.98596191 382.26977539 383.49575806 C 382.10284424 378.68118286 382.58224487 373.35644531 382.28109741 367.48837280 C 382.29086304 360.99917603 382.49072266 354.05422974 382.38867188 346.75698853 C 382.39810181 339.12896729 382.62011719 331.26086426 382.22869873 323.42703247 C 382.58334351 315.51766968 382.27554321 307.50061035 382.35476685 299.32833862 C 382.43701172 291.27590942 382.37628174 283.40829468 382.18469238 275.54388428 C 382.58801270 267.70452881 381.99331665 260.03619385 382.19500732 252.57908630 C 382.49499512 245.48997498 381.39840698 238.49990845 381.90512085 231.47781372 C 381.58056641 224.87806702 382.02996826 218.63441467 381.65563965 212.81175232 C 381.95144653 207.51731873 381.33859253 203.25708008 382.25180054 199.81727600 C 384.90768433 197.24179077 388.71118164 195.09356689 393.38311768 193.25314331 C 398.71966553 191.74673462 404.59481812 190.53611755 410.93280029 189.65472412 C 417.63153076 189.21411133 424.43484497 189.18418884 431.03552246 189.48933411 C 437.25421143 190.12539673 442.97329712 191.20637512 448.12646484 192.78276062 C 452.61227417 194.76756287 456.13275146 197.10124207 458.23718262 199.80244446 C 458.54306030 203.43930054 458.34445190 207.63385010 458.48962402 212.38301086 C 458.39620972 217.48667908 458.53265381 223.01608276 458.47793579 228.81510925 C 458.64413452 234.75994873 458.25720215 240.78553772 458.51205444 247.07369995 C 458.52166748 253.53639221 458.70031738 259.95248413 458.67962646 266.38040161 C 458.55062866 272.78286743 458.76104736 279.28942871 458.63836670 286.11950684 C 458.86340332 293.00720215 458.77246094 299.99996948 458.55114746 307.11135864 C 458.83010864 314.24792480 458.59970093 321.42105103 458.55859375 328.61328125 C 458.66519165 335.79232788 458.52783203 342.92285156 458.72756958 350.12600708 C 458.60775757 357.35449219 458.77816772 364.40985107 458.71676636 371.28982544 C 459.00585938 377.88369751 458.85122681 384.29522705 458.82122803 390.78225708 C 458.63128662 397.29122925 458.63610840 403.85437012 427.77038574 405.96322632" stroke-width="2.00000000" fill="rgb(249, 252, 250)" opacity="1.0" stroke="rgb(52, 5, 0)" stroke-opacity="0.19952382" stroke-linecap="round" stroke-linejoin="round"/>
    <path d="M 456.27374268 198.39889526 C 451.77456665 198.44099426 447.32061768 198.36381531 442.96112061 198.43862915 C 438.64813232 198.46914673 434.45501709 198.43620300 430.30020142 198.45906067 C 426.12887573 198.73826599 422.06002808 198.41409302 418.20767212 198.55830383 C 414.26214600 198.57644653 410.27587891 198.48272705 406.36355591 198.50183105 C 402.56964111 198.56166077 399.03396606 198.63116455 395.81912231 198.43557739 C 392.94226074 198.53857422 390.42791748 198.26567078 388.29458618 198.52879333 C 386.49313354 198.67604065 385.04541016 198.56913757 384.15661621 198.10073853 C 384.04553223 196.66587830 384.17169189 194.25369263 384.24682617 191.18829346 C 384.19125366 187.64598083 384.17733765 183.89118958 384.22930908 180.31559753 C 384.28182983 177.15116882 384.06838989 174.58078003 383.97409058 172.81063843 C 384.58932495 172.00198364 385.85812378 172.05560303 387.79266357 172.11050415 C 390.37072754 172.01110840 393.54397583 172.10293579 397.14529419 172.17411804 C 401.00259399 172.36244202 405.06402588 172.31884766 409.31256104 172.32543945 C 413.63137817 172.41516113 417.90167236 172.47613525 422.10144043 172.46385193 C 426.22817993 172.34494019 430.18823242 172.21717834 433.92117310 172.21879578 C 437.43862915 172.18637085 440.78381348 172.01431274 443.84411621 172.08863831 C 446.54257202 172.12721252 448.86682129 171.98556519 450.91180420 172.03132629 C 452.67373657 172.07011414 454.00381470 172.15534973 455.00112915 172.25514221 C 455.72564697 172.26550293 456.21383667 172.22541809 456.44320679 172.20742798 C 456.28683472 172.11732483 455.91809082 171.95524597 456.27374268 198.39889526" stroke-width="0.93820077" fill="rgb(241, 73, 70)" opacity="1.0" stroke="rgb(124, 20, 24)" stroke-opacity="0.8165963" stroke-linecap="round" stroke-linejoin="round"/>
    <path d="M 437.86532593 144.96467590 C 437.90396118 147.12406921 437.61450195 149.28562927 437.17752075 151.49928284 C 436.86639404 153.73410034 436.23071289 155.93942261 435.54565430 158.02189636 C 434.72088623 160.02183533 433.83816528 162.04827881 432.96139526 164.08628845 C 432.08557129 166.04365540 431.10302734 167.92037964 430.00936890 169.70332336 C 428.83483887 171.29998779 427.56973267 172.62736511 426.22152710 173.70368958 C 424.68218994 174.36448669 422.94046021 174.60874939 421.04394531 174.58378601 C 419.09170532 174.52505493 417.07769775 174.57864380 415.02261353 174.66154480 C 413.07794189 174.58013916 411.34188843 174.14952087 409.77587891 173.23304749 C 408.35562134 171.79371643 406.93585205 170.15995789 405.60464478 168.39639282 C 404.50759888 166.40533447 403.62634277 164.20056152 402.85433960 162.01791382 C 402.16656494 159.88417053 401.64950562 157.67866516 401.33474731 155.37832642 C 401.18112183 153.13665771 401.00402832 151.07862854 400.82070923 149.12869263 C 400.71182251 147.28904724 400.67843628 145.71505737 400.97058105 144.44247437 C 401.72921753 143.45954895 402.88018799 142.92430115 404.24499512 142.51576233 C 405.60852051 142.20042419 406.82952881 141.69364929 407.87298584 140.72567749 C 409.12149048 139.59039307 410.48977661 138.36083984 411.95449829 137.28700256 C 413.62417603 136.44338989 415.57110596 135.84219360 417.81939697 135.49517822 C 420.19851685 135.52416992 422.52447510 135.97291565 424.68029785 136.82987976 C 426.57199097 138.08557129 428.19500732 139.67347717 429.68875122 141.26013184 C 431.73715210 142.20002747 433.93041992 142.64514160 437.86532593 144.96467590" stroke-width="0.91660976" fill="rgb(235, 73, 79)" opacity="1.0" stroke="rgb(255, 36, 0)" stroke-opacity="0.20666823" stroke-linecap="round" stroke-linejoin="round"/>
    <path d="M 469.42645264 59.22894287 C 468.32897949 63.21065903 466.38000488 66.87918854 464.38952637 70.86298370 C 462.39700317 75.03456879 460.28076172 79.46260071 458.04049683 84.09485626 C 455.46765137 88.67237854 453.04974365 93.71741486 450.61941528 98.92308044 C 447.77014160 104.16274261 445.19229126 109.63976288 442.46176147 115.11852264 C 439.86184692 120.47217560 437.07629395 125.33132935 434.82836914 129.96110535 C 433.02026367 134.19573975 431.42944336 137.42306519 429.35067749 139.22540283 C 426.29049683 139.38713074 422.60751343 139.33044434 418.78543091 139.28530884 C 415.25509644 139.20542908 412.11166382 139.29158020 409.26803589 139.28953552 C 407.30905151 137.03492737 405.54730225 133.38327026 403.88955688 129.02764893 C 401.54467773 124.52667999 399.38842773 119.21947479 396.49862671 113.92805481 C 393.73809814 108.09802246 390.82302856 102.09941864 388.16314697 95.88946533 C 385.23626709 90.07350159 382.61816406 84.27076721 379.91671753 78.94628906 C 377.35803223 74.07141876 375.39486694 69.35697174 373.61904907 65.40717316 C 371.88714600 62.23776627 371.40447998 59.86176300 371.52301025 58.59808350 C 372.37832642 58.95231628 373.81106567 59.50073624 376.09387207 59.24963760 C 379.13803101 59.39133453 383.08752441 59.41075516 387.80545044 59.22276688 C 392.95578003 59.14630127 398.56478882 59.41895294 404.54238892 59.25302505 C 410.87298584 59.21706772 417.51632690 59.18067932 424.41201782 59.33131027 C 431.44076538 59.42107391 438.54806519 59.17770767 445.66793823 59.30131149 C 452.86019897 59.04128265 460.00668335 59.64933014 469.42645264 59.22894287" stroke-width="1.98689485" fill="rgb(244, 178, 50)" opacity="1.0" stroke="rgb(54, 13, 0)" stroke-opacity="0.42716625" stroke-linecap="round" stroke-linejoin="round"/>
    <path d="M 406.59420776 257.44845581 C 405.41384888 257.49102783 404.26013184 257.39974976 403.16918945 257.47250366 C 402.18389893 257.50036621 401.36102295 257.36032104 400.76043701 257.27380371 C 400.41232300 257.26867676 400.23522949 257.10482788 400.16638184 256.64584351 C 400.22857666 255.89248657 400.20205688 254.99409485 400.16989136 254.02900696 C 400.21249390 252.86352539 400.19104004 251.46354675 400.09576416 249.96742249 C 400.13885498 248.43774414 400.16802979 246.93511963 400.12561035 245.48995972 C 400.05667114 244.05026245 400.02615356 242.62788391 399.95886230 241.32856750 C 400.14447021 240.17750549 400.27304077 239.17855835 400.27359009 238.37297058 C 399.97473145 237.71331787 399.92080688 237.20387268 400.27346802 236.88433838 C 400.85739136 236.77397156 401.70831299 236.73341370 402.68679810 236.73197937 C 403.72268677 236.64477539 404.96444702 236.72709656 406.28784180 236.89207458 C 407.49914551 236.73556519 408.65484619 236.59873962 409.76989746 236.71922302 C 410.77990723 236.78860474 411.58685303 236.68687439 412.13732910 236.68255615 C 412.41714478 236.89643860 412.47518921 237.33139038 412.40237427 238.02320862 C 412.35653687 238.90420532 412.32754517 239.90184021 412.33575439 240.99731445 C 412.35168457 242.27223206 412.40856934 243.70077515 412.32559204 245.13740540 C 412.26962280 246.59037781 412.29309082 248.08911133 412.27822876 249.62681580 C 412.43386841 251.16314697 412.42495728 252.59333801 412.33041382 253.83747864 C 412.39071655 255.03898621 412.29769897 256.04312134 412.33367920 256.84869385 C 412.63714600 257.37988281 412.84887695 257.75790405 406.59420776 257.44845581" stroke-width="1.00820959" fill="rgb(76, 200, 238)" opacity="1.0" stroke="rgb(147, 218, 234)" stroke-opacity="0.7078287" stroke-linecap="round" stroke-linejoin="round"/>
    <path d="M 436.66046143 258.20193481 C 435.74148560 257.99502563 434.87402344 257.84890747 433.98638916 257.87075806 C 432.98794556 257.83639526 431.97201538 257.79602051 431.00735474 257.73059082 C 430.11444092 257.61254883 429.27145386 257.65744019 428.35729980 257.77484131 C 427.51528931 257.81433105 426.74264526 257.69354248 426.12100220 257.50256348 C 425.60870361 257.50500488 425.09387207 257.52893066 424.66137695 257.41793823 C 424.47720337 257.06024170 424.50421143 256.51541138 424.54840088 255.73660278 C 424.59164429 254.76948547 424.65689087 253.74063110 424.64749146 252.59396362 C 424.59500122 251.27513123 424.58334351 249.82646179 424.72589111 248.35382080 C 424.64880371 246.86395264 424.75433350 245.36730957 424.82830811 243.86549377 C 424.72653198 242.35914612 424.54290771 240.95361328 424.52059937 239.73751831 C 424.69747925 238.72050476 424.67767334 237.90388489 424.53128052 237.24069214 C 424.70089722 236.87672424 425.07809448 236.77384949 425.52569580 236.96942139 C 426.14620972 237.20893860 426.97406006 237.36538696 427.98843384 237.35748291 C 429.04705811 237.49580383 430.11880493 237.46228027 431.27551270 237.42579651 C 432.49343872 237.52601624 433.65802002 237.46487427 434.62097168 237.46379089 C 435.42022705 237.34437561 436.11801147 237.23591614 436.77145386 237.13394165 C 437.20971680 237.23793030 437.43640137 237.62089539 437.44674683 238.16067505 C 437.24633789 238.76054382 437.18087769 239.42433167 437.29425049 240.27891541 C 437.28649902 241.22496033 437.17495728 242.26882935 437.27124023 243.31431580 C 437.19485474 244.36231995 437.02264404 245.38211060 436.66046143 258.20193481" stroke-width="1.06356108" fill="rgb(78, 199, 234)" opacity="1.0" stroke="rgb(151, 223, 232)" stroke-opacity="0.67896664" stroke-linecap="round" stroke-linejoin="round"/>
    <path d="M 400.70736694 310.26251221 C 400.42196655 308.94027710 400.41845703 307.65350342 400.68295288 306.39361572 C 400.55480957 305.05120850 400.44674683 303.65750122 400.49148560 302.33651733 C 400.52191162 301.16806030 400.54998779 300.02661133 400.73428345 298.81060791 C 400.68612671 297.52215576 400.55560303 296.30352783 400.45358276 295.22302246 C 400.43771362 294.27166748 400.67074585 293.43090820 400.78408813 292.66320801 C 400.60919189 291.99743652 400.44274902 291.47503662 400.45080566 291.12002563 C 400.75033569 290.78460693 401.18481445 290.48776245 401.71484375 290.35379028 C 402.52374268 290.53430176 403.58520508 290.66806030 404.65786743 290.47247314 C 405.73043823 290.33670044 406.90924072 290.42691040 408.15356445 290.51339722 C 409.27404785 290.42669678 410.26416016 290.54827881 411.19894409 290.73629761 C 411.97396851 290.60443115 412.39968872 290.52853394 412.50668335 290.79388428 C 412.51608276 291.39907837 412.52191162 292.27352905 412.37915039 293.28439331 C 412.45294189 294.36788940 412.36874390 295.58456421 412.34555054 296.91940308 C 412.45712280 298.29876709 412.53933716 299.71084595 412.57699585 301.14993286 C 412.43420410 302.47094727 412.50457764 303.53591919 412.62698364 304.51196289 C 412.64724731 305.46203613 412.57873535 306.30535889 412.42416382 306.94476318 C 412.37286377 307.48318481 412.36959839 307.81832886 412.34686279 308.19992065 C 412.36154175 308.64495850 412.38571167 309.12860107 412.48767090 309.46554565 C 412.63790894 309.64505005 412.68704224 309.93945312 412.69311523 310.16516113 C 412.68939209 310.41644287 412.63824463 310.65017700 400.70736694 310.26251221" stroke-width="0.90292829" fill="rgb(72, 197, 237)" opacity="1.0" stroke="rgb(99, 196, 217)" stroke-opacity="0.8222866" stroke-linecap="round" stroke-linejoin="round"/>
    <path d="M 436.30480957 290.58514404 C 436.30300903 291.86941528 436.46185303 293.10879517 436.48675537 294.40441895 C 436.44937134 295.74475098 436.51409912 297.08813477 436.51086426 298.42526245 C 436.48571777 299.75747681 436.45462036 301.10430908 436.52728271 302.45211792 C 436.54736328 303.76260376 436.64199829 305.00134277 436.63925171 306.13623047 C 436.46749878 307.15884399 436.35910034 308.10354614 436.43084717 309.00012207 C 436.57690430 309.81713867 436.56256104 310.41143799 436.45254517 310.66293335 C 436.28134155 310.58059692 435.95870972 310.49047852 435.40344238 310.48086548 C 434.62030029 310.56335449 433.65747070 310.62960815 432.64523315 310.63754272 C 431.59313965 310.50363159 430.57110596 310.57034302 429.58337402 310.70880127 C 428.54614258 310.61431885 427.44549561 310.55963135 426.47451782 310.51608276 C 425.72653198 310.47149658 425.17587280 310.43698120 424.74569702 310.42739868 C 424.59231567 309.95959473 424.55914307 309.23321533 424.65246582 308.31848145 C 424.56564331 307.28976440 424.58187866 306.24649048 424.76098633 305.11437988 C 424.75091553 303.78149414 424.70867920 302.28997803 424.72961426 300.83810425 C 424.95324707 299.60235596 424.85479736 298.52215576 424.54162598 297.53857422 C 424.62368774 296.52932739 424.66720581 295.46142578 424.60202026 294.37884521 C 424.88168335 293.48431396 424.94250488 292.62908936 424.86166382 291.87597656 C 424.91946411 291.22152710 425.19210815 290.74612427 425.32977295 290.59246826 C 425.49127197 290.63012695 425.64886475 290.72097778 425.74670410 290.81124878 C 425.87133789 290.83587646 425.98336792 290.72412109 436.30480957 290.58514404" stroke-width="0.98898107" fill="rgb(72, 197, 234)" opacity="1.0" stroke="rgb(100, 195, 220)" stroke-opacity="0.85630465" stroke-linecap="round" stroke-linejoin="round"/>
    <path d="M 407.54644775 362.60363770 C 406.06469727 362.83392334 404.70150757 362.84405518 403.46929932 362.83941650 C 402.45684814 362.65130615 401.64959717 362.63919067 400.94647217 362.84164429 C 400.46279907 362.88595581 400.16500854 362.60107422 400.09921265 362.10479736 C 400.12365723 361.41848755 400.21145630 360.46984863 400.24108887 359.28729248 C 400.25375366 358.02362061 400.18457031 356.68734741 400.20056152 355.25326538 C 400.27270508 353.82510376 400.36999512 352.42147827 400.26950073 351.02154541 C 400.07638550 349.68222046 400.15270996 348.42233276 400.29580688 347.23760986 C 400.22744751 346.13671875 400.00305176 345.11032104 399.82537842 344.20526123 C 399.71807861 343.48052979 399.94534302 342.98284912 400.49008179 342.76773071 C 401.26049805 342.96914673 402.19442749 342.98699951 403.24307251 342.74871826 C 404.36132812 342.63848877 405.50018311 342.78524780 406.71649170 342.86721802 C 407.91366577 342.67700195 409.04724121 342.60394287 410.05087280 342.77487183 C 410.93243408 342.74029541 411.62292480 342.66302490 412.22955322 342.65979004 C 412.66763306 342.80435181 412.84307861 343.15054321 412.78775024 343.75445557 C 412.73010254 344.48861694 412.74160767 345.38796997 412.92752075 346.40612793 C 412.88571167 347.58850098 412.86648560 348.79452515 412.79278564 349.98132324 C 412.85147095 351.20037842 412.88784790 352.51052856 412.76660156 353.80484009 C 412.69226074 355.06851196 412.62741089 356.33367920 412.70877075 357.61578369 C 412.68530273 358.85311890 412.61505127 360.05465698 412.62475586 361.22348022 C 412.78488159 362.34808350 412.90057373 363.55453491 407.54644775 362.60363770" stroke-width="1.03565300" fill="rgb(70, 196, 237)" opacity="1.0" stroke="rgb(131, 212, 229)" stroke-opacity="0.70172584" stroke-linecap="round" stroke-linejoin="round"/>
    <path d="M 434.52441406 342.89270020 C 435.08444214 342.69906616 435.56332397 342.65243530 436.02395630 342.78826904 C 436.49392700 342.82620239 436.89187622 342.93008423 437.07345581 343.14416504 C 437.08410645 343.59994507 437.12051392 344.33789062 437.15820312 345.26779175 C 437.20678711 346.27456665 437.20675659 347.28933716 436.99975586 348.37570190 C 436.92166138 349.60726929 436.95571899 350.92657471 436.96414185 352.29611206 C 436.94012451 353.69674683 437.00836182 355.07092285 437.02856445 356.30841064 C 436.96206665 357.50720215 436.89456177 358.71194458 436.76766968 359.84066772 C 436.74002075 360.83361816 436.63540649 361.68542480 436.67770386 362.36734009 C 436.87780762 362.85345459 436.97045898 363.14404297 436.71304321 363.38522339 C 436.14920044 363.43014526 435.39813232 363.46994019 434.51522827 363.55236816 C 433.45748901 363.51223755 432.36682129 363.36932373 431.20141602 363.26928711 C 430.02667236 363.37591553 428.85156250 363.49676514 427.77072144 363.39691162 C 426.85641479 363.40365601 426.05612183 363.34698486 425.37420654 363.06887817 C 424.91525269 362.63662720 424.72164917 362.08224487 424.78387451 361.27029419 C 424.72308350 360.22662354 424.75717163 359.06668091 424.80410767 357.91238403 C 424.81512451 356.71350098 424.75949097 355.42266846 424.67163086 354.09848022 C 424.71636963 352.75109863 424.75494385 351.38253784 424.80694580 350.09136963 C 424.76284790 348.86480713 424.62411499 347.70141602 424.65942383 346.62899780 C 424.87622070 345.59344482 424.85406494 344.64035034 424.77453613 343.77896118 C 424.50677490 343.09350586 424.29016113 342.62576294 434.52441406 342.89270020" stroke-width="1.08996606" fill="rgb(75, 194, 238)" opacity="1.0" stroke="rgb(134, 218, 235)" stroke-opacity="0.69666713" stroke-linecap="round" stroke-linejoin="round"/>
    <path d="M 292.92285156 521.44128418 C 286.19509888 521.23187256 279.47189331 521.06347656 272.74377441 520.90917969 C 266.02752686 520.75213623 259.29159546 520.64996338 252.52006531 520.56903076 C 245.67924500 520.47589111 238.82855225 520.41387939 231.93894958 520.40411377 C 224.92091370 520.37152100 217.75804138 520.26263428 210.50039673 520.15960693 C 203.11685181 520.09045410 195.60623169 520.05047607 187.95018005 520.00225830 C 180.14645386 519.95782471 172.16784668 519.89215088 163.97640991 519.82128906 C 155.63223267 519.77154541 147.12579346 519.69818115 138.44857788 519.62353516 C 129.63185120 519.58422852 120.67648315 519.57385254 111.67031097 519.57464600 C 102.59284210 519.55029297 93.45780182 519.52166748 84.34573364 519.46575928 C 75.27996063 519.38110352 66.36158752 519.28533936 57.61619568 519.12414551 C 49.12613297 518.84692383 40.93299484 518.49530029 33.16430283 518.00646973 C 25.84287453 517.37152100 19.10960770 516.61047363 13.05124855 515.65319824 C 7.74892378 514.48339844 3.27486205 513.10583496 -0.28561947 511.45504761 C -2.74838638 509.44454956 -4.26290751 507.43902588 -4.64951277 505.47210693 C -3.86529088 503.53976440 -1.90412951 501.83963013 1.23472607 500.48867798 C 5.53680658 499.45529175 10.74647045 498.19848633 16.66597176 496.76016235 C 22.98221397 495.08679199 29.75444794 493.68557739 37.03320694 493.31356812 C 44.50762558 492.95599365 52.24598694 493.70245361 60.12903214 495.08587646 C 67.98191833 496.98522949 75.74834442 498.70956421 83.75505066 499.66641235 C 91.75251007 500.27249146 99.71247101 500.04891968 107.67826080 499.07202148 C 115.65966034 497.81573486 123.55065918 496.08996582 131.38885498 494.76763916 C 139.04576111 493.35574341 146.68847656 493.01345825 154.24789429 493.48687744 C 161.67544556 494.21231079 168.96725464 495.70983887 176.29862976 497.26913452 C 183.46507263 498.91815186 190.61685181 499.99270630 197.83093262 500.14279175 C 205.09410095 500.25167847 212.36352539 499.66693115 219.65347290 498.36767578 C 226.92138672 496.70074463 234.23248291 495.12936401 241.71482849 493.86404419 C 249.16983032 493.24359131 256.38409424 493.32489014 263.38061523 493.98275757 C 269.94052124 495.03402710 276.03076172 496.44927979 281.83819580 497.67742920 C 287.55633545 498.77648926 293.07202148 499.58618164 298.39956665 499.78311157 C 303.41149902 499.15969849 308.30850220 498.04055786 292.92285156 521.44128418" stroke-width="0.62515098" fill="rgb(11, 168, 175)" opacity="1.0" stroke="rgb(32, 155, 153)" stroke-opacity="0.5301464" stroke-linecap="round" stroke-linejoin="round"/>
    <path d="M 461.12051392 406.63684082 C 456.77700806 406.39404297 452.34375000 406.62789917 447.80227661 406.65261841 C 443.09674072 406.57495117 438.34024048 406.50253296 433.50427246 406.46130371 C 428.74661255 406.62567139 424.09881592 406.53854370 419.48962402 406.62942505 C 414.86392212 406.59457397 410.22100830 406.56564331 405.75973511 406.51467896 C 401.62637329 406.52380371 397.72845459 406.54992676 394.03308105 406.48358154 C 390.54498291 406.55862427 387.43392944 406.64477539 384.82543945 406.47351074 C 382.76550293 406.63168335 381.22607422 406.65689087 380.32116699 406.39666748 C 380.15399170 405.35565186 380.28359985 403.96197510 380.35058594 402.38238525 C 380.35250854 400.49050903 380.49804688 398.52139282 380.59835815 396.75723267 C 380.47167969 395.38589478 380.42675781 394.41564941 380.75094604 393.95626831 C 381.84011841 394.03555298 383.71105957 394.08816528 386.21942139 394.14178467 C 389.21786499 394.06506348 392.60104370 394.15380859 396.47131348 394.05865479 C 400.58181763 393.95761108 404.77798462 394.15814209 409.09078979 394.09857178 C 413.53799438 394.00091553 418.07525635 394.00296021 422.52871704 394.14996338 C 426.93841553 394.12548828 431.21911621 394.03942871 435.29995728 394.07403564 C 439.16336060 394.04983521 442.83624268 394.01181030 446.30712891 393.89978027 C 449.42391968 394.09411621 452.07385254 394.08172607 454.19580078 393.93008423 C 455.89620972 394.11614990 457.34808350 393.86718750 458.56707764 393.72760010 C 459.54986572 393.85452271 460.33169556 393.91363525 460.90231323 393.69406128 C 461.08612061 393.50170898 461.31521606 393.69659424 461.12051392 406.63684082" stroke-width="1.61980486" fill="rgb(252, 217, 49)" opacity="1.0" stroke="rgb(242, 211, 77)" stroke-opacity="1.0" stroke-linecap="round" stroke-linejoin="round"/>
    <path d="M 436.72351074 149.13587952 C 436.94247437 150.32281494 437.03262329 151.42779541 437.23040771 152.49993896 C 437.17706299 153.68353271 437.30065918 155.03500366 437.21939087 156.68855286 C 437.06610107 158.39385986 437.17855835 160.06066895 437.32199097 161.46200562 C 437.06829834 162.62098694 437.29321289 163.68319702 437.52090454 164.65551758 C 437.41851807 165.72029114 437.33398438 166.82574463 437.61175537 167.92039490 C 437.45443726 168.93363953 437.54745483 170.10057068 437.56134033 170.97052002 C 437.63867188 171.53388977 437.91003418 171.94259644 437.93896484 172.07693481 C 437.53503418 172.16728210 436.85711670 172.18066406 435.96670532 172.14961243 C 434.96514893 172.25003052 433.78781128 172.41352844 432.46102905 172.31622314 C 431.21804810 172.16053772 429.94683838 172.05278015 428.76629639 172.07876587 C 427.87396240 172.22830200 427.23110962 172.24694824 426.78463745 172.02679443 C 426.67166138 171.61079407 426.75073242 170.90278625 426.87139893 169.94677734 C 427.05838013 168.70600891 427.05554199 167.40357971 427.00857544 165.97808838 C 427.04684448 164.43939209 426.98291016 162.88102722 426.67431641 161.40611267 C 426.76943970 160.09877014 426.89279175 158.62559509 426.98693848 157.30715942 C 426.83721924 156.09767151 426.80557251 155.21687317 426.91250610 154.38594055 C 426.60089111 153.51942444 426.65252686 152.61181641 426.95767212 151.94578552 C 427.04464722 151.32044983 426.91488647 150.80113220 426.66397095 150.29602051 C 426.63885498 149.83596802 426.66113281 149.43891907 426.69680786 149.28895569 C 426.68847656 149.26033020 426.78890991 149.28488159 436.72351074 149.13587952" stroke-width="0.61661506" fill="rgb(250, 251, 248)" opacity="1.0" stroke="rgb(224, 211, 208)" stroke-opacity="0.76830876" stroke-linecap="round" stroke-linejoin="round"/>
    <path d="M 409.87872314 172.15219116 C 407.71145630 172.22256470 405.83050537 172.27313232 404.28332520 172.26519775 C 403.03213501 172.15341187 402.05163574 172.29003906 401.35406494 172.27825928 C 401.10867310 171.77191162 401.21432495 170.77210999 401.28814697 169.31814575 C 401.37515259 167.43383789 401.56277466 165.53945923 401.31860352 163.53874207 C 401.10134888 161.25155640 401.13754272 158.91650391 401.61840820 156.89228821 C 401.48013306 154.99850464 401.31521606 153.07063293 401.25830078 151.29817200 C 401.40182495 149.81050110 401.36532593 148.80625916 401.57586670 148.13639832 C 402.24148560 148.39100647 403.56018066 148.70660400 405.06610107 148.85461426 C 406.50280762 149.11328125 407.91799927 149.23260498 409.14999390 149.01742554 C 409.81295776 148.56961060 410.05773926 148.07287598 409.87872314 172.15219116" stroke-width="0.65964645" fill="rgb(251, 249, 245)" opacity="1.0" stroke="rgb(203, 157, 155)" stroke-opacity="0.9620077" stroke-linecap="round" stroke-linejoin="round"/>
    <path d="M 43.71387482 47.01978302 C 43.78577423 46.53079605 43.85113525 46.10525894 43.70446014 45.66849899 C 43.64926910 45.28289795 43.51776123 44.81471634 43.65246201 44.45555496 C 43.89937973 44.62101746 44.42746735 44.68394852 44.93004227 44.87471390 C 45.56318665 44.95969391 46.08315277 45.27322006 46.57147598 45.80000687 C 46.99689865 46.24535370 47.51535416 46.73597336 47.85561752 47.25627899 C 48.39863205 47.63587570 48.83790207 47.83549118 48.96434402 48.31301880 C 48.98810959 48.77882004 48.90052032 49.19076157 48.83130646 49.63825989 C 48.70597076 49.97739410 48.50946045 50.14955521 48.12025452 50.25799179 C 47.65364838 50.05566406 47.14761734 49.94089508 46.55884933 49.48521423 C 45.70903778 49.19366074 44.87832260 48.97800827 43.71387482 47.01978302" stroke-width="0.37831342" fill="rgb(249, 253, 254)" opacity="1.0" stroke="rgb(168, 156, 121)" stroke-opacity="0.5800843" stroke-linecap="round" stroke-linejoin="round"/>
    <path d="M 198.45994568 59.26123428 C 198.34744263 59.24474716 198.21589661 59.29845047 198.09373474 59.38399887 C 198.00088501 59.39453125 197.96957397 59.46052170 197.99848938 59.58226776 C 198.00271606 59.66597366 197.95594788 59.74856949 197.87162781 59.91057968 C 197.84350586 60.07705307 197.79429626 60.21343231 197.75274658 60.23504257 C 197.73217773 60.18356323 197.76248169 60.10837555 197.78985596 60.10431671 C 197.81977844 60.09902191 197.85771179 60.06761169 197.84127808 60.03620529 C 197.80863953 59.98718262 197.75408936 59.94152451 197.71670532 59.91698074 C 197.68670654 59.89302444 197.59197998 59.82697678 197.45288086 59.71060181 C 197.36834717 59.60662460 197.37603760 59.52920914 197.40550232 59.40517426 C 197.41531372 59.24039841 197.31742859 59.19213104 198.45994568 59.26123428" stroke-width="1.81712544" fill="rgb(48, 98, 224)" opacity="1.0" stroke="rgb(5, 0, 7)" stroke-opacity="0.7229974" stroke-linecap="round" stroke-linejoin="round"/>
    <path d="M 351.49984741 71.77765656 C 351.48587036 71.76703644 351.49884033 71.77590179 351.49652100 71.76912689 C 351.48782349 71.77497101 351.50259399 71.77451324 351.49255371 71.76696014 C 351.49728394 71.77080536 351.49472046 71.78150177 351.50064087 71.76924896 C 351.49447632 71.76442719 351.49575806 71.78046417 351.50646973 71.77042389 C 351.49411011 71.76322174 351.49301147 71.78367615 351.50686646 71.76876831 C 351.49319458 71.76692963 351.49450684 71.76916504 351.50521851 71.78214264 C 351.49307251 71.76197052 351.49877930 71.76909637 351.49832153 71.77412415 C 351.49401855 71.76528168 351.50070190 71.77059937 351.49404907 71.76943970 C 351.49523926 71.76766968 351.50082397 71.76782227 351.48901367 71.76250458 C 351.50061035 71.77013397 351.49197388 71.76158905 351.49984741 71.77765656" stroke-width="0.00000000" fill="rgb(0, 0, 0)" opacity="1.0" stroke="rgb(81, 94, 133)" stroke-opacity="1.0" stroke-linecap="round" stroke-linejoin="round"/>
    <path d="M 145.13308716 83.17131805 C 145.62200928 83.60395813 145.96684265 83.97963715 146.38369751 84.30271149 C 146.65069580 84.75789642 146.88601685 85.28057098 146.94259644 85.80036926 C 146.66630554 86.24022675 146.60900879 86.58718109 146.55744934 86.81111908 C 146.59663391 86.89622498 146.48205566 86.96416473 146.30616760 87.18778229 C 146.02850342 87.20361328 145.77946472 87.22721100 145.60653687 87.37762451 C 145.46423340 87.39428711 145.15698242 87.31939697 144.86807251 87.24175262 C 144.65356445 86.71462250 144.22052002 86.35857391 143.74623108 86.07170868 C 143.24128723 85.70610809 142.62341309 85.28442383 142.09306335 84.83417511 C 141.81703186 84.27660370 141.71031189 83.74839783 141.73547363 83.11012268 C 141.29866028 82.44192505 141.05265808 81.85546112 145.13308716 83.17131805" stroke-width="0.41206920" fill="rgb(241, 244, 245)" opacity="1.0" stroke="rgb(255, 255, 254)" stroke-opacity="0.34125802" stroke-linecap="round" stroke-linejoin="round"/>
    <path d="M 398.68084717 24.68603325 C 398.93908691 25.05640793 399.26467896 25.38835526 399.64144897 25.67095947 C 399.91015625 25.92475128 400.06893921 26.10968781 400.13134766 26.18278313 C 400.01080322 26.27475739 399.90634155 26.45371246 399.77987671 26.63753128 C 399.70458984 26.76845360 399.73730469 26.81154442 399.77160645 26.80256271 C 399.65765381 26.73628426 399.48803711 26.73442459 399.36315918 26.78464699 C 399.31317139 26.78365898 399.29595947 26.76336479 399.34945679 26.68835831 C 399.32592773 26.46611023 399.17678833 26.27306175 398.93884277 26.15933228 C 398.67123413 26.25330544 398.36288452 26.41232681 398.29809570 26.36781120 C 398.02301025 26.25119019 397.97549438 25.83787537 397.99203491 25.49221420 C 397.94772339 25.26283646 397.86273193 25.10734367 398.68084717 24.68603325" stroke-width="1.38867116" fill="rgb(112, 124, 147)" opacity="1.0" stroke="rgb(10, 5, 0)" stroke-opacity="0.45593548" stroke-linecap="round" stroke-linejoin="round"/>
    <path d="M 201.32914734 62.85524750 C 200.34289551 62.65756226 199.63093567 62.28134918 199.04774475 61.68671799 C 198.38520813 61.27662277 197.97309875 60.64243317 197.57878113 60.16532135 C 197.37977600 59.91345978 197.28153992 59.55677414 197.30110168 59.19903183 C 197.46823120 58.98694611 197.78167725 58.87108612 198.22769165 58.67449951 C 198.61512756 58.80261993 198.97035217 58.69150925 199.40144348 58.42554855 C 199.73875427 58.64769745 199.96214294 59.08938599 200.34205627 59.56098938 C 200.86822510 60.05160522 201.25918579 60.55307007 201.75119019 61.11243057 C 202.35108948 61.56704330 202.70300293 61.85887527 202.68806458 62.01151657 C 202.68855286 62.18444443 202.56474304 62.56866074 202.24485779 63.08404922 C 201.87556458 63.45969772 201.26295471 63.83051682 201.32914734 62.85524750" stroke-width="0.53252763" fill="rgb(241, 246, 251)" opacity="1.0" stroke="rgb(144, 147, 156)" stroke-opacity="0.94260585" stroke-linecap="round" stroke-linejoin="round"/>
    <path d="M 351.54968262 73.56720734 C 351.01095581 73.03227234 350.41702271 72.53124237 349.79479980 72.13871002 C 349.48065186 71.35589600 349.04177856 70.89674377 348.46386719 70.55599213 C 348.15188599 70.17152405 348.14050293 69.60179901 348.39398193 69.00637054 C 348.39660645 68.48694611 348.56570435 68.37388611 349.07614136 68.39025879 C 349.53268433 68.40480804 350.04769897 68.57548523 350.30813599 68.91291809 C 350.28350830 69.37561035 350.49044800 69.58154297 350.82580566 69.77033997 C 351.12728882 70.06213379 351.39764404 70.25283051 351.70529175 70.30344391 C 351.93878174 70.35987091 352.36715698 70.54077148 352.59646606 71.12023163 C 352.99700928 71.58531189 353.24270630 72.25537109 353.70660400 72.82278442 C 354.10134888 73.66037750 354.30517578 74.43548584 351.54968262 73.56720734" stroke-width="0.42977908" fill="rgb(235, 245, 245)" opacity="1.0" stroke="rgb(208, 197, 179)" stroke-opacity="0.6765649" stroke-linecap="round" stroke-linejoin="round"/>
    <path d="M 399.08834839 26.10439682 C 398.29354858 25.65944481 397.57568359 24.93024826 396.88101196 24.53218460 C 396.49499512 24.06384277 396.42337036 23.66522408 396.18222046 23.36557388 C 395.67205811 23.20197487 395.57495117 23.04959488 395.56240845 22.71021843 C 395.65142822 22.22631836 395.92218018 21.94006157 396.06979370 21.70478439 C 396.48477173 21.67631912 396.91461182 21.71819115 397.35409546 21.79010773 C 397.87783813 22.04760933 398.46740723 22.36623764 398.92721558 22.80739021 C 399.25933838 23.25528336 399.61138916 23.74852371 399.85766602 24.39678764 C 400.03378296 25.07506371 400.32574463 25.47857285 400.51525879 25.60217476 C 400.88833618 25.42552185 401.22537231 25.13160896 401.43072510 25.33052635 C 401.76501465 25.98596191 402.24618530 26.41717339 399.08834839 26.10439682" stroke-width="0.43681979" fill="rgb(236, 241, 248)" opacity="1.0" stroke="rgb(211, 211, 210)" stroke-opacity="0.5177338" stroke-linecap="round" stroke-linejoin="round"/>
  </g>
</svg>
