<?xml version="1.0" ?>
<svg xmlns="http://www.w3.org/2000/svg" version="1.1" width="512" height="512" viewBox="0 0 512 512">
  <defs/>
  <g>
    <path d="M 572.93084717 408.16116333 C 554.19897461 416.02645874 535.43548584 423.92233276 516.69830322 431.67773438 C 497.90252686 439.46542358 478.97653198 447.04025269 460.01962280 454.32342529 C 440.89636230 461.29852295 421.59054565 467.81930542 402.17361450 473.72802734 C 382.50393677 479.00521851 362.69772339 483.53250122 342.63851929 487.15093994 C 322.50793457 489.90490723 302.25125122 491.58981323 281.84979248 492.11596680 C 261.50543213 491.54693604 241.13575745 489.65341187 220.99848938 486.52618408 C 200.89147949 482.08688354 181.21510315 476.30438232 161.84553528 469.19332886 C 142.99639893 460.71371460 124.63391113 450.83804321 106.95993042 439.61590576 C 90.03310394 427.10931396 73.81449127 413.20468140 58.50930786 398.04483032 C 44.15905380 381.72637939 30.78463554 364.27630615 18.39081573 345.72744751 C 7.09218407 326.22741699 -3.12928653 305.89257812 -12.22456837 284.89880371 C -20.13660049 263.33538818 -26.95598412 241.34710693 -32.58132553 219.13926697 C -36.99136734 196.79093933 -40.20812988 174.65234375 -42.17771530 152.77725220 C -42.90412903 131.36892700 -42.27502060 110.65904999 -40.35286713 90.89163971 C -36.97002029 72.12850952 -32.18520737 54.65324783 -25.79333878 38.59611511 C -17.81487656 24.00937080 -8.21014500 11.17612839 3.27157426 0.14903156 C 16.59174728 -8.91242027 31.60116577 -16.26940155 48.12798309 -22.10346413 C 66.04425812 -26.67759514 85.20569611 -30.10816002 105.45159149 -32.68661880 C 126.70329285 -34.50983810 148.77027893 -35.76675415 171.53889465 -36.65987015 C 194.94039917 -37.27435303 218.76731873 -37.57670975 242.92028809 -37.87041092 C 267.37417603 -37.90134048 291.78622437 -37.84320068 316.12780762 -37.62350845 C 340.24407959 -37.13426208 363.97750854 -36.20797729 387.14602661 -34.78049469 C 409.52093506 -32.69021606 430.92819214 -29.74954033 451.22207642 -25.62902832 C 470.21328735 -20.27576256 487.59014893 -13.25308609 503.18731689 -4.51376867 C 516.85839844 6.31838942 528.57659912 19.22162628 538.41387939 34.04230881 C 546.57659912 50.70117569 553.29962158 68.98631287 558.62451172 88.68221283 C 562.76300049 109.63993835 565.93298340 131.77232361 568.25280762 154.78906250 C 569.83056641 178.58140564 570.88751221 202.93572998 571.54296875 227.77279663 C 571.83221436 252.93817139 571.99719238 278.28582764 572.00762939 303.74459839 C 571.97851562 329.30264282 571.95111084 354.84075928 572.93084717 408.16116333" stroke-width="2.00000000" fill="rgb(9, 25, 65)" opacity="1.0" stroke="rgb(2, 22, 66)" stroke-opacity="1.0" stroke-linecap="round" stroke-linejoin="round"/>
    <path d="M 41.28411865 54.56174088 C 41.29225540 54.51169586 41.29775238 54.53985596 41.27062988 54.54911041 C 41.31267548 54.52121735 41.26890945 54.52840042 41.29748917 54.54153824 C 41.29432678 54.51866150 41.27734756 54.54115677 41.29502487 54.51779175 C 41.30774307 54.54241180 41.25379562 54.53125000 41.30236816 54.52941132 C 41.29808807 54.52056122 41.27958298 54.56381607 41.27161789 54.50722504 C 41.31178665 54.55028534 41.27219009 54.54903793 41.29476547 54.51028061 C 41.29582977 54.55257034 41.27199554 54.54353333 41.30334091 54.51705551 C 41.28257751 54.53311539 41.28483200 54.54787827 41.30976868 54.50194550 C 41.27963257 54.54509735 41.29442215 54.53387833 41.30511475 54.51887894 C 41.28201675 54.53395462 41.30197144 54.52126694 41.28411865 54.56174088" stroke-width="0.00000000" fill="rgb(255, 255, 243)" opacity="1.0" stroke="rgb(49, 0, 0)" stroke-opacity="1.0" stroke-linecap="round" stroke-linejoin="round"/>
    <path d="M 141.09573364 82.66761780 C 141.42872620 82.50218201 141.74552917 82.29202271 142.18170166 82.17527771 C 142.60787964 82.16755676 143.13569641 82.25628662 143.55310059 82.41037750 C 144.08186340 82.57801819 144.60102844 82.76595306 145.16091919 83.08062744 C 145.63952637 83.39717102 145.99909973 83.68151093 146.34532166 83.90962219 C 146.67636108 84.13897705 146.85350037 84.45986176 146.93447876 84.71260071 C 146.99726868 85.08767700 147.01760864 85.55428314 147.01768494 85.92993927 C 146.90524292 86.24273682 146.78756714 86.52705383 146.55606079 86.79525757 C 146.30679321 86.91680908 145.91563416 86.89202118 145.55618286 86.85134125 C 145.09397888 86.65079498 144.54939270 86.47461700 143.92935181 86.22214508 C 143.22892761 86.02706146 142.62683105 85.84474945 141.09573364 82.66761780" stroke-width="2.00000000" fill="rgb(178, 169, 191)" opacity="1.0" stroke="rgb(12, 5, 13)" stroke-opacity="0.488428" stroke-linecap="round" stroke-linejoin="round"/>
    <path d="M 342.87030029 67.24353790 C 342.83224487 67.30255890 342.88168335 67.27649689 342.86837769 67.30625153 C 342.87646484 67.32929230 342.89852905 67.30712128 342.88180542 67.35687256 C 342.90832520 67.31814575 342.91696167 67.37528992 342.89791870 67.35092926 C 342.92800903 67.36560822 342.91488647 67.37957001 342.91586304 67.37995148 C 342.91925049 67.37591553 342.91802979 67.40899658 342.93563843 67.37573242 C 342.91439819 67.39804840 342.89599609 67.41559601 342.93017578 67.38303375 C 342.89019775 67.39099884 342.89022827 67.42598724 342.88717651 67.37342072 C 342.89004517 67.39912415 342.83676147 67.40328979 342.88088989 67.40364075 C 342.81719971 67.37686157 342.86459351 67.40267181 342.80111694 67.39512634 C 342.82998657 67.38115692 342.78268433 67.39080048 342.87030029 67.24353790" stroke-width="0.17248011" fill="rgb(11, 31, 87)" opacity="1.0" stroke="rgb(37, 65, 128)" stroke-opacity="0.20612104" stroke-linecap="round" stroke-linejoin="round"/>
    <path d="M 203.90788269 55.27099609 C 203.82916260 55.24949265 203.87841797 55.25288773 203.87049866 55.27952194 C 203.81805420 55.24578857 203.85327148 55.25857162 203.83113098 55.26554871 C 203.82008362 55.26416016 203.83244324 55.24923706 203.80366516 55.28101349 C 203.82165527 55.25104141 203.81559753 55.26674271 203.78199768 55.27191925 C 203.80770874 55.27795410 203.79441833 55.25829315 203.76927185 55.29907227 C 203.80372620 55.28163910 203.76391602 55.26527405 203.75790405 55.31335068 C 203.79177856 55.27194595 203.74900818 55.30768967 203.75987244 55.29547501 C 203.75643921 55.29010010 203.75439453 55.32429504 203.74383545 55.29571915 C 203.74827576 55.30676651 203.75485229 55.33221436 203.72499084 55.32742691 C 203.75932312 55.29980469 203.72538757 55.36824036 203.90788269 55.27099609" stroke-width="2.00000000" fill="rgb(76, 11, 44)" opacity="1.0" stroke="rgb(9, 25, 64)" stroke-opacity="0.9707159" stroke-linecap="round" stroke-linejoin="round"/>
    <path d="M 400.03854370 25.10325241 C 400.03991699 25.12298393 400.05056763 25.11180115 400.07128906 25.10391235 C 400.10491943 25.12550545 400.04071045 25.11211014 400.13079834 25.12280846 C 400.08807373 25.12958717 400.05920410 25.12474823 400.11373901 25.15270996 C 400.08724976 25.12226105 400.07565308 25.16438103 400.10275269 25.13291931 C 400.06561279 25.14692879 400.08871460 25.14020920 400.06936646 25.14702225 C 400.05346680 25.14239693 400.09130859 25.15298080 400.03289795 25.14771652 C 400.03808594 25.14828682 400.05300903 25.14275169 400.01290894 25.15594482 C 400.02673340 25.15310287 400.03042603 25.14998245 399.99786377 25.15949249 C 400.02456665 25.18364716 400.01281738 25.13578987 400.02493286 25.17971611 C 400.00448608 25.17820358 400.02630615 25.14240456 400.03854370 25.10325241" stroke-width="0.11348209" fill="rgb(7, 12, 0)" opacity="1.0" stroke="rgb(255, 255, 255)" stroke-opacity="1.0" stroke-linecap="round" stroke-linejoin="round"/>
    <path d="M 600.26574707 413.58068848 C 588.12866211 422.80844116 575.97357178 431.99426270 563.75878906 441.08956909 C 551.50891113 450.20333862 539.14276123 459.08749390 526.61224365 467.80932617 C 513.83789062 476.22766113 500.80770874 484.30496216 487.44604492 491.91903687 C 473.67974854 499.09664917 459.52413940 505.79092407 444.83209229 511.94479370 C 429.66470337 517.44201660 414.03622437 522.47094727 397.76687622 526.88537598 C 381.03421021 530.77423096 363.72906494 534.10974121 345.91662598 537.01879883 C 327.64901733 539.43023682 308.87564087 541.46508789 289.73544312 543.10479736 C 270.25155640 544.35327148 250.47232056 545.29217529 230.48701477 545.79687500 C 210.41059875 546.01464844 190.20715332 545.79425049 170.09075928 545.11047363 C 150.14723206 543.86621094 130.35029602 542.00073242 111.02986908 539.49926758 C 92.15065765 536.13208008 73.93806458 531.82806396 56.47299194 526.50592041 C 40.01951218 520.05047607 24.63505363 512.21783447 10.58044052 502.97610474 C -2.04896808 492.13629150 -13.05517483 479.76913452 -22.55454254 466.01101685 C -30.59143448 451.03652954 -37.09555435 435.10690308 -42.29217529 418.44073486 C -46.17785263 401.19909668 -48.65878677 383.89736938 -49.87856674 366.48147583 C -49.76264572 349.39462280 -48.30336761 332.96054077 -45.53539276 317.30743408 C -41.39311600 302.90426636 -35.90179062 289.94418335 -28.96380234 278.75411987 C -20.63535118 269.59680176 -10.82052040 262.75592041 0.55012619 258.64227295 C 13.42745590 257.62478638 27.74056816 257.89163208 43.37693405 258.15924072 C 60.14623260 258.07598877 77.85562134 258.05465698 96.41539001 257.96417236 C 115.61518097 258.00735474 135.39509583 258.03158569 155.62367249 258.06463623 C 176.07048035 258.01498413 196.79283142 258.01647949 217.59251404 258.04318237 C 238.41000366 258.05413818 259.13369751 258.00271606 279.77972412 258.13827515 C 300.14590454 258.12054443 320.28543091 257.99807739 340.09713745 258.09542847 C 359.53433228 258.14419556 378.49765015 258.08013916 397.08663940 258.00787354 C 415.15759277 258.10900879 432.71166992 258.22891235 449.75695801 258.26464844 C 466.27288818 258.16897583 482.25070190 258.10855103 497.82592773 257.98974609 C 512.87213135 258.05648804 527.53588867 258.70843506 541.95916748 259.97134399 C 556.05187988 261.61257935 569.96624756 263.59539795 583.82293701 265.84158325 C 597.60827637 268.22534180 611.38256836 270.60574341 600.26574707 413.58068848" stroke-width="1.36751759" fill="rgb(13, 113, 205)" opacity="1.0" stroke="rgb(35, 125, 208)" stroke-opacity="0.8874707" stroke-linecap="round" stroke-linejoin="round"/>
    <path d="M 401.54345703 477.17276001 C 384.09643555 477.91589355 366.70135498 478.51412964 349.50109863 479.13650513 C 332.64691162 479.91189575 316.45822144 480.85180664 301.25115967 481.79034424 C 287.46282959 481.00897217 274.51757812 477.40042114 261.41833496 474.41897583 C 247.70977783 473.37734985 233.85005188 475.18176270 219.99798584 479.40713501 C 205.81382751 482.63790894 191.29327393 482.61996460 176.43815613 478.48593140 C 161.00335693 473.92068481 144.74371338 472.83712769 127.89988708 475.93646240 C 111.09490967 481.12539673 93.98336029 483.23037720 76.70054626 480.19940186 C 59.43844223 474.83096313 42.34938812 472.77285767 26.35012245 474.95196533 C 13.00940800 478.62310791 3.55859303 480.73229980 -0.32633209 479.54934692 C 2.97930408 476.65426636 12.23985481 473.83364868 25.48466110 470.88912964 C 40.95933533 468.61074829 57.28133774 470.36627197 73.79808044 475.49209595 C 90.29174042 479.01434326 106.49909210 478.06982422 122.09534454 473.18243408 C 137.53826904 469.19784546 152.96784973 469.20343018 168.08052063 472.38452148 C 182.48005676 476.95074463 196.63751221 478.72338867 210.77323914 477.29132080 C 224.25392151 473.81707764 237.30451965 470.47937012 250.48780823 469.54110718 C 263.44363403 470.16180420 276.22683716 473.58636475 289.65179443 477.17218018 C 304.38839722 477.80474854 320.08447266 476.77322388 336.75784302 475.27258301 C 354.21499634 473.50967407 372.09100342 471.49752808 390.38684082 469.31771851 C 409.03860474 467.00756836 427.86334229 464.66055298 446.63208008 462.16705322 C 465.54345703 459.60418701 484.57666016 457.01879883 401.54345703 477.17276001" stroke-width="1.82466590" fill="rgb(198, 244, 239)" opacity="1.0" stroke="rgb(36, 109, 50)" stroke-opacity="0.28486907" stroke-linecap="round" stroke-linejoin="round"/>
    <path d="M 406.11520386 501.03652954 C 397.35375977 501.12182617 388.57791138 501.19949341 379.77603149 501.26373291 C 371.00131226 501.34103394 362.18231201 501.48657227 353.31936646 501.64282227 C 344.46038818 501.80651855 335.55441284 502.13732910 326.48913574 502.48010254 C 317.43521118 502.89645386 308.22793579 503.44500732 298.87237549 504.15505981 C 289.36950684 504.88705444 279.64712524 505.74652100 269.72918701 506.77371216 C 259.51049805 507.83056641 249.03121948 508.92587280 238.32412720 510.14443970 C 227.15470886 511.27679443 215.74693298 512.51446533 203.92208862 513.60137939 C 191.77661133 514.67010498 179.25350952 515.57537842 166.41659546 516.34765625 C 153.21788025 516.86901855 139.82055664 517.20751953 126.18891144 517.27044678 C 112.51555634 517.06561279 98.76902008 516.61486816 85.33669281 515.80487061 C 72.10998535 514.67041016 59.42785645 513.30401611 47.30656433 511.55059814 C 36.15600967 509.67401123 25.99586487 507.60717773 17.19951057 505.42587280 C 9.94881248 503.16076660 4.39360857 501.00228882 0.92973530 498.97894287 C -0.00668898 497.13214111 1.53274488 495.75851440 5.38049889 494.68539429 C 11.11571407 493.16018677 18.26903725 491.15298462 26.65747261 489.39102173 C 36.12295914 488.33938599 46.23642349 488.38256836 56.82528687 489.82070923 C 67.60453033 492.44161987 78.64893341 494.78018188 89.99917603 495.59729004 C 101.49179840 495.49444580 112.89082336 493.89422607 124.00071716 491.14050293 C 134.99354553 488.74557495 146.02886963 488.10195923 156.91648865 488.92160034 C 167.70712280 490.93530273 178.29251099 493.39273071 188.85171509 495.02059937 C 199.46098328 495.89248657 209.88912964 495.35031128 220.19038391 493.39553833 C 230.44049072 490.71481323 240.70578003 488.94497681 251.14166260 488.65597534 C 261.50631714 488.86935425 271.70764160 490.62466431 281.72979736 493.36166382 C 291.92031860 495.31271362 302.38754272 495.68118286 313.17404175 495.25042725 C 323.97048950 494.79830933 334.91125488 494.35009766 345.76950073 493.96588135 C 356.50250244 493.61871338 367.07177734 493.39370728 377.38296509 493.32394409 C 387.47476196 493.43417358 397.29013062 493.62274170 406.89834595 494.01168823 C 416.24481201 494.63912964 425.38784790 495.28799438 434.35260010 496.13876343 C 443.25708008 497.08489990 452.00607300 498.05484009 460.73010254 499.09277344 C 469.42938232 500.18237305 478.12258911 501.21252441 406.11520386 501.03652954" stroke-width="0.66875380" fill="rgb(211, 249, 249)" opacity="1.0" stroke="rgb(175, 255, 207)" stroke-opacity="0.52877253" stroke-linecap="round" stroke-linejoin="round"/>
    <path d="M 517.93524170 512.26538086 C 510.43627930 512.74853516 502.92019653 513.26928711 495.29171753 513.78326416 C 487.76141357 514.32617188 480.09219360 514.87194824 472.37234497 515.44329834 C 464.66336060 516.07769775 456.79025269 516.72479248 448.80102539 517.42541504 C 440.67315674 518.14666748 432.49942017 518.93572998 424.09091187 519.74707031 C 415.63085938 520.56036377 407.06848145 521.41107178 398.36209106 522.21057129 C 389.61468506 522.99139404 380.92092896 523.69653320 372.16601562 524.30773926 C 363.54849243 524.78277588 355.11486816 525.12237549 346.89910889 525.21575928 C 339.02908325 525.13629150 331.65890503 524.73260498 324.73986816 524.08740234 C 318.53411865 523.06896973 313.09204102 521.62713623 308.49417114 519.83105469 C 304.97924805 517.59490967 302.55819702 514.85021973 301.41049194 511.54211426 C 301.71777344 507.65066528 303.13125610 503.26248169 305.48544312 498.39215088 C 307.94924927 492.55569458 310.21121216 485.99362183 312.56658936 478.78991699 C 315.15972900 471.11087036 318.00012207 463.12811279 320.76467896 454.84472656 C 323.42776489 446.27053833 326.36550903 437.70602417 329.39904785 429.27514648 C 332.32723999 421.00512695 335.15585327 412.94735718 337.78750610 405.21215820 C 340.11151123 397.90780640 342.28588867 391.28170776 344.56250000 385.43676758 C 347.06896973 380.44387817 349.97427368 376.54614258 353.16827393 373.77270508 C 356.43112183 371.80538940 359.79138184 371.00936890 363.25927734 371.80123901 C 366.94961548 374.21890259 371.44757080 376.98522949 377.33651733 378.94729614 C 384.57907104 380.22036743 392.73345947 381.06192017 401.60494995 381.62918091 C 410.97949219 381.89212036 420.61584473 381.91021729 430.19216919 381.74423218 C 439.48287964 381.55566406 448.27041626 381.21273804 456.46762085 380.90539551 C 463.69354248 380.56729126 469.82870483 381.17065430 474.82861328 383.70465088 C 478.88775635 387.89874268 483.08221436 391.88238525 487.59860229 394.39694214 C 492.33538818 394.94400024 496.94396973 393.82360840 501.21832275 392.58020020 C 504.89663696 392.76306152 507.84255981 394.93948364 510.17224121 399.08047485 C 512.36462402 404.62036133 514.32232666 411.50302124 515.91503906 419.48883057 C 517.25408936 428.27664185 518.36816406 437.79223633 519.32757568 447.75949097 C 520.13763428 458.10693359 520.89672852 468.64587402 521.56146240 479.29772949 C 522.24560547 489.92935181 522.91516113 500.74996948 517.93524170 512.26538086" stroke-width="1.27803540" fill="rgb(132, 66, 30)" opacity="1.0" stroke="rgb(101, 77, 75)" stroke-opacity="0.6729446" stroke-linecap="round" stroke-linejoin="round"/>
    <path d="M 438.43096924 407.12976074 C 432.52310181 407.18673706 426.60943604 407.18246460 420.67288208 407.16409302 C 414.91372681 406.89282227 409.30941772 406.50708008 403.91278076 405.89471436 C 398.87335205 404.95935059 394.22467041 403.78793335 390.21081543 402.17022705 C 386.88854980 400.18243408 384.34262085 397.68600464 382.58465576 394.74227905 C 381.87237549 391.08489990 382.07577515 386.95059204 382.37377930 382.18347168 C 382.36990356 376.82669067 382.38458252 371.08074951 382.28286743 364.94219971 C 382.36453247 358.37329102 382.47372437 351.59680176 382.35317993 344.51455688 C 382.37149048 337.26843262 382.38851929 329.86434937 382.39321899 322.38076782 C 382.45584106 314.76977539 382.34188843 307.10299683 382.26794434 299.45654297 C 382.36068726 291.82550049 382.34161377 284.24734497 382.40625000 276.68746948 C 382.41549683 269.18466187 382.21755981 261.77352905 382.13577271 254.48049927 C 382.41064453 247.24089050 382.13333130 240.16368103 382.08544922 233.38922119 C 382.17355347 226.87664795 382.01101685 220.58859253 381.90328979 214.68171692 C 381.74407959 209.25177002 381.74917603 204.32299805 382.47238159 200.13497925 C 384.72094727 196.58816528 388.20269775 193.58697510 392.65505981 191.06076050 C 397.94799805 189.00244141 403.80715942 187.46958923 410.15100098 186.49075317 C 416.65390015 185.98088074 423.31304932 185.95333862 429.89141846 186.58731079 C 436.21447754 187.60888672 442.19198608 189.10194397 447.53317261 191.09297180 C 452.06301880 193.49519348 455.48541260 196.36708069 457.72738647 199.68344116 C 458.51519775 203.42805481 458.37872314 207.74948120 458.27246094 212.54203796 C 458.36611938 217.80126953 458.34646606 223.42446899 458.41012573 229.39884949 C 458.39245605 235.60983276 458.24163818 242.04896545 458.31237793 248.64328003 C 458.43991089 255.24440002 458.65628052 261.93041992 458.66128540 268.85501099 C 458.61746216 275.67803955 458.65786743 282.59121704 458.73425293 289.48544312 C 458.78903198 296.36209106 458.57901001 303.19244385 458.61505127 310.05822754 C 458.72766113 316.83694458 458.62557983 323.66473389 458.58288574 330.36212158 C 458.53103638 336.98663330 458.61550903 343.68823242 458.67074585 350.26913452 C 458.56668091 356.81353760 458.70242310 363.31973267 458.73889160 369.81604004 C 458.73162842 376.24087524 458.81570435 382.71887207 458.82360840 389.15557861 C 458.84365845 395.52182007 458.71954346 401.93078613 438.43096924 407.12976074" stroke-width="0.93050694" fill="rgb(249, 253, 249)" opacity="1.0" stroke="rgb(84, 92, 107)" stroke-opacity="0.5502564" stroke-linecap="round" stroke-linejoin="round"/>
    <path d="M 456.28961182 198.35447693 C 452.57867432 198.44880676 448.89257812 198.51966858 445.15393066 198.49119568 C 441.34631348 198.47570801 437.46960449 198.44154358 433.56933594 198.43756104 C 429.54882812 198.41778564 425.54928589 198.47949219 421.50103760 198.43983459 C 417.36288452 198.56225586 413.24746704 198.56817627 409.18533325 198.52684021 C 405.20864868 198.48315430 401.42471313 198.57395935 397.79006958 198.46524048 C 394.38143921 198.43295288 391.39416504 198.32875061 388.75064087 198.43504333 C 386.61871338 198.61584473 385.00961304 198.74966431 384.09176636 198.03654480 C 383.94140625 196.35589600 384.12234497 193.95062256 384.17071533 190.96539307 C 384.22506714 187.60977173 384.23205566 184.03985596 384.20993042 180.57513428 C 384.19882202 177.45909119 384.14968872 174.91423035 384.19601440 173.06436157 C 384.95578003 172.10139465 386.38369751 171.89416504 388.51547241 172.00067139 C 391.31738281 172.09075928 394.59271240 172.10195923 398.34573364 172.24986267 C 402.43362427 172.36662292 406.75845337 172.39132690 411.24893188 172.30661011 C 415.95373535 172.27532959 420.57751465 172.33007812 425.17236328 172.34654236 C 429.66949463 172.24452209 433.96957397 172.22259521 437.96124268 172.16508484 C 441.72845459 172.04776001 445.06460571 172.04473877 448.05136108 172.04684448 C 450.48202515 172.13720703 452.47903442 172.22482300 454.06179810 172.15037537 C 455.21347046 172.14303589 455.89297485 172.31054688 456.14700317 172.79167175 C 456.23388672 173.63703918 456.27868652 174.72143555 456.31185913 175.86225891 C 456.21270752 177.03854370 455.93142700 178.25039673 456.28961182 198.35447693" stroke-width="0.94809628" fill="rgb(240, 71, 69)" opacity="1.0" stroke="rgb(123, 21, 25)" stroke-opacity="0.80726033" stroke-linecap="round" stroke-linejoin="round"/>
    <path d="M 437.79321289 144.88055420 C 437.85717773 147.10325623 437.63064575 149.31491089 437.33593750 151.49453735 C 437.06988525 153.62237549 436.64193726 155.73977661 436.07174683 157.80075073 C 435.33877563 159.86666870 434.53549194 161.80215454 433.61651611 163.73120117 C 432.71450806 165.52836609 431.70431519 167.26026917 430.50619507 168.82276917 C 429.24325562 170.31886292 427.86544800 171.57551575 426.37716675 172.65632629 C 424.87905884 173.45800781 423.22879028 174.12733459 421.46032715 174.50154114 C 419.67523193 174.64006042 417.86877441 174.59590149 416.06124878 174.39176941 C 414.27691650 173.94110107 412.54580688 173.29238892 410.84786987 172.30979919 C 409.32379150 171.05644226 407.94381714 169.60684204 406.70013428 167.91517639 C 405.47396851 166.05834961 404.37738037 164.09492493 403.38558960 162.05332947 C 402.55325317 159.86415100 401.89718628 157.71160889 401.47323608 155.52026367 C 401.14343262 153.41311646 400.91705322 151.41258240 400.79461670 149.46995544 C 400.66845703 147.71533203 400.58523560 146.22509766 400.82345581 144.97267151 C 401.30151367 143.97584534 402.18643188 143.31494141 403.31719971 142.85656738 C 404.61599731 142.34735107 406.07403564 141.78865051 407.52401733 141.04765320 C 408.81848145 139.92485046 410.15277100 138.79826355 411.80596924 137.92594910 C 413.59948730 137.31358337 415.54388428 136.86251831 417.56604004 136.71536255 C 419.69564819 136.80250549 421.78964233 137.18412781 423.88592529 137.81239319 C 425.90545654 138.75039673 427.84063721 139.85000610 429.73562622 141.14678955 C 431.77478027 142.12017822 433.85119629 142.80938721 437.79321289 144.88055420" stroke-width="0.68748277" fill="rgb(233, 73, 79)" opacity="1.0" stroke="rgb(255, 60, 0)" stroke-opacity="0.22719377" stroke-linecap="round" stroke-linejoin="round"/>
    <path d="M 469.57861328 59.22350693 C 468.15679932 62.88661575 466.46029663 66.66449738 464.54415894 70.46296692 C 462.69238281 74.45079041 460.68710327 78.62808990 458.44143677 83.07174683 C 456.09143066 87.76414490 453.56594849 92.67321014 451.15072632 97.93247986 C 448.45843506 103.22625732 445.66668701 108.66368103 442.97811890 114.11342621 C 440.24136353 119.45901489 437.59524536 124.55944061 435.25302124 129.31307983 C 433.37930298 133.55094910 431.51907349 137.01144409 429.38177490 139.16874695 C 426.40890503 139.57723999 422.83370972 139.35899353 419.02334595 139.27113342 C 415.28982544 139.31700134 411.82449341 139.29158020 408.88311768 138.59896851 C 406.97018433 136.49717712 405.56488037 133.25682068 403.78884888 129.19241333 C 401.77041626 124.35666656 399.38641357 119.34001923 396.60012817 113.98499298 C 393.80471802 108.15777588 391.04977417 102.33969116 388.23004150 96.34149933 C 385.52297974 90.42879486 382.75286865 84.73113251 380.13635254 79.32224274 C 377.74468994 74.27662659 375.66076660 69.70999908 373.91082764 65.92498779 C 372.51135254 62.99131012 371.72100830 60.77360916 371.59338379 59.47330856 C 372.52001953 59.29858017 374.31790161 59.37767029 376.88665771 59.25755692 C 380.33929443 59.30104065 384.64739990 59.30850983 389.54266357 59.20347214 C 394.82080078 59.17088318 400.50363159 59.31256104 406.57586670 59.33890915 C 412.93395996 59.24250412 419.55554199 59.18873596 426.31100464 59.32210541 C 433.11474609 59.25204849 439.93713379 59.17529297 446.85507202 59.23377609 C 453.81817627 59.28951645 460.80419922 59.51845169 469.57861328 59.22350693" stroke-width="1.93923199" fill="rgb(245, 179, 50)" opacity="1.0" stroke="rgb(57, 14, 0)" stroke-opacity="0.43086213" stroke-linecap="round" stroke-linejoin="round"/>
    <path d="M 406.48208618 257.33190918 C 405.41598511 257.43164062 404.41995239 257.48077393 403.42535400 257.42333984 C 402.50619507 257.44058228 401.74728394 257.40850830 401.08871460 257.44525146 C 400.61486816 257.40261841 400.32406616 257.06622314 400.23446655 256.62509155 C 400.18780518 255.99359131 400.20114136 255.12884521 400.23062134 254.15759277 C 400.22006226 252.97442627 400.17822266 251.72459412 400.21411133 250.43478394 C 400.19708252 248.98130798 400.21661377 247.53536987 400.20806885 246.09069824 C 400.16445923 244.59509277 400.12329102 243.18391418 400.09393311 241.81317139 C 400.04214478 240.52778625 400.08847046 239.39608765 400.07821655 238.42796326 C 400.10238647 237.64746094 400.30923462 237.14570618 400.76452637 236.82498169 C 401.46368408 236.70751953 402.34219360 236.71023560 403.40649414 236.75245667 C 404.56549072 236.81556702 405.70156860 236.86651611 406.98031616 236.88854980 C 408.17245483 236.80918884 409.26727295 236.82916260 410.29119873 236.75320435 C 411.15777588 236.64437866 411.76464844 236.64878845 412.28247070 236.78546143 C 412.49154663 237.14747620 412.47409058 237.75540161 412.46911621 238.54478455 C 412.29397583 239.52372742 412.26199341 240.51596069 412.31838989 241.73013306 C 412.32800293 242.95463562 412.38281250 244.30014038 412.32519531 245.61064148 C 412.35021973 246.97434998 412.31613159 248.28681946 412.30615234 249.63052368 C 412.33282471 250.88774109 412.33450317 252.13873291 412.35131836 253.26850891 C 412.33413696 254.39663696 412.29013062 255.45983887 412.33294678 256.41397095 C 412.43814087 257.25762939 412.64447021 258.08657837 406.48208618 257.33190918" stroke-width="0.99257374" fill="rgb(76, 196, 236)" opacity="1.0" stroke="rgb(141, 217, 234)" stroke-opacity="0.7460093" stroke-linecap="round" stroke-linejoin="round"/>
    <path d="M 436.63607788 257.85720825 C 435.97952271 257.86389160 435.38522339 257.89068604 434.74920654 257.84860229 C 434.04257202 257.83642578 433.31307983 257.79696655 432.53463745 257.71316528 C 431.74243164 257.69281006 430.92947388 257.68515015 430.05062866 257.66894531 C 429.20101929 257.61364746 428.32458496 257.61642456 427.48846436 257.61941528 C 426.73757935 257.55697632 426.02423096 257.60772705 425.40832520 257.55484009 C 424.99926758 257.41418457 424.69656372 257.06762695 424.60745239 256.53228760 C 424.55303955 255.74258423 424.57876587 254.84521484 424.63034058 253.72431946 C 424.62551880 252.47874451 424.64093018 251.12988281 424.71133423 249.65478516 C 424.64642334 248.19267273 424.70672607 246.60670471 424.78152466 245.13877869 C 424.76504517 243.62245178 424.71746826 242.18524170 424.64172363 240.89424133 C 424.58145142 239.67430115 424.57815552 238.73281860 424.72546387 237.90576172 C 424.86611938 237.37956238 425.22561646 237.09117126 425.73892212 237.01509094 C 426.43801880 237.15234375 427.34231567 237.30664062 428.32327271 237.34794617 C 429.44506836 237.46209717 430.63388062 237.49314880 431.78805542 237.43818665 C 432.94085693 237.47856140 434.04037476 237.44039917 435.03231812 237.35188293 C 435.83035278 237.21681213 436.51116943 237.15876770 436.97991943 237.31565857 C 437.17349243 237.70848083 437.31967163 238.31138611 437.23049927 239.18084717 C 437.16345215 240.12905884 437.24829102 241.23554993 437.26364136 242.45396423 C 437.22610474 243.65113831 437.11618042 244.99124146 436.94586182 246.25289917 C 436.92276001 247.59130859 436.92648315 248.92184448 436.63607788 257.85720825" stroke-width="0.99633068" fill="rgb(77, 198, 233)" opacity="1.0" stroke="rgb(144, 219, 232)" stroke-opacity="0.7255829" stroke-linecap="round" stroke-linejoin="round"/>
    <path d="M 400.60086060 310.25344849 C 400.54159546 309.21057129 400.50741577 308.12472534 400.50567627 307.05068970 C 400.50729370 305.95639038 400.49530029 304.81350708 400.46218872 303.68759155 C 400.55523682 302.52917480 400.61267090 301.31149292 400.63916016 300.05075073 C 400.67407227 298.89749146 400.63677979 297.65527344 400.54379272 296.45291138 C 400.50091553 295.28662109 400.55316162 294.22171021 400.67523193 293.18844604 C 400.64840698 292.31274414 400.56402588 291.56579590 400.62158203 290.99960327 C 400.86221313 290.58694458 401.29281616 290.44204712 401.94940186 290.45147705 C 402.72796631 290.44665527 403.63500977 290.55691528 404.68734741 290.46707153 C 405.75848389 290.48135376 406.92996216 290.48440552 408.04934692 290.51492310 C 409.10021973 290.51632690 410.11230469 290.55313110 411.00106812 290.57379150 C 411.65670776 290.67419434 412.15838623 290.97091675 412.45336914 291.44775391 C 412.56555176 292.13021851 412.49874878 293.02484131 412.49450684 294.01263428 C 412.46319580 295.15402222 412.41192627 296.45675659 412.43066406 297.77841187 C 412.51269531 299.13494873 412.54125977 300.47406006 412.48657227 301.79101562 C 412.48004150 303.12692261 412.51245117 304.33514404 412.59603882 305.49856567 C 412.44699097 306.52609253 412.28469849 307.40509033 412.20489502 308.25729370 C 412.31326294 308.96768188 412.47488403 309.51678467 412.57626343 309.93783569 C 412.51031494 310.27920532 412.21432495 310.42709351 411.86550903 310.46737671 C 411.35159302 310.43173218 410.75231934 310.44876099 410.12869263 310.45275879 C 409.53405762 310.39657593 408.99362183 310.37417603 400.60086060 310.25344849" stroke-width="0.92473882" fill="rgb(73, 199, 238)" opacity="1.0" stroke="rgb(101, 196, 217)" stroke-opacity="0.86168146" stroke-linecap="round" stroke-linejoin="round"/>
    <path d="M 436.54150391 290.49386597 C 436.66467285 291.58911133 436.72991943 292.70147705 436.73434448 293.71380615 C 436.66467285 294.85321045 436.56411743 296.00347900 436.55554199 297.09963989 C 436.61215210 298.29983521 436.59912109 299.52706909 436.63964844 300.78924561 C 436.61895752 302.03952026 436.75567627 303.32046509 436.71322632 304.50006104 C 436.68991089 305.73828125 436.64263916 306.82116699 436.65661621 307.90036011 C 436.67825317 308.81124878 436.70666504 309.62063599 436.66717529 310.23785400 C 436.47439575 310.64068604 436.06683350 310.83526611 435.46411133 310.89929199 C 434.68402100 310.88906860 433.79943848 310.93289185 432.78152466 310.87155151 C 431.72958374 310.78442383 430.55743408 310.76498413 429.44210815 310.75411987 C 428.37603760 310.67596436 427.35632324 310.68130493 426.42605591 310.71398926 C 425.61773682 310.76336670 425.02728271 310.59494019 424.71179199 310.34365845 C 424.48123169 309.74053955 424.42691040 308.94238281 424.50354004 307.91418457 C 424.55050659 306.74404907 424.60614014 305.45407104 424.60476685 304.10571289 C 424.61804199 302.62789917 424.62048340 301.20904541 424.58963013 299.71276855 C 424.60815430 298.34826660 424.55868530 296.96835327 424.49267578 295.74530029 C 424.47747803 294.56600952 424.57958984 293.51867676 424.65057373 292.61968994 C 424.69021606 291.87915039 424.80010986 291.22406006 425.03207397 290.84539795 C 425.28231812 290.53945923 425.62069702 290.44061279 426.11242676 290.43859863 C 426.61853027 290.47515869 427.11883545 290.53723145 427.78372192 290.56106567 C 428.36233521 290.50567627 429.03778076 290.40817261 436.54150391 290.49386597" stroke-width="0.93753332" fill="rgb(72, 198, 236)" opacity="1.0" stroke="rgb(112, 200, 222)" stroke-opacity="0.8101322" stroke-linecap="round" stroke-linejoin="round"/>
    <path d="M 406.91882324 362.65374756 C 405.69253540 362.78823853 404.50653076 362.88302612 403.33258057 362.83078003 C 402.31591797 362.75299072 401.43600464 362.73666382 400.79748535 362.74218750 C 400.28329468 362.60668945 400.10525513 362.33209229 400.01806641 361.78897095 C 400.03582764 361.03964233 400.15640259 360.13174438 400.20092773 359.05184937 C 400.14642334 357.85351562 400.17681885 356.51535034 400.21661377 355.17318726 C 400.24554443 353.75109863 400.26269531 352.31124878 400.21075439 350.88058472 C 400.16943359 349.51574707 400.18481445 348.21829224 400.14895630 346.95953369 C 400.04388428 345.92666626 399.93713379 344.91104126 399.89205933 344.13998413 C 399.96963501 343.50479126 400.24819946 343.09667969 400.76098633 342.93936157 C 401.50210571 342.94314575 402.36788940 342.89633179 403.49481201 342.84277344 C 404.69055176 342.76602173 405.84384155 342.75857544 407.10342407 342.71997070 C 408.28799438 342.68359375 409.43615723 342.67971802 410.48132324 342.67520142 C 411.36325073 342.67175293 412.06301880 342.70654297 412.54995728 342.94805908 C 412.87762451 343.36483765 412.90527344 344.00775146 412.91268921 344.83627319 C 412.91534424 345.84222412 412.93728638 346.88793945 412.86282349 348.03567505 C 412.78149414 349.24282837 412.77481079 350.49649048 412.82962036 351.68759155 C 412.78482056 352.99670410 412.77304077 354.17071533 412.70477295 355.41235352 C 412.64993286 356.53802490 412.62954712 357.62548828 412.56311035 358.72662354 C 412.49411011 359.75573730 412.55053711 360.74325562 412.62829590 361.64816284 C 412.75241089 362.57043457 412.93640137 363.43017578 406.91882324 362.65374756" stroke-width="0.99546361" fill="rgb(70, 194, 236)" opacity="1.0" stroke="rgb(132, 212, 230)" stroke-opacity="0.7185769" stroke-linecap="round" stroke-linejoin="round"/>
    <path d="M 434.38925171 342.87753296 C 434.94387817 342.71249390 435.45245361 342.64962769 435.95422363 342.62609863 C 436.40383911 342.69268799 436.78616333 342.85778809 437.05224609 343.13375854 C 437.14068604 343.53530884 437.14248657 344.10397339 437.12707520 344.88763428 C 437.09091187 345.68957520 437.01690674 346.69931030 437.02749634 347.78692627 C 436.97024536 349.00012207 436.96252441 350.21408081 436.99133301 351.57751465 C 437.01733398 353.02279663 437.01977539 354.38619995 436.97604370 355.79235840 C 436.87942505 357.19290161 436.88745117 358.44891357 436.80758667 359.67684937 C 436.72274780 360.78890991 436.83129883 361.75939941 436.76635742 362.54739380 C 436.68338013 363.04562378 436.40438843 363.34103394 435.86676025 363.54931641 C 435.13507080 363.56869507 434.24758911 363.45913696 433.32864380 363.37176514 C 432.27416992 363.34619141 431.15527344 363.29833984 430.07369995 363.35324097 C 428.98339844 363.41418457 427.95812988 363.45495605 427.04852295 363.41653442 C 426.24600220 363.29751587 425.57058716 363.15371704 425.11145020 362.82690430 C 424.87683105 362.23901367 424.76464844 361.56103516 424.74945068 360.65371704 C 424.77465820 359.72961426 424.76950073 358.61602783 424.80480957 357.45361328 C 424.78366089 356.23028564 424.74746704 354.98999023 424.76174927 353.70712280 C 424.84515381 352.47152710 424.81964111 351.22836304 424.78521729 350.00790405 C 424.79531860 348.83898926 424.74151611 347.72778320 424.69314575 346.69738770 C 424.74945068 345.68484497 424.79751587 344.76538086 424.77478027 343.96478271 C 424.71365356 343.26779175 424.55010986 342.57604980 434.38925171 342.87753296" stroke-width="1.09357727" fill="rgb(73, 193, 235)" opacity="1.0" stroke="rgb(136, 218, 234)" stroke-opacity="0.7038256" stroke-linecap="round" stroke-linejoin="round"/>
    <path d="M 292.48785400 519.29022217 C 285.86007690 519.62145996 279.18820190 519.92449951 272.50607300 520.20220947 C 265.84750366 520.48065186 259.05401611 520.70898438 252.33561707 520.95275879 C 245.45568848 521.04907227 238.62580872 521.20837402 231.70878601 521.24786377 C 224.68698120 521.18133545 217.62852478 521.15631104 210.53182983 521.01147461 C 203.26174927 520.83129883 195.96006775 520.56457520 188.53410339 520.33892822 C 181.02073669 519.99688721 173.35136414 519.75238037 165.48730469 519.39514160 C 157.58224487 519.10388184 149.45567322 518.83374023 141.16905212 518.60162354 C 132.66175842 518.36724854 124.02931976 518.16162109 115.32884216 518.07958984 C 106.41462708 517.99353027 97.40306854 517.97210693 88.39608765 518.00573730 C 79.25276947 518.00036621 70.19902802 518.02416992 61.17105865 518.05883789 C 52.37679672 517.91687012 43.79820633 517.83404541 35.58778381 517.58178711 C 27.82662582 517.15130615 20.64009666 516.52941895 14.11188984 515.71875000 C 8.42839622 514.58947754 3.58714986 513.20086670 -0.18328705 511.49307251 C -2.80370140 509.41247559 -4.21004295 507.15914917 -4.44538021 504.94451904 C -3.42048097 502.98529053 -1.05850840 501.34570312 2.52747798 500.19311523 C 7.18683672 499.12503052 12.69568634 497.78601074 18.74378586 496.18850708 C 25.19876862 494.57934570 32.13787842 493.58099365 39.36386871 493.18920898 C 46.74813461 493.28469849 54.27454376 494.00964355 61.85118484 495.43759155 C 69.41979980 497.38284302 77.12779236 498.98788452 84.97399902 499.79208374 C 92.84447479 500.22656250 100.66458130 499.97848511 108.47058105 499.03820801 C 116.20122528 497.68203735 123.83501434 496.12448120 131.46038818 494.64553833 C 138.92863464 493.59927368 146.35267639 493.14968872 153.78523254 493.43692017 C 161.04927063 494.22299194 168.26852417 495.59088135 175.51184082 497.16574097 C 182.73721313 498.81091309 189.93261719 499.83178711 197.20086670 500.16159058 C 204.55477905 500.26815796 211.84114075 499.69625854 219.05310059 498.51101685 C 226.25753784 496.89447021 233.39190674 495.32299805 240.44148254 494.04672241 C 247.50115967 493.39953613 254.43405151 493.37847900 261.15176392 493.78958130 C 267.65686035 494.62835693 273.99026489 495.96218872 280.14773560 497.37060547 C 286.14233398 498.57342529 292.03521729 499.51568604 297.75863647 499.75357056 C 303.30203247 499.22082520 308.83529663 498.62310791 292.48785400 519.29022217" stroke-width="0.60484540" fill="rgb(7, 166, 174)" opacity="1.0" stroke="rgb(39, 158, 155)" stroke-opacity="0.55636036" stroke-linecap="round" stroke-linejoin="round"/>
    <path d="M 461.10696411 406.50723267 C 457.18756104 406.51589966 453.16204834 406.64566040 449.09439087 406.64407349 C 444.96389771 406.61056519 440.72741699 406.44900513 436.50445557 406.41946411 C 432.09863281 406.56729126 427.62750244 406.59625244 423.12506104 406.59341431 C 418.56573486 406.69671631 413.99694824 406.64599609 409.52963257 406.50057983 C 405.06561279 406.50930786 400.84561157 406.49545288 396.77182007 406.48037720 C 392.93762207 406.47628784 389.51351929 406.47747803 386.44232178 406.43853760 C 383.96133423 406.56018066 382.10009766 406.59277344 380.83535767 406.17984009 C 380.31890869 405.28057861 380.25152588 403.93392944 380.35290527 402.33074951 C 380.43844604 400.51892090 380.54769897 398.70272827 380.44168091 397.01144409 C 380.33697510 395.65713501 380.44143677 394.60897827 381.10861206 394.02197266 C 382.57009888 394.04064941 384.72732544 394.07202148 387.54260254 394.06317139 C 390.94973755 393.99835205 394.71368408 394.02020264 398.89401245 394.10067749 C 403.21496582 394.06134033 407.70214844 394.07028198 412.22833252 394.06445312 C 416.74871826 394.05682373 421.29492188 394.10162354 425.70129395 394.06301880 C 429.86465454 394.10818481 433.84906006 394.09088135 437.62658691 394.06152344 C 441.07864380 394.12011719 444.28591919 394.05514526 447.17486572 393.98745728 C 449.73388672 394.06344604 452.09231567 394.10092163 454.10543823 394.08746338 C 455.74850464 394.09353638 457.18707275 393.84353638 458.36471558 393.64050293 C 459.29891968 393.67990112 460.04397583 393.75729370 460.61361694 393.76831055 C 461.01226807 393.65173340 461.32864380 393.58227539 461.10696411 406.50723267" stroke-width="1.60141134" fill="rgb(249, 214, 51)" opacity="1.0" stroke="rgb(239, 208, 80)" stroke-opacity="1.0" stroke-linecap="round" stroke-linejoin="round"/>
    <path d="M 436.75048828 149.12980652 C 436.92382812 150.30346680 437.05743408 151.45532227 437.10501099 152.60417175 C 437.15579224 153.88517761 437.23257446 155.16815186 437.25054932 156.47204590 C 437.25149536 157.85491943 437.33157349 159.22508240 437.26437378 160.52175903 C 437.30892944 161.97076416 437.26528931 163.37655640 437.37985229 164.71934509 C 437.30648804 166.05444336 437.34994507 167.37391663 437.52108765 168.57408142 C 437.46484375 169.63708496 437.48040771 170.44906616 437.62084961 171.13883972 C 437.85260010 171.64903259 437.84243774 171.99218750 437.51394653 172.16856384 C 436.80953979 172.20881653 435.98126221 172.14805603 435.02859497 172.22242737 C 433.82003784 172.30628967 432.53341675 172.30172729 431.34017944 172.23568726 C 430.14752197 172.10765076 429.15576172 172.10597229 428.29373169 172.22763062 C 427.48043823 172.21348572 426.95623779 172.18049622 426.73220825 171.91523743 C 426.75180054 171.33828735 426.86364746 170.45574951 426.89251709 169.35719299 C 426.97058105 168.16740417 427.05801392 166.85679626 426.96627808 165.39552307 C 426.93478394 163.86332703 426.81765747 162.34510803 426.72628784 160.85749817 C 426.78442383 159.36746216 426.94686890 157.83073425 426.89724731 156.38938904 C 426.76940918 155.09329224 426.77380371 153.79780579 426.76800537 152.67039490 C 426.78591919 151.65499878 426.74145508 150.80810547 426.70223999 150.17643738 C 426.71365356 149.73922729 426.80007935 149.43041992 426.96142578 149.26669312 C 427.32635498 149.20413208 427.83605957 149.28120422 428.33325195 149.23632812 C 428.85293579 149.23889160 429.43447876 149.27532959 436.75048828 149.12980652" stroke-width="0.63044572" fill="rgb(252, 253, 249)" opacity="1.0" stroke="rgb(221, 209, 207)" stroke-opacity="0.767676" stroke-linecap="round" stroke-linejoin="round"/>
    <path d="M 409.78903198 172.17216492 C 408.04660034 172.25233459 406.18771362 172.22880554 404.52563477 172.23097229 C 403.17434692 172.37527466 402.18139648 172.40396118 401.49014282 172.14363098 C 401.16897583 171.38024902 401.19207764 170.16714478 401.28802490 168.65054321 C 401.40042114 166.88734436 401.40878296 164.98269653 401.29953003 162.89990234 C 401.28713989 160.80949402 401.49795532 158.67204285 401.60794067 156.65580750 C 401.45471191 154.67454529 401.41265869 152.88439941 401.32177734 151.33340454 C 401.33227539 150.03964233 401.41015625 149.01676941 401.77120972 148.48974609 C 402.46542358 148.47450256 403.52542114 148.67556763 404.80050659 148.94949341 C 406.17080688 149.16366577 407.40631104 149.17382812 408.53787231 149.07772827 C 409.54187012 148.79821777 410.37341309 148.52227783 409.78903198 172.17216492" stroke-width="0.65838730" fill="rgb(250, 249, 242)" opacity="1.0" stroke="rgb(200, 172, 171)" stroke-opacity="0.9534576" stroke-linecap="round" stroke-linejoin="round"/>
    <path d="M 43.71421432 47.03018188 C 43.59909821 46.46402359 43.62822723 45.93389893 43.70051956 45.57199478 C 43.74777603 45.18083572 43.75099564 44.84935379 43.95490646 44.68296432 C 44.39481354 44.64340591 44.87385178 44.81740952 45.30409241 45.05952072 C 45.78627777 45.20592499 46.29332733 45.42593002 46.64935303 45.85336304 C 47.05162811 46.32070923 47.45861435 46.81025696 47.80421448 47.25328064 C 48.23970032 47.59306335 48.59567261 47.87986755 48.86761093 48.24112701 C 48.97363663 48.73017120 48.94727325 49.21201706 48.81850815 49.61304092 C 48.77840042 49.89405823 48.53349304 50.20199203 48.21298599 50.27869034 C 47.73014069 50.16479492 47.24502182 49.96471786 46.74584961 49.59524155 C 46.02523804 49.25406265 45.13598633 49.06996918 43.71421432 47.03018188" stroke-width="0.39158192" fill="rgb(251, 252, 253)" opacity="1.0" stroke="rgb(164, 153, 119)" stroke-opacity="0.6127095" stroke-linecap="round" stroke-linejoin="round"/>
    <path d="M 197.82040405 59.32154846 C 197.81518555 59.41272354 197.77987671 59.55405045 197.71202087 59.64225006 C 197.72027588 59.73110962 197.69364929 59.87261963 197.62846375 59.91703415 C 197.63278198 60.02669144 197.63604736 60.10740280 197.54707336 60.15510559 C 197.56419373 60.23535919 197.50300598 60.25822449 197.48074341 60.30151749 C 197.40899658 60.31772614 197.40184021 60.30244446 197.35705566 60.29865265 C 197.33576965 60.28545761 197.29846191 60.21347046 197.32028198 60.20035172 C 197.32080078 60.16660690 197.31709290 60.07091904 197.34440613 60.06322479 C 197.42314148 59.97642136 197.41032410 59.94564056 197.47828674 59.86125946 C 197.55508423 59.79798889 197.59979248 59.72418976 197.66465759 59.68579483 C 197.73825073 59.55684280 197.81930542 59.55134201 197.82040405 59.32154846" stroke-width="2.00000000" fill="rgb(0, 34, 223)" opacity="1.0" stroke="rgb(2, 0, 10)" stroke-opacity="0.70782703" stroke-linecap="round" stroke-linejoin="round"/>
    <path d="M 351.48855591 71.78572845 C 351.48950195 71.76834106 351.49166870 71.78723145 351.50106812 71.75234985 C 351.48056030 71.79024506 351.50457764 71.77645111 351.48916626 71.75632477 C 351.49414062 71.77063751 351.51495361 71.80554962 351.47613525 71.74157715 C 351.50897217 71.78432465 351.49377441 71.77100372 351.49844360 71.75382233 C 351.49835205 71.77558136 351.49584961 71.76402283 351.49499512 71.76906586 C 351.51953125 71.76160431 351.47802734 71.78533936 351.48800659 71.74736786 C 351.50628662 71.77892303 351.51177979 71.77806854 351.46228027 71.75074768 C 351.52944946 71.78705597 351.47140503 71.76300049 351.51412964 71.76691437 C 351.48446655 71.77190399 351.51382446 71.77391052 351.48321533 71.76869965 C 351.49377441 71.76517487 351.49331665 71.77133942 351.48855591 71.78572845" stroke-width="0.00000000" fill="rgb(0, 0, 0)" opacity="1.0" stroke="rgb(81, 94, 133)" stroke-opacity="1.0" stroke-linecap="round" stroke-linejoin="round"/>
    <path d="M 145.13748169 83.28373718 C 145.59722900 83.52120209 146.03759766 83.90069580 146.40547180 84.30722809 C 146.52462769 84.71759033 146.66938782 85.06900787 146.91148376 85.34476471 C 147.14155579 85.67369843 147.30801392 85.91813660 147.30158997 86.16357422 C 147.07228088 86.57514191 146.82479858 86.81639862 146.66633606 86.89509583 C 146.50379944 87.09951782 146.29600525 87.29477692 146.00090027 87.44961548 C 145.65942383 87.48754120 145.31610107 87.39076233 144.93873596 87.09400177 C 144.63404846 86.76546478 144.33695984 86.44580841 143.91714478 86.11344147 C 143.32254028 85.81448364 142.74517822 85.38488770 142.32632446 84.88632965 C 141.98989868 84.32274628 141.70953369 83.73596954 141.55978394 83.24462891 C 141.41798401 82.67369843 141.31042480 81.87592316 145.13748169 83.28373718" stroke-width="0.51595628" fill="rgb(239, 243, 240)" opacity="1.0" stroke="rgb(151, 155, 153)" stroke-opacity="0.49302664" stroke-linecap="round" stroke-linejoin="round"/>
    <path d="M 399.29272461 26.30767250 C 399.53479004 26.31853676 399.82705688 26.31363106 399.97753906 26.36759567 C 400.18878174 26.37860680 400.33779907 26.43355942 400.46240234 26.48833275 C 400.54043579 26.63295746 400.56799316 26.69383049 400.56320190 26.81930161 C 400.46267700 26.88558388 400.32409668 27.01377106 400.19854736 27.04501343 C 400.02990723 27.04649925 399.90274048 27.04975128 399.78485107 27.03641319 C 399.61227417 26.99937248 399.41198730 26.99644852 399.23077393 26.88934326 C 399.16445923 26.80954742 399.09204102 26.64228439 398.96112061 26.47156525 C 398.87417603 26.30728149 398.79193115 26.09162140 398.62872314 25.89429092 C 398.55627441 25.71373749 398.49130249 25.53813362 398.51773071 25.25753403 C 398.57119751 25.11341858 398.53640747 24.93102074 399.29272461 26.30767250" stroke-width="2.00000000" fill="rgb(96, 107, 144)" opacity="1.0" stroke="rgb(12, 8, 14)" stroke-opacity="0.25159034" stroke-linecap="round" stroke-linejoin="round"/>
    <path d="M 200.61532593 62.58361053 C 199.86549377 62.26217651 199.25337219 61.77603912 198.69894409 61.47027969 C 198.21369934 61.10919952 197.84915161 60.65653992 197.64302063 60.16913986 C 197.51684570 59.77570724 197.43600464 59.40267181 197.32989502 59.10926819 C 197.41395569 58.91217422 197.73759460 58.84115219 198.16567993 58.67854691 C 198.56275940 58.44476318 198.82290649 58.48848343 199.11108398 58.62269211 C 199.56655884 58.86532211 199.97015381 59.21097565 200.36361694 59.53532410 C 200.64566040 60.00206757 201.03088379 60.42361069 201.57804871 60.85816956 C 202.20065308 61.24705124 202.63284302 61.58699417 202.79220581 61.86235428 C 202.77951050 62.20821381 202.66975403 62.54250336 202.42895508 62.84516907 C 202.07559204 63.12413025 201.57722473 63.46162033 200.61532593 62.58361053" stroke-width="0.54837430" fill="rgb(244, 248, 250)" opacity="1.0" stroke="rgb(147, 148, 153)" stroke-opacity="0.96915305" stroke-linecap="round" stroke-linejoin="round"/>
    <path d="M 351.55432129 73.51419067 C 350.77233887 73.02266693 350.14855957 72.54069519 349.68084717 72.05841827 C 349.17749023 71.53846741 348.80288696 70.93738556 348.46755981 70.37683105 C 348.20867920 69.91297913 348.03384399 69.46598816 348.14636230 69.02048492 C 348.34387207 68.61569977 348.66470337 68.38002777 348.99530029 68.35926056 C 349.37808228 68.36718750 349.64138794 68.58845520 349.94735718 68.78965759 C 350.31967163 69.01086426 350.52636719 69.50347137 350.72198486 69.79869843 C 351.14984131 69.85252380 351.53704834 69.97660065 351.94558716 70.24008179 C 352.27185059 70.49937439 352.53469849 70.83354187 352.80807495 71.30168915 C 353.15328979 71.84426880 353.50735474 72.39955902 353.71594238 73.05120850 C 354.07678223 73.72825623 354.30978394 74.48106384 351.55432129 73.51419067" stroke-width="0.44822642" fill="rgb(238, 240, 246)" opacity="1.0" stroke="rgb(204, 191, 172)" stroke-opacity="0.6692319" stroke-linecap="round" stroke-linejoin="round"/>
    <path d="M 398.52413940 25.86964989 C 397.91778564 25.37927055 397.39077759 24.91732979 396.68707275 24.51149940 C 396.15332031 24.00752068 395.81021118 23.54232407 395.61975098 23.17220879 C 395.55206299 22.79348183 395.55581665 22.37906265 395.66592407 21.99541855 C 395.85064697 21.69676971 396.15093994 21.58052826 396.46548462 21.59821892 C 396.91110229 21.52716637 397.47253418 21.56823540 398.00012207 21.79954147 C 398.43392944 22.12053871 398.67706299 22.43715858 398.95812988 22.80289268 C 399.30105591 23.26666832 399.58224487 23.83056641 399.84759521 24.31888390 C 400.15292358 24.73822403 400.42117310 25.13873863 400.76162720 25.42010498 C 401.04083252 25.55319214 401.28103638 25.73974991 401.62619019 25.93341637 C 401.98797607 26.23800850 402.23840332 26.39177895 398.52413940 25.86964989" stroke-width="0.34702680" fill="rgb(233, 238, 245)" opacity="1.0" stroke="rgb(150, 149, 135)" stroke-opacity="0.5977787" stroke-linecap="round" stroke-linejoin="round"/>
  </g>
</svg>
