<?xml version="1.0" ?>
<svg xmlns="http://www.w3.org/2000/svg" version="1.1" width="512" height="512" viewBox="0 0 512 512">
  <defs/>
  <g>
    <path d="M 541.97875977 367.74078369 C 536.05603027 384.75115967 526.83892822 401.42968750 514.92059326 417.02536011 C 503.00225830 432.62103271 488.38272095 447.13388062 471.65515137 459.81292725 C 454.92761230 472.49194336 436.09204102 483.33715820 415.74166870 491.59762573 C 389.08242798 497.01385498 364.93530273 498.99865723 342.63989258 498.83395386 C 320.34448242 498.66925049 299.90081787 496.35507202 280.64849854 493.17333984 C 261.39617920 489.99163818 243.33526611 485.94238281 225.80534363 482.30755615 C 207.62255859 477.62768555 188.79100037 472.36566162 169.40615845 465.71047974 C 150.02133179 459.05532837 130.08322144 451.00704956 109.68736267 440.75466919 C 89.29148865 430.50228882 68.43785095 418.04583740 47.22195435 402.57431030 C 31.14923096 391.79272461 18.21450043 377.43978882 7.93659878 360.21591187 C -2.34130311 342.99200439 -9.96237755 322.89715576 -15.40779114 300.63171387 C -20.85320282 278.36627197 -24.12295532 253.93025208 -25.69821167 228.02401733 C -26.19114113 204.26475525 -27.72978401 180.51824951 -29.02726173 157.11322021 C -30.32473755 133.70819092 -31.38105202 110.64462280 -30.90932274 88.25123596 C -30.43759537 65.85785675 -28.43782616 44.13466263 -23.62313843 23.41036987 C -11.25129223 8.79353809 1.36989701 -1.79440999 14.66514492 -9.02132797 C 27.96039391 -16.24824715 41.92970276 -20.11413574 56.99778748 -21.28684807 C 72.06587219 -22.45956039 88.23274231 -20.93909836 105.92309570 -17.39331055 C 130.99963379 -15.53372192 155.20306396 -14.22762680 178.62036133 -13.28322315 C 202.03765869 -12.33882046 224.66882324 -11.75610733 246.60087585 -11.34328175 C 268.53289795 -10.93045712 289.76580811 -10.68752098 310.38659668 -10.42266846 C 329.25888062 -9.36147022 348.74197388 -9.69568539 368.87310791 -10.36721230 C 389.00427246 -11.03873920 409.78347778 -12.04757786 431.24804688 -12.33562756 C 452.71264648 -12.62367821 474.86254883 -12.19093895 497.73510742 -9.97930908 C 513.54522705 3.28102112 525.98083496 18.99855614 535.58990479 37.08880997 C 545.19897461 55.17906189 551.98162842 75.64203644 556.48583984 98.39324951 C 560.99011230 121.14446259 563.21594238 146.18391418 563.71154785 173.42710876 C 563.33728027 198.62980652 562.85693359 223.11727905 561.69635010 246.40068054 C 560.53582764 269.68408203 558.69512939 291.76336670 555.60021973 312.14968872 C 552.50531006 332.53601074 548.15612793 351.22930908 541.97875977 367.74078369" stroke-width="2.00000000" fill="rgb(12, 28, 68)" opacity="1.0" stroke="rgb(14, 24, 65)" stroke-opacity="1.0" stroke-linecap="round" stroke-linejoin="round"/>
    <path d="M 41.29040527 54.53369141 C 41.28993225 54.53356934 41.28929138 54.53353882 41.28826904 54.53366089 C 41.28756714 54.53359985 41.28663635 54.53405762 41.28613281 54.53401184 C 41.28623962 54.53343201 41.28671265 54.53244019 41.28677368 54.53192139 C 41.28717041 54.53073120 41.28750610 54.53045654 41.28787231 54.52984619 C 41.28857422 54.52903748 41.28942871 54.52877808 41.28996277 54.52865601 C 41.29147339 54.52867126 41.29110718 54.52867126 41.29194641 54.52874756 C 41.29266357 54.52864075 41.29336548 54.52944946 41.29367065 54.53005981 C 41.29400635 54.53109741 41.29399109 54.53150940 41.29400635 54.53234863 C 41.29403687 54.53285217 41.29394531 54.53379822 41.29312134 54.53405762 C 41.29199219 54.53398132 41.29162598 54.53359985 41.29040527 54.53369141" stroke-width="0.00000000" fill="rgb(255, 255, 243)" opacity="1.0" stroke="rgb(49, 0, 0)" stroke-opacity="1.0" stroke-linecap="round" stroke-linejoin="round"/>
    <path d="M 143.67686462 85.59133911 C 143.67958069 85.42269897 143.71662903 85.11199951 143.67347717 84.81652832 C 143.68243408 84.48876953 143.50740051 84.22961426 143.59823608 84.05197144 C 143.82125854 84.08074951 144.08149719 84.15937805 144.39152527 84.20680237 C 144.77735901 84.29269409 144.99894714 84.33029175 145.27435303 84.30886841 C 145.58740234 84.38113403 145.71754456 84.54620361 145.74372864 84.86901855 C 145.70442200 85.19683838 145.67442322 85.27471924 145.60330200 85.48846436 C 145.46211243 85.85729980 145.48907471 85.93188477 145.14520264 86.22193909 C 144.86767578 86.37449646 144.82984924 86.42166138 144.42466736 86.56536865 C 144.08140564 86.67401123 143.86405945 86.66838074 143.74037170 86.53591919 C 143.56753540 86.30380249 143.70535278 86.04295349 143.67686462 85.59133911" stroke-width="2.00000000" fill="rgb(65, 75, 85)" opacity="1.0" stroke="rgb(22, 10, 7)" stroke-opacity="1.0" stroke-linecap="round" stroke-linejoin="round"/>
    <path d="M 342.89514160 67.35897827 C 342.90618896 67.35565186 342.90847778 67.35659790 342.92044067 67.35086060 C 342.92929077 67.34725952 342.93515015 67.33912659 342.94158936 67.33863831 C 342.94137573 67.34613037 342.93774414 67.35473633 342.93911743 67.36482239 C 342.93957520 67.37831116 342.94143677 67.38265991 342.94900513 67.39164734 C 342.95416260 67.40060425 342.94973755 67.40228271 342.93728638 67.40512085 C 342.92514038 67.40557861 342.92144775 67.40335083 342.91683960 67.40722656 C 342.90829468 67.41357422 342.90093994 67.41145325 342.89144897 67.40463257 C 342.88259888 67.39897156 342.88330078 67.39620972 342.87350464 67.38690186 C 342.86502075 67.37741089 342.86230469 67.37304688 342.86489868 67.36547852 C 342.87335205 67.35778809 342.88491821 67.36285400 342.89514160 67.35897827" stroke-width="0.00000000" fill="rgb(11, 31, 87)" opacity="1.0" stroke="rgb(223, 128, 144)" stroke-opacity="1.0" stroke-linecap="round" stroke-linejoin="round"/>
    <path d="M 203.74586487 55.32040405 C 203.74520874 55.32043457 203.74482727 55.32034302 203.74415588 55.32057190 C 203.74353027 55.32063293 203.74304199 55.32104492 203.74264526 55.32104492 C 203.74275208 55.32064819 203.74314880 55.32017517 203.74327087 55.31959534 C 203.74356079 55.31877136 203.74360657 55.31852722 203.74349976 55.31784058 C 203.74351501 55.31732178 203.74365234 55.31718445 203.74447632 55.31715393 C 203.74533081 55.31730652 203.74539185 55.31742859 203.74577332 55.31732178 C 203.74645996 55.31710815 203.74679565 55.31733704 203.74726868 55.31796265 C 203.74772644 55.31848145 203.74772644 55.31864929 203.74795532 55.31935120 C 203.74822998 55.31990051 203.74835205 55.32043457 203.74778748 55.32058716 C 203.74723816 55.32073975 203.74665833 55.32028198 203.74586487 55.32040405" stroke-width="1.91567993" fill="rgb(76, 11, 44)" opacity="1.0" stroke="rgb(0, 22, 250)" stroke-opacity="1.0" stroke-linecap="round" stroke-linejoin="round"/>
    <path d="M 400.15438843 25.23620605 C 400.15377808 25.23655701 400.15362549 25.23649597 400.15301514 25.23693848 C 400.15249634 25.23724365 400.15225220 25.23797607 400.15194702 25.23783875 C 400.15185547 25.23728943 400.15179443 25.23678589 400.15148926 25.23628235 C 400.15115356 25.23551941 400.15097046 25.23524475 400.15045166 25.23483276 C 400.15014648 25.23422241 400.15042114 25.23422241 400.15118408 25.23381042 C 400.15213013 25.23355103 400.15191650 25.23353577 400.15252686 25.23332214 C 400.15332031 25.23301697 400.15335083 25.23284912 400.15414429 25.23297119 C 400.15484619 25.23332214 400.15499878 25.23350525 400.15542603 25.23388672 C 400.15591431 25.23437500 400.15612793 25.23490906 400.15600586 25.23521423 C 400.15560913 25.23588562 400.15493774 25.23587036 400.15438843 25.23620605" stroke-width="0.11523438" fill="rgb(7, 12, 0)" opacity="1.0" stroke="rgb(0, 0, 0)" stroke-opacity="1.0" stroke-linecap="round" stroke-linejoin="round"/>
    <path d="M 565.77722168 386.50122070 C 563.40014648 397.03253174 559.88165283 409.65695190 554.61621094 423.52136230 C 549.35070801 437.38577271 542.33819580 452.49017334 532.97308350 467.98153687 C 523.60797119 483.47290039 511.89025879 499.35116577 497.21426392 514.76330566 C 484.44845581 522.12414551 470.42852783 527.03710938 454.88992310 530.01519775 C 439.35131836 532.99328613 422.29397583 534.03649902 403.45336914 533.65771484 C 384.61279297 533.27893066 363.98889160 531.47814941 341.31713867 528.76837158 C 324.14080811 528.72741699 306.01394653 528.23205566 287.60379028 527.79003906 C 269.19363403 527.34802246 250.50018311 526.95935059 232.19058228 527.13171387 C 213.88098145 527.30407715 195.95526123 528.03747559 179.08061218 529.83966064 C 157.84452820 530.03472900 138.06495667 531.80230713 119.34085846 533.13952637 C 100.61676025 534.47674561 82.94812775 535.38360596 65.93389130 533.85723877 C 48.91966248 532.33087158 32.55982971 528.37127686 16.45333862 519.97564697 C 5.06673193 507.18194580 -4.19615984 491.49093628 -11.75655556 474.34338379 C -19.31695175 457.19586182 -25.17485046 438.59179688 -29.75147057 419.97204590 C -34.32809067 401.35226440 -37.62343597 382.71679688 -40.05871582 365.50640869 C -39.51559448 344.55969238 -38.07811737 326.19097900 -35.16162872 310.82452393 C -32.24514008 295.45806885 -27.84963799 283.09381104 -21.39046478 274.15606689 C -14.93129158 265.21829224 -6.40844679 259.70700073 4.76272583 258.04638672 C 21.16711426 257.79785156 37.97891617 257.78784180 55.66012955 257.85092163 C 73.34134674 257.91400146 91.89196777 258.05017090 111.77400208 258.09399414 C 131.65603638 258.13781738 152.86947632 258.08929443 175.87631226 257.78302002 C 191.82406616 258.16198730 207.07077026 258.25354004 222.90872192 258.22958374 C 238.74667358 258.20562744 255.17584229 258.06613159 273.48852539 257.98303223 C 291.80117798 257.89996338 311.99737549 257.87329102 335.36929321 258.07489014 C 350.39364624 258.10064697 365.92715454 258.11584473 382.34585571 258.11779785 C 398.76452637 258.11972046 416.06842041 258.10833740 434.63345337 258.08090210 C 453.19848633 258.05346680 473.02471924 258.00994873 494.48812866 257.94763184 C 508.18685913 256.63397217 520.61889648 260.13143921 531.12506104 268.82803345 C 541.63122559 277.52462769 550.21142578 291.42034912 556.20654297 310.90322876 C 562.20166016 330.38610840 565.61157227 355.45611572 565.77722168 386.50122070" stroke-width="0.88158685" fill="rgb(16, 116, 205)" opacity="1.0" stroke="rgb(37, 141, 232)" stroke-opacity="1.0" stroke-linecap="round" stroke-linejoin="round"/>
    <path d="M 432.47476196 477.13092041 C 419.38732910 476.68499756 400.61203003 477.61920166 380.70007324 479.25360107 C 360.78811646 480.88796997 339.73950195 483.22253418 322.10537720 485.57727051 C 299.50543213 482.13732910 282.58581543 478.86743164 269.27755737 476.68218994 C 255.96928406 474.49688721 246.27236938 473.39624023 238.11778259 474.29473877 C 223.30920410 479.92123413 213.69042969 481.84301758 200.92541504 481.39660645 C 188.16041565 480.95022583 172.24920654 478.13565063 144.85577393 474.28942871 C 123.57270813 472.35339355 107.18408203 471.93023682 90.62980652 472.20324707 C 74.07554626 472.47625732 57.35563660 473.44546509 35.41001892 474.29421997 C 0.77654302 481.51690674 -4.52161789 479.63226318 2.43745804 476.52093506 C 9.39653397 473.40960693 28.61284637 469.07159424 43.00831604 471.38763428 C 74.84351349 470.44406128 87.32347107 471.76733398 97.76170349 472.42294312 C 108.19992828 473.07852173 116.59642029 473.06640625 140.26467896 469.45208740 C 165.06219482 471.65997314 178.66439819 475.30828857 191.08876038 476.80429077 C 203.51312256 478.30032349 214.75967407 477.64404297 234.84590149 471.24282837 C 248.19833374 468.11145020 256.00048828 469.38436890 265.94912720 471.62390137 C 275.89776611 473.86343384 287.99291992 477.06954956 309.93139648 477.80453491 C 331.01928711 481.60025024 347.53363037 481.87060547 362.83255005 479.48016357 C 378.13146973 477.08972168 392.21490479 472.03848267 408.44100952 465.19094849 C 428.30078125 456.29589844 447.56274414 454.00253296 455.23300171 456.57214355 C 462.90325928 459.14172363 458.98181152 466.57424927 432.47476196 477.13092041" stroke-width="0.00000000" fill="rgb(188, 234, 225)" opacity="1.0" stroke="rgb(255, 255, 255)" stroke-opacity="1.0" stroke-linecap="round" stroke-linejoin="round"/>
    <path d="M 409.54278564 517.95745850 C 398.04815674 517.42034912 389.07977295 515.21673584 380.58441162 512.26251221 C 372.08905029 509.30825806 364.06677246 505.60342407 354.46438599 502.06399536 C 344.86199951 498.52453613 333.67950439 495.15051270 318.86373901 492.85778809 C 308.94494629 489.16503906 298.12796021 487.72439575 287.34182739 487.58703613 C 276.55572510 487.44970703 265.80050659 488.61566162 256.00524902 490.13623047 C 246.21002197 491.65676880 237.37475586 493.53192139 230.42858887 494.81286621 C 222.14167786 497.85891724 214.01502991 500.85711670 205.56140137 503.68997192 C 197.10775757 506.52279663 188.32714844 509.19024658 178.73229980 511.57482910 C 169.13745117 513.95941162 158.72836304 516.06109619 147.01782227 517.76239014 C 130.61900330 519.85333252 115.27706909 522.17590332 100.80050659 524.07336426 C 86.32393646 525.97088623 72.71272278 527.44335938 59.77532578 527.83404541 C 46.83792877 528.22473145 34.57434845 527.53369141 22.79304504 525.10430908 C 8.22712231 519.91943359 -0.44487199 514.46826172 -3.69476295 509.36746216 C -6.94465399 504.26666260 -4.77244186 499.51626587 2.35004592 495.73291016 C 9.47253418 491.94958496 21.54529762 489.13327026 38.09651184 487.90069580 C 54.20040512 489.31121826 66.42388916 491.33245850 76.65562439 492.91860962 C 86.88735962 494.50476074 95.12733459 495.65585327 103.26422119 495.32604980 C 111.40110779 494.99627686 119.43489075 493.18560791 129.25424194 488.84832764 C 144.54516602 487.57138062 155.28327942 488.36434937 164.11521912 489.76281738 C 172.94714355 491.16128540 179.87290955 493.16522217 187.53912354 494.31021118 C 195.20532227 495.45516968 203.61198425 495.74114990 215.40571594 493.70367432 C 224.99263000 491.35565186 232.69332886 489.85202026 240.56739807 488.95297241 C 248.44146729 488.05395508 256.48889160 487.75952148 266.76925659 487.82992554 C 277.04962158 487.90032959 289.56289673 488.33563232 306.36868286 488.89599609 C 319.73458862 489.16201782 332.44003296 488.24749756 344.95675659 486.98858643 C 357.47344971 485.72967529 369.80139160 484.12640381 382.41226196 483.01495361 C 395.02313232 481.90347290 407.91693115 481.28378296 421.56530762 481.99206543 C 437.55825806 481.15466309 448.59423828 485.34326172 453.85391235 491.14306641 C 459.11358643 496.94287109 458.59704590 504.35388184 451.48492432 509.96121216 C 444.37283325 515.56854248 430.66522217 519.37225342 409.54278564 517.95745850" stroke-width="0.00000000" fill="rgb(142, 221, 233)" opacity="1.0" stroke="rgb(94, 255, 255)" stroke-opacity="1.0" stroke-linecap="round" stroke-linejoin="round"/>
    <path d="M 511.57656860 511.16754150 C 507.15084839 514.73156738 501.55703735 516.00720215 495.06542969 516.27148438 C 488.57385254 516.53576660 481.18450928 515.78881836 473.16775513 515.30773926 C 465.15100098 514.82666016 456.50683594 514.61145020 447.50561523 515.93933105 C 440.20550537 516.50720215 433.57934570 516.90728760 426.88461304 517.30065918 C 420.18988037 517.69396973 413.42654419 518.08050537 405.85205078 518.62127686 C 398.27758789 519.16204834 389.89196777 519.85705566 379.95266724 520.86737061 C 370.19732666 521.25952148 361.59625244 521.65722656 353.67135620 522.20184326 C 345.74645996 522.74639893 338.49768066 523.43780518 331.44702148 524.41741943 C 324.39633179 525.39703369 317.54370117 526.66479492 310.41107178 528.36206055 C 302.98785400 525.03601074 300.15945435 521.14556885 299.95199585 516.33801270 C 299.74450684 511.53045654 302.15795898 505.80581665 305.21838379 498.81130981 C 308.27880859 491.81677246 311.98620605 483.55242920 314.36666870 473.66549683 C 316.02178955 469.48538208 318.33587646 462.95315552 320.93191528 455.36798096 C 323.52795410 447.78277588 326.40597534 439.14465332 329.18887329 430.75274658 C 331.97177124 422.36080933 334.65957642 414.21508789 336.87524414 407.61471558 C 339.49716187 399.14367676 342.25372314 391.95385742 345.05307007 386.25985718 C 347.85241699 380.56582642 350.69451904 376.36755371 353.48751831 373.87957764 C 356.28051758 371.39160156 359.02441406 370.61389160 361.62728882 371.76101685 C 369.49508667 376.09896851 376.95101929 378.97735596 384.36914062 380.84750366 C 391.78726196 382.71765137 399.16757202 383.57952881 406.88412476 383.88449097 C 414.60064697 384.18945312 422.65344238 383.93750000 431.41656494 383.57995605 C 442.36172485 382.28497314 450.61508179 381.21356201 457.23962402 381.00500488 C 463.86419678 380.79644775 468.85998535 381.45071411 473.29000854 383.60714722 C 477.72003174 385.76358032 481.58428955 389.42218018 485.94586182 395.22216797 C 495.39129639 392.68124390 502.07095337 392.75057983 506.66680908 395.28128052 C 511.26266479 397.81195068 513.77471924 402.80401611 514.88488770 410.10861206 C 515.99511719 417.41320801 515.70343018 427.03027344 514.69189453 438.81103516 C 514.22418213 444.97784424 514.36029053 453.14709473 514.53686523 461.94058228 C 514.71350098 470.73406982 514.93066406 480.15185547 514.62506104 488.81573486 C 514.31945801 497.47961426 513.49102783 505.38958740 511.57656860 511.16754150" stroke-width="0.84226686" fill="rgb(134, 68, 29)" opacity="1.0" stroke="rgb(72, 91, 120)" stroke-opacity="1.0" stroke-linecap="round" stroke-linejoin="round"/>
    <path d="M 450.35040283 403.69854736 C 444.41357422 405.53030396 438.25170898 406.54644775 432.04916382 407.04998779 C 425.84661865 407.55352783 419.60336304 407.54452515 413.50378418 407.32601929 C 407.40417480 407.10751343 401.44824219 406.67950439 395.82034302 406.34503174 C 389.01608276 402.63821411 385.50836182 398.52795410 383.78823853 393.83700562 C 382.06811523 389.14608765 382.13562012 383.87451172 382.48178101 377.84506226 C 382.82794189 371.81561279 383.45275879 365.02825928 382.84725952 357.30584717 C 383.03594971 350.13171387 382.99099731 343.69702148 382.87948608 337.49960327 C 382.76800537 331.30218506 382.58999634 325.34204102 382.51260376 319.11700439 C 382.43518066 312.89196777 382.45837402 306.40203857 382.74932861 299.14501953 C 382.92993164 292.19042969 382.95297241 285.12643433 382.88793945 278.17282104 C 382.82293701 271.21917725 382.66989136 264.37591553 382.49832153 257.86267090 C 382.32672119 251.34945679 382.13665771 245.16629028 381.99755859 239.53291321 C 382.92742920 230.99502563 382.54003906 223.41288757 382.20584106 216.92085266 C 381.87164307 210.42881775 381.59063721 205.02688599 382.73336792 200.84939575 C 383.87609863 196.67190552 386.44250488 193.71887207 391.80316162 192.12461853 C 400.11666870 191.40631104 406.41906738 190.70841980 411.86074829 190.04428101 C 417.30242920 189.38012695 421.88342285 188.74974060 426.75411987 188.16644287 C 431.62478638 187.58316040 436.78515625 187.04695129 443.38555908 186.57118225 C 450.24707031 188.38578796 454.02392578 191.94131470 456.04702759 196.67320251 C 458.07012939 201.40509033 458.33947754 207.31332397 458.18597412 213.83335876 C 458.03247070 220.35339355 457.45614624 227.48522949 457.78787231 234.66427612 C 458.06652832 242.52705383 458.21578979 249.31771851 458.27951050 255.58595276 C 458.34326172 261.85418701 458.32147217 267.60000610 458.25799561 273.37310791 C 458.19458008 279.14617920 458.08947754 284.94656372 457.98657227 291.32391357 C 458.31503296 300.99276733 458.47042847 307.41232300 458.52966309 312.76766968 C 458.58892822 318.12301636 458.55200195 322.41412354 458.49588013 327.82604980 C 458.43975830 333.23797607 458.36441040 339.77072144 458.34674072 349.60931396 C 457.47421265 356.04574585 457.98348999 363.07592773 458.48745728 369.96395874 C 458.99142456 376.85198975 459.49008179 383.59783936 458.59628296 389.46560669 C 457.70248413 395.33334351 455.41622925 400.32299805 450.35040283 403.69854736" stroke-width="0.35025755" fill="rgb(250, 252, 251)" opacity="1.0" stroke="rgb(255, 221, 180)" stroke-opacity="1.0" stroke-linecap="round" stroke-linejoin="round"/>
    <path d="M 454.58599854 198.77507019 C 450.84820557 198.67349243 448.74554443 198.52490234 446.34381104 198.45286560 C 443.94204712 198.38082886 441.24121094 198.38533020 436.30706787 198.58996582 C 432.24050903 198.55792236 429.01071167 198.53482056 425.80700684 198.54469299 C 422.60330200 198.55458069 419.42565918 198.59744263 415.46340942 198.69735718 C 411.46139526 198.71159363 408.27227783 198.66423035 405.17480469 198.64395142 C 402.07733154 198.62365723 399.07153320 198.63046265 395.43618774 198.75299072 C 390.56460571 198.83209229 387.31347656 199.01274109 385.56231689 197.98518372 C 383.81115723 196.95761108 383.55996704 194.72183228 384.68829346 189.96804810 C 384.65283203 186.40232849 383.94458008 182.20439148 383.98049927 178.76281738 C 384.01641846 175.32125854 384.79650879 172.63604736 387.73767090 172.09576416 C 391.92758179 171.97366333 393.92883301 172.07429504 395.77520752 172.24963379 C 397.62155151 172.42495728 399.31301880 172.67500305 402.88336182 172.85171509 C 407.30786133 172.24629211 410.54660034 171.86865234 413.51223755 171.66424561 C 416.47787476 171.45980835 419.17044067 171.42860413 422.50265503 171.51602173 C 426.90789795 171.85023499 430.19546509 172.11141968 433.26791382 172.22290039 C 436.34036255 172.33438110 439.19766235 172.29615784 442.74230957 172.03155518 C 447.74780273 172.24479675 451.66619873 171.66035461 454.05450439 172.21731567 C 456.44281006 172.77426147 457.30096436 174.47261047 456.18603516 179.25141907 C 455.49200439 183.85781860 455.83795166 187.55303955 455.98446655 190.68949890 C 456.13095093 193.82595825 456.07797241 196.40367126 454.58599854 198.77507019" stroke-width="0.75621736" fill="rgb(242, 74, 71)" opacity="1.0" stroke="rgb(151, 8, 0)" stroke-opacity="1.0" stroke-linecap="round" stroke-linejoin="round"/>
    <path d="M 437.40396118 145.55906677 C 437.80273438 146.94500732 437.48541260 148.42422485 436.97186279 150.19396973 C 436.45831299 151.96371460 435.74853516 154.02395630 435.36236572 156.57192993 C 434.61856079 158.88525391 434.67239380 161.28977966 434.60781860 163.43534851 C 434.54321289 165.58090210 434.36022949 167.46749878 433.14273071 168.74493408 C 431.53054810 170.04919434 429.86029053 170.92004395 428.03005981 171.57046509 C 426.19982910 172.22088623 424.20968628 172.65087891 421.95773315 173.07336426 C 419.83728027 173.38787842 418.17797852 172.91540527 416.45196533 172.30061340 C 414.72592163 171.68582153 412.93319702 170.92871094 410.54589844 170.67396545 C 407.33145142 170.30749512 405.43841553 169.63999939 404.30593872 168.55863953 C 403.17346191 167.47727966 402.80157471 165.98207092 402.62945557 163.96020508 C 403.05526733 160.12007141 403.46890259 158.56658936 403.73645020 157.42549133 C 404.00402832 156.28439331 404.12551880 155.55569458 403.96707153 153.36509705 C 402.31216431 151.14138794 401.25820923 148.86058044 401.21817017 146.91885376 C 401.17813110 144.97714233 402.15197754 143.37451172 404.55273438 142.50714111 C 407.19192505 142.05035400 408.43218994 140.84390259 409.39550781 139.40257263 C 410.35882568 137.96125793 411.04519653 136.28509521 412.57662964 134.88891602 C 414.96301270 134.90168762 417.14144897 135.68933105 419.17269897 136.64147949 C 421.20391846 137.59364319 423.08798218 138.71029663 424.88565063 139.38108826 C 426.05950928 139.93927002 428.02636719 140.42163086 430.28112793 141.29553223 C 432.53588867 142.16941833 435.07855225 143.43481445 437.40396118 145.55906677" stroke-width="0.68260258" fill="rgb(230, 69, 78)" opacity="1.0" stroke="rgb(255, 81, 41)" stroke-opacity="1.0" stroke-linecap="round" stroke-linejoin="round"/>
    <path d="M 465.35491943 59.20654297 C 468.71917725 60.58479309 468.01882935 63.81032562 466.02282715 67.74616241 C 464.02682495 71.68199921 460.73519897 76.32814026 458.91693115 80.54760742 C 455.99334717 86.15044403 454.04415894 90.66340637 452.21777344 94.78334808 C 450.39135742 98.90328979 448.68774414 102.63019562 446.25521851 106.66091919 C 442.47692871 112.84994507 440.19537354 117.89826965 438.32754517 122.23017120 C 436.45971680 126.56207275 435.00564575 130.17755127 432.88232422 133.50090027 C 429.80700684 137.72653198 426.40817261 139.81675720 422.52438354 140.28437805 C 418.64062500 140.75199890 414.27191162 139.59701538 409.25686646 137.33226013 C 406.03106689 133.35079956 404.19192505 129.37075806 402.34564209 125.14910126 C 400.49935913 120.92744446 398.64593506 116.46419525 395.39160156 111.51634216 C 392.48190308 102.97981262 390.82772827 99.64777374 389.27975464 97.03407288 C 387.73178101 94.42037201 386.29000854 92.52500916 383.80508423 86.86183167 C 381.94387817 80.90228271 379.86700439 77.42802429 377.92532349 73.88633728 C 375.98361206 70.34465027 374.17709351 66.73553467 372.85656738 60.50625610 C 377.59994507 59.33944702 382.14981079 59.25526428 386.96585083 59.39382935 C 391.78192139 59.53239441 396.86416626 59.89370728 402.67233276 59.61788940 C 407.13146973 59.67727661 410.89251709 59.72171402 415.36532593 59.69958878 C 419.83813477 59.67746353 425.02273560 59.58877563 432.32901001 59.38191223 C 436.26690674 59.58893585 441.19396973 59.68500900 446.80126953 59.65937042 C 452.40856934 59.63372803 458.69610596 59.48637390 465.35491943 59.20654297" stroke-width="0.43026823" fill="rgb(246, 177, 50)" opacity="1.0" stroke="rgb(225, 162, 27)" stroke-opacity="1.0" stroke-linecap="round" stroke-linejoin="round"/>
    <path d="M 408.39825439 257.54162598 C 407.99438477 257.49505615 407.20440674 257.42874146 406.12771606 257.38418579 C 405.05105591 257.33963013 403.68768311 257.31683350 402.13696289 257.35729980 C 400.90338135 257.52313232 400.19110107 257.38787842 399.88989258 256.80114746 C 399.58865356 256.21438599 399.69845581 255.17608643 400.10897827 253.53578186 C 400.17279053 252.55688477 400.16860962 251.49658203 400.14770508 250.33004761 C 400.12683105 249.16349792 400.08923340 247.89070129 400.08627319 246.48681641 C 400.07565308 245.00775146 400.09698486 243.96557617 400.06652832 242.92974854 C 400.03607178 241.89392090 399.95379639 240.86444092 399.73599243 239.41078186 C 399.75164795 237.92291260 400.18310547 237.35281372 400.97351074 237.12669373 C 401.76388550 236.90057373 402.91320801 237.01843262 404.36459351 236.90649414 C 405.52719116 236.90298462 406.33038330 236.86669922 407.11105347 236.81198120 C 407.89172363 236.75727844 408.64987183 236.68412781 409.72235107 236.60687256 C 411.06207275 236.22477722 411.80932617 236.54106140 412.19747925 237.36691284 C 412.58563232 238.19276428 412.61468506 239.52819824 412.51800537 241.18438721 C 412.52246094 242.19079590 412.51147461 242.94099426 412.49963379 243.82286072 C 412.48782349 244.70474243 412.47518921 245.71827698 412.47631836 247.25134277 C 412.50881958 249.03521729 412.48587036 249.90188599 412.48004150 250.79147339 C 412.47424316 251.68106079 412.48556519 252.59356689 412.58663940 254.46911621 C 412.89019775 255.93753052 412.85113525 256.78503418 412.23214722 257.22570801 C 411.61318970 257.66644287 410.41430664 257.70034790 408.39825439 257.54162598" stroke-width="0.57572901" fill="rgb(77, 201, 237)" opacity="1.0" stroke="rgb(96, 206, 226)" stroke-opacity="1.0" stroke-linecap="round" stroke-linejoin="round"/>
    <path d="M 436.72668457 252.33984375 C 436.64932251 253.70001221 436.75018311 254.78028870 436.68701172 255.68954468 C 436.62380981 256.59881592 436.39660645 257.33703613 435.66311646 258.01309204 C 434.75561523 258.18841553 433.65429688 258.05096436 432.51214600 257.89086914 C 431.36996460 257.73077393 430.18692017 257.54809570 429.11587524 257.63290405 C 427.78994751 257.59527588 426.67181396 257.87805176 425.84472656 257.77597046 C 425.01760864 257.67388916 424.48150635 257.18695068 424.31964111 255.60989380 C 424.36361694 254.59405518 424.44256592 253.59869385 424.52090454 252.52426147 C 424.59924316 251.44984436 424.67700195 250.29635620 424.71862793 248.96424866 C 424.64978027 247.97450256 424.71658325 246.94058228 424.74963379 245.80877686 C 424.78271484 244.67697144 424.78198242 243.44729614 424.57806396 242.06604004 C 424.67391968 241.05038452 424.62188721 240.13510132 424.63250732 239.36553955 C 424.64312744 238.59599304 424.71636963 237.97216797 425.06271362 237.53944397 C 425.77697754 237.21701050 426.99621582 237.24028015 428.24163818 237.34033203 C 429.48703003 237.44038391 430.75854492 237.61723328 431.57736206 237.60198975 C 433.33084106 237.70492554 434.53649902 237.40068054 435.36785889 237.35501099 C 436.19924927 237.30935669 436.65637207 237.52224731 436.91278076 238.65943909 C 436.91229248 239.76391602 436.85617065 240.70294189 436.81414795 241.71847534 C 436.77212524 242.73400879 436.74420166 243.82608032 436.80014038 245.23664856 C 436.74560547 246.73144531 436.69458008 247.87683105 436.67352295 248.96372986 C 436.65243530 250.05061340 436.66131592 251.07901001 436.72668457 252.33984375" stroke-width="0.49603716" fill="rgb(76, 197, 237)" opacity="1.0" stroke="rgb(79, 193, 217)" stroke-opacity="1.0" stroke-linecap="round" stroke-linejoin="round"/>
    <path d="M 401.57351685 310.52679443 C 400.87384033 310.46130371 400.57681274 309.82470703 400.45571899 308.87045288 C 400.33465576 307.91619873 400.38955688 306.64422607 400.39379883 305.30795288 C 400.43542480 304.05496216 400.50204468 303.04055786 400.55041504 302.04229736 C 400.59878540 301.04406738 400.62890625 300.06195068 400.59753418 298.87353516 C 400.67358398 297.88714600 400.57614136 296.67138672 400.44122314 295.50726318 C 400.30627441 294.34317017 400.13385010 293.23077393 400.06002808 292.45108032 C 400.01513672 290.97515869 400.66760254 290.42742920 401.62136841 290.23101807 C 402.57513428 290.03460693 403.83020020 290.18951416 404.99053955 290.11883545 C 406.12942505 290.30389404 407.30737305 290.21438599 408.42236328 290.16030884 C 409.53732300 290.10626221 410.58935547 290.08764648 411.47640991 290.41455078 C 412.17614746 291.23028564 412.47113037 291.81005859 412.58761597 292.46783447 C 412.70410156 293.12554932 412.64208984 293.86126709 412.62786865 294.98873901 C 412.60577393 296.31750488 412.51232910 297.35418701 412.42120361 298.31640625 C 412.33007812 299.27859497 412.24121094 300.16625977 412.22830200 301.19702148 C 412.05682373 302.72482300 412.08331299 303.80792236 412.18566895 304.82147217 C 412.28802490 305.83499146 412.46618652 306.77893066 412.59802246 308.02835083 C 413.08523560 309.65972900 412.77755737 310.31838989 412.01705933 310.53820801 C 411.25656128 310.75805664 410.04327393 310.53906250 408.71920776 310.41522217 C 407.82843018 310.39028931 406.69171143 310.50036621 405.45281982 310.57562256 C 404.21392822 310.65081787 402.87289429 310.69119263 401.57351685 310.52679443" stroke-width="0.58401471" fill="rgb(72, 198, 236)" opacity="1.0" stroke="rgb(83, 198, 221)" stroke-opacity="1.0" stroke-linecap="round" stroke-linejoin="round"/>
    <path d="M 435.95617676 289.99645996 C 436.56378174 290.76998901 436.70666504 291.29257202 436.72210693 292.06707764 C 436.73751831 292.84158325 436.62548828 293.86804199 436.72320557 295.64932251 C 436.70443726 296.73886108 436.72180176 297.76522827 436.74743652 298.84857178 C 436.77307129 299.93191528 436.80700684 301.07220459 436.82128906 302.38964844 C 436.74719238 303.13488770 436.82342529 304.33303833 436.91110229 305.59768677 C 436.99877930 306.86233521 437.09790039 308.19348145 437.06951904 309.20465088 C 437.10369873 310.81384277 436.46771240 311.22335815 435.52087402 311.17483521 C 434.57403564 311.12631226 433.31634521 310.61972046 432.10720825 310.39663696 C 431.20709229 310.19100952 430.07846069 310.47152710 428.91778564 310.78942871 C 427.75711060 311.10729980 426.56439209 311.46252441 425.53607178 311.40634155 C 424.74841309 310.36364746 424.41802979 309.79541016 424.31332397 309.17764282 C 424.20858765 308.55987549 424.32946777 307.89263916 424.44430542 306.65197754 C 424.54821777 305.22528076 424.59210205 304.07476807 424.61157227 303.04379272 C 424.63101196 302.01284790 424.62603760 301.10150146 424.63229370 300.15316772 C 424.72967529 298.47424316 424.69589233 297.36248779 424.63238525 296.35696411 C 424.56884766 295.35144043 424.47558594 294.45217896 424.45394897 293.19821167 C 424.21975708 291.51452637 424.63571167 290.61413574 425.41885376 290.21258545 C 426.20196533 289.81103516 427.35229492 289.90832520 428.58676147 290.22012329 C 429.47467041 290.38134766 430.60046387 290.27032471 431.86254883 290.14654541 C 433.12466431 290.02279663 434.52307129 289.88629150 435.95617676 289.99645996" stroke-width="0.53333127" fill="rgb(73, 200, 233)" opacity="1.0" stroke="rgb(64, 184, 209)" stroke-opacity="1.0" stroke-linecap="round" stroke-linejoin="round"/>
    <path d="M 408.26104736 362.46289062 C 406.99990845 362.58325195 405.97546387 362.55734253 404.99304199 362.53149414 C 404.01058960 362.50567627 403.07012939 362.47991943 401.97692871 362.60055542 C 400.66897583 362.39819336 400.28399658 361.85119629 400.22940063 361.09713745 C 400.17477417 360.34310913 400.45050049 359.38204956 400.46392822 358.35165405 C 400.58963013 357.05932617 400.62890625 356.13162231 400.63079834 355.14309692 C 400.63265991 354.15457153 400.59713745 353.10522461 400.57321167 351.56967163 C 400.58050537 350.45367432 400.51889038 349.27279663 400.43124390 348.12002563 C 400.34362793 346.96722412 400.22991943 345.84252930 400.13305664 344.83886719 C 400.14624023 343.59594727 400.63018799 343.13238525 401.48330688 343.00271606 C 402.33645630 342.87304688 403.55880737 343.07727051 405.04882812 343.16992188 C 406.26617432 343.21829224 407.03677368 343.16012573 407.78173828 343.09063721 C 408.52670288 343.02117920 409.24603271 342.94039917 410.36080933 342.94354248 C 411.54302979 342.77984619 412.27474976 343.04083252 412.65142822 343.70266724 C 413.02813721 344.36450195 413.04980469 345.42724609 412.81192017 346.86697388 C 412.66369629 348.18954468 412.55957031 349.21078491 412.48745728 350.17788696 C 412.41531372 351.14495850 412.37515259 352.05792236 412.35482788 353.16390991 C 412.31304932 354.56729126 412.26123047 355.52572632 412.22473145 356.47637939 C 412.18817139 357.42700195 412.16693115 358.36987305 412.18615723 359.74212646 C 412.56457520 361.34979248 412.12081909 362.03390503 411.31369019 362.31411743 C 410.50656128 362.59432983 409.33605957 362.47070312 408.26104736 362.46289062" stroke-width="0.77068210" fill="rgb(67, 198, 238)" opacity="1.0" stroke="rgb(60, 181, 215)" stroke-opacity="1.0" stroke-linecap="round" stroke-linejoin="round"/>
    <path d="M 428.96035767 342.92044067 C 430.23565674 342.87643433 431.35238647 342.93106079 432.38766479 342.95681763 C 433.42291260 342.98257446 434.37673950 342.97943115 435.32617188 342.81988525 C 436.78207397 342.78945923 437.25067139 343.50247192 437.35516357 344.47702026 C 437.45962524 345.45159912 437.19995117 346.68768311 437.19927979 347.70336914 C 437.06738281 349.25540161 437.04254150 350.29876709 437.03811646 351.28927612 C 437.03369141 352.27978516 437.04968262 353.21740723 436.99948120 354.55795288 C 436.89178467 355.69964600 436.89184570 356.74960327 436.91079712 357.91369629 C 436.92974854 359.07775879 436.96759033 360.35598755 436.93548584 361.95422363 C 436.76031494 363.16302490 436.35610962 363.55676270 435.55883789 363.59020996 C 434.76153564 363.62368774 433.57113647 363.29687500 431.82357788 363.06463623 C 430.62936401 363.00274658 429.80038452 363.05694580 429.02740479 363.19442749 C 428.25445557 363.33190918 427.53747559 363.55267334 426.56732178 363.82385254 C 425.47943115 363.89559937 425.01116943 363.39248657 424.79455566 362.51574707 C 424.57797241 361.63903809 424.61303711 360.38867188 424.53176880 358.96588135 C 424.58599854 357.62203979 424.63977051 356.59545898 424.68374634 355.62017822 C 424.72772217 354.64486694 424.76193237 353.72085571 424.77703857 352.58212280 C 424.79501343 351.08358765 424.82379150 350.16644287 424.84066772 349.21386719 C 424.85754395 348.26132202 424.86254883 347.27331543 424.83297729 345.63311768 C 424.38092041 343.83920288 424.88055420 343.15322876 425.75927734 342.91961670 C 426.63803101 342.68603516 427.89590454 342.90481567 428.96035767 342.92044067" stroke-width="0.61438847" fill="rgb(70, 193, 240)" opacity="1.0" stroke="rgb(91, 190, 202)" stroke-opacity="1.0" stroke-linecap="round" stroke-linejoin="round"/>
    <path d="M 296.40417480 516.73706055 C 287.93298340 518.20416260 280.85714722 518.83856201 274.18591309 519.19732666 C 267.51464844 519.55615234 261.24795532 519.63940430 254.39498901 520.00427246 C 247.54202271 520.36920166 240.10278320 521.01568604 231.08644104 522.50097656 C 223.76310730 522.87420654 216.76338196 523.35504150 209.76130676 523.61553955 C 202.75921631 523.87597656 195.75479126 523.91613770 188.42205811 523.40783691 C 181.08930969 522.89953613 173.42825317 521.84289551 165.11289978 519.90979004 C 156.22525024 518.80163574 148.17735291 517.98822021 140.48490906 517.30548096 C 132.79246521 516.62268066 125.45547485 516.07055664 117.98963928 515.48498535 C 110.52379608 514.89941406 102.92910767 514.28039551 94.72126770 513.46386719 C 86.17917633 512.83154297 79.11245728 512.36633301 72.17816162 512.12426758 C 65.24386597 511.88220215 58.44200516 511.86328125 50.42963409 512.12347412 C 42.41725922 512.38366699 33.19437408 512.92291260 21.41804504 513.79724121 C 9.44515991 515.57464600 0.98335803 515.18072510 -3.88661194 513.58142090 C -8.75658226 511.98211670 -10.03472042 509.17739868 -7.64027786 506.13323975 C -5.24583578 503.08905029 0.82118702 499.80541992 10.64154053 497.24829102 C 20.72445679 495.36123657 28.38269997 494.14929199 34.61969757 493.50582886 C 40.85669708 492.86236572 45.67244720 492.78741455 50.07038116 493.17431641 C 54.46831131 493.56121826 58.44842529 494.40997314 63.01414490 495.61395264 C 73.35488892 498.30834961 81.65721130 499.40368652 88.98295593 499.57177734 C 96.30870056 499.73986816 102.65786743 498.98074341 109.09228516 497.96618652 C 115.52670288 496.95159912 122.04638672 495.68157959 129.71316528 494.82797241 C 141.36354065 492.89404297 149.42883301 492.58178711 155.89707947 493.09274292 C 162.36532593 493.60372925 167.23651123 494.93795776 172.49871826 496.29702759 C 177.76091003 497.65606689 183.41409302 499.03997803 191.44633484 499.65026855 C 199.84790039 499.80975342 208.07405090 499.08862305 216.09524536 498.09439087 C 224.11643982 497.10015869 231.93267822 495.83282471 239.51445007 494.89993286 C 247.09622192 493.96704102 254.44354248 493.36853027 261.52685547 493.71200562 C 272.97470093 495.44201660 282.21566772 496.44329834 288.93246460 497.72070312 C 295.64923096 498.99810791 299.84185791 500.55163574 301.19290161 503.38607788 C 302.54397583 506.22052002 301.05352783 510.33590698 296.40417480 516.73706055" stroke-width="2.00000000" fill="rgb(12, 166, 175)" opacity="1.0" stroke="rgb(255, 255, 247)" stroke-opacity="1.0" stroke-linecap="round" stroke-linejoin="round"/>
    <path d="M 458.42236328 408.21267700 C 453.89257812 408.15567017 451.26367188 408.11450195 448.43838501 408.08380127 C 445.61306763 408.05310059 442.59140015 408.03283691 437.27612305 408.01760864 C 434.15203857 407.95269775 431.38024902 407.82720947 428.07644653 407.73934937 C 424.77264404 407.65148926 420.93676758 407.60125732 415.68460083 407.68673706 C 412.80364990 407.84722900 409.27334595 407.90417480 405.58959961 407.95401001 C 401.90588379 408.00384521 398.06872559 408.04660034 394.57397461 408.17871094 C 391.45681763 407.59249878 387.47680664 407.96527100 384.24359131 408.05133057 C 381.01037598 408.13739014 378.52392578 407.93676758 378.39392090 406.20376587 C 379.37680054 402.52838135 378.65820312 398.29653931 378.96569824 395.38696289 C 379.27322388 392.47735596 380.60687256 390.89001465 385.69427490 392.50366211 C 391.77026367 393.00094604 394.64083862 393.01913452 396.80410767 392.92495728 C 398.96737671 392.83078003 400.42333984 392.62426758 403.67007446 392.67208862 C 408.44281006 392.49035645 411.82791138 392.42211914 414.84448242 392.45489502 C 417.86108398 392.48767090 420.50915527 392.62142944 423.80783081 392.84375000 C 428.51293945 392.67312622 432.04684448 392.74215698 435.31973267 392.78878784 C 438.59262085 392.83541870 441.60452271 392.85968018 445.26562500 392.59945679 C 450.77215576 393.09753418 454.28872681 392.52221680 456.87393188 392.23046875 C 459.45913696 391.93872070 461.11297607 391.93057251 462.89395142 393.56298828 C 462.26251221 396.75720215 463.09664917 400.86651611 463.11260986 403.95382690 C 463.12860107 407.04113770 462.32641602 409.10644531 458.42236328 408.21267700" stroke-width="0.00000000" fill="rgb(248, 217, 56)" opacity="1.0" stroke="rgb(255, 255, 164)" stroke-opacity="1.0" stroke-linecap="round" stroke-linejoin="round"/>
    <path d="M 437.03622437 149.27270508 C 437.45718384 150.18887329 437.48391724 150.81945801 437.43765259 151.63606262 C 437.39138794 152.45266724 437.27209473 153.45529175 437.40100098 155.11553955 C 437.37625122 156.34652710 437.44128418 157.48428345 437.50701904 158.66609192 C 437.57278442 159.84788513 437.63928223 161.07374573 437.61752319 162.48095703 C 437.43212891 163.31417847 437.44180298 164.51812744 437.52392578 165.76934814 C 437.60601807 167.02058411 437.76055908 168.31912231 437.86489868 169.34153748 C 438.09454346 171.12951660 437.86590576 172.03845215 437.21557617 172.41830444 C 436.56524658 172.79818726 435.49322510 172.64898682 434.03607178 172.32067871 C 433.02166748 172.29537964 432.00186157 172.52972412 430.91113281 172.66853333 C 429.82037354 172.80732727 428.65869141 172.85058594 427.36053467 172.44306946 C 426.81689453 170.97303772 426.63885498 170.28778076 426.63049316 169.65594482 C 426.62216187 169.02410889 426.78350830 168.44567871 426.91873169 167.18928528 C 426.84762573 165.38394165 426.80392456 164.33711243 426.76528931 163.34854126 C 426.72662354 162.35998535 426.69305420 161.42968750 426.64224243 159.85736084 C 426.69732666 158.59388733 426.71417236 157.72259521 426.69137573 156.68778992 C 426.66857910 155.65298462 426.60614014 154.45466614 426.50256348 152.53715515 C 426.24545288 151.05947876 426.35324097 150.10511780 426.88500977 149.56472778 C 427.41680908 149.02432251 428.37255859 148.89790344 429.81137085 149.07611084 C 431.73913574 149.08514404 432.76550293 148.95195007 433.69982910 148.90766907 C 434.63415527 148.86337280 435.47650146 148.90802002 437.03622437 149.27270508" stroke-width="0.22944528" fill="rgb(248, 253, 253)" opacity="1.0" stroke="rgb(202, 191, 186)" stroke-opacity="1.0" stroke-linecap="round" stroke-linejoin="round"/>
    <path d="M 409.80154419 164.88674927 C 409.72210693 167.83808899 409.82644653 167.82403564 409.74865723 170.70306396 C 409.09002686 172.67990112 406.65628052 172.12423706 404.50155640 172.14355469 C 402.17135620 172.71566772 400.96749878 172.19354248 401.53884888 169.06350708 C 401.53417969 167.24267578 401.71978760 164.90145874 401.77795410 162.80520630 C 401.57873535 160.18276978 401.89007568 158.98066711 401.34881592 156.52978516 C 401.37130737 154.25260925 401.40609741 153.39231873 401.43646240 151.64358521 C 402.32092285 149.04231262 403.68447876 148.42764282 406.29125977 148.81979370 C 409.21054077 149.56744385 409.94210815 149.37147522 409.80319214 152.33688354 C 409.77258301 153.85459900 409.66516113 155.92037964 409.83877563 158.34480286 C 409.82592773 160.97460938 409.69488525 162.33314514 409.80154419 164.88674927" stroke-width="0.60014319" fill="rgb(249, 252, 247)" opacity="1.0" stroke="rgb(198, 156, 154)" stroke-opacity="1.0" stroke-linecap="round" stroke-linejoin="round"/>
    <path d="M 44.29782104 47.90522766 C 43.95687866 47.33786011 43.84619141 47.10441589 43.62513733 46.47703552 C 43.62919617 46.02346802 43.51879883 45.39347839 43.62530518 44.96595764 C 44.08895874 44.67962646 44.74938965 44.77346802 45.23266602 44.79264832 C 46.02624512 44.98553467 46.29211426 45.33203125 46.73286438 45.58837891 C 47.38052368 45.77308655 47.72000122 46.32334900 47.86071777 46.74201965 C 48.19686890 47.75477600 47.96432495 47.78565979 48.57518005 48.04347229 C 49.49304199 48.12675476 49.41238403 48.99934387 48.87072754 49.41349792 C 48.17877197 49.93258667 47.79806519 49.52178955 47.19638062 49.38433838 C 46.65042114 49.41351318 46.35006714 49.34988403 45.87342834 48.87524414 C 45.30479431 48.61804199 45.15023804 48.63050842 44.29782104 47.90522766" stroke-width="0.00000000" fill="rgb(218, 220, 224)" opacity="1.0" stroke="rgb(240, 225, 180)" stroke-opacity="1.0" stroke-linecap="round" stroke-linejoin="round"/>
    <path d="M 197.25236511 59.93518066 C 197.27687073 59.95288086 197.32104492 59.98666382 197.36462402 60.00816345 C 197.39837646 60.03599548 197.45886230 60.05567932 197.46923828 60.08496094 C 197.46717834 60.12106323 197.44178772 60.14649963 197.40631104 60.19856262 C 197.37088013 60.23971558 197.35339355 60.27529907 197.31587219 60.30746460 C 197.26284790 60.32473755 197.20413208 60.30035400 197.18118286 60.28364563 C 197.10758972 60.21861267 197.12106323 60.23728943 197.08843994 60.20147705 C 197.05104065 60.17262268 197.00997925 60.10961914 197.00469971 60.07415771 C 196.98960876 59.99604797 196.98809814 59.98870850 197.00399780 59.93421936 C 197.01362610 59.89520264 197.06024170 59.85920715 197.10675049 59.86253357 C 197.15542603 59.85536194 197.18426514 59.89971924 197.25236511 59.93518066" stroke-width="1.95824635" fill="rgb(0, 39, 149)" opacity="1.0" stroke="rgb(2, 0, 14)" stroke-opacity="1.0" stroke-linecap="round" stroke-linejoin="round"/>
    <path d="M 351.49261475 71.77307129 C 351.49203491 71.77278137 351.49179077 71.77252197 351.49130249 71.77227783 C 351.49075317 71.77185059 351.49041748 71.77182007 351.49002075 71.77139282 C 351.48980713 71.77091980 351.49011230 71.77061462 351.49029541 71.77012634 C 351.49066162 71.76947021 351.49084473 71.76908875 351.49105835 71.76870728 C 351.49166870 71.76861572 351.49203491 71.76879883 351.49249268 71.76901245 C 351.49331665 71.76959229 351.49319458 71.76940918 351.49362183 71.76974487 C 351.49411011 71.77008057 351.49450684 71.77053833 351.49468994 71.77096558 C 351.49502563 71.77175903 351.49511719 71.77185059 351.49508667 71.77246094 C 351.49508667 71.77299500 351.49468994 71.77346802 351.49426270 71.77352905 C 351.49362183 71.77371216 351.49328613 71.77326965 351.49261475 71.77307129" stroke-width="0.00000000" fill="rgb(0, 0, 0)" opacity="1.0" stroke="rgb(81, 94, 133)" stroke-opacity="1.0" stroke-linecap="round" stroke-linejoin="round"/>
    <path d="M 143.94836426 82.70141602 C 144.17611694 82.84478760 144.96200562 83.14318848 145.57832336 83.38304138 C 146.24958801 83.51419067 147.04037476 83.46859741 146.73701477 84.28015137 C 146.37628174 85.14678955 146.64062500 85.14413452 147.27362061 86.02270508 C 147.69911194 86.74647522 148.06230164 87.18756104 147.98472595 87.84701538 C 147.24729919 88.11247253 146.26063538 87.76919556 146.03067017 87.50018311 C 144.87747192 86.74053955 145.05126953 86.78030396 144.44834900 86.46154785 C 143.63903809 86.52861023 143.07617188 86.34997559 142.43562317 85.89050293 C 141.63761902 85.29385376 141.96768188 85.03088379 141.61105347 84.32583618 C 141.36450195 83.60162354 141.27188110 82.82431030 141.70602417 82.47500610 C 142.24700928 81.94503784 142.84667969 82.45115662 143.94836426 82.70141602" stroke-width="0.00000000" fill="rgb(243, 245, 246)" opacity="1.0" stroke="rgb(201, 200, 187)" stroke-opacity="1.0" stroke-linecap="round" stroke-linejoin="round"/>
    <path d="M 399.93081665 25.39172363 C 400.17697144 25.57667542 400.28399658 25.72181702 400.51437378 25.86001587 C 400.75180054 26.11505127 400.90682983 26.13458252 401.18161011 26.27848816 C 401.30267334 26.43531799 401.13806152 26.64038086 401.05197144 26.92292786 C 400.93286133 27.21237183 400.88146973 27.48587036 400.77365112 27.62164307 C 400.51846313 27.58731079 400.19235229 27.46243286 400.06362915 27.34632874 C 399.64953613 27.01484680 399.75549316 27.12353516 399.52355957 26.92445374 C 399.27728271 26.72262573 399.04498291 26.53692627 398.94927979 26.38175964 C 398.80764771 26.04692078 398.74725342 25.82914734 398.74423218 25.58779907 C 398.73751831 25.33457947 398.92065430 25.08064270 399.16802979 25.05812073 C 399.44253540 24.98623657 399.65457153 25.24700928 399.93081665 25.39172363" stroke-width="1.76186848" fill="rgb(92, 110, 125)" opacity="1.0" stroke="rgb(31, 0, 0)" stroke-opacity="1.0" stroke-linecap="round" stroke-linejoin="round"/>
    <path d="M 200.53730774 63.31230164 C 199.94195557 62.78704834 199.85800171 62.55233765 199.26390076 62.12478638 C 198.67228699 61.72082520 197.98457336 61.77954102 197.77137756 61.50436401 C 197.84355164 61.10661316 197.76580811 60.58894348 197.65521240 59.83929443 C 197.66937256 59.11502075 197.68309021 58.47442627 197.97711182 58.15954590 C 198.70761108 58.00880432 199.39811707 58.35382080 199.65650940 58.64572144 C 200.52314758 59.53625488 200.34936523 59.43118286 200.84062195 59.77645874 C 201.63658142 59.92469788 202.12139893 60.15621948 202.57868958 60.79034424 C 202.98925781 61.48632812 202.91841125 61.49154663 202.98406982 62.45353699 C 202.99114990 63.29020691 202.74392700 63.76394653 202.31347656 63.99023438 C 201.47596741 64.29470825 201.06616211 63.70245361 200.53730774 63.31230164" stroke-width="0.00000000" fill="rgb(232, 235, 240)" opacity="1.0" stroke="rgb(174, 151, 108)" stroke-opacity="1.0" stroke-linecap="round" stroke-linejoin="round"/>
    <path d="M 351.94561768 73.76586914 C 351.33743286 73.45852661 350.96243286 73.18402100 350.50418091 72.91555786 C 349.78729248 72.47744751 349.20870972 72.38549805 349.22247314 71.78260803 C 349.24258423 71.26785278 348.94711304 70.81709290 348.63488770 70.20243835 C 348.36370850 69.62866211 348.02096558 69.08123779 348.26367188 68.54840088 C 348.97644043 68.26203918 349.74981689 68.44880676 349.99093628 68.68704224 C 350.91973877 69.42687988 350.72073364 69.18406677 351.18737793 69.70686340 C 351.66204834 70.26206970 352.12625122 70.77673340 352.42990112 71.10464478 C 353.07894897 71.89712524 353.18121338 71.87542725 353.68350220 72.48608398 C 354.22653198 73.24359131 354.23703003 73.76577759 353.79104614 74.04209900 C 353.06530762 74.34643555 352.47537231 73.92245483 351.94561768 73.76586914" stroke-width="0.00000000" fill="rgb(254, 253, 242)" opacity="1.0" stroke="rgb(239, 231, 219)" stroke-opacity="1.0" stroke-linecap="round" stroke-linejoin="round"/>
    <path d="M 398.18405151 25.48950195 C 397.56796265 25.06933594 397.67959595 25.02859497 396.90951538 24.60868835 C 396.41198730 24.36790466 396.00585938 24.18603516 395.31442261 23.90200806 C 394.94055176 23.51664734 395.42169189 23.29669189 395.68557739 22.75869751 C 396.20394897 22.11947632 396.30133057 21.75942993 396.65808105 21.37063599 C 397.33737183 21.44500732 397.59347534 21.66239929 398.07107544 22.01998901 C 398.86618042 22.76126099 398.70199585 22.51525879 399.19473267 22.96649170 C 399.85620117 23.47315979 400.17080688 23.70098877 400.44064331 24.12835693 C 400.73071289 24.90618896 400.74819946 25.31600952 400.74096680 25.78701782 C 400.70864868 26.43611145 400.29620361 26.96557617 399.80242920 26.65968323 C 399.14324951 26.43986511 398.75827026 25.81398010 398.18405151 25.48950195" stroke-width="0.00000000" fill="rgb(241, 244, 238)" opacity="1.0" stroke="rgb(204, 196, 165)" stroke-opacity="1.0" stroke-linecap="round" stroke-linejoin="round"/>
  </g>
</svg>
