<?xml version="1.0" ?>
<svg xmlns="http://www.w3.org/2000/svg" version="1.1" width="512" height="512" viewBox="0 0 512 512">
  <defs/>
  <g>
    <path d="M 568.29461670 399.61718750 C 550.55114746 408.90103149 532.80950928 418.13458252 515.03118896 427.27493286 C 497.16369629 436.33395386 479.15066528 445.15295410 461.05725098 453.53271484 C 442.62634277 461.55236816 423.95495605 468.87481689 405.01727295 475.43991089 C 385.75201416 481.23718262 366.09365845 486.03622437 346.16705322 489.85598755 C 325.92767334 492.52774048 305.42294312 494.05102539 284.67480469 494.43179321 C 263.87042236 493.52230835 242.95790100 491.41067505 222.10981750 487.97839355 C 201.45040894 483.40512085 181.10314941 477.46902466 161.15225220 470.30310059 C 141.70556641 461.87884521 122.99432373 452.17071533 104.91800690 441.21423340 C 87.73888397 429.04849243 71.42475891 415.61071777 56.08976364 400.92428589 C 41.82836914 385.09121704 28.59939194 368.04925537 16.54796219 349.86401367 C 5.53565073 330.64340210 -4.22654581 310.40792847 -12.81381321 289.33874512 C -20.32728004 267.50714111 -26.59602737 245.07986450 -31.77713394 222.29292297 C -35.75239563 199.26303101 -38.57743835 176.19166565 -40.22389221 153.39071655 C -40.62577438 131.06921387 -39.81082916 109.39991760 -37.74059677 88.78262329 C -34.26618576 69.30394745 -29.41927528 51.33138657 -23.03050804 34.92378235 C -15.10495758 20.40655708 -5.39853525 7.92757320 6.10165977 -2.40159082 C 19.39831924 -10.58848381 34.35474777 -16.78982735 50.80705643 -21.32002258 C 68.51097107 -24.47226906 87.34752655 -26.47492790 107.17815399 -27.61210823 C 127.93792725 -28.17349625 149.47671509 -28.27865028 171.59790039 -28.17409515 C 194.30274963 -27.94799042 217.54554749 -27.82653427 241.17274475 -27.82086182 C 265.05480957 -27.98681641 289.08270264 -28.26673508 313.16217041 -28.54600143 C 337.13238525 -28.82007027 360.86395264 -28.89345741 384.12075806 -28.58057022 C 406.81381226 -27.67532730 428.56271362 -25.85013962 449.30865479 -22.96096230 C 468.78558350 -18.64295959 486.68728638 -12.56044769 502.73162842 -4.48201895 C 516.79174805 5.91733646 528.68304443 18.68606186 538.60833740 33.62996674 C 546.73120117 50.62975693 553.22003174 69.32656097 558.25469971 89.59582520 C 562.01275635 111.17398071 564.66821289 133.92242432 566.34497070 157.63128662 C 567.27929688 182.03570557 567.64343262 206.97636414 567.56506348 232.38723755 C 567.07287598 258.15032959 566.33374023 284.11709595 565.54272461 310.16897583 C 564.63488770 336.21765137 563.69964600 362.31948853 568.29461670 399.61718750" stroke-width="2.00000000" fill="rgb(10, 26, 66)" opacity="1.0" stroke="rgb(7, 22, 68)" stroke-opacity="1.0" stroke-linecap="round" stroke-linejoin="round"/>
    <path d="M 41.29983902 54.54057312 C 41.28125000 54.53344727 41.29582214 54.51913834 41.28610229 54.54439545 C 41.29399490 54.52249146 41.29275513 54.53063965 41.26064682 54.52839279 C 41.31189728 54.53835678 41.28367996 54.51397324 41.29956818 54.55492401 C 41.26020432 54.51283264 41.33657074 54.53079605 41.23972702 54.53609467 C 41.30635452 54.54079819 41.30570602 54.48740768 41.25812149 54.58074188 C 41.32348633 54.50775909 41.28268051 54.54196930 41.25611496 54.52030563 C 41.34347534 54.54732513 41.26044083 54.51651001 41.30001068 54.55665970 C 41.29005051 54.49881744 41.28498459 54.56637573 41.28814697 54.52116776 C 41.30831528 54.52263260 41.25589371 54.55297470 41.31192780 54.54113388 C 41.29270172 54.48798370 41.28629303 54.57654953 41.29983902 54.54057312" stroke-width="0.00000000" fill="rgb(255, 255, 243)" opacity="1.0" stroke="rgb(49, 0, 0)" stroke-opacity="1.0" stroke-linecap="round" stroke-linejoin="round"/>
    <path d="M 141.92575073 84.62760925 C 142.38481140 84.49532318 142.86961365 84.30509949 143.22586060 84.17518616 C 143.55783081 84.00303650 143.84526062 83.90699768 144.19940186 83.77684784 C 144.53524780 83.68580627 144.77830505 83.68489075 144.99118042 83.73849487 C 145.24884033 83.93728638 145.49076843 84.06135559 145.73097229 84.17582703 C 145.88993835 84.34934998 146.03739929 84.63257599 146.15695190 84.83808136 C 146.11997986 85.16792297 146.14016724 85.44125366 146.03604126 85.76448059 C 145.95401001 86.07418823 145.89447021 86.29040527 145.77980042 86.45169830 C 145.61007690 86.61180878 145.37396240 86.68571472 145.10946655 86.66263580 C 144.76091003 86.56943512 144.45887756 86.51905823 144.13121033 86.37622070 C 143.76391602 86.37391663 143.43820190 86.27886963 141.92575073 84.62760925" stroke-width="2.00000000" fill="rgb(255, 255, 255)" opacity="1.0" stroke="rgb(10, 0, 0)" stroke-opacity="0.5565634" stroke-linecap="round" stroke-linejoin="round"/>
    <path d="M 342.85192871 67.30461121 C 342.84301758 67.25261688 342.87789917 67.27446747 342.85919189 67.33747101 C 342.88397217 67.29660034 342.89355469 67.31889343 342.90359497 67.36656952 C 342.88665771 67.32362366 342.93429565 67.35883331 342.90869141 67.37218475 C 342.91027832 67.36476135 342.94836426 67.39256287 342.91940308 67.38671112 C 342.92639160 67.38846588 342.92279053 67.38343048 342.94619751 67.41903687 C 342.90283203 67.34259796 342.95114136 67.43909454 342.87356567 67.37659454 C 342.94543457 67.40738678 342.86563110 67.38175964 342.89343262 67.42044830 C 342.87869263 67.36547089 342.87487793 67.42625427 342.83184814 67.34351349 C 342.85586548 67.43434906 342.83352661 67.37153625 342.82516479 67.38406372 C 342.82064819 67.39945221 342.80087280 67.36191559 342.85192871 67.30461121" stroke-width="0.18947029" fill="rgb(11, 31, 87)" opacity="1.0" stroke="rgb(13, 112, 190)" stroke-opacity="0.042348128" stroke-linecap="round" stroke-linejoin="round"/>
    <path d="M 203.88372803 55.24925613 C 203.83610535 55.27953339 203.88046265 55.23902130 203.82957458 55.27711868 C 203.84347534 55.24687195 203.86082458 55.27716446 203.81288147 55.22100067 C 203.84133911 55.31189346 203.83557129 55.24328613 203.80206299 55.25381088 C 203.83171082 55.27891541 203.79771423 55.27106094 203.80850220 55.23041534 C 203.81207275 55.29738617 203.75744629 55.26062393 203.80749512 55.27809525 C 203.79998779 55.29527664 203.75851440 55.28182983 203.77214050 55.28826523 C 203.78323364 55.28967667 203.75416565 55.31438828 203.77218628 55.29077911 C 203.75857544 55.30064011 203.76072693 55.30552673 203.75198364 55.31681824 C 203.75250244 55.27526474 203.76673889 55.34616470 203.74961853 55.32488251 C 203.72193909 55.29706573 203.77879333 55.35697174 203.88372803 55.24925613" stroke-width="1.77371585" fill="rgb(76, 11, 44)" opacity="1.0" stroke="rgb(5, 20, 61)" stroke-opacity="0.3330657" stroke-linecap="round" stroke-linejoin="round"/>
    <path d="M 400.04891968 25.17582321 C 400.09350586 25.17740822 400.07672119 25.15110779 400.09637451 25.19458961 C 400.15573120 25.19183922 400.13198853 25.17587471 400.14849854 25.22243309 C 400.18676758 25.19188309 400.15838623 25.19523239 400.17074585 25.21947861 C 400.14804077 25.21016121 400.15957642 25.20648384 400.13140869 25.21289444 C 400.15142822 25.24815369 400.09020996 25.17333412 400.11315918 25.24127579 C 400.11019897 25.20928764 400.10437012 25.21427917 400.11560059 25.21401787 C 400.13772583 25.22492027 400.09362793 25.20916748 400.15612793 25.19502640 C 400.14694214 25.19713402 400.10440063 25.20787430 400.12228394 25.17559624 C 400.10140991 25.19483566 400.09097290 25.19309425 400.09185791 25.15366554 C 400.06680298 25.17683792 400.07125854 25.13559151 400.04891968 25.17582321" stroke-width="0.42139125" fill="rgb(7, 12, 0)" opacity="1.0" stroke="rgb(200, 207, 255)" stroke-opacity="0.9137641" stroke-linecap="round" stroke-linejoin="round"/>
    <path d="M 594.29510498 404.04049683 C 583.17169189 415.16189575 572.05541992 426.20544434 560.91455078 437.23947144 C 549.66625977 448.05554199 538.24163818 458.71429443 526.61694336 468.91583252 C 514.61053467 478.65731812 502.28295898 487.76605225 489.43798828 496.18823242 C 476.11495972 503.81134033 462.23013306 510.64007568 447.69381714 516.63311768 C 432.50326538 521.82409668 416.78332520 526.08160400 400.33087158 529.65771484 C 383.37448120 532.45245361 365.81628418 534.68701172 347.74481201 536.39593506 C 329.19061279 537.78137207 310.16433716 538.72906494 290.93630981 539.46240234 C 271.37609863 539.97796631 251.57272339 540.33843994 231.64024353 540.52221680 C 211.68188477 540.64648438 191.65646362 540.55401611 171.78129578 540.23803711 C 152.06309509 539.58422852 132.60968018 538.54339600 113.49014282 536.88000488 C 94.87756348 534.49664307 76.82403564 531.22308350 59.67488098 526.93206787 C 43.21645355 521.37457275 27.94082451 514.37365723 13.89018440 505.75558472 C 1.32045066 495.45040894 -9.72736835 483.36071777 -19.16498566 469.59674072 C -27.12958527 454.30828857 -33.70614624 437.94775391 -38.90151596 420.68545532 C -42.74655151 402.87115479 -45.43094635 384.83322144 -46.80800247 366.86038208 C -46.96092987 349.20523071 -45.86202621 332.23480225 -43.38840103 316.37033081 C -39.58351135 301.90930176 -34.42406082 289.04916382 -27.75697517 277.97155762 C -19.60975266 268.89050293 -9.82586002 262.39254761 1.71754789 258.61981201 C 15.15232372 257.82702637 30.13375473 258.07464600 46.45264816 258.26513672 C 63.84376144 258.22143555 82.03220367 258.13885498 100.86985016 258.10696411 C 120.19462585 258.03634644 139.81176758 258.09997559 159.74490356 258.15701294 C 179.74667358 258.07608032 199.72798157 258.08001709 219.78068542 258.10665894 C 239.76109314 258.16979980 259.69418335 258.06137085 279.61401367 258.10577393 C 299.42712402 258.14047241 319.15228271 258.16156006 338.81939697 258.17156982 C 358.30410767 258.15103149 377.63107300 258.15097046 396.67935181 258.16046143 C 415.35894775 258.17962646 433.60263062 258.29748535 451.33804321 258.40502930 C 468.39724731 258.26547241 484.69998169 258.08749390 500.06951904 257.98706055 C 514.55535889 258.60977173 528.07043457 260.98992920 540.85272217 264.95596313 C 553.04833984 270.42440796 564.81860352 276.59835815 576.43719482 283.26855469 C 587.89788818 290.17648315 599.34149170 297.23706055 594.29510498 404.04049683" stroke-width="1.45465803" fill="rgb(14, 116, 206)" opacity="1.0" stroke="rgb(36, 127, 210)" stroke-opacity="0.88212436" stroke-linecap="round" stroke-linejoin="round"/>
    <path d="M 420.76818848 476.25445557 C 402.11877441 477.12332153 383.60537720 478.00543213 365.19766235 478.93508911 C 347.00421143 479.73614502 329.30886841 480.53881836 312.48471069 481.45037842 C 296.75225830 482.13604736 282.27795410 479.94226074 268.30981445 475.67010498 C 254.22970581 473.26419067 240.11695862 473.99746704 225.97309875 477.74160767 C 211.55708313 481.85000610 196.60545349 482.92703247 181.23863220 479.75170898 C 165.33119202 474.83447266 148.71144104 472.87750244 131.71134949 475.19732666 C 114.57143402 480.14221191 97.50855255 482.92977905 80.51457977 480.99038696 C 63.72867584 476.24179077 47.64998627 473.41738892 33.05705643 474.22579956 C 20.86849213 476.57028198 12.48378372 477.67956543 9.27786160 476.28118896 C 12.46809578 473.64511108 21.05708122 471.41781616 33.60108566 469.79843140 C 48.28883362 469.42059326 64.05733490 472.47860718 80.59934235 476.99172974 C 97.27803040 478.97247314 113.92795563 476.29644775 130.37327576 471.20974731 C 146.89575195 468.72122192 162.90472412 470.44473267 178.19006348 475.11486816 C 192.90344238 478.58557129 207.16528320 478.49273682 220.82130432 474.95971680 C 234.31092834 470.85580444 247.59930420 469.14602661 260.74777222 470.18850708 C 273.39706421 473.18807983 285.92919922 476.64831543 299.11788940 477.73333740 C 313.62948608 476.59365845 329.19000244 475.03344727 345.57299805 473.30593872 C 362.60501099 471.51162720 379.98840332 469.71957397 397.59506226 467.75241089 C 415.32800293 465.69790649 433.15570068 463.55004883 451.06442261 461.34130859 C 468.87655640 459.06402588 486.62496948 456.76123047 420.76818848 476.25445557" stroke-width="1.83352101" fill="rgb(203, 243, 244)" opacity="1.0" stroke="rgb(51, 116, 22)" stroke-opacity="0.2335315" stroke-linecap="round" stroke-linejoin="round"/>
    <path d="M 408.69912720 508.77490234 C 398.78890991 505.91516113 388.87820435 503.20718384 379.09594727 500.82296753 C 369.47113037 499.07977295 360.13388062 498.02246094 351.08026123 497.59207153 C 342.33020020 497.79885864 333.80252075 498.56060791 325.27172852 499.77612305 C 316.67343140 501.15115356 307.82394409 502.50299072 298.73712158 503.78170776 C 289.34249878 504.95855713 279.73336792 505.97628784 269.78311157 506.85461426 C 259.52343750 507.72586060 249.10719299 508.36801147 238.54617310 509.09814453 C 227.79789734 509.81881714 216.70384216 510.69918823 205.32760620 511.71054077 C 193.69667053 512.96234131 181.80400085 514.12976074 169.79994202 515.43493652 C 157.50450134 516.61474609 144.87217712 517.80895996 131.91549683 518.75769043 C 118.66647339 519.49383545 105.13943481 519.70733643 91.57106781 519.35821533 C 78.03826904 518.49664307 64.82091522 517.20745850 52.10023499 515.62829590 C 40.12011337 513.61853027 29.20699692 511.27233887 19.62476349 508.82339478 C 11.61360455 506.15057373 5.58521986 503.42611694 1.67112386 500.79443359 C 0.17649949 498.41836548 1.25884247 496.43948364 4.97408819 494.77203369 C 10.89229488 492.96255493 18.58542442 490.98071289 27.72900963 489.22906494 C 38.02457428 488.18795776 48.96471786 488.54818726 60.25375748 490.49868774 C 71.54597473 493.42218018 82.93624115 495.40844727 94.59056854 495.67694092 C 106.08029175 494.81985474 117.09384155 492.86169434 127.65785980 490.37783813 C 137.94573975 488.61264038 147.99583435 488.23211670 157.86065674 489.03494263 C 167.47084045 490.86297607 177.14973450 492.96252441 187.00669861 494.81414795 C 196.99002075 495.81597900 207.04930115 495.59552002 217.24784851 493.94509888 C 227.75933838 491.38061523 238.51484680 489.32568359 249.51058960 488.56152344 C 260.54067993 488.76858521 271.52166748 490.62561035 282.51519775 493.50183105 C 293.67892456 495.51205444 304.89273071 495.79974365 316.32516479 495.21463013 C 327.75952148 494.22076416 339.20050049 492.84970093 350.22921753 491.44897461 C 360.94503784 490.22235107 371.33132935 489.27474976 381.30590820 488.74536133 C 391.05865479 488.63088989 400.35266113 488.91003418 409.24243164 489.63296509 C 417.81356812 490.84136963 426.25576782 492.44482422 434.39163208 494.60092163 C 442.31695557 497.16378784 450.06445312 500.00509644 457.71029663 503.02587891 C 465.41586304 505.98562622 473.09924316 508.91632080 408.69912720 508.77490234" stroke-width="0.82729828" fill="rgb(206, 247, 248)" opacity="1.0" stroke="rgb(176, 255, 200)" stroke-opacity="0.4660372" stroke-linecap="round" stroke-linejoin="round"/>
    <path d="M 516.22766113 513.50219727 C 508.97888184 513.79998779 501.76849365 513.93981934 494.51519775 514.17504883 C 487.18338013 514.41253662 479.93518066 514.69177246 472.51715088 515.01324463 C 465.13107300 515.44384766 457.51943970 515.83715820 449.85574341 516.38726807 C 442.04824829 517.02178955 434.07934570 517.78729248 425.95187378 518.53295898 C 417.70684814 519.36456299 409.36059570 520.32513428 400.88830566 521.25482178 C 392.20690918 522.16778564 383.47311401 523.03851318 374.64569092 523.76129150 C 365.98669434 524.46643066 357.53704834 525.02117920 349.26086426 525.37359619 C 341.12786865 525.42321777 333.37432861 525.18469238 326.16442871 524.57379150 C 319.60684204 523.66845703 313.89111328 522.36602783 309.10543823 520.53039551 C 305.31518555 518.23345947 302.66601562 515.41052246 301.29913330 512.16857910 C 301.53570557 508.35543823 303.07623291 504.01541138 305.37319946 499.00701904 C 307.73114014 493.17678833 310.05596924 486.54794312 312.56085205 479.29547119 C 315.18371582 471.53808594 317.98654175 463.36798096 320.75640869 454.86068726 C 323.54727173 446.18218994 326.51168823 437.57565308 329.55139160 429.05786133 C 332.42205811 420.62680054 335.29772949 412.43295288 337.95745850 404.71435547 C 340.26367188 397.48178101 342.54647827 390.78067017 344.84503174 384.88711548 C 347.40930176 379.96600342 350.40447998 376.24310303 353.64712524 373.44464111 C 356.85375977 371.57107544 360.14129639 370.95394897 363.66073608 372.08303833 C 367.56936646 374.64691162 372.39392090 377.26892090 378.53430176 379.19253540 C 385.96463013 380.40206909 394.25393677 381.20352173 403.19653320 381.58670044 C 412.59423828 381.74322510 422.20831299 381.69998169 431.78720093 381.42242432 C 441.06152344 381.13385010 449.84805298 380.90808105 457.86566162 380.70837402 C 465.00833130 380.63049316 470.96136475 381.60494995 475.72485352 384.54937744 C 479.83065796 388.65402222 483.90594482 392.36883545 488.49786377 394.53521729 C 493.32666016 394.60775757 498.08261108 393.42016602 502.45385742 392.60339355 C 506.17123413 393.60092163 509.01733398 396.70703125 511.36489868 401.55364990 C 513.28167725 407.92773438 514.80297852 415.44961548 516.03131104 424.06268311 C 517.05212402 433.41741943 517.73205566 443.34164429 518.32501221 453.62368774 C 518.77111816 464.36712646 519.11468506 475.17031860 519.37268066 486.06036377 C 519.69006348 496.95355225 519.96447754 507.92617798 516.22766113 513.50219727" stroke-width="1.28994453" fill="rgb(132, 67, 31)" opacity="1.0" stroke="rgb(93, 79, 81)" stroke-opacity="0.7233029" stroke-linecap="round" stroke-linejoin="round"/>
    <path d="M 444.72817993 407.23953247 C 438.14062500 407.18460083 431.59671021 407.21725464 425.06945801 407.10992432 C 418.65820312 406.94430542 412.49676514 406.56280518 406.55593872 405.98693848 C 400.90167236 405.05114746 395.73138428 403.80978394 391.27468872 402.20870972 C 387.43560791 400.13018799 384.56079102 397.51766968 382.65454102 394.29620361 C 381.96792603 390.58007812 382.16693115 386.17605591 382.33526611 381.18383789 C 382.32037354 375.61495972 382.40240479 369.69009399 382.30264282 363.32510376 C 382.41708374 356.74197388 382.49801636 349.88406372 382.38040161 342.85287476 C 382.41259766 335.66717529 382.39035034 328.37789917 382.35083008 321.11538696 C 382.47760010 313.70050049 382.38195801 306.34545898 382.26361084 298.99676514 C 382.39718628 291.66488647 382.38439941 284.29299927 382.28750610 276.98861694 C 382.35961914 269.67846680 382.31256104 262.43869019 382.24789429 255.29547119 C 382.28167725 248.19218445 382.13381958 241.26069641 382.09713745 234.43463135 C 382.17193604 227.78912354 382.16131592 221.43534851 381.98046875 215.43318176 C 381.77587891 209.73260498 381.80197144 204.71911621 382.46649170 200.22460938 C 384.72982788 196.48463440 388.14978027 193.19992065 392.53598022 190.47151184 C 397.59539795 188.27632141 403.40426636 186.58915710 409.57937622 185.41659546 C 416.05752563 184.86795044 422.63000488 184.86923218 429.24017334 185.31478882 C 435.60977173 186.41412354 441.46008301 188.02139282 446.79849243 190.17169189 C 451.42184448 192.75534058 455.01104736 195.85069275 457.48583984 199.24644470 C 458.50607300 203.14688110 458.54971313 207.57411194 458.25097656 212.43287659 C 458.35861206 217.85060120 458.37658691 223.65264893 458.45645142 229.72810364 C 458.37750244 236.13494873 458.24569702 242.70654297 458.16903687 249.40007019 C 458.57653809 256.22372437 458.70364380 263.12353516 458.63778687 270.10794067 C 458.62606812 277.01779175 458.56857300 283.98034668 458.70944214 290.80395508 C 458.79980469 297.63247681 458.64907837 304.34991455 458.59722900 311.03344727 C 458.72845459 317.63101196 458.67288208 324.20083618 458.59262085 330.75509644 C 458.56323242 337.21817017 458.50073242 343.75411987 458.68655396 350.21228027 C 458.67074585 356.67559814 458.68814087 363.10876465 458.74163818 369.64926147 C 458.74099731 376.06167603 458.83499146 382.49313354 458.89706421 388.93420410 C 458.76565552 395.41799927 458.67117310 401.72042847 444.72817993 407.23953247" stroke-width="0.88321036" fill="rgb(250, 254, 250)" opacity="1.0" stroke="rgb(83, 96, 115)" stroke-opacity="0.59722924" stroke-linecap="round" stroke-linejoin="round"/>
    <path d="M 456.21347046 198.43182373 C 453.00643921 198.37257385 449.62149048 198.34991455 446.28045654 198.26815796 C 442.81878662 198.40406799 439.21234131 198.53276062 435.50012207 198.37307739 C 431.66876221 198.37591553 427.70846558 198.46618652 423.60195923 198.53782654 C 419.41140747 198.51831055 415.15307617 198.48902893 411.02490234 198.49293518 C 406.80883789 198.41546631 402.76037598 198.49993896 398.84533691 198.53865051 C 395.17239380 198.55416870 391.88958740 198.44763184 389.16375732 198.40066528 C 386.84619141 198.66073608 385.12518311 198.54994202 384.13543701 197.84338379 C 383.96575928 196.24119568 384.01705933 193.86032104 384.12365723 190.90861511 C 384.16006470 187.55229187 384.19436646 184.01086426 384.16052246 180.65324402 C 384.04638672 177.69309998 383.98544312 175.10443115 384.12399292 173.20234680 C 384.95547485 172.16242981 386.45870972 171.80888367 388.64816284 171.93363953 C 391.43661499 172.04199219 394.71713257 172.11135864 398.51898193 172.20864868 C 402.63119507 172.28790283 406.96026611 172.27366638 411.49673462 172.27351379 C 416.23806763 172.25126648 420.97247314 172.16923523 425.73773193 172.13832092 C 430.34808350 172.14562988 434.75936890 172.17098999 438.94934082 172.14993286 C 442.85443115 172.10043335 446.37240601 172.05715942 449.47421265 172.07090759 C 451.98590088 172.01066589 454.03433228 172.06848145 455.41204834 172.21488953 C 456.18774414 172.84576416 456.33554077 173.87889099 456.31076050 175.23263550 C 456.26943970 176.76538086 456.29666138 178.57513428 456.21929932 180.48739624 C 456.14447021 182.37934875 455.99487305 184.20820618 456.21347046 198.43182373" stroke-width="0.95861644" fill="rgb(243, 72, 70)" opacity="1.0" stroke="rgb(121, 18, 23)" stroke-opacity="0.8079764" stroke-linecap="round" stroke-linejoin="round"/>
    <path d="M 437.85339355 144.89416504 C 437.79486084 147.03468323 437.64559937 149.17323303 437.34878540 151.27883911 C 437.00189209 153.38375854 436.60250854 155.52044678 436.03890991 157.49572754 C 435.43725586 159.44764709 434.74734497 161.44685364 433.93975830 163.24420166 C 433.01290894 165.02548218 431.94793701 166.76757812 430.76345825 168.29304504 C 429.47338867 169.69320679 428.05706787 171.05981445 426.57754517 172.15487671 C 424.98104858 173.05903625 423.25744629 173.78555298 421.49832153 174.26171875 C 419.74703979 174.47831726 417.91586304 174.57086182 416.07876587 174.33009338 C 414.31753540 173.86901855 412.58041382 173.20385742 410.98666382 172.29232788 C 409.40881348 171.08396912 408.05767822 169.74569702 406.67633057 168.21109009 C 405.51321411 166.53273010 404.44271851 164.58842468 403.55764771 162.60336304 C 402.74359131 160.51832581 402.15695190 158.40946960 401.56631470 156.19512939 C 401.16027832 154.06414795 400.94351196 151.93772888 400.82040405 149.95431519 C 400.72265625 148.05558777 400.70758057 146.48214722 400.84008789 145.09927368 C 401.21661377 144.09494019 402.07879639 143.38920593 403.24996948 142.93298340 C 404.61071777 142.41432190 406.05593872 141.85180664 407.50106812 141.03111267 C 408.86697388 139.86624146 410.34756470 138.73576355 412.04968262 137.90385437 C 413.88439941 137.28979492 415.78701782 136.91639709 417.81579590 136.82318115 C 419.91348267 136.98748779 422.00628662 137.33190918 424.00531006 137.96861267 C 425.89312744 138.81893921 427.75671387 139.91761780 429.49670410 141.03068542 C 431.32415771 142.01614380 433.34426880 142.67805481 437.85339355 144.89416504" stroke-width="0.68648428" fill="rgb(236, 75, 81)" opacity="1.0" stroke="rgb(255, 56, 5)" stroke-opacity="0.27535808" stroke-linecap="round" stroke-linejoin="round"/>
    <path d="M 469.49511719 59.24197769 C 468.29281616 62.73344421 466.72006226 66.17032623 464.90151978 69.72022247 C 463.18090820 73.49835205 461.28741455 77.53079987 459.09936523 81.73934174 C 456.81021118 86.24687958 454.37075806 91.05204773 451.86550903 96.27633667 C 449.17468262 101.72056580 446.49850464 107.22035980 443.66537476 112.89973450 C 440.83123779 118.42953491 438.02056885 123.72676849 435.52954102 128.69024658 C 433.53689575 133.20875549 431.70932007 136.76464844 429.44943237 139.08477783 C 426.31347656 139.68444824 422.71200562 139.43045044 418.97433472 139.28475952 C 415.12478638 139.31993103 411.56716919 139.26956177 408.75946045 138.54499817 C 406.82962036 136.39370728 405.45532227 133.02528381 403.78231812 129.01914978 C 401.82440186 124.44574738 399.34762573 119.54753876 396.69784546 114.28307343 C 394.02221680 108.61545563 391.23977661 102.72650909 388.53503418 96.82434082 C 385.68493652 90.92900848 383.00735474 85.12453461 380.31979370 79.67460632 C 377.81192017 74.67397308 375.72183228 70.07302094 374.01080322 66.04259491 C 372.52359009 62.95229340 371.58676147 60.75654221 371.50961304 59.50257111 C 372.57470703 59.19502640 374.65939331 59.20716095 377.73959351 59.36792755 C 381.64141846 59.44030380 386.15255737 59.31592560 391.14331055 59.29047775 C 396.58279419 59.28382492 402.41546631 59.31910324 408.58605957 59.31479263 C 415.02041626 59.22562027 421.56573486 59.25148392 428.13644409 59.33241272 C 434.87731934 59.32677460 441.59716797 59.29747009 448.37564087 59.26319504 C 455.19311523 59.38118744 461.88922119 59.41693115 469.49511719 59.24197769" stroke-width="1.91603434" fill="rgb(244, 180, 50)" opacity="1.0" stroke="rgb(58, 14, 0)" stroke-opacity="0.43850285" stroke-linecap="round" stroke-linejoin="round"/>
    <path d="M 406.64410400 257.32742310 C 405.62091064 257.38943481 404.71246338 257.47387695 403.78567505 257.43972778 C 402.92468262 257.43762207 402.12774658 257.41232300 401.48794556 257.32595825 C 400.87442017 257.29525757 400.50036621 257.05923462 400.26348877 256.60531616 C 400.21609497 255.99142456 400.15878296 255.14793396 400.21429443 254.15049744 C 400.23956299 253.06196594 400.24935913 251.82273865 400.21054077 250.48982239 C 400.26443481 249.12857056 400.21347046 247.66723633 400.18859863 246.20181274 C 400.15676880 244.79756165 400.13293457 243.33007812 400.08145142 242.05696106 C 400.07778931 240.79278564 400.10110474 239.66658020 400.10977173 238.68687439 C 400.21243286 237.84741211 400.46954346 237.26371765 400.93463135 236.91665649 C 401.61785889 236.74105835 402.46438599 236.70379639 403.50482178 236.77165222 C 404.58905029 236.79882812 405.80914307 236.83657837 407.03381348 236.87553406 C 408.15820312 236.77748108 409.36816406 236.72659302 410.33511353 236.74055481 C 411.16641235 236.71098328 411.83798218 236.75834656 412.31243896 236.99757385 C 412.46649170 237.48342896 412.47973633 238.16615295 412.37966919 239.06335449 C 412.28738403 240.08064270 412.28320312 241.23449707 412.29495239 242.42880249 C 412.34844971 243.73580933 412.34069824 245.03279114 412.32058716 246.33174133 C 412.29208374 247.67738342 412.28836060 248.91247559 412.28347778 250.17259216 C 412.34613037 251.40946960 412.38122559 252.48567200 412.35180664 253.62155151 C 412.29409790 254.64163208 412.30325317 255.54457092 412.29315186 256.46755981 C 412.34664917 257.35052490 412.47088623 258.15087891 406.64410400 257.32742310" stroke-width="0.97767472" fill="rgb(74, 198, 240)" opacity="1.0" stroke="rgb(136, 214, 233)" stroke-opacity="0.75754327" stroke-linecap="round" stroke-linejoin="round"/>
    <path d="M 436.59814453 257.81698608 C 436.22116089 257.90042114 435.81600952 257.90139771 435.30755615 257.89910889 C 434.81784058 257.82345581 434.21163940 257.74966431 433.61047363 257.75436401 C 432.85104370 257.70455933 432.05969238 257.76593018 431.26510620 257.66473389 C 430.33816528 257.67965698 429.41372681 257.63992310 428.51983643 257.63012695 C 427.60534668 257.64111328 426.76101685 257.67837524 426.01583862 257.58596802 C 425.38464355 257.51431274 424.97027588 257.24157715 424.70687866 256.73461914 C 424.58813477 255.98779297 424.61911011 255.04380798 424.64404297 253.91241455 C 424.62805176 252.65574646 424.69506836 251.32141113 424.67993164 249.82603455 C 424.66824341 248.32240295 424.73135376 246.85142517 424.75424194 245.27801514 C 424.75479126 243.86512756 424.77108765 242.46850586 424.67648315 241.08850098 C 424.62438965 239.99705505 424.61639404 238.92378235 424.73141479 238.16436768 C 424.82446289 237.51026917 425.18914795 237.21896362 425.76156616 237.08543396 C 426.44711304 237.18258667 427.33953857 237.24803162 428.36965942 237.43191528 C 429.50463867 237.44515991 430.65481567 237.50762939 431.87634277 237.43652344 C 433.03097534 237.48860168 434.11312866 237.37670898 435.07324219 237.34628296 C 435.87884521 237.28840637 436.52841187 237.32241821 436.94549561 237.61592102 C 437.19570923 238.11943054 437.21887207 238.87783813 437.26089478 239.77725220 C 437.21386719 240.79614258 437.25085449 242.00737000 437.21987915 243.24551392 C 437.05874634 244.52235413 436.94238281 245.93391418 436.85778809 247.23445129 C 436.84710693 248.62225342 436.93341064 249.96125793 436.59814453 257.81698608" stroke-width="0.99134916" fill="rgb(80, 197, 233)" opacity="1.0" stroke="rgb(139, 219, 231)" stroke-opacity="0.6985499" stroke-linecap="round" stroke-linejoin="round"/>
    <path d="M 400.55761719 310.31134033 C 400.53115845 309.38870239 400.47177124 308.47274780 400.50161743 307.58013916 C 400.46334839 306.55725098 400.42572021 305.52792358 400.39895630 304.46777344 C 400.45639038 303.39016724 400.52676392 302.18457031 400.50668335 301.02859497 C 400.58715820 299.79193115 400.64550781 298.56246948 400.61074829 297.28973389 C 400.53530884 296.08062744 400.52667236 294.92428589 400.52801514 293.78302002 C 400.53067017 292.77468872 400.50000000 291.90646362 400.45272827 291.17703247 C 400.68524170 290.77130127 401.10009766 290.54931641 401.74700928 290.39904785 C 402.51550293 290.45455933 403.47180176 290.45950317 404.56594849 290.45974731 C 405.63037109 290.45916748 406.78860474 290.41873169 407.91702271 290.52124023 C 409.05407715 290.51400757 410.07785034 290.51794434 410.90057373 290.54638672 C 411.64202881 290.64770508 412.14926147 290.97250366 412.47207642 291.39538574 C 412.59286499 292.15725708 412.62973022 293.01846313 412.46453857 294.02832031 C 412.48254395 295.24221802 412.50158691 296.49395752 412.51394653 297.83120728 C 412.59802246 299.19091797 412.58895874 300.60614014 412.54718018 301.93164062 C 412.52041626 303.32928467 412.52786255 304.60226440 412.52233887 305.82177734 C 412.45944214 306.90881348 412.50219727 307.97259521 412.47552490 308.76235962 C 412.54144287 309.41912842 412.52346802 309.98623657 412.31842041 310.32940674 C 411.91213989 310.47274780 411.40942383 310.55673218 410.72280884 310.53948975 C 410.02636719 310.51394653 409.20904541 310.48992920 408.44824219 310.44216919 C 407.55621338 310.46160889 406.74954224 310.44757080 400.55761719 310.31134033" stroke-width="0.90116537" fill="rgb(71, 196, 237)" opacity="1.0" stroke="rgb(107, 198, 219)" stroke-opacity="0.86636615" stroke-linecap="round" stroke-linejoin="round"/>
    <path d="M 436.57559204 290.54354858 C 436.61361694 291.50524902 436.73605347 292.40890503 436.72161865 293.37939453 C 436.73657227 294.33514404 436.61056519 295.37319946 436.56768799 296.43780518 C 436.50799561 297.57666016 436.59991455 298.73144531 436.62396240 299.91241455 C 436.67782593 301.19009399 436.67498779 302.51174927 436.66116333 303.76184082 C 436.67614746 305.01892090 436.75674438 306.24353027 436.66796875 307.32043457 C 436.70419312 308.41189575 436.69155884 309.32601929 436.64791870 310.00631714 C 436.58175659 310.55548096 436.22470093 310.77786255 435.64416504 310.90768433 C 434.89379883 310.92907715 433.92990112 310.92028809 432.97689819 310.84097290 C 431.80526733 310.74343872 430.66870117 310.76504517 429.51574707 310.75045776 C 428.36145020 310.67797852 427.35266113 310.69427490 426.39422607 310.73153687 C 425.58422852 310.65267944 424.99404907 310.54608154 424.63684082 310.18502808 C 424.44259644 309.49484253 424.43679810 308.69842529 424.44284058 307.69897461 C 424.49688721 306.49972534 424.53530884 305.23092651 424.55529785 303.85815430 C 424.61260986 302.44744873 424.60723877 300.97763062 424.66006470 299.54165649 C 424.61395264 298.11239624 424.54711914 296.75900269 424.54623413 295.48861694 C 424.54156494 294.27319336 424.59350586 293.20538330 424.68612671 292.29650879 C 424.75915527 291.57748413 424.85256958 290.96975708 425.21752930 290.66772461 C 425.62988281 290.43222046 426.19589233 290.38619995 426.81503296 290.44342041 C 427.58578491 290.46438599 428.32138062 290.47137451 429.11770630 290.43051147 C 429.90701294 290.48748779 430.72433472 290.47311401 436.57559204 290.54354858" stroke-width="0.92975873" fill="rgb(74, 195, 233)" opacity="1.0" stroke="rgb(114, 204, 223)" stroke-opacity="0.79007167" stroke-linecap="round" stroke-linejoin="round"/>
    <path d="M 406.53009033 362.59661865 C 405.44546509 362.76937866 404.39266968 362.85433960 403.34069824 362.84570312 C 402.41168213 362.76748657 401.60601807 362.73645020 400.91854858 362.68075562 C 400.44244385 362.56658936 400.14776611 362.29760742 400.11184692 361.80981445 C 400.08587646 361.10861206 400.14364624 360.18283081 400.17874146 359.12670898 C 400.18566895 357.95474243 400.20022583 356.62390137 400.23101807 355.28225708 C 400.24838257 353.79745483 400.22241211 352.39425659 400.25247192 350.95343018 C 400.18295288 349.54000854 400.17977905 348.20315552 400.18072510 346.97903442 C 400.02694702 345.83169556 399.94824219 344.90859985 399.88629150 344.04632568 C 399.94784546 343.49508667 400.27963257 343.13540649 400.88067627 342.99496460 C 401.59329224 342.92950439 402.62127686 342.89007568 403.65527344 342.85656738 C 404.85235596 342.80755615 406.07501221 342.80145264 407.29699707 342.73098755 C 408.50781250 342.68273926 409.58340454 342.65261841 410.60971069 342.67254639 C 411.51269531 342.69363403 412.13198853 342.75384521 412.62081909 343.07836914 C 412.84515381 343.61529541 412.95669556 344.32998657 412.97384644 345.36526489 C 412.96444702 346.37243652 412.88729858 347.52505493 412.84100342 348.73785400 C 412.77102661 349.99182129 412.80596924 351.19479370 412.79830933 352.44882202 C 412.78619385 353.70764160 412.74969482 354.86581421 412.68673706 355.99725342 C 412.64953613 357.05532837 412.68795776 358.12188721 412.59725952 359.11080933 C 412.57623291 360.05874634 412.60510254 360.95233154 412.65875244 361.79739380 C 412.69558716 362.57803345 412.84704590 363.36096191 406.53009033 362.59661865" stroke-width="0.96524954" fill="rgb(72, 197, 235)" opacity="1.0" stroke="rgb(130, 211, 228)" stroke-opacity="0.7101209" stroke-linecap="round" stroke-linejoin="round"/>
    <path d="M 433.91091919 343.00250244 C 434.34005737 342.85150146 434.90380859 342.72741699 435.41204834 342.65820312 C 435.86700439 342.61178589 436.35845947 342.68957520 436.73107910 342.87478638 C 437.02474976 343.10827637 437.19921875 343.58822632 437.19140625 344.21429443 C 437.18682861 345.01925659 437.12188721 345.99954224 437.03948975 347.07916260 C 437.05676270 348.37094116 436.99279785 349.68692017 437.01641846 351.10345459 C 436.99142456 352.59408569 436.99874878 354.06210327 436.95776367 355.53326416 C 436.97274780 356.99133301 436.85867310 358.31991577 436.82662964 359.59228516 C 436.80114746 360.77734375 436.81753540 361.71383667 436.77941895 362.48529053 C 436.62033081 363.07464600 436.24267578 363.41055298 435.59512329 363.52935791 C 434.91058350 363.56066895 433.95739746 363.50268555 432.97265625 363.38946533 C 431.88604736 363.35928345 430.75088501 363.32977295 429.68823242 363.36187744 C 428.58129883 363.43173218 427.64959717 363.40069580 426.69009399 363.37765503 C 425.95397949 363.27261353 425.39373779 363.00967407 424.96377563 362.56781006 C 424.78805542 361.95257568 424.72204590 361.14950562 424.71145630 360.20816040 C 424.81857300 359.11968994 424.75848389 358.06863403 424.78402710 356.80615234 C 424.74710083 355.65402222 424.71234131 354.38183594 424.68826294 353.17053223 C 424.77975464 351.99697876 424.78936768 350.78976440 424.82467651 349.68225098 C 424.75112915 348.60003662 424.75161743 347.57278442 424.69421387 346.59045410 C 424.75131226 345.70077515 424.80871582 344.76699829 424.79309082 344.00115967 C 424.77017212 343.22888184 424.73666382 342.41577148 433.91091919 343.00250244" stroke-width="1.09194374" fill="rgb(75, 193, 239)" opacity="1.0" stroke="rgb(136, 220, 231)" stroke-opacity="0.71651083" stroke-linecap="round" stroke-linejoin="round"/>
    <path d="M 293.16433716 518.20281982 C 286.55181885 518.81457520 279.90744019 519.46398926 273.31408691 520.08947754 C 266.66857910 520.72271729 259.85357666 521.21789551 252.89732361 521.61791992 C 245.87023926 521.79449463 238.65753174 521.90747070 231.53244019 521.93292236 C 224.28175354 521.75140381 217.01986694 521.58642578 209.79620361 521.44152832 C 202.60467529 521.32885742 195.42669678 521.13452148 188.10774231 520.72723389 C 180.60833740 520.30389404 173.13059998 519.79943848 165.56225586 519.34759521 C 157.93466187 518.87298584 150.20478821 518.44323730 142.24017334 517.98254395 C 134.09196472 517.50012207 125.84203339 517.23846436 117.41845703 516.93627930 C 108.81890106 516.79620361 100.05493164 516.70214844 91.13291931 516.64105225 C 82.10073853 516.66271973 73.09801483 516.77972412 64.00141907 516.85308838 C 55.08781433 516.90728760 46.25885391 516.97973633 37.69352722 516.90374756 C 29.66715813 516.68713379 22.12576675 516.22381592 15.16510773 515.66766357 C 9.03459454 514.79180908 4.04029703 513.52490234 0.07771342 511.77337646 C -2.71073532 509.46823120 -4.06977558 507.01016235 -4.15639544 504.50408936 C -2.89288354 502.26400757 -0.22504476 500.62200928 3.81729078 499.48797607 C 8.90472794 498.22705078 14.65779495 496.78488159 21.06802368 495.26275635 C 27.90010262 493.83581543 35.08371735 492.99169922 42.38862228 492.83706665 C 49.80371475 493.29464722 57.25384521 494.37252808 64.64858246 495.86303711 C 72.16130066 497.66632080 79.56158447 498.86682129 86.93354797 499.60043335 C 94.44187164 499.90634155 102.00053406 499.63458252 109.36168671 498.65121460 C 116.66835785 497.27993774 123.97140503 495.76730347 131.24128723 494.41833496 C 138.45632935 493.31573486 145.67105103 492.94506836 152.81616211 493.11434937 C 159.87687683 493.66668701 167.01164246 494.92611694 174.26403809 496.53717041 C 181.43756104 498.20245361 188.67594910 499.21490479 196.10621643 499.81127930 C 203.54522705 500.07736206 210.98593140 499.49533081 218.54739380 498.19961548 C 225.97554016 496.55456543 233.27142334 495.01428223 240.42123413 493.67526245 C 247.51802063 493.11605835 254.58006287 493.06408691 261.57162476 493.47048950 C 268.36157227 494.48449707 274.86099243 495.85202026 280.98889160 497.33706665 C 286.83694458 498.52841187 292.67541504 499.26934814 298.38995361 499.41360474 C 303.92758179 499.11010742 309.52548218 498.77545166 293.16433716 518.20281982" stroke-width="2.00000000" fill="rgb(15, 168, 176)" opacity="1.0" stroke="rgb(165, 248, 201)" stroke-opacity="0.080250435" stroke-linecap="round" stroke-linejoin="round"/>
    <path d="M 461.07611084 406.51052856 C 457.41302490 406.41921997 453.75744629 406.50329590 449.97515869 406.66854858 C 446.13113403 406.65182495 442.23059082 406.61193848 438.14260864 406.49890137 C 434.00750732 406.50634766 429.67306519 406.53384399 425.34603882 406.56777954 C 420.82684326 406.69696045 416.30136108 406.69735718 411.73956299 406.58529663 C 407.20736694 406.49792480 402.70016479 406.55395508 398.38546753 406.53085327 C 394.36486816 406.46997070 390.60519409 406.48498535 387.24789429 406.60107422 C 384.51815796 406.66998291 382.36047363 406.58645630 380.85208130 406.12258911 C 380.22711182 405.08264160 380.15774536 403.47723389 380.31036377 401.54907227 C 380.48828125 399.55700684 380.50051880 397.64065552 380.42251587 395.95553589 C 380.33114624 394.72998047 380.76135254 394.08648682 381.90426636 393.98861694 C 383.75595093 394.08117676 386.25054932 394.11834717 389.30432129 394.04553223 C 392.71688843 394.07260132 396.49816895 394.10900879 400.49636841 394.06985474 C 404.74935913 394.08813477 409.11395264 394.16891479 413.57595825 394.07629395 C 417.92721558 394.06561279 422.32672119 394.03918457 426.65704346 394.05050659 C 430.96847534 394.04824829 435.06362915 394.08554077 438.93347168 393.97793579 C 442.55911255 393.93609619 445.98443604 394.03875732 449.00140381 394.04946899 C 451.74349976 394.09088135 454.01098633 394.02539062 456.02172852 393.92736816 C 457.63574219 393.80923462 458.88565063 393.79446411 459.75665283 393.75344849 C 460.35348511 393.78088379 460.74304199 393.79522705 460.91601562 393.77923584 C 461.06420898 393.68075562 461.22390747 393.59686279 461.07611084 406.51052856" stroke-width="1.60755622" fill="rgb(250, 214, 51)" opacity="1.0" stroke="rgb(239, 210, 78)" stroke-opacity="1.0" stroke-linecap="round" stroke-linejoin="round"/>
    <path d="M 436.83377075 149.15666199 C 436.85052490 150.10124207 436.99813843 151.10136414 437.06872559 152.16560364 C 437.09518433 153.30038452 437.07598877 154.40771484 437.19366455 155.66410828 C 437.23083496 156.94435120 437.23074341 158.24914551 437.24176025 159.56221008 C 437.29870605 161.02957153 437.32418823 162.42144775 437.31637573 163.86949158 C 437.47061157 165.32125854 437.53399658 166.65202332 437.52111816 167.92291260 C 437.39425659 169.18540955 437.45715332 170.14987183 437.55325317 170.93658447 C 437.67745972 171.59156799 437.63088989 171.89775085 437.21673584 172.19996643 C 436.54278564 172.24658203 435.59796143 172.30921936 434.41757202 172.35612488 C 433.19680786 172.37838745 431.97573853 172.29016113 430.69982910 172.11666870 C 429.53100586 172.11022949 428.58081055 172.17256165 427.73468018 172.26594543 C 427.07388306 172.23332214 426.75531006 172.07769775 426.75308228 171.60826111 C 426.81533813 170.86642456 426.83721924 169.94892883 426.97280884 168.74740601 C 426.96493530 167.42279053 426.98754883 165.98892212 426.99990845 164.39782715 C 426.80514526 162.93040466 426.68710327 161.40214539 426.83526611 159.82179260 C 426.93835449 158.37208557 426.93524170 156.92047119 426.81506348 155.51593018 C 426.81613159 154.18128967 426.84191895 152.96487427 426.85586548 151.92367554 C 426.79248047 151.01013184 426.73767090 150.27270508 426.81658936 149.73751831 C 427.04919434 149.38859558 427.53179932 149.22250366 428.02017212 149.23658752 C 428.70358276 149.23420715 429.33541870 149.25505066 430.09252930 149.29078674 C 430.84432983 149.19998169 431.64691162 149.13066101 436.83377075 149.15666199" stroke-width="0.61799049" fill="rgb(251, 252, 251)" opacity="1.0" stroke="rgb(218, 208, 205)" stroke-opacity="0.75913924" stroke-linecap="round" stroke-linejoin="round"/>
    <path d="M 409.70205688 172.26353455 C 407.84048462 172.22534180 406.06454468 172.22273254 404.41470337 172.26980591 C 403.09552002 172.32441711 402.10766602 172.28779602 401.46719360 171.81520081 C 401.13436890 170.83497620 401.20916748 169.44956970 401.39846802 167.69194031 C 401.46539307 165.59603882 401.34878540 163.40000916 401.26565552 161.09913635 C 401.45315552 158.85522461 401.55804443 156.67361450 401.47827148 154.69134521 C 401.38894653 152.85652161 401.31579590 151.28898621 401.31552124 150.07412720 C 401.39999390 149.18890381 401.61938477 148.59352112 402.12994385 148.39884949 C 402.92996216 148.47817993 403.94012451 148.73414612 405.11437988 148.96176147 C 406.31304932 149.16864014 407.55261230 149.24029541 408.61514282 149.09098816 C 409.56701660 148.90545654 410.41574097 148.65884399 409.70205688 172.26353455" stroke-width="0.65980738" fill="rgb(247, 247, 245)" opacity="1.0" stroke="rgb(207, 176, 174)" stroke-opacity="0.9313364" stroke-linecap="round" stroke-linejoin="round"/>
    <path d="M 43.69924927 46.95841599 C 43.67319107 46.56217194 43.68484497 46.08657837 43.65065765 45.66765976 C 43.62525940 45.28020477 43.69906616 45.04332733 43.91482544 44.88499069 C 44.28926468 44.72637177 44.72230530 44.75579834 45.15810394 44.77191925 C 45.63470840 45.06431580 46.04182816 45.46103668 46.46738434 45.83594131 C 46.83107376 46.31864548 47.42315674 46.67032242 47.91955948 47.06692886 C 48.33402252 47.47011566 48.65703201 47.88058472 48.85317612 48.32931137 C 48.93000412 48.80716324 48.89710617 49.25394821 48.79817963 49.69046783 C 48.65867996 50.07407761 48.46000671 50.24944687 48.15126801 50.22768784 C 47.78210449 50.04907990 47.26313019 49.79952621 46.69038773 49.60493088 C 46.02035141 49.34031296 45.25646210 49.13507462 43.69924927 46.95841599" stroke-width="0.39812604" fill="rgb(245, 252, 255)" opacity="1.0" stroke="rgb(169, 159, 130)" stroke-opacity="0.64238375" stroke-linecap="round" stroke-linejoin="round"/>
    <path d="M 197.19505310 59.44491959 C 197.32231140 59.54764938 197.33247375 59.62605286 197.38156128 59.72294998 C 197.41415405 59.81683350 197.38970947 59.88261414 197.34872437 59.98994064 C 197.36189270 60.02534485 197.34240723 60.12158966 197.33206177 60.13934326 C 197.30699158 60.22277451 197.34100342 60.21415329 197.32913208 60.29780197 C 197.31047058 60.25004959 197.33004761 60.31240082 197.32479858 60.23008347 C 197.33425903 60.30033493 197.30200195 60.21346664 197.32629395 60.18725967 C 197.29957581 60.17014313 197.30578613 60.10319901 197.33146667 60.07334900 C 197.33439636 60.01461411 197.35293579 59.94205856 197.41418457 59.92673492 C 197.37181091 59.78698730 197.39735413 59.78973389 197.37001038 59.69214630 C 197.33934021 59.59474182 197.32565308 59.57186890 197.19505310 59.44491959" stroke-width="2.00000000" fill="rgb(0, 60, 227)" opacity="1.0" stroke="rgb(2, 1, 9)" stroke-opacity="0.6826303" stroke-linecap="round" stroke-linejoin="round"/>
    <path d="M 351.51007080 71.74842072 C 351.46981812 71.80722809 351.51214600 71.75181580 351.46914673 71.75989532 C 351.50381470 71.79605103 351.49188232 71.76868439 351.47296143 71.75676727 C 351.52899170 71.79365540 351.47207642 71.76021576 351.48773193 71.77760315 C 351.52838135 71.76399994 351.51440430 71.76802826 351.47415161 71.78971863 C 351.48068237 71.76263428 351.52243042 71.74819946 351.48916626 71.79503632 C 351.50610352 71.76904297 351.48922729 71.74840546 351.50152588 71.79692078 C 351.49545288 71.74369812 351.50350952 71.79431915 351.48333740 71.77591705 C 351.52062988 71.75482178 351.48428345 71.78224945 351.49542236 71.76451874 C 351.49411011 71.77235413 351.50759888 71.77493286 351.47143555 71.76170349 C 351.50735474 71.77768707 351.48403931 71.76254272 351.51007080 71.74842072" stroke-width="0.00000000" fill="rgb(0, 0, 0)" opacity="1.0" stroke="rgb(81, 94, 133)" stroke-opacity="1.0" stroke-linecap="round" stroke-linejoin="round"/>
    <path d="M 144.74291992 83.03228760 C 145.02377319 83.22296143 145.31274414 83.53063965 145.64721680 83.72370148 C 145.93855286 83.99420929 146.25238037 84.27110291 146.58354187 84.61491394 C 146.82991028 85.07619476 147.00964355 85.45542908 147.11480713 85.77936554 C 146.99800110 86.09538269 146.78433228 86.48127747 146.61375427 86.87923431 C 146.35038757 87.19507599 146.11466980 87.41115570 145.88482666 87.43054962 C 145.57225037 87.40624237 145.12077332 87.33011627 144.76379395 87.11174011 C 144.55114746 86.77523041 144.27537537 86.29896545 143.79615784 85.92047119 C 143.25761414 85.62358856 142.75247192 85.30686188 142.38783264 84.92009735 C 142.02824402 84.32013702 141.73124695 83.67504120 141.48107910 83.12846375 C 141.34313965 82.61135864 141.24436951 81.91544342 144.74291992 83.03228760" stroke-width="0.46236920" fill="rgb(240, 243, 241)" opacity="1.0" stroke="rgb(185, 188, 192)" stroke-opacity="0.6274487" stroke-linecap="round" stroke-linejoin="round"/>
    <path d="M 400.05184937 25.92147446 C 400.28442383 25.93835640 400.44491577 26.01963425 400.57791138 26.05676842 C 400.77542114 26.12347603 400.91488647 26.19371414 400.92980957 26.26838875 C 400.91830444 26.33619308 400.92004395 26.47705841 400.84555054 26.48636627 C 400.70471191 26.64190292 400.63412476 26.70231819 400.42465210 26.83676720 C 400.24230957 26.91681099 400.07916260 27.00241661 399.85678101 27.10912323 C 399.68423462 27.16702461 399.41799927 27.09543037 399.29837036 27.06730843 C 399.21786499 26.78712845 399.14920044 26.59875870 399.24069214 26.38279724 C 399.27017212 26.19842911 399.37084961 25.93814087 399.38098145 25.75262070 C 399.42221069 25.50885773 399.43218994 25.24567986 399.43084717 24.96551895 C 399.47363281 24.70848274 399.47689819 24.35281944 400.05184937 25.92147446" stroke-width="0.76167977" fill="rgb(78, 95, 140)" opacity="1.0" stroke="rgb(4, 0, 2)" stroke-opacity="0.34851438" stroke-linecap="round" stroke-linejoin="round"/>
    <path d="M 200.35452271 62.72395706 C 199.73890686 62.34745407 199.24862671 61.98179245 198.80105591 61.54260635 C 198.35498047 61.06322098 197.98239136 60.70797348 197.68078613 60.36911011 C 197.54269409 60.02390289 197.42892456 59.58064270 197.39508057 59.28531265 C 197.36445618 59.07730103 197.66528320 58.92942429 198.08900452 58.81571198 C 198.53654480 58.59684372 198.98065186 58.50662994 199.38308716 58.61488724 C 199.73504639 58.85990524 200.08447266 59.28595734 200.41827393 59.69132996 C 200.82498169 60.10984802 201.24794006 60.54872894 201.73544312 60.86248016 C 202.12237549 61.22484207 202.48937988 61.53877640 202.74931335 61.74656296 C 202.84941101 62.07344818 202.76135254 62.45182800 202.44369507 62.87416840 C 202.07980347 63.26951981 201.78779602 63.70956421 200.35452271 62.72395706" stroke-width="0.56581432" fill="rgb(242, 247, 253)" opacity="1.0" stroke="rgb(149, 150, 157)" stroke-opacity="0.9546185" stroke-linecap="round" stroke-linejoin="round"/>
    <path d="M 351.40505981 73.55549622 C 350.85375977 73.12861633 350.24224854 72.71988678 349.60714722 72.16423798 C 349.11996460 71.46823120 348.69940186 70.87258148 348.40704346 70.34130096 C 348.25247192 69.86385345 348.20895386 69.38420868 348.24453735 68.87645721 C 348.36557007 68.55950165 348.60086060 68.42016602 348.93356323 68.38268280 C 349.35144043 68.41233063 349.73965454 68.54473877 350.07046509 68.69818115 C 350.17898560 68.98661804 350.35995483 69.48426819 350.73800659 69.77754974 C 351.18893433 70.01967621 351.64257812 70.24710846 352.06961060 70.41638947 C 352.36386108 70.76296234 352.62106323 71.01771545 352.92620850 71.47840881 C 353.25299072 71.99826050 353.52804565 72.54914856 353.81478882 73.10728455 C 354.05670166 73.81687927 354.30868530 74.31365204 351.40505981 73.55549622" stroke-width="0.42740461" fill="rgb(242, 245, 253)" opacity="1.0" stroke="rgb(208, 194, 170)" stroke-opacity="0.68709826" stroke-linecap="round" stroke-linejoin="round"/>
    <path d="M 398.46356201 26.00115395 C 397.90188599 25.46237373 397.33489990 24.92166328 396.69448853 24.40945053 C 396.11541748 24.04677010 395.77581787 23.64597321 395.62475586 23.18246269 C 395.53112793 22.66494370 395.51699829 22.29948807 395.59835815 22.00686836 C 395.83749390 21.80255318 396.18243408 21.68726158 396.69653320 21.56911278 C 397.08749390 21.57258415 397.60900879 21.78224373 398.10470581 21.99983597 C 398.55328369 22.24109840 398.92089844 22.55007172 399.14001465 23.00600243 C 399.32690430 23.49771118 399.50442505 23.98996925 399.78082275 24.41306686 C 400.07843018 24.68445778 400.38684082 24.97213745 400.59909058 25.29423714 C 400.79348755 25.51559258 401.20709229 25.72534943 401.69873047 25.90033150 C 402.06613159 26.06079674 402.59518433 26.26938629 398.46356201 26.00115395" stroke-width="0.37486750" fill="rgb(237, 241, 247)" opacity="1.0" stroke="rgb(223, 205, 156)" stroke-opacity="0.4213501" stroke-linecap="round" stroke-linejoin="round"/>
  </g>
</svg>
