<?xml version="1.0" ?>
<svg xmlns="http://www.w3.org/2000/svg" version="1.1" width="512" height="512" viewBox="0 0 512 512">
  <defs/>
  <g>
    <path d="M 575.75695801 414.46862793 C 556.41082764 421.46447754 537.00134277 428.55798340 517.66351318 435.55645752 C 498.20605469 442.48565674 478.78497314 449.25195312 459.22961426 455.86303711 C 439.64904785 462.10061646 419.98159790 468.02319336 400.17190552 473.41653442 C 380.29623413 478.23260498 360.32376099 482.32571411 340.25085449 485.70306396 C 320.15127563 488.10272217 299.94921875 489.57955933 279.81750488 489.96578979 C 259.73373413 489.22457886 239.68270874 487.30422974 219.84130859 484.08468628 C 200.26092529 479.58132935 180.90441895 473.78506470 161.95336914 466.54513550 C 143.44302368 458.00463867 125.43996429 448.05206299 108.00506592 436.74893188 C 91.30377197 424.08343506 75.24280548 410.08978271 60.02654266 394.91159058 C 45.65142059 378.51486206 32.21559525 361.02957153 19.72015762 342.57293701 C 8.12940407 323.20565796 -2.28955913 303.03530884 -11.65280533 282.31555176 C -19.91730499 261.13748169 -27.02229118 239.54948425 -32.97956467 217.76835632 C -37.72756577 196.01690674 -41.18652725 174.41706848 -43.41134262 153.09344482 C -44.34605026 132.20062256 -43.89734268 112.00855255 -42.01852417 92.65852356 C -38.72003555 74.25733185 -33.90159607 56.92245865 -27.52422333 40.85653687 C -19.49813652 26.24679184 -9.76475811 13.14385986 1.79194951 1.64291537 C 15.17126179 -8.13378334 30.27381897 -16.34773636 46.91350555 -23.19181061 C 65.02281189 -28.70800018 84.39097595 -33.14646912 104.92233276 -36.71376038 C 126.39035797 -39.58060837 148.76487732 -41.66428757 171.91418457 -43.22117615 C 195.58390808 -44.38238525 219.72473145 -45.20573044 244.15069580 -45.58824158 C 268.71612549 -45.68541336 293.31915283 -45.43962097 317.71829224 -44.88084793 C 341.82635498 -43.91840744 365.51217651 -42.30113602 388.51556396 -40.08974075 C 410.68759155 -37.18795395 431.86074829 -33.28532410 451.83825684 -28.25694084 C 470.56695557 -22.02052879 487.75366211 -14.29757786 503.18206787 -4.90340805 C 516.76098633 6.36745024 528.48162842 19.54893303 538.35144043 34.61820984 C 546.67883301 51.18057251 553.65399170 69.18537903 559.36120605 88.53150940 C 563.88262939 109.03845215 567.48852539 130.58085632 570.31420898 152.88702393 C 572.51062012 175.92500305 574.15386963 199.55282593 575.38262939 223.58921814 C 576.43725586 247.89979553 577.22552490 272.39190674 577.92077637 296.98861694 C 578.55957031 321.60458374 579.20281982 346.29916382 575.75695801 414.46862793" stroke-width="2.00000000" fill="rgb(12, 28, 69)" opacity="1.0" stroke="rgb(10, 24, 64)" stroke-opacity="1.0" stroke-linecap="round" stroke-linejoin="round"/>
    <path d="M 41.28620148 54.52008820 C 41.29550171 54.54431152 41.28945160 54.51005936 41.27856445 54.53746414 C 41.29508209 54.53458786 41.30683899 54.53067780 41.27471161 54.51696014 C 41.28858566 54.54123688 41.30757141 54.51794434 41.25799179 54.54619217 C 41.31190109 54.51683426 41.28234863 54.54094696 41.28818512 54.52245712 C 41.26457214 54.53620911 41.32334900 54.52824783 41.26185608 54.53947067 C 41.29061890 54.52257919 41.29131699 54.53589630 41.29192734 54.53703690 C 41.26712799 54.51970673 41.30970764 54.53545761 41.28180313 54.53207397 C 41.28468704 54.55041504 41.30003357 54.50335693 41.29859543 54.54190826 C 41.27782059 54.53250122 41.30002594 54.53097916 41.29583740 54.51817322 C 41.29159927 54.54676819 41.29769897 54.51372147 41.28620148 54.52008820" stroke-width="0.00000000" fill="rgb(255, 255, 243)" opacity="1.0" stroke="rgb(49, 0, 0)" stroke-opacity="1.0" stroke-linecap="round" stroke-linejoin="round"/>
    <path d="M 141.03526306 82.93948364 C 141.08564758 82.43318176 141.33340454 82.07569122 141.63450623 82.02114105 C 142.03829956 82.14582825 142.63262939 82.22899628 143.22497559 82.04560089 C 143.73091125 82.12835693 144.37590027 82.46530151 145.07583618 82.92674255 C 145.58566284 83.39671326 145.92842102 83.77212524 146.42768860 84.14058685 C 146.86791992 84.49499512 147.16619873 84.85967255 147.45230103 85.18978119 C 147.71405029 85.66117096 147.80230713 85.99951935 147.76089478 86.25505066 C 147.67112732 86.52456665 147.42707825 86.70140839 147.03517151 86.81147766 C 146.58854675 86.84708405 146.04869080 86.84543610 145.49699402 86.74603271 C 144.91757202 86.61492157 144.36184692 86.43782043 143.83726501 86.15281677 C 143.19032288 85.93701935 142.43225098 85.76291656 141.03526306 82.93948364" stroke-width="2.00000000" fill="rgb(130, 139, 142)" opacity="1.0" stroke="rgb(6, 1, 2)" stroke-opacity="0.44618925" stroke-linecap="round" stroke-linejoin="round"/>
    <path d="M 342.85382080 67.26628113 C 342.85140991 67.28701782 342.86120605 67.29811096 342.87661743 67.30014801 C 342.87695312 67.30861664 342.87933350 67.33757019 342.92492676 67.31470490 C 342.88488770 67.35787964 342.88177490 67.33988190 342.93008423 67.36561584 C 342.92105103 67.35919952 342.90151978 67.38481140 342.91882324 67.36817932 C 342.91918945 67.38816071 342.91207886 67.39492798 342.90866089 67.38556671 C 342.90606689 67.40761566 342.91497803 67.38313293 342.90209961 67.42375946 C 342.88394165 67.39329529 342.88555908 67.39701080 342.88879395 67.40737915 C 342.86843872 67.41615295 342.86627197 67.40487671 342.84854126 67.38375854 C 342.84350586 67.40252686 342.83526611 67.40586090 342.82034302 67.39672089 C 342.80737305 67.39353180 342.79977417 67.39147949 342.85382080 67.26628113" stroke-width="0.19524613" fill="rgb(11, 31, 87)" opacity="1.0" stroke="rgb(35, 46, 96)" stroke-opacity="0.17726846" stroke-linecap="round" stroke-linejoin="round"/>
    <path d="M 203.86161804 55.26403046 C 203.88212585 55.25814438 203.86116028 55.29438782 203.84941101 55.23623276 C 203.84616089 55.27146912 203.86540222 55.26665497 203.81849670 55.25530243 C 203.82157898 55.25466537 203.83796692 55.25627899 203.80960083 55.27592850 C 203.80661011 55.24849701 203.81518555 55.27804184 203.80049133 55.26884842 C 203.78045654 55.27314377 203.81262207 55.26170731 203.76744080 55.28563309 C 203.79423523 55.28808212 203.76342773 55.27620316 203.77336121 55.29237366 C 203.76976013 55.30428696 203.75434875 55.28223038 203.75248718 55.31367493 C 203.76164246 55.30326462 203.73742676 55.31352234 203.75022888 55.30272675 C 203.76039124 55.32364273 203.70463562 55.33204651 203.76068115 55.30852509 C 203.72755432 55.35142136 203.73013306 55.31700516 203.86161804 55.26403046" stroke-width="2.00000000" fill="rgb(76, 11, 44)" opacity="1.0" stroke="rgb(9, 26, 66)" stroke-opacity="0.9950675" stroke-linecap="round" stroke-linejoin="round"/>
    <path d="M 400.05319214 25.12072182 C 400.07693481 25.09286690 400.05838013 25.11769676 400.08410645 25.13128662 C 400.06256104 25.09995842 400.06832886 25.13371849 400.09609985 25.11578751 C 400.05734253 25.11842918 400.08963013 25.13803673 400.08923340 25.11441994 C 400.06320190 25.13808632 400.08898926 25.13636398 400.07720947 25.12506485 C 400.05783081 25.14129448 400.09457397 25.14872742 400.05905151 25.12548447 C 400.05001831 25.15675545 400.06890869 25.14905357 400.06018066 25.12579727 C 400.03610229 25.17260933 400.05108643 25.13220596 400.04287720 25.18439102 C 400.01644897 25.11405373 400.04309082 25.17247963 400.02520752 25.16280556 C 400.01226807 25.15347099 400.01126099 25.14720726 400.02713013 25.18499374 C 399.98236084 25.14405632 400.01687622 25.17233467 400.05319214 25.12072182" stroke-width="0.00000000" fill="rgb(7, 12, 0)" opacity="1.0" stroke="rgb(255, 255, 255)" stroke-opacity="1.0" stroke-linecap="round" stroke-linejoin="round"/>
    <path d="M 604.39691162 418.95321655 C 591.63433838 427.06884766 578.80194092 435.31890869 565.95770264 443.51956177 C 553.09716797 451.63241577 540.06646729 459.68099976 526.97534180 467.59783936 C 513.70275879 475.30960083 500.16873169 482.79043579 486.34692383 489.99789429 C 472.31082153 496.85235596 457.77865601 503.35156250 442.89154053 509.49005127 C 427.54656982 515.22167969 411.76797485 520.48498535 395.43579102 525.33062744 C 378.69824219 529.78466797 361.39047241 533.67675781 343.63052368 537.20629883 C 325.32934570 540.31066895 306.65509033 542.90698242 287.59310913 545.09417725 C 268.14578247 546.85821533 248.33103943 548.19018555 228.44319153 548.93774414 C 208.34393311 549.26037598 188.14477539 549.03186035 168.01972961 548.17687988 C 148.05151367 546.71173096 128.28778076 544.56195068 108.92274475 541.54687500 C 90.07220459 537.63867188 71.87059784 532.75463867 54.49698257 526.78778076 C 38.04933548 519.69427490 22.68462944 511.31503296 8.66217136 501.52401733 C -3.92418933 490.24481201 -14.97421360 477.51922607 -24.46735001 463.56457520 C -32.52029037 448.47717285 -39.10090637 432.51516724 -44.30804443 415.89364624 C -48.09390640 398.77822876 -50.50070190 381.45907593 -51.58164978 364.29803467 C -51.30902481 347.35226440 -49.65783691 331.01199341 -46.69042206 315.52713013 C -42.39097214 301.22268677 -36.64710999 288.38439941 -29.53264999 277.33795166 C -21.03370667 268.38568115 -11.09855652 261.96737671 0.25190127 258.25793457 C 13.10740185 257.67965698 27.24937820 258.05584717 42.70136261 258.02951050 C 59.17795944 257.97830200 76.71788788 257.97116089 95.00045776 257.91012573 C 114.09973145 257.91226196 133.75056458 257.90750122 153.86370850 257.98544312 C 174.31271362 257.87503052 195.04151917 257.93374634 215.81626892 257.96316528 C 236.65129089 257.96163940 257.38238525 257.92327881 277.96792603 258.03268433 C 298.28616333 258.11874390 318.35437012 257.96340942 338.05639648 258.00262451 C 357.37216187 258.09378052 376.24938965 257.98446655 394.72012329 257.91210938 C 412.70397949 258.16992188 430.23947144 258.33502197 447.34957886 258.26620483 C 464.03674316 258.11553955 480.33917236 257.91281128 496.27615356 257.91424561 C 511.96542358 257.96398926 527.39373779 258.15475464 542.61773682 258.46179199 C 557.74188232 258.93716431 572.73126221 259.51882935 587.65582275 260.18020630 C 602.60119629 260.71722412 617.51202393 261.25509644 604.39691162 418.95321655" stroke-width="1.32115960" fill="rgb(13, 113, 203)" opacity="1.0" stroke="rgb(36, 121, 203)" stroke-opacity="0.9365812" stroke-linecap="round" stroke-linejoin="round"/>
    <path d="M 380.10025024 476.83053589 C 364.26953125 477.83865356 348.61721802 478.83648682 333.17410278 479.89453125 C 318.13189697 481.03051758 303.61657715 481.80001831 290.00677490 481.21463013 C 277.64498901 477.84988403 265.55191040 474.62982178 253.10812378 473.90838623 C 240.42282104 474.16696167 227.63424683 477.01522827 214.25299072 480.62811279 C 200.03836060 482.78707886 185.57060242 481.67794800 170.88677979 477.04003906 C 155.47863770 473.32836914 139.37553406 473.16467285 123.02433014 477.06002808 C 106.76875305 482.16326904 89.96134186 483.22372437 72.94409943 479.18807983 C 56.07797623 474.12515259 39.51130295 472.85305786 24.04468727 475.43191528 C 11.05080795 478.91348267 2.35102248 481.79989624 -1.31489575 480.23074341 C 1.45656896 476.98846436 10.04232121 474.63796997 22.22859573 471.49255371 C 36.37909317 468.79806519 51.63409805 469.35040283 67.39997101 473.78289795 C 83.30876160 478.39715576 99.42208099 479.09997559 115.48291779 475.17962646 C 131.46369934 469.78509521 147.79132080 468.58148193 164.25160217 471.38735962 C 179.79313660 476.22421265 194.66921997 478.74652100 209.16618347 477.42224121 C 222.62365723 474.37820435 235.22109985 470.80825806 247.83189392 469.65008545 C 260.57760620 469.61123657 273.09625244 472.46664429 285.86621094 476.52532959 C 299.72711182 478.18978882 314.80224609 477.19570923 330.95944214 475.24218750 C 347.97595215 473.33493042 365.75506592 471.37115479 383.96588135 469.40536499 C 402.57754517 467.47375488 421.39953613 465.52386475 440.30703735 463.61071777 C 459.29711914 461.70001221 478.38104248 459.74954224 380.10025024 476.83053589" stroke-width="1.83803034" fill="rgb(198, 242, 241)" opacity="1.0" stroke="rgb(28, 106, 71)" stroke-opacity="0.33705148" stroke-linecap="round" stroke-linejoin="round"/>
    <path d="M 406.70681763 500.04275513 C 397.95938110 500.25985718 389.17755127 500.50097656 380.43322754 500.72573853 C 371.64221191 500.96304321 362.80181885 501.21432495 353.99468994 501.50625610 C 345.09069824 501.86462402 336.13143921 502.27465820 327.08474731 502.73254395 C 317.90615845 503.29284668 308.56597900 503.97860718 299.08245850 504.72439575 C 289.36480713 505.56552124 279.41833496 506.55319214 269.25714111 507.52609253 C 258.75482178 508.61215210 247.94978333 509.67242432 236.83671570 510.78851318 C 225.30964661 511.80368042 213.44023132 512.78002930 201.24166870 513.67401123 C 188.67227173 514.43945312 175.78326416 515.08184814 162.55928040 515.52899170 C 149.07319641 515.81048584 135.47096252 515.85388184 121.67520142 515.68255615 C 107.93808746 515.22033691 94.25843048 514.52874756 80.80457306 513.62481689 C 67.74748230 512.52972412 55.25333023 511.17352295 43.45291138 509.66357422 C 32.55307770 507.89126587 22.79774666 506.05917358 14.37373352 504.09793091 C 7.62334538 502.07641602 2.72217274 500.14221191 -0.04967068 498.28823853 C -0.46445721 496.70550537 1.52970278 495.60476685 5.75475264 494.70596313 C 11.54852390 493.04107666 18.70280647 490.99081421 27.15049362 489.26312256 C 36.52645874 488.29043579 46.65726089 488.41390991 57.07913208 489.87988281 C 67.68518066 492.41760254 78.55242157 494.82467651 89.75542450 495.55709839 C 101.14213562 495.56518555 112.55113983 493.98580933 123.74768066 491.13995361 C 134.85763550 488.73648071 146.10951233 488.07894897 157.21276855 488.96182251 C 168.02729797 491.00213623 178.68147278 493.52407837 189.37763977 495.02838135 C 199.97221375 495.91702271 210.35488892 495.35903931 220.56248474 493.29165649 C 230.53498840 490.61102295 240.50413513 488.87655640 250.60945129 488.63983154 C 260.63031006 488.63958740 270.33004761 490.19375610 279.84429932 492.95733643 C 289.43353271 495.16857910 299.38198853 495.69863892 309.59335327 495.07458496 C 320.14492798 494.65539551 330.87249756 494.31439209 341.66921997 494.09469604 C 352.45791626 494.04440308 363.20214844 494.07006836 373.86599731 494.15023804 C 384.31045532 494.38775635 394.63143921 494.71911621 404.76513672 495.02606201 C 414.69021606 495.38366699 424.53616333 495.87539673 434.21963501 496.34982300 C 443.82769775 496.87417603 453.35256958 497.38699341 462.85107422 497.95816040 C 472.32333374 498.43353271 481.80810547 498.96661377 406.70681763 500.04275513" stroke-width="0.67236525" fill="rgb(207, 247, 249)" opacity="1.0" stroke="rgb(171, 255, 201)" stroke-opacity="0.5030771" stroke-linecap="round" stroke-linejoin="round"/>
    <path d="M 519.71026611 511.46246338 C 511.82565308 512.18353271 503.90753174 512.91101074 496.04388428 513.57049561 C 488.10781860 514.30480957 480.11032104 515.08038330 472.13485718 515.79101562 C 464.07452393 516.54498291 455.88079834 517.30517578 447.66879272 518.08898926 C 439.32144165 518.95617676 430.88171387 519.75128174 422.35116577 520.56024170 C 413.71374512 521.39062500 404.97387695 522.20861816 396.22695923 522.95916748 C 387.46200562 523.65197754 378.67834473 524.32354736 370.03811646 524.82012939 C 361.47485352 525.21472168 353.13653564 525.45593262 345.06488037 525.46984863 C 337.42758179 525.32348633 330.20065308 524.87976074 323.59576416 524.15142822 C 317.58871460 523.07135010 312.31948853 521.66082764 307.96890259 519.79180908 C 304.65213013 517.56958008 302.39724731 514.78381348 301.40161133 511.51406860 C 301.80270386 507.66094971 303.25094604 503.31777954 305.72863770 498.38641357 C 307.96475220 492.45968628 310.22769165 485.94821167 312.70318604 478.69262695 C 315.23001099 471.04983521 318.00222778 463.00650024 320.71813965 454.70562744 C 323.41494751 446.30401611 326.34890747 437.77764893 329.35183716 429.35430908 C 332.21087646 421.13787842 335.07427979 413.12390137 337.73089600 405.46820068 C 340.10266113 398.24697876 342.26083374 391.52209473 344.43893433 385.56454468 C 346.87402344 380.56018066 349.82888794 376.73452759 353.04162598 373.88702393 C 356.46026611 371.90921021 359.82141113 371.00967407 363.14001465 371.49514771 C 366.44683838 373.80477905 370.41030884 376.54940796 375.63137817 378.59399414 C 382.44854736 379.81457520 390.42965698 380.66757202 399.25552368 381.28256226 C 408.60226440 381.59838867 418.27175903 381.78576660 428.03771973 381.99371338 C 437.64529419 382.01724243 446.78677368 381.84033203 455.25347900 381.49002075 C 462.75204468 380.83187866 469.01947021 380.86437988 474.11218262 383.04794312 C 478.16589355 387.12289429 482.16952515 391.26214600 486.55102539 394.08605957 C 490.91564941 395.19827271 495.21316528 394.53317261 499.20410156 392.97274780 C 502.81118774 392.12612915 505.81845093 393.03778076 508.46331787 396.12487793 C 511.00973511 400.80322266 513.35211182 406.97503662 515.42913818 414.37271118 C 517.26904297 422.69738770 518.87707520 431.82321167 520.28753662 441.44726562 C 521.54412842 451.47326660 522.77301025 461.78573608 523.89691162 472.18954468 C 525.00256348 482.63864136 526.12078857 493.16815186 519.71026611 511.46246338" stroke-width="1.27533746" fill="rgb(135, 69, 28)" opacity="1.0" stroke="rgb(86, 82, 93)" stroke-opacity="0.83364624" stroke-linecap="round" stroke-linejoin="round"/>
    <path d="M 432.64743042 407.19500732 C 427.36077881 407.25085449 422.07955933 407.21121216 416.79415894 407.14102173 C 411.56625366 406.93710327 406.53152466 406.57794189 401.67800903 406.00863647 C 397.11581421 405.15740967 393.01907349 403.97937012 389.40789795 402.49249268 C 386.36825562 400.63436890 384.00772095 398.25421143 382.46566772 395.45745850 C 381.89968872 391.98101807 382.05673218 388.01092529 382.33178711 383.43273926 C 382.27200317 378.20281982 382.41464233 372.50424194 382.32199097 366.34375000 C 382.27844238 359.84521484 382.41159058 352.98226929 382.33972168 345.81988525 C 382.45220947 338.42926025 382.49017334 330.84225464 382.33142090 323.07394409 C 382.46520996 315.25155640 382.38986206 307.38909912 382.27465820 299.52499390 C 382.40026855 291.60864258 382.47628784 283.78607178 382.21325684 276.03781128 C 382.48928833 268.35446167 382.23852539 260.87686157 382.09820557 253.45362854 C 382.30422974 246.18272400 381.94287109 239.16357422 382.07531738 232.38323975 C 381.92657471 225.88653564 381.93289185 219.67144775 381.89547729 213.95457458 C 381.78628540 208.69174194 381.77917480 203.93750000 382.36157227 199.93693542 C 384.87033081 196.80938721 388.48043823 194.10292053 392.94070435 191.76094055 C 398.15118408 189.82131958 404.05197144 188.40408325 410.47540283 187.48733521 C 417.13418579 187.04185486 423.88903809 187.03530884 430.48358154 187.49713135 C 436.79867554 188.50616455 442.72238159 189.95320129 447.99554443 191.87097168 C 452.40707397 194.23521423 455.92199707 196.94056702 458.13281250 200.10992432 C 458.63186646 203.74385071 458.38742065 208.07550049 458.45300293 213.01121521 C 458.42062378 218.29895020 458.35177612 223.88288879 458.45520020 229.83465576 C 458.58880615 235.93104553 458.26416016 242.13705444 458.17718506 248.56367493 C 458.66171265 255.03678894 458.76913452 261.73376465 458.60891724 268.41528320 C 458.68395996 275.14816284 458.71585083 281.90325928 458.73852539 288.67730713 C 458.76348877 295.41732788 458.65628052 302.15292358 458.57879639 308.91717529 C 458.70883179 315.81250000 458.61795044 322.75155640 458.58779907 329.63061523 C 458.53479004 336.49163818 458.46954346 343.35772705 458.70053101 350.20413208 C 458.65032959 357.02105713 458.75457764 363.71228027 458.70593262 370.34552002 C 458.75552368 376.93161011 458.86892700 383.37585449 458.79962158 389.88693237 C 458.75021362 396.33053589 458.72879028 402.73776245 432.64743042 407.19500732" stroke-width="0.94875473" fill="rgb(250, 253, 253)" opacity="1.0" stroke="rgb(85, 88, 101)" stroke-opacity="0.4920136" stroke-linecap="round" stroke-linejoin="round"/>
    <path d="M 456.30023193 198.39591980 C 452.35339355 198.39836121 448.36968994 198.38674927 444.35034180 198.36100769 C 440.32864380 198.35151672 436.33871460 198.42958069 432.31372070 198.40039062 C 428.19735718 198.50598145 424.02520752 198.40809631 419.96862793 198.45083618 C 415.89437866 198.58355713 411.78814697 198.60743713 407.79055786 198.53941345 C 403.94351196 198.50790405 400.29275513 198.62181091 396.82666016 198.51660156 C 393.64141846 198.38587952 390.79794312 198.36779785 388.36346436 198.44075012 C 386.38873291 198.61306763 384.97052002 198.55854797 384.15405273 198.03971863 C 384.01159668 196.44271851 384.13775635 194.04771423 384.22857666 190.96110535 C 384.20150757 187.53105164 384.20162964 184.00939941 384.14352417 180.56848145 C 384.07742310 177.37065125 384.03930664 174.67932129 384.07846069 172.87651062 C 384.84448242 172.10202026 386.27029419 171.96209717 388.45452881 172.05320740 C 391.25338745 171.99258423 394.49563599 172.08137512 398.10852051 172.25480652 C 402.07406616 172.40043640 406.27920532 172.39900208 410.65148926 172.27012634 C 415.09225464 172.20996094 419.46588135 172.13558960 423.78598022 172.05993652 C 428.06774902 172.01287842 432.13659668 172.10781860 435.93618774 172.20106506 C 439.50619507 172.18849182 442.73034668 172.06015015 445.73410034 172.04212952 C 448.29034424 172.01367188 450.48593140 172.06182861 452.34918213 172.12411499 C 453.84545898 172.15649414 455.01135254 172.16291809 455.84219360 172.28164673 C 456.30914307 172.48881531 456.42391968 172.82312012 456.30773926 173.29206848 C 456.15103149 173.84916687 455.91345215 174.37954712 456.30023193 198.39591980" stroke-width="0.94585460" fill="rgb(240, 74, 72)" opacity="1.0" stroke="rgb(127, 20, 25)" stroke-opacity="0.8002385" stroke-linecap="round" stroke-linejoin="round"/>
    <path d="M 437.90795898 144.86581421 C 437.79220581 147.14498901 437.64862061 149.37704468 437.30532837 151.55160522 C 436.89212036 153.77078247 436.39566040 155.99588013 435.83395386 158.07894897 C 435.07470703 160.09091187 434.30166626 162.12304688 433.41790771 164.05621338 C 432.48220825 165.79881287 431.43963623 167.50245667 430.25231934 169.11376953 C 428.96102905 170.57246399 427.60577393 171.79139709 426.17431641 172.80120850 C 424.59686279 173.59696960 422.90670776 174.07360840 421.19540405 174.48449707 C 419.43576050 174.63975525 417.58801270 174.66978455 415.69378662 174.43620300 C 413.87799072 174.01979065 412.18280029 173.36613464 410.57934570 172.43670654 C 409.11428833 171.12869263 407.77832031 169.56719971 406.54812622 167.82644653 C 405.42135620 165.95750427 404.37677002 163.86936951 403.53890991 161.68215942 C 402.81173706 159.55722046 402.06228638 157.41780090 401.48010254 155.32501221 C 401.07998657 153.24468994 400.95959473 151.25039673 400.78359985 149.37976074 C 400.70144653 147.67033386 400.67416382 146.14120483 400.79617310 144.83450317 C 401.37207031 143.90678406 402.23666382 143.23320007 403.48104858 142.87991333 C 404.91491699 142.45141602 406.30441284 141.94224548 407.60775757 141.06039429 C 408.78607178 139.79046631 410.10549927 138.52316284 411.69229126 137.65571594 C 413.49057007 136.97032166 415.50387573 136.57310486 417.60842896 136.37751770 C 419.74807739 136.52464294 421.91998291 136.93238831 424.07351685 137.64993286 C 426.14633179 138.56367493 428.01486206 139.87211609 429.81820679 141.26777649 C 431.88583374 142.20478821 434.01156616 142.90637207 437.90795898 144.86581421" stroke-width="0.76209074" fill="rgb(232, 72, 81)" opacity="1.0" stroke="rgb(255, 44, 0)" stroke-opacity="0.23195162" stroke-linecap="round" stroke-linejoin="round"/>
    <path d="M 469.49957275 59.27695084 C 468.13732910 63.20627213 466.32467651 67.05161285 464.27401733 70.85433960 C 462.35733032 74.95996094 460.35372925 79.35448456 458.07571411 83.88383484 C 455.64678955 88.48823547 453.17861938 93.47664642 450.69647217 98.69911194 C 447.92797852 103.90557861 445.24517822 109.42271423 442.59671021 114.84667206 C 439.91668701 120.09536743 437.27984619 125.11964417 434.96771240 129.69691467 C 433.24032593 133.86477661 431.49218750 137.19296265 429.40347290 139.14164734 C 426.38943481 139.50372314 422.83843994 139.29769897 419.04669189 139.22688293 C 415.21316528 139.31167603 411.66088867 139.39567566 408.88137817 138.73252869 C 407.00982666 136.57171631 405.51535034 133.22547913 403.86227417 129.08049011 C 401.74127197 124.41586304 399.41110229 119.36131287 396.47705078 113.87272644 C 393.61322021 108.22084045 390.85083008 102.36814880 388.14151001 96.17385864 C 385.41476440 90.20906830 382.63162231 84.50463867 379.91528320 79.14474487 C 377.53009033 74.18212891 375.49487305 69.59819031 373.87774658 65.72820282 C 372.46987915 62.79929352 371.58322144 60.54941559 371.36416626 59.30549240 C 372.18151855 59.11899567 373.95690918 59.41268539 376.53512573 59.24573135 C 379.87878418 59.42954636 383.94039917 59.44388580 388.64471436 59.24709702 C 393.78741455 59.09166336 399.35733032 59.27618790 405.38604736 59.31179810 C 411.61257935 59.25020599 418.03198242 59.17611694 424.63363647 59.32108307 C 431.41934204 59.41886902 438.38363647 59.22418213 445.29290771 59.27851105 C 452.23556519 59.19137192 459.19400024 59.47732162 469.49957275 59.27695084" stroke-width="1.93878162" fill="rgb(244, 180, 52)" opacity="1.0" stroke="rgb(56, 13, 0)" stroke-opacity="0.42503145" stroke-linecap="round" stroke-linejoin="round"/>
    <path d="M 406.39025879 257.36529541 C 405.28100586 257.44488525 404.24224854 257.48159790 403.16986084 257.46884155 C 402.27200317 257.45141602 401.47119141 257.46444702 400.87030029 257.40338135 C 400.48892212 257.31509399 400.26568604 257.05197144 400.20571899 256.50079346 C 400.25686646 255.81620789 400.22418213 254.95910645 400.16738892 253.99856567 C 400.14471436 252.79711914 400.15914917 251.49905396 400.15667725 250.13589478 C 400.17608643 248.75773621 400.23376465 247.27220154 400.19277954 245.78987122 C 400.15640259 244.34432983 400.12075806 242.94374084 400.08279419 241.57310486 C 400.08157349 240.27944946 400.11254883 239.23568726 400.06454468 238.29957581 C 400.08453369 237.56944275 400.25213623 237.08901978 400.71618652 236.81704712 C 401.38623047 236.74349976 402.26632690 236.73402405 403.20892334 236.70239258 C 404.33865356 236.79232788 405.47152710 236.83477783 406.65023804 236.85423279 C 407.83776855 236.80250549 408.99444580 236.81925964 410.03424072 236.80770874 C 410.94137573 236.74169922 411.65170288 236.63674927 412.17468262 236.71362305 C 412.46701050 236.94067383 412.52856445 237.45359802 412.42868042 238.21458435 C 412.33480835 239.03459167 412.30148315 240.05513000 412.27441406 241.21646118 C 412.32623291 242.46568298 412.35778809 243.77708435 412.35540771 245.14825439 C 412.34390259 246.53811646 412.29498291 247.98530579 412.26950073 249.31648254 C 412.31832886 250.68193054 412.35903931 252.02066040 412.37307739 253.28733826 C 412.36441040 254.42718506 412.36755371 255.49565125 412.38479614 256.49047852 C 412.56619263 257.28561401 412.73645020 258.03826904 406.39025879 257.36529541" stroke-width="0.97057426" fill="rgb(76, 200, 238)" opacity="1.0" stroke="rgb(141, 217, 233)" stroke-opacity="0.723437" stroke-linecap="round" stroke-linejoin="round"/>
    <path d="M 436.65576172 257.92019653 C 435.87042236 257.87625122 435.10626221 257.88906860 434.35668945 257.80346680 C 433.48831177 257.73690796 432.62063599 257.67764282 431.78875732 257.71847534 C 430.91900635 257.72064209 430.00939941 257.66308594 429.13192749 257.61099243 C 428.27099609 257.57894897 427.43698120 257.57992554 426.67056274 257.58865356 C 425.97662354 257.64157104 425.37014771 257.55911255 424.87542725 257.43676758 C 424.65109253 257.09790039 424.57498169 256.65451050 424.53656006 256.03192139 C 424.55505371 255.19410706 424.59472656 254.23432922 424.62893677 253.08927917 C 424.69265747 251.83996582 424.71209717 250.52641296 424.67492676 249.11198425 C 424.69165039 247.62098694 424.67181396 246.13304138 424.79528809 244.61154175 C 424.77215576 243.18504333 424.71124268 241.88323975 424.60806274 240.61152649 C 424.55694580 239.49053955 424.62918091 238.53065491 424.75854492 237.80487061 C 424.96520996 237.29818726 425.33520508 237.08027649 425.81213379 237.05148315 C 426.42944336 237.17115784 427.30752563 237.30175781 428.25335693 237.40513611 C 429.32687378 237.49554443 430.46426392 237.52290344 431.60629272 237.46360779 C 432.74993896 237.44441223 433.80355835 237.43621826 434.74118042 237.45469666 C 435.60357666 237.32556152 436.27005005 237.21530151 436.75842285 237.19081116 C 437.11380005 237.41304016 437.32818604 237.87710571 437.30599976 238.53419495 C 437.25277710 239.34849548 437.25277710 240.32519531 437.25198364 241.40270996 C 437.26672363 242.50517273 437.28454590 243.71011353 437.19140625 244.94534302 C 437.07580566 246.17398071 436.97244263 247.40426636 436.65576172 257.92019653" stroke-width="1.01083612" fill="rgb(76, 199, 233)" opacity="1.0" stroke="rgb(148, 223, 236)" stroke-opacity="0.7080126" stroke-linecap="round" stroke-linejoin="round"/>
    <path d="M 400.53469849 310.18057251 C 400.52896118 309.08999634 400.57400513 307.89035034 400.67507935 306.59353638 C 400.60848999 305.39968872 400.54040527 304.20733643 400.58084106 302.98297119 C 400.59732056 301.71716309 400.60769653 300.43209839 400.77233887 299.18621826 C 400.74835205 297.98721313 400.61364746 296.78421021 400.56927490 295.61917114 C 400.55010986 294.53363037 400.67678833 293.54055786 400.70812988 292.70285034 C 400.64883423 291.92440796 400.58358765 291.23937988 400.64724731 290.89291382 C 400.94525146 290.59982300 401.45437622 290.48886108 402.12008667 290.48202515 C 402.94039917 290.51046753 403.87405396 290.53930664 404.84951782 290.58450317 C 405.97155762 290.56866455 407.07165527 290.62359619 408.17221069 290.58380127 C 409.20697021 290.50427246 410.15505981 290.52032471 411.04244995 290.62585449 C 411.73501587 290.76016235 412.21697998 290.97781372 412.46304321 291.46939087 C 412.56683350 292.13961792 412.54498291 292.95880127 412.46807861 293.95947266 C 412.41262817 295.08242798 412.35025024 296.36184692 412.34640503 297.69970703 C 412.45120239 299.01245117 412.49182129 300.30249023 412.47784424 301.60604858 C 412.44082642 302.86364746 412.48291016 304.02877808 412.49160767 305.09530640 C 412.38986206 306.06680298 412.27319336 306.91168213 412.14535522 307.67364502 C 412.06607056 308.23788452 412.22921753 308.82113647 412.40295410 309.26910400 C 412.48910522 309.65896606 412.59045410 310.00796509 412.67770386 310.19775391 C 412.59680176 310.33059692 412.31863403 310.44625854 412.01351929 310.42779541 C 411.80047607 310.45312500 411.63949585 310.51544189 400.53469849 310.18057251" stroke-width="0.96298891" fill="rgb(73, 200, 239)" opacity="1.0" stroke="rgb(98, 194, 219)" stroke-opacity="0.84161603" stroke-linecap="round" stroke-linejoin="round"/>
    <path d="M 436.45358276 290.62493896 C 436.47467041 291.69989014 436.52850342 292.88702393 436.56991577 294.10467529 C 436.55645752 295.29846191 436.53604126 296.43978882 436.52478027 297.73995972 C 436.53753662 298.99075317 436.61547852 300.22509766 436.64218140 301.51013184 C 436.57919312 302.73904419 436.52951050 304.03091431 436.53366089 305.23526001 C 436.55090332 306.35266113 436.52014160 307.44503784 436.45407104 308.40963745 C 436.51348877 309.25131226 436.53750610 309.93984985 436.50283813 310.39706421 C 436.23461914 310.67510986 435.77813721 310.76654053 435.19793701 310.74105835 C 434.37374878 310.66250610 433.51351929 310.65539551 432.51663208 310.67169189 C 431.47207642 310.62152100 430.40844727 310.61422729 429.33523560 310.60354614 C 428.29513550 310.57797241 427.31948853 310.57113647 426.42938232 310.64517212 C 425.64419556 310.70388794 425.12734985 310.64105225 424.70251465 310.33325195 C 424.57705688 309.83105469 424.57199097 309.04455566 424.54998779 308.07827759 C 424.57730103 306.97302246 424.68246460 305.68316650 424.74850464 304.36968994 C 424.68627930 303.00408936 424.61120605 301.63940430 424.65451050 300.23382568 C 424.76473999 298.92163086 424.72073364 297.64547729 424.59649658 296.43304443 C 424.55758667 295.29364014 424.60382080 294.26379395 424.73461914 293.33911133 C 424.79965210 292.57321167 424.77655029 291.92529297 424.85165405 291.46997070 C 424.97308350 291.08786011 425.09201050 290.78973389 425.28619385 290.63131714 C 425.57254028 290.59033203 425.79583740 290.64599609 426.15023804 290.79135132 C 426.43365479 290.85714722 426.69241333 290.82342529 436.45358276 290.62493896" stroke-width="0.96563876" fill="rgb(71, 200, 234)" opacity="1.0" stroke="rgb(104, 200, 220)" stroke-opacity="0.8426933" stroke-linecap="round" stroke-linejoin="round"/>
    <path d="M 407.33258057 362.61471558 C 405.97000122 362.78396606 404.71832275 362.86074829 403.49859619 362.86901855 C 402.40090942 362.76385498 401.52062988 362.71322632 400.79223633 362.76724243 C 400.31408691 362.73196411 400.14825439 362.39395142 400.10119629 361.87255859 C 400.12780762 361.07037354 400.18200684 360.17391968 400.18817139 359.08267212 C 400.18380737 357.85733032 400.24743652 356.53097534 400.25790405 355.13311768 C 400.31344604 353.74066162 400.29913330 352.31100464 400.18807983 350.92550659 C 400.17440796 349.53976440 400.18252563 348.28781128 400.18511963 347.03643799 C 400.07995605 345.91467285 399.95874023 345.00860596 399.89785767 344.20449829 C 399.96163940 343.58645630 400.15136719 343.14868164 400.63693237 342.94476318 C 401.37121582 342.98724365 402.25939941 342.97604370 403.29791260 342.83767700 C 404.49575806 342.79287720 405.65301514 342.77865601 406.83581543 342.73944092 C 408.06491089 342.76168823 409.23779297 342.74951172 410.22402954 342.74682617 C 411.12152100 342.68710327 411.90921021 342.63439941 412.47979736 342.83761597 C 412.83746338 343.18939209 412.88827515 343.67889404 412.85128784 344.42324829 C 412.86984253 345.32910156 412.90612793 346.30233765 412.87652588 347.41384888 C 412.79605103 348.59930420 412.75793457 349.75985718 412.74291992 351.03515625 C 412.84124756 352.25155640 412.85833740 353.47735596 412.74346924 354.71951294 C 412.68533325 355.95016479 412.63018799 357.12493896 412.63906860 358.23611450 C 412.57409668 359.38546753 412.54681396 360.48239136 412.66040039 361.51083374 C 412.74584961 362.53713989 412.84375000 363.47756958 407.33258057 362.61471558" stroke-width="0.97365671" fill="rgb(68, 197, 238)" opacity="1.0" stroke="rgb(132, 212, 227)" stroke-opacity="0.7145256" stroke-linecap="round" stroke-linejoin="round"/>
    <path d="M 434.60733032 342.90591431 C 435.07321167 342.79449463 435.61755371 342.69433594 436.11550903 342.65673828 C 436.48974609 342.67541504 436.82128906 342.86972046 437.04977417 343.17114258 C 437.19470215 343.63296509 437.14721680 344.30484009 437.13931274 345.04455566 C 437.11633301 345.95742798 437.10711670 347.00677490 437.04476929 348.15536499 C 436.94030762 349.38693237 436.90325928 350.69494629 436.97592163 352.00268555 C 436.97598267 353.43099976 436.94583130 354.86788940 436.96520996 356.24224854 C 436.92800903 357.52624512 436.79711914 358.80944824 436.74194336 360.02862549 C 436.66174316 361.07946777 436.70343018 361.92126465 436.87167358 362.65881348 C 436.88687134 363.14544678 436.67428589 363.46551514 436.29870605 363.53051758 C 435.65191650 363.52243042 434.80859375 363.46490479 433.87634277 363.39376831 C 432.82772827 363.34152222 431.72171021 363.28283691 430.56188965 363.31069946 C 429.46603394 363.43530273 428.39953613 363.44821167 427.41125488 363.37319946 C 426.54479980 363.33224487 425.81088257 363.21774292 425.25988770 362.95938110 C 424.90093994 362.53341675 424.73104858 361.84893799 424.71279907 361.03591919 C 424.80697632 360.06683350 424.78344727 358.94064331 424.80551147 357.80700684 C 424.79180908 356.56393433 424.72488403 355.31045532 424.68157959 354.02688599 C 424.72576904 352.70019531 424.80319214 351.40496826 424.79309082 350.09518433 C 424.79431152 348.87423706 424.71551514 347.75622559 424.63619995 346.64700317 C 424.72140503 345.62597656 424.79614258 344.66961670 424.78274536 343.84265137 C 424.61676025 343.18853760 424.40808105 342.56439209 434.60733032 342.90591431" stroke-width="1.09283602" fill="rgb(74, 197, 238)" opacity="1.0" stroke="rgb(136, 218, 234)" stroke-opacity="0.6976308" stroke-linecap="round" stroke-linejoin="round"/>
    <path d="M 292.25781250 520.05682373 C 285.68786621 520.17651367 279.01693726 520.22937012 272.36776733 520.35095215 C 265.75994873 520.51409912 259.07580566 520.60205078 252.33740234 520.65429688 C 245.54699707 520.71636963 238.76412964 520.74420166 231.83869934 520.75067139 C 224.88330078 520.68853760 217.80036926 520.68988037 210.65063477 520.53015137 C 203.37626648 520.41448975 195.94476318 520.28576660 188.44979858 520.11633301 C 180.73654175 519.94909668 172.91302490 519.77154541 164.91439819 519.60089111 C 156.75640869 519.41308594 148.39459229 519.29901123 139.88093567 519.15057373 C 131.22827148 519.06127930 122.41551208 518.97741699 113.46153259 518.93261719 C 104.43424225 518.87872314 95.28849792 518.90386963 86.16929626 518.87652588 C 77.08578491 518.82507324 68.01977539 518.78912354 59.09865570 518.71002197 C 50.47513199 518.47784424 42.14910507 518.22900391 34.15056229 517.85504150 C 26.65749931 517.27148438 19.79263878 516.55920410 13.49837399 515.68878174 C 8.04487991 514.55133057 3.43846726 513.14172363 -0.18754920 511.48095703 C -2.75716066 509.54797363 -4.19548035 507.44958496 -4.50843906 505.33670044 C -3.68532681 503.35272217 -1.61886561 501.72732544 1.62414312 500.38613892 C 5.99053812 499.32116699 11.22745514 498.11001587 17.10205460 496.62692261 C 23.42295837 494.97113037 30.16741562 493.77835083 37.38444138 493.24783325 C 44.90262985 493.08380127 52.52833176 493.64529419 60.22810364 495.04943848 C 67.96581268 497.00082397 75.75433350 498.68594360 83.71289825 499.72943115 C 91.72831726 500.28482056 99.72741699 500.06463623 107.67174530 499.15573120 C 115.53009796 497.76892090 123.36702728 496.15255737 131.19076538 494.69680786 C 138.81233215 493.52313232 146.36271667 493.09613037 153.90869141 493.44079590 C 161.42564392 494.16854858 168.74644470 495.54559326 175.96600342 497.24432373 C 183.15545654 498.89276123 190.40946960 499.85922241 197.72270203 500.14724731 C 204.97418213 500.15356445 212.23574829 499.64007568 219.46537781 498.34582520 C 226.68591309 496.81442261 233.82746887 495.24661255 240.96505737 493.99432373 C 248.05085754 493.34243774 255.03732300 493.30780029 261.79504395 493.77459717 C 268.28619385 494.68405151 274.49569702 496.10583496 280.63217163 497.47485352 C 286.63912964 498.63183594 292.40499878 499.47042847 297.97195435 499.67922974 C 303.33657837 499.13769531 308.70773315 498.38937378 292.25781250 520.05682373" stroke-width="0.62570560" fill="rgb(9, 165, 172)" opacity="1.0" stroke="rgb(39, 157, 154)" stroke-opacity="0.56729764" stroke-linecap="round" stroke-linejoin="round"/>
    <path d="M 461.05035400 406.57702637 C 456.90338135 406.49023438 452.73904419 406.56546021 448.45690918 406.61801147 C 444.04324341 406.59429932 439.60287476 406.56420898 435.19793701 406.48306274 C 430.64663696 406.51013184 426.00143433 406.64920044 421.33078003 406.68060303 C 416.77676392 406.65023804 412.24340820 406.55294800 407.71704102 406.59371948 C 403.32907104 406.52389526 399.19216919 406.50769043 395.26647949 406.55651855 C 391.59182739 406.49868774 388.32208252 406.46841431 385.51788330 406.56753540 C 383.23922729 406.62716675 381.58877563 406.55029297 380.54666138 406.13098145 C 380.17156982 405.12127686 380.24145508 403.72543335 380.32196045 402.01998901 C 380.40829468 400.16827393 380.51306152 398.41921997 380.47525024 396.78421021 C 380.40386963 395.39562988 380.37045288 394.51119995 380.88449097 394.05285645 C 382.17214966 394.18554688 384.20596313 394.21829224 386.85296631 394.11114502 C 390.03302002 394.07556152 393.54785156 394.10018921 397.50549316 394.08639526 C 401.67205811 394.00216675 406.05157471 394.07275391 410.48007202 394.02944946 C 414.92401123 394.09637451 419.40841675 394.10571289 423.79388428 394.08776855 C 428.03860474 394.09506226 432.06961060 394.09527588 435.88623047 394.04492188 C 439.52255249 394.00418091 442.96728516 394.00921631 446.07348633 393.94491577 C 448.86163330 394.07278442 451.30099487 394.14450073 453.46749878 394.04650879 C 455.43182373 394.09817505 457.05215454 393.96652222 458.31091309 393.78155518 C 459.32360840 393.61068726 460.12335205 393.61007690 460.70205688 393.67755127 C 461.05957031 393.63055420 461.30133057 393.62756348 461.05035400 406.57702637" stroke-width="1.59945929" fill="rgb(252, 217, 50)" opacity="1.0" stroke="rgb(243, 209, 79)" stroke-opacity="1.0" stroke-linecap="round" stroke-linejoin="round"/>
    <path d="M 436.79339600 149.14981079 C 436.88870239 150.32005310 437.11169434 151.51412964 437.15692139 152.70712280 C 437.15277100 153.94462585 437.21661377 155.31629944 437.18688965 156.77395630 C 437.15005493 158.09532166 437.28552246 159.43690491 437.35507202 160.94767761 C 437.33255005 162.36077881 437.37213135 163.68052673 437.40933228 164.93840027 C 437.43756104 166.15734863 437.54931641 167.36862183 437.49884033 168.48287964 C 437.43109131 169.52224731 437.42749023 170.42741394 437.54626465 171.12265015 C 437.79794312 171.57275391 437.94885254 171.97543335 437.77984619 172.20014954 C 437.24520874 172.22358704 436.45651245 172.20724487 435.44796753 172.19891357 C 434.29962158 172.30845642 433.10137939 172.39447021 431.92730713 172.22608948 C 430.69223022 172.10914612 429.55291748 172.19277954 428.52896118 172.16059875 C 427.70602417 172.20658875 427.11767578 172.15161133 426.77673340 172.00949097 C 426.71997070 171.57008362 426.76348877 170.85083008 426.86691284 169.93504333 C 426.96099854 168.72300720 426.96643066 167.37982178 427.02600098 166.00726318 C 427.03295898 164.51242065 426.90890503 163.03536987 426.73693848 161.51593018 C 426.81390381 160.10853577 426.92587280 158.75791931 426.94000244 157.48056030 C 426.81130981 156.22189331 426.82455444 155.06637573 426.84109497 154.01654053 C 426.75366211 153.08210754 426.75329590 152.31236267 426.86853027 151.61656189 C 426.87228394 151.02803040 426.76861572 150.47460938 426.69866943 150.10896301 C 426.68743896 149.77949524 426.68429565 149.48303223 426.71664429 149.29055786 C 426.65664673 149.22387695 426.65744019 149.18360901 436.79339600 149.14981079" stroke-width="0.62581420" fill="rgb(253, 247, 247)" opacity="1.0" stroke="rgb(219, 209, 207)" stroke-opacity="0.77053326" stroke-linecap="round" stroke-linejoin="round"/>
    <path d="M 409.79461670 172.16012573 C 407.96313477 172.27375793 406.20928955 172.26188660 404.58691406 172.22813416 C 403.21685791 172.23942566 402.27142334 172.31436157 401.62332153 172.14093018 C 401.20993042 171.46728516 401.05892944 170.35603333 401.22476196 168.88493347 C 401.50531006 167.24977112 401.45922852 165.32499695 401.28097534 163.19140625 C 401.25524902 161.02023315 401.44104004 158.85861206 401.62405396 156.72372437 C 401.52264404 154.75834656 401.35675049 152.93818665 401.34033203 151.21092224 C 401.42224121 149.79804993 401.42068481 148.91101074 401.70449829 148.44299316 C 402.47232056 148.46612549 403.58496094 148.67945862 404.87652588 148.90556335 C 406.20361328 149.21887207 407.51708984 149.32125854 408.64151001 149.06797791 C 409.54714966 148.66720581 410.23092651 148.37303162 409.79461670 172.16012573" stroke-width="0.64549571" fill="rgb(249, 247, 247)" opacity="1.0" stroke="rgb(200, 161, 160)" stroke-opacity="0.9695635" stroke-linecap="round" stroke-linejoin="round"/>
    <path d="M 43.71383286 47.06820679 C 43.86997223 46.40719604 43.90060806 45.87712097 43.76057816 45.46811295 C 43.56507492 45.19451904 43.52648544 44.85453415 43.75680923 44.71339417 C 44.08424377 44.76185989 44.52540207 44.76620483 45.04358673 44.90429306 C 45.54979706 45.07050705 45.99919891 45.34019089 46.39353561 45.81540680 C 46.96598053 46.22733307 47.52920914 46.67892075 48.00165176 47.19903946 C 48.37751007 47.66542053 48.67670059 48.09139633 48.83135605 48.50522614 C 48.90608215 48.98362732 48.92883301 49.26633072 48.84043884 49.52902985 C 48.63383865 49.88649750 48.41681290 50.13191223 48.06929398 50.18332672 C 47.62620544 50.11613083 47.10240173 49.85084915 46.57297134 49.48411942 C 45.82826233 49.19218063 45.07364655 48.94493866 43.71383286 47.06820679" stroke-width="0.44510296" fill="rgb(255, 255, 255)" opacity="1.0" stroke="rgb(175, 164, 139)" stroke-opacity="0.6318451" stroke-linecap="round" stroke-linejoin="round"/>
    <path d="M 197.64408875 59.02357101 C 197.61235046 59.20852280 197.61744690 59.36356354 197.61920166 59.55439758 C 197.61308289 59.69058990 197.62515259 59.83842850 197.65682983 59.98103714 C 197.65509033 60.08398056 197.65090942 60.16968155 197.61045837 60.23646164 C 197.59211731 60.27482224 197.51814270 60.29465485 197.54179382 60.34235382 C 197.54092407 60.35746765 197.52217102 60.37074280 197.53112793 60.38083649 C 197.52551270 60.31082916 197.50805664 60.28114319 197.48368835 60.21242523 C 197.52886963 60.17786026 197.52983093 60.10107040 197.51176453 60.07867813 C 197.51240540 59.96961975 197.43278503 59.94690323 197.38978577 59.79148483 C 197.37280273 59.70233536 197.35301208 59.55672073 197.40219116 59.45786667 C 197.43933105 59.32975769 197.43408203 59.19198227 197.64408875 59.02357101" stroke-width="2.00000000" fill="rgb(240, 254, 255)" opacity="1.0" stroke="rgb(8, 5, 10)" stroke-opacity="0.6585489" stroke-linecap="round" stroke-linejoin="round"/>
    <path d="M 351.49066162 71.74889374 C 351.49530029 71.78989410 351.48849487 71.76855469 351.49453735 71.75565338 C 351.51080322 71.79447937 351.46398926 71.75690460 351.50411987 71.76296997 C 351.52764893 71.79439545 351.46670532 71.75926971 351.49783325 71.76260376 C 351.51669312 71.77841949 351.48507690 71.77020264 351.48358154 71.76383972 C 351.52087402 71.77442932 351.48770142 71.77046204 351.50146484 71.77131653 C 351.48321533 71.77564240 351.52398682 71.76451111 351.47625732 71.77282715 C 351.49371338 71.77763367 351.51647949 71.75868225 351.47937012 71.77611542 C 351.50021362 71.77176666 351.50973511 71.76067352 351.47009277 71.77489471 C 351.52642822 71.77011108 351.47158813 71.76192474 351.51223755 71.77860260 C 351.49108887 71.74929810 351.49612427 71.79104614 351.49066162 71.74889374" stroke-width="0.00000000" fill="rgb(0, 0, 0)" opacity="1.0" stroke="rgb(81, 94, 133)" stroke-opacity="1.0" stroke-linecap="round" stroke-linejoin="round"/>
    <path d="M 144.95146179 83.09814453 C 145.45684814 83.41956329 145.94573975 83.71026611 146.25379944 84.19255066 C 146.52137756 84.68318176 146.72479248 85.12887573 146.80506897 85.47776031 C 146.81880188 85.76110840 146.76666260 86.07538605 146.68798828 86.37815857 C 146.66584778 86.82093048 146.64964294 87.17520142 146.54023743 87.40118408 C 146.44183350 87.51062775 146.28649902 87.54016876 146.03251648 87.44188690 C 145.71409607 87.29383850 145.26138306 87.16624451 144.85179138 86.99504089 C 144.50535583 86.64684296 144.12071228 86.25509644 143.72586060 85.95409393 C 143.28129578 85.68126678 142.86131287 85.33168030 142.52986145 84.88896179 C 142.34275818 84.34854126 142.06715393 83.74568176 141.62863159 83.10504150 C 141.16816711 82.66629028 140.81140137 82.05436707 144.95146179 83.09814453" stroke-width="0.50409949" fill="rgb(240, 242, 244)" opacity="1.0" stroke="rgb(240, 239, 246)" stroke-opacity="0.30450565" stroke-linecap="round" stroke-linejoin="round"/>
    <path d="M 399.61456299 24.62324333 C 399.92675781 24.85165215 400.15658569 25.21017265 400.40267944 25.59626579 C 400.56253052 25.92725182 400.63284302 26.30837822 400.57073975 26.56763268 C 400.49874878 26.65986061 400.42718506 26.61962509 400.29058838 26.57574844 C 400.18511963 26.62452888 400.10668945 26.62726784 400.02331543 26.65514565 C 399.90960693 26.69787788 399.75781250 26.69774628 399.56375122 26.75337791 C 399.51303101 26.76850510 399.48083496 26.67893600 399.46234131 26.57606125 C 399.48190308 26.52448463 399.34747314 26.51293373 399.17837524 26.37088013 C 399.05569458 26.17763138 398.84930420 26.03283501 398.57009888 25.98251343 C 398.30047607 25.90434265 398.09039307 25.74754906 397.86294556 25.51889801 C 397.59207153 25.20017433 397.18621826 24.94337082 399.61456299 24.62324333" stroke-width="1.99129927" fill="rgb(95, 105, 147)" opacity="1.0" stroke="rgb(23, 7, 0)" stroke-opacity="0.29560313" stroke-linecap="round" stroke-linejoin="round"/>
    <path d="M 200.91049194 62.69094467 C 200.13818359 62.40521240 199.46351624 61.91194916 198.90238953 61.42521667 C 198.41925049 60.95312881 198.03340149 60.52446747 197.71673584 60.20133972 C 197.41217041 59.98630905 197.32478333 59.84160233 197.41473389 59.61267853 C 197.58145142 59.35625076 197.82022095 59.10129547 198.09245300 58.90773773 C 198.54785156 58.70602417 198.89646912 58.47866440 199.18350220 58.58142090 C 199.56527710 58.70817184 200.05921936 58.96581650 200.36598206 59.53385925 C 200.80300903 60.10231781 201.27613831 60.53061295 201.65087891 60.88706589 C 202.10971069 61.17552948 202.52085876 61.57815933 202.84115601 61.97193146 C 202.92796326 62.13645935 202.75360107 62.17131424 202.44924927 62.49156570 C 202.00863647 63.06397247 201.61427307 63.60513687 200.91049194 62.69094467" stroke-width="0.54858452" fill="rgb(240, 244, 248)" opacity="1.0" stroke="rgb(175, 177, 180)" stroke-opacity="0.9175585" stroke-linecap="round" stroke-linejoin="round"/>
    <path d="M 351.58401489 73.55028534 C 351.09768677 73.08355713 350.36697388 72.70485687 349.63259888 72.25163269 C 349.17416382 71.58119202 348.77294922 70.85958862 348.42086792 70.31864929 C 348.12689209 69.85324860 348.05456543 69.22010803 348.20227051 68.60592651 C 348.51562500 68.42758179 348.83776855 68.45522308 349.17837524 68.51122284 C 349.46411133 68.60626221 349.81497192 68.54306030 350.15347290 68.74578094 C 350.26818848 69.16456604 350.26129150 69.61185455 350.56011963 69.87721252 C 350.93362427 69.93662262 351.48181152 70.01795197 351.94897461 70.21219635 C 352.09094238 70.52182770 352.39788818 70.66690063 352.68753052 71.08073425 C 353.00344849 71.61080933 353.45593262 72.30174255 353.82708740 73.04207611 C 354.15499878 73.75296783 354.60382080 74.60043335 351.58401489 73.55028534" stroke-width="0.40657797" fill="rgb(239, 250, 253)" opacity="1.0" stroke="rgb(195, 182, 164)" stroke-opacity="0.6296371" stroke-linecap="round" stroke-linejoin="round"/>
    <path d="M 398.77590942 26.05550003 C 398.20297241 25.32104874 397.44567871 24.86365891 396.87277222 24.49098587 C 396.44979858 23.96499825 396.11068726 23.62674522 395.63143921 23.21669197 C 395.38635254 22.67342377 395.20089722 22.20719147 395.47363281 21.99029922 C 395.94049072 21.77016640 396.37759399 21.67016983 396.76943970 21.66232872 C 397.15344238 21.69490242 397.55599976 21.73444557 397.96832275 21.90446663 C 398.34918213 22.15871620 398.71932983 22.50323296 399.03784180 22.82812119 C 399.34994507 23.25493240 399.58178711 23.80798721 399.74127197 24.30517769 C 399.98983765 24.73681831 400.21957397 25.13306999 400.46780396 25.43265152 C 400.87951660 25.51036072 401.25149536 25.49636269 401.56570435 25.65592575 C 401.91818237 25.99592400 402.00860596 26.53444290 398.77590942 26.05550003" stroke-width="0.37838775" fill="rgb(234, 242, 248)" opacity="1.0" stroke="rgb(193, 193, 195)" stroke-opacity="0.5378214" stroke-linecap="round" stroke-linejoin="round"/>
  </g>
</svg>
