<svg xmlns="http://www.w3.org/2000/svg" viewBox="0 0 512 512" height="512.0px" width="512.0px">
<path id="" fill="#e6f3ff" fill-opacity="1.0" stroke="#000000" stroke-width="0.0" stroke-opacity="1.0" stroke-linecap="round" stroke-linejoin="round"  filling="0" d="M0.000000 340.000000 C170.666672 340.000000 341.333313 340.000000 512.000000 340.000000 C512.000000 397.333344 512.000000 454.666656 512.000000 512.000000 C341.333313 512.000000 170.666672 512.000000 0.000000 512.000000 C0.000000 454.666656 0.000000 397.333344 0.000000 340.000000"></path>
<path id="" fill="#d6e9ff" fill-opacity="1.0" stroke="#000000" stroke-width="0.0" stroke-opacity="1.0" stroke-linecap="round" stroke-linejoin="round"  filling="0" d="M50.000000 360.000000 C60.000000 366.666656 70.000000 373.333344 80.000000 380.000000 C63.333332 383.333344 46.666668 386.666656 30.000000 390.000000 C36.666668 380.000000 43.333332 370.000000 50.000000 360.000000"></path>
<path id="" fill="#d6e9ff" fill-opacity="1.0" stroke="#000000" stroke-width="0.0" stroke-opacity="1.0" stroke-linecap="round" stroke-linejoin="round"  filling="0" d="M200.000000 370.000000 C210.000000 376.666656 220.000000 383.333344 230.000000 390.000000 C213.333328 393.333344 196.666672 396.666656 180.000000 400.000000 C186.666672 390.000000 193.333328 380.000000 200.000000 370.000000"></path>
<path id="" fill="#d6e9ff" fill-opacity="1.0" stroke="#000000" stroke-width="0.0" stroke-opacity="1.0" stroke-linecap="round" stroke-linejoin="round"  filling="0" d="M400.000000 350.000000 C410.000000 356.666656 420.000000 363.333344 430.000000 370.000000 C413.333344 373.333344 396.666656 376.666656 380.000000 380.000000 C386.666656 370.000000 393.333344 360.000000 400.000000 350.000000"></path>
<path id="" fill="#d6e9ff" fill-opacity="1.0" stroke="#000000" stroke-width="0.0" stroke-opacity="1.0" stroke-linecap="round" stroke-linejoin="round"  filling="0" d="M100.000000 400.000000 C110.000000 406.666656 120.000000 413.333344 130.000000 420.000000 C113.333328 423.333344 96.666672 426.666656 80.000000 430.000000 C86.666664 420.000000 93.333336 410.000000 100.000000 400.000000"></path>
<path id="" fill="#d6e9ff" fill-opacity="1.0" stroke="#000000" stroke-width="0.0" stroke-opacity="1.0" stroke-linecap="round" stroke-linejoin="round"  filling="0" d="M300.000000 410.000000 C310.000000 416.666656 320.000000 423.333344 330.000000 430.000000 C313.333344 433.333344 296.666656 436.666656 280.000000 440.000000 C286.666656 430.000000 293.333344 420.000000 300.000000 410.000000"></path>
<path id="" fill="#000000" fill-opacity="1.0" stroke="#000000" stroke-width="0.0" stroke-opacity="1.0" stroke-linecap="round" stroke-linejoin="round"  filling="0" d="M316.000000 266.000000 C316.000000 287.209167 309.674255 307.571381 298.426392 322.568542 C287.178528 337.565704 271.906891 346.000000 256.000000 346.000000 C240.093109 346.000000 224.821457 337.565704 213.573593 322.568542 C202.325729 307.571381 196.000000 287.209198 196.000000 266.000000 C196.000000 244.790817 202.325729 224.428619 213.573593 209.431458 C224.821457 194.434296 240.093109 186.000000 256.000000 186.000000 C271.906891 186.000000 287.178528 194.434311 298.426392 209.431458 C309.674255 224.428619 316.000000 244.790802 316.000000 266.000000"></path>
<path id="" fill="#f0f0f0" fill-opacity="1.0" stroke="#000000" stroke-width="0.0" stroke-opacity="1.0" stroke-linecap="round" stroke-linejoin="round"  filling="0" d="M306.000000 286.000000 C306.000000 304.558044 300.728577 322.374969 291.355347 335.497467 C281.982117 348.619965 269.255737 356.000000 256.000000 356.000000 C242.744263 356.000000 230.017883 348.619965 220.644653 335.497467 C211.271423 322.374939 206.000000 304.558044 206.000000 286.000000 C206.000000 267.441956 211.271439 249.625046 220.644653 236.502533 C230.017883 223.380020 242.744263 216.000000 256.000000 216.000000 C269.255737 216.000000 281.982117 223.380005 291.355347 236.502518 C300.728577 249.625031 306.000000 267.441956 306.000000 286.000000"></path>
<path id="" fill="#000000" fill-opacity="1.0" stroke="#000000" stroke-width="0.0" stroke-opacity="1.0" stroke-linecap="round" stroke-linejoin="round"  filling="0" d="M296.000000 176.000000 C296.000000 186.604584 291.782837 196.785690 284.284271 204.284271 C276.785706 211.782852 266.604584 216.000000 256.000000 216.000000 C245.395416 216.000000 235.214310 211.782852 227.715729 204.284271 C220.217148 196.785690 216.000000 186.604599 216.000000 176.000000 C216.000000 165.395416 220.217148 155.214310 227.715729 147.715729 C235.214310 140.217148 245.395401 136.000000 256.000000 136.000000 C266.604584 136.000000 276.785706 140.217148 284.284271 147.715729 C291.782867 155.214310 296.000000 165.395401 296.000000 176.000000"></path>
<path id="" fill="#ffa500" fill-opacity="1.0" stroke="#000000" stroke-width="0.0" stroke-opacity="1.0" stroke-linecap="round" stroke-linejoin="round"  filling="0" d="M246.000000 206.000000 C249.333328 209.333328 252.666672 212.666672 256.000000 216.000000 C259.333344 212.666672 262.666656 209.333328 266.000000 206.000000 C259.333344 206.000000 252.666672 206.000000 246.000000 206.000000"></path>
<path id="" fill="#000000" fill-opacity="1.0" stroke="#000000" stroke-width="0.0" stroke-opacity="1.0" stroke-linecap="round" stroke-linejoin="round"  filling="0" d="M196.000000 246.000000 C189.333328 262.666656 182.666672 279.333344 176.000000 296.000000 C182.666672 312.666656 189.333328 329.333344 196.000000 346.000000 C196.000000 312.666656 196.000000 279.333344 196.000000 246.000000"></path>
<path id="" fill="#000000" fill-opacity="1.0" stroke="#000000" stroke-width="0.0" stroke-opacity="1.0" stroke-linecap="round" stroke-linejoin="round"  filling="0" d="M316.000000 246.000000 C322.666656 262.666656 329.333344 279.333344 336.000000 296.000000 C329.333344 312.666656 322.666656 329.333344 316.000000 346.000000 C316.000000 312.666656 316.000000 279.333344 316.000000 246.000000"></path>
<path id="" fill="#ffa500" fill-opacity="1.0" stroke="#000000" stroke-width="0.0" stroke-opacity="1.0" stroke-linecap="round" stroke-linejoin="round"  filling="0" d="M226.000000 356.000000 C232.666672 356.000000 239.333328 356.000000 246.000000 356.000000 C242.666672 362.666656 239.333328 369.333344 236.000000 376.000000 C232.666672 369.333344 229.333328 362.666656 226.000000 356.000000"></path>
<path id="" fill="#ffa500" fill-opacity="1.0" stroke="#000000" stroke-width="0.0" stroke-opacity="1.0" stroke-linecap="round" stroke-linejoin="round"  filling="0" d="M266.000000 356.000000 C272.666656 356.000000 279.333344 356.000000 286.000000 356.000000 C282.666656 362.666656 279.333344 369.333344 276.000000 376.000000 C272.666656 369.333344 269.333344 362.666656 266.000000 356.000000"></path>
<path id="" fill="#ffffff" fill-opacity="1.0" stroke="#000000" stroke-width="0.0" stroke-opacity="1.0" stroke-linecap="round" stroke-linejoin="round"  filling="0" d="M246.000000 171.000000 C246.000000 172.325577 245.472855 173.598221 244.535538 174.535538 C243.598221 175.472855 242.325577 176.000000 241.000000 176.000000 C239.674423 176.000000 238.401779 175.472855 237.464462 174.535538 C236.527145 173.598221 236.000000 172.325577 236.000000 171.000000 C236.000000 169.674423 236.527145 168.401779 237.464462 167.464462 C238.401779 166.527145 239.674423 166.000000 241.000000 166.000000 C242.325577 166.000000 243.598221 166.527145 244.535538 167.464462 C245.472855 168.401779 246.000000 169.674423 246.000000 171.000000"></path>
<path id="" fill="#ffffff" fill-opacity="1.0" stroke="#000000" stroke-width="0.0" stroke-opacity="1.0" stroke-linecap="round" stroke-linejoin="round"  filling="0" d="M276.000000 171.000000 C276.000000 172.325577 275.472839 173.598221 274.535522 174.535538 C273.598206 175.472855 272.325562 176.000000 271.000000 176.000000 C269.674438 176.000000 268.401794 175.472855 267.464478 174.535538 C266.527161 173.598221 266.000000 172.325577 266.000000 171.000000 C266.000000 169.674423 266.527161 168.401779 267.464478 167.464462 C268.401794 166.527145 269.674438 166.000000 271.000000 166.000000 C272.325562 166.000000 273.598206 166.527145 274.535522 167.464462 C275.472839 168.401779 276.000000 169.674423 276.000000 171.000000"></path>
</svg>