<svg viewBox="0 0 512 512" xmlns="http://www.w3.org/2000/svg">
  <!-- Ice sheet base -->
  <rect x="0" y="340" width="512" height="172" fill="#e6f3ff"/>
  <!-- Ice texture -->
  <polygon points="50,360 80,380 30,390" fill="#d6e9ff"/>
  <polygon points="200,370 230,390 180,400" fill="#d6e9ff"/>
  <polygon points="400,350 430,370 380,380" fill="#d6e9ff"/>
  <polygon points="100,400 130,420 80,430" fill="#d6e9ff"/>
  <polygon points="300,410 330,430 280,440" fill="#d6e9ff"/>
  <!-- Penguin body -->
  <ellipse cx="256" cy="266" rx="60" ry="80" fill="#000000"/>
  <!-- Penguin belly -->
  <ellipse cx="256" cy="286" rx="50" ry="70" fill="#f0f0f0"/>
  <!-- Penguin head -->
  <circle cx="256" cy="176" r="40" fill="#000000"/>
  <!-- Penguin beak -->
  <polygon points="246,206 256,216 266,206" fill="#ffa500"/>
  <!-- Penguin left flipper -->
  <polygon points="196,246 176,296 196,346" fill="#000000"/>
  <!-- Penguin right flipper -->
  <polygon points="316,246 336,296 316,346" fill="#000000"/>
  <!-- Penguin left foot -->
  <polygon points="226,356 246,356 236,376" fill="#ffa500"/>
  <!-- Penguin right foot -->
  <polygon points="266,356 286,356 276,376" fill="#ffa500"/>
  <!-- Penguin left eye -->
  <circle cx="241" cy="171" r="5" fill="#ffffff"/>
  <!-- Penguin right eye -->
  <circle cx="271" cy="171" r="5" fill="#ffffff"/>
</svg>