<?xml version="1.0" ?>
<svg xmlns="http://www.w3.org/2000/svg" version="1.1" width="512" height="512" viewBox="0 0 512 512">
  <defs/>
  <g>
    <path d="M 582.17108154 482.08407593 C 568.38006592 487.91162109 554.60028076 493.72216797 540.81152344 499.56106567 C 526.98803711 505.32626343 513.11505127 511.07012939 499.18530273 516.69873047 C 485.11886597 522.24554443 470.96765137 527.63702393 456.65621948 532.92370605 C 442.15335083 537.98297119 427.46658325 542.86077881 412.58987427 547.46228027 C 397.43087769 551.81622314 382.05484009 555.86895752 366.41629028 559.57440186 C 350.50320435 562.94494629 334.34469604 565.94635010 317.90597534 568.55230713 C 301.20947266 570.75323486 284.29660034 572.50958252 267.13122559 573.83245850 C 249.75653076 574.64318848 232.23806763 574.97973633 214.55976868 574.74597168 C 196.82525635 573.98895264 179.05183411 572.63934326 161.31828308 570.73352051 C 143.68542480 568.18542480 126.23464203 565.05102539 109.08505249 561.27935791 C 92.28308105 556.91949463 75.95983124 551.86505127 60.22597885 546.12768555 C 45.25274658 539.63177490 31.21874809 532.29150391 18.33346748 524.00616455 C 6.78921843 514.68121338 -3.26781344 504.26556396 -11.74549198 492.79956055 C -18.70993042 480.52105713 -24.21023369 467.63555908 -28.32846260 454.35211182 C -31.18434525 440.91650391 -32.81555557 427.47268677 -33.25463486 414.17947388 C -32.46817398 401.23294067 -30.44981194 388.87814331 -27.18106461 377.34707642 C -22.59869957 366.88882446 -16.64422798 357.73291016 -9.24941826 350.23422241 C -0.25482300 344.76101685 10.39781094 341.59442139 22.66240120 340.45877075 C 36.40689468 340.42007446 51.35385132 340.60699463 67.28646088 340.71862793 C 84.03726959 340.74020386 101.39042664 340.71115112 119.23952484 340.66259766 C 137.47518921 340.64770508 155.96656799 340.65307617 174.59570312 340.63183594 C 193.31645203 340.55194092 212.03315735 340.42126465 230.65728760 340.28930664 C 249.15504456 340.17553711 267.47732544 340.08563232 285.53408813 340.12023926 C 303.34082031 340.26669312 320.85800171 340.48507690 338.04898071 340.63607788 C 354.94128418 340.67813110 371.48474121 340.69879150 387.73098755 340.69915771 C 403.63534546 340.71621704 419.25796509 340.72207642 434.58285522 340.70651245 C 449.62908936 340.69052124 464.45999146 340.69418335 479.04183960 340.70080566 C 493.46987915 340.70675659 507.71636963 340.86480713 521.86096191 341.27890015 C 535.89538574 341.87548828 549.87835693 342.56668091 563.82922363 343.32412720 C 577.78997803 344.06854248 591.71923828 344.80865479 582.17108154 482.08407593" stroke-width="2.00000000" fill="rgb(231, 245, 248)" opacity="1.0" stroke="rgb(230, 250, 253)" stroke-opacity="0.033423744" stroke-linecap="round" stroke-linejoin="round"/>
    <path d="M 68.52261353 368.56112671 C 69.43827057 370.11523438 70.33421326 371.58892822 71.17183685 373.04318237 C 71.89579773 374.47134399 72.44951630 375.85620117 72.94970703 377.17663574 C 73.28894043 378.41275024 73.51069641 379.57852173 73.58671570 380.64657593 C 73.52004242 381.57971191 73.28109741 382.42248535 72.79972839 383.06454468 C 72.10444641 383.50976562 71.15309906 383.80566406 70.00096893 383.94650269 C 68.66605377 383.99908447 67.14582062 384.01071167 65.50925446 383.99334717 C 63.71784592 383.96826172 61.85707855 383.98168945 59.91734695 383.98300171 C 57.91604614 383.98168945 55.89682770 383.99462891 53.86531830 384.01818848 C 51.85406876 384.00643921 49.86982346 383.99606323 47.95182037 384.00637817 C 46.13932419 384.00442505 44.42731094 384.01824951 42.86556244 384.03167725 C 41.49486923 383.96310425 40.32904434 383.80920410 39.39540100 383.48532104 C 38.74221039 382.95425415 38.32650375 382.22369385 38.13984680 381.29571533 C 38.16076660 380.20285034 38.35180283 379.02166748 38.65459824 377.72274780 C 39.10916519 376.36614990 39.65140915 374.94375610 40.32561493 373.51547241 C 41.10738754 372.11853027 41.95108414 370.73596191 42.84898376 369.42160034 C 43.82770157 368.17584229 44.83232117 367.02499390 45.86542511 365.94342041 C 46.91564941 364.93408203 47.96558380 364.01617432 49.08855057 363.23171997 C 50.21915436 362.57446289 51.39411163 362.04696655 52.59886169 361.70172119 C 53.84291840 361.56573486 55.15374374 361.56146240 56.51282501 361.64758301 C 57.90814590 361.71755981 59.40258408 361.73751831 68.52261353 368.56112671" stroke-width="1.08671689" fill="rgb(189, 232, 245)" opacity="1.0" stroke="rgb(214, 241, 247)" stroke-opacity="0.99921924" stroke-linecap="round" stroke-linejoin="round"/>
    <path d="M 221.62518311 393.45578003 C 220.37879944 393.51354980 219.13688660 393.60382080 217.90081787 393.65792847 C 216.62524414 393.65316772 215.32353210 393.62954712 214.02435303 393.60366821 C 212.66015625 393.56970215 211.26991272 393.65231323 209.87103271 393.73608398 C 208.43244934 393.77136230 206.96110535 393.76696777 205.48358154 393.71527100 C 203.97990417 393.66699219 202.45193481 393.67309570 200.93972778 393.73263550 C 199.43165588 393.75418091 197.94740295 393.75628662 196.54222107 393.74935913 C 195.21769714 393.75079346 194.00283813 393.72546387 192.95625305 393.65490723 C 192.14004517 393.42373657 191.55654907 392.99627686 191.23445129 392.34762573 C 191.08030701 391.48709106 191.04742432 390.44515991 191.16418457 389.29010010 C 191.37390137 388.02359009 191.74948120 386.70037842 192.25692749 385.37277222 C 192.85968018 384.04434204 193.58987427 382.72387695 194.38606262 381.41442871 C 195.18508911 380.10848999 196.00230408 378.80819702 196.80865479 377.60076904 C 197.69551086 376.44360352 198.60121155 375.40136719 199.55722046 374.53527832 C 200.60893250 373.87313843 201.74003601 373.41885376 202.96913147 373.17803955 C 204.24827576 373.08038330 205.53228760 373.09674072 206.84965515 373.19860840 C 208.14772034 373.38809204 209.44206238 373.68682861 210.71287537 374.15661621 C 211.90803528 374.75109863 213.02330017 375.50167847 214.12670898 376.38131714 C 215.12153625 377.38378906 216.12541199 378.48629761 217.09104919 379.69082642 C 218.04241943 380.92913818 218.99188232 382.24765015 219.95556641 383.60549927 C 220.93161011 384.99215698 221.95095825 386.38745117 221.62518311 393.45578003" stroke-width="1.72295094" fill="rgb(190, 233, 245)" opacity="1.0" stroke="rgb(224, 246, 250)" stroke-opacity="1.0" stroke-linecap="round" stroke-linejoin="round"/>
    <path d="M 419.19061279 374.41320801 C 418.02783203 374.47671509 416.79760742 374.53445435 415.58993530 374.60449219 C 414.36392212 374.62265015 413.06262207 374.62429810 411.75790405 374.62734985 C 410.41519165 374.65075684 408.99990845 374.68270874 407.56277466 374.69781494 C 406.10610962 374.70172119 404.62298584 374.68469238 403.12692261 374.64205933 C 401.61694336 374.58041382 400.11056519 374.56549072 398.63360596 374.53244019 C 397.19357300 374.52658081 395.80935669 374.58764648 394.52291870 374.63323975 C 393.30191040 374.64324951 392.23889160 374.56838989 391.31787109 374.37747192 C 390.57760620 374.04434204 390.01119995 373.57394409 389.67791748 372.95806885 C 389.51986694 372.19000244 389.54440308 371.29409790 389.77969360 370.32580566 C 390.16793823 369.24972534 390.66665649 368.09249878 391.22573853 366.85366821 C 391.83621216 365.56039429 392.48831177 364.24731445 393.15612793 362.92590332 C 393.86035156 361.61395264 394.63336182 360.35928345 395.47985840 359.21112061 C 396.43554688 358.15609741 397.39569092 357.17886353 398.34445190 356.32470703 C 399.35092163 355.62316895 400.35534668 355.10473633 401.35421753 354.75521851 C 402.38690186 354.61267090 403.45288086 354.66635132 404.53192139 354.91821289 C 405.65383911 355.34088135 406.75775146 355.84469604 407.86758423 356.39218140 C 408.98510742 357.03173828 410.04412842 357.76184082 411.07952881 358.62554932 C 412.07778931 359.58572388 413.00546265 360.62258911 413.90802002 361.76440430 C 414.78283691 362.94085693 415.65856934 364.17922974 416.52938843 365.43911743 C 417.44357300 366.67971802 418.35614014 367.94641113 419.19061279 374.41320801" stroke-width="1.09389067" fill="rgb(189, 234, 245)" opacity="1.0" stroke="rgb(203, 235, 241)" stroke-opacity="0.97189885" stroke-linecap="round" stroke-linejoin="round"/>
    <path d="M 115.18718719 415.50079346 C 115.64825439 416.48104858 116.12245178 417.48690796 116.54652405 418.45153809 C 116.95609283 419.40359497 117.29464722 420.31948853 117.49227905 421.20584106 C 117.53098297 422.06777954 117.48701477 422.86862183 117.34149933 423.61477661 C 117.05644989 424.20166016 116.64492798 424.63043213 115.99468994 424.90145874 C 115.15444183 424.99407959 114.11836243 425.00192261 112.93022156 424.95816040 C 111.60178375 424.94360352 110.14048767 424.95388794 108.60929871 424.95938110 C 106.96840668 424.96731567 105.30376434 424.95288086 103.57395172 424.93624878 C 101.82915497 424.91058350 100.06980133 424.90820312 98.32656860 424.94552612 C 96.62249756 424.99456787 94.98582458 425.07250977 93.41170502 425.13031006 C 91.96145630 425.10284424 90.66452789 425.04220581 89.48803711 424.91864014 C 88.53927612 424.64532471 87.77458954 424.19793701 87.26438141 423.62130737 C 86.93213654 422.85568237 86.80710602 421.91680908 86.87068176 420.89114380 C 87.05959320 419.74520874 87.39642334 418.52828979 87.88790131 417.27517700 C 88.43250275 415.99447632 89.15000153 414.70806885 89.89958191 413.46249390 C 90.72553253 412.23071289 91.57038879 411.00897217 92.43279266 409.83508301 C 93.32491302 408.74993896 94.21660614 407.70187378 95.07750702 406.78451538 C 95.96282196 405.98803711 96.88497162 405.41635132 97.88947296 405.02041626 C 98.93436432 404.86428833 100.08215332 404.92666626 101.31529999 405.13446045 C 102.58081818 405.45120239 103.93205261 405.86337280 105.35365295 406.33206177 C 106.79673767 406.72076416 108.30282593 407.10150146 115.18718719 415.50079346" stroke-width="1.21749377" fill="rgb(188, 232, 245)" opacity="1.0" stroke="rgb(214, 241, 248)" stroke-opacity="0.998625" stroke-linecap="round" stroke-linejoin="round"/>
    <path d="M 319.61074829 431.81182861 C 317.86819458 431.88708496 316.13507080 431.94763184 314.38357544 431.96005249 C 312.63131714 431.97427368 310.87002563 431.98770142 309.10061646 431.97137451 C 307.32604980 431.96264648 305.54614258 431.96694946 303.76931763 431.96249390 C 301.99090576 431.93963623 300.22216797 431.95645142 298.47131348 431.95486450 C 296.76287842 431.94531250 295.11901855 431.96621704 293.53884888 431.97326660 C 292.08895874 432.00103760 290.72875977 432.01705933 289.55239868 431.99716187 C 288.56179810 431.87713623 287.75942993 431.58538818 287.18945312 431.10729980 C 286.88137817 430.40698242 286.75942993 429.52270508 286.83041382 428.48498535 C 287.03100586 427.27542114 287.35678101 425.99563599 287.80761719 424.64480591 C 288.38131714 423.20053101 289.04995728 421.72601318 289.79959106 420.26712036 C 290.65093994 418.82308960 291.56918335 417.41931152 292.58105469 416.07815552 C 293.65014648 414.87802124 294.79244995 413.75006104 295.97521973 412.76870728 C 297.23260498 411.95660400 298.52752686 411.30703735 299.87701416 410.84378052 C 301.22988892 410.55496216 302.63153076 410.47967529 304.02804565 410.54205322 C 305.39801025 410.77059937 306.80139160 411.13314819 308.11312866 411.62924194 C 309.42669678 412.23413086 310.71279907 412.92898560 311.92623901 413.74734497 C 313.09536743 414.62692261 314.21130371 415.57312012 315.27362061 416.60397339 C 316.23016357 417.66537476 317.08294678 418.84161377 317.80999756 420.13534546 C 318.43164062 421.49530029 319.00021362 422.91928101 319.58264160 424.37973022 C 320.18276978 425.84713745 320.80386353 427.32897949 319.61074829 431.81182861" stroke-width="1.08895111" fill="rgb(189, 233, 245)" opacity="1.0" stroke="rgb(214, 241, 247)" stroke-opacity="0.9973861" stroke-linecap="round" stroke-linejoin="round"/>
    <path d="M 268.79135132 350.96319580 C 264.19317627 349.29550171 259.65817261 347.61227417 255.15763855 345.93377686 C 250.59106445 344.28387451 246.04731750 342.59466553 241.65139771 340.78540039 C 237.33877563 338.89590454 233.09675598 336.96221924 229.00987244 334.95248413 C 225.09385681 332.85638428 221.29258728 330.75833130 217.63215637 328.65795898 C 214.17828369 326.55920410 211.23390198 324.20639038 209.36547852 320.88449097 C 207.72314453 316.84744263 206.15509033 312.40438843 204.75010681 307.48159790 C 203.57026672 302.11624146 202.04199219 296.69964600 201.20222473 291.01947021 C 200.11822510 285.13708496 198.97656250 279.20031738 197.59147644 273.31524658 C 196.48056030 267.49441528 195.88322449 261.70571899 196.04341125 256.47491455 C 197.46781921 251.57226562 198.74851990 246.60554504 199.94033813 241.43402100 C 201.43254089 236.27073669 203.18191528 231.12127686 205.75253296 226.37145996 C 207.97772217 221.21047974 210.85374451 216.37339783 214.08796692 211.76147461 C 216.93516541 207.06278992 219.93530273 202.58441162 223.13310242 198.40782166 C 226.41275024 194.48930359 229.83946228 190.88665771 233.48150635 187.74368286 C 237.13267517 184.94151306 240.86929321 182.47636414 244.71321106 180.50628662 C 248.63476562 179.01921082 252.62432861 177.99174500 256.61996460 177.38589478 C 260.55099487 177.22918701 264.35620117 177.58601379 268.05648804 178.39341736 C 271.72058105 179.64538574 275.30828857 181.35522461 278.75030518 183.46688843 C 282.00524902 186.02777100 285.01556396 188.98637390 287.69497681 192.30772400 C 289.95367432 195.96165466 291.90020752 199.93246460 293.65118408 204.05274963 C 296.15045166 207.91520691 298.70028687 211.81677246 301.45501709 215.69827271 C 304.14804077 219.58891296 306.03759766 224.06492615 308.13745117 228.55511475 C 310.22552490 233.04724121 311.92831421 237.80676270 313.23785400 242.72685242 C 314.66009521 247.47883606 315.93908691 252.18659973 316.17486572 257.07574463 C 315.77651978 262.20132446 314.81640625 267.47317505 313.96524048 272.92654419 C 313.52728271 278.28305054 313.26153564 283.57324219 312.06469727 288.55728149 C 311.52499390 293.46960449 310.60284424 298.48696899 309.19277954 303.48037720 C 307.19372559 308.67645264 305.58572388 314.09338379 303.44189453 319.09768677 C 300.39944458 323.31915283 297.22671509 327.39987183 294.13214111 331.54339600 C 291.02899170 335.66564941 287.91403198 339.75372314 268.79135132 350.96319580" stroke-width="0.69390786" fill="rgb(1, 1, 2)" opacity="1.0" stroke="rgb(0, 0, 0)" stroke-opacity="0.50009495" stroke-linecap="round" stroke-linejoin="round"/>
    <path d="M 303.47155762 305.13455200 C 303.20233154 308.37261963 302.52462769 311.36788940 301.23266602 314.37161255 C 300.52832031 317.78704834 300.03860474 321.40161133 299.95285034 325.01422119 C 298.86978149 328.56195068 297.08618164 332.07211304 295.01593018 335.49884033 C 292.48379517 338.84933472 289.70532227 342.16122437 286.72445679 345.26947021 C 283.58880615 348.07818604 280.16061401 350.52188110 276.43557739 352.60977173 C 272.49121094 354.32141113 268.42892456 355.61239624 264.25805664 356.47650146 C 259.95986938 357.03747559 255.62875366 357.40408325 251.28829956 357.58557129 C 246.97053528 357.60644531 242.71514893 357.28463745 238.58979797 356.53845215 C 234.70968628 355.33401489 231.15542603 353.71029663 227.93736267 351.65560913 C 224.95817566 349.12942505 222.29058838 346.09069824 219.92247009 342.61560059 C 217.80178833 338.86209106 215.83032227 334.89562988 214.13497925 330.60818481 C 213.09796143 326.13525391 212.15766907 321.54486084 211.58415222 316.91552734 C 210.31034851 312.85794067 209.52301025 308.57736206 209.03230286 304.43594360 C 208.20208740 300.19607544 207.81408691 295.89639282 207.72817993 291.52987671 C 207.37890625 287.23321533 207.45555115 283.04666138 207.77615356 279.05178833 C 208.67642212 275.22033691 209.48056030 271.64593506 209.92851257 267.83322144 C 210.63470459 263.94281006 211.36256409 259.84613037 212.62600708 255.62875366 C 214.16064453 251.41247559 216.00053406 247.16711426 218.04158020 243.00100708 C 220.28515625 238.93023682 222.80070496 235.12954712 225.74774170 231.72836304 C 228.61145020 228.42886353 231.83772278 225.68609619 235.23043823 223.28833008 C 238.43226624 220.97563171 242.04972839 219.71278381 246.04344177 218.77053833 C 250.03021240 217.69526672 253.96141052 216.91662598 257.91482544 216.91683960 C 261.84906006 217.43615723 265.82229614 218.64758301 269.64199829 220.00746155 C 273.37539673 221.60437012 276.91351318 223.59832764 280.39300537 225.67388916 C 283.62371826 228.15852356 286.41036987 230.96824646 288.70294189 234.30584717 C 291.24563599 237.48956299 293.58294678 240.69566345 295.37643433 244.36621094 C 297.18048096 248.26982117 298.92541504 252.23751831 300.39053345 256.59579468 C 301.37231445 261.08938599 302.73797607 265.66018677 303.63211060 270.42584229 C 304.68423462 275.18194580 305.35635376 279.95562744 305.54983521 285.02990723 C 305.37472534 290.24084473 305.56237793 295.44226074 303.47155762 305.13455200" stroke-width="0.61979288" fill="rgb(244, 242, 235)" opacity="1.0" stroke="rgb(244, 244, 242)" stroke-opacity="0.47118217" stroke-linecap="round" stroke-linejoin="round"/>
    <path d="M 273.12268066 217.70492554 C 269.68365479 217.41229248 266.27890015 217.14056396 262.89761353 216.91365051 C 259.56234741 216.69879150 256.20947266 216.62503052 252.92570496 216.28277588 C 249.66317749 215.99133301 246.39717102 215.66967773 243.17599487 215.33221436 C 240.09172058 214.97424316 237.12994385 214.51988220 234.26551819 214.01318359 C 231.54885864 213.44677734 229.01162720 212.72015381 226.69387817 211.80335999 C 224.66728210 210.75126648 223.00848389 209.56925964 221.68286133 208.14492798 C 220.67539978 206.43336487 220.12274170 204.55667114 220.16802979 202.40275574 C 220.52053833 199.79733276 220.82725525 197.06237793 221.12846375 194.36894226 C 220.58789062 191.38104248 220.02980042 188.45249939 218.83056641 185.87115479 C 217.85231018 183.07604980 217.60147095 180.06532288 217.50427246 176.89479065 C 217.22557068 173.84265137 217.49684143 170.96469116 218.11874390 167.91165161 C 218.84384155 164.92781067 219.81227112 162.11616516 221.16687012 159.31239319 C 222.37300110 156.47610474 223.79000854 153.75769043 225.29980469 151.14854431 C 226.92475891 148.88093567 228.97500610 147.00737000 230.81806946 144.86891174 C 233.10800171 143.05091858 235.62577820 141.40173340 238.23381042 140.08648682 C 240.93406677 138.88331604 243.83210754 138.16490173 246.81240845 137.30235291 C 249.64231873 136.61216736 252.47116089 136.08738708 255.49542236 136.12878418 C 258.60571289 136.31335449 261.63085938 136.48851013 264.50949097 136.97250366 C 267.21884155 137.26770020 269.76242065 138.15252686 272.35565186 139.26081848 C 274.90170288 140.37608337 277.26403809 141.70394897 279.57290649 143.15744019 C 281.75418091 144.51094055 283.52612305 146.26768494 285.26306152 148.16557312 C 287.14929199 150.02420044 288.64782715 152.30351257 290.00173950 154.80534363 C 291.21069336 157.42939758 292.60934448 160.14337158 293.67105103 162.95004272 C 294.57861328 165.97041321 295.49072266 169.12026978 295.86499023 172.28460693 C 295.82946777 175.61183167 295.42715454 178.87350464 294.99707031 182.00686646 C 294.83413696 184.65470886 293.70080566 186.90705872 292.87203979 189.49612427 C 292.16287231 192.08845520 291.54220581 194.72567749 291.52474976 197.28652954 C 291.40832520 199.97538757 291.45654297 202.79301453 291.53665161 205.69580078 C 291.64727783 208.62113953 291.72271729 211.56607056 291.75091553 214.52836609 C 291.84777832 217.51731873 292.00320435 220.51609802 273.12268066 217.70492554" stroke-width="0.66882390" fill="rgb(2, 1, 3)" opacity="1.0" stroke="rgb(0, 0, 0)" stroke-opacity="0.5114795" stroke-linecap="round" stroke-linejoin="round"/>
    <path d="M 194.06509399 332.92309570 C 193.74156189 333.37622070 193.56437683 333.84899902 193.31440735 334.12652588 C 192.75769043 334.10848999 192.30142212 334.18273926 191.96121216 334.06634521 C 191.50274658 333.69287109 190.78950500 333.09338379 190.11071777 332.14419556 C 189.42218018 330.76296997 188.54565430 329.16552734 187.53038025 327.41488647 C 186.67658997 325.00952148 185.61164856 322.50854492 184.42008972 319.73181152 C 183.46609497 316.53582764 182.25538635 313.35714722 181.11389160 309.81130981 C 179.99096680 306.43795776 179.51675415 302.72604370 179.11840820 298.97955322 C 178.97093201 295.29077148 179.04212952 291.54440308 179.63433838 288.04489136 C 180.23731995 284.66503906 181.71977234 281.60253906 183.38427734 278.26113892 C 185.10858154 274.95422363 187.00067139 271.80526733 188.84867859 268.79272461 C 190.68292236 266.14987183 191.90039062 263.63507080 193.31785583 261.61093140 C 194.48141479 259.79376221 195.33042908 258.31256104 196.07536316 257.26480103 C 196.21057129 256.25894165 196.32756042 255.65344238 196.53456116 255.59429932 C 196.90592957 256.05300903 197.32406616 256.90704346 197.79264832 258.31069946 C 198.26824951 260.34353638 198.64677429 262.76266479 198.85578918 265.47125244 C 198.87550354 268.58203125 198.75314331 272.10412598 198.38304138 275.86196899 C 197.69001770 279.86819458 197.51377869 284.07577515 197.09616089 288.64578247 C 196.11155701 293.61273193 195.53158569 298.58392334 195.14495850 303.30346680 C 195.31887817 307.50698853 195.06538391 311.18679810 194.55590820 314.68572998 C 194.80291748 318.09945679 194.89506531 321.47695923 194.06509399 332.92309570" stroke-width="0.60338622" fill="rgb(1, 1, 1)" opacity="1.0" stroke="rgb(0, 0, 0)" stroke-opacity="0.438972" stroke-linecap="round" stroke-linejoin="round"/>
    <path d="M 326.48306274 323.81283569 C 325.84606934 326.22552490 324.75054932 328.43051147 323.60223389 330.43969727 C 322.58633423 332.17697144 321.50030518 333.38241577 320.56005859 334.18667603 C 319.79534912 334.12194824 319.13107300 333.61932373 318.67111206 332.73684692 C 318.58004761 331.42260742 318.55224609 329.91915894 318.19268799 328.25335693 C 317.68890381 326.20443726 317.47055054 323.69525146 317.73107910 320.70401001 C 317.54345703 317.15200806 317.53421021 313.04901123 317.46057129 308.65118408 C 317.46606445 304.14114380 317.33450317 299.65548706 317.16705322 295.12731934 C 316.78784180 290.72421265 316.15420532 286.50061035 315.14877319 282.45938110 C 314.50793457 278.58929443 313.70962524 275.02584839 312.98947144 271.52340698 C 312.68209839 268.15301514 312.74252319 264.99780273 313.09411621 262.12185669 C 313.50167847 259.59423828 313.94866943 257.42144775 314.51336670 255.49392700 C 315.16146851 253.92883301 315.68386841 252.91635132 316.04119873 252.46525574 C 316.26849365 252.45460510 316.03601074 252.76251221 316.01232910 253.49641418 C 316.40478516 254.44639587 316.98056030 255.91549683 317.74133301 257.75454712 C 318.70709229 259.89007568 320.16650391 262.11917114 321.60498047 264.54428101 C 323.05123901 267.20245361 324.62936401 269.93820190 326.08767700 272.86767578 C 327.92156982 275.66284180 329.35641479 278.69918823 330.75704956 281.75155640 C 332.07611084 284.55661011 332.98648071 287.65957642 333.30673218 290.73248291 C 333.35620117 293.92712402 333.50341797 297.17736816 333.07199097 300.23559570 C 333.17626953 303.10681152 333.06411743 305.94268799 326.48306274 323.81283569" stroke-width="0.67309737" fill="rgb(1, 3, 1)" opacity="1.0" stroke="rgb(0, 0, 0)" stroke-opacity="0.46486616" stroke-linecap="round" stroke-linejoin="round"/>
    <path d="M 229.50187683 350.08038330 C 230.49511719 349.71725464 231.53138733 349.56552124 232.59397888 349.59353638 C 233.69775391 349.89642334 234.87486267 350.39868164 236.12806702 350.91604614 C 237.56089783 351.30441284 239.10252380 351.66043091 240.65264893 352.13671875 C 242.21278381 352.61056519 243.71595764 352.92047119 245.09074402 353.08340454 C 246.30149841 353.20898438 247.32904053 353.27954102 248.07789612 353.48922729 C 248.45552063 354.01925659 248.51947021 354.88052368 248.43400574 356.01028442 C 248.28442383 357.33810425 248.03889465 358.75601196 247.67349243 360.24282837 C 247.48739624 361.79656982 247.28704834 363.35076904 247.04808044 364.75012207 C 246.93360901 365.92422485 246.86485291 366.70922852 246.60450745 367.07611084 C 246.20965576 366.91098022 245.79159546 366.25473022 245.13847351 365.28625488 C 244.27024841 364.26953125 243.44096375 363.22552490 242.50798035 362.29913330 C 241.40161133 361.73028564 240.15679932 361.61227417 239.05624390 361.79754639 C 238.02629089 362.47644043 237.21600342 363.42144775 236.53695679 364.43923950 C 236.00462341 365.53869629 235.63041687 366.49691772 235.38015747 367.05923462 C 235.09274292 367.15029907 234.95086670 366.72344971 234.88998413 365.85070801 C 234.79420471 364.80075073 234.40014648 363.73779297 233.90733337 362.66723633 C 233.35589600 361.68981934 232.60673523 361.13763428 231.62474060 360.96817017 C 230.45324707 361.00372314 229.04971313 361.37997437 227.57118225 361.86068726 C 226.28800964 362.78903198 225.12783813 363.76739502 223.56697083 364.42663574 C 221.45642090 364.49890137 219.27229309 364.64236450 229.50187683 350.08038330" stroke-width="0.93232131" fill="rgb(239, 169, 77)" opacity="1.0" stroke="rgb(233, 196, 153)" stroke-opacity="0.9143911" stroke-linecap="round" stroke-linejoin="round"/>
    <path d="M 261.16766357 353.83676147 C 263.07598877 353.93304443 265.16867065 353.61160278 267.17318726 353.13668823 C 269.09616089 352.88241577 270.96298218 352.48593140 272.58953857 351.85174561 C 274.09841919 351.39468384 275.32653809 350.89199829 276.28265381 350.25869751 C 277.03726196 349.77728271 277.73812866 349.77227783 278.54748535 350.30871582 C 279.36517334 351.37017822 280.32662964 352.39675903 281.32855225 353.60574341 C 282.51516724 354.92520142 283.53686523 356.42309570 284.38629150 358.10998535 C 285.26409912 359.40924072 286.04620361 360.54119873 286.52371216 361.66494751 C 286.76229858 362.86724854 286.86535645 363.72940063 286.77398682 364.00912476 C 286.64498901 363.69876099 286.21731567 363.08578491 285.28924561 362.48144531 C 284.11029053 361.96759033 282.80981445 361.51516724 281.41766357 360.99075317 C 280.14987183 360.45452881 278.90509033 360.21331787 277.58984375 360.34017944 C 276.33337402 360.70489502 275.29913330 361.13406372 274.61798096 361.83413696 C 274.33428955 362.69015503 274.34576416 363.57650757 274.31671143 364.45166016 C 274.28594971 365.39169312 274.13064575 366.11218262 273.92883301 366.41360474 C 273.66418457 366.22537231 273.30859375 365.71316528 272.79821777 365.15692139 C 272.24069214 364.40679932 271.70843506 363.41665649 271.22329712 362.51721191 C 270.53790283 362.14245605 269.72799683 361.97750854 268.74777222 361.91854858 C 267.87841797 362.10900879 267.20425415 362.69860840 266.67239380 363.56271362 C 266.25076294 364.50100708 265.65734863 364.85659790 265.14129639 364.97952271 C 265.05969238 365.13546753 265.54751587 365.30621338 261.16766357 353.83676147" stroke-width="1.19357860" fill="rgb(243, 166, 71)" opacity="1.0" stroke="rgb(220, 167, 105)" stroke-opacity="1.0" stroke-linecap="round" stroke-linejoin="round"/>
    <path d="M 248.41172791 192.85360718 C 248.86228943 192.25369263 249.62243652 192.01188660 250.58470154 191.95716858 C 251.49725342 191.56591797 252.62939453 191.06343079 253.85055542 190.73809814 C 255.18601990 190.44624329 256.46759033 190.29638672 257.76171875 190.41105652 C 259.01577759 190.80986023 260.15087891 191.31347656 261.38504028 191.46994019 C 262.44073486 191.93881226 263.45858765 192.49742126 264.42010498 192.93682861 C 265.29031372 193.62849426 265.89135742 194.23860168 266.58767700 194.67388916 C 267.58416748 194.74205017 268.17877197 195.24212646 268.47879028 195.97100830 C 268.73446655 196.68603516 268.79891968 197.37509155 268.49240112 198.06443787 C 267.89086914 198.65478516 267.16012573 199.32267761 266.25192261 200.03080750 C 265.12252808 200.61120605 264.22052002 201.44010925 263.45803833 202.34242249 C 262.59274292 203.28337097 261.63464355 203.98852539 260.74755859 204.77336121 C 260.11785889 205.84576416 259.15466309 206.48439026 258.34872437 207.06770325 C 257.95864868 207.77365112 257.73968506 208.59114075 257.52474976 209.10621643 C 257.25390625 209.43417358 256.85183716 209.44145203 256.40798950 209.04838562 C 255.85491943 208.50181580 255.16705322 207.86244202 254.60961914 206.94656372 C 253.89151001 206.20161438 253.13166809 205.49765015 252.52172852 204.58268738 C 251.62619019 203.94660950 250.69725037 203.41926575 249.92160034 202.55413818 C 248.93962097 201.99366760 248.10617065 201.30346680 247.26080322 200.64872742 C 246.32818604 200.01963806 245.39503479 199.27755737 244.47145081 198.42626953 C 243.74478149 197.34500122 243.12821960 196.04335022 248.41172791 192.85360718" stroke-width="0.66628480" fill="rgb(245, 206, 108)" opacity="1.0" stroke="rgb(135, 107, 74)" stroke-opacity="0.72102606" stroke-linecap="round" stroke-linejoin="round"/>
    <path d="M 270.72708130 178.02976990 C 269.52288818 176.47573853 268.87896729 175.02897644 268.92999268 173.28282166 C 268.77096558 171.55122375 268.97650146 169.73236084 269.70999146 168.27035522 C 270.31686401 166.87057495 271.62643433 165.79573059 273.04858398 165.09252930 C 274.41354370 164.53068542 275.96112061 164.40817261 277.38430786 164.47329712 C 278.67547607 164.71740723 279.76080322 165.44813538 280.84240723 166.36898804 C 281.78100586 167.56889343 282.69204712 168.74224854 283.45895386 169.99739075 C 283.93383789 171.30924988 284.06027222 172.91374207 283.96609497 174.37210083 C 283.63052368 175.71434021 283.02609253 177.06889343 282.43054199 178.27917480 C 281.57385254 179.36274719 280.68539429 180.44364929 279.50225830 181.27291870 C 277.76672363 181.84669495 275.73562622 182.39961243 270.72708130 178.02976990" stroke-width="0.64131194" fill="rgb(246, 246, 246)" opacity="1.0" stroke="rgb(127, 127, 127)" stroke-opacity="0.7925337" stroke-linecap="round" stroke-linejoin="round"/>
    <path d="M 241.46865845 177.86578369 C 240.53956604 178.83105469 239.68328857 179.86163330 238.69842529 180.61811829 C 237.62661743 181.10949707 236.66954041 181.56546021 235.69261169 181.75325012 C 234.45503235 181.16792297 232.86964417 180.58023071 231.63398743 179.86657715 C 230.70053101 178.82319641 229.83752441 177.70814514 229.09315491 176.49223328 C 228.78622437 175.27401733 228.55380249 174.05500793 228.56723022 172.84968567 C 228.68942261 171.42927551 228.89537048 170.20741272 229.57241821 169.08914185 C 230.24293518 167.78926086 231.06050110 166.51788330 232.14390564 165.69665527 C 233.47450256 165.18272400 234.98289490 164.77807617 236.57725525 164.49172974 C 238.40965271 164.84237671 240.09944153 165.86674500 241.42324829 167.65922546 C 243.00566101 169.80847168 244.70883179 172.19560242 241.46865845 177.86578369" stroke-width="0.64948535" fill="rgb(245, 244, 243)" opacity="1.0" stroke="rgb(128, 129, 128)" stroke-opacity="0.8560946" stroke-linecap="round" stroke-linejoin="round"/>
    <path d="M 272.40188599 170.34469604 C 273.08706665 169.32862854 273.74594116 168.33311462 274.58663940 167.60716248 C 275.66241455 167.38430786 276.79150391 167.38529968 277.95809937 167.72003174 C 279.17083740 168.12979126 280.15377808 168.73437500 281.00073242 169.46582031 C 281.43524170 170.52600098 281.77566528 171.62635803 282.17770386 172.59028625 C 282.02630615 173.46383667 281.78881836 174.47998047 281.61019897 175.54667664 C 281.24291992 176.55813599 280.66610718 177.35479736 279.85122681 177.85043335 C 279.11114502 178.58210754 278.33230591 179.08842468 277.52023315 179.25785828 C 276.36135864 178.93344116 275.41366577 178.54728699 274.59448242 178.27719116 C 273.73532104 177.79374695 273.18453979 177.02589417 272.56192017 176.42788696 C 271.84359741 175.98283386 271.20800781 175.60403442 272.40188599 170.34469604" stroke-width="0.66060328" fill="rgb(5, 6, 7)" opacity="1.0" stroke="rgb(101, 102, 102)" stroke-opacity="0.91506785" stroke-linecap="round" stroke-linejoin="round"/>
    <path d="M 230.68324280 176.13243103 C 230.28134155 174.80735779 230.03863525 173.53704834 230.12704468 172.30528259 C 230.28153992 170.93530273 230.69871521 169.82978821 231.36796570 168.87716675 C 232.29467773 168.31320190 233.40777588 167.97912598 234.43983459 167.57501221 C 235.53970337 167.37431335 236.44995117 167.45770264 237.24754333 167.74603271 C 238.03636169 168.42062378 238.91687012 168.94609070 239.71401978 169.66822815 C 240.22688293 170.86000061 240.51936340 172.09756470 240.86441040 173.15728760 C 240.79882812 174.23754883 240.51628113 175.07287598 240.05413818 175.98001099 C 239.78300476 176.91328430 239.15809631 177.64431763 238.32682800 178.27597046 C 237.50379944 178.83679199 236.60620117 179.24818420 235.51141357 179.14916992 C 234.29605103 178.81053162 232.80860901 178.71498108 230.68324280 176.13243103" stroke-width="0.56655419" fill="rgb(10, 8, 10)" opacity="1.0" stroke="rgb(113, 113, 113)" stroke-opacity="0.7860603" stroke-linecap="round" stroke-linejoin="round"/>
  </g>
</svg>
