<svg xmlns="http://www.w3.org/2000/svg" viewBox="0 0 512 512" height="512.0px" width="512.0px">
<path id="" fill="#e6f3ff" fill-opacity="1.0" stroke="#000000" stroke-width="0.0" stroke-opacity="1.0" stroke-linecap="round" stroke-linejoin="round"  filling="0" d="M0.000 340.000 C170.667 340.000 341.333 340.000 512.000 340.000 C512.000 397.333 512.000 454.667 512.000 512.000 C341.333 512.000 170.667 512.000 0.000 512.000 C0.000 454.667 0.000 397.333 0.000 340.000"></path>
<path id="" fill="#d6e9ff" fill-opacity="1.0" stroke="#000000" stroke-width="0.0" stroke-opacity="1.0" stroke-linecap="round" stroke-linejoin="round"  filling="0" d="M50.000 360.000 C60.000 366.667 70.000 373.333 80.000 380.000 C63.333 383.333 46.667 386.667 30.000 390.000 C36.667 380.000 43.333 370.000 50.000 360.000"></path>
<path id="" fill="#d6e9ff" fill-opacity="1.0" stroke="#000000" stroke-width="0.0" stroke-opacity="1.0" stroke-linecap="round" stroke-linejoin="round"  filling="0" d="M200.000 370.000 C210.000 376.667 220.000 383.333 230.000 390.000 C213.333 393.333 196.667 396.667 180.000 400.000 C186.667 390.000 193.333 380.000 200.000 370.000"></path>
<path id="" fill="#d6e9ff" fill-opacity="1.0" stroke="#000000" stroke-width="0.0" stroke-opacity="1.0" stroke-linecap="round" stroke-linejoin="round"  filling="0" d="M400.000 350.000 C410.000 356.667 420.000 363.333 430.000 370.000 C413.333 373.333 396.667 376.667 380.000 380.000 C386.667 370.000 393.333 360.000 400.000 350.000"></path>
<path id="" fill="#d6e9ff" fill-opacity="1.0" stroke="#000000" stroke-width="0.0" stroke-opacity="1.0" stroke-linecap="round" stroke-linejoin="round"  filling="0" d="M100.000 400.000 C110.000 406.667 120.000 413.333 130.000 420.000 C113.333 423.333 96.667 426.667 80.000 430.000 C86.667 420.000 93.333 410.000 100.000 400.000"></path>
<path id="" fill="#d6e9ff" fill-opacity="1.0" stroke="#000000" stroke-width="0.0" stroke-opacity="1.0" stroke-linecap="round" stroke-linejoin="round"  filling="0" d="M300.000 410.000 C310.000 416.667 320.000 423.333 330.000 430.000 C313.333 433.333 296.667 436.667 280.000 440.000 C286.667 430.000 293.333 420.000 300.000 410.000"></path>
<path id="" fill="#000000" fill-opacity="1.0" stroke="#000000" stroke-width="0.0" stroke-opacity="1.0" stroke-linecap="round" stroke-linejoin="round"  filling="0" d="M316.000 266.000 C316.000 287.209 309.674 307.571 298.426 322.569 C287.179 337.566 271.907 346.000 256.000 346.000 C240.093 346.000 224.821 337.566 213.574 322.569 C202.326 307.571 196.000 287.209 196.000 266.000 C196.000 244.791 202.326 224.429 213.574 209.431 C224.821 194.434 240.093 186.000 256.000 186.000 C271.907 186.000 287.179 194.434 298.426 209.431 C309.674 224.429 316.000 244.791 316.000 266.000"></path>
<path id="" fill="#f0f0f0" fill-opacity="1.0" stroke="#000000" stroke-width="0.0" stroke-opacity="1.0" stroke-linecap="round" stroke-linejoin="round"  filling="0" d="M306.000 286.000 C306.000 304.558 300.729 322.375 291.355 335.497 C281.982 348.620 269.256 356.000 256.000 356.000 C242.744 356.000 230.018 348.620 220.645 335.497 C211.271 322.375 206.000 304.558 206.000 286.000 C206.000 267.442 211.271 249.625 220.645 236.503 C230.018 223.380 242.744 216.000 256.000 216.000 C269.256 216.000 281.982 223.380 291.355 236.503 C300.729 249.625 306.000 267.442 306.000 286.000"></path>
<path id="" fill="#000000" fill-opacity="1.0" stroke="#000000" stroke-width="0.0" stroke-opacity="1.0" stroke-linecap="round" stroke-linejoin="round"  filling="0" d="M296.000 176.000 C296.000 186.605 291.783 196.786 284.284 204.284 C276.786 211.783 266.605 216.000 256.000 216.000 C245.395 216.000 235.214 211.783 227.716 204.284 C220.217 196.786 216.000 186.605 216.000 176.000 C216.000 165.395 220.217 155.214 227.716 147.716 C235.214 140.217 245.395 136.000 256.000 136.000 C266.605 136.000 276.786 140.217 284.284 147.716 C291.783 155.214 296.000 165.395 296.000 176.000"></path>
<path id="" fill="#000000" fill-opacity="1.0" stroke="#000000" stroke-width="0.0" stroke-opacity="1.0" stroke-linecap="round" stroke-linejoin="round"  filling="0" d="M196.000 246.000 C189.333 262.667 182.667 279.333 176.000 296.000 C182.667 312.667 189.333 329.333 196.000 346.000 C196.000 312.667 196.000 279.333 196.000 246.000"></path>
<path id="" fill="#000000" fill-opacity="1.0" stroke="#000000" stroke-width="0.0" stroke-opacity="1.0" stroke-linecap="round" stroke-linejoin="round"  filling="0" d="M316.000 246.000 C322.667 262.667 329.333 279.333 336.000 296.000 C329.333 312.667 322.667 329.333 316.000 346.000 C316.000 312.667 316.000 279.333 316.000 246.000"></path>
<path id="" fill="#f7ad4b" fill-opacity="1.0" stroke="#000000" stroke-width="0.0" stroke-opacity="1.0" stroke-linecap="round" stroke-linejoin="round"  filling="0" d="M220.500 363.000 C220.500 362.333 220.500 361.667 220.500 361.000 C221.167 360.333 221.833 359.667 222.500 359.000 C222.500 358.667 222.500 358.333 222.500 358.000 C222.833 357.667 223.167 357.333 223.500 357.000 C223.500 356.667 223.500 356.333 223.500 356.000 C224.167 355.333 224.833 354.667 225.500 354.000 C225.500 353.667 225.500 353.333 225.500 353.000 C226.167 352.333 226.833 351.667 227.500 351.000 C227.500 350.667 227.500 350.333 227.500 350.000 C227.667 349.833 227.833 349.667 228.000 349.500 C228.333 349.500 228.667 349.500 229.000 349.500 C229.333 349.167 229.667 348.833 230.000 348.500 C231.333 348.500 232.667 348.500 234.000 348.500 C234.333 348.833 234.667 349.167 235.000 349.500 C235.333 349.500 235.667 349.500 236.000 349.500 C236.333 349.833 236.667 350.167 237.000 350.500 C238.000 350.500 239.000 350.500 240.000 350.500 C240.333 350.833 240.667 351.167 241.000 351.500 C242.667 351.500 244.333 351.500 246.000 351.500 C246.333 351.833 246.667 352.167 247.000 352.500 C247.333 352.500 247.667 352.500 248.000 352.500 C248.167 352.667 248.333 352.833 248.500 353.000 C248.500 354.667 248.500 356.333 248.500 358.000 C248.167 358.333 247.833 358.667 247.500 359.000 C247.500 361.000 247.500 363.000 247.500 365.000 C247.000 365.500 246.500 366.000 246.000 366.500 C245.667 366.500 245.333 366.500 245.000 366.500 C243.667 365.167 242.333 363.833 241.000 362.500 C240.000 362.500 239.000 362.500 238.000 362.500 C237.833 362.667 237.667 362.833 237.500 363.000 C237.500 363.333 237.500 363.667 237.500 364.000 C237.167 364.333 236.833 364.667 236.500 365.000 C236.500 365.333 236.500 365.667 236.500 366.000 C236.000 366.500 235.500 367.000 235.000 367.500 C234.500 367.000 234.000 366.500 233.500 366.000 C233.500 365.333 233.500 364.667 233.500 364.000 C233.167 363.667 232.833 363.333 232.500 363.000 C232.500 362.667 232.500 362.333 232.500 362.000 C232.333 361.833 232.167 361.667 232.000 361.500 C230.667 361.500 229.333 361.500 228.000 361.500 C227.667 361.833 227.333 362.167 227.000 362.500 C226.667 362.500 226.333 362.500 226.000 362.500 C225.333 363.167 224.667 363.833 224.000 364.500 C223.333 364.500 222.667 364.500 222.000 364.500 C221.500 364.000 221.000 363.500 220.500 363.000"></path>
<path id="" fill="#f6a74a" fill-opacity="1.0" stroke="#000000" stroke-width="0.0" stroke-opacity="1.0" stroke-linecap="round" stroke-linejoin="round"  filling="0" d="M287.500 364.000 C287.333 364.167 287.167 364.333 287.000 364.500 C286.667 364.500 286.333 364.500 286.000 364.500 C285.667 364.167 285.333 363.833 285.000 363.500 C284.667 363.500 284.333 363.500 284.000 363.500 C283.667 363.167 283.333 362.833 283.000 362.500 C282.667 362.500 282.333 362.500 282.000 362.500 C281.667 362.167 281.333 361.833 281.000 361.500 C279.667 361.500 278.333 361.500 277.000 361.500 C276.500 362.000 276.000 362.500 275.500 363.000 C275.500 363.667 275.500 364.333 275.500 365.000 C275.000 365.500 274.500 366.000 274.000 366.500 C273.333 366.500 272.667 366.500 272.000 366.500 C271.833 366.333 271.667 366.167 271.500 366.000 C271.500 365.667 271.500 365.333 271.500 365.000 C271.000 364.500 270.500 364.000 270.000 363.500 C269.333 363.500 268.667 363.500 268.000 363.500 C267.667 363.833 267.333 364.167 267.000 364.500 C266.667 364.500 266.333 364.500 266.000 364.500 C265.667 364.833 265.333 365.167 265.000 365.500 C264.667 365.500 264.333 365.500 264.000 365.500 C263.833 365.333 263.667 365.167 263.500 365.000 C263.500 364.667 263.500 364.333 263.500 364.000 C263.167 363.667 262.833 363.333 262.500 363.000 C262.500 362.333 262.500 361.667 262.500 361.000 C262.167 360.667 261.833 360.333 261.500 360.000 C261.500 359.333 261.500 358.667 261.500 358.000 C261.167 357.667 260.833 357.333 260.500 357.000 C260.500 356.333 260.500 355.667 260.500 355.000 C260.167 354.667 259.833 354.333 259.500 354.000 C259.500 353.667 259.500 353.333 259.500 353.000 C259.667 352.833 259.833 352.667 260.000 352.500 C261.000 352.500 262.000 352.500 263.000 352.500 C263.333 352.167 263.667 351.833 264.000 351.500 C265.000 351.500 266.000 351.500 267.000 351.500 C267.333 351.167 267.667 350.833 268.000 350.500 C269.000 350.500 270.000 350.500 271.000 350.500 C271.333 350.167 271.667 349.833 272.000 349.500 C272.667 349.500 273.333 349.500 274.000 349.500 C274.333 349.167 274.667 348.833 275.000 348.500 C276.000 348.500 277.000 348.500 278.000 348.500 C279.833 350.333 281.667 352.167 283.500 354.000 C283.500 354.333 283.500 354.667 283.500 355.000 C284.167 355.667 284.833 356.333 285.500 357.000 C285.500 357.333 285.500 357.667 285.500 358.000 C285.833 358.333 286.167 358.667 286.500 359.000 C286.500 359.333 286.500 359.667 286.500 360.000 C286.833 360.333 287.167 360.667 287.500 361.000 C287.500 362.000 287.500 363.000 287.500 364.000"></path>
<path id="" fill="#f9cc65" fill-opacity="1.0" stroke="#000000" stroke-width="0.0" stroke-opacity="1.0" stroke-linecap="round" stroke-linejoin="round"  filling="0" d="M257.000 209.500 C256.667 209.500 256.333 209.500 256.000 209.500 C253.333 206.833 250.667 204.167 248.000 201.500 C247.667 201.500 247.333 201.500 247.000 201.500 C245.833 200.333 244.667 199.167 243.500 198.000 C243.500 197.000 243.500 196.000 243.500 195.000 C244.333 194.167 245.167 193.333 246.000 192.500 C246.333 192.500 246.667 192.500 247.000 192.500 C247.333 192.167 247.667 191.833 248.000 191.500 C248.333 191.500 248.667 191.500 249.000 191.500 C249.333 191.167 249.667 190.833 250.000 190.500 C250.333 190.500 250.667 190.500 251.000 190.500 C251.333 190.167 251.667 189.833 252.000 189.500 C254.667 189.500 257.333 189.500 260.000 189.500 C260.333 189.833 260.667 190.167 261.000 190.500 C261.333 190.500 261.667 190.500 262.000 190.500 C262.333 190.833 262.667 191.167 263.000 191.500 C263.333 191.500 263.667 191.500 264.000 191.500 C264.667 192.167 265.333 192.833 266.000 193.500 C266.333 193.500 266.667 193.500 267.000 193.500 C267.500 194.000 268.000 194.500 268.500 195.000 C268.500 196.000 268.500 197.000 268.500 198.000 C267.667 198.833 266.833 199.667 266.000 200.500 C265.667 200.500 265.333 200.500 265.000 200.500 C262.833 202.667 260.667 204.833 258.500 207.000 C258.500 207.333 258.500 207.667 258.500 208.000 C258.000 208.500 257.500 209.000 257.000 209.500"></path>
<path id="" fill="#ffffff" fill-opacity="1.0" stroke="#000000" stroke-width="0.0" stroke-opacity="1.0" stroke-linecap="round" stroke-linejoin="round"  filling="0" d="M279.000 181.500 C277.333 181.500 275.667 181.500 274.000 181.500 C273.333 180.833 272.667 180.167 272.000 179.500 C271.667 179.500 271.333 179.500 271.000 179.500 C270.833 179.333 270.667 179.167 270.500 179.000 C270.500 178.667 270.500 178.333 270.500 178.000 C269.833 177.333 269.167 176.667 268.500 176.000 C268.500 175.667 268.500 175.333 268.500 175.000 C268.167 174.667 267.833 174.333 267.500 174.000 C267.500 172.667 267.500 171.333 267.500 170.000 C267.833 169.667 268.167 169.333 268.500 169.000 C268.500 168.667 268.500 168.333 268.500 168.000 C268.833 167.667 269.167 167.333 269.500 167.000 C269.500 166.667 269.500 166.333 269.500 166.000 C270.000 165.500 270.500 165.000 271.000 164.500 C271.333 164.500 271.667 164.500 272.000 164.500 C272.333 164.167 272.667 163.833 273.000 163.500 C274.667 163.500 276.333 163.500 278.000 163.500 C278.333 163.833 278.667 164.167 279.000 164.500 C279.333 164.500 279.667 164.500 280.000 164.500 C280.833 165.333 281.667 166.167 282.500 167.000 C282.500 167.333 282.500 167.667 282.500 168.000 C282.833 168.333 283.167 168.667 283.500 169.000 C283.500 171.667 283.500 174.333 283.500 177.000 C282.000 178.500 280.500 180.000 279.000 181.500"></path>
<path id="" fill="#ffffff" fill-opacity="1.0" stroke="#000000" stroke-width="0.0" stroke-opacity="1.0" stroke-linecap="round" stroke-linejoin="round"  filling="0" d="M237.000 181.500 C235.667 181.500 234.333 181.500 233.000 181.500 C232.667 181.167 232.333 180.833 232.000 180.500 C231.667 180.500 231.333 180.500 231.000 180.500 C230.167 179.667 229.333 178.833 228.500 178.000 C228.500 177.667 228.500 177.333 228.500 177.000 C228.167 176.667 227.833 176.333 227.500 176.000 C227.500 173.667 227.500 171.333 227.500 169.000 C229.333 167.167 231.167 165.333 233.000 163.500 C234.667 163.500 236.333 163.500 238.000 163.500 C239.500 165.000 241.000 166.500 242.500 168.000 C242.500 168.333 242.500 168.667 242.500 169.000 C242.833 169.333 243.167 169.667 243.500 170.000 C243.500 171.333 243.500 172.667 243.500 174.000 C243.167 174.333 242.833 174.667 242.500 175.000 C242.500 175.333 242.500 175.667 242.500 176.000 C242.167 176.333 241.833 176.667 241.500 177.000 C241.500 177.333 241.500 177.667 241.500 178.000 C240.667 178.833 239.833 179.667 239.000 180.500 C238.667 180.500 238.333 180.500 238.000 180.500 C237.667 180.833 237.333 181.167 237.000 181.500"></path>
<path id="" fill="#000000" fill-opacity="1.0" stroke="#000000" stroke-width="0.0" stroke-opacity="1.0" stroke-linecap="round" stroke-linejoin="round"  filling="0" d="M276.000 171.000 C276.000 172.326 275.473 173.598 274.536 174.536 C273.598 175.473 272.326 176.000 271.000 176.000 C269.674 176.000 268.402 175.473 267.464 174.536 C266.527 173.598 266.000 172.326 266.000 171.000 C266.000 169.674 266.527 168.402 267.464 167.464 C268.402 166.527 269.674 166.000 271.000 166.000 C272.326 166.000 273.598 166.527 274.536 167.464 C275.473 168.402 276.000 169.674 276.000 171.000"></path>
<path id="" fill="#000000" fill-opacity="1.0" stroke="#000000" stroke-width="0.0" stroke-opacity="1.0" stroke-linecap="round" stroke-linejoin="round"  filling="0" d="M246.000 171.000 C246.000 172.326 245.473 173.598 244.536 174.536 C243.598 175.473 242.326 176.000 241.000 176.000 C239.674 176.000 238.402 175.473 237.464 174.536 C236.527 173.598 236.000 172.326 236.000 171.000 C236.000 169.674 236.527 168.402 237.464 167.464 C238.402 166.527 239.674 166.000 241.000 166.000 C242.326 166.000 243.598 166.527 244.536 167.464 C245.473 168.402 246.000 169.674 246.000 171.000"></path>
</svg>