<svg xmlns="http://www.w3.org/2000/svg" viewBox="0 0 256 256" height="256.0px" width="256.0px">
<path id="" fill="#e6f3ff" fill-opacity="1.0" stroke="#000000" stroke-width="0.0" stroke-opacity="1.0" stroke-linecap="round" stroke-linejoin="round"  filling="0" d="M0.000 170.000 C85.334 170.000 170.667 170.000 256.000 170.000 C256.000 198.667 256.000 227.333 256.000 256.000 C170.667 256.000 85.334 256.000 0.000 256.000 C0.000 227.333 0.000 198.667 0.000 170.000"></path>
<path id="" fill="#d6e9ff" fill-opacity="1.0" stroke="#000000" stroke-width="0.0" stroke-opacity="1.0" stroke-linecap="round" stroke-linejoin="round"  filling="0" d="M25.000 180.000 C30.000 183.333 35.000 186.667 40.000 190.000 C31.667 191.667 23.333 193.333 15.000 195.000 C18.333 190.000 21.667 185.000 25.000 180.000"></path>
<path id="" fill="#d6e9ff" fill-opacity="1.0" stroke="#000000" stroke-width="0.0" stroke-opacity="1.0" stroke-linecap="round" stroke-linejoin="round"  filling="0" d="M100.000 185.000 C105.000 188.333 110.000 191.667 115.000 195.000 C106.666 196.667 98.334 198.333 90.000 200.000 C93.334 195.000 96.666 190.000 100.000 185.000"></path>
<path id="" fill="#d6e9ff" fill-opacity="1.0" stroke="#000000" stroke-width="0.0" stroke-opacity="1.0" stroke-linecap="round" stroke-linejoin="round"  filling="0" d="M200.000 175.000 C205.000 178.333 210.000 181.667 215.000 185.000 C206.667 186.667 198.333 188.333 190.000 190.000 C193.333 185.000 196.667 180.000 200.000 175.000"></path>
<path id="" fill="#d6e9ff" fill-opacity="1.0" stroke="#000000" stroke-width="0.0" stroke-opacity="1.0" stroke-linecap="round" stroke-linejoin="round"  filling="0" d="M50.000 200.000 C55.000 203.333 60.000 206.667 65.000 210.000 C56.667 211.667 48.333 213.333 40.000 215.000 C43.333 210.000 46.667 205.000 50.000 200.000"></path>
<path id="" fill="#d6e9ff" fill-opacity="1.0" stroke="#000000" stroke-width="0.0" stroke-opacity="1.0" stroke-linecap="round" stroke-linejoin="round"  filling="0" d="M150.000 205.000 C155.000 208.333 160.000 211.667 165.000 215.000 C156.667 216.667 148.333 218.333 140.000 220.000 C143.333 215.000 146.667 210.000 150.000 205.000"></path>
<path id="" fill="#000000" fill-opacity="1.0" stroke="#000000" stroke-width="0.0" stroke-opacity="1.0" stroke-linecap="round" stroke-linejoin="round"  filling="0" d="M158.000 133.000 C158.000 143.605 154.837 153.786 149.213 161.285 C143.589 168.783 135.954 173.000 128.000 173.000 C120.047 173.000 112.410 168.783 106.787 161.285 C101.163 153.786 98.000 143.605 98.000 133.000 C98.000 122.396 101.163 112.215 106.787 104.715 C112.410 97.217 120.047 93.000 128.000 93.000 C135.954 93.000 143.589 97.217 149.213 104.715 C154.837 112.215 158.000 122.396 158.000 133.000"></path>
<path id="" fill="#f0f0f0" fill-opacity="1.0" stroke="#000000" stroke-width="0.0" stroke-opacity="1.0" stroke-linecap="round" stroke-linejoin="round"  filling="0" d="M153.000 143.000 C153.000 152.279 150.365 161.188 145.678 167.749 C140.991 174.310 134.628 178.000 128.000 178.000 C121.372 178.000 115.009 174.310 110.323 167.749 C105.635 161.188 103.000 152.279 103.000 143.000 C103.000 133.721 105.635 124.812 110.323 118.252 C115.009 111.690 121.372 108.000 128.000 108.000 C134.628 108.000 140.991 111.690 145.678 118.252 C150.365 124.812 153.000 133.721 153.000 143.000"></path>
<path id="" fill="#000000" fill-opacity="1.0" stroke="#000000" stroke-width="0.0" stroke-opacity="1.0" stroke-linecap="round" stroke-linejoin="round"  filling="0" d="M148.000 88.000 C148.000 93.302 145.891 98.393 142.142 102.142 C138.393 105.892 133.303 108.000 128.000 108.000 C122.698 108.000 117.607 105.892 113.858 102.142 C110.108 98.393 108.000 93.302 108.000 88.000 C108.000 82.698 110.108 77.607 113.858 73.858 C117.607 70.108 122.698 68.000 128.000 68.000 C133.303 68.000 138.393 70.108 142.142 73.858 C145.891 77.607 148.000 82.698 148.000 88.000"></path>
<path id="" fill="#000000" fill-opacity="1.0" stroke="#000000" stroke-width="0.0" stroke-opacity="1.0" stroke-linecap="round" stroke-linejoin="round"  filling="0" d="M98.000 123.000 C94.666 131.333 91.334 139.667 88.000 148.000 C91.334 156.333 94.666 164.667 98.000 173.000 C98.000 156.333 98.000 139.667 98.000 123.000"></path>
<path id="" fill="#000000" fill-opacity="1.0" stroke="#000000" stroke-width="0.0" stroke-opacity="1.0" stroke-linecap="round" stroke-linejoin="round"  filling="0" d="M158.000 123.000 C161.333 131.333 164.667 139.667 168.000 148.000 C164.667 156.333 161.333 164.667 158.000 173.000 C158.000 156.333 158.000 139.667 158.000 123.000"></path>
<path id="" fill="#f7ad4b" fill-opacity="1.0" stroke="#000000" stroke-width="0.0" stroke-opacity="1.0" stroke-linecap="round" stroke-linejoin="round"  filling="0" d="M110.250 181.500 C110.250 181.167 110.250 180.833 110.250 180.500 C110.584 180.167 110.916 179.833 111.250 179.500 C111.250 179.333 111.250 179.167 111.250 179.000 C111.416 178.833 111.584 178.667 111.750 178.500 C111.750 178.333 111.750 178.167 111.750 178.000 C112.084 177.667 112.416 177.333 112.750 177.000 C112.750 176.833 112.750 176.667 112.750 176.500 C113.084 176.167 113.416 175.833 113.750 175.500 C113.750 175.333 113.750 175.167 113.750 175.000 C113.834 174.917 113.916 174.833 114.000 174.750 C114.166 174.750 114.334 174.750 114.500 174.750 C114.666 174.583 114.834 174.417 115.000 174.250 C115.666 174.250 116.334 174.250 117.000 174.250 C117.166 174.417 117.334 174.583 117.500 174.750 C117.666 174.750 117.834 174.750 118.000 174.750 C118.166 174.917 118.334 175.083 118.500 175.250 C119.000 175.250 119.500 175.250 120.000 175.250 C120.166 175.417 120.334 175.583 120.500 175.750 C121.334 175.750 122.166 175.750 123.000 175.750 C123.166 175.917 123.334 176.083 123.500 176.250 C123.666 176.250 123.834 176.250 124.000 176.250 C124.084 176.333 124.166 176.417 124.250 176.500 C124.250 177.333 124.250 178.167 124.250 179.000 C124.084 179.167 123.916 179.333 123.750 179.500 C123.750 180.500 123.750 181.500 123.750 182.500 C123.500 182.750 123.250 183.000 123.000 183.250 C122.834 183.250 122.666 183.250 122.500 183.250 C121.834 182.583 121.166 181.917 120.500 181.250 C120.000 181.250 119.500 181.250 119.000 181.250 C118.916 181.333 118.834 181.417 118.750 181.500 C118.750 181.667 118.750 181.833 118.750 182.000 C118.584 182.167 118.416 182.333 118.250 182.500 C118.250 182.667 118.250 182.833 118.250 183.000 C118.000 183.250 117.750 183.500 117.500 183.750 C117.250 183.500 117.000 183.250 116.750 183.000 C116.750 182.667 116.750 182.333 116.750 182.000 C116.584 181.833 116.416 181.667 116.250 181.500 C116.250 181.333 116.250 181.167 116.250 181.000 C116.166 180.917 116.084 180.833 116.000 180.750 C115.334 180.750 114.666 180.750 114.000 180.750 C113.834 180.917 113.666 181.083 113.500 181.250 C113.334 181.250 113.166 181.250 113.000 181.250 C112.666 181.583 112.334 181.917 112.000 182.250 C111.666 182.250 111.334 182.250 111.000 182.250 C110.750 182.000 110.500 181.750 110.250 181.500"></path>
<path id="" fill="#f6a74a" fill-opacity="1.0" stroke="#000000" stroke-width="0.0" stroke-opacity="1.0" stroke-linecap="round" stroke-linejoin="round"  filling="0" d="M143.750 182.000 C143.667 182.083 143.583 182.167 143.500 182.250 C143.333 182.250 143.167 182.250 143.000 182.250 C142.833 182.083 142.667 181.917 142.500 181.750 C142.333 181.750 142.167 181.750 142.000 181.750 C141.833 181.583 141.667 181.417 141.500 181.250 C141.333 181.250 141.167 181.250 141.000 181.250 C140.833 181.083 140.667 180.917 140.500 180.750 C139.833 180.750 139.167 180.750 138.500 180.750 C138.250 181.000 138.000 181.250 137.750 181.500 C137.750 181.833 137.750 182.167 137.750 182.500 C137.500 182.750 137.250 183.000 137.000 183.250 C136.667 183.250 136.333 183.250 136.000 183.250 C135.917 183.167 135.833 183.083 135.750 183.000 C135.750 182.833 135.750 182.667 135.750 182.500 C135.500 182.250 135.250 182.000 135.000 181.750 C134.667 181.750 134.333 181.750 134.000 181.750 C133.833 181.917 133.667 182.083 133.500 182.250 C133.333 182.250 133.167 182.250 133.000 182.250 C132.833 182.417 132.667 182.583 132.500 182.750 C132.333 182.750 132.167 182.750 132.000 182.750 C131.917 182.667 131.833 182.583 131.750 182.500 C131.750 182.333 131.750 182.167 131.750 182.000 C131.583 181.833 131.417 181.667 131.250 181.500 C131.250 181.167 131.250 180.833 131.250 180.500 C131.083 180.333 130.917 180.167 130.750 180.000 C130.750 179.667 130.750 179.333 130.750 179.000 C130.583 178.833 130.417 178.667 130.250 178.500 C130.250 178.167 130.250 177.833 130.250 177.500 C130.083 177.333 129.917 177.167 129.750 177.000 C129.750 176.833 129.750 176.667 129.750 176.500 C129.833 176.417 129.917 176.333 130.000 176.250 C130.500 176.250 131.000 176.250 131.500 176.250 C131.667 176.083 131.833 175.917 132.000 175.750 C132.500 175.750 133.000 175.750 133.500 175.750 C133.667 175.583 133.833 175.417 134.000 175.250 C134.500 175.250 135.000 175.250 135.500 175.250 C135.667 175.083 135.833 174.917 136.000 174.750 C136.333 174.750 136.667 174.750 137.000 174.750 C137.167 174.583 137.333 174.417 137.500 174.250 C138.000 174.250 138.500 174.250 139.000 174.250 C139.917 175.167 140.833 176.083 141.750 177.000 C141.750 177.167 141.750 177.333 141.750 177.500 C142.083 177.833 142.417 178.167 142.750 178.500 C142.750 178.667 142.750 178.833 142.750 179.000 C142.917 179.167 143.083 179.333 143.250 179.500 C143.250 179.667 143.250 179.833 143.250 180.000 C143.417 180.167 143.583 180.333 143.750 180.500 C143.750 181.000 143.750 181.500 143.750 182.000"></path>
<path id="" fill="#f9cc65" fill-opacity="1.0" stroke="#000000" stroke-width="0.0" stroke-opacity="1.0" stroke-linecap="round" stroke-linejoin="round"  filling="0" d="M128.500 104.750 C128.333 104.750 128.167 104.750 128.000 104.750 C126.666 103.416 125.334 102.084 124.000 100.750 C123.834 100.750 123.666 100.750 123.500 100.750 C122.916 100.166 122.334 99.584 121.750 99.000 C121.750 98.500 121.750 98.000 121.750 97.500 C122.166 97.084 122.584 96.666 123.000 96.250 C123.166 96.250 123.334 96.250 123.500 96.250 C123.666 96.084 123.834 95.916 124.000 95.750 C124.166 95.750 124.334 95.750 124.500 95.750 C124.666 95.584 124.834 95.416 125.000 95.250 C125.166 95.250 125.334 95.250 125.500 95.250 C125.666 95.084 125.834 94.916 126.000 94.750 C127.334 94.750 128.667 94.750 130.000 94.750 C130.167 94.916 130.333 95.084 130.500 95.250 C130.667 95.250 130.833 95.250 131.000 95.250 C131.167 95.416 131.333 95.584 131.500 95.750 C131.667 95.750 131.833 95.750 132.000 95.750 C132.333 96.084 132.667 96.416 133.000 96.750 C133.167 96.750 133.333 96.750 133.500 96.750 C133.750 97.000 134.000 97.250 134.250 97.500 C134.250 98.000 134.250 98.500 134.250 99.000 C133.833 99.416 133.417 99.834 133.000 100.250 C132.833 100.250 132.667 100.250 132.500 100.250 C131.417 101.334 130.333 102.416 129.250 103.500 C129.250 103.666 129.250 103.834 129.250 104.000 C129.000 104.250 128.750 104.500 128.500 104.750"></path>
<path id="" fill="#ffffff" fill-opacity="1.0" stroke="#000000" stroke-width="0.0" stroke-opacity="1.0" stroke-linecap="round" stroke-linejoin="round"  filling="0" d="M139.500 90.750 C138.667 90.750 137.833 90.750 137.000 90.750 C136.667 90.416 136.333 90.084 136.000 89.750 C135.833 89.750 135.667 89.750 135.500 89.750 C135.417 89.666 135.333 89.584 135.250 89.500 C135.250 89.334 135.250 89.166 135.250 89.000 C134.917 88.666 134.583 88.334 134.250 88.000 C134.250 87.834 134.250 87.666 134.250 87.500 C134.083 87.334 133.917 87.166 133.750 87.000 C133.750 86.334 133.750 85.666 133.750 85.000 C133.917 84.834 134.083 84.666 134.250 84.500 C134.250 84.334 134.250 84.166 134.250 84.000 C134.417 83.834 134.583 83.666 134.750 83.500 C134.750 83.334 134.750 83.166 134.750 83.000 C135.000 82.750 135.250 82.500 135.500 82.250 C135.667 82.250 135.833 82.250 136.000 82.250 C136.167 82.084 136.333 81.916 136.500 81.750 C137.333 81.750 138.167 81.750 139.000 81.750 C139.167 81.916 139.333 82.084 139.500 82.250 C139.667 82.250 139.833 82.250 140.000 82.250 C140.417 82.666 140.833 83.084 141.250 83.500 C141.250 83.666 141.250 83.834 141.250 84.000 C141.417 84.166 141.583 84.334 141.750 84.500 C141.750 85.834 141.750 87.166 141.750 88.500 C141.000 89.250 140.250 90.000 139.500 90.750"></path>
<path id="" fill="#ffffff" fill-opacity="1.0" stroke="#000000" stroke-width="0.0" stroke-opacity="1.0" stroke-linecap="round" stroke-linejoin="round"  filling="0" d="M118.500 90.750 C117.834 90.750 117.166 90.750 116.500 90.750 C116.334 90.584 116.166 90.416 116.000 90.250 C115.834 90.250 115.666 90.250 115.500 90.250 C115.084 89.834 114.666 89.416 114.250 89.000 C114.250 88.834 114.250 88.666 114.250 88.500 C114.084 88.334 113.916 88.166 113.750 88.000 C113.750 86.834 113.750 85.666 113.750 84.500 C114.666 83.584 115.584 82.666 116.500 81.750 C117.334 81.750 118.166 81.750 119.000 81.750 C119.750 82.500 120.500 83.250 121.250 84.000 C121.250 84.166 121.250 84.334 121.250 84.500 C121.416 84.666 121.584 84.834 121.750 85.000 C121.750 85.666 121.750 86.334 121.750 87.000 C121.584 87.166 121.416 87.334 121.250 87.500 C121.250 87.666 121.250 87.834 121.250 88.000 C121.084 88.166 120.916 88.334 120.750 88.500 C120.750 88.666 120.750 88.834 120.750 89.000 C120.334 89.416 119.916 89.834 119.500 90.250 C119.334 90.250 119.166 90.250 119.000 90.250 C118.834 90.416 118.666 90.584 118.500 90.750"></path>
<path id="" fill="#000000" fill-opacity="1.0" stroke="#000000" stroke-width="0.0" stroke-opacity="1.0" stroke-linecap="round" stroke-linejoin="round"  filling="0" d="M138.000 85.500 C138.000 86.163 137.736 86.799 137.268 87.268 C136.799 87.737 136.163 88.000 135.500 88.000 C134.837 88.000 134.201 87.737 133.732 87.268 C133.264 86.799 133.000 86.163 133.000 85.500 C133.000 84.837 133.264 84.201 133.732 83.732 C134.201 83.263 134.837 83.000 135.500 83.000 C136.163 83.000 136.799 83.263 137.268 83.732 C137.736 84.201 138.000 84.837 138.000 85.500"></path>
<path id="" fill="#000000" fill-opacity="1.0" stroke="#000000" stroke-width="0.0" stroke-opacity="1.0" stroke-linecap="round" stroke-linejoin="round"  filling="0" d="M123.000 85.500 C123.000 86.163 122.737 86.799 122.268 87.268 C121.799 87.737 121.163 88.000 120.500 88.000 C119.837 88.000 119.201 87.737 118.732 87.268 C118.263 86.799 118.000 86.163 118.000 85.500 C118.000 84.837 118.263 84.201 118.732 83.732 C119.201 83.263 119.837 83.000 120.500 83.000 C121.163 83.000 121.799 83.263 122.268 83.732 C122.737 84.201 123.000 84.837 123.000 85.500"></path>
</svg>