<?xml version="1.0" ?>
<svg xmlns="http://www.w3.org/2000/svg" version="1.1" width="256" height="256" viewBox="0 0 256 256">
  <defs/>
  <g>
    <path d="M 262.71984863 231.79661560 C 263.95172119 258.25796509 247.88171387 263.71792603 223.73150635 259.34100342 C 192.74792480 258.92990112 176.58674622 260.78836060 150.91177368 258.82009888 C 126.56114960 260.20513916 109.94828796 258.92489624 80.93696594 261.76486206 C 55.73830414 259.36596680 28.48408508 262.45318604 12.66683960 261.04925537 C -1.21018982 253.51004028 -8.39575195 226.34187317 -7.68545532 197.58346558 C 3.54101562 177.35749817 8.81541443 164.75994873 30.21334076 168.36152649 C 54.83454895 170.18099976 75.25263977 170.64526367 103.37914276 169.72012329 C 131.05947876 169.45933533 149.92639160 168.57589722 174.63342285 169.18508911 C 198.73272705 171.40573120 219.68945312 168.82269287 244.24166870 168.84866333 C 265.97302246 177.29371643 258.32788086 196.42521667 262.71984863 231.79661560" stroke-width="0.59264106" fill="rgb(234, 243, 245)" opacity="1.0" stroke="rgb(255, 255, 255)" stroke-opacity="0.0" stroke-linecap="round" stroke-linejoin="round"/>
    <path d="M 32.15666962 182.52160645 C 33.72721100 184.09152222 33.81196213 184.32203674 35.60242462 186.27848816 C 36.59222412 187.68437195 38.40808105 189.12008667 38.36559677 190.33483887 C 36.61739349 191.78952026 35.07777405 191.92774963 33.29084778 192.26556396 C 31.41583824 192.28326416 30.19409180 192.29449463 27.74778557 192.18978882 C 25.80592728 192.05256653 24.29319382 192.05213928 22.34473991 192.21858215 C 20.29730988 192.09942627 18.77345657 191.99926758 18.43932533 191.86584473 C 19.11859894 189.87757874 19.65476990 189.10237122 20.07456398 187.02001953 C 20.40976906 185.46925354 21.00473785 184.36082458 22.75588608 182.79367065 C 24.51567268 181.29714966 24.80978775 180.67005920 26.81258011 179.96124268 C 28.93961716 180.22132874 30.81589317 181.56175232 32.15666962 182.52160645" stroke-width="0.00000000" fill="rgb(192, 233, 245)" opacity="1.0" stroke="rgb(255, 255, 255)" stroke-opacity="0.0" stroke-linecap="round" stroke-linejoin="round"/>
    <path d="M 112.82684326 194.89741516 C 112.10632324 195.50251770 110.53097534 196.42311096 108.92180634 196.75648499 C 107.32016754 197.22879028 105.87485504 197.55186462 104.02465057 197.24278259 C 102.72836304 196.94921875 100.90277100 196.89993286 99.21591187 196.74746704 C 97.20090485 196.55125427 96.06045532 196.66416931 94.43173981 196.79104614 C 95.41869354 194.80670166 95.76678467 194.44659424 96.65821075 192.51992798 C 98.03106689 190.21449280 97.71097565 190.58509827 98.77644348 188.92932129 C 100.09658051 187.17465210 100.18295288 186.22059631 101.95867920 185.55882263 C 103.82598114 185.87351990 105.03897095 186.88787842 106.11092377 187.97923279 C 107.58776855 189.20045471 108.51927185 190.40556335 109.57352448 191.57925415 C 110.47586060 192.76918030 111.68127441 193.59986877 112.82684326 194.89741516" stroke-width="0.00000000" fill="rgb(192, 236, 243)" opacity="1.0" stroke="rgb(255, 255, 255)" stroke-opacity="0.0" stroke-linecap="round" stroke-linejoin="round"/>
    <path d="M 211.06816101 184.80316162 C 210.87690735 185.59355164 209.83364868 186.31399536 207.93588257 187.16320801 C 206.68885803 187.73869324 205.05773926 188.25405884 203.37286377 187.84562683 C 201.77964783 187.59254456 200.18927002 187.46009827 198.62815857 187.39421082 C 196.47851562 187.27471924 195.79835510 187.43933105 193.89094543 187.68922424 C 193.51237488 186.00140381 194.12957764 185.94470215 195.05560303 183.55541992 C 195.84298706 182.08497620 196.06761169 181.38708496 196.86749268 180.16809082 C 197.99304199 178.50778198 198.53593445 177.37065125 199.71345520 176.69317627 C 201.44201660 176.26170349 202.80978394 177.10198975 204.08676147 178.38594055 C 204.91378784 179.07098389 206.07102966 180.40200806 207.41358948 181.57743835 C 208.68884277 183.07844543 209.77406311 183.46472168 211.06816101 184.80316162" stroke-width="0.00000000" fill="rgb(193, 233, 246)" opacity="1.0" stroke="rgb(255, 255, 255)" stroke-opacity="0.0" stroke-linecap="round" stroke-linejoin="round"/>
    <path d="M 55.68289948 206.21945190 C 56.76978302 207.40295410 56.89939499 207.63433838 58.55538940 209.10556030 C 60.62353134 210.32521057 60.03897095 211.25643921 58.16686630 211.71571350 C 56.62604141 212.00538635 55.90803528 212.37767029 53.74233246 212.62913513 C 52.28495026 212.89656067 50.41951752 212.97451782 48.97044754 212.94367981 C 47.62796021 212.57458496 46.13931656 212.43183899 44.55659103 212.23582458 C 42.94997406 211.79634094 41.65489960 210.71286011 42.72572327 210.27307129 C 43.49340820 209.49082947 44.36879730 207.83212280 45.10890579 206.41731262 C 45.93521881 205.55195618 46.56636810 204.21214294 47.83014679 203.10713196 C 48.69128799 202.15515137 50.74002457 201.61312866 51.87756729 202.49423218 C 53.50711060 203.66217041 54.47181320 204.91371155 55.68289948 206.21945190" stroke-width="0.00000000" fill="rgb(187, 231, 244)" opacity="1.0" stroke="rgb(255, 255, 255)" stroke-opacity="0.0" stroke-linecap="round" stroke-linejoin="round"/>
    <path d="M 161.24589539 215.09646606 C 160.27700806 215.39964294 158.28099060 215.65991211 156.44473267 215.93933105 C 154.42813110 216.17254639 152.81657410 216.41078186 151.02677917 216.30482483 C 148.90068054 216.17558289 147.67041016 216.11952209 145.74354553 216.16203308 C 143.75024414 215.94627380 142.35845947 216.67140198 141.64248657 215.18377686 C 142.67253113 213.75210571 143.40803528 212.84304810 144.75949097 210.54486084 C 145.79182434 209.18293762 146.11383057 208.14805603 147.29084778 207.02984619 C 149.07670593 205.29748535 149.34378052 204.20104980 151.46826172 204.30284119 C 152.64216614 204.66790771 154.46130371 205.87341309 155.71676636 207.14387512 C 156.98937988 208.35757446 158.10031128 209.91075134 159.34362793 211.21000671 C 160.77218628 213.11750793 161.68565369 213.34951782 161.24589539 215.09646606" stroke-width="0.00000000" fill="rgb(191, 233, 241)" opacity="1.0" stroke="rgb(255, 255, 255)" stroke-opacity="0.0" stroke-linecap="round" stroke-linejoin="round"/>
    <path d="M 137.21649170 171.48342896 C 132.64747620 173.19628906 125.02841949 174.47851562 117.12355804 171.41595459 C 108.61384583 167.92218018 105.46772003 163.03996277 103.19541168 155.29252625 C 101.42054749 150.05313110 98.68772125 141.03898621 99.33018494 132.93458557 C 98.90145874 125.94387054 100.39234924 117.96518707 104.16336823 110.24785614 C 108.06343079 103.01896667 112.64403534 97.25869751 119.48744202 93.84508514 C 128.06964111 90.43144226 131.57061768 89.20014191 137.68626404 93.56722260 C 146.17324829 99.43615723 147.73616028 102.87493896 151.99588013 110.66925812 C 154.76640320 114.98725128 157.92724609 122.40284729 157.56533813 132.52104187 C 157.67872620 137.91687012 156.02598572 145.32597351 153.54396057 154.55966187 C 151.51467896 160.30641174 146.80227661 167.39909363 137.21649170 171.48342896" stroke-width="0.59670818" fill="rgb(0, 0, 0)" opacity="1.0" stroke="rgb(22, 22, 22)" stroke-opacity="0.5327479" stroke-linecap="round" stroke-linejoin="round"/>
    <path d="M 151.82881165 152.99835205 C 149.83526611 161.37811279 149.55967712 161.59817505 144.36425781 170.53204346 C 140.85762024 174.68887329 137.30505371 179.38882446 128.47398376 180.78431702 C 122.56340790 180.87275696 118.01346588 180.04487610 111.55108643 172.74499512 C 107.58335876 167.07556152 106.86099243 164.38369751 104.84049988 154.27648926 C 104.21420288 150.17558289 103.20210266 142.12745667 104.76042175 134.41751099 C 106.44345856 128.49652100 106.69796753 124.77091980 110.46871948 119.22858429 C 113.59231567 114.67200470 117.27820587 110.42662811 125.55017090 108.72200775 C 133.64537048 108.51118469 138.40608215 110.91465759 142.50183105 115.07396698 C 148.27157593 122.02825928 149.75494385 126.44799805 151.04934692 132.05564880 C 152.42988586 139.19183350 153.12026978 146.72769165 151.82881165 152.99835205" stroke-width="0.42247909" fill="rgb(246, 245, 235)" opacity="1.0" stroke="rgb(255, 255, 253)" stroke-opacity="0.5317947" stroke-linecap="round" stroke-linejoin="round"/>
    <path d="M 139.02130127 105.35084534 C 136.51644897 106.84034729 131.55056763 107.92395782 126.97286224 108.09362793 C 123.01985168 107.71887207 118.16196442 108.26308441 115.09911346 104.89508820 C 113.04882050 102.32292175 110.59756470 99.12629700 109.70824432 93.93900299 C 108.43527222 90.02249908 108.56896973 85.12074280 110.08404541 80.97541809 C 111.96623230 76.66640472 112.58526611 74.82830811 117.45581818 71.07487488 C 124.68881226 67.98025513 122.38189697 68.47883606 128.03164673 68.27400208 C 133.60305786 68.68922424 136.59254456 69.18869781 140.37503052 72.20942688 C 143.06130981 74.15120697 146.51274109 79.35166931 147.09364319 82.55978394 C 148.19175720 86.80733490 147.26673889 91.26300049 146.49241638 95.28823853 C 145.14698792 99.65796661 143.16247559 103.07994080 139.02130127 105.35084534" stroke-width="0.55441046" fill="rgb(2, 0, 2)" opacity="1.0" stroke="rgb(0, 0, 0)" stroke-opacity="0.5308235" stroke-linecap="round" stroke-linejoin="round"/>
    <path d="M 97.24475098 161.34048462 C 96.97329712 163.46200562 97.07787323 167.43527222 97.26403809 171.74668884 C 98.07615662 172.93435669 96.77639008 167.18875122 94.39749146 164.62162781 C 92.32465363 161.23135376 91.21603394 157.81411743 90.45854187 154.77468872 C 89.69316864 150.77502441 89.39123535 148.40570068 89.80338287 143.90150452 C 90.68175507 139.92449951 92.04055786 138.22535706 94.58715820 134.10726929 C 96.82600403 130.34054565 97.52105713 129.91737366 98.57743835 125.96027374 C 99.54343414 119.37821198 100.67877960 125.40054321 100.39891052 129.89474487 C 99.96440125 132.94799805 99.71849060 135.20265198 99.11881256 139.41592407 C 98.57833862 143.04078674 97.99404907 146.74696350 97.58236694 150.11564636 C 97.36107635 154.11518860 97.61927795 156.55212402 97.24475098 161.34048462" stroke-width="0.30076712" fill="rgb(4, 4, 4)" opacity="1.0" stroke="rgb(53, 54, 54)" stroke-opacity="0.48195553" stroke-linecap="round" stroke-linejoin="round"/>
    <path d="M 164.82424927 157.64424133 C 163.51368713 160.94357300 163.53869629 161.47994995 161.33937073 165.32888794 C 159.49607849 169.09527588 159.16369629 168.21412659 159.41864014 163.61532593 C 159.07307434 160.86241150 158.61750793 157.45022583 158.65534973 154.35108948 C 158.90927124 150.68641663 159.06242371 148.54237366 158.55740356 145.05307007 C 158.03250122 141.43592834 157.16981506 139.92460632 156.77182007 135.64839172 C 156.67147827 131.93344116 156.39042664 131.22222900 156.70239258 127.57247925 C 157.71717834 124.10358429 158.60197449 129.14004517 160.06704712 131.54376221 C 162.01947021 134.20903015 162.92631531 135.98205566 164.52464294 139.08308411 C 165.87417603 142.43347168 166.84150696 144.81961060 166.82040405 147.82315063 C 166.30410767 151.47775269 165.68663025 154.29750061 164.82424927 157.64424133" stroke-width="0.59177893" fill="rgb(0, 0, 0)" opacity="1.0" stroke="rgb(0, 0, 0)" stroke-opacity="0.4709436" stroke-linecap="round" stroke-linejoin="round"/>
    <path d="M 112.35726166 177.84460449 C 112.58916473 177.52670288 113.56244659 175.88162231 114.85961151 175.09173584 C 116.29289246 174.09819031 117.45837402 174.81170654 118.84483337 175.46765137 C 119.91307068 175.97789001 121.74745178 176.08001709 123.06712341 176.46701050 C 124.81880951 176.91046143 124.46739960 178.56011963 124.07545471 180.03356934 C 123.78580475 181.18934631 123.82380676 183.36405945 122.66340637 182.94749451 C 120.78528595 182.04504395 121.12919617 181.23571777 119.63185120 181.34608459 C 118.43247223 182.34658813 118.11566925 184.10531616 117.12660980 183.19860840 C 116.75267029 180.88565063 116.29975891 179.84992981 114.30731964 181.34097290 C 112.96801758 181.89860535 111.22727203 182.93518066 110.34134674 181.73501587 C 110.72280884 180.32156372 111.30078888 180.07167053 112.35726166 177.84460449" stroke-width="0.00000000" fill="rgb(240, 169, 79)" opacity="1.0" stroke="rgb(255, 237, 171)" stroke-opacity="0.091738515" stroke-linecap="round" stroke-linejoin="round"/>
    <path d="M 131.24600220 176.56452942 C 132.99790955 176.00579834 132.85554504 176.40521240 134.99052429 175.60212708 C 136.18974304 175.46646118 137.69337463 174.26249695 139.15579224 174.55410767 C 140.08096313 174.94801331 140.98100281 176.11141968 141.88587952 177.46124268 C 142.75126648 178.74079895 143.46546936 179.95713806 144.05447388 180.73463440 C 143.90733337 182.45651245 142.86256409 181.65832520 141.44996643 181.23100281 C 139.36134338 181.10417175 139.25291443 180.48153687 138.32446289 181.58096313 C 137.82637024 183.19860840 137.12698364 184.30862427 136.14491272 183.14169312 C 135.66157532 181.64782715 135.03596497 181.81304932 133.17669678 182.67303467 C 131.74615479 182.56141663 131.28619385 180.88069153 130.87258911 179.91807556 C 130.15876770 178.03491211 129.63484192 177.46081543 131.24600220 176.56452942" stroke-width="0.00000000" fill="rgb(241, 165, 78)" opacity="1.0" stroke="rgb(252, 197, 109)" stroke-opacity="0.27629656" stroke-linecap="round" stroke-linejoin="round"/>
    <path d="M 124.21135712 96.58953094 C 124.94200897 96.29660797 125.60295105 95.95362091 126.88155365 95.43627930 C 127.84944916 95.20733643 128.83300781 95.12841034 129.78369141 95.78989410 C 130.59378052 96.25289917 131.54873657 96.34375763 132.56985474 96.87561798 C 133.69796753 97.63853455 134.46838379 98.40111542 133.86553955 99.02263641 C 133.17190552 99.69013977 132.26354980 100.63277435 131.71553040 101.08606720 C 130.19285583 102.33591461 130.39021301 102.00427246 129.78628540 102.95021057 C 129.12300110 104.29592896 128.30883789 104.04403687 127.11717987 103.11700439 C 126.15552521 102.31333923 125.62690735 101.56466675 124.77067566 100.90733337 C 123.77649689 100.17552185 122.96792603 99.45110321 122.21063995 98.76992798 C 122.01440430 97.72612762 123.26489258 97.61733246 124.21135712 96.58953094" stroke-width="0.49216792" fill="rgb(251, 212, 108)" opacity="1.0" stroke="rgb(165, 138, 99)" stroke-opacity="0.82548827" stroke-linecap="round" stroke-linejoin="round"/>
    <path d="M 135.65806580 89.55332947 C 135.37893677 89.19324493 134.90779114 88.51748657 134.39425659 87.51940918 C 134.18470764 86.70435333 133.93171692 86.00723267 134.27340698 85.11541748 C 134.68626404 84.04424286 135.00096130 83.46408844 135.55928040 82.88840485 C 136.63844299 81.91173553 137.12770081 81.93326569 137.95719910 81.76753998 C 139.10478210 82.03984070 139.95443726 82.54247284 140.50274658 83.04354095 C 141.55052185 84.40832520 141.38194275 84.02074432 141.78114319 85.00152588 C 142.14726257 85.95922089 142.26422119 86.90438843 142.08294678 87.81826782 C 141.75070190 88.80674744 141.26937866 89.62834167 140.68928528 90.22535706 C 140.12733459 90.73907471 139.24374390 91.20434570 138.20806885 91.16564178 C 137.32180786 91.04491425 136.94650269 90.64230347 135.65806580 89.55332947" stroke-width="0.34694910" fill="rgb(201, 201, 201)" opacity="1.0" stroke="rgb(73, 74, 73)" stroke-opacity="0.31093183" stroke-linecap="round" stroke-linejoin="round"/>
    <path d="M 121.59523773 87.47145844 C 121.49027252 87.84606171 121.10656738 88.69300842 120.55953979 89.49819946 C 120.00786591 89.98432159 119.36528015 90.63410950 118.35060883 90.84247589 C 117.36215210 91.01543427 117.20745087 90.96102905 116.09734344 90.25057220 C 115.34878540 89.73381805 114.85081482 89.19711304 114.44197845 88.29117584 C 113.99031067 87.44519043 113.89440918 86.52383423 114.05717468 85.72219086 C 114.55423737 84.22865295 114.34678650 84.54537964 114.93257141 83.74962616 C 115.50474548 83.06107330 116.51113129 82.32257843 117.15972900 82.14222717 C 118.48978424 81.93982697 119.13238525 82.13615417 119.77844238 82.57196808 C 120.50345612 83.08568573 121.03371429 83.83407593 121.35787964 84.55403137 C 121.77329254 85.40936279 121.82001495 85.84679413 121.59523773 87.47145844" stroke-width="0.18849209" fill="rgb(213, 213, 213)" opacity="1.0" stroke="rgb(150, 151, 150)" stroke-opacity="0.7698077" stroke-linecap="round" stroke-linejoin="round"/>
    <path d="M 135.89579773 85.90233612 C 135.93502808 85.70092773 136.30123901 84.98972321 136.60516357 84.37363434 C 136.98852539 83.96011353 137.29609680 83.31479645 138.02256775 83.44387817 C 138.57365417 83.64263916 138.94313049 83.70200348 139.61914062 84.14212036 C 140.17694092 84.51343536 140.66261292 85.02922821 141.12545776 85.42393494 C 141.46742249 86.12139130 141.38049316 86.54604340 141.28930664 87.09318542 C 140.76565552 88.21112061 140.94808960 87.99199677 140.56951904 88.58032990 C 140.16386414 89.10150909 139.56326294 89.48837280 138.97821045 89.61405182 C 138.06147766 89.61431122 137.80133057 89.49740601 137.24867249 89.15067291 C 136.74665833 88.91846466 136.22589111 88.49201965 135.89471436 87.99289703 C 135.61299133 87.41983795 135.71734619 87.06418610 135.89579773 85.90233612" stroke-width="0.00000000" fill="rgb(7, 7, 7)" opacity="1.0" stroke="rgb(32, 33, 32)" stroke-opacity="0.34367228" stroke-linecap="round" stroke-linejoin="round"/>
    <path d="M 115.29957581 87.99107361 C 115.14436340 87.74683380 114.98303986 87.01355743 114.80870819 86.39213562 C 114.86299896 85.83293152 114.94773865 85.27581787 115.45563507 84.74933624 C 115.93004608 84.30292511 116.07594299 84.15212250 116.92205811 83.89701080 C 117.60903168 83.74848938 118.29145050 83.91367340 118.76013184 84.06633759 C 119.44326782 84.40766907 119.66286469 84.60474396 120.04139709 85.13524628 C 120.34449768 86.25598907 120.33453369 86.11222839 120.38098145 86.64388275 C 120.34194946 86.98616028 119.96678925 87.81874847 119.76754761 88.35974121 C 119.34375763 89.09882355 119.17639160 89.21623993 118.47986603 89.34873962 C 117.90605164 89.56374359 117.14241028 89.48722839 116.79684448 89.30085754 C 116.11032867 89.11005402 116.02151489 88.82876587 115.29957581 87.99107361" stroke-width="1.00410056" fill="rgb(16, 17, 17)" opacity="1.0" stroke="rgb(184, 183, 184)" stroke-opacity="0.4507094" stroke-linecap="round" stroke-linejoin="round"/>
  </g>
</svg>
