<?xml version="1.0" ?>
<svg xmlns="http://www.w3.org/2000/svg" version="1.1" width="256" height="256" viewBox="0 0 256 256">
  <defs/>
  <g>
    <path d="M 257.25405884 227.46015930 C 256.97680664 253.95584106 244.77850342 258.74728394 220.45864868 255.76849365 C 187.14695740 255.93933105 179.16375732 256.62255859 148.66683960 256.00131226 C 126.54704285 256.29205322 109.85587311 254.91064453 80.53782654 256.92974854 C 61.51889038 253.05960083 32.39771271 257.46719360 13.23641205 257.00463867 C -1.29313660 246.07595825 -3.73638916 229.60528564 -2.91365051 198.14860535 C 10.53068542 177.88626099 11.86973572 164.54190063 34.86920166 169.56268311 C 67.24702454 170.80967712 71.89185333 170.69352722 106.79347992 169.96466064 C 129.29617310 170.13407898 148.22178650 169.14114380 174.93852234 169.72195435 C 198.22914124 172.09094238 217.13534546 169.60128784 242.67343140 169.11831665 C 262.85723877 172.21101379 256.55566406 198.50460815 257.25405884 227.46015930" stroke-width="0.80000001" fill="rgb(230, 243, 255)" opacity="1.0" stroke="rgb(0, 0, 0)" stroke-opacity="1.0" stroke-linecap="round" stroke-linejoin="round"/>
    <path d="M 30.90626907 183.82264709 C 32.90937042 185.37097168 32.89844513 185.49746704 35.83860779 187.27781677 C 36.87528229 188.22805786 40.76754761 189.23397827 39.37900543 190.25604248 C 36.55279541 190.94174194 35.47603607 190.70291138 32.79550171 191.52055359 C 30.75541306 191.78186035 29.06949615 192.09350586 26.62692451 192.68463135 C 24.81765938 192.93342590 23.06440735 193.48510742 20.49326324 194.07975769 C 18.28306961 194.38264465 16.79976463 194.54972839 15.79446697 194.39274597 C 15.81144047 193.04539490 17.46752548 191.66755676 18.73043060 189.46829224 C 19.76127815 187.74227905 20.60543442 186.58180237 21.95672798 184.54080200 C 23.43915939 182.74891663 23.77720833 181.30296326 25.27351189 180.02352905 C 27.47502899 181.71966553 28.77180862 182.53530884 30.90626907 183.82264709" stroke-width="0.80000001" fill="rgb(214, 233, 255)" opacity="1.0" stroke="rgb(0, 0, 0)" stroke-opacity="1.0" stroke-linecap="round" stroke-linejoin="round"/>
    <path d="M 114.56925201 194.93850708 C 113.09489441 195.67938232 110.93994141 195.82981873 109.02575684 196.18386841 C 106.47544098 196.61547852 104.91323853 197.19580078 102.84104156 197.41574097 C 101.04673004 197.70510864 98.86355591 198.23403931 96.64811707 198.66679382 C 93.91464233 199.15486145 92.89886475 199.61407471 90.48862457 200.13098145 C 90.76720428 197.50677490 91.60399628 197.92886353 93.34579468 195.00602722 C 94.65440369 193.13604736 95.03028107 192.43135071 96.26689911 190.61671448 C 98.01043701 188.32255554 97.39369965 187.69496155 99.59000397 185.21829224 C 101.92735291 185.37683105 103.24716949 187.21961975 104.67741394 188.12872314 C 107.62648773 190.05145264 107.07538605 189.94238281 110.16498566 191.85791016 C 111.41769409 192.65582275 113.87326050 193.67544556 114.56925201 194.93850708" stroke-width="0.80000001" fill="rgb(214, 233, 255)" opacity="1.0" stroke="rgb(0, 0, 0)" stroke-opacity="1.0" stroke-linecap="round" stroke-linejoin="round"/>
    <path d="M 214.51707458 184.58491516 C 213.90827942 185.51846313 212.26875305 185.66647339 209.54501343 186.12858582 C 207.68702698 186.53266907 205.72209167 187.05255127 203.46595764 187.19374084 C 201.41621399 187.52093506 199.52729797 188.12431335 197.51609802 188.53048706 C 194.95016479 189.08702087 193.81773376 189.27206421 191.36860657 189.79220581 C 189.29353333 188.93185425 191.52702332 187.70733643 192.99176025 185.56739807 C 194.28889465 183.74073792 194.76707458 182.74734497 195.74734497 181.38421631 C 197.34468079 178.93284607 197.46742249 178.27600098 198.95353699 176.32136536 C 200.79132080 174.94132996 202.47792053 176.42741394 204.33056641 177.81811523 C 205.78736877 178.88821411 207.51535034 180.13121033 209.32836914 181.24421692 C 211.46907043 182.67961121 212.56698608 182.95295715 214.51707458 184.58491516" stroke-width="0.80000001" fill="rgb(214, 233, 255)" opacity="1.0" stroke="rgb(0, 0, 0)" stroke-opacity="1.0" stroke-linecap="round" stroke-linejoin="round"/>
    <path d="M 58.20241547 205.63798523 C 58.85657883 206.05163574 60.80026245 207.06561279 62.77042770 208.22303772 C 65.91695404 209.44325256 63.98952484 210.90476990 61.62639618 210.81121826 C 59.60275269 210.98504639 57.87257767 211.40122986 55.62680817 211.84349060 C 53.37690735 212.43392944 51.67013168 212.67588806 49.60614777 213.12072754 C 47.54938889 213.21842957 45.52124786 213.81248474 43.47818375 214.63882446 C 41.24333954 215.01560974 39.96163559 213.62242126 41.41771317 212.76135254 C 42.41968918 211.37861633 43.93224716 209.24382019 44.67102814 207.75848389 C 46.56551743 206.05062866 46.94155502 204.38565063 47.85530853 202.74043274 C 48.91717911 200.64071655 51.12259674 199.65400696 52.23196793 201.24604797 C 55.01686096 203.28282166 54.96932983 203.38385010 58.20241547 205.63798523" stroke-width="0.80000001" fill="rgb(214, 233, 255)" opacity="1.0" stroke="rgb(0, 0, 0)" stroke-opacity="1.0" stroke-linecap="round" stroke-linejoin="round"/>
    <path d="M 163.54208374 215.25331116 C 162.02622986 215.62673950 159.68226624 216.11003113 157.66891479 216.49957275 C 155.11228943 217.03982544 153.84741211 217.24465942 151.47595215 217.68785095 C 149.37315369 217.99934387 147.43663025 218.44592285 145.44482422 218.99697876 C 143.29864502 219.14317322 141.62646484 220.19546509 140.20426941 219.43218994 C 141.47146606 217.31616211 142.50755310 216.58605957 144.11770630 213.98197937 C 145.31063843 212.27070618 145.59718323 211.29368591 146.91293335 209.71539307 C 148.65270996 207.37658691 148.34048462 205.70347595 150.83663940 205.67503357 C 152.40716553 206.50090027 153.93405151 207.38723755 156.07127380 208.96307373 C 157.40701294 210.11523438 159.08775330 211.21640015 161.02822876 212.33908081 C 162.96066284 213.59475708 166.59867859 214.77029419 163.54208374 215.25331116" stroke-width="0.80000001" fill="rgb(214, 233, 255)" opacity="1.0" stroke="rgb(0, 0, 0)" stroke-opacity="1.0" stroke-linecap="round" stroke-linejoin="round"/>
    <path d="M 136.66452026 171.23171997 C 132.49487305 173.05432129 125.37655640 174.24758911 117.19357300 170.56600952 C 110.21134949 167.18016052 106.36148071 161.86856079 102.59333801 154.12005615 C 99.47077942 146.02281189 97.89896393 143.16241455 97.99890900 132.23098755 C 98.15043640 125.55516815 98.81459045 119.59024048 103.14543915 110.07339478 C 105.77873993 105.30599213 111.64443970 98.44717407 119.14723206 96.05384064 C 127.63883209 93.78831482 131.35208130 92.58149719 137.85012817 96.13923645 C 146.53318787 100.68157196 148.78031921 103.51402283 153.22781372 111.66773987 C 156.85061646 119.90458679 157.85652161 121.84877014 157.96388245 132.89611816 C 157.39326477 141.21362305 156.82989502 145.29058838 153.78552246 154.93745422 C 151.25216675 160.97355652 146.55477905 166.20205688 136.66452026 171.23171997" stroke-width="0.80000001" fill="rgb(0, 0, 0)" opacity="1.0" stroke="rgb(0, 0, 0)" stroke-opacity="1.0" stroke-linecap="round" stroke-linejoin="round"/>
    <path d="M 152.62333679 151.50097656 C 150.51376343 160.11053467 149.38932800 161.28913879 145.02018738 169.09843445 C 140.63951111 173.63642883 137.64448547 176.69355774 128.48211670 178.42355347 C 122.13060760 177.99084473 118.62698364 176.85536194 112.04821777 169.97538757 C 108.26446533 165.58683777 106.02035522 161.21212769 103.71221924 152.06596375 C 102.71293640 148.10877991 102.57611847 140.69270325 104.55848694 133.58154297 C 106.70906830 126.50035858 107.12957764 122.60659027 110.60291290 118.28358459 C 117.68273163 112.01454163 119.19948578 109.39093018 126.16133881 108.49034119 C 134.15979004 108.07712555 139.10231018 110.67297363 142.65907288 114.75387573 C 148.22116089 121.56132507 150.30416870 125.69267273 152.11007690 132.28948975 C 152.55107117 139.22344971 153.54222107 143.55590820 152.62333679 151.50097656" stroke-width="0.80000001" fill="rgb(240, 240, 240)" opacity="1.0" stroke="rgb(0, 0, 0)" stroke-opacity="1.0" stroke-linecap="round" stroke-linejoin="round"/>
    <path d="M 139.94262695 104.11444092 C 137.27847290 106.26322174 132.33140564 107.93511963 128.18203735 107.93756104 C 124.28614044 108.16905212 120.12215424 107.08192444 116.42052460 104.21902466 C 113.94325256 101.90994263 110.04386139 98.87192535 109.11473846 94.48712921 C 107.56024933 90.65280914 107.84501648 86.10530853 108.96826172 81.94960785 C 110.66872406 77.54168701 111.90322113 75.33408356 116.17333984 72.02927399 C 123.30776978 68.69557953 120.89919281 69.05326843 126.83623505 68.40739441 C 132.34924316 68.37953186 135.50138855 69.01280212 139.22817993 71.35720062 C 142.79498291 73.79817963 146.14944458 78.23341370 146.87294006 80.90900421 C 148.50154114 85.66806030 148.03250122 89.71356201 147.23675537 93.69197083 C 146.31999207 97.79907227 143.62794495 101.47040558 139.94262695 104.11444092" stroke-width="0.80000001" fill="rgb(0, 0, 0)" opacity="1.0" stroke="rgb(0, 0, 0)" stroke-opacity="1.0" stroke-linecap="round" stroke-linejoin="round"/>
    <path d="M 98.16860199 162.06927490 C 97.71752167 165.84985352 98.52202606 167.30627441 97.77363586 172.29977417 C 96.70550537 172.53582764 95.98644257 167.16407776 94.59879303 164.20623779 C 92.63685608 159.67247009 92.26145172 158.58787537 90.49787140 154.58755493 C 89.05912018 150.75596619 87.88921356 149.13627625 89.08807373 144.32307434 C 91.22825623 140.11596680 91.17707825 139.30868530 93.25143433 134.89398193 C 94.98809814 130.56039429 95.69804382 129.57695007 96.42964172 126.22573090 C 97.75060272 120.85064697 98.25833130 126.94257355 98.48965454 131.31713867 C 98.09496307 134.28230286 97.70322418 136.98765564 98.01122284 141.01803589 C 97.96663666 144.31736755 97.98915100 147.82824707 98.06069946 151.37487793 C 97.85966492 154.95161438 97.96614075 157.60745239 98.16860199 162.06927490" stroke-width="0.80000001" fill="rgb(0, 0, 0)" opacity="1.0" stroke="rgb(0, 0, 0)" stroke-opacity="1.0" stroke-linecap="round" stroke-linejoin="round"/>
    <path d="M 163.54313660 159.23550415 C 161.96078491 163.14178467 161.64100647 164.10925293 159.82450867 168.35957336 C 158.23411560 173.92236328 156.99792480 173.50933838 158.06393433 167.29573059 C 158.07369995 164.23503113 157.99078369 160.50946045 157.88572693 156.78776550 C 158.17279053 152.35440063 158.10601807 150.34303284 157.99540710 146.42543030 C 157.94946289 142.52612305 157.82389832 140.14562988 158.00004578 135.79556274 C 158.02624512 131.04927063 158.10604858 129.95701599 157.78088379 126.53702545 C 157.95079041 122.06936646 159.69346619 126.56875610 160.85328674 130.09387207 C 162.31629944 133.86325073 163.14213562 136.31863403 164.68528748 139.22459412 C 166.02249146 143.42027283 167.38102722 145.95845032 167.69699097 148.96279907 C 166.28723145 152.80258179 164.74241638 155.49986267 163.54313660 159.23550415" stroke-width="0.80000001" fill="rgb(0, 0, 0)" opacity="1.0" stroke="rgb(0, 0, 0)" stroke-opacity="1.0" stroke-linecap="round" stroke-linejoin="round"/>
    <path d="M 112.16525269 177.47048950 C 112.93308258 176.24017334 113.17772675 175.66384888 114.68293762 174.72314453 C 116.40641785 173.85258484 117.05471039 174.55307007 118.79434204 175.13110352 C 120.04365540 175.54557800 121.44913483 175.45986938 123.00297546 175.89103699 C 124.32041168 176.28030396 124.53807831 177.87263489 124.34615326 179.46968079 C 124.14009094 180.80128479 123.68147278 182.76168823 122.40938568 182.78791809 C 120.86832428 182.36425781 120.66049957 181.13452148 119.43716431 181.50030518 C 118.35263062 182.52676392 117.65981293 184.11563110 116.89287567 182.98370361 C 116.32502747 180.85653687 115.97996521 179.83871460 113.86150360 181.15745544 C 112.57019043 181.69769287 111.12639618 182.58454895 110.13420868 181.48298645 C 110.59555054 179.95321655 111.57556152 179.12619019 112.16525269 177.47048950" stroke-width="0.80000001" fill="rgb(247, 173, 75)" opacity="1.0" stroke="rgb(0, 0, 0)" stroke-opacity="1.0" stroke-linecap="round" stroke-linejoin="round"/>
    <path d="M 131.02825928 176.04188538 C 132.71261597 175.68612671 133.25009155 175.71371460 134.90498352 175.09268188 C 136.12443542 174.98744202 137.38281250 174.15707397 138.92526245 174.48124695 C 139.78912354 174.88523865 140.85198975 175.91455078 141.73883057 177.15681458 C 142.61013794 178.23687744 143.27291870 179.60304260 143.72004700 180.49844360 C 143.74914551 182.23770142 142.80075073 181.98377991 141.23117065 181.51072693 C 139.21701050 181.30725098 139.29074097 180.92266846 138.13059998 181.67945862 C 137.38777161 182.79241943 136.42718506 183.43836975 135.40235901 182.47386169 C 134.67855835 181.72613525 133.64843750 182.27961731 132.35231018 182.30731201 C 131.23916626 181.81773376 130.62551880 180.29719543 130.31307983 179.07968140 C 129.73684692 177.57560730 129.65617371 176.31721497 131.02825928 176.04188538" stroke-width="0.80000001" fill="rgb(246, 167, 74)" opacity="1.0" stroke="rgb(0, 0, 0)" stroke-opacity="1.0" stroke-linecap="round" stroke-linejoin="round"/>
    <path d="M 123.57371521 95.99278259 C 124.56404114 95.59971619 125.09384918 95.36859894 126.57991791 94.83690643 C 127.75791931 94.69645691 128.99847412 94.23217010 129.93684387 94.96511841 C 130.85104370 95.45526886 131.96058655 95.62039948 132.90209961 96.34626007 C 133.92048645 97.11041260 134.60668945 98.11460114 134.07478333 99.09816742 C 133.08033752 100.24042511 132.47409058 100.50007629 131.58700562 101.31555939 C 129.93437195 102.67455292 130.17398071 102.36007690 129.52610779 103.50159454 C 128.99856567 104.99005890 127.96559143 104.27967072 126.73309326 103.44188690 C 125.67803955 102.63948059 125.06153107 102.01484680 124.05390167 101.11498260 C 123.22865295 100.43961334 122.38352966 99.55644226 121.58683014 98.46529388 C 121.26259613 97.22759247 122.65756226 97.00725555 123.57371521 95.99278259" stroke-width="0.80000001" fill="rgb(249, 204, 101)" opacity="1.0" stroke="rgb(0, 0, 0)" stroke-opacity="1.0" stroke-linecap="round" stroke-linejoin="round"/>
    <path d="M 135.19090271 89.18504333 C 134.88117981 88.81304932 134.41735840 88.12157440 133.93614197 87.13066101 C 133.72119141 86.35089111 133.55220032 85.61596680 133.95475769 84.65438843 C 134.36611938 83.58531952 134.77468872 83.19763184 135.44432068 82.63143158 C 136.70893860 81.75230408 136.90489197 81.81952667 137.93974304 81.51871490 C 139.11399841 81.67738342 139.89561462 82.22796631 140.42756653 82.80696869 C 141.35447693 84.28545380 141.20304871 83.86444855 141.51951599 84.95188141 C 141.82321167 85.99064636 142.01411438 86.84391785 141.77536011 87.78979492 C 141.46209717 88.63958740 140.86058044 89.50185394 140.21656799 90.06612396 C 139.57220459 90.56414032 138.63226318 90.98062897 137.67948914 90.93738556 C 136.54235840 90.56894684 136.54548645 90.30853271 135.19090271 89.18504333" stroke-width="0.80000001" fill="rgb(255, 255, 255)" opacity="1.0" stroke="rgb(0, 0, 0)" stroke-opacity="1.0" stroke-linecap="round" stroke-linejoin="round"/>
    <path d="M 121.50934601 87.26609802 C 121.28330994 87.66593933 120.94293976 88.45553589 120.36831665 89.40644073 C 119.83035278 89.95975494 119.21346283 90.75032043 118.17782593 90.72202301 C 117.35520935 90.82437134 116.66751862 90.78653717 115.75066376 90.19912720 C 114.83232880 89.63708496 114.38059235 89.16764832 113.95742035 88.34530640 C 113.56924438 87.39835358 113.58715820 86.45547485 113.80612183 85.59883118 C 114.46397400 84.06027222 114.20146942 84.42727661 114.80799866 83.50080872 C 115.34954834 82.71319580 116.36962891 81.88105011 116.95590210 81.73850250 C 118.22197723 81.59491730 118.86744690 81.84449768 119.60262299 82.40851593 C 120.26275635 82.89629364 121.00765991 83.61238861 121.48336792 84.32283020 C 122.00384521 85.31285858 121.76111603 85.59232330 121.50934601 87.26609802" stroke-width="0.80000001" fill="rgb(255, 255, 255)" opacity="1.0" stroke="rgb(0, 0, 0)" stroke-opacity="1.0" stroke-linecap="round" stroke-linejoin="round"/>
    <path d="M 133.07998657 85.04933167 C 133.20089722 84.72781372 133.41491699 84.31539154 133.76670837 83.71841431 C 134.11148071 83.36228943 134.42109680 82.75524139 135.01606750 82.87259674 C 135.48294067 82.97325897 135.92762756 83.05277252 136.47598267 83.35408783 C 136.99775696 83.63938141 137.45446777 84.00546265 137.87367249 84.33835602 C 138.13479614 84.97845459 138.05900574 85.29754639 137.96325684 85.81845093 C 137.52272034 86.79305267 137.67433167 86.58633423 137.35800171 87.08806610 C 137.03948975 87.55413055 136.39292908 87.90419769 136.02536011 87.98688507 C 135.32200623 87.97637177 134.97123718 87.93270111 134.37414551 87.65930939 C 133.98132324 87.53504944 133.50668335 87.25450134 133.06791687 86.79053497 C 132.81295776 86.21761322 132.98701477 85.97922516 133.07998657 85.04933167" stroke-width="0.80000001" fill="rgb(0, 0, 0)" opacity="1.0" stroke="rgb(0, 0, 0)" stroke-opacity="1.0" stroke-linecap="round" stroke-linejoin="round"/>
    <path d="M 118.30184937 86.67658997 C 118.07793427 86.09501648 118.14187622 85.89338684 117.95475769 85.12973785 C 118.04122925 84.68718719 118.06921387 84.16703796 118.58590698 83.73535919 C 119.24484253 83.37028503 119.16497803 83.34729004 119.99864197 83.10599518 C 120.57277679 83.01818848 121.19054413 83.11799622 121.63793182 83.16670227 C 122.17527008 83.35980988 122.52966309 83.91356659 122.68453217 84.26298523 C 122.90514374 85.34140015 122.88020325 85.13060760 122.95153809 85.69064331 C 123.01633453 86.11813354 122.63564301 86.79183197 122.36079407 87.20083618 C 121.81509399 87.66493225 121.59668732 87.73185730 120.96812439 87.88658142 C 120.52632904 88.04231262 119.93209076 88.03466034 119.45034027 87.91004181 C 118.86370087 87.71882629 118.83386230 87.37960815 118.30184937 86.67658997" stroke-width="0.80000001" fill="rgb(0, 0, 0)" opacity="1.0" stroke="rgb(0, 0, 0)" stroke-opacity="1.0" stroke-linecap="round" stroke-linejoin="round"/>
  </g>
</svg>
