<?xml version="1.0" ?>
<svg xmlns="http://www.w3.org/2000/svg" version="1.1" width="256" height="256" viewBox="0 0 256 256">
  <defs/>
  <g>
    <path d="M 269.15585327 230.11790466 C 263.53393555 252.72827148 246.26811218 261.84371948 222.74868774 266.10418701 C 194.55090332 270.40063477 171.65649414 270.80682373 150.08274841 269.45288086 C 126.14594269 271.75952148 106.18810272 269.66101074 78.23033142 270.66998291 C 50.68817139 270.11840820 29.12467957 272.40075684 8.94637299 264.02288818 C -7.27616882 246.13937378 -17.48490906 223.15400696 -17.83171082 197.24835205 C -5.13639832 174.61837769 5.30702972 169.12228394 24.07665253 169.03892517 C 49.97134399 169.84288025 74.84237671 170.04724121 100.71306610 169.37026978 C 129.23358154 169.22824097 148.77398682 168.80969238 172.56207275 170.04177856 C 196.70889282 171.67994690 217.94093323 168.87361145 244.75064087 170.22387695 C 263.97140503 176.33815002 273.14257812 193.01356506 269.15585327 230.11790466" stroke-width="2.00000000" fill="rgb(232, 243, 245)" opacity="1.0" stroke="rgb(220, 242, 240)" stroke-opacity="0.032294963" stroke-linecap="round" stroke-linejoin="round"/>
    <path d="M 32.74272156 182.80624390 C 33.86674118 183.74478149 34.87266541 184.85316467 35.61812973 186.37271118 C 36.45473480 187.95678711 37.08806992 189.67999268 36.87707901 191.16789246 C 35.49636078 192.42556763 33.70695496 192.09362793 32.16714096 192.19346619 C 30.73802376 192.15406799 29.04787827 192.12680054 26.98991203 192.10426331 C 25.31069565 191.98059082 23.68641281 192.17750549 21.82271576 192.22398376 C 19.90481758 192.06147766 18.52790642 191.73626709 18.47583961 190.93443298 C 18.41802979 189.46890259 19.26665497 187.82662964 20.17808533 186.07762146 C 21.11484146 184.49230957 21.93198395 183.31120300 23.29081917 182.33396912 C 24.54299736 181.20231628 26.12279129 180.52258301 27.72403526 180.43458557 C 29.86735535 180.80221558 31.25170898 181.87313843 32.74272156 182.80624390" stroke-width="0.26509246" fill="rgb(192, 231, 241)" opacity="1.0" stroke="rgb(255, 255, 255)" stroke-opacity="0.0" stroke-linecap="round" stroke-linejoin="round"/>
    <path d="M 111.13597107 195.32432556 C 110.83522034 196.65118408 109.93106079 197.50123596 108.32292938 197.18849182 C 106.66782379 196.99203491 105.24657440 197.19993591 103.71588898 197.13204956 C 102.15555573 197.12030029 100.85849762 197.01873779 99.31661224 196.96141052 C 97.83675385 196.54524231 95.91690826 196.76565552 95.04373932 196.10414124 C 95.59765625 194.15592957 95.93967438 193.51312256 96.57315063 191.76516724 C 97.60463715 189.74943542 97.67179871 189.61444092 98.37707520 188.74713135 C 99.11129761 187.67239380 99.98551178 186.51663208 101.85311890 186.16833496 C 103.13863373 186.14215088 104.67339325 186.58970642 106.07692719 187.37406921 C 107.66446686 188.27528381 108.67215729 189.57389832 109.39994049 190.73706055 C 109.91866302 191.75216675 110.50607300 193.10723877 111.13597107 195.32432556" stroke-width="0.00000000" fill="rgb(187, 231, 241)" opacity="1.0" stroke="rgb(255, 255, 255)" stroke-opacity="0.0" stroke-linecap="round" stroke-linejoin="round"/>
    <path d="M 209.88175964 185.71797180 C 210.19871521 186.49552917 209.33334351 187.30572510 207.45960999 187.77639771 C 205.92112732 188.06837463 204.49597168 187.79444885 202.93429565 187.60330200 C 201.76115417 187.45808411 200.13386536 187.65544128 198.64892578 187.67835999 C 197.16265869 187.72218323 195.68070984 187.85002136 194.60174561 186.53501892 C 194.17419434 185.52009583 194.77861023 184.29608154 195.59033203 182.66139221 C 196.37939453 181.29067993 196.62820435 180.30836487 197.38993835 179.40571594 C 198.60620117 178.16967773 199.37271118 177.32948303 200.94201660 176.98939514 C 202.00080872 176.87016296 203.22967529 177.11541748 204.90802002 178.25660706 C 205.80776978 178.78152466 206.80337524 179.91552734 207.69573975 181.36767578 C 208.35299683 182.57183838 209.13441467 183.72412109 209.88175964 185.71797180" stroke-width="0.33726677" fill="rgb(187, 230, 246)" opacity="1.0" stroke="rgb(255, 255, 255)" stroke-opacity="0.0" stroke-linecap="round" stroke-linejoin="round"/>
    <path d="M 56.19126892 205.59091187 C 56.84141159 206.33512878 57.51866531 207.12727356 58.25042725 208.77630615 C 59.04290390 210.39553833 59.17239761 211.58697510 58.21919632 212.47776794 C 57.03520966 213.11083984 55.66991806 212.74163818 53.90544891 212.65538025 C 52.24211884 212.66169739 50.85430527 212.51028442 49.47966766 212.67149353 C 47.95894241 212.38702393 46.65113831 212.67953491 44.97782135 212.66703796 C 43.63169098 212.30505371 42.92966461 211.53181458 43.48324585 210.40328979 C 43.74576569 208.85884094 44.16556168 207.20465088 44.99808121 206.13163757 C 46.04192734 205.04759216 46.92641068 203.88961792 47.98036957 203.00111389 C 48.92134476 202.14266968 50.52930069 202.05352783 52.07080460 202.57702637 C 53.74329376 203.30012512 54.89537811 204.22486877 56.19126892 205.59091187" stroke-width="0.26273835" fill="rgb(188, 230, 243)" opacity="1.0" stroke="rgb(255, 255, 255)" stroke-opacity="0.0" stroke-linecap="round" stroke-linejoin="round"/>
    <path d="M 159.83357239 215.96565247 C 159.29896545 216.60450745 157.94369507 216.23840332 155.77546692 216.31994629 C 154.03115845 216.26583862 152.57727051 216.16792297 150.74896240 216.15007019 C 148.86285400 216.09014893 147.47079468 216.12057495 145.96954346 216.13412476 C 143.79234314 216.03796387 142.61776733 215.72784424 143.03192139 213.82983398 C 143.34185791 212.28160095 144.44035339 211.07485962 145.30247498 209.27081299 C 146.12814331 208.00184631 146.46690369 206.93803406 147.75608826 206.35314941 C 149.46092224 205.42318726 150.42527771 205.05374146 152.30076599 205.22407532 C 153.54077148 205.36207581 155.10252380 205.90757751 156.69998169 207.02000427 C 157.86721802 207.91850281 159.02380371 209.49061584 159.74705505 210.91059875 C 160.30105591 212.34379578 160.82312012 214.11749268 159.83357239 215.96565247" stroke-width="0.53517878" fill="rgb(187, 234, 245)" opacity="1.0" stroke="rgb(255, 255, 255)" stroke-opacity="0.0" stroke-linecap="round" stroke-linejoin="round"/>
    <path d="M 137.26686096 169.69961548 C 131.97897339 171.04226685 124.07662964 171.65301514 116.54141235 168.74404907 C 106.54181671 164.87033081 103.96847534 160.48501587 102.36930847 153.21676636 C 100.37889099 144.82882690 98.31806183 135.99537659 98.97998047 130.06858826 C 98.87354279 119.85536194 102.38700104 114.45572662 106.11496735 107.34510803 C 111.52333069 98.72665405 114.70903015 93.60232544 120.51094055 89.27665710 C 129.02961731 84.90918732 133.51475525 83.07959747 138.28282166 88.23573303 C 145.32025146 95.79565430 145.79156494 101.93051147 149.80639648 106.80973053 C 154.39985657 113.94584656 157.57070923 121.05753326 157.28067017 129.26419067 C 157.55560303 137.93008423 155.55059814 146.08219910 154.28352356 152.51278687 C 151.68861389 160.47679138 148.09056091 165.48336792 137.26686096 169.69961548" stroke-width="0.54837453" fill="rgb(0, 0, 1)" opacity="1.0" stroke="rgb(6, 6, 7)" stroke-opacity="0.5887978" stroke-linecap="round" stroke-linejoin="round"/>
    <path d="M 151.96798706 151.63978577 C 150.31837463 160.15356445 149.99937439 160.14045715 145.35925293 169.72796631 C 142.39689636 174.11006165 139.21990967 179.80628967 130.98345947 181.74589539 C 125.29825592 182.26853943 120.17517090 181.71546936 112.94731140 174.70495605 C 109.43933868 171.10855103 107.51033020 166.13301086 105.45327759 157.52198792 C 104.14087677 150.83100891 103.12322998 144.39889526 104.41230011 136.45318604 C 105.69628143 130.47224426 105.66104126 127.86718750 109.40623474 121.05836487 C 112.52336884 115.63823700 115.66386414 111.78210449 123.04569244 109.18627167 C 131.48580933 107.92065430 136.08166504 109.66836548 141.29991150 113.88655090 C 147.55882263 120.17205811 149.16705322 124.86129761 150.72448730 130.49908447 C 152.39077759 137.91677856 153.36721802 145.07843018 151.96798706 151.63978577" stroke-width="0.50973850" fill="rgb(245, 243, 236)" opacity="1.0" stroke="rgb(255, 255, 255)" stroke-opacity="0.4538398" stroke-linecap="round" stroke-linejoin="round"/>
    <path d="M 135.29777527 107.91716003 C 134.18817139 108.37136841 129.05070496 107.15281677 123.76158905 107.64718628 C 118.62692261 107.23907471 113.58083344 109.47575378 112.45780182 105.20767975 C 111.13404846 100.59954071 110.30185699 95.70608521 109.51295471 92.38929749 C 108.18164825 86.74100494 108.51764679 84.69778442 111.06587982 78.75900269 C 113.19924927 74.81836700 114.08641052 72.90457153 119.67235565 69.80261230 C 127.13688660 67.92483521 124.78797150 67.95626068 130.40609741 68.29270172 C 135.70201111 69.12796783 139.07893372 70.40694427 142.40834045 73.90863037 C 145.46545410 77.27990723 147.48944092 82.39412689 147.65496826 86.11513519 C 148.10186768 89.74390411 146.67070007 94.32066345 145.13249207 98.59287262 C 142.87677002 102.88958740 141.11344910 107.21178436 135.29777527 107.91716003" stroke-width="0.48145574" fill="rgb(3, 0, 1)" opacity="1.0" stroke="rgb(0, 0, 0)" stroke-opacity="0.5322799" stroke-linecap="round" stroke-linejoin="round"/>
    <path d="M 97.42649841 161.31549072 C 97.06198120 163.90516663 96.87802124 167.54257202 98.06661224 171.44728088 C 98.78208923 172.01260376 97.61791992 168.40130615 94.68521118 165.65374756 C 92.47734833 162.12377930 91.49426270 158.86891174 90.41117096 155.08270264 C 89.31901550 150.27848816 89.28366089 149.57893372 89.61395264 144.15803528 C 90.94255829 139.39428711 91.10353088 139.47067261 94.14562988 134.32144165 C 96.79058075 129.84408569 97.14243317 130.66427612 98.39161682 126.46957397 C 99.14854431 119.46473694 101.70644379 125.14211273 101.42714691 129.64973450 C 100.48667145 133.38554382 99.45549774 135.67845154 99.14299774 139.38639832 C 98.62020874 143.43122864 98.44660950 146.65351868 97.86253357 150.15208435 C 97.33638000 154.34481812 97.80938721 156.16256714 97.42649841 161.31549072" stroke-width="0.00000000" fill="rgb(3, 5, 3)" opacity="1.0" stroke="rgb(54, 50, 52)" stroke-opacity="0.895289" stroke-linecap="round" stroke-linejoin="round"/>
    <path d="M 165.14059448 156.46318054 C 163.88829041 159.72329712 163.75352478 160.49839783 161.92712402 164.35351562 C 160.39596558 168.50355530 158.78706360 166.87800598 159.02534485 161.80511475 C 158.91674805 158.96089172 158.60855103 155.81761169 158.79409790 152.43118286 C 159.04376221 148.47096252 158.82795715 146.25895691 158.17361450 143.06239319 C 157.36738586 139.14823914 156.54750061 137.24702454 155.79046631 133.95254517 C 154.88658142 129.88095093 154.84698486 128.61495972 155.39416504 125.90837097 C 157.04415894 122.50382996 157.89646912 127.46580505 159.29806519 129.88116455 C 160.94371033 132.93122864 162.08938599 134.92834473 163.76390076 137.62422180 C 165.39758301 140.98733521 166.38626099 143.44784546 166.71690369 146.22428894 C 166.66755676 150.08616638 165.83113098 153.14529419 165.14059448 156.46318054" stroke-width="0.57450998" fill="rgb(2, 1, 1)" opacity="1.0" stroke="rgb(4, 4, 5)" stroke-opacity="0.5326665" stroke-linecap="round" stroke-linejoin="round"/>
    <path d="M 112.69613647 177.87756348 C 112.93936157 177.33369446 113.72350311 175.78256226 115.02567291 175.08694458 C 116.50506592 174.28065491 117.54830170 175.25799561 119.10500336 175.80865479 C 120.23452759 176.16267395 121.60477448 176.08267212 123.25700378 176.54508972 C 124.99723816 177.06921387 124.03268433 178.72152710 123.49356079 180.29003906 C 123.43106079 181.48477173 124.35905457 182.91342163 122.94114685 182.62811279 C 120.70185852 181.46511841 121.38621521 180.97093201 119.71937561 180.63574219 C 118.61349487 181.46580505 118.21618652 183.76658630 117.35183716 182.99026489 C 116.94758606 180.69694519 116.53867340 179.55313110 114.39040375 180.89649963 C 112.45119476 181.45959473 111.85294342 182.23973083 110.55159760 181.64384460 C 110.80159760 180.64555359 112.05813599 179.65670776 112.69613647 177.87756348" stroke-width="0.53743893" fill="rgb(239, 170, 80)" opacity="1.0" stroke="rgb(232, 171, 109)" stroke-opacity="0.6407662" stroke-linecap="round" stroke-linejoin="round"/>
    <path d="M 130.63349915 176.43782043 C 132.31369019 175.97186279 132.53521729 176.56913757 134.63002014 176.03871155 C 136.01086426 175.76333618 137.51690674 174.17318726 139.04483032 174.56095886 C 140.12533569 174.94898987 140.99795532 176.27119446 142.11753845 177.75259399 C 142.95735168 179.11222839 143.67988586 180.37370300 144.22720337 181.10848999 C 144.35070801 182.37776184 142.71105957 181.76554871 141.89872742 181.37416077 C 139.54513550 180.96807861 139.54119873 180.12374878 138.37532043 180.99313354 C 137.73469543 182.83184814 137.71252441 184.15216064 135.95658875 183.52885437 C 135.59069824 181.35743713 135.26742554 181.06051636 133.32691956 182.78724670 C 131.81997681 183.38392639 131.54078674 182.15187073 131.21867371 180.13215637 C 131.17620850 178.94905090 129.10200500 177.73861694 130.63349915 176.43782043" stroke-width="0.00000000" fill="rgb(239, 166, 85)" opacity="1.0" stroke="rgb(119, 255, 204)" stroke-opacity="0.0" stroke-linecap="round" stroke-linejoin="round"/>
    <path d="M 124.11636353 96.66129303 C 124.56424713 96.52579498 125.64279175 95.88172913 126.80056000 95.39401245 C 127.83784485 95.00924683 128.38623047 95.19329071 129.39640808 95.63092041 C 130.85881042 96.09172821 130.91648865 96.03987122 132.39161682 96.82257080 C 133.44248962 97.47621155 134.50418091 98.51442719 133.90603638 99.10800171 C 133.38287354 99.41558838 132.49197388 100.40800476 131.78491211 101.13523102 C 130.19714355 102.24434662 130.33776855 102.06334686 129.78411865 102.92291260 C 128.99224854 104.61112976 128.44413757 104.59994507 127.20751953 103.49952698 C 126.32653809 102.58984375 125.73787689 101.69440460 124.81631470 101.03754425 C 123.75579834 100.25934601 122.93063354 99.58502960 122.19275665 98.97448730 C 121.83258820 97.82920837 122.70615387 97.94960785 124.11636353 96.66129303" stroke-width="0.45607716" fill="rgb(252, 208, 110)" opacity="1.0" stroke="rgb(164, 133, 100)" stroke-opacity="0.74898463" stroke-linecap="round" stroke-linejoin="round"/>
    <path d="M 135.94145203 89.48117065 C 135.69992065 89.22792053 135.08352661 88.52033997 134.66487122 87.64710236 C 134.43838501 86.92965698 134.40003967 86.31111145 134.45046997 85.35678101 C 134.32592773 84.48664093 134.94734192 83.66421509 135.52848816 83.21623230 C 136.36335754 82.44872284 137.25445557 82.09388733 137.79602051 81.97885132 C 138.79447937 82.05269623 139.56323242 82.59426117 140.24012756 83.06444550 C 141.25187683 84.24047852 141.12370300 83.91484070 141.54394531 84.77387238 C 141.92266846 85.60240936 141.92648315 86.58361816 141.84060669 87.46455383 C 141.49580383 88.57463837 141.18370056 89.25279999 140.75500488 89.77177429 C 140.08322144 90.51875305 139.29345703 90.87859344 138.51010132 90.84120941 C 137.67202759 90.82913208 137.13934326 90.39138031 135.94145203 89.48117065" stroke-width="0.39175367" fill="rgb(206, 205, 205)" opacity="1.0" stroke="rgb(175, 175, 174)" stroke-opacity="0.74339813" stroke-linecap="round" stroke-linejoin="round"/>
    <path d="M 121.47817993 87.00562286 C 121.27829742 87.62005615 120.83453369 88.60974884 120.46378326 89.20378876 C 119.89899445 89.73435974 119.29575348 90.17829132 118.64307404 90.82128143 C 117.73958588 91.26398468 117.42984009 90.87639618 116.46916199 90.32246399 C 115.72051239 89.77456665 115.15165710 89.40966034 114.61585236 88.43805695 C 114.35309601 87.59635162 114.27024841 86.56396484 114.29292297 85.98606110 C 114.63812256 84.42382812 114.46176147 84.71772766 114.89109039 83.95625305 C 115.34471130 83.29940033 116.33679962 82.55390930 117.01806641 82.30155182 C 118.37596130 81.96128082 118.85376740 82.05258179 119.48637390 82.49820709 C 120.26273346 83.09381104 120.86606598 83.85237885 121.12426758 84.33063507 C 121.73484039 85.18783569 121.66609192 85.77661133 121.47817993 87.00562286" stroke-width="0.39985183" fill="rgb(205, 205, 204)" opacity="1.0" stroke="rgb(149, 149, 148)" stroke-opacity="0.69554806" stroke-linecap="round" stroke-linejoin="round"/>
    <path d="M 136.06114197 85.74482727 C 136.13066101 85.60079956 136.44622803 84.81436157 136.71069336 84.27809143 C 137.03790283 83.89327240 137.48397827 83.61897278 138.24862671 83.69895935 C 138.74780273 83.79196167 139.24925232 83.86842346 139.77830505 84.33678436 C 140.29023743 84.76840973 140.56781006 85.34665680 140.95040894 85.80325317 C 141.29995728 86.50457001 141.28627014 86.81264496 141.17369080 87.39827728 C 140.64323425 88.41216278 140.81205750 88.23774719 140.40797424 88.75242615 C 139.99119568 89.21958160 139.33729553 89.47005463 138.75198364 89.55133057 C 137.88203430 89.49038696 137.64480591 89.32041931 137.12657166 88.96099854 C 136.61190796 88.68701172 136.01683044 88.17771149 135.83197021 87.81251526 C 135.63792419 87.15838623 135.88133240 86.86053467 136.06114197 85.74482727" stroke-width="0.22289188" fill="rgb(0, 0, 3)" opacity="1.0" stroke="rgb(79, 82, 81)" stroke-opacity="0.47712624" stroke-linecap="round" stroke-linejoin="round"/>
    <path d="M 115.50703430 88.25723267 C 115.34698486 88.04011536 115.00975800 87.29096222 114.78479004 86.72802734 C 114.74688721 86.17987823 115.01767731 85.73567200 115.38530731 85.06349182 C 115.70811462 84.46830750 115.75010681 84.24269104 116.50840759 83.77118683 C 117.08113098 83.47899628 117.78450775 83.66372681 118.27462769 83.90148926 C 119.05048370 84.09693909 119.41082764 84.31936646 119.74827576 84.74072266 C 120.22920227 85.82952118 120.13026428 85.68386841 120.39212799 86.23673248 C 120.63633728 86.56771088 120.16924286 87.33811951 119.94206238 87.95738220 C 119.55061340 88.77482605 119.53886414 88.95677948 118.91934967 89.25885010 C 118.36686707 89.61683655 117.54632568 89.56761169 117.19061279 89.37136841 C 116.38793182 89.14248657 116.34323883 89.00605774 115.50703430 88.25723267" stroke-width="1.44672394" fill="rgb(4, 4, 4)" opacity="1.0" stroke="rgb(244, 243, 245)" stroke-opacity="0.19985439" stroke-linecap="round" stroke-linejoin="round"/>
  </g>
</svg>
