<?xml version="1.0" ?>
<svg xmlns="http://www.w3.org/2000/svg" version="1.1" width="256" height="256" viewBox="0 0 256 256">
  <defs/>
  <g>
    <path d="M 272.52639771 220.31181335 C 266.67050171 242.99299622 253.26528931 257.78952026 233.36257935 268.80310059 C 204.87960815 279.21899414 180.23135376 280.04644775 158.82823181 282.32308960 C 137.11978149 285.54373169 114.25405884 284.01470947 86.27549744 281.50323486 C 58.77582550 280.50827026 34.25695038 279.35916138 13.30860901 269.51733398 C -5.13385773 252.32614136 -16.91606903 229.70141602 -21.81020355 204.93653870 C -13.55512238 180.77896118 -4.72081757 170.71087646 15.06499481 169.92247009 C 40.51984406 170.31240845 67.50731659 171.01470947 93.73033142 170.68244934 C 123.07509613 170.70135498 143.79307556 170.05850220 167.93399048 170.40672302 C 192.46319580 170.80535889 215.26976013 169.97206116 241.49520874 170.66412354 C 263.67150879 171.20629883 284.04864502 185.46775818 272.52639771 220.31181335" stroke-width="2.00000000" fill="rgb(231, 244, 246)" opacity="1.0" stroke="rgb(218, 237, 242)" stroke-opacity="0.033603914" stroke-linecap="round" stroke-linejoin="round"/>
    <path d="M 32.79453278 182.88771057 C 33.94729614 183.82040405 34.93985748 184.96063232 35.63662338 186.46730042 C 36.45005035 188.07502747 37.07952499 189.77500916 36.79996109 191.23481750 C 35.36439896 192.43232727 33.61181259 192.12461853 32.08235168 192.23071289 C 30.68581772 192.19998169 28.97967339 192.15065002 26.92745018 192.12614441 C 25.26017952 191.98423767 23.63587952 192.17884827 21.79441071 192.22608948 C 19.88201904 192.05087280 18.52468491 191.68391418 18.54998779 190.85302734 C 18.54102325 189.39146423 19.34072495 187.78065491 20.28992081 186.04003906 C 21.22015381 184.53511047 22.03268242 183.33776855 23.38528442 182.34938049 C 24.60257721 181.23455811 26.13034248 180.57838440 27.74504089 180.53674316 C 29.93272209 180.90095520 31.38044930 181.92742920 32.79453278 182.88771057" stroke-width="0.51144069" fill="rgb(190, 232, 243)" opacity="1.0" stroke="rgb(255, 255, 255)" stroke-opacity="0.0" stroke-linecap="round" stroke-linejoin="round"/>
    <path d="M 111.17187500 195.29002380 C 110.94695282 196.67503357 110.14672852 197.63911438 108.55696106 197.28057861 C 106.82561493 197.00675964 105.44432068 197.10943604 103.96600342 197.16786194 C 102.40272522 197.16519165 101.12598419 197.08686829 99.56396484 197.00518799 C 98.10462952 196.59104919 96.16085052 196.76356506 95.13451385 196.22521973 C 95.53420258 194.36761475 95.98334503 193.58630371 96.54615021 191.88983154 C 97.57093048 189.89117432 97.78157806 189.73637390 98.32295227 188.86227417 C 99.07934570 187.81460571 99.74557495 186.79542542 101.59336853 186.26190186 C 102.90957642 186.13693237 104.40486908 186.51379395 105.88065338 187.31152344 C 107.55141449 188.20187378 108.52791595 189.43109131 109.28848267 190.64216614 C 109.92054749 191.76310730 110.41815948 193.04115295 111.17187500 195.29002380" stroke-width="0.69365203" fill="rgb(189, 232, 243)" opacity="1.0" stroke="rgb(255, 255, 255)" stroke-opacity="0.0" stroke-linecap="round" stroke-linejoin="round"/>
    <path d="M 209.80859375 185.75947571 C 209.95240784 186.67762756 209.30450439 187.55625916 207.35798645 187.84561157 C 205.74501038 187.92918396 204.19966125 187.68513489 202.78268433 187.58935547 C 201.14985657 187.40713501 199.81340027 187.65541077 198.35124207 187.67912292 C 196.79699707 187.70822144 195.41712952 187.67695618 194.47323608 186.42355347 C 194.08734131 185.34184265 194.77461243 184.10916138 195.57469177 182.43218994 C 196.39189148 181.11003113 196.71719360 180.08195496 197.40281677 179.30650330 C 198.51756287 178.10673523 199.54328918 177.15948486 200.97723389 176.91546631 C 202.06472778 176.84776306 203.33197021 177.09490967 204.95716858 178.22444153 C 205.90519714 178.74336243 206.88188171 179.83052063 207.77540588 181.35043335 C 208.38101196 182.50164795 209.08677673 183.41471863 209.80859375 185.75947571" stroke-width="0.39613366" fill="rgb(189, 234, 243)" opacity="1.0" stroke="rgb(255, 255, 255)" stroke-opacity="0.0" stroke-linecap="round" stroke-linejoin="round"/>
    <path d="M 56.20803833 205.61293030 C 56.84519958 206.32679749 57.55487061 207.13894653 58.26987839 208.77925110 C 59.07191086 210.40353394 59.21699524 211.63645935 58.25065231 212.52691650 C 57.05355453 213.13885498 55.68486404 212.79103088 53.92750549 212.70443726 C 52.28459167 212.72140503 50.88124847 212.56349182 49.48780823 212.71490479 C 47.99280930 212.42033386 46.67578125 212.73457336 44.96755219 212.74848938 C 43.63085938 212.39932251 42.94337845 211.63468933 43.48376846 210.49069214 C 43.71889877 208.94847107 44.12996292 207.27438354 44.97087860 206.16876221 C 46.01511765 205.09205627 46.92040634 203.95838928 47.96530914 203.05476379 C 48.91770172 202.18005371 50.50143433 202.07182312 52.05531693 202.60363770 C 53.72511673 203.31268311 54.90038681 204.25050354 56.20803833 205.61293030" stroke-width="0.50266856" fill="rgb(186, 230, 245)" opacity="1.0" stroke="rgb(255, 255, 255)" stroke-opacity="0.0" stroke-linecap="round" stroke-linejoin="round"/>
    <path d="M 159.73461914 215.96446228 C 159.22966003 216.60667419 157.82757568 216.23185730 155.69271851 216.28955078 C 153.96322632 216.23681641 152.49902344 216.12327576 150.68835449 216.11923218 C 148.79347229 216.06419373 147.43797302 216.08258057 145.92779541 216.12365723 C 143.75000000 216.06683350 142.68772888 215.61955261 143.15492249 213.74369812 C 143.46733093 212.21795654 144.43971252 210.94857788 145.28985596 209.16099548 C 146.13038635 207.88290405 146.49229431 206.88050842 147.80168152 206.32997131 C 149.52423096 205.44483948 150.47407532 205.03146362 152.33143616 205.21051025 C 153.59117126 205.36080933 155.11054993 205.91693115 156.69375610 207.03121948 C 157.87919617 207.96195984 159.01756287 209.52207947 159.71571350 210.92288208 C 160.26049805 212.34144592 160.74288940 214.11907959 159.73461914 215.96446228" stroke-width="0.56208020" fill="rgb(187, 232, 245)" opacity="1.0" stroke="rgb(255, 255, 255)" stroke-opacity="0.0" stroke-linecap="round" stroke-linejoin="round"/>
    <path d="M 136.90103149 168.99667358 C 130.62850952 170.41487122 124.27432251 171.15048218 115.98998260 168.34346008 C 106.37102509 165.22821045 103.78160858 159.81987000 102.20913696 152.53970337 C 100.29862213 144.46704102 98.23760223 135.34341431 99.09793091 128.98310852 C 99.10128784 119.59635162 102.48404694 113.82521820 106.64508820 106.53273010 C 111.06681824 99.30094147 115.43835449 92.97019958 121.80374146 88.62085724 C 129.70880127 84.68452454 134.70690918 81.61724854 139.14373779 87.17102051 C 145.56668091 94.98739624 145.48056030 102.16708374 149.66075134 106.59391022 C 154.28411865 113.76084900 157.48518372 120.95150757 157.20156860 129.21511841 C 157.28825378 138.85902405 155.89599609 145.07389832 154.23013306 152.44935608 C 151.78387451 161.08586121 148.40559387 164.63774109 136.90103149 168.99667358" stroke-width="0.53412253" fill="rgb(0, 1, 2)" opacity="1.0" stroke="rgb(17, 17, 17)" stroke-opacity="0.6014015" stroke-linecap="round" stroke-linejoin="round"/>
    <path d="M 152.12741089 150.87850952 C 150.73626709 159.33058167 150.03250122 159.73591614 145.98921204 169.09036255 C 142.71945190 174.24032593 140.40344238 179.44085693 132.18321228 181.98297119 C 126.62683105 182.85522461 121.21156311 182.61791992 113.64045715 175.94961548 C 109.90797424 172.31759644 108.07031250 167.63139343 105.80517578 159.00009155 C 104.31782532 152.05249023 103.18856812 145.28356934 104.19467926 137.97178650 C 105.56211090 131.46214294 105.64109039 128.31330872 108.81663513 122.16804504 C 111.77368164 116.65547180 114.67832184 112.63020325 122.11654663 109.48933411 C 130.70761108 107.87229156 134.12545776 108.86356354 140.67370605 113.25674438 C 147.07630920 119.33341980 148.77407837 123.99731445 150.56387329 129.71420288 C 152.28994751 137.18656921 153.44206238 144.34306335 152.12741089 150.87850952" stroke-width="0.48460370" fill="rgb(243, 242, 235)" opacity="1.0" stroke="rgb(252, 255, 255)" stroke-opacity="0.45678666" stroke-linecap="round" stroke-linejoin="round"/>
    <path d="M 135.61230469 108.92057800 C 134.05241394 109.33395386 128.44526672 106.79548645 123.55358124 107.44277191 C 117.67150879 107.30468750 113.50683594 109.64812469 111.69664001 106.49674225 C 110.62490845 101.67581940 110.83078003 96.36894989 109.63275146 93.11189270 C 108.24507904 87.55265045 108.18979645 85.33966827 110.87654114 79.17171478 C 113.00379944 75.07156372 113.83951569 73.09627533 119.52339935 69.87326813 C 126.75469971 68.05790710 124.81763458 68.06433868 130.11016846 68.29368591 C 135.31694031 68.89514923 139.55874634 70.74050140 142.56457520 74.11065674 C 145.88063049 78.09064484 147.45680237 82.49221802 147.67802429 86.38775635 C 148.05419922 89.89376068 146.66217041 94.46759796 144.85488892 98.96136475 C 142.53964233 103.36673737 140.59829712 108.14642334 135.61230469 108.92057800" stroke-width="0.48002946" fill="rgb(1, 3, 3)" opacity="1.0" stroke="rgb(0, 0, 0)" stroke-opacity="0.5295698" stroke-linecap="round" stroke-linejoin="round"/>
    <path d="M 97.43643188 161.38525391 C 97.10118103 164.00135803 96.81347656 167.67247009 98.04080200 171.46347046 C 98.94832611 171.80050659 97.84733582 168.53178406 94.81388855 165.77902222 C 92.52572632 162.17181396 91.57228088 159.07066345 90.47169495 155.10818481 C 89.33168793 150.07450867 89.32681274 149.64201355 89.63613129 144.10887146 C 91.02532196 139.29397583 91.17755127 139.44892883 94.23291016 134.26124573 C 96.88570404 129.81758118 97.24573517 130.54463196 98.41771698 126.37167358 C 98.98367310 119.68095398 101.75690460 125.44622803 101.66789246 129.75801086 C 100.77780914 132.79115295 99.52951050 135.22921753 99.16806030 139.12905884 C 98.62592316 143.26715088 98.43222046 146.62382507 97.87082672 150.16619873 C 97.35559082 154.35176086 97.84279633 156.13613892 97.43643188 161.38525391" stroke-width="0.00000000" fill="rgb(4, 6, 6)" opacity="1.0" stroke="rgb(54, 50, 52)" stroke-opacity="0.8952928" stroke-linecap="round" stroke-linejoin="round"/>
    <path d="M 165.23815918 156.21081543 C 163.91531372 159.67314148 163.84489441 160.22508240 161.93336487 164.63793945 C 160.08450317 168.54765320 158.86267090 166.62638855 158.91052246 161.32376099 C 158.94059753 158.02621460 158.71810913 156.05201721 158.77499390 151.73236084 C 159.14958191 148.30142212 158.70188904 145.23171997 157.91404724 141.93594360 C 157.10487366 137.89192200 156.28341675 136.08018494 155.26191711 132.89041138 C 154.16145325 128.56405640 154.18350220 127.05288696 154.81805420 124.45391846 C 156.91874695 122.23399353 157.66444397 126.29151917 158.97912598 129.29811096 C 160.51342773 132.19726562 161.56237793 134.01469421 163.34753418 136.91622925 C 165.05419922 140.29194641 166.25656128 142.89927673 166.65496826 145.81158447 C 166.77957153 149.75738525 165.95993042 152.89302063 165.23815918 156.21081543" stroke-width="0.57704449" fill="rgb(1, 3, 4)" opacity="1.0" stroke="rgb(0, 0, 1)" stroke-opacity="0.5363622" stroke-linecap="round" stroke-linejoin="round"/>
    <path d="M 112.88818359 177.81913757 C 113.21099854 177.13612366 113.95613861 175.68405151 115.27447510 175.13401794 C 116.80059052 174.46118164 117.81954956 175.47521973 119.27424622 175.96910095 C 120.34300232 176.27966309 121.75767517 176.18399048 123.37192535 176.65841675 C 125.01337433 177.31442261 123.85224915 178.78361511 123.46746826 180.32931519 C 123.45720673 181.71748352 124.24160004 183.03356934 122.86543274 182.54971313 C 120.68427277 181.35610962 121.35345459 180.84750366 119.74973297 180.54629517 C 118.75185394 181.43159485 118.23306274 183.75473022 117.37481689 182.86741638 C 116.94332123 180.68910217 116.52963257 179.51623535 114.44139862 180.86434937 C 112.59690094 181.44331360 111.84357452 182.30163574 110.73132324 181.53909302 C 111.03160095 180.45967102 112.35269165 179.43354797 112.88818359 177.81913757" stroke-width="0.56569988" fill="rgb(242, 173, 78)" opacity="1.0" stroke="rgb(232, 183, 124)" stroke-opacity="0.71779436" stroke-linecap="round" stroke-linejoin="round"/>
    <path d="M 130.49723816 176.38800049 C 132.13163757 175.93385315 132.48947144 176.54614258 134.53248596 176.01393127 C 135.96133423 175.71090698 137.45774841 174.09844971 138.96238708 174.46957397 C 140.09246826 174.82345581 141.00553894 176.22415161 142.11109924 177.69215393 C 142.97059631 179.08489990 143.60871887 180.33818054 144.18679810 181.00135803 C 144.52734375 182.29438782 142.78411865 181.77046204 141.97589111 181.35598755 C 139.60105896 180.93566895 139.62773132 180.09213257 138.38911438 180.91784668 C 137.62431335 182.77520752 137.87268066 184.05722046 135.93890381 183.61555481 C 135.56675720 181.33900452 135.29164124 180.96717834 133.34535217 182.67517090 C 131.74186707 183.37545776 131.40357971 182.11727905 131.18350220 180.15661621 C 131.21981812 178.86308289 128.97682190 177.67573547 130.49723816 176.38800049" stroke-width="0.00000000" fill="rgb(239, 163, 77)" opacity="1.0" stroke="rgb(134, 255, 199)" stroke-opacity="0.0" stroke-linecap="round" stroke-linejoin="round"/>
    <path d="M 124.08280182 96.73417664 C 124.40704346 96.66162109 125.67810059 95.88619232 126.72217560 95.43659210 C 127.75082397 95.03964996 128.28433228 95.08343506 129.31993103 95.53722382 C 130.80761719 96.01557159 130.85134888 95.93097687 132.34327698 96.72254181 C 133.39904785 97.31974030 134.58471680 98.37445831 134.06842041 98.96167755 C 133.63227844 99.30545044 132.70295715 100.27837372 132.01560974 101.01536560 C 130.38917542 102.10808563 130.55596924 101.96166992 129.96772766 102.74977875 C 129.18008423 104.41716766 128.57057190 104.67349243 127.35801697 103.58589172 C 126.52606964 102.74301147 125.93410492 101.75199127 124.96316528 101.12180328 C 123.95083618 100.33893585 123.07489777 99.65284729 122.33589935 99.07155609 C 121.74523163 97.85774994 122.46673584 98.10374451 124.08280182 96.73417664" stroke-width="0.42912906" fill="rgb(248, 202, 106)" opacity="1.0" stroke="rgb(164, 134, 101)" stroke-opacity="0.72598696" stroke-linecap="round" stroke-linejoin="round"/>
    <path d="M 135.97662354 89.48605347 C 135.71524048 89.21678925 135.11260986 88.54249573 134.68130493 87.67638397 C 134.46705627 86.96844482 134.41339111 86.38169098 134.45556641 85.44178009 C 134.30136108 84.63908386 134.85929871 83.78634644 135.52098083 83.25105286 C 136.19973755 82.57446289 137.14854431 82.14019012 137.81472778 82.03353119 C 138.74298096 82.07089233 139.48159790 82.57656860 140.21426392 83.06155396 C 141.22616577 84.21678925 141.11358643 83.91249847 141.51852417 84.73283386 C 141.89216614 85.52519989 141.90737915 86.53890228 141.83593750 87.42935944 C 141.51127625 88.54092407 141.16719055 89.23026276 140.75204468 89.73014832 C 140.07389832 90.46113586 139.29418945 90.86753845 138.53784180 90.82856750 C 137.70777893 90.82604980 137.15322876 90.36512756 135.97662354 89.48605347" stroke-width="0.36808681" fill="rgb(217, 217, 217)" opacity="1.0" stroke="rgb(172, 172, 171)" stroke-opacity="0.73238945" stroke-linecap="round" stroke-linejoin="round"/>
    <path d="M 121.57421112 87.08227539 C 121.37063599 87.73918152 120.89686584 88.73987579 120.53107452 89.29116821 C 119.91834259 89.86705780 119.28385925 90.26740265 118.63856506 90.89447021 C 117.72646332 91.34951019 117.48264313 90.97624969 116.45692444 90.39835358 C 115.72235107 89.86014557 115.11033630 89.47621155 114.59807587 88.53107452 C 114.33790588 87.65599823 114.24203491 86.62461853 114.27425385 86.02951050 C 114.61568451 84.44931030 114.42118073 84.73523712 114.87357330 83.98152924 C 115.44356537 83.29419708 116.29398346 82.67462158 117.08543396 82.36434937 C 118.28525543 82.00149536 118.92765045 82.07934570 119.55593872 82.57448578 C 120.29973602 83.14984131 120.95107269 83.97657776 121.18278503 84.42489624 C 121.86190033 85.40040588 121.79713440 85.87847900 121.57421112 87.08227539" stroke-width="0.37026691" fill="rgb(214, 214, 214)" opacity="1.0" stroke="rgb(143, 144, 143)" stroke-opacity="0.64803016" stroke-linecap="round" stroke-linejoin="round"/>
    <path d="M 136.10603333 85.69561005 C 136.16883850 85.55060577 136.39424133 84.76573181 136.70848083 84.22888184 C 137.02368164 83.87404633 137.52626038 83.69012451 138.31665039 83.75324249 C 138.83393860 83.81616211 139.40335083 83.86802673 139.85543823 84.33950806 C 140.33491516 84.82557678 140.49174500 85.43927002 140.87550354 85.84963989 C 141.31823730 86.44293213 141.26574707 86.87445068 141.16610718 87.37671661 C 140.65733337 88.38356781 140.80612183 88.21726990 140.44902039 88.71475983 C 140.09854126 89.18607330 139.27952576 89.42127228 138.75354004 89.47292328 C 137.81269836 89.39551544 137.62518311 89.21717072 137.10762024 88.87578583 C 136.51361084 88.52983856 135.98953247 88.03240204 135.87480164 87.72924042 C 135.69200134 87.09479523 135.98918152 86.79106140 136.10603333 85.69561005" stroke-width="0.35793054" fill="rgb(8, 8, 7)" opacity="1.0" stroke="rgb(95, 95, 94)" stroke-opacity="0.5906467" stroke-linecap="round" stroke-linejoin="round"/>
    <path d="M 115.54222870 88.27877808 C 115.37464142 88.05578613 115.00159454 87.28858185 114.74607086 86.77217102 C 114.66298676 86.23533630 115.02587891 85.83226776 115.35240173 85.15785980 C 115.65107727 84.54792023 115.68331909 84.32715607 116.42374420 83.81670380 C 117.02577209 83.49114227 117.73696136 83.66169739 118.17231750 83.92160797 C 118.94142151 84.07113647 119.33760834 84.28109741 119.66719818 84.69044495 C 120.17364502 85.77690887 120.03474426 85.64582825 120.32002258 86.18969727 C 120.64794159 86.49601746 120.17028809 87.24875641 119.93886566 87.87085724 C 119.53560638 88.66707611 119.59080505 88.90126038 118.97754669 89.21756744 C 118.42052460 89.59349823 117.57446289 89.51963043 117.21379089 89.32769012 C 116.37348175 89.14521790 116.34836578 89.07488251 115.54222870 88.27877808" stroke-width="1.37651074" fill="rgb(0, 0, 0)" opacity="1.0" stroke="rgb(239, 238, 240)" stroke-opacity="0.14815627" stroke-linecap="round" stroke-linejoin="round"/>
  </g>
</svg>
