<?xml version="1.0" ?>
<svg xmlns="http://www.w3.org/2000/svg" version="1.1" width="256" height="256" viewBox="0 0 256 256">
  <defs/>
  <g>
    <path d="M 265.12783813 232.22323608 C 263.44677734 257.05368042 249.40237427 264.46405029 223.93148804 260.42364502 C 193.57031250 259.73614502 174.46237183 261.15731812 150.84370422 259.22381592 C 125.97762299 261.62680054 108.75047302 260.34472656 79.85736084 264.25131226 C 51.84558868 263.93374634 30.06711578 267.42868042 12.38105774 262.84637451 C -2.29418182 250.01077271 -9.47437286 224.70767212 -10.23206329 197.02539062 C -0.02670288 175.62486267 8.66995239 164.96241760 28.40262604 167.90425110 C 53.53370667 169.66275024 76.55785370 169.89331055 103.08119202 169.06671143 C 131.83027649 168.40249634 150.56790161 167.93051147 173.70141602 168.43902588 C 198.68603516 171.03181458 218.70100403 168.12487793 244.43904114 168.87347412 C 266.59024048 179.87176514 261.26519775 195.24473572 265.12783813 232.22323608" stroke-width="1.81852615" fill="rgb(230, 245, 247)" opacity="1.0" stroke="rgb(255, 255, 255)" stroke-opacity="0.022625204" stroke-linecap="round" stroke-linejoin="round"/>
    <path d="M 32.78210449 182.79492188 C 33.92849731 183.76821899 34.89944839 184.86718750 35.67777252 186.39080811 C 36.54533768 188.03746033 37.19474792 189.65557861 37.08527756 191.10266113 C 35.72150421 192.45524597 33.93750000 192.21191406 32.38874435 192.29223633 C 30.87490082 192.22952271 29.30824852 192.20536804 27.19291115 192.14790344 C 25.54759979 191.99537659 23.93064117 192.21484375 21.99198914 192.25138855 C 20.17764282 192.07901001 18.79469109 191.81988525 18.54660034 191.01048279 C 18.42602158 189.55807495 19.28697777 187.91575623 20.15454483 186.16122437 C 21.08278275 184.53140259 21.87514305 183.37638855 23.26434898 182.42021179 C 24.53189659 181.27976990 26.11219788 180.58287048 27.73076820 180.48307800 C 29.90110779 180.77990723 31.30593491 181.86257935 32.78210449 182.79492188" stroke-width="0.11353590" fill="rgb(189, 233, 243)" opacity="1.0" stroke="rgb(255, 255, 255)" stroke-opacity="0.0" stroke-linecap="round" stroke-linejoin="round"/>
    <path d="M 111.40021515 195.38406372 C 111.08987427 196.49383545 109.84277344 197.29226685 108.19912720 197.13006592 C 106.70563507 197.03787231 105.20711517 197.29525757 103.59135437 197.22138977 C 102.06146240 197.18739319 100.76454163 197.07723999 99.19960022 196.98652649 C 97.75778961 196.53553772 95.76160431 196.85523987 95.06389618 196.07830811 C 95.79805756 193.98301697 95.98257446 193.53872681 96.67436981 191.69454956 C 97.63529205 189.75126648 97.68952942 189.57136536 98.52307129 188.64556885 C 99.29711914 187.50375366 100.45751953 186.25300598 102.18777466 186.21221924 C 103.51808929 186.27452087 105.16476440 186.80410767 106.35803223 187.60380554 C 107.79063416 188.50422668 108.75609589 189.98789978 109.43592072 191.06961060 C 109.85675049 192.05610657 110.62808990 193.41424561 111.40021515 195.38406372" stroke-width="0.14934309" fill="rgb(188, 235, 248)" opacity="1.0" stroke="rgb(255, 255, 255)" stroke-opacity="0.0" stroke-linecap="round" stroke-linejoin="round"/>
    <path d="M 210.12020874 185.65664673 C 210.37101746 186.50802612 209.49601746 187.07199097 207.62312317 187.70413208 C 206.04826355 188.11044312 204.72543335 187.81359863 203.09873962 187.59100342 C 201.87809753 187.45631409 200.43003845 187.61705017 198.79206848 187.66819763 C 197.31964111 187.69393921 195.77157593 187.87091064 194.59513855 186.65802002 C 194.08851624 185.68280029 194.74440002 184.37744141 195.48236084 182.75283813 C 196.27908325 181.32275391 196.60472107 180.37997437 197.34199524 179.45892334 C 198.58824158 178.21455383 199.34037781 177.31250000 200.89965820 176.97212219 C 201.93653870 176.85494995 203.31640625 177.12716675 204.94195557 178.25144958 C 205.83854675 178.77801514 206.77243042 180.01162720 207.68316650 181.44902039 C 208.37051392 182.67907715 209.30258179 183.94630432 210.12020874 185.65664673" stroke-width="0.00000000" fill="rgb(187, 231, 245)" opacity="1.0" stroke="rgb(255, 255, 255)" stroke-opacity="0.0" stroke-linecap="round" stroke-linejoin="round"/>
    <path d="M 56.16150284 205.56692505 C 56.85282135 206.34571838 57.47077179 207.13227844 58.24052048 208.82077026 C 59.04520416 210.46138000 59.25342560 211.55567932 58.23490524 212.46284485 C 57.00778198 213.10194397 55.64974594 212.79893494 53.89171219 212.69616699 C 52.20344162 212.69464111 50.80686569 212.52697754 49.40304565 212.67877197 C 47.89897156 212.40509033 46.54155731 212.70565796 44.89438629 212.71975708 C 43.51187515 212.34013367 42.78644562 211.55625916 43.34846497 210.44989014 C 43.69555664 208.95466614 44.05867004 207.23112488 44.84246063 206.18891907 C 45.82857513 205.14463806 46.56658936 203.95712280 47.91662216 202.97932434 C 48.62577438 202.31163025 50.34233856 202.08345032 51.96908951 202.56245422 C 53.67646790 203.26513672 54.88031006 204.22084045 56.16150284 205.56692505" stroke-width="0.13111940" fill="rgb(190, 231, 247)" opacity="1.0" stroke="rgb(255, 255, 255)" stroke-opacity="0.0" stroke-linecap="round" stroke-linejoin="round"/>
    <path d="M 160.07279968 215.88294983 C 159.39892578 216.51705933 158.03169250 216.13206482 155.91052246 216.27555847 C 154.07151794 216.26576233 152.66981506 216.22213745 150.85743713 216.19578552 C 149.02212524 216.15092468 147.56173706 216.11158752 146.04786682 216.08723450 C 143.82363892 215.94036865 142.72608948 216.00363159 142.85044861 214.05152893 C 143.25242615 212.47520447 144.34747314 211.39022827 145.16400146 209.47973633 C 145.97102356 208.16117859 146.27778625 207.21318054 147.59866333 206.51448059 C 149.35551453 205.60437012 150.36039734 205.09898376 152.21124268 205.23114014 C 153.28944397 205.26063538 155.27037048 205.97904968 156.64523315 207.01524353 C 157.97296143 208.07733154 158.91506958 209.64294434 159.59138489 210.90686035 C 160.20700073 212.51303101 160.83270264 214.28930664 160.07279968 215.88294983" stroke-width="0.00000000" fill="rgb(184, 235, 242)" opacity="1.0" stroke="rgb(255, 255, 255)" stroke-opacity="0.0" stroke-linecap="round" stroke-linejoin="round"/>
    <path d="M 137.53744507 170.05482483 C 131.68708801 171.30464172 124.37774658 171.67121887 116.91508484 168.73983765 C 106.77856445 164.38557434 104.04645538 161.14756775 102.53463745 153.47140503 C 100.66545868 145.84205627 98.28379059 136.56932068 98.96768951 130.05900574 C 98.75837708 120.92752838 102.14877319 114.94452667 105.96983337 107.65708160 C 111.21917725 99.23240662 114.35250092 94.21260834 120.34579468 89.71131134 C 128.68081665 85.50621796 132.95166016 84.13009644 138.05076599 89.23085022 C 145.32916260 96.84223938 145.93177795 101.61556244 150.17362976 107.45427704 C 154.50460815 114.26130676 157.62651062 121.28060150 157.25624084 129.50758362 C 157.65785217 137.36001587 155.73112488 145.46702576 154.10939026 153.16387939 C 151.94480896 159.78590393 147.32948303 166.51510620 137.53744507 170.05482483" stroke-width="0.53550619" fill="rgb(1, 2, 2)" opacity="1.0" stroke="rgb(6, 7, 7)" stroke-opacity="0.5966339" stroke-linecap="round" stroke-linejoin="round"/>
    <path d="M 151.94320679 152.19328308 C 150.19549561 160.58601379 149.94577026 160.61772156 145.08877563 170.00257874 C 141.86633301 174.41094971 138.61206055 179.56266785 130.22793579 181.33444214 C 124.42538452 181.58940125 119.60131836 180.87701416 112.61154175 173.69789124 C 109.12716675 169.96984863 107.26233673 165.07864380 105.26016235 156.46559143 C 104.04847717 150.02888489 103.12921143 143.53297424 104.60523987 135.54183960 C 105.99711609 129.69883728 105.94186401 127.16603851 109.89693451 120.34672546 C 113.15136719 115.00666809 116.42225647 111.33905029 123.81533813 109.06858826 C 132.21638489 108.12733459 137.11120605 110.16130066 141.78382874 114.35142517 C 147.86599731 120.65457153 149.48016357 125.59372711 150.93927002 131.13302612 C 152.55278015 138.55305481 153.34248352 145.74519348 151.94320679 152.19328308" stroke-width="0.50946581" fill="rgb(247, 246, 233)" opacity="1.0" stroke="rgb(255, 255, 255)" stroke-opacity="0.4579073" stroke-linecap="round" stroke-linejoin="round"/>
    <path d="M 135.69271851 107.38705444 C 134.60964966 107.89337921 129.29142761 107.68665314 124.36128235 107.65183258 C 119.98176575 106.79485321 114.74775696 108.78363800 113.24579620 103.83422852 C 112.28755951 100.98109436 109.87190247 96.28567505 109.27370453 91.49961090 C 108.27806854 87.25114441 108.61115265 83.96372986 111.11489868 78.53309631 C 113.65429688 74.27388763 114.06363678 73.04076385 119.62895203 69.85163879 C 127.19239807 67.83711243 124.90481567 67.94764709 130.47282410 68.37011719 C 135.74523926 69.20863342 138.77455139 70.22463989 142.42463684 73.99948883 C 144.93891907 76.60553741 147.39532471 82.13111115 147.64299011 85.76388550 C 148.08265686 89.47461700 146.74342346 94.01102448 145.40101624 98.24156189 C 143.41874695 102.40726471 141.59027100 106.21617126 135.69271851 107.38705444" stroke-width="0.51152039" fill="rgb(2, 0, 2)" opacity="1.0" stroke="rgb(0, 0, 0)" stroke-opacity="0.56325406" stroke-linecap="round" stroke-linejoin="round"/>
    <path d="M 97.37899017 161.47808838 C 97.03674316 163.91264343 96.96457672 167.55621338 98.11481476 171.58543396 C 98.81275940 172.01707458 97.59571075 168.22257996 94.72167206 165.59494019 C 92.52848816 162.15435791 91.51173401 158.77740479 90.46753693 155.21960449 C 89.40403748 150.72369385 89.26477051 149.57456970 89.58937836 144.35530090 C 91.00445557 139.58798218 91.00199890 139.77276611 94.00392914 134.57785034 C 96.57595062 130.27088928 96.96459198 130.94796753 98.30175018 126.87586975 C 99.23133087 119.73490143 101.14605713 125.39297485 100.78428650 130.05725098 C 99.76552582 133.89759827 99.20441437 136.05155945 99.00122070 139.70668030 C 98.66450500 143.69007874 98.40469360 146.90373230 97.78884888 150.36724854 C 97.35542297 154.52009583 97.84333801 156.22087097 97.37899017 161.47808838" stroke-width="0.00000000" fill="rgb(3, 2, 0)" opacity="1.0" stroke="rgb(54, 50, 52)" stroke-opacity="0.8927437" stroke-linecap="round" stroke-linejoin="round"/>
    <path d="M 165.14169312 156.65644836 C 163.89689636 159.90650940 163.85464478 160.59474182 161.97262573 164.41642761 C 160.52078247 168.41397095 158.92794800 167.18423462 159.14739990 162.19519043 C 159.01399231 159.38243103 158.66944885 156.29524231 158.83992004 152.95075989 C 159.08135986 149.08041382 158.90748596 146.89799500 158.34500122 143.76269531 C 157.63252258 139.99827576 156.85054016 138.17736816 156.32490540 134.75105286 C 155.72885132 130.78083801 155.60327148 129.47680664 155.98080444 126.65390778 C 157.22348022 122.98024750 158.14709473 128.00561523 159.55780029 130.35766602 C 161.25216675 133.38159180 162.31239319 135.37168884 163.97601318 138.13363647 C 165.57495117 141.47795105 166.52352905 143.88038635 166.80874634 146.57118225 C 166.68476868 150.33500671 165.83689880 153.31184387 165.14169312 156.65644836" stroke-width="0.56860244" fill="rgb(0, 5, 1)" opacity="1.0" stroke="rgb(6, 6, 6)" stroke-opacity="0.5394373" stroke-linecap="round" stroke-linejoin="round"/>
    <path d="M 112.58457184 177.94143677 C 112.80857849 177.43940735 113.56504822 175.84814453 114.86293030 175.12692261 C 116.32490540 174.26034546 117.34330750 175.18875122 118.92092133 175.76037598 C 119.99838257 176.16035461 121.53093719 176.08410645 123.11645508 176.48593140 C 124.87138367 176.89938354 124.16644287 178.62049866 123.58145142 180.19551086 C 123.37958527 180.92373657 124.24612427 182.97451782 122.86355591 182.58721924 C 120.66596985 181.48365784 121.26753998 180.92901611 119.63821411 180.76794434 C 118.51615906 181.64134216 118.15897369 183.83290100 117.30483246 182.95018005 C 116.93859100 180.63333130 116.43192291 179.60678101 114.32604980 180.94595337 C 112.43119812 181.53454590 111.82175446 182.34710693 110.49427795 181.75828552 C 110.71298981 180.81909180 111.93796539 179.79483032 112.58457184 177.94143677" stroke-width="0.57026839" fill="rgb(239, 169, 75)" opacity="1.0" stroke="rgb(233, 169, 99)" stroke-opacity="0.54479903" stroke-linecap="round" stroke-linejoin="round"/>
    <path d="M 130.77285767 176.39660645 C 132.46289062 175.91938782 132.53001404 176.47744751 134.67523193 175.91044617 C 135.99789429 175.65911865 137.52049255 174.11198425 139.00920105 174.46199036 C 140.01074219 174.85992432 140.88539124 176.12818909 141.97970581 177.59635925 C 142.81805420 178.91847229 143.54696655 180.18188477 143.95338440 180.99121094 C 143.82855225 182.32641602 142.45164490 181.62225342 141.58305359 181.24719238 C 139.29289246 180.86305237 139.20875549 180.01838684 138.25718689 181.00881958 C 137.93623352 182.90480042 137.16886902 184.31558228 135.93045044 183.29206848 C 135.47155762 181.30329895 135.01972961 181.05773926 133.12243652 182.81381226 C 131.68338013 183.25154114 131.50077820 181.86257935 131.08116150 180.07835388 C 130.63291931 178.57817078 129.12098694 177.91682434 130.77285767 176.39660645" stroke-width="0.00000000" fill="rgb(244, 166, 79)" opacity="1.0" stroke="rgb(195, 221, 119)" stroke-opacity="0.19799985" stroke-linecap="round" stroke-linejoin="round"/>
    <path d="M 124.18559265 96.67316437 C 124.74195099 96.47554779 125.68294525 95.93717194 126.88288879 95.42397308 C 127.83293915 95.06544495 128.58033752 95.21607971 129.62904358 95.74347687 C 131.00526428 96.23048401 131.07644653 96.14893341 132.51029968 96.90142059 C 133.62272644 97.63015747 134.50720215 98.61468506 133.89375305 99.13671112 C 133.35392761 99.51671600 132.47430420 100.48776245 131.75067139 101.19081116 C 130.17198181 102.31184387 130.32078552 102.08065033 129.74847412 102.96350861 C 128.98454285 104.67366791 128.44161987 104.56573486 127.21145630 103.44944000 C 126.31462097 102.50770569 125.68747711 101.69154358 124.80320740 101.01923370 C 123.70578766 100.24115753 122.95082855 99.52864838 122.22514343 98.91352844 C 121.86943054 97.83175659 122.93745422 97.85575867 124.18559265 96.67316437" stroke-width="0.46271637" fill="rgb(244, 205, 110)" opacity="1.0" stroke="rgb(172, 144, 105)" stroke-opacity="0.8202488" stroke-linecap="round" stroke-linejoin="round"/>
    <path d="M 135.81477356 89.40168762 C 135.59295654 89.15847015 134.99055481 88.40087891 134.60391235 87.51373291 C 134.40240479 86.77313232 134.35798645 86.10386658 134.49665833 85.15388489 C 134.49853516 84.18371582 135.15718079 83.42227173 135.64154053 83.08145905 C 136.68395996 82.25465393 137.22332764 82.12760162 137.98295593 81.92012024 C 139.01829529 82.07147217 139.81120300 82.62860107 140.39416504 83.08598328 C 141.39262390 84.33379364 141.23645020 83.97241211 141.63317871 84.90652466 C 141.96995544 85.80043030 141.96386719 86.74076843 141.83706665 87.61024475 C 141.48571777 88.66265106 141.09646606 89.43004608 140.65995789 89.91847992 C 139.99800110 90.60237122 139.19201660 90.93112183 138.36108398 90.86580658 C 137.49394226 90.77680969 137.04217529 90.37673187 135.81477356 89.40168762" stroke-width="0.35171065" fill="rgb(210, 211, 211)" opacity="1.0" stroke="rgb(169, 168, 168)" stroke-opacity="0.7137755" stroke-linecap="round" stroke-linejoin="round"/>
    <path d="M 121.48531342 87.25806427 C 121.32498932 87.63886261 120.86386108 88.68257904 120.42765045 89.34722137 C 119.91371918 89.84971619 119.31266785 90.39906311 118.56247711 90.95942688 C 117.55854034 91.25981903 117.46998596 91.03952789 116.35093689 90.37632751 C 115.71942902 89.91387939 115.02702332 89.38969421 114.57093811 88.42203522 C 114.28946686 87.57745361 114.18812561 86.58563232 114.24217987 85.98800659 C 114.64001465 84.43941498 114.47000122 84.74352264 114.93267822 83.98029327 C 115.40095520 83.30181122 116.38461304 82.53701782 117.07311249 82.31620026 C 118.46772766 82.04290009 118.90693665 82.15768433 119.57388306 82.59036255 C 120.33905029 83.17017365 120.88428497 83.89560699 121.22900391 84.49916077 C 121.73461151 85.28341675 121.71743774 85.81475830 121.48531342 87.25806427" stroke-width="0.37446129" fill="rgb(221, 221, 221)" opacity="1.0" stroke="rgb(142, 144, 143)" stroke-opacity="0.6917503" stroke-linecap="round" stroke-linejoin="round"/>
    <path d="M 136.05435181 85.66701508 C 136.12142944 85.49695587 136.46273804 84.72765350 136.70817566 84.15919495 C 137.03070068 83.77100372 137.41679382 83.34462738 138.19314575 83.42748260 C 138.71728516 83.56646729 139.13502502 83.65010834 139.73080444 84.13842010 C 140.24743652 84.56239319 140.61558533 85.12185669 141.01853943 85.59751129 C 141.33248901 86.36209869 141.30946350 86.58947754 141.19609070 87.26235199 C 140.66908264 88.28772736 140.83474731 88.13043213 140.41917419 88.62808228 C 139.96612549 89.05126953 139.31800842 89.37779999 138.75880432 89.51576996 C 137.92126465 89.54977417 137.69056702 89.37572479 137.11430359 88.95856476 C 136.65269470 88.70606995 136.01147461 88.18385315 135.79095459 87.77547455 C 135.58401489 87.12138367 135.83616638 86.80098724 136.05435181 85.66701508" stroke-width="0.00000000" fill="rgb(14, 15, 15)" opacity="1.0" stroke="rgb(30, 31, 31)" stroke-opacity="0.579907" stroke-linecap="round" stroke-linejoin="round"/>
    <path d="M 115.42599487 88.20877075 C 115.27193451 87.99856567 114.95508575 87.25482941 114.76992798 86.68488312 C 114.78317261 86.14598846 115.05795288 85.71573639 115.43984222 85.04777527 C 115.77056122 84.45102692 115.81228638 84.25490570 116.58821869 83.81344604 C 117.14791870 83.54535675 117.84851837 83.71418762 118.35092926 83.96051788 C 119.10066986 84.23237610 119.40388489 84.41605377 119.77700806 84.86548615 C 120.23077393 85.93825531 120.16706848 85.79273224 120.36599731 86.33663940 C 120.50972748 86.69437408 120.06489563 87.47775269 119.83686829 88.08715820 C 119.43135834 88.92535400 119.37461853 89.02794647 118.75036621 89.31459808 C 118.19687653 89.64657593 117.42699432 89.59468842 117.06915283 89.38716125 C 116.32658386 89.14829254 116.24464417 88.95179749 115.42599487 88.20877075" stroke-width="1.43081462" fill="rgb(7, 7, 7)" opacity="1.0" stroke="rgb(219, 219, 221)" stroke-opacity="0.26019725" stroke-linecap="round" stroke-linejoin="round"/>
  </g>
</svg>
