<?xml version="1.0" ?>
<svg xmlns="http://www.w3.org/2000/svg" version="1.1" width="256" height="256" viewBox="0 0 256 256">
  <defs/>
  <g>
    <path d="M 257.25408936 227.46015930 C 256.97680664 253.95582581 244.77845764 258.74728394 220.45861816 255.76849365 C 187.14695740 255.93933105 179.16372681 256.62255859 148.66679382 256.00134277 C 126.54706573 256.29205322 109.85587311 254.91064453 80.53783417 256.92977905 C 61.51889038 253.05960083 32.39771271 257.46719360 13.23641205 257.00463867 C -1.29313660 246.07595825 -3.73637390 229.60527039 -2.91365051 198.14860535 C 10.53068542 177.88627625 11.86974335 164.54193115 34.86920166 169.56268311 C 67.24705505 170.80967712 71.89185333 170.69352722 106.79349518 169.96466064 C 129.29617310 170.13407898 148.22178650 169.14115906 174.93850708 169.72195435 C 198.22914124 172.09094238 217.13534546 169.60128784 242.67343140 169.11831665 C 262.85723877 172.21102905 256.55566406 198.50460815 257.25408936 227.46015930" stroke-width="1.00000000" fill="rgb(230, 243, 255)" opacity="1.0"/>
    <path d="M 30.90626717 183.82264709 C 32.90936661 185.37097168 32.89844131 185.49746704 35.83860779 187.27781677 C 36.87528229 188.22805786 40.76754761 189.23397827 39.37900162 190.25604248 C 36.55279541 190.94174194 35.47604370 190.70291138 32.79550171 191.52055359 C 30.75541687 191.78186035 29.06949234 192.09350586 26.62692833 192.68463135 C 24.81765938 192.93342590 23.06440735 193.48510742 20.49326515 194.07975769 C 18.28306961 194.38264465 16.79976845 194.54972839 15.79446983 194.39274597 C 15.81144142 193.04539490 17.46752930 191.66755676 18.73043060 189.46829224 C 19.76128197 187.74227905 20.60543823 186.58180237 21.95673180 184.54080200 C 23.43916512 182.74891663 23.77720833 181.30296326 25.27351189 180.02352905 C 27.47502518 181.71966553 28.77180862 182.53530884 30.90626717 183.82264709" stroke-width="1.00000000" fill="rgb(214, 233, 255)" opacity="1.0"/>
    <path d="M 114.56925201 194.93850708 C 113.09489441 195.67938232 110.93994141 195.82981873 109.02575684 196.18386841 C 106.47544098 196.61547852 104.91323853 197.19580078 102.84104156 197.41574097 C 101.04673004 197.70510864 98.86355591 198.23403931 96.64811707 198.66679382 C 93.91464233 199.15486145 92.89886475 199.61407471 90.48862457 200.13098145 C 90.76720428 197.50677490 91.60399628 197.92886353 93.34579468 195.00602722 C 94.65440369 193.13603210 95.03028107 192.43135071 96.26689911 190.61671448 C 98.01043701 188.32255554 97.39370728 187.69496155 99.59000397 185.21829224 C 101.92736053 185.37683105 103.24716949 187.21961975 104.67741394 188.12872314 C 107.62648773 190.05145264 107.07538605 189.94238281 110.16498566 191.85791016 C 111.41769409 192.65582275 113.87326050 193.67544556 114.56925201 194.93850708" stroke-width="1.00000000" fill="rgb(214, 233, 255)" opacity="1.0"/>
    <path d="M 214.51707458 184.58488464 C 213.90827942 185.51844788 212.26875305 185.66644287 209.54501343 186.12855530 C 207.68702698 186.53263855 205.72209167 187.05252075 203.46595764 187.19371033 C 201.41621399 187.52090454 199.52729797 188.12428284 197.51609802 188.53045654 C 194.95018005 189.08699036 193.81773376 189.27203369 191.36860657 189.79217529 C 189.29353333 188.93182373 191.52702332 187.70730591 192.99176025 185.56736755 C 194.28889465 183.74070740 194.76707458 182.74731445 195.74734497 181.38418579 C 197.34468079 178.93281555 197.46742249 178.27597046 198.95353699 176.32133484 C 200.79132080 174.94129944 202.47792053 176.42738342 204.33056641 177.81808472 C 205.78736877 178.88818359 207.51535034 180.13117981 209.32836914 181.24418640 C 211.46907043 182.67958069 212.56697083 182.95292664 214.51707458 184.58488464" stroke-width="1.00000000" fill="rgb(214, 233, 255)" opacity="1.0"/>
    <path d="M 58.20240021 205.63798523 C 58.85656357 206.05163574 60.80024719 207.06561279 62.77041245 208.22303772 C 65.91693878 209.44325256 63.98951721 210.90476990 61.62638474 210.81120300 C 59.60273743 210.98504639 57.87256622 211.40122986 55.62680054 211.84349060 C 53.37689590 212.43392944 51.67011642 212.67588806 49.60613632 213.12071228 C 47.54937744 213.21842957 45.52123260 213.81248474 43.47817230 214.63882446 C 41.24332428 215.01560974 39.96162796 213.62242126 41.41770172 212.76135254 C 42.41967392 211.37861633 43.93223572 209.24382019 44.67101669 207.75848389 C 46.56550598 206.05062866 46.94153976 204.38565063 47.85529709 202.74041748 C 48.91716385 200.64071655 51.12258148 199.65400696 52.23195267 201.24604797 C 55.01684570 203.28282166 54.96931839 203.38385010 58.20240021 205.63798523" stroke-width="1.00000000" fill="rgb(214, 233, 255)" opacity="1.0"/>
    <path d="M 163.54208374 215.25331116 C 162.02622986 215.62673950 159.68226624 216.11003113 157.66891479 216.49957275 C 155.11228943 217.03982544 153.84741211 217.24465942 151.47595215 217.68785095 C 149.37315369 217.99934387 147.43663025 218.44592285 145.44482422 218.99697876 C 143.29864502 219.14317322 141.62646484 220.19546509 140.20426941 219.43218994 C 141.47146606 217.31616211 142.50755310 216.58605957 144.11770630 213.98197937 C 145.31063843 212.27070618 145.59718323 211.29368591 146.91294861 209.71540833 C 148.65270996 207.37658691 148.34048462 205.70347595 150.83663940 205.67503357 C 152.40716553 206.50091553 153.93405151 207.38723755 156.07127380 208.96307373 C 157.40701294 210.11523438 159.08773804 211.21640015 161.02822876 212.33908081 C 162.96066284 213.59474182 166.59867859 214.77029419 163.54208374 215.25331116" stroke-width="1.00000000" fill="rgb(214, 233, 255)" opacity="1.0"/>
    <path d="M 136.66452026 171.23173523 C 132.49484253 173.05432129 125.37654877 174.24758911 117.19355774 170.56600952 C 110.21133423 167.18016052 106.36146545 161.86856079 102.59332275 154.12005615 C 99.47075653 146.02279663 97.89895630 143.16241455 97.99889374 132.23098755 C 98.15042114 125.55516815 98.81457520 119.59024048 103.14543152 110.07340240 C 105.77873230 105.30599976 111.64442444 98.44717407 119.14723206 96.05384064 C 127.63882446 93.78833008 131.35206604 92.58149719 137.85012817 96.13923645 C 146.53318787 100.68157959 148.78031921 103.51402283 153.22779846 111.66773987 C 156.85060120 119.90457916 157.85652161 121.84877777 157.96388245 132.89611816 C 157.39324951 141.21362305 156.82987976 145.29058838 153.78552246 154.93746948 C 151.25215149 160.97357178 146.55474854 166.20205688 136.66452026 171.23173523" stroke-width="1.00000000" fill="rgb(0, 0, 0)" opacity="1.0"/>
    <path d="M 152.62333679 151.50099182 C 150.51374817 160.11053467 149.38932800 161.28915405 145.02018738 169.09843445 C 140.63951111 173.63641357 137.64450073 176.69355774 128.48210144 178.42353821 C 122.13060760 177.99084473 118.62699127 176.85534668 112.04821777 169.97540283 C 108.26445770 165.58682251 106.02036285 161.21212769 103.71221924 152.06596375 C 102.71293640 148.10877991 102.57612610 140.69270325 104.55848694 133.58154297 C 106.70906830 126.50037384 107.12958527 122.60660553 110.60292053 118.28358459 C 117.68273926 112.01455688 119.19949341 109.39093018 126.16133881 108.49034882 C 134.15979004 108.07714081 139.10229492 110.67297363 142.65905762 114.75389099 C 148.22117615 121.56132507 150.30416870 125.69268036 152.11006165 132.28948975 C 152.55105591 139.22344971 153.54222107 143.55590820 152.62333679 151.50099182" stroke-width="1.00000000" fill="rgb(240, 240, 240)" opacity="1.0"/>
    <path d="M 139.94262695 104.11442566 C 137.27847290 106.26320648 132.33139038 107.93511200 128.18203735 107.93755341 C 124.28614044 108.16904449 120.12214661 107.08191681 116.42051697 104.21901703 C 113.94325256 101.90993500 110.04385376 98.87191772 109.11473846 94.48712158 C 107.56024933 90.65279388 107.84501648 86.10530090 108.96825409 81.94959259 C 110.66873169 77.54167175 111.90322876 75.33406067 116.17333984 72.02926636 C 123.30776978 68.69556427 120.89919281 69.05325317 126.83623505 68.40737915 C 132.34924316 68.37951660 135.50138855 69.01278687 139.22817993 71.35718536 C 142.79498291 73.79816437 146.14944458 78.23339844 146.87294006 80.90899658 C 148.50154114 85.66804504 148.03250122 89.71354675 147.23675537 93.69196320 C 146.31999207 97.79905701 143.62794495 101.47039795 139.94262695 104.11442566" stroke-width="1.00000000" fill="rgb(0, 0, 0)" opacity="1.0"/>
    <path d="M 98.16859436 162.06925964 C 97.71752167 165.84985352 98.52201843 167.30625916 97.77362823 172.29977417 C 96.70549774 172.53582764 95.98644257 167.16407776 94.59878540 164.20622253 C 92.63685608 159.67247009 92.26143646 158.58786011 90.49787140 154.58755493 C 89.05911255 150.75596619 87.88921356 149.13627625 89.08807373 144.32307434 C 91.22825623 140.11595154 91.17707825 139.30868530 93.25143433 134.89398193 C 94.98810577 130.56039429 95.69804382 129.57695007 96.42964172 126.22573090 C 97.75060272 120.85064697 98.25833893 126.94257355 98.48965454 131.31713867 C 98.09496307 134.28230286 97.70322418 136.98765564 98.01122284 141.01802063 C 97.96663666 144.31736755 97.98915100 147.82824707 98.06069946 151.37486267 C 97.85965729 154.95159912 97.96613312 157.60745239 98.16859436 162.06925964" stroke-width="1.00000000" fill="rgb(0, 0, 0)" opacity="1.0"/>
    <path d="M 163.54315186 159.23550415 C 161.96080017 163.14178467 161.64102173 164.10925293 159.82452393 168.35955811 C 158.23411560 173.92236328 156.99794006 173.50933838 158.06393433 167.29571533 C 158.07371521 164.23501587 157.99079895 160.50946045 157.88574219 156.78775024 C 158.17280579 152.35440063 158.10603333 150.34303284 157.99542236 146.42543030 C 157.94947815 142.52612305 157.82391357 140.14562988 158.00006104 135.79556274 C 158.02624512 131.04927063 158.10606384 129.95701599 157.78089905 126.53701782 C 157.95080566 122.06936646 159.69348145 126.56876373 160.85330200 130.09387207 C 162.31631470 133.86325073 163.14215088 136.31863403 164.68530273 139.22459412 C 166.02250671 143.42027283 167.38104248 145.95843506 167.69699097 148.96278381 C 166.28724670 152.80258179 164.74243164 155.49986267 163.54315186 159.23550415" stroke-width="1.00000000" fill="rgb(0, 0, 0)" opacity="1.0"/>
    <path d="M 112.16527557 177.47052002 C 112.93311310 176.24018860 113.17774963 175.66387939 114.68296051 174.72315979 C 116.40644836 173.85260010 117.05473328 174.55308533 118.79436493 175.13111877 C 120.04368591 175.54559326 121.44915771 175.45988464 123.00299835 175.89105225 C 124.32043457 176.28031921 124.53810120 177.87265015 124.34618378 179.46969604 C 124.14012146 180.80130005 123.68149567 182.76170349 122.40940857 182.78793335 C 120.86834717 182.36427307 120.66052246 181.13453674 119.43719482 181.50032043 C 118.35265350 182.52677917 117.65984344 184.11564636 116.89289856 182.98371887 C 116.32505798 180.85655212 115.97998810 179.83872986 113.86152649 181.15747070 C 112.57021332 181.69769287 111.12641907 182.58456421 110.13423920 181.48300171 C 110.59557343 179.95323181 111.57558441 179.12619019 112.16527557 177.47052002" stroke-width="1.00000000" fill="rgb(247, 173, 75)" opacity="1.0"/>
    <path d="M 131.02825928 176.04188538 C 132.71261597 175.68612671 133.25009155 175.71371460 134.90498352 175.09268188 C 136.12443542 174.98744202 137.38281250 174.15707397 138.92526245 174.48124695 C 139.78912354 174.88523865 140.85198975 175.91455078 141.73883057 177.15681458 C 142.61013794 178.23687744 143.27291870 179.60304260 143.72004700 180.49844360 C 143.74914551 182.23770142 142.80075073 181.98377991 141.23117065 181.51072693 C 139.21701050 181.30725098 139.29074097 180.92266846 138.13059998 181.67945862 C 137.38777161 182.79240417 136.42718506 183.43836975 135.40235901 182.47384644 C 134.67855835 181.72613525 133.64843750 182.27961731 132.35231018 182.30729675 C 131.23918152 181.81773376 130.62551880 180.29719543 130.31307983 179.07968140 C 129.73684692 177.57560730 129.65618896 176.31721497 131.02825928 176.04188538" stroke-width="1.00000000" fill="rgb(246, 167, 74)" opacity="1.0"/>
    <path d="M 123.57372284 95.99276733 C 124.56404114 95.59970093 125.09385681 95.36859131 126.57991791 94.83689117 C 127.75791931 94.69644165 128.99847412 94.23215485 129.93684387 94.96510315 C 130.85104370 95.45525360 131.96058655 95.62038422 132.90209961 96.34624481 C 133.92048645 97.11039734 134.60667419 98.11458588 134.07478333 99.09815216 C 133.08033752 100.24040985 132.47409058 100.50006104 131.58700562 101.31554413 C 129.93437195 102.67453003 130.17398071 102.36006165 129.52610779 103.50157928 C 128.99856567 104.99004364 127.96559143 104.27965546 126.73309326 103.44187164 C 125.67804718 102.63946533 125.06153107 102.01483154 124.05390167 101.11496735 C 123.22865295 100.43959045 122.38352966 99.55642700 121.58683777 98.46527863 C 121.26260376 97.22757721 122.65756226 97.00724030 123.57372284 95.99276733" stroke-width="1.00000000" fill="rgb(249, 204, 101)" opacity="1.0"/>
    <path d="M 135.19090271 89.18502808 C 134.88117981 88.81303406 134.41735840 88.12155914 133.93614197 87.13064575 C 133.72119141 86.35087585 133.55220032 85.61595154 133.95474243 84.65437317 C 134.36611938 83.58530426 134.77468872 83.19761658 135.44432068 82.63141632 C 136.70893860 81.75228882 136.90489197 81.81951141 137.93974304 81.51869965 C 139.11399841 81.67736816 139.89561462 82.22795868 140.42756653 82.80695343 C 141.35447693 84.28543854 141.20304871 83.86443329 141.51951599 84.95186615 C 141.82321167 85.99063110 142.01411438 86.84390259 141.77536011 87.78977966 C 141.46209717 88.63957214 140.86058044 89.50183868 140.21656799 90.06610870 C 139.57220459 90.56412506 138.63226318 90.98060608 137.67948914 90.93737030 C 136.54235840 90.56893158 136.54548645 90.30850983 135.19090271 89.18502808" stroke-width="1.00000000" fill="rgb(255, 255, 255)" opacity="1.0"/>
    <path d="M 121.50933075 87.26608276 C 121.28330231 87.66591644 120.94292450 88.45552063 120.36830902 89.40642548 C 119.83034515 89.95973969 119.21345520 90.75030518 118.17781830 90.72200012 C 117.35520172 90.82435608 116.66751099 90.78651428 115.75065613 90.19910431 C 114.83232117 89.63706207 114.38058472 89.16763306 113.95741272 88.34529877 C 113.56923676 87.39833832 113.58715057 86.45545959 113.80611420 85.59881592 C 114.46396637 84.06025696 114.20146179 84.42726135 114.80799103 83.50079346 C 115.34954071 82.71318054 116.36962128 81.88103485 116.95589447 81.73848724 C 118.22196960 81.59490967 118.86743927 81.84448242 119.60261536 82.40850067 C 120.26274872 82.89627838 121.00765228 83.61237335 121.48336029 84.32281494 C 122.00383759 85.31284332 121.76110840 85.59230804 121.50933075 87.26608276" stroke-width="1.00000000" fill="rgb(255, 255, 255)" opacity="1.0"/>
    <path d="M 133.08000183 85.04933167 C 133.20091248 84.72781372 133.41493225 84.31539154 133.76673889 83.71841431 C 134.11149597 83.36228943 134.42111206 82.75524139 135.01608276 82.87259674 C 135.48295593 82.97325897 135.92764282 83.05277252 136.47599792 83.35408783 C 136.99777222 83.63938141 137.45448303 84.00546265 137.87368774 84.33835602 C 138.13481140 84.97845459 138.05902100 85.29754639 137.96327209 85.81845093 C 137.52273560 86.79305267 137.67434692 86.58633423 137.35801697 87.08806610 C 137.03950500 87.55413055 136.39294434 87.90419769 136.02537537 87.98687744 C 135.32202148 87.97637177 134.97125244 87.93270111 134.37416077 87.65930939 C 133.98133850 87.53504944 133.50669861 87.25450134 133.06793213 86.79053497 C 132.81297302 86.21761322 132.98704529 85.97922516 133.08000183 85.04933167" stroke-width="1.00000000" fill="rgb(0, 0, 0)" opacity="1.0"/>
    <path d="M 118.30185699 86.67657471 C 118.07794189 86.09500122 118.14189148 85.89337158 117.95476532 85.12972260 C 118.04123688 84.68717194 118.06922150 84.16702271 118.58591461 83.73534393 C 119.24485016 83.37026978 119.16498566 83.34727478 119.99864960 83.10598755 C 120.57278442 83.01817322 121.19055176 83.11798096 121.63793945 83.16668701 C 122.17527771 83.35979462 122.52967072 83.91355133 122.68453979 84.26296997 C 122.90514374 85.34138489 122.88021088 85.13059235 122.95154572 85.69062805 C 123.01634216 86.11811829 122.63565063 86.79181671 122.36080170 87.20082092 C 121.81510162 87.66491699 121.59668732 87.73183441 120.96813202 87.88655853 C 120.52633667 88.04228973 119.93209839 88.03464508 119.45034790 87.91001892 C 118.86370850 87.71880341 118.83386993 87.37959290 118.30185699 86.67657471" stroke-width="1.00000000" fill="rgb(0, 0, 0)" opacity="1.0"/>
  </g>
</svg>
