<?xml version="1.0" ?>
<svg xmlns="http://www.w3.org/2000/svg" version="1.1" width="256" height="256" viewBox="0 0 256 256">
  <defs/>
  <g>
    <path d="M 271.28601074 229.63073730 C 264.79727173 252.23930359 247.92816162 262.29843140 226.17608643 270.55215454 C 198.01316833 278.01290894 174.60311890 277.62246704 152.59529114 278.28640747 C 130.12809753 280.68780518 108.37548828 278.43994141 80.48490906 277.26199341 C 53.11151886 276.26037598 29.54875183 276.67514038 9.86862946 266.92517090 C -7.44709778 248.66456604 -17.70487976 225.97044373 -20.01506042 200.32385254 C -9.30754089 176.46899414 0.58277893 169.61648560 20.66685486 169.55003357 C 46.58159637 170.51809692 72.37954712 170.85504150 97.97059631 170.50436401 C 126.28460693 170.39488220 146.61048889 169.55578613 171.08415222 170.36056519 C 194.29010010 171.32397461 216.19493103 168.64437866 244.70234680 170.57130432 C 266.23907471 174.52365112 276.89318848 191.52975464 271.28601074 229.63073730" stroke-width="2.00000000" fill="rgb(233, 246, 248)" opacity="1.0" stroke="rgb(224, 241, 243)" stroke-opacity="0.01949074" stroke-linecap="round" stroke-linejoin="round"/>
    <path d="M 32.85449219 182.87600708 C 34.02274704 183.82202148 35.00691223 184.93069458 35.72349167 186.44644165 C 36.54239273 188.03565979 37.18854523 189.74981689 36.90538406 191.22224426 C 35.48607254 192.45130920 33.68591690 192.15052795 32.18979645 192.24362183 C 30.76294518 192.20503235 29.08196449 192.16390991 27.01165581 192.13676453 C 25.31491280 191.98934937 23.71561241 192.18653870 21.86557961 192.23641968 C 19.94994926 192.06526184 18.59034348 191.72294617 18.56959534 190.88812256 C 18.53431511 189.42384338 19.37321854 187.80364990 20.31317139 186.06216431 C 21.25046539 184.53048706 22.05859756 183.32127380 23.41351318 182.34037781 C 24.65141869 181.21664429 26.19063950 180.57511902 27.80034637 180.53454590 C 29.97519302 180.90284729 31.42185593 181.92448425 32.85449219 182.87600708" stroke-width="0.59897506" fill="rgb(187, 233, 245)" opacity="1.0" stroke="rgb(255, 255, 255)" stroke-opacity="0.0" stroke-linecap="round" stroke-linejoin="round"/>
    <path d="M 111.15442657 195.34507751 C 110.89017487 196.72567749 110.08763123 197.63885498 108.47254181 197.27183533 C 106.79775238 197.01322937 105.38732910 197.16429138 103.87894440 197.14292908 C 102.29589081 197.13870239 101.01396942 197.04862976 99.46916962 196.98468018 C 97.97467804 196.57073975 96.06479645 196.77456665 95.12121582 196.19351196 C 95.58943939 194.29321289 95.99034882 193.58638000 96.57778168 191.85046387 C 97.60474396 189.85554504 97.76705170 189.67909241 98.38714600 188.84509277 C 99.18467712 187.76544189 99.87657928 186.71492004 101.72375488 186.22544861 C 103.01148987 186.15008545 104.51017761 186.56480408 105.97656250 187.36466980 C 107.61997223 188.25347900 108.62096405 189.50727844 109.37698364 190.70043945 C 109.99044037 191.79930115 110.48283386 193.07093811 111.15442657 195.34507751" stroke-width="0.45730075" fill="rgb(191, 233, 244)" opacity="1.0" stroke="rgb(255, 255, 255)" stroke-opacity="0.0" stroke-linecap="round" stroke-linejoin="round"/>
    <path d="M 209.83624268 185.75344849 C 210.06657410 186.59295654 209.31623840 187.44189453 207.39155579 187.82966614 C 205.83621216 188.01123047 204.29495239 187.79946899 202.85554504 187.65693665 C 201.32513428 187.48141479 199.90495300 187.69245911 198.45149231 187.71354675 C 196.93853760 187.75177002 195.51312256 187.80831909 194.47665405 186.49569702 C 194.07057190 185.44241333 194.70317078 184.24134827 195.54603577 182.58326721 C 196.35853577 181.23464966 196.64173889 180.22932434 197.34591675 179.38442993 C 198.49351501 178.17942810 199.41818237 177.24946594 200.89804077 176.94761658 C 201.97918701 176.82846069 203.21705627 177.08421326 204.87770081 178.24163818 C 205.79945374 178.75267029 206.82243347 179.82913208 207.71914673 181.32862854 C 208.34303284 182.50395203 209.04594421 183.50621033 209.83624268 185.75344849" stroke-width="0.23080443" fill="rgb(190, 232, 243)" opacity="1.0" stroke="rgb(255, 255, 255)" stroke-opacity="0.0" stroke-linecap="round" stroke-linejoin="round"/>
    <path d="M 56.14302063 205.63061523 C 56.80440140 206.36715698 57.47823334 207.14274597 58.21234512 208.79147339 C 59.02168274 210.39956665 59.16090012 211.64294434 58.18778229 212.51129150 C 56.99462128 213.11528015 55.64363861 212.76751709 53.87747192 212.67333984 C 52.22968674 212.68128967 50.83515167 212.52020264 49.45007324 212.66705322 C 47.94623184 212.36706543 46.63784409 212.68502808 44.94512177 212.71328735 C 43.60768890 212.37931824 42.90772247 211.62013245 43.44515228 210.47355652 C 43.67747879 208.92733765 44.08670425 207.27252197 44.92869186 206.18244934 C 45.97865295 205.11843872 46.87256622 203.96833801 47.92246246 203.07670593 C 48.86579514 202.21546936 50.45786667 202.11686707 52.00451660 202.64288330 C 53.66726685 203.34584045 54.85473633 204.29161072 56.14302063 205.63061523" stroke-width="0.34626541" fill="rgb(187, 231, 244)" opacity="1.0" stroke="rgb(255, 255, 255)" stroke-opacity="0.0" stroke-linecap="round" stroke-linejoin="round"/>
    <path d="M 159.76545715 216.00376892 C 159.25332642 216.65197754 157.86885071 216.27058411 155.72016907 216.33491516 C 153.98298645 216.27934265 152.52052307 216.17083740 150.70645142 216.16149902 C 148.81088257 216.10472107 147.44828796 216.12715149 145.93612671 216.16326904 C 143.75605774 216.09426880 142.68133545 215.67350769 143.12486267 213.79548645 C 143.43241882 212.25405884 144.42642212 211.00010681 145.27433777 209.20561218 C 146.11093140 207.93081665 146.47424316 206.90962219 147.77505493 206.35610962 C 149.49046326 205.46121216 150.44911194 205.05541992 152.31349182 205.23689270 C 153.57518005 205.39042664 155.08786011 205.94473267 156.68241882 207.05844116 C 157.86599731 207.98425293 159.01565552 209.54676819 159.72106934 210.95033264 C 160.26834106 212.37373352 160.76156616 214.13690186 159.76545715 216.00376892" stroke-width="0.55979228" fill="rgb(188, 232, 244)" opacity="1.0" stroke="rgb(255, 255, 255)" stroke-opacity="0.0" stroke-linecap="round" stroke-linejoin="round"/>
    <path d="M 137.17013550 169.32200623 C 131.25608826 170.74560547 124.30838776 171.43704224 116.31354523 168.59829712 C 106.45272827 165.05578613 103.90339661 160.15502930 102.32518005 152.92041016 C 100.44440460 144.81068420 98.28108215 135.83221436 99.02999878 129.51086426 C 98.98097229 120.02670288 102.37667084 114.24003601 106.40143585 106.96326447 C 111.08731079 99.36017609 115.14418793 93.28996277 121.29327393 89.06061554 C 129.39820862 85.11454010 134.19419861 82.59772491 138.85498047 87.76651764 C 145.67617798 95.21482849 145.69477844 102.29862976 149.78170776 106.70607758 C 154.37394714 113.83281708 157.50744629 121.12822723 157.20774841 129.38067627 C 157.24656677 138.99127197 155.85272217 145.05126953 154.20286560 152.41503906 C 151.88734436 160.80918884 148.04539490 165.09788513 137.17013550 169.32200623" stroke-width="0.53449041" fill="rgb(0, 0, 0)" opacity="1.0" stroke="rgb(3, 3, 4)" stroke-opacity="0.6024285" stroke-linecap="round" stroke-linejoin="round"/>
    <path d="M 152.07373047 151.28257751 C 150.57879639 159.75907898 150.01629639 159.99128723 145.71926880 169.42224121 C 142.57353210 174.21559143 139.84587097 179.58500671 131.59577942 181.83616638 C 126.07937622 182.51380920 120.67963409 182.10244751 113.34500122 175.28625488 C 109.75112915 171.74038696 107.78407288 166.78039551 105.64041901 158.21650696 C 104.26152802 151.39340210 103.17658997 144.91398621 104.39694214 137.05516052 C 105.62905884 131.00894165 105.61807251 128.37216187 109.19387817 121.59856415 C 112.23052979 116.12027740 115.28714752 112.20984650 122.58893585 109.37989807 C 131.12805176 107.93772888 135.13772583 109.28407288 141.04100037 113.63410950 C 147.36602783 119.79405212 149.00392151 124.46483612 150.67677307 130.14402771 C 152.39080811 137.61659241 153.43179321 144.73506165 152.07373047 151.28257751" stroke-width="0.49704772" fill="rgb(243, 242, 236)" opacity="1.0" stroke="rgb(253, 253, 253)" stroke-opacity="0.44263938" stroke-linecap="round" stroke-linejoin="round"/>
    <path d="M 135.56997681 108.25793457 C 134.24038696 108.74008179 128.55056763 106.90234375 123.69412994 107.50344849 C 117.73049927 107.22772980 113.88829041 109.23233032 112.06181335 106.06009674 C 110.74430847 101.15173340 110.64620972 96.03871155 109.59501648 92.87598419 C 108.19546509 87.22272491 108.34721375 85.13970947 110.93328094 79.02490234 C 112.98022461 75.09759521 113.95616913 72.99587250 119.56423950 69.84942627 C 126.79766846 68.01855469 124.73287201 67.99773407 130.18133545 68.23828125 C 135.43673706 68.91043091 139.42066956 70.64331818 142.47547913 73.94906616 C 145.67559814 77.68361664 147.46607971 82.24726868 147.66725159 86.07166290 C 148.14004517 89.56164551 146.69769287 94.30123138 145.02554321 98.62582397 C 142.64784241 103.12930298 140.95373535 107.49046326 135.56997681 108.25793457" stroke-width="0.51427472" fill="rgb(3, 2, 3)" opacity="1.0" stroke="rgb(0, 0, 0)" stroke-opacity="0.5206469" stroke-linecap="round" stroke-linejoin="round"/>
    <path d="M 97.47428894 161.28323364 C 97.13063812 163.93676758 96.87126160 167.60002136 98.05655670 171.40878296 C 99.00254059 171.76678467 97.88745117 168.38038635 94.85860443 165.67816162 C 92.57215881 162.13307190 91.59923553 158.97457886 90.51795197 155.10525513 C 89.41344452 150.23487854 89.38729858 149.61360168 89.68904114 144.18676758 C 91.01805878 139.39790344 91.21299744 139.48834229 94.24471283 134.34959412 C 96.88747406 129.87620544 97.22748566 130.67230225 98.44418335 126.46989441 C 99.11965942 119.62075806 101.82621002 125.37985992 101.59315491 129.73471069 C 100.69020081 133.12614441 99.55236053 135.48365784 99.20271301 139.27026367 C 98.64458466 143.39381409 98.43898773 146.67564392 97.85464478 150.16374207 C 97.34803772 154.40478516 97.83384705 156.13574219 97.47428894 161.28323364" stroke-width="0.00000000" fill="rgb(5, 5, 1)" opacity="1.0" stroke="rgb(54, 50, 52)" stroke-opacity="0.8952928" stroke-linecap="round" stroke-linejoin="round"/>
    <path d="M 165.21186829 156.28562927 C 163.93449402 159.58502197 163.79516602 160.32908630 161.96722412 164.44778442 C 160.37629700 168.53559875 158.72416687 166.70320129 158.93313599 161.49755859 C 158.96600342 158.70059204 158.64170837 155.66378784 158.80078125 152.00004578 C 159.10733032 148.12203979 158.78938293 145.71032715 158.02539062 142.45477295 C 157.16035461 138.43595886 156.38323975 136.49807739 155.54081726 133.44670105 C 154.49284363 129.07017517 154.38356018 127.79926300 154.98333740 125.13272858 C 156.99154663 122.31819153 157.79476929 126.78740692 159.12500000 129.55804443 C 160.70312500 132.53807068 161.81101990 134.43844604 163.52542114 137.20991516 C 165.19743347 140.61749268 166.30944824 143.15521240 166.69213867 145.96295166 C 166.73741150 149.87377930 165.90879822 152.99940491 165.21186829 156.28562927" stroke-width="0.57888722" fill="rgb(1, 0, 0)" opacity="1.0" stroke="rgb(0, 0, 0)" stroke-opacity="0.5388106" stroke-linecap="round" stroke-linejoin="round"/>
    <path d="M 112.80825806 177.82713318 C 113.08378601 177.22415161 113.85117340 175.73501587 115.14710236 175.10015869 C 116.63986206 174.35791016 117.65888214 175.36392212 119.17462158 175.87542725 C 120.29340363 176.19476318 121.63519287 176.09953308 123.28733826 176.56379700 C 124.98330688 177.14096069 123.93875885 178.70779419 123.47599030 180.24755859 C 123.43999481 181.57292175 124.27912140 182.91491699 122.89649963 182.51695251 C 120.69310760 181.34582520 121.36666870 180.82730103 119.73934174 180.52958679 C 118.69782257 181.39685059 118.25377655 183.70034790 117.34875488 182.90403748 C 116.90044403 180.69117737 116.54945374 179.47694397 114.43027496 180.83494568 C 112.54344940 181.41722107 111.88543701 182.22262573 110.66892242 181.55978394 C 110.89609528 180.51611328 112.18944550 179.52236938 112.80825806 177.82713318" stroke-width="0.55404800" fill="rgb(241, 170, 78)" opacity="1.0" stroke="rgb(232, 179, 116)" stroke-opacity="0.70282364" stroke-linecap="round" stroke-linejoin="round"/>
    <path d="M 130.56982422 176.39907837 C 132.17118835 175.93809509 132.54086304 176.52467346 134.57418823 176.00000000 C 135.99443054 175.69635010 137.47932434 174.09214783 138.98278809 174.45806885 C 140.09973145 174.82096863 140.99246216 176.18505859 142.10650635 177.65490723 C 142.95562744 179.02037048 143.64830017 180.28451538 144.20661926 180.97103882 C 144.44157410 182.26330566 142.74279785 181.71868896 141.94090271 181.30439758 C 139.58207703 180.87759399 139.59155273 180.01211548 138.38569641 180.85716248 C 137.68093872 182.71937561 137.85304260 184.00320435 135.96539307 183.52273560 C 135.57189941 181.29743958 135.28218079 180.94288635 133.35198975 182.69047546 C 131.78312683 183.36660767 131.48873901 182.13282776 131.20932007 180.14254761 C 131.21437073 178.88523865 129.02166748 177.69314575 130.56982422 176.39907837" stroke-width="0.00000000" fill="rgb(238, 164, 72)" opacity="1.0" stroke="rgb(119, 255, 204)" stroke-opacity="0.0" stroke-linecap="round" stroke-linejoin="round"/>
    <path d="M 124.07578278 96.71183014 C 124.43758392 96.62478638 125.64483643 95.88222504 126.73674774 95.40645599 C 127.78136444 95.01551056 128.31637573 95.15306091 129.36126709 95.52995300 C 130.86116028 95.96624756 130.90827942 95.91267395 132.39657593 96.71662140 C 133.43502808 97.33481598 134.58177185 98.41768646 134.03819275 99.02262115 C 133.55447388 99.33789825 132.63517761 100.32655334 131.94389343 101.05966187 C 130.32699585 102.16577911 130.47875977 102.00590515 129.91184998 102.83264923 C 129.12840271 104.50363159 128.52876282 104.66947174 127.28620148 103.58711243 C 126.42029572 102.71640015 125.82376862 101.75693512 124.86677551 101.11501312 C 123.82759094 100.32414246 122.95736694 99.63645935 122.22237396 99.06658173 C 121.76812744 97.88150024 122.54475403 98.08654785 124.07578278 96.71183014" stroke-width="0.43890366" fill="rgb(247, 205, 106)" opacity="1.0" stroke="rgb(162, 133, 100)" stroke-opacity="0.7284125" stroke-linecap="round" stroke-linejoin="round"/>
    <path d="M 135.96511841 89.49891663 C 135.72996521 89.25225067 135.07109070 88.54435730 134.63644409 87.70375824 C 134.41186523 87.00448608 134.42123413 86.42715454 134.46113586 85.46597290 C 134.28475952 84.66193390 134.87283325 83.80843353 135.52653503 83.27993011 C 136.22628784 82.56903076 137.15550232 82.12345123 137.78298950 82.01047516 C 138.72636414 82.04231262 139.47460938 82.57027435 140.19165039 83.05622864 C 141.20372009 84.22567749 141.08677673 83.91196442 141.49861145 84.75054932 C 141.87918091 85.56169891 141.90190125 86.54122162 141.82199097 87.44817352 C 141.50108337 88.53497314 141.15599060 89.26734161 140.74986267 89.75893402 C 140.08764648 90.50091553 139.29443359 90.89520264 138.53855896 90.85763550 C 137.68901062 90.84506226 137.16368103 90.38158417 135.96511841 89.49891663" stroke-width="0.38896409" fill="rgb(214, 214, 215)" opacity="1.0" stroke="rgb(175, 173, 174)" stroke-opacity="0.7370384" stroke-linecap="round" stroke-linejoin="round"/>
    <path d="M 121.56192780 87.12545776 C 121.37215424 87.78993988 120.91119385 88.78812408 120.54820251 89.34321594 C 119.95103455 89.90649414 119.30693817 90.28387451 118.64682007 90.90496826 C 117.72550201 91.36193085 117.54101562 91.02668762 116.47789764 90.42106628 C 115.78513336 89.92033386 115.14913940 89.48952484 114.64919281 88.53716278 C 114.38970184 87.68445587 114.29563904 86.66072083 114.32595062 86.06877136 C 114.66728210 84.49963379 114.47861481 84.78794861 114.92459869 84.03842926 C 115.45877838 83.35324860 116.33536530 82.69950104 117.10782623 82.40596008 C 118.34344482 82.05755615 118.96092224 82.14854431 119.57759857 82.61764526 C 120.32276917 83.18617249 120.95165253 84.00212097 121.17437744 84.44596100 C 121.82133484 85.39086151 121.75000763 85.93143463 121.56192780 87.12545776" stroke-width="0.35757402" fill="rgb(205, 205, 205)" opacity="1.0" stroke="rgb(135, 136, 135)" stroke-opacity="0.6265513" stroke-linecap="round" stroke-linejoin="round"/>
    <path d="M 136.10128784 85.58499908 C 136.17027283 85.43564606 136.43835449 84.68050385 136.74201965 84.12088013 C 137.07243347 83.76622772 137.56871033 83.54376984 138.35641479 83.64516449 C 138.86788940 83.72290039 139.39086914 83.81311798 139.86671448 84.31128693 C 140.32710266 84.78049469 140.47966003 85.40857697 140.92611694 85.84026337 C 141.37113953 86.46208191 141.26119995 86.96379852 141.14759827 87.40770721 C 140.54801941 88.39151001 140.71330261 88.21855164 140.31018066 88.71620941 C 139.93351746 89.18386841 139.13424683 89.47032166 138.62828064 89.49500275 C 137.74877930 89.40139771 137.54420471 89.15166473 137.01593018 88.78511810 C 136.47961426 88.47300720 135.84875488 88.01914215 135.73432922 87.66087341 C 135.67926025 86.96421051 135.94638062 86.71555328 136.10128784 85.58499908" stroke-width="0.27585366" fill="rgb(1, 0, 4)" opacity="1.0" stroke="rgb(89, 90, 89)" stroke-opacity="0.53057176" stroke-linecap="round" stroke-linejoin="round"/>
    <path d="M 115.52080536 88.30207062 C 115.35736084 88.08373260 115.00472260 87.32226562 114.77094269 86.77848053 C 114.72141266 86.23458862 115.02757263 85.79791260 115.37517548 85.12128448 C 115.67212677 84.54029083 115.73302460 84.28288269 116.46922302 83.80668640 C 117.07281494 83.48621368 117.78093719 83.64775848 118.22971344 83.90795135 C 118.99804688 84.09431458 119.36228180 84.29834747 119.71236420 84.72206879 C 120.21974182 85.80245972 120.09963226 85.66474152 120.38588715 86.21197510 C 120.67155457 86.53942871 120.17942047 87.27821350 119.94281006 87.91246796 C 119.52979279 88.71778870 119.56818390 88.91803741 118.95452881 89.24292755 C 118.39595795 89.61550140 117.56593323 89.55095673 117.20849609 89.36329651 C 116.38684082 89.16130829 116.34539795 89.07259369 115.52080536 88.30207062" stroke-width="1.32234800" fill="rgb(9, 9, 9)" opacity="1.0" stroke="rgb(245, 244, 246)" stroke-opacity="0.21463779" stroke-linecap="round" stroke-linejoin="round"/>
  </g>
</svg>
