<svg xmlns="http://www.w3.org/2000/svg" viewBox="0 0 512 512" height="512.0px" width="512.0px">
<path id="" fill="#001f3f" fill-opacity="1.0" stroke="#000000" stroke-width="0.0" stroke-opacity="1.0" stroke-linecap="round" stroke-linejoin="round"  filling="0" d="M0 0 C171 0 341 0 512 0 C512 171 512 341 512 512 C341 512 171 512 0 512 C0 341 0 171 0 0"></path>
<path id="" fill="#ffffff" fill-opacity="1.0" stroke="#000000" stroke-width="0.0" stroke-opacity="1.0" stroke-linecap="round" stroke-linejoin="round"  filling="0" d="M52 50 C52 50 51 51 51 51 C51 51 50 52 50 52 C50 52 49 51 49 51 C49 51 48 50 48 50 C48 50 49 49 49 49 C49 49 50 48 50 48 C50 48 51 49 51 49 C51 49 52 50 52 50"></path>
<path id="" fill="#ffffff" fill-opacity="1.0" stroke="#000000" stroke-width="0.0" stroke-opacity="1.0" stroke-linecap="round" stroke-linejoin="round"  filling="0" d="M152 80 C152 81 152 81 151 81 C151 82 151 82 150 82 C149 82 149 82 149 81 C148 81 148 81 148 80 C148 79 148 79 149 79 C149 78 149 78 150 78 C151 78 151 78 151 79 C152 79 152 79 152 80"></path>
<path id="" fill="#ffffff" fill-opacity="1.0" stroke="#000000" stroke-width="0.0" stroke-opacity="1.0" stroke-linecap="round" stroke-linejoin="round"  filling="0" d="M352 70 C352 70 351 71 351 71 C351 71 350 72 350 72 C350 72 349 71 349 71 C349 71 348 70 348 70 C348 70 349 69 349 69 C349 69 350 68 350 68 C350 68 351 69 351 69 C351 69 352 70 352 70"></path>
<path id="" fill="#ffffff" fill-opacity="1.0" stroke="#000000" stroke-width="0.0" stroke-opacity="1.0" stroke-linecap="round" stroke-linejoin="round"  filling="0" d="M202 60 C202 60 201 61 201 61 C201 61 200 62 200 62 C200 62 199 61 199 61 C199 61 198 60 198 60 C198 60 199 59 199 59 C199 59 200 58 200 58 C200 58 201 59 201 59 C201 59 202 60 202 60"></path>
<path id="" fill="#ffffff" fill-opacity="1.0" stroke="#000000" stroke-width="0.0" stroke-opacity="1.0" stroke-linecap="round" stroke-linejoin="round"  filling="0" d="M402 20 C402 21 402 21 401 21 C401 22 401 22 400 22 C399 22 399 22 399 21 C398 21 398 21 398 20 C398 19 398 19 399 19 C399 18 399 18 400 18 C401 18 401 18 401 19 C402 19 402 19 402 20"></path>
<path id="" fill="#0074D9" fill-opacity="1.0" stroke="#000000" stroke-width="0.0" stroke-opacity="1.0" stroke-linecap="round" stroke-linejoin="round"  filling="0" d="M0 256 C171 256 341 256 512 256 C512 341 512 427 512 512 C341 512 171 512 0 512 C0 427 0 341 0 256"></path>
<path id="" fill="#ffffff" fill-opacity="1.0" stroke="#000000" stroke-width="0.0" stroke-opacity="1.0" stroke-linecap="round" stroke-linejoin="round"  filling="0" d="M-0 479 C17 476 33 472 50 469 C67 472 83 476 100 479 C117 476 133 472 150 469 C167 472 183 476 200 479 C217 476 233 472 250 469 C267 472 283 476 300 479 C317 476 333 472 350 469 C367 472 383 476 400 479 C417 476 433 472 450 469 C471 472 491 476 512 479 C512 480 512 480 512 481 C491 478 471 474 450 471 C433 474 417 478 400 481 C383 478 367 474 350 471 C333 474 317 478 300 481 C283 478 267 474 250 471 C233 474 217 478 200 481 C183 478 167 474 150 471 C133 474 117 478 100 481 C83 478 67 474 50 471 C33 474 17 478 0 481 C0 480 -0 480 -0 479"></path>
<path id="" fill="#ffffff" fill-opacity="1.0" stroke="#000000" stroke-width="0.0" stroke-opacity="1.0" stroke-linecap="round" stroke-linejoin="round"  filling="0" d="M-0 489 C20 488 40 486 60 484 C80 486 100 488 120 489 C140 488 160 486 180 484 C200 486 220 488 240 489 C260 488 280 486 300 484 C320 486 340 488 360 489 C380 488 400 486 420 484 C440 486 460 488 480 489 C480 490 480 490 480 491 C460 489 440 487 420 486 C400 487 380 489 360 491 C340 489 320 487 300 486 C280 487 260 489 240 491 C220 489 200 487 180 486 C160 487 140 489 120 491 C100 489 80 487 60 486 C40 487 20 489 0 491 C0 490 -0 490 -0 489"></path>
<path id="" fill="#8B4513" fill-opacity="1.0" stroke="#000000" stroke-width="0.0" stroke-opacity="1.0" stroke-linecap="round" stroke-linejoin="round"  filling="0" d="M300 512 C371 512 441 512 512 512 C512 475 512 437 512 400 C491 393 471 387 450 380 C433 383 417 387 400 390 C383 383 367 377 350 370 C333 417 317 465 300 512"></path>
<path id="" fill="#ffffff" fill-opacity="1.0" stroke="#000000" stroke-width="0.0" stroke-opacity="1.0" stroke-linecap="round" stroke-linejoin="round"  filling="0" d="M380 200 C407 200 433 200 460 200 C460 267 460 333 460 400 C433 400 407 400 380 400 C380 333 380 267 380 200"></path>
<path id="" fill="#FF4136" fill-opacity="1.0" stroke="#000000" stroke-width="0.0" stroke-opacity="1.0" stroke-linecap="round" stroke-linejoin="round"  filling="0" d="M380 200 C407 200 433 200 460 200 C457 190 453 180 450 170 C430 170 410 170 390 170 C387 180 383 190 380 200"></path>
<path id="" fill="#DDDDDD" fill-opacity="1.0" stroke="#000000" stroke-width="0.0" stroke-opacity="1.0" stroke-linecap="round" stroke-linejoin="round"  filling="0" d="M440 160 C440 165 438 170 434 174 C430 178 425 180 420 180 C415 180 410 178 406 174 C402 170 400 165 400 160 C400 155 402 150 406 146 C410 142 415 140 420 140 C425 140 430 142 434 146 C438 150 440 155 440 160"></path>
<path id="" fill="#FFDC00" fill-opacity="1.0" stroke="#000000" stroke-width="0.0" stroke-opacity="1.0" stroke-linecap="round" stroke-linejoin="round"  filling="0" d="M420 160 C403 127 387 93 370 60 C403 60 437 60 470 60 C453 93 437 127 420 160"></path>
<path id="" fill="#7FDBFF" fill-opacity="1.0" stroke="#000000" stroke-width="0.0" stroke-opacity="1.0" stroke-linecap="round" stroke-linejoin="round"  filling="0" d="M400 240 C405 240 410 240 415 240 C415 247 415 253 415 260 C410 260 405 260 400 260 C400 253 400 247 400 240"></path>
<path id="" fill="#7FDBFF" fill-opacity="1.0" stroke="#000000" stroke-width="0.0" stroke-opacity="1.0" stroke-linecap="round" stroke-linejoin="round"  filling="0" d="M425 240 C430 240 435 240 440 240 C440 247 440 253 440 260 C435 260 430 260 425 260 C425 253 425 247 425 240"></path>
<path id="" fill="#7FDBFF" fill-opacity="1.0" stroke="#000000" stroke-width="0.0" stroke-opacity="1.0" stroke-linecap="round" stroke-linejoin="round"  filling="0" d="M400 290 C405 290 410 290 415 290 C415 297 415 303 415 310 C410 310 405 310 400 310 C400 303 400 297 400 290"></path>
<path id="" fill="#7FDBFF" fill-opacity="1.0" stroke="#000000" stroke-width="0.0" stroke-opacity="1.0" stroke-linecap="round" stroke-linejoin="round"  filling="0" d="M425 290 C430 290 435 290 440 290 C440 297 440 303 440 310 C435 310 430 310 425 310 C425 303 425 297 425 290"></path>
<path id="" fill="#7FDBFF" fill-opacity="1.0" stroke="#000000" stroke-width="0.0" stroke-opacity="1.0" stroke-linecap="round" stroke-linejoin="round"  filling="0" d="M400 340 C405 340 410 340 415 340 C415 347 415 353 415 360 C410 360 405 360 400 360 C400 353 400 347 400 340"></path>
<path id="" fill="#7FDBFF" fill-opacity="1.0" stroke="#000000" stroke-width="0.0" stroke-opacity="1.0" stroke-linecap="round" stroke-linejoin="round"  filling="0" d="M425 340 C430 340 435 340 440 340 C440 347 440 353 440 360 C435 360 430 360 425 360 C425 353 425 347 425 340"></path>
</svg>