<?xml version="1.0" ?>
<svg xmlns="http://www.w3.org/2000/svg" version="1.1" width="512" height="512" viewBox="0 0 512 512">
  <defs/>
  <g>
    <path d="M 299.77017212 346.50170898 C 293.71630859 348.90457153 287.59948730 350.55023193 281.45782471 351.23748779 C 275.38418579 351.16036987 269.43621826 350.22332764 263.60821533 348.83172607 C 257.72781372 347.92813110 251.82560730 347.92324829 246.06459045 348.80603027 C 240.77357483 350.38021851 235.55760193 351.54675293 229.95941162 351.32919312 C 223.99726868 350.83181763 218.10757446 349.17706299 212.21327209 346.41033936 C 206.00375366 343.65576172 200.20343018 339.83053589 194.70454407 335.28662109 C 189.07743835 330.62484741 183.94868469 325.37716675 179.33750916 319.46066284 C 174.71427917 313.68240356 170.85906982 307.34664917 167.53602600 300.81463623 C 164.35743713 294.20285034 162.06539917 287.37927246 160.10191345 280.33953857 C 158.53863525 273.30560303 157.48554993 266.15396118 157.16947937 258.89801025 C 157.19453430 251.53961182 157.51092529 244.29928589 158.57463074 237.08711243 C 159.99070740 230.02000427 161.68334961 223.08943176 163.95327759 216.40612793 C 166.73908997 209.77951050 169.79270935 203.34051514 173.46711731 197.34640503 C 177.46507263 191.57577515 181.78117371 186.17843628 186.61532593 181.43986511 C 191.38774109 176.80801392 196.49942017 172.93075562 201.99844360 169.76927185 C 207.69996643 166.96789551 213.63754272 165.05397034 219.80857849 163.86524963 C 225.89181519 163.16783142 232.01484680 163.62574768 238.28454590 164.46348572 C 244.69700623 164.74674988 251.10812378 166.01194763 257.47586060 166.57106018 C 264.10620117 165.49714661 270.90209961 164.64926147 277.75125122 164.65382385 C 284.64309692 164.89730835 291.34960938 165.75843811 297.81494141 167.49865723 C 304.05474854 169.61267090 309.92053223 172.71443176 315.43548584 176.59059143 C 320.96887207 180.79396057 325.98867798 185.56713867 330.69808960 190.94218445 C 335.20358276 196.30180359 339.17861938 202.35092163 342.84735107 208.62977600 C 346.36248779 214.84928894 349.22445679 221.50968933 351.43798828 228.39729309 C 353.15347290 235.27227783 354.36376953 242.05752563 355.43218994 249.07508850 C 355.49697876 256.26705933 354.99603271 263.30267334 354.43997192 270.30664062 C 353.39785767 277.18737793 351.59481812 283.93508911 349.47494507 290.35583496 C 347.11035156 296.76562500 344.23602295 302.87405396 340.57797241 308.68533325 C 336.73254395 314.58804321 332.37643433 320.43289185 327.23336792 325.99783325 C 321.26849365 331.40826416 315.76962280 337.49731445 299.77017212 346.50170898" stroke-width="1.93750322" fill="rgb(237, 18, 23)" opacity="1.0" stroke="rgb(166, 0, 0)" stroke-opacity="0.87889946" stroke-linecap="round" stroke-linejoin="round"/>
    <path d="M 192.50450134 219.04804993 C 192.09153748 217.82962036 191.61795044 216.60899353 191.46330261 215.49154663 C 191.28276062 214.28091431 191.25225830 213.06962585 191.43919373 211.85528564 C 191.87152100 210.70692444 192.36494446 209.77159119 192.92425537 208.78862000 C 193.67308044 207.95545959 194.42410278 207.17356873 195.30726624 206.44244385 C 196.26741028 205.82427979 197.10704041 205.05718994 198.05380249 204.32287598 C 199.35908508 204.02972412 200.80552673 203.46063232 202.22734070 202.85253906 C 203.60810852 202.72174072 205.08920288 202.70831299 206.62945557 202.70312500 C 208.12725830 202.64924622 209.53521729 202.63081360 210.89704895 202.84223938 C 212.21920776 203.31207275 213.54032898 203.42048645 214.88520813 203.41348267 C 216.03279114 203.85336304 217.10411072 204.39836121 218.06404114 204.84696960 C 218.83537292 205.47445679 219.36538696 206.10675049 219.53280640 206.84100342 C 219.40039062 207.63760376 219.02958679 208.56657410 218.66421509 209.61994934 C 218.34819031 210.62402344 217.53834534 211.53408813 216.56242371 212.43960571 C 215.50195312 213.33996582 214.57577515 214.35879517 213.64675903 215.44602966 C 212.57652283 216.36323547 211.62234497 217.33215332 210.55775452 218.23762512 C 209.34480286 219.04885864 208.36853027 219.90708923 207.27622986 220.69772339 C 206.19212341 221.46029663 205.25485229 222.22164917 204.30819702 222.71078491 C 203.28109741 223.08474731 202.31779480 223.52711487 201.43408203 223.89332581 C 200.60237122 223.91990662 199.76142883 223.79512024 198.85208130 223.73915100 C 197.74641418 223.69169617 196.52893066 223.88276672 192.50450134 219.04804993" stroke-width="1.69870448" fill="rgb(245, 210, 210)" opacity="1.0" stroke="rgb(77, 43, 45)" stroke-opacity="0.30105382" stroke-linecap="round" stroke-linejoin="round"/>
    <path d="M 301.24114990 132.55609131 C 299.79534912 135.24433899 298.28118896 137.83085632 296.59307861 140.30194092 C 294.90185547 142.64933777 292.86459351 144.56259155 290.60366821 146.28982544 C 288.34674072 147.95791626 286.11187744 149.46832275 283.75695801 150.81498718 C 281.47470093 151.98838806 279.16143799 152.82380676 276.81076050 153.47865295 C 274.44546509 153.78147888 272.09213257 154.09284973 269.91680908 154.37788391 C 267.91616821 154.63525391 266.14068604 154.81088257 264.69137573 154.56681824 C 263.65362549 153.72427368 262.66516113 152.62857056 261.77682495 151.35214233 C 260.96676636 149.92672729 260.35494995 148.41636658 260.28497314 146.57618713 C 260.43768311 144.41087341 260.45562744 142.12052917 260.57897949 139.71356201 C 261.00512695 137.22145081 261.67474365 134.71308899 262.64077759 132.25775146 C 263.74374390 129.85102844 265.27111816 127.60500336 267.08346558 125.65863037 C 269.05746460 123.78421021 271.23849487 122.00732422 273.66159058 120.56906891 C 276.41744995 119.37566376 279.11822510 118.06504059 281.90344238 116.85900879 C 284.71755981 115.91472626 287.50921631 115.08057404 290.18365479 114.23004913 C 292.76431274 113.44680023 295.05377197 112.70141602 297.07702637 111.93921661 C 298.79556274 110.87161255 300.09756470 109.72666168 301.11596680 108.67732239 C 302.04556274 107.89403534 302.82791138 107.52514648 303.44790649 107.65714264 C 304.10409546 108.38763428 304.69937134 109.50273895 305.23767090 110.95490265 C 305.39904785 112.72388458 305.31796265 114.76761627 305.29705811 117.00357056 C 305.24362183 119.49832916 305.52142334 122.21106720 301.24114990 132.55609131" stroke-width="0.89186704" fill="rgb(17, 160, 32)" opacity="1.0" stroke="rgb(0, 113, 0)" stroke-opacity="0.38214168" stroke-linecap="round" stroke-linejoin="round"/>
    <path d="M 231.50259399 152.33857727 C 228.88995361 151.35359192 226.23229980 150.40516663 223.72618103 149.29522705 C 221.25662231 147.92715454 218.70999146 146.51533508 216.16276550 145.07330322 C 213.65203857 143.34411621 211.34861755 141.44967651 209.13716125 139.33099365 C 207.05928040 137.13978577 205.08781433 134.84483337 203.25262451 132.48666382 C 201.62496948 129.95410156 200.32482910 127.44717407 199.05224609 125.02340698 C 197.94071960 122.76279449 197.18696594 120.47080994 196.51939392 118.30474091 C 195.93739319 116.43538666 195.48101807 114.78061676 195.16963196 113.31849670 C 195.04515076 112.19384003 195.14492798 111.39208221 195.46125793 111.03628540 C 196.13360596 111.15036774 197.15615845 111.53218842 198.47444153 112.15318298 C 200.16218567 112.91561127 202.14265442 113.65372467 204.42828369 114.48995209 C 206.98809814 115.06848907 209.69320679 115.85944366 212.42547607 116.68165588 C 215.31056213 117.55313873 218.36347961 118.30934143 221.35716248 119.21626282 C 224.29321289 120.17502594 227.22164917 121.24539185 229.99168396 122.40270233 C 232.57771301 123.69992065 235.00094604 125.11927795 237.23300171 126.70742035 C 239.26477051 128.55424500 241.14894104 130.41999817 242.82614136 132.39064026 C 244.18955994 134.57229614 245.39381409 136.75242615 246.42147827 138.90087891 C 247.54071045 140.85023499 248.47261047 142.72842407 249.08787537 144.47842407 C 249.33944702 146.10298157 249.24369812 147.62966919 248.73081970 149.02973938 C 247.86782837 150.18350220 246.67991638 151.13294983 245.28800964 152.17562866 C 243.79284668 153.27639771 242.37492371 154.37579346 231.50259399 152.33857727" stroke-width="0.93685180" fill="rgb(66, 198, 28)" opacity="1.0" stroke="rgb(34, 150, 0)" stroke-opacity="0.3089797" stroke-linecap="round" stroke-linejoin="round"/>
    <path d="M 247.64479065 117.81850433 C 248.74911499 117.74480438 249.88056946 117.65693665 250.97398376 117.55008698 C 251.96546936 117.51494598 252.86927795 117.65746307 253.69068909 117.86038208 C 254.48461914 117.68116760 255.28135681 117.59286499 255.95751953 117.66962433 C 256.38278198 117.81071472 256.61212158 118.04763031 256.67541504 118.48944092 C 256.51876831 119.10361481 256.39480591 119.88618469 256.24597168 120.95764923 C 256.44250488 122.33060455 256.52679443 123.86150360 256.26742554 125.65554047 C 256.10494995 127.75291443 255.91705322 130.11102295 255.78674316 132.63883972 C 255.80947876 135.30050659 255.90965271 138.09127808 255.72155762 141.03651428 C 255.64427185 144.03176880 255.63366699 147.01455688 255.86962891 150.03643799 C 255.79302979 153.11569214 255.76034546 156.11080933 255.72473145 158.98756409 C 255.79125977 161.74238586 255.69212341 164.39822388 255.29626465 166.81954956 C 255.05548096 169.01731873 255.00823975 171.03260803 255.09608459 172.74543762 C 255.22743225 174.20880127 255.17190552 175.40005493 254.91668701 176.23651123 C 254.53300476 176.67736816 254.11315918 176.81845093 253.55523682 176.60369873 C 252.99311829 176.02418518 252.54946899 175.07884216 252.14791870 173.84750366 C 251.78800964 172.34152222 251.38340759 170.60707092 250.99943542 168.67506409 C 250.67166138 166.61753845 250.27384949 164.39907837 249.85758972 162.12564087 C 249.69012451 159.75581360 249.59146118 157.31907654 249.38011169 154.79017639 C 249.11154175 152.19313049 248.85017395 149.60252380 248.59951782 147.00286865 C 248.29464722 144.37586975 248.07466125 141.70697021 247.64479065 117.81850433" stroke-width="0.65438008" fill="rgb(109, 18, 25)" opacity="1.0" stroke="rgb(41, 1, 0)" stroke-opacity="0.40448257" stroke-linecap="round" stroke-linejoin="round"/>
    <path d="M 260.22406006 180.22531128 C 257.79852295 180.20918274 255.43225098 180.19633484 253.17298889 180.10206604 C 251.08256531 179.93339539 249.14060974 179.65289307 247.31297302 179.34669495 C 245.70223999 179.04382324 244.34580994 178.74121094 243.32383728 178.49237061 C 242.60662842 178.21060181 242.27383423 177.90156555 242.35012817 177.67710876 C 242.89558411 177.54209900 243.80313110 177.57731628 245.03469849 177.65010071 C 246.57337952 177.71083069 248.37310791 177.72688293 250.44392395 177.67448425 C 252.72052002 177.60675049 255.14891052 177.60501099 257.73104858 177.71247864 C 260.39654541 177.84501648 263.19363403 177.76846313 266.08096313 177.36935425 C 269.06088257 176.64303589 272.18264771 175.89880371 275.43414307 175.29696655 C 278.76193237 174.94982910 282.13146973 174.76036072 260.22406006 180.22531128" stroke-width="1.29626071" fill="rgb(117, 3, 2)" opacity="1.0" stroke="rgb(83, 1, 5)" stroke-opacity="0.6190717" stroke-linecap="round" stroke-linejoin="round"/>
  </g>
</svg>
