<?xml version="1.0" ?>
<svg xmlns="http://www.w3.org/2000/svg" version="1.1" width="512" height="512" viewBox="0 0 512 512">
  <defs/>
  <g>
    <path d="M 302.30508423 345.62158203 C 297.26611328 347.80322266 292.05468750 349.64752197 286.77069092 350.88415527 C 281.21118164 351.50061035 275.40948486 351.28817749 269.42514038 350.39093018 C 263.27215576 349.12643433 256.87814331 348.44775391 250.34605408 348.64813232 C 243.62509155 349.87942505 236.79910278 351.18695068 229.90901184 351.63635254 C 223.03642273 350.83663940 216.36912537 348.79852295 209.86068726 345.78808594 C 203.53210449 342.28387451 197.54542542 338.15045166 191.77612305 333.39773560 C 186.35987854 328.26553345 181.28050232 322.75033569 176.78625488 316.84960938 C 172.56912231 310.84539795 169.03350830 304.63888550 165.98724365 298.29415894 C 163.33818054 291.88778687 161.08770752 285.34606934 159.33665466 278.65740967 C 157.98210144 271.87619019 157.10740662 264.89602661 156.79115295 257.82705688 C 156.81422424 250.56350708 157.33949280 243.35104370 158.43095398 236.11618042 C 159.94247437 228.91339111 161.80345154 221.78251648 164.24935913 214.91973877 C 167.11775208 208.22299194 170.38450623 201.80895996 174.15666199 195.74908447 C 178.29849243 190.08880615 182.81240845 184.77587891 187.65394592 179.98912048 C 192.51417542 175.55551147 197.75315857 171.84503174 203.13725281 168.67974854 C 208.76344299 166.27575684 214.52720642 164.50991821 220.51943970 163.41905212 C 226.65634155 163.01228333 232.89956665 163.37384033 239.32879639 164.06571960 C 245.77015686 164.82144165 252.26774597 165.38887024 258.85217285 165.48336792 C 265.48327637 165.11746216 272.01174927 164.60447693 278.65054321 164.33474731 C 285.16064453 164.61158752 291.66107178 165.47927856 297.90005493 167.05068970 C 303.98803711 169.30712891 309.80072021 172.33889771 315.38735962 175.97714233 C 320.70581055 180.26177979 325.78216553 184.98945618 330.53897095 190.30937195 C 335.09436035 195.89968872 339.23471069 201.85275269 343.04867554 208.12779236 C 346.47601318 214.60926819 349.43325806 221.33071899 351.74920654 228.16921997 C 353.57388306 235.19198608 354.84799194 242.30191040 355.59066772 249.48069763 C 355.86193848 256.74273682 355.46984863 264.02020264 354.58825684 271.30676270 C 353.32937622 278.40866089 351.42224121 285.35412598 349.18109131 292.13433838 C 346.52429199 298.72741699 343.34933472 304.90789795 339.69659424 310.82830811 C 335.78482056 316.47320557 331.44784546 321.82257080 326.77789307 326.83377075 C 321.90890503 331.63150024 317.04187012 336.37399292 302.30508423 345.62158203" stroke-width="1.62738061" fill="rgb(236, 19, 25)" opacity="1.0" stroke="rgb(159, 0, 0)" stroke-opacity="0.84432316" stroke-linecap="round" stroke-linejoin="round"/>
    <path d="M 192.02555847 217.99961853 C 191.75798035 217.10620117 191.52473450 216.09568787 191.38127136 215.10862732 C 191.28712463 214.15583801 191.32617188 213.13989258 191.50042725 212.16362000 C 191.74319458 211.20481873 192.06864929 210.22215271 192.64662170 209.30326843 C 193.26739502 208.31582642 194.04890442 207.50305176 194.95021057 206.72512817 C 195.95193481 205.91941833 197.06005859 205.16130066 198.18576050 204.53724670 C 199.43785095 203.90748596 200.69593811 203.40370178 202.03532410 203.04353333 C 203.49295044 202.73730469 204.91862488 202.61218262 206.40414429 202.63417053 C 207.91246033 202.61283875 209.44502258 202.66197205 210.88677979 202.88700867 C 212.36994934 203.14210510 213.73425293 203.38015747 215.06808472 203.70236206 C 216.28735352 203.98820496 217.28097534 204.41040039 218.19900513 204.91320801 C 218.86856079 205.52053833 219.30540466 206.20384216 219.46849060 207.02685547 C 219.43702698 207.84045410 219.10841370 208.82919312 218.67076111 209.74299622 C 217.94029236 210.77081299 217.15501404 211.76882935 216.22265625 212.82929993 C 215.13679504 213.86549377 214.02885437 214.92619324 212.89775085 216.06396484 C 211.67875671 217.15364075 210.47781372 218.16932678 209.19435120 219.26634216 C 208.02009583 220.21389771 206.76684570 221.13252258 205.57267761 221.95837402 C 204.43704224 222.60635376 203.27940369 223.25895691 202.15377808 223.57182312 C 201.05480957 223.86721802 200.01014709 223.88175964 199.08586121 223.85484314 C 198.09989929 223.71588135 197.27490234 223.35147095 196.49362183 222.96751404 C 195.61770630 222.54928589 194.83042908 222.18437195 192.02555847 217.99961853" stroke-width="1.64949405" fill="rgb(250, 208, 205)" opacity="1.0" stroke="rgb(121, 41, 44)" stroke-opacity="0.41264257" stroke-linecap="round" stroke-linejoin="round"/>
    <path d="M 300.43292236 134.00985718 C 299.35348511 136.00521851 298.21743774 137.84553528 296.97854614 139.79928589 C 295.60345459 141.59141541 294.04882812 143.26930237 292.36364746 144.92471313 C 290.46829224 146.37648010 288.43911743 147.90963745 286.31423950 149.31724548 C 284.06002808 150.60346985 281.61791992 151.79318237 279.18911743 152.74185181 C 276.61621094 153.38208008 274.11599731 153.89282227 271.59893799 154.26060486 C 269.28924561 154.53988647 267.13745117 154.71528625 265.22393799 154.44766235 C 263.66387939 153.68316650 262.33627319 152.49285889 261.40573120 150.89823914 C 260.65710449 149.01564026 260.31277466 146.90390015 260.29486084 144.55979919 C 260.34872437 142.16539001 260.56710815 139.61773682 261.01538086 137.20513916 C 261.64349365 134.78630066 262.48635864 132.54336548 263.55914307 130.46620178 C 264.65246582 128.52275085 266.10379028 126.66008759 267.61648560 125.05760193 C 269.40917969 123.49517059 271.36828613 122.12070465 273.53158569 120.79680634 C 275.77117920 119.59869385 278.20565796 118.47229767 280.76379395 117.37443542 C 283.45248413 116.38986969 286.24481201 115.46365356 289.00689697 114.65665436 C 291.83413696 113.77797699 294.52166748 112.87875366 296.94622803 111.84519196 C 298.98953247 110.51591492 300.73834229 109.31750488 302.11746216 108.31855774 C 303.29913330 108.02615356 304.15615845 108.41263580 304.75933838 109.44619751 C 305.21456909 111.04705048 305.40817261 112.99330902 305.40811157 115.24182892 C 305.35824585 117.74968719 305.03009033 120.29326630 304.52932739 122.94276428 C 303.98220825 125.53656769 303.19699097 128.17657471 300.43292236 134.00985718" stroke-width="0.91644621" fill="rgb(17, 162, 32)" opacity="1.0" stroke="rgb(0, 120, 0)" stroke-opacity="0.38977835" stroke-linecap="round" stroke-linejoin="round"/>
    <path d="M 230.40419006 152.04089355 C 228.13143921 151.08251953 225.92805481 150.15516663 223.75970459 149.20275879 C 221.66093445 148.20324707 219.63327026 147.09037781 217.56494141 145.92944336 C 215.56156921 144.63395691 213.65034485 143.21005249 211.65605164 141.66369629 C 209.73159790 139.97361755 207.88485718 138.01144409 206.05503845 135.97303772 C 204.31132507 133.72810364 202.65429688 131.33554077 201.09140015 128.89355469 C 199.71571350 126.28058624 198.49035645 123.61154175 197.38224792 121.05204773 C 196.55635071 118.58562469 195.79911804 116.27333069 195.32081604 114.36843872 C 195.08856201 112.88832855 195.22270203 111.91090393 195.97737122 111.55558014 C 197.21562195 111.73001099 198.84820557 112.36383057 200.88710022 113.11428070 C 203.19796753 113.96939087 205.76460266 114.75632477 208.44676208 115.53067017 C 211.14270020 116.37310791 213.89294434 117.09413910 216.52416992 117.88805389 C 219.13607788 118.59709167 221.70310974 119.41558838 224.09245300 120.17207336 C 226.49508667 121.03793335 228.84487915 121.95257568 231.16157532 122.95221710 C 233.34729004 124.23885345 235.63208008 125.51757812 237.71435547 127.10423279 C 239.67840576 128.84696960 241.49639893 130.84700012 243.18441772 132.99594116 C 244.58944702 135.36453247 245.83351135 137.75044250 246.81947327 140.11442566 C 247.72666931 142.51467896 248.22666931 144.68746948 248.41229248 146.74461365 C 248.19555664 148.55888367 247.61109924 149.99966431 246.70764160 151.19053650 C 245.60086060 152.04631042 244.40876770 152.70248413 243.14106750 153.24023438 C 241.77526855 153.62326050 240.43658447 154.07315063 230.40419006 152.04089355" stroke-width="0.92351353" fill="rgb(67, 197, 29)" opacity="1.0" stroke="rgb(30, 145, 0)" stroke-opacity="0.34539616" stroke-linecap="round" stroke-linejoin="round"/>
    <path d="M 247.90074158 135.39877319 C 247.92961121 132.69355774 247.95405579 129.95336914 247.85607910 127.24890137 C 247.81263733 124.75765991 247.66217041 122.47440338 247.53572083 120.46321869 C 247.67413330 118.97079468 248.36039734 118.00238037 249.47290039 117.51145172 C 250.97541809 117.37039185 252.69580078 117.41115570 254.23341370 117.61917114 C 255.55947876 118.03790283 256.26620483 118.91654968 256.54400635 120.39850616 C 256.53976440 122.34696960 256.30758667 124.67527008 256.08032227 127.26431274 C 255.91224670 129.99087524 255.79040527 132.86308289 255.82936096 135.81135559 C 255.79360962 138.70684814 255.66903687 141.60475159 255.66102600 144.39382935 C 255.64505005 147.20661926 255.67706299 149.85075378 255.69541931 152.45909119 C 255.73289490 154.90791321 255.67797852 157.37896729 255.66810608 159.70520020 C 255.60957336 161.91694641 255.46356201 164.15016174 255.37528992 166.15916443 C 255.25701904 168.15620422 255.15441895 169.92623901 255.04995728 171.52116394 C 254.93353271 172.90303040 254.70578003 174.02441406 254.50640869 174.79496765 C 254.04908752 175.26658630 253.59307861 175.29077148 253.10389709 174.96923828 C 252.61059570 174.24452209 252.08930969 173.25752258 251.68667603 171.84510803 C 251.23857117 170.30708313 250.88874817 168.42875671 250.48692322 166.39012146 C 250.22592163 164.29679871 249.88650513 161.98710632 249.74606323 159.60501099 C 249.56741333 157.10479736 249.36367798 154.60462952 249.12269592 152.10943604 C 248.83335876 149.53648376 248.55989075 147.01383972 248.35911560 144.47190857 C 248.17179871 141.86088562 248.01338196 139.29835510 247.90074158 135.39877319" stroke-width="0.70258152" fill="rgb(110, 20, 21)" opacity="1.0" stroke="rgb(32, 7, 0)" stroke-opacity="0.42847347" stroke-linecap="round" stroke-linejoin="round"/>
    <path d="M 270.87930298 178.31689453 C 267.13900757 179.02462769 263.37664795 179.59658813 259.68054199 180.04673767 C 256.03463745 180.32249451 252.58052063 180.34098816 249.37992859 180.19340515 C 246.58488464 179.73832703 244.17463684 179.29541016 242.16694641 178.81848145 C 240.69995117 178.38160706 239.85998535 177.86718750 239.60623169 177.48295593 C 239.96557617 177.12976074 240.97879028 176.94631958 242.52986145 176.91664124 C 244.47161865 176.91458130 246.89823914 176.96260071 249.71336365 177.00753784 C 252.85603333 177.06910706 256.08749390 177.06712341 259.39611816 177.09492493 C 262.76181030 177.00256348 265.98446655 176.77899170 269.09155273 176.32330322 C 271.98861694 175.72290039 274.79891968 175.26940918 277.39453125 174.71931458 C 280.01339722 174.23471069 282.46926880 173.74913025 270.87930298 178.31689453" stroke-width="1.20940888" fill="rgb(123, 5, 2)" opacity="1.0" stroke="rgb(0, 4, 12)" stroke-opacity="0.31835118" stroke-linecap="round" stroke-linejoin="round"/>
  </g>
</svg>
