<svg xmlns="http://www.w3.org/2000/svg" viewBox="0 0 512 512" height="512.0px" width="512.0px">
<path id="" fill="rgb(238, 16, 21)" fill-opacity="1.0" stroke="rgb(141, 0, 0)" stroke-width="0.67781407" stroke-opacity="1.0" stroke-linecap="round" stroke-linejoin="round"  filling="0" d="M302.945831 346.331207 C299.721558 348.213898 295.948273 349.387970 291.206970 350.128815 C286.465637 350.869690 280.756317 351.177307 273.659943 351.327148 C266.563538 351.476990 258.080139 351.468994 247.790680 351.578674 C239.138824 351.299286 232.261551 351.183960 226.082352 350.471558 C219.903168 349.759155 214.422089 348.449646 208.562622 345.781982 C202.703156 343.114319 196.465332 339.088501 188.772644 332.943359 C183.718262 327.085663 179.650757 322.250427 176.130768 317.256805 C172.610779 312.263184 169.638275 307.111237 166.773941 300.620056 C163.909592 294.128906 161.153381 286.298553 158.065948 275.948181 C157.102829 270.833038 156.188034 265.386047 155.821533 259.304443 C155.455048 253.222824 155.636841 246.506592 156.866943 238.853012 C158.097031 231.199417 160.375427 222.608459 164.202087 212.777405 C166.167252 208.707901 168.732147 203.502823 172.217056 197.909958 C175.701965 192.317108 180.106873 186.336472 185.752075 180.715897 C191.397278 175.095306 198.282776 169.834778 206.728867 165.682129 C213.659836 163.866882 219.178284 163.010162 224.142838 162.721344 C229.107391 162.432526 233.518051 162.711639 238.233490 163.168015 C242.948944 163.624405 247.969147 164.258087 254.152802 164.678436 C261.757355 164.097565 269.329712 163.560425 276.756836 163.695633 C284.183960 163.830841 291.465790 164.638397 298.489258 166.746933 C305.512756 168.855453 312.277893 172.264954 318.671600 177.604034 C323.134003 181.259857 327.208862 185.158310 331.054382 189.674911 C334.899902 194.191498 338.516052 199.326248 342.061066 205.454651 C345.606079 211.583069 349.079987 218.705139 352.640961 227.196411 C354.916351 236.295517 356.086212 244.648849 356.392914 252.340530 C356.699646 260.032227 356.143219 267.062286 354.966034 273.514893 C353.788879 279.967468 351.990967 285.842590 349.814697 291.224426 C347.591522 297.222443 344.868744 303.437042 341.151154 309.693298 C337.433533 315.949554 332.721130 322.247467 326.518646 328.412079 C320.316162 334.576721 312.623657 340.608063 302.945831 346.331207"></path>
<path id="" fill="rgb(247, 208, 210)" fill-opacity="1.0" stroke="rgb(78, 81, 80)" stroke-width="0.86647713" stroke-opacity="1.0" stroke-linecap="round" stroke-linejoin="round"  filling="0" d="M193.024490 219.497223 C192.167267 218.351105 191.646759 217.116974 191.341263 215.921021 C191.035767 214.725067 190.945282 213.567291 190.948105 212.573929 C191.401581 211.097305 192.040588 209.981461 192.816284 208.996033 C193.591995 208.010620 194.504395 207.155609 195.504639 206.200684 C196.335693 205.437424 197.168762 204.888336 198.201843 204.469803 C199.234924 204.051270 200.468048 203.763260 202.099197 203.522156 C203.272217 203.250397 204.702988 203.056824 206.190186 202.925919 C207.677368 202.795013 209.220993 202.726761 210.619690 202.705627 C211.541534 202.981186 212.817596 203.179230 214.218430 203.464020 C215.619247 203.748810 217.144836 204.120331 218.565704 204.742828 C219.197571 205.692474 219.495132 206.679535 219.476929 207.551544 C219.458710 208.423553 219.124741 209.180496 218.493546 209.669891 C217.734589 210.926086 216.771194 212.173660 215.775528 213.328232 C214.779861 214.482788 213.751938 215.544342 212.863953 216.428497 C211.807693 217.246719 210.671814 218.112762 209.490219 218.993164 C208.308640 219.873581 207.081360 220.768341 205.842316 221.643997 C204.801559 222.642242 203.659256 223.348358 202.494629 223.655212 C201.330002 223.962067 200.143066 223.869690 199.013031 223.270935 C197.648483 222.904022 196.650146 222.504395 195.743561 221.924591 C194.836960 221.344788 194.022095 220.584824 193.024490 219.497223"></path>
<path id="" fill="rgb(16, 161, 30)" fill-opacity="1.0" stroke="rgb(0, 109, 0)" stroke-width="0.63635182" stroke-opacity="1.0" stroke-linecap="round" stroke-linejoin="round"  filling="0" d="M300.807892 133.419769 C299.810974 135.509399 298.525879 137.513535 297.098633 139.371689 C295.671417 141.229843 294.102051 142.942017 292.536682 144.447708 C290.932495 146.237946 289.010498 147.805710 286.913055 149.101593 C284.815613 150.397461 282.542725 151.421448 280.236725 152.124100 C277.351990 152.721802 275.073914 153.500900 272.971283 154.074493 C270.868652 154.648087 268.941467 155.016174 266.758545 154.791824 C263.855530 154.095688 262.282990 153.057343 261.464325 151.381302 C260.645630 149.705261 260.580872 147.391510 260.693451 144.144577 C260.744019 140.575104 261.037872 137.945892 261.574402 135.777588 C262.110962 133.609283 262.890198 131.901886 263.911621 130.176041 C266.886841 126.622978 267.965424 125.236130 268.841431 124.332222 C269.717438 123.428314 270.390869 123.007362 272.555847 121.386093 C274.794342 120.012939 276.773743 119.029648 279.012848 118.149422 C281.251953 117.269196 283.750793 116.492043 287.028168 115.531174 C290.472656 114.608208 292.722656 113.766495 294.720520 112.810913 C296.718384 111.855331 298.464111 110.785889 300.900146 109.407471 C303.492218 107.663635 304.502350 108.460190 304.901733 110.436554 C305.301086 112.412918 305.089661 115.569084 305.238617 118.544479 C304.974854 121.393280 304.412659 123.964294 303.643646 126.397018 C302.874634 128.829742 301.898834 131.124161 300.807892 133.419769"></path>
<path id="" fill="rgb(67, 201, 29)" fill-opacity="1.0" stroke="rgb(27, 150, 0)" stroke-width="0.65609252" stroke-opacity="1.0" stroke-linecap="round" stroke-linejoin="round"  filling="0" d="M230.556839 151.668091 C228.586411 151.174866 226.336060 150.319977 224.086578 149.264359 C221.837097 148.208740 219.588501 146.952408 217.621567 145.656296 C215.548096 144.186752 213.503082 142.641907 211.622025 141.046936 C209.740967 139.451965 208.023895 137.806885 206.606354 136.136902 C204.860962 134.215729 203.503632 132.455368 202.251221 130.529449 C200.998840 128.603531 199.851379 126.512077 198.525757 123.928741 C197.973755 121.620590 196.990173 119.230042 196.264343 117.023148 C195.538513 114.816246 195.070435 112.792999 195.549438 111.219452 C198.183060 112.109039 200.743744 113.246223 203.226349 114.186729 C205.708969 115.127235 208.113495 115.871063 210.434830 115.973938 C214.625153 117.588852 216.423370 118.067261 217.774170 118.375343 C219.124969 118.683434 220.028381 118.821205 222.429077 119.754852 C224.845734 120.429787 227.375580 121.282066 229.851166 122.404915 C232.326752 123.527763 234.748077 124.921181 236.947617 126.678391 C239.224213 128.824234 241.044174 130.832275 242.534485 132.739136 C244.024811 134.646011 245.185486 136.451721 246.143463 138.192902 C247.501282 140.528214 248.615173 143.072052 248.761414 145.464203 C248.907654 147.856354 248.086212 150.096848 245.573395 151.825470 C243.712738 153.003250 241.637054 153.335587 239.187302 153.187637 C236.737564 153.039703 233.913757 152.411469 230.556839 151.668091"></path>
<path id="" fill="rgb(110, 19, 20)" fill-opacity="1.0" stroke="rgb(115, 77, 78)" stroke-width="0.66740113" stroke-opacity="1.0" stroke-linecap="round" stroke-linejoin="round"  filling="0" d="M248.045837 136.434586 C248.016449 135.063507 247.982574 132.993500 247.911163 130.702362 C247.839752 128.411194 247.730774 125.898888 247.551178 123.643158 C246.979767 120.144440 247.807999 118.291779 249.442581 117.512665 C251.077164 116.733551 253.518097 117.027992 256.172058 117.823486 C256.939026 120.039246 256.831787 122.239853 256.570343 124.452553 C256.308868 126.665253 255.893173 128.890060 256.043213 131.154221 C255.969666 133.475937 255.899048 135.658157 255.826691 137.906082 C255.754333 140.153992 255.680237 142.467621 255.599655 145.052109 C255.723969 147.353851 255.816177 149.263321 255.883881 151.410767 C255.951584 153.558197 255.994781 155.943604 256.021057 159.197205 C255.953461 161.990585 255.714355 163.812531 255.511627 165.366806 C255.308899 166.921082 255.142532 168.207672 255.220428 169.930344 C256.169220 172.371704 256.068298 174.238190 255.286407 175.588516 C254.504517 176.938843 253.041626 177.772995 251.266510 178.149658 C251.335388 176.959457 251.434845 174.816727 251.347260 172.508423 C251.259674 170.200134 250.985046 167.726257 250.305786 165.873810 C250.155396 162.817474 249.868652 160.294586 249.589142 158.070480 C249.309616 155.846359 249.037323 153.921021 248.915817 152.059738 C248.654099 149.251373 248.529007 146.710327 248.423141 144.188751 C248.317276 141.667160 248.230652 139.165054 248.045837 136.434586"></path>
<path id="" fill="rgb(134, 5, 7)" fill-opacity="1.0" stroke="rgb(184, 31, 53)" stroke-width="0.6587646" stroke-opacity="1.0" stroke-linecap="round" stroke-linejoin="round"  filling="0" d="M269.621399 178.880539 C267.382111 179.311020 264.505157 180.137375 260.796051 180.911072 C257.139130 181.975693 255.459167 181.225922 251.160522 180.620743 C246.555420 180.792130 245.075378 180.730774 242.016434 179.424286 C237.944229 177.707214 234.348419 177.916855 233.085037 175.629425 C235.827072 173.687897 238.804352 175.374435 242.017242 175.772232 C247.017471 176.375778 247.687286 176.587311 249.935455 176.420273 C252.862137 175.671814 256.182709 176.663696 259.423462 176.483551 C263.978516 175.485962 265.427307 175.875122 269.732483 174.960846 C273.502625 174.295792 276.994202 173.121384 279.739319 174.296143 C277.971130 177.311783 275.108429 177.857880 269.621399 178.880539"></path>
</svg>