<?xml version="1.0" ?>
<svg xmlns="http://www.w3.org/2000/svg" version="1.1" width="512" height="512" viewBox="0 0 512 512">
  <defs/>
  <g>
    <path d="M 299.05670166 346.92346191 C 293.14859009 348.97457886 287.25280762 350.52642822 281.35507202 351.26251221 C 275.48495483 351.17105103 269.60717773 350.26104736 263.78009033 348.93966675 C 258.05258179 348.04208374 252.45268250 347.93167114 246.86631775 348.77490234 C 241.35223389 350.14920044 235.77497864 351.28182983 230.11746216 351.40625000 C 224.18165588 350.57546997 218.17071533 348.94165039 212.02040100 346.41577148 C 205.91293335 343.50958252 200.10644531 339.71136475 194.50801086 335.17306519 C 189.01362610 330.37707520 183.85122681 325.12130737 179.17256165 319.29168701 C 174.64343262 313.39053345 170.75108337 307.20062256 167.30303955 300.62429810 C 164.37289429 293.90701294 161.85137939 286.99258423 159.99400330 280.07998657 C 158.42533875 272.91055298 157.53701782 265.71328735 157.14146423 258.57232666 C 157.14843750 251.33120728 157.70040894 244.07675171 158.66093445 236.88894653 C 160.06941223 229.80917358 161.90859985 222.83648682 164.05657959 216.08020020 C 166.83059692 209.45039368 169.97523499 203.07051086 173.60076904 197.17864990 C 177.54345703 191.40692139 181.94758606 186.13232422 186.61148071 181.33561707 C 191.43835449 176.88307190 196.54502869 172.88165283 201.96656799 169.71838379 C 207.66552734 167.04547119 213.60078430 165.09846497 219.77465820 163.80375671 C 226.06895447 163.29826355 232.45530701 163.65017700 238.86006165 164.31466675 C 245.32632446 165.15916443 251.76756287 166.07411194 258.27276611 166.37203979 C 264.99078369 165.50988770 271.76147461 164.84579468 278.50961304 164.65504456 C 285.26419067 165.01377869 291.96441650 165.88511658 298.42391968 167.56623840 C 304.50732422 169.92083740 310.20989990 172.95271301 315.72534180 176.71369934 C 321.03784180 180.89808655 325.96115112 185.64590454 330.62997437 190.84507751 C 335.14053345 196.35461426 339.15930176 202.14826965 342.81564331 208.34416199 C 346.16763306 214.79673767 349.05908203 221.31376648 351.45758057 228.09037781 C 353.29244995 234.99784851 354.48342896 242.06263733 355.29006958 249.17277527 C 355.48056030 256.29428101 355.03912354 263.28256226 354.36236572 270.27078247 C 353.24160767 277.09173584 351.68670654 283.78359985 349.46224976 290.31893921 C 347.11450195 296.67095947 344.14547729 302.82525635 340.66494751 308.79766846 C 336.80307007 314.62771606 332.40573120 320.25271606 327.45321655 325.63629150 C 322.23025513 331.05688477 316.98202515 336.63684082 299.05670166 346.92346191" stroke-width="1.93275642" fill="rgb(239, 17, 22)" opacity="1.0" stroke="rgb(166, 0, 0)" stroke-opacity="0.86945915" stroke-linecap="round" stroke-linejoin="round"/>
    <path d="M 192.00350952 218.18254089 C 191.73921204 217.05050659 191.43998718 215.91731262 191.36396790 214.79103088 C 191.29325867 213.69334412 191.30635071 212.61265564 191.56250000 211.59063721 C 191.87054443 210.59077454 192.32049561 209.67776489 192.93643188 208.71073914 C 193.64807129 207.91946411 194.46408081 207.17575073 195.38719177 206.42768860 C 196.28401184 205.73631287 197.32034302 204.97515869 198.43348694 204.30032349 C 199.68920898 203.78944397 201.01441956 203.33479309 202.36683655 202.90585327 C 203.78427124 202.68370056 205.27035522 202.65992737 206.72879028 202.64611816 C 208.24346924 202.60922241 209.71951294 202.67245483 211.13937378 202.94441223 C 212.52563477 203.25462341 213.89369202 203.39543152 215.19836426 203.64106750 C 216.32298279 204.00218201 217.33512878 204.39782715 218.23310852 204.91877747 C 218.91036987 205.53576660 219.35284424 206.16914368 219.54402161 206.88082886 C 219.41430664 207.74926758 219.05154419 208.68997192 218.64404297 209.72100830 C 218.08506775 210.69578552 217.33877563 211.65010071 216.41995239 212.52159119 C 215.38438416 213.52723694 214.38363647 214.53855896 213.39318848 215.62162781 C 212.31282043 216.60643005 211.13366699 217.52648926 210.02250671 218.55628967 C 208.91302490 219.43601990 207.86180115 220.28977966 206.82862854 221.09878540 C 205.80714417 221.76148987 204.79214478 222.40139771 203.80458069 222.92608643 C 202.88627625 223.39074707 201.99302673 223.73995972 201.03048706 223.88684082 C 200.03292847 223.88555908 199.08355713 223.79870605 198.07928467 223.65919495 C 197.06433105 223.44552612 196.01890564 223.27067566 192.00350952 218.18254089" stroke-width="1.66510367" fill="rgb(244, 210, 210)" opacity="1.0" stroke="rgb(80, 45, 47)" stroke-opacity="0.30071685" stroke-linecap="round" stroke-linejoin="round"/>
    <path d="M 301.24310303 132.64002991 C 299.81045532 135.26480103 298.27005005 137.91168213 296.56344604 140.34231567 C 294.77679443 142.59782410 292.80633545 144.56188965 290.57913208 146.27745056 C 288.30175781 147.92001343 286.01507568 149.41879272 283.76419067 150.75195312 C 281.48599243 151.91693115 279.21035767 152.78819275 276.86233521 153.41957092 C 274.58959961 153.75347900 272.36874390 154.08625793 270.24392700 154.40838623 C 268.33703613 154.59844971 266.57775879 154.69139099 265.12231445 154.43568420 C 263.82128906 153.80609131 262.72433472 152.81329346 261.82492065 151.52003479 C 260.97775269 150.09130859 260.45446777 148.43409729 260.31735229 146.51713562 C 260.31976318 144.31549072 260.47723389 141.97023010 260.62673950 139.57452393 C 261.01150513 137.04141235 261.70437622 134.55334473 262.69430542 132.13221741 C 263.91311646 129.76191711 265.37960815 127.53221130 267.23178101 125.49030304 C 269.28305054 123.61278534 271.55157471 121.96048737 274.07772827 120.45028687 C 276.77371216 119.15435791 279.50805664 117.90089417 282.31094360 116.77664185 C 285.14004517 115.77015686 287.88992310 114.90970612 290.57247925 114.16039276 C 293.04867554 113.44535828 295.31179810 112.69483948 297.28890991 111.77468109 C 298.90567017 110.74768829 300.21755981 109.66446686 301.30776978 108.70804596 C 302.20947266 108.05545807 302.99191284 107.86786652 303.73690796 108.16295624 C 304.35052490 108.81734467 304.84362793 109.85523224 305.19992065 111.16677856 C 305.25265503 112.80593872 305.22604370 114.66590881 305.24774170 116.74882507 C 305.39871216 118.97617340 305.68795776 121.22969055 301.24310303 132.64002991" stroke-width="0.90283334" fill="rgb(18, 162, 33)" opacity="1.0" stroke="rgb(0, 113, 0)" stroke-opacity="0.39660752" stroke-linecap="round" stroke-linejoin="round"/>
    <path d="M 231.78083801 152.36030579 C 229.10282898 151.38983154 226.38262939 150.41517639 223.69946289 149.32849121 C 221.15943909 147.96241760 218.64367676 146.56341553 216.12501526 145.08721924 C 213.71026611 143.40814209 211.45837402 141.52693176 209.33459473 139.50787354 C 207.29235840 137.38339233 205.37133789 135.13639832 203.57225037 132.91264343 C 201.97555542 130.47370911 200.58518982 128.07337952 199.41040039 125.62973022 C 198.29624939 123.29470062 197.33279419 121.04164124 196.59487915 118.85662842 C 196.01205444 116.86992645 195.56639099 115.08628845 195.25637817 113.57005310 C 195.09655762 112.40443420 195.08325195 111.60835266 195.41740417 111.19975281 C 196.15985107 111.23255157 197.17120361 111.58384705 198.55119324 112.17910767 C 200.29740906 112.93794250 202.33100891 113.74590302 204.61351013 114.50836182 C 207.26438904 115.17998505 210.01107788 115.92665100 212.87156677 116.81832886 C 215.81498718 117.66871643 218.88768005 118.51075745 221.90353394 119.41814423 C 224.87933350 120.43429565 227.75460815 121.50397491 230.54197693 122.63217926 C 233.13842773 124.00749207 235.53746033 125.48195648 237.71875000 127.14281464 C 239.71875000 128.98014832 241.51800537 130.88140869 243.08383179 132.83285522 C 244.40792847 134.93522644 245.58345032 137.05705261 246.61244202 139.06716919 C 247.52851868 141.01062012 248.25740051 142.86567688 248.76867676 144.59555054 C 249.02767944 146.18382263 248.96160889 147.59391785 248.54086304 148.92228699 C 247.80448914 150.02571106 246.69429016 151.09884644 245.44030762 152.18560791 C 244.15708923 153.22981262 242.77499390 154.41322327 231.78083801 152.36030579" stroke-width="0.94184369" fill="rgb(69, 200, 29)" opacity="1.0" stroke="rgb(34, 146, 0)" stroke-opacity="0.3122071" stroke-linecap="round" stroke-linejoin="round"/>
    <path d="M 247.61955261 117.77551270 C 248.31990051 117.73865509 249.03247070 117.65425873 249.73706055 117.57627106 C 250.49772644 117.62842560 251.33715820 117.65248108 252.16322327 117.64287567 C 253.03318787 117.71138763 253.86160278 117.75751495 254.65390015 117.66505432 C 255.39668274 117.59841156 256.02066040 117.62984467 256.48992920 117.78496552 C 256.64984131 118.21276093 256.60211182 118.87004089 256.45565796 119.81096649 C 256.41036987 121.10192108 256.40518188 122.76898193 256.35119629 124.57221222 C 256.17227173 126.76874542 256.01342773 129.19290161 255.85932922 131.82044983 C 255.86515808 134.67773438 255.84703064 137.68959045 255.74856567 140.81039429 C 255.64413452 143.98271179 255.69915771 147.21356201 255.79869080 150.33967590 C 255.78054810 153.53063965 255.73091125 156.65325928 255.70967102 159.58174133 C 255.61830139 162.37535095 255.39739990 165.00547791 255.24598694 167.38652039 C 255.12786865 169.58464050 255.09565735 171.51504517 255.12586975 173.14018250 C 255.14109802 174.46749878 255.01077271 175.48616028 254.78395081 176.12704468 C 254.40129089 176.43363953 253.88220215 176.39862061 253.36946106 176.02188110 C 252.81211853 175.33703613 252.42323303 174.31510925 251.98480225 173.08764648 C 251.56513977 171.54705811 251.14163208 169.86473083 250.78056335 167.95115662 C 250.39785767 165.94001770 250.10087585 163.74032593 249.79656982 161.48876953 C 249.66195679 159.11889648 249.53630066 156.65773010 249.32673645 154.16203308 C 249.06498718 151.62103271 248.81753540 149.06915283 248.56237793 146.50598145 C 248.27033997 143.90074158 248.03746033 141.37120056 247.61955261 117.77551270" stroke-width="0.64544082" fill="rgb(108, 19, 21)" opacity="1.0" stroke="rgb(39, 3, 0)" stroke-opacity="0.41194373" stroke-linecap="round" stroke-linejoin="round"/>
    <path d="M 259.47897339 180.31575012 C 257.44769287 180.30117798 255.46525574 180.27633667 253.49250793 180.15577698 C 251.60334778 179.98892212 249.85578918 179.77507019 248.20260620 179.51916504 C 246.72676086 179.26304626 245.45729065 179.03153992 244.42037964 178.72932434 C 243.70915222 178.49044800 243.27224731 178.17381287 243.20732117 177.91329956 C 243.54786682 177.77607727 244.22624207 177.66531372 245.23118591 177.61180115 C 246.60437012 177.61672974 248.29994202 177.65391541 250.20965576 177.63204956 C 252.41156006 177.60876465 254.87413025 177.62113953 257.47732544 177.62289429 C 260.23876953 177.60481262 263.18939209 177.39154053 266.18124390 177.01936340 C 269.30712891 176.44334412 272.47564697 175.85232544 275.71798706 175.35635376 C 279.00689697 174.93132019 282.29284668 174.52404785 259.47897339 180.31575012" stroke-width="1.26151526" fill="rgb(120, 2, 5)" opacity="1.0" stroke="rgb(48, 0, 1)" stroke-opacity="0.49768293" stroke-linecap="round" stroke-linejoin="round"/>
  </g>
</svg>
