<?xml version="1.0" ?>
<svg xmlns="http://www.w3.org/2000/svg" version="1.1" width="512" height="512" viewBox="0 0 512 512">
  <defs/>
  <g>
    <path d="M 302.94583130 346.33120728 C 299.72155762 348.21389771 295.94827271 349.38796997 291.20697021 350.12881470 C 286.46563721 350.86968994 280.75631714 351.17730713 273.65994263 351.32714844 C 266.56353760 351.47698975 258.08013916 351.46899414 247.79067993 351.57867432 C 239.13882446 351.29928589 232.26155090 351.18395996 226.08235168 350.47155762 C 219.90316772 349.75915527 214.42208862 348.44964600 208.56262207 345.78198242 C 202.70315552 343.11431885 196.46533203 339.08850098 188.77264404 332.94335938 C 183.71826172 327.08566284 179.65075684 322.25042725 176.13076782 317.25680542 C 172.61077881 312.26318359 169.63827515 307.11123657 166.77394104 300.62005615 C 163.90959167 294.12890625 161.15338135 286.29855347 158.06594849 275.94818115 C 157.10282898 270.83303833 156.18803406 265.38604736 155.82153320 259.30444336 C 155.45504761 253.22282410 155.63684082 246.50659180 156.86694336 238.85301208 C 158.09703064 231.19941711 160.37542725 222.60845947 164.20208740 212.77740479 C 166.16725159 208.70790100 168.73214722 203.50282288 172.21705627 197.90995789 C 175.70196533 192.31710815 180.10687256 186.33647156 185.75207520 180.71589661 C 191.39727783 175.09530640 198.28277588 169.83477783 206.72886658 165.68212891 C 213.65983582 163.86688232 219.17828369 163.01016235 224.14283752 162.72134399 C 229.10739136 162.43252563 233.51805115 162.71163940 238.23348999 163.16801453 C 242.94894409 163.62440491 247.96914673 164.25808716 254.15280151 164.67843628 C 261.75735474 164.09756470 269.32971191 163.56042480 276.75683594 163.69563293 C 284.18395996 163.83084106 291.46578979 164.63839722 298.48925781 166.74693298 C 305.51275635 168.85545349 312.27789307 172.26495361 318.67160034 177.60403442 C 323.13400269 181.25985718 327.20886230 185.15830994 331.05438232 189.67491150 C 334.89990234 194.19149780 338.51605225 199.32624817 342.06106567 205.45465088 C 345.60607910 211.58306885 349.07998657 218.70513916 352.64096069 227.19641113 C 354.91635132 236.29551697 356.08621216 244.64884949 356.39291382 252.34053040 C 356.69964600 260.03222656 356.14321899 267.06228638 354.96603394 273.51489258 C 353.78887939 279.96746826 351.99096680 285.84259033 349.81469727 291.22442627 C 347.59152222 297.22244263 344.86874390 303.43704224 341.15115356 309.69329834 C 337.43353271 315.94955444 332.72113037 322.24746704 326.51864624 328.41207886 C 320.31616211 334.57672119 312.62365723 340.60806274 302.94583130 346.33120728" stroke-width="0.67781407" fill="rgb(238, 16, 21)" opacity="1.0" stroke="rgb(141, 0, 0)" stroke-opacity="1.0" stroke-linecap="round" stroke-linejoin="round"/>
    <path d="M 193.02449036 219.49722290 C 192.16726685 218.35110474 191.64675903 217.11697388 191.34126282 215.92102051 C 191.03576660 214.72506714 190.94528198 213.56729126 190.94810486 212.57392883 C 191.40158081 211.09730530 192.04058838 209.98146057 192.81628418 208.99603271 C 193.59199524 208.01062012 194.50439453 207.15560913 195.50463867 206.20068359 C 196.33569336 205.43742371 197.16876221 204.88833618 198.20184326 204.46980286 C 199.23492432 204.05126953 200.46804810 203.76325989 202.09919739 203.52215576 C 203.27221680 203.25039673 204.70298767 203.05682373 206.19018555 202.92591858 C 207.67736816 202.79501343 209.22099304 202.72676086 210.61968994 202.70562744 C 211.54153442 202.98118591 212.81759644 203.17922974 214.21842957 203.46401978 C 215.61924744 203.74880981 217.14483643 204.12033081 218.56570435 204.74282837 C 219.19757080 205.69247437 219.49513245 206.67953491 219.47692871 207.55154419 C 219.45870972 208.42355347 219.12474060 209.18049622 218.49354553 209.66989136 C 217.73458862 210.92608643 216.77119446 212.17366028 215.77552795 213.32823181 C 214.77986145 214.48278809 213.75193787 215.54434204 212.86395264 216.42849731 C 211.80769348 217.24671936 210.67181396 218.11276245 209.49021912 218.99316406 C 208.30863953 219.87358093 207.08135986 220.76834106 205.84231567 221.64399719 C 204.80155945 222.64224243 203.65925598 223.34835815 202.49462891 223.65521240 C 201.33000183 223.96206665 200.14306641 223.86968994 199.01303101 223.27093506 C 197.64848328 222.90402222 196.65014648 222.50439453 195.74356079 221.92459106 C 194.83695984 221.34478760 194.02209473 220.58482361 193.02449036 219.49722290" stroke-width="0.86647713" fill="rgb(247, 208, 210)" opacity="1.0" stroke="rgb(78, 81, 80)" stroke-opacity="1.0" stroke-linecap="round" stroke-linejoin="round"/>
    <path d="M 300.80789185 133.41976929 C 299.81097412 135.50939941 298.52587891 137.51353455 297.09863281 139.37168884 C 295.67141724 141.22984314 294.10205078 142.94201660 292.53668213 144.44770813 C 290.93249512 146.23794556 289.01049805 147.80570984 286.91305542 149.10159302 C 284.81561279 150.39746094 282.54272461 151.42144775 280.23672485 152.12409973 C 277.35198975 152.72180176 275.07391357 153.50090027 272.97128296 154.07449341 C 270.86865234 154.64808655 268.94146729 155.01617432 266.75854492 154.79182434 C 263.85552979 154.09568787 262.28298950 153.05734253 261.46432495 151.38130188 C 260.64562988 149.70526123 260.58087158 147.39151001 260.69345093 144.14457703 C 260.74401855 140.57510376 261.03787231 137.94589233 261.57440186 135.77758789 C 262.11096191 133.60928345 262.89019775 131.90188599 263.91162109 130.17604065 C 266.88684082 126.62297821 267.96542358 125.23612976 268.84143066 124.33222198 C 269.71743774 123.42831421 270.39086914 123.00736237 272.55584717 121.38609314 C 274.79434204 120.01293945 276.77374268 119.02964783 279.01284790 118.14942169 C 281.25195312 117.26919556 283.75079346 116.49204254 287.02816772 115.53117371 C 290.47265625 114.60820770 292.72265625 113.76649475 294.72052002 112.81091309 C 296.71838379 111.85533142 298.46411133 110.78588867 300.90014648 109.40747070 C 303.49221802 107.66363525 304.50234985 108.46018982 304.90173340 110.43655396 C 305.30108643 112.41291809 305.08966064 115.56908417 305.23861694 118.54447937 C 304.97485352 121.39328003 304.41265869 123.96429443 303.64364624 126.39701843 C 302.87463379 128.82974243 301.89883423 131.12416077 300.80789185 133.41976929" stroke-width="0.63635182" fill="rgb(16, 161, 30)" opacity="1.0" stroke="rgb(0, 109, 0)" stroke-opacity="1.0" stroke-linecap="round" stroke-linejoin="round"/>
    <path d="M 230.55683899 151.66809082 C 228.58641052 151.17486572 226.33605957 150.31997681 224.08657837 149.26435852 C 221.83709717 148.20874023 219.58850098 146.95240784 217.62156677 145.65629578 C 215.54809570 144.18675232 213.50308228 142.64190674 211.62202454 141.04693604 C 209.74096680 139.45196533 208.02389526 137.80688477 206.60635376 136.13690186 C 204.86096191 134.21572876 203.50363159 132.45536804 202.25122070 130.52944946 C 200.99884033 128.60353088 199.85137939 126.51207733 198.52575684 123.92874146 C 197.97375488 121.62059021 196.99017334 119.23004150 196.26434326 117.02314758 C 195.53851318 114.81624603 195.07043457 112.79299927 195.54943848 111.21945190 C 198.18305969 112.10903931 200.74374390 113.24622345 203.22634888 114.18672943 C 205.70896912 115.12723541 208.11349487 115.87106323 210.43482971 115.97393799 C 214.62515259 117.58885193 216.42337036 118.06726074 217.77416992 118.37534332 C 219.12496948 118.68343353 220.02838135 118.82120514 222.42907715 119.75485229 C 224.84573364 120.42978668 227.37557983 121.28206635 229.85116577 122.40491486 C 232.32675171 123.52776337 234.74807739 124.92118073 236.94761658 126.67839050 C 239.22421265 128.82423401 241.04417419 130.83227539 242.53448486 132.73913574 C 244.02481079 134.64601135 245.18548584 136.45172119 246.14346313 138.19290161 C 247.50128174 140.52821350 248.61517334 143.07205200 248.76141357 145.46420288 C 248.90765381 147.85635376 248.08621216 150.09684753 245.57339478 151.82546997 C 243.71273804 153.00325012 241.63705444 153.33558655 239.18730164 153.18763733 C 236.73756409 153.03970337 233.91375732 152.41146851 230.55683899 151.66809082" stroke-width="0.65609252" fill="rgb(67, 201, 29)" opacity="1.0" stroke="rgb(27, 150, 0)" stroke-opacity="1.0" stroke-linecap="round" stroke-linejoin="round"/>
    <path d="M 248.04583740 136.43458557 C 248.01644897 135.06350708 247.98257446 132.99349976 247.91116333 130.70236206 C 247.83975220 128.41119385 247.73077393 125.89888763 247.55117798 123.64315796 C 246.97976685 120.14443970 247.80799866 118.29177856 249.44258118 117.51266479 C 251.07716370 116.73355103 253.51809692 117.02799225 256.17205811 117.82348633 C 256.93902588 120.03924561 256.83178711 122.23985291 256.57034302 124.45255280 C 256.30886841 126.66525269 255.89317322 128.89006042 256.04321289 131.15422058 C 255.96966553 133.47593689 255.89904785 135.65815735 255.82669067 137.90608215 C 255.75433350 140.15399170 255.68023682 142.46762085 255.59965515 145.05210876 C 255.72396851 147.35385132 255.81617737 149.26332092 255.88388062 151.41076660 C 255.95158386 153.55819702 255.99478149 155.94360352 256.02105713 159.19720459 C 255.95346069 161.99058533 255.71435547 163.81253052 255.51162720 165.36680603 C 255.30889893 166.92108154 255.14253235 168.20767212 255.22042847 169.93034363 C 256.16921997 172.37170410 256.06829834 174.23818970 255.28640747 175.58851624 C 254.50451660 176.93884277 253.04162598 177.77299500 251.26651001 178.14965820 C 251.33538818 176.95945740 251.43484497 174.81672668 251.34725952 172.50842285 C 251.25967407 170.20013428 250.98504639 167.72625732 250.30578613 165.87380981 C 250.15539551 162.81747437 249.86865234 160.29458618 249.58914185 158.07048035 C 249.30961609 155.84635925 249.03732300 153.92102051 248.91581726 152.05973816 C 248.65409851 149.25137329 248.52900696 146.71032715 248.42314148 144.18875122 C 248.31727600 141.66716003 248.23065186 139.16505432 248.04583740 136.43458557" stroke-width="0.66740113" fill="rgb(110, 19, 20)" opacity="1.0" stroke="rgb(115, 77, 78)" stroke-opacity="1.0" stroke-linecap="round" stroke-linejoin="round"/>
    <path d="M 269.62139893 178.88053894 C 267.38211060 179.31101990 264.50515747 180.13737488 260.79605103 180.91107178 C 257.13912964 181.97569275 255.45916748 181.22592163 251.16052246 180.62074280 C 246.55541992 180.79212952 245.07537842 180.73077393 242.01643372 179.42428589 C 237.94422913 177.70721436 234.34841919 177.91685486 233.08503723 175.62942505 C 235.82707214 173.68789673 238.80435181 175.37443542 242.01724243 175.77223206 C 247.01747131 176.37577820 247.68728638 176.58731079 249.93545532 176.42027283 C 252.86213684 175.67181396 256.18270874 176.66369629 259.42346191 176.48355103 C 263.97851562 175.48596191 265.42730713 175.87512207 269.73248291 174.96084595 C 273.50262451 174.29579163 276.99420166 173.12138367 279.73931885 174.29614258 C 277.97113037 177.31178284 275.10842896 177.85787964 269.62139893 178.88053894" stroke-width="0.65876460" fill="rgb(134, 5, 7)" opacity="1.0" stroke="rgb(184, 31, 53)" stroke-opacity="1.0" stroke-linecap="round" stroke-linejoin="round"/>
  </g>
</svg>
