<?xml version="1.0" ?>
<svg xmlns="http://www.w3.org/2000/svg" version="1.1" width="512" height="512" viewBox="0 0 512 512">
  <defs/>
  <g>
    <path d="M 299.29360962 346.76531982 C 294.08886719 348.58914185 288.80172729 350.12506104 283.39215088 351.04531860 C 277.82958984 351.14950562 272.25506592 350.54669189 266.67868042 349.45980835 C 260.93341064 348.40582275 255.22251892 347.96643066 249.30877686 348.44226074 C 243.29107666 349.59829712 237.23445129 350.94573975 231.01734924 351.48995972 C 224.60946655 350.78594971 218.14585876 349.01156616 211.76547241 346.34155273 C 205.43646240 343.14233398 199.37376404 339.14132690 193.60414124 334.51153564 C 188.08451843 329.51116943 182.97189331 323.94692993 178.26640320 318.09518433 C 173.85925293 312.09954834 170.01551819 305.75543213 166.73417664 299.18844604 C 163.84628296 292.45651245 161.50883484 285.63171387 159.67118835 278.66729736 C 158.30351257 271.66226196 157.48971558 264.54418945 157.09626770 257.42636108 C 157.17463684 250.29264832 157.79066467 243.12805176 158.84074402 236.00372314 C 160.25900269 229.03628540 162.01931763 222.07362366 164.33090210 215.32504272 C 167.20883179 208.83726501 170.42311096 202.55270386 173.98835754 196.59724426 C 177.95195007 190.96856689 182.37953186 185.66445923 187.06658936 180.90319824 C 191.89686584 176.54670715 196.99159241 172.61363220 202.47502136 169.48353577 C 208.09138489 166.97094727 214.00553894 165.04521179 220.01339722 163.83877563 C 226.19783020 163.39454651 232.52993774 163.72895813 239.01266479 164.48846436 C 245.52555847 165.26785278 252.15827942 165.74720764 258.91873169 165.79516602 C 265.62094116 165.44285583 272.31042480 164.94668579 278.94448853 164.67442322 C 285.56567383 165.00726318 291.99649048 165.96952820 298.27633667 167.53483582 C 304.30041504 169.85380554 310.03686523 172.87530518 315.49218750 176.56080627 C 320.76525879 180.75932312 325.74429321 185.55781555 330.50744629 190.67944336 C 334.96585083 196.12380981 339.04461670 202.08372498 342.78155518 208.23519897 C 346.08950806 214.67240906 349.03268433 221.41357422 351.33724976 228.20228577 C 353.22802734 235.21777344 354.58764648 242.27250671 355.30255127 249.50039673 C 355.45419312 256.69198608 355.13629150 263.74685669 354.39422607 270.77377319 C 353.16802979 277.70715332 351.45010376 284.47372437 349.22360229 290.94207764 C 346.73617554 297.30557251 343.81079102 303.41168213 340.35723877 309.25408936 C 336.51464844 314.90661621 332.25866699 320.31256104 327.61572266 325.45825195 C 322.74240112 330.50219727 317.84155273 335.69165039 299.29360962 346.76531982" stroke-width="1.95724833" fill="rgb(240, 16, 21)" opacity="1.0" stroke="rgb(167, 0, 0)" stroke-opacity="0.87271726" stroke-linecap="round" stroke-linejoin="round"/>
    <path d="M 191.79058838 217.63409424 C 191.57057190 216.70210266 191.48449707 215.68432617 191.40611267 214.76063538 C 191.35038757 213.74427795 191.40104675 212.80249023 191.55198669 211.79505920 C 191.83123779 210.85305786 192.22526550 209.94534302 192.78083801 209.07118225 C 193.41879272 208.22425842 194.16044617 207.41577148 195.11846924 206.65696716 C 196.01919556 205.90112305 197.12596130 205.14775085 198.22563171 204.44927979 C 199.51358032 203.85537720 200.83078003 203.39974976 202.22549438 202.99948120 C 203.63687134 202.72033691 205.13452148 202.63107300 206.61991882 202.61631775 C 208.12370300 202.62767029 209.65464783 202.72207642 211.13363647 202.90533447 C 212.54565430 203.16653442 213.93998718 203.44023132 215.20420837 203.69938660 C 216.34960938 204.03083801 217.41526794 204.42549133 218.20877075 204.94165039 C 218.90246582 205.57710266 219.33190918 206.21249390 219.48390198 206.97715759 C 219.40670776 207.82823181 219.11674500 208.72763062 218.67671204 209.70457458 C 218.01231384 210.70545959 217.19627380 211.75331116 216.28500366 212.70922852 C 215.16989136 213.79194641 214.13641357 214.88003540 213.00387573 215.96983337 C 211.82313538 217.08375549 210.61888123 218.12808228 209.37083435 219.11904907 C 208.12838745 220.05972290 206.93411255 220.94540405 205.85317993 221.74269104 C 204.76461792 222.49372864 203.60858154 223.08699036 202.59040833 223.43609619 C 201.54579163 223.75329590 200.52320862 223.92553711 199.55264282 223.86614990 C 198.62170410 223.80201721 197.70913696 223.58137512 196.82983398 223.23219299 C 195.98547363 222.89619446 195.01640320 222.55555725 191.79058838 217.63409424" stroke-width="1.71066654" fill="rgb(245, 209, 208)" opacity="1.0" stroke="rgb(112, 39, 41)" stroke-opacity="0.37783146" stroke-linecap="round" stroke-linejoin="round"/>
    <path d="M 300.50158691 134.06329346 C 299.24169922 136.18136597 297.96435547 138.31874084 296.57791138 140.33744812 C 295.01214600 142.27192688 293.28005981 144.02796936 291.38092041 145.66921997 C 289.34036255 147.21469116 287.20962524 148.69937134 285.00518799 150.04676819 C 282.73098755 151.27665710 280.40444946 152.32736206 277.96679688 153.10923767 C 275.58535767 153.65983582 273.19726562 154.05061340 270.91644287 154.34866333 C 268.78274536 154.59387207 266.88528442 154.65447998 265.18542480 154.44879150 C 263.74588013 153.76074219 262.61584473 152.68193054 261.64587402 151.33337402 C 260.90719604 149.73779297 260.45040894 147.89859009 260.31213379 145.86126709 C 260.32778931 143.61203003 260.46987915 141.27542114 260.66549683 138.84199524 C 261.20758057 136.45515442 261.90350342 134.00382996 262.86544800 131.68896484 C 264.12042236 129.45030212 265.57403564 127.23827362 267.35821533 125.32373047 C 269.36782837 123.53208160 271.66781616 121.86122131 274.13998413 120.38426208 C 276.80413818 119.14611816 279.59771729 117.85109711 282.43969727 116.74813080 C 285.29513550 115.76104736 288.14099121 114.89268494 290.90081787 114.06472015 C 293.41763306 113.29318237 295.80667114 112.44678497 297.81658936 111.38027954 C 299.46166992 110.27674866 300.82543945 109.16193390 301.91555786 108.31331635 C 302.89535522 107.94048309 303.66253662 108.00728607 304.26300049 108.56100464 C 304.80636597 109.57254791 305.14059448 110.88816833 305.33563232 112.52193451 C 305.34872437 114.35378265 305.33166504 116.39615631 305.26287842 118.45516968 C 305.21578979 120.69305420 305.27032471 122.84414673 300.50158691 134.06329346" stroke-width="0.90230006" fill="rgb(16, 158, 33)" opacity="1.0" stroke="rgb(0, 116, 0)" stroke-opacity="0.4008219" stroke-linecap="round" stroke-linejoin="round"/>
    <path d="M 231.69207764 152.41021729 C 229.11207581 151.46270752 226.72532654 150.49949646 224.27330017 149.43717957 C 221.84956360 148.31480408 219.52209473 147.09111023 217.18919373 145.75169373 C 214.93113708 144.26144409 212.76832581 142.61991882 210.64781189 140.79226685 C 208.65632629 138.89717102 206.74063110 136.73899841 204.88055420 134.51699829 C 203.19918823 132.20103455 201.59844971 129.79191589 200.24418640 127.27886200 C 198.99717712 124.82073975 197.86390686 122.35707855 197.01618958 120.00300598 C 196.32150269 117.77868652 195.73687744 115.77478790 195.35858154 114.10465240 C 195.05041504 112.74715424 195.14443970 111.81685638 195.55392456 111.35662079 C 196.32162476 111.37314606 197.54570007 111.73494720 199.14677429 112.43405914 C 201.06869507 113.23475647 203.30912781 114.03509521 205.86834717 114.74864960 C 208.63034058 115.55297852 211.46090698 116.35648346 214.43650818 117.29698181 C 217.44448853 118.08660889 220.49060059 118.98085785 223.46623230 119.91234589 C 226.36770630 120.91253662 229.18901062 122.04663086 231.77468872 123.26801300 C 234.29568481 124.69003296 236.56190491 126.21865082 238.64288330 127.92449951 C 240.50622559 129.77937317 242.21803284 131.69206238 243.64192200 133.68316650 C 244.87188721 135.75378418 245.99453735 137.76142883 246.90586853 139.72694397 C 247.71374512 141.60171509 248.36380005 143.34652710 248.69410706 144.98924255 C 248.87734985 146.46948242 248.76753235 147.80113220 248.33453369 149.09002686 C 247.60437012 150.12467957 246.64599609 151.16592407 245.51040649 152.17559814 C 244.28976440 153.18263245 243.14219666 154.28224182 231.69207764 152.41021729" stroke-width="0.92947125" fill="rgb(66, 198, 28)" opacity="1.0" stroke="rgb(38, 150, 0)" stroke-opacity="0.3254579" stroke-linecap="round" stroke-linejoin="round"/>
    <path d="M 247.87261963 127.19013977 C 247.81779480 125.48865509 247.78579712 123.86711884 247.62429810 122.22135162 C 247.49342346 120.75025940 247.53875732 119.47107697 247.70460510 118.42701721 C 248.31602478 117.82431793 249.23196411 117.56028748 250.43035889 117.48459625 C 251.77200317 117.50268555 253.16627502 117.53761292 254.45816040 117.54822540 C 255.52578735 117.55413055 256.22647095 117.94306946 256.54580688 118.87195587 C 256.56732178 120.26727295 256.48562622 122.26782990 256.31552124 124.52322388 C 256.10971069 127.13738251 255.92617798 130.02146912 255.86483765 133.07783508 C 255.75628662 136.22204590 255.76402283 139.46058655 255.72129822 142.66604614 C 255.72309875 145.89430237 255.74240112 148.97245789 255.77128601 152.04080200 C 255.76609802 154.91706848 255.71945190 157.70069885 255.66763306 160.33497620 C 255.58242798 162.79450989 255.42962646 165.13000488 255.33360291 167.22943115 C 255.19677734 169.16271973 255.07971191 170.91201782 255.00315857 172.37728882 C 254.92251587 173.56945801 254.72375488 174.54644775 254.44210815 175.09657288 C 253.98707581 175.42713928 253.53955078 175.37156677 253.04241943 175.00778198 C 252.54539490 174.32339478 252.11114502 173.29270935 251.69093323 172.06512451 C 251.29122925 170.50965881 250.85414124 168.79602051 250.54263306 166.91007996 C 250.18487549 164.80224609 249.88307190 162.62620544 249.72259521 160.27343750 C 249.53329468 157.90696716 249.41860962 155.38549805 249.19625854 152.83279419 C 248.91795349 150.32305908 248.65931702 147.72814941 248.50248718 145.07057190 C 248.18927002 142.53919983 247.98558044 139.90361023 247.87261963 127.19013977" stroke-width="0.65320283" fill="rgb(107, 18, 21)" opacity="1.0" stroke="rgb(32, 5, 0)" stroke-opacity="0.4159378" stroke-linecap="round" stroke-linejoin="round"/>
    <path d="M 263.85858154 180.03961182 C 261.39855957 180.21255493 258.94955444 180.39836121 256.51998901 180.49339294 C 254.13423157 180.55323792 251.80854797 180.45588684 249.72683716 180.23309326 C 247.66648865 180.03630066 245.99482727 179.66133118 244.50616455 179.30722046 C 243.38307190 178.86616516 242.66671753 178.43350220 242.35955811 178.03211975 C 242.51646423 177.65830994 243.10968018 177.35174561 244.18916321 177.15350342 C 245.56106567 177.06187439 247.41696167 176.93637085 249.57371521 176.93162537 C 251.97883606 176.92068481 254.64370728 176.96871948 257.58175659 177.00135803 C 260.58578491 176.98924255 263.78549194 176.78041077 267.06777954 176.42506409 C 270.41632080 175.95606995 273.82095337 175.36512756 277.33480835 174.86840820 C 280.76925659 174.48886108 284.33340454 173.95619202 263.85858154 180.03961182" stroke-width="1.11894667" fill="rgb(120, 4, 2)" opacity="1.0" stroke="rgb(10, 6, 12)" stroke-opacity="0.32185608" stroke-linecap="round" stroke-linejoin="round"/>
  </g>
</svg>
