<?xml version="1.0" ?>
<svg xmlns="http://www.w3.org/2000/svg" version="1.1" width="512" height="512" viewBox="0 0 512 512">
  <defs/>
  <g>
    <path d="M 298.75851440 347.02209473 C 293.17395020 348.95413208 287.52084351 350.48645020 281.87814331 351.30041504 C 276.13363647 351.20181274 270.45132446 350.31478882 264.80340576 349.11676025 C 259.16372681 348.14721680 253.51327515 347.95513916 247.85029602 348.61230469 C 242.21688843 349.93493652 236.49188232 351.15173340 230.56877136 351.44912720 C 224.47247314 350.69610596 218.35313416 348.93737793 212.09892273 346.44369507 C 205.89616394 343.44680786 199.93399048 339.58242798 194.23956299 334.99676514 C 188.71337891 330.11837769 183.53344727 324.71142578 178.79701233 318.84921265 C 174.37379456 312.84497070 170.43417358 306.54342651 167.07611084 299.92141724 C 164.15870667 293.16531372 161.68510437 286.32006836 159.81817627 279.37344360 C 158.33673096 272.27191162 157.47778320 265.12588501 157.09205627 257.94818115 C 157.16255188 250.79365540 157.72509766 243.53320312 158.72030640 236.46870422 C 160.15443420 229.38452148 161.94593811 222.48072815 164.14941406 215.70816040 C 167.02507019 209.23854065 170.15539551 202.93103027 173.77156067 196.96232605 C 177.73184204 191.29405212 182.13655090 186.08175659 186.75616455 181.25225830 C 191.61178589 176.80322266 196.67987061 172.87513733 202.09175110 169.60877991 C 207.73814392 166.97474670 213.66758728 165.08639526 219.80407715 163.85986328 C 225.97370911 163.32000732 232.31663513 163.55804443 238.79644775 164.36779785 C 245.34486389 165.16656494 251.99290466 165.76599121 258.78445435 165.83503723 C 265.51559448 165.37741089 272.24075317 164.74682617 278.93188477 164.61936951 C 285.61376953 164.97955322 292.09927368 165.95028687 298.42184448 167.51156616 C 304.42608643 169.89909363 310.13052368 173.00299072 315.63299561 176.66944885 C 320.90991211 180.95082092 325.89434814 185.72836304 330.57592773 190.78948975 C 335.03634644 196.24446106 339.17065430 202.16252136 342.71884155 208.39039612 C 346.06686401 214.69000244 349.08987427 221.21069336 351.44012451 228.04417419 C 353.19873047 234.99371338 354.44613647 242.09640503 355.31915283 249.15840149 C 355.50946045 256.18884277 355.13836670 263.25650024 354.41705322 270.31051636 C 353.26260376 277.14126587 351.60391235 283.79620361 349.50082397 290.36123657 C 347.03405762 296.72714233 344.08300781 302.84814453 340.62438965 308.78726196 C 336.87863159 314.60186768 332.57318115 320.16555786 327.69589233 325.40292358 C 322.66497803 330.66363525 317.67303467 336.15933228 298.75851440 347.02209473" stroke-width="1.93604124" fill="rgb(236, 18, 23)" opacity="1.0" stroke="rgb(167, 0, 0)" stroke-opacity="0.8732702" stroke-linecap="round" stroke-linejoin="round"/>
    <path d="M 191.77761841 217.97117615 C 191.65737915 216.80627441 191.49295044 215.64944458 191.34800720 214.63594055 C 191.35256958 213.65591431 191.38838196 212.62371826 191.55415344 211.58679199 C 191.89709473 210.60923767 192.42007446 209.70060730 192.89935303 208.81646729 C 193.60867310 207.99224854 194.36175537 207.21340942 195.30210876 206.51351929 C 196.27844238 205.73275757 197.35818481 204.99539185 198.42829895 204.35240173 C 199.65402222 203.80473328 201.01287842 203.32067871 202.35968018 202.91148376 C 203.74542236 202.69937134 205.22695923 202.65745544 206.72738647 202.67913818 C 208.22488403 202.63868713 209.73884583 202.73474121 211.15568542 202.87248230 C 212.60923767 203.13885498 213.95219421 203.46488953 215.18127441 203.73674011 C 216.37020874 204.07246399 217.36741638 204.43218994 218.29734802 204.89878845 C 218.94697571 205.49342346 219.44120789 206.20881653 219.53518677 206.95367432 C 219.47772217 207.80821228 219.08227539 208.71267700 218.64927673 209.66035461 C 218.00866699 210.68060303 217.23292542 211.68840027 216.28918457 212.71911621 C 215.29602051 213.76133728 214.25415039 214.79942322 213.11891174 215.86822510 C 211.92996216 216.89241028 210.80584717 217.92805481 209.70222473 218.98382568 C 208.54908752 219.91056824 207.33833313 220.71023560 206.25498962 221.49169922 C 205.18225098 222.15385437 204.18133545 222.78675842 203.17892456 223.23866272 C 202.17637634 223.62248230 201.22914124 223.77612305 200.25009155 223.88043213 C 199.32151794 223.80914307 198.39904785 223.68148804 197.46353149 223.43550110 C 196.42500305 223.14170837 195.42405701 222.92083740 191.77761841 217.97117615" stroke-width="1.70702708" fill="rgb(245, 211, 209)" opacity="1.0" stroke="rgb(95, 48, 49)" stroke-opacity="0.33944523" stroke-linecap="round" stroke-linejoin="round"/>
    <path d="M 300.80926514 133.58276367 C 299.40405273 135.91899109 297.91778564 138.27027893 296.43338013 140.53819275 C 294.73580933 142.52465820 292.82336426 144.43614197 290.77828979 146.17353821 C 288.66299438 147.75044250 286.41723633 149.16477966 284.21582031 150.54072571 C 281.93478394 151.67597961 279.58258057 152.62394714 277.32785034 153.32144165 C 274.97036743 153.76670837 272.71722412 154.07878113 270.53906250 154.36303711 C 268.59445190 154.57633972 266.78302002 154.66831970 265.21527100 154.44853210 C 263.85934448 153.83456421 262.76318359 152.84922791 261.81848145 151.56066895 C 261.04656982 150.06962585 260.48706055 148.35342407 260.33920288 146.40728760 C 260.37127686 144.25756836 260.43408203 141.87046814 260.66473389 139.46409607 C 261.03872681 136.95025635 261.75390625 134.44053650 262.73773193 132.04426575 C 263.96182251 129.64854431 265.49963379 127.41526031 267.28915405 125.33138275 C 269.41925049 123.49098969 271.77108765 121.84274292 274.29608154 120.40217590 C 277.00210571 119.02570343 279.76004028 117.80543518 282.58404541 116.66957092 C 285.44284058 115.73783112 288.17059326 114.83905792 290.84967041 114.09481812 C 293.30822754 113.38488007 295.58441162 112.59263611 297.48992920 111.69591522 C 299.06491089 110.59215546 300.39205933 109.48720551 301.44909668 108.57505798 C 302.35198975 108.00285339 303.22409058 107.88576508 303.88647461 108.19736481 C 304.48110962 108.92276764 304.90820312 109.97908783 305.19421387 111.37398529 C 305.28344727 113.02726746 305.25744629 114.91609192 305.34924316 116.99866486 C 305.40603638 119.11071014 305.72732544 121.39772797 300.80926514 133.58276367" stroke-width="0.91303682" fill="rgb(17, 160, 30)" opacity="1.0" stroke="rgb(0, 118, 0)" stroke-opacity="0.39340976" stroke-linecap="round" stroke-linejoin="round"/>
    <path d="M 231.82670593 152.42179871 C 229.26670837 151.47010803 226.63540649 150.45932007 224.04019165 149.37963867 C 221.53080750 148.15112305 219.04072571 146.83210754 216.62927246 145.39408875 C 214.23799133 143.79322815 212.07255554 141.99891663 209.90953064 140.10334778 C 207.85542297 138.03207397 206.00988770 135.86805725 204.16926575 133.64369202 C 202.55143738 131.27514648 201.09535217 128.88504028 199.81080627 126.48180389 C 198.60957336 124.04558563 197.60139465 121.72845459 196.84384155 119.45587158 C 196.17387390 117.36153412 195.70755005 115.43745422 195.25782776 113.85616302 C 195.08715820 112.59548187 195.08798218 111.66526794 195.38989258 111.23404694 C 196.17068481 111.27696228 197.30801392 111.63150024 198.76722717 112.23279572 C 200.57733154 113.04707336 202.69204712 113.83396149 205.16885376 114.58274841 C 207.77145386 115.34850311 210.63909912 116.14452362 213.55491638 116.99172974 C 216.60482788 117.88454437 219.64729309 118.72449493 222.72929382 119.66658783 C 225.66983032 120.69645691 228.61297607 121.75591278 231.32269287 123.00640869 C 233.91430664 124.41272736 236.24299622 125.93936920 238.37953186 127.67904663 C 240.24478149 129.54385376 241.99545288 131.40223694 243.47285461 133.39002991 C 244.68145752 135.45104980 245.78097534 137.47967529 246.74407959 139.40319824 C 247.56874084 141.27153015 248.23960876 143.03329468 248.71888733 144.64181519 C 248.93458557 146.20018005 248.85940552 147.57647705 248.45655823 148.84587097 C 247.77668762 149.98352051 246.73478699 151.00656128 245.56770325 152.04173279 C 244.38978577 153.21940613 243.12059021 154.31802368 231.82670593 152.42179871" stroke-width="0.93328011" fill="rgb(67, 197, 31)" opacity="1.0" stroke="rgb(33, 150, 0)" stroke-opacity="0.32519177" stroke-linecap="round" stroke-linejoin="round"/>
    <path d="M 247.71775818 120.11891937 C 247.58523560 119.53048706 247.53967285 118.93528748 247.61065674 118.41442108 C 247.77236938 118.03352356 248.21362305 117.73361206 248.84449768 117.54194641 C 249.74536133 117.61179352 250.76022339 117.61814117 251.89117432 117.70645905 C 253.15023804 117.69255066 254.25469971 117.69355774 255.22535706 117.63313293 C 256.00915527 117.71569061 256.45693970 118.08766174 256.57110596 118.88667297 C 256.44476318 120.10044861 256.40689087 121.90819550 256.33297729 123.99140930 C 256.20385742 126.39411926 256.02301025 129.08540344 255.86146545 131.96359253 C 255.84722900 134.97685242 255.77055359 138.21130371 255.71826172 141.38949585 C 255.67436218 144.64703369 255.72061157 147.89057922 255.79457092 151.08651733 C 255.79997253 154.17808533 255.76049805 157.16659546 255.72923279 160.01721191 C 255.61871338 162.68083191 255.45281982 165.23327637 255.27574158 167.48692322 C 255.12081909 169.60813904 255.07783508 171.38584900 255.08654785 172.97091675 C 254.99568176 174.21507263 254.76628113 175.21333313 254.50700378 175.79005432 C 254.11012268 176.07266235 253.63899231 175.98814392 253.13720703 175.58738708 C 252.66836548 174.84611511 252.20742798 173.78717041 251.79489136 172.47135925 C 251.42939758 170.95472717 251.00016785 169.17304993 250.63162231 167.28776550 C 250.30976868 165.22850037 249.97854614 163.01377869 249.74438477 160.79188538 C 249.62231445 158.38244629 249.45611572 155.91099548 249.30662537 153.45831299 C 249.00737000 150.90557861 248.74687195 148.35499573 248.49822998 145.82264709 C 248.26676941 143.25799561 248.01856995 140.68188477 247.71775818 120.11891937" stroke-width="0.63441312" fill="rgb(111, 19, 22)" opacity="1.0" stroke="rgb(37, 4, 0)" stroke-opacity="0.45412534" stroke-linecap="round" stroke-linejoin="round"/>
    <path d="M 260.80267334 180.45764160 C 258.80050659 180.41021729 256.67715454 180.41033936 254.60435486 180.40745544 C 252.63343811 180.30897522 250.70109558 180.17013550 248.90467834 180.03585815 C 247.26843262 179.77772522 245.83108521 179.49327087 244.60888672 179.15512085 C 243.72286987 178.78262329 243.15174866 178.41529846 242.92964172 178.05627441 C 243.16252136 177.67370605 243.76995850 177.47114563 244.74540710 177.28707886 C 246.11816406 177.19030762 247.85194397 177.16101074 249.82939148 177.12402344 C 252.10345459 177.12716675 254.62254333 177.19441223 257.36608887 177.21508789 C 260.27432251 177.19592285 263.27734375 177.05026245 266.47119141 176.68170166 C 269.69415283 176.20796204 273.02716064 175.64833069 276.37988281 175.12213135 C 279.85754395 174.74159241 283.24230957 174.37033081 260.80267334 180.45764160" stroke-width="1.24308705" fill="rgb(118, 0, 5)" opacity="1.0" stroke="rgb(0, 1, 5)" stroke-opacity="0.3372697" stroke-linecap="round" stroke-linejoin="round"/>
  </g>
</svg>
