<?xml version="1.0" ?>
<svg xmlns="http://www.w3.org/2000/svg" version="1.1" width="512" height="512" viewBox="0 0 512 512">
  <defs/>
  <g>
    <path d="M 643.31817627 493.21395874 C 619.59027100 502.40728760 595.76879883 511.68618774 571.93853760 520.84429932 C 548.10205078 529.94952393 524.07910156 538.90301514 499.96026611 547.58477783 C 475.70327759 555.89349365 451.13989258 563.78320312 426.42565918 571.11938477 C 401.42837524 577.72625732 376.14230347 583.64111328 350.64312744 588.60351562 C 324.90567017 592.59997559 298.98352051 595.50347900 272.97705078 597.21343994 C 246.94766235 597.62390137 220.98825073 596.69921875 195.20159912 594.29260254 C 169.74891663 590.38415527 144.79791260 584.87695312 120.38296509 577.72314453 C 96.77138519 568.81359863 74.07509613 558.18023682 52.46239090 545.64270020 C 32.12829208 531.25366211 13.30720711 514.91796875 -4.03159380 496.61279297 C -19.63628006 476.37295532 -33.67008972 454.56823730 -46.18977737 431.25128174 C -57.32685089 406.69003296 -66.89614105 381.23498535 -75.31767273 354.90493774 C -82.31465912 328.13565063 -88.08159637 300.94979858 -92.55735016 273.66732788 C -95.86921692 246.51107788 -97.95164490 219.60687256 -98.77101135 193.22242737 C -98.36162567 167.44210815 -96.65858459 142.60650635 -93.66455078 118.68284607 C -89.28453827 95.89034271 -83.53329468 74.39974213 -76.36958313 54.26056671 C -67.70723724 35.51681137 -57.59177780 18.28421593 -45.91091156 2.50375581 C -32.64319229 -11.67386150 -17.88714981 -24.38006973 -1.59284782 -35.57627106 C 16.26085854 -45.30519867 35.56931686 -53.60085678 56.24891281 -60.50905991 C 78.25913239 -66.09200287 101.48538208 -70.42790985 125.76541901 -73.66402435 C 151.04705811 -75.68328094 177.08412170 -76.73571014 203.79518127 -76.74101257 C 230.93496704 -75.79251862 258.42245483 -73.92269897 286.00564575 -71.19712830 C 313.58114624 -67.56925201 340.84484863 -63.04590225 367.60229492 -57.52134705 C 393.56420898 -50.83008194 418.58883667 -42.90396500 442.34152222 -33.63210678 C 464.69512939 -22.74610138 485.26132202 -10.14934540 504.16995239 4.30245066 C 520.85937500 20.86397171 535.61773682 39.32389450 548.60260010 59.46713257 C 559.98699951 81.06454468 569.86370850 104.01978302 578.61828613 128.00894165 C 586.23870850 152.92990112 592.94720459 178.58526611 599.05474854 204.80613708 C 604.58605957 231.38798523 609.70849609 258.37936401 614.53680420 285.62545776 C 619.07250977 313.08261108 623.48303223 340.56613159 627.81781006 368.12902832 C 632.10772705 395.81237793 636.35266113 423.39346313 643.31817627 493.21395874" stroke-width="2.00000000" fill="rgb(211, 243, 254)" opacity="1.0" stroke="rgb(142, 229, 255)" stroke-opacity="0.35165077" stroke-linecap="round" stroke-linejoin="round"/>
    <path d="M 248.86663818 483.59725952 C 248.46940613 478.92929077 248.31086731 474.15447998 248.18954468 469.41976929 C 248.02314758 464.57415771 247.83975220 459.68069458 247.67716980 454.68008423 C 247.53547668 449.63488770 247.39790344 444.47183228 247.24673462 439.25903320 C 247.01956177 433.97146606 246.81526184 428.62536621 246.69717407 423.26556396 C 246.61781311 417.89447021 246.55221558 412.57662964 246.50726318 407.33193970 C 246.42800903 402.19390869 246.30741882 397.24786377 246.27439880 392.48413086 C 246.31552124 387.99938965 246.60597229 383.84524536 247.00833130 380.04269409 C 247.52293396 376.63833618 248.27183533 373.72732544 249.11863708 371.27172852 C 250.02708435 369.29354858 251.12040710 367.90274048 252.13835144 367.03045654 C 253.27572632 366.67456055 254.40003967 366.94635010 255.45913696 367.75671387 C 256.45999146 369.00320435 257.46496582 370.88952637 258.29306030 373.21157837 C 258.99169922 375.98562622 259.63446045 379.18878174 259.95321655 382.77420044 C 260.13409424 386.68359375 260.17126465 390.88436890 260.06259155 395.34509277 C 260.03759766 399.98828125 260.06945801 404.76577759 260.13079834 409.64947510 C 260.19897461 414.60382080 260.25042725 419.57946777 260.29873657 424.56521606 C 260.41949463 429.47317505 260.68579102 434.33853149 260.98400879 439.13354492 C 261.27661133 443.86221313 261.42343140 448.46380615 261.46481323 453.02951050 C 261.54641724 457.55789185 261.55429077 461.94384766 261.63040161 466.35894775 C 261.71508789 470.72000122 261.82522583 475.03985596 261.77554321 479.44866943 C 261.49353027 483.87875366 260.99395752 488.33831787 248.86663818 483.59725952" stroke-width="1.08723199" fill="rgb(139, 196, 77)" opacity="1.0" stroke="rgb(166, 209, 155)" stroke-opacity="0.792107" stroke-linecap="round" stroke-linejoin="round"/>
    <path d="M 277.22222900 237.23623657 C 274.67721558 238.52383423 272.10766602 239.76622009 269.63528442 240.97726440 C 267.09030151 242.21884155 264.60281372 243.28440857 262.19760132 244.15380859 C 259.78491211 244.88639832 257.53353882 245.34700012 255.39306641 245.49005127 C 253.21662903 245.23968506 251.25724792 244.62481689 249.33432007 243.59429932 C 247.69152832 242.00573730 246.09939575 240.03063965 244.65695190 237.51268005 C 243.28588867 234.49195862 242.09672546 230.92932129 240.95413208 226.98474121 C 239.94659424 222.48185730 239.01269531 217.57321167 238.18298340 212.26777649 C 237.44627380 206.61595154 236.74320984 200.70401001 236.22694397 194.52403259 C 235.87365723 188.08909607 235.67770386 181.66894531 235.25207520 175.18707275 C 234.98382568 168.69378662 235.11410522 162.24205017 235.43290710 156.01049805 C 236.28176880 149.94313049 237.42893982 144.19055176 239.09596252 138.81538391 C 241.05418396 133.91390991 243.28895569 129.65196228 245.58760071 125.92485809 C 247.77531433 122.82931519 250.13531494 120.78844452 252.77081299 119.74526978 C 255.32733154 119.47121429 257.87399292 120.09237671 260.35784912 121.59310150 C 262.68420410 123.90816498 264.85577393 126.97801971 266.94177246 130.57989502 C 268.89498901 134.70726013 270.49618530 139.30392456 271.77557373 144.31906128 C 272.92996216 149.60177612 273.80731201 155.17739868 274.31106567 160.97174072 C 274.45288086 166.98019409 274.22149658 173.09542847 273.79235840 179.25695801 C 273.44766235 185.61923218 273.30432129 191.97148132 273.06127930 198.35017395 C 272.82269287 204.77838135 272.63812256 211.18312073 277.22222900 237.23623657" stroke-width="2.00000000" fill="rgb(250, 255, 253)" opacity="1.0" stroke="rgb(67, 148, 137)" stroke-opacity="0.7824927" stroke-linecap="round" stroke-linejoin="round"/>
    <path d="M 305.17138672 203.42935181 C 302.52545166 209.04533386 299.84002686 214.60119629 297.08084106 219.95974731 C 294.17861938 225.12522888 291.26303101 229.99499512 288.31719971 234.52090454 C 285.36639404 238.72346497 282.46456909 242.51724243 279.58154297 245.79747009 C 276.83209229 248.60789490 274.13894653 250.88264465 271.72293091 252.70402527 C 269.41519165 253.92105103 267.26287842 254.60768127 265.42266846 254.66983032 C 263.82864380 254.28244019 262.54306030 253.32112122 261.44677734 251.75283813 C 260.64294434 249.69845581 260.16903687 247.19415283 260.01858521 244.21417236 C 260.15145874 240.78549194 260.63714600 236.94807434 261.32107544 232.72396851 C 262.25677490 228.20367432 263.43585205 223.34812927 264.78274536 218.18798828 C 266.31054688 212.78936768 268.00964355 207.20520020 269.79956055 201.42030334 C 271.61004639 195.46282959 273.42919922 189.33802795 275.67031860 183.33259583 C 278.45111084 177.45240784 281.37435913 171.57963562 284.32907104 165.90385437 C 287.58364868 160.61231995 291.14965820 155.64802551 294.93942261 151.15985107 C 298.99139404 147.33668518 303.08312988 144.08776855 306.95144653 141.28715515 C 310.63354492 139.04406738 314.00323486 137.68061829 317.07147217 137.16363525 C 319.82971191 137.30856323 321.96252441 138.41676331 323.49990845 140.43626404 C 324.65774536 143.11607361 325.45693970 146.40809631 325.67803955 150.36228943 C 325.67022705 154.68455505 325.22494507 159.35868835 324.43920898 164.11442566 C 323.37557983 169.06051636 321.87417603 174.00894165 319.81671143 178.96510315 C 317.60995483 183.92860413 315.35437012 188.90240479 305.17138672 203.42935181" stroke-width="2.00000000" fill="rgb(252, 253, 252)" opacity="1.0" stroke="rgb(77, 150, 138)" stroke-opacity="0.7832908" stroke-linecap="round" stroke-linejoin="round"/>
    <path d="M 364.02185059 208.59602356 C 360.30136108 212.96255493 356.28979492 217.01440430 351.98010254 220.72979736 C 347.47503662 224.16952515 342.69033813 227.06979370 337.62463379 229.62237549 C 332.49768066 231.97271729 327.47930908 234.58593750 322.47509766 237.25881958 C 317.43740845 239.66810608 312.43945312 241.94255066 307.45874023 243.87872314 C 302.54132080 245.58540344 297.71328735 247.09207153 293.17596436 248.36752319 C 288.78985596 249.30395508 284.75167847 250.05183411 280.93475342 250.49981689 C 277.56716919 250.74388123 274.58151245 250.73957825 272.10736084 250.52468872 C 270.03216553 250.04905701 268.43035889 249.23934937 267.35278320 248.31947327 C 266.89498901 247.11396790 266.94537354 245.73562622 267.43725586 244.10635376 C 268.49255371 242.25376892 270.04965210 240.15792847 271.96591187 237.85191345 C 274.30545044 235.38314819 277.10464478 232.78610229 280.35928345 230.10566711 C 283.90191650 227.23327637 287.59057617 224.21829224 291.39266968 220.99000549 C 295.20611572 217.45582581 298.74154663 213.55702209 302.10421753 209.42936707 C 305.30181885 205.10438538 308.95346069 201.22953796 313.23663330 197.98526001 C 317.92260742 195.12030029 322.69128418 192.37599182 327.63500977 189.84811401 C 332.46908569 187.62828064 337.35256958 185.93429565 342.26943970 184.76773071 C 346.92446899 183.88829041 351.53213501 183.37542725 355.76901245 183.26304626 C 359.60189819 183.22686768 362.95077515 183.38255310 365.81347656 183.85693359 C 368.08148193 184.71354675 369.55514526 186.26542664 370.44079590 188.71685791 C 371.19281006 191.90475464 372.17666626 195.31758118 364.02185059 208.59602356" stroke-width="2.00000000" fill="rgb(250, 254, 251)" opacity="1.0" stroke="rgb(66, 147, 138)" stroke-opacity="0.77474135" stroke-linecap="round" stroke-linejoin="round"/>
    <path d="M 384.10314941 262.01522827 C 379.33203125 265.63143921 374.13076782 268.60360718 368.60333252 270.81152344 C 362.88409424 272.54348755 356.98892212 273.59292603 350.90173340 274.25219727 C 344.71743774 274.53405762 338.50064087 274.46084595 332.22607422 274.40951538 C 325.97653198 274.66345215 319.79394531 274.89364624 313.63177490 275.09365845 C 307.53295898 275.21163940 301.67681885 275.29855347 296.00927734 275.21792603 C 290.47695923 275.03985596 285.35461426 274.78927612 280.47210693 274.31762695 C 276.01315308 273.79849243 271.99316406 273.01156616 268.47244263 272.18630981 C 265.36413574 271.27804565 262.85858154 270.09396362 260.90344238 268.83084106 C 259.49737549 267.52130127 258.70565796 266.06829834 258.55828857 264.51412964 C 258.88723755 262.81375122 259.90597534 261.16119385 261.42559814 259.42211914 C 263.53851318 257.64837646 266.19531250 255.89530945 269.32998657 254.16644287 C 272.95394897 252.45103455 276.92617798 250.80996704 281.22906494 249.09669495 C 285.92578125 247.54096985 290.81793213 245.93554688 295.95465088 244.41275024 C 301.23245239 242.91046143 306.52511597 241.40284729 311.95999146 239.94294739 C 317.36462402 238.54582214 322.56832886 237.02735901 327.76574707 235.71377563 C 333.03356934 235.24951172 338.28329468 235.15675354 343.40728760 235.16603088 C 348.49160767 235.15402222 353.40740967 235.40917969 358.19699097 236.00161743 C 362.84948730 236.89254761 367.34896851 238.05764771 371.57745361 239.48106384 C 375.65948486 241.07255554 379.44360352 243.03767395 382.86944580 245.65226746 C 386.11218262 248.76684570 389.40704346 252.11213684 384.10314941 262.01522827" stroke-width="2.00000000" fill="rgb(253, 255, 255)" opacity="1.0" stroke="rgb(35, 123, 111)" stroke-opacity="0.57785434" stroke-linecap="round" stroke-linejoin="round"/>
    <path d="M 365.39080811 325.32714844 C 360.26580811 325.62820435 355.14636230 325.62469482 350.00256348 325.31787109 C 344.91998291 324.74600220 339.85934448 323.87738037 334.89608765 322.42807007 C 330.00079346 320.74563599 325.19244385 318.64013672 320.55618286 315.98565674 C 315.82202148 313.11770630 311.01959229 310.39361572 306.13610840 307.70352173 C 301.21282959 304.76959229 296.51019287 301.85852051 291.93850708 298.85855103 C 287.45709229 295.72790527 283.30184937 292.67111206 279.40502930 289.59396362 C 275.72460938 286.58181763 272.44134521 283.67684937 269.58377075 280.86941528 C 267.07415771 278.23544312 265.01275635 275.76580811 263.48538208 273.47061157 C 262.41970825 271.43045044 261.85430908 269.59609985 261.84100342 268.05151367 C 262.36495972 266.77786255 263.31283569 265.73800659 264.88235474 265.05532837 C 266.87026978 264.70327759 269.35186768 264.56005859 272.25070190 264.71499634 C 275.63403320 265.14181519 279.35412598 265.80349731 283.42282104 266.63858032 C 287.77441406 267.66168213 292.39968872 268.83239746 297.30603027 269.94421387 C 302.25753784 271.11141968 307.37509155 272.22143555 312.50006104 273.26876831 C 317.72250366 274.13589478 322.74810791 274.93502808 327.61236572 275.74118042 C 332.20370483 277.26312256 336.60769653 279.34378052 340.82559204 281.66522217 C 345.03622437 284.04370117 349.06106567 286.65499878 352.83090210 289.57333374 C 356.48605347 292.69070435 359.92248535 295.89932251 362.96884155 299.47836304 C 365.89541626 303.26684570 368.36849976 307.35867310 370.34222412 311.82543945 C 371.98583984 316.63357544 373.61059570 321.54339600 365.39080811 325.32714844" stroke-width="2.00000000" fill="rgb(252, 253, 253)" opacity="1.0" stroke="rgb(39, 127, 112)" stroke-opacity="0.57245415" stroke-linecap="round" stroke-linejoin="round"/>
    <path d="M 325.63485718 357.97015381 C 325.13568115 360.94238281 324.59460449 363.68084717 323.90258789 366.20889282 C 322.88629150 368.24707031 321.43344116 369.71453857 319.48992920 370.53836060 C 317.15789795 370.79931641 314.40505981 370.45046997 311.43020630 369.29727173 C 308.19580078 367.53701782 304.64682007 365.29412842 300.93493652 362.36386108 C 297.12625122 358.95053101 293.41378784 355.08627319 289.73864746 350.80133057 C 286.14974976 346.13412476 283.01275635 340.88684082 280.06436157 335.36880493 C 277.07604980 329.83483887 273.98916626 324.29034424 271.00112915 318.71795654 C 268.22213745 313.14175415 265.59689331 307.64349365 263.29821777 302.34298706 C 261.31567383 297.07266235 259.67730713 291.98681641 258.15237427 287.27822876 C 256.95193481 282.92648315 256.12710571 278.86511230 255.64260864 275.16918945 C 255.34675598 271.95913696 255.49096680 269.15155029 255.82575989 266.78717041 C 256.52615356 264.98928833 257.40533447 263.66793823 258.67892456 262.85543823 C 260.14556885 262.51681519 261.85031128 262.65341187 263.79693604 263.32592773 C 265.95901489 264.52835083 268.28115845 266.04605103 270.85659790 268.01391602 C 273.46139526 270.45010376 276.32031250 273.18887329 279.26589966 276.24484253 C 282.34881592 279.63125610 285.58309937 283.29226685 288.86199951 287.13330078 C 292.30780029 291.15396118 295.80303955 295.32025146 299.40579224 299.69799805 C 303.26538086 304.02352905 307.02716064 308.50372314 310.58709717 313.31472778 C 313.89950562 318.48886108 316.83279419 324.06298828 319.62091064 329.90243530 C 322.15914917 336.03869629 324.82986450 342.22106934 325.63485718 357.97015381" stroke-width="2.00000000" fill="rgb(250, 255, 250)" opacity="1.0" stroke="rgb(35, 122, 103)" stroke-opacity="0.58232147" stroke-linecap="round" stroke-linejoin="round"/>
    <path d="M 270.33187866 364.73718262 C 269.09423828 368.20593262 267.76446533 371.49914551 266.22824097 374.71829224 C 264.65515137 377.83575439 262.88323975 380.39520264 260.88732910 382.60879517 C 258.75421143 384.31057739 256.45309448 385.28948975 254.01329041 385.54483032 C 251.44055176 385.00640869 248.89852905 383.68038940 246.50331116 381.62951660 C 244.22772217 378.86752319 242.34028625 375.35043335 240.65916443 371.24435425 C 238.84442139 366.73797607 237.35919189 361.76559448 236.25666809 356.38705444 C 235.43788147 350.71832275 235.12854004 344.83413696 235.15122986 338.67565918 C 235.38308716 332.48526001 235.66622925 326.22915649 235.92424011 319.99829102 C 236.29940796 313.80404663 236.80668640 307.84219360 237.42060852 302.09051514 C 238.06997681 296.59802246 238.78863525 291.40887451 239.65686035 286.64346313 C 240.58338928 282.31463623 241.65650940 278.40496826 242.77951050 275.02502441 C 243.92073059 272.10440063 245.19319153 269.80725098 246.52336121 268.05203247 C 247.95220947 266.79541016 249.43231201 266.21603394 250.82304382 266.16390991 C 252.27192688 266.71234131 253.78123474 267.74740601 255.31597900 269.32705688 C 256.76116943 271.44042969 258.18350220 274.05163574 259.61734009 277.07589722 C 261.01589966 280.55700684 262.38122559 284.40847778 263.71359253 288.64309692 C 265.03994751 293.14587402 266.36474609 297.99877930 267.69238281 302.99880981 C 269.01446533 308.28268433 270.24240112 313.67825317 271.65148926 319.15286255 C 273.09631348 324.69635010 273.78839111 330.38693237 273.86422729 336.31875610 C 274.03921509 342.34155273 274.39605713 348.48098755 270.33187866 364.73718262" stroke-width="2.00000000" fill="rgb(252, 255, 254)" opacity="1.0" stroke="rgb(88, 155, 139)" stroke-opacity="0.8633536" stroke-linecap="round" stroke-linejoin="round"/>
    <path d="M 219.40303040 352.46643066 C 215.82003784 356.35675049 212.18392944 360.05364990 208.46607971 363.35958862 C 204.82829285 366.20156860 201.06645203 368.36468506 197.44296265 369.89801025 C 194.12806702 370.74441528 191.15055847 371.00741577 188.53198242 370.49337769 C 186.33671570 369.10040283 184.74699402 366.99383545 183.74781799 364.17974854 C 183.34756470 360.61053467 183.24192810 356.41015625 183.52311707 351.82110596 C 184.15376282 346.90460205 185.32492065 341.81002808 186.98880005 336.58773804 C 188.91188049 331.22305298 191.36720276 325.88253784 194.35552979 320.70730591 C 197.66897583 315.60757446 200.91304016 310.40167236 204.05053711 305.09802246 C 207.05552673 299.85839844 210.10266113 294.84078979 213.27577209 290.01992798 C 216.47644043 285.60418701 219.65098572 281.44076538 222.70640564 277.68704224 C 225.79908752 274.31399536 228.71882629 271.45358276 231.48429871 269.00799561 C 234.12629700 266.99588013 236.47300720 265.46936035 238.65412903 264.53656006 C 240.66069031 263.99789429 242.34495544 263.95587158 243.77090454 264.40939331 C 244.94885254 265.35507202 245.84907532 266.75765991 246.47993469 268.57254028 C 246.84684753 270.80313110 246.94885254 273.41198730 246.77632141 276.40274048 C 246.47210693 279.69708252 245.96757507 283.23635864 245.14765930 287.03927612 C 244.20567322 291.03570557 243.19332886 295.20901489 242.09132385 299.54910278 C 240.87141418 303.96502686 239.55770874 308.49777222 238.24636841 313.12039185 C 236.95707703 317.81198120 235.65574646 322.59124756 234.17051697 327.43460083 C 232.30468750 332.23126221 230.55342102 337.15386963 219.40303040 352.46643066" stroke-width="2.00000000" fill="rgb(252, 255, 251)" opacity="1.0" stroke="rgb(92, 160, 154)" stroke-opacity="0.904746" stroke-linecap="round" stroke-linejoin="round"/>
    <path d="M 234.11302185 263.97351074 C 231.08586121 268.06976318 227.97145081 272.24548340 224.83850098 276.37432861 C 221.73591614 280.46386719 218.61451721 284.57690430 215.49858093 288.65972900 C 212.47969055 292.78552246 209.33248901 296.84423828 206.17945862 300.85266113 C 203.21467590 304.93066406 200.00421143 308.77551270 196.27412415 312.08602905 C 191.76119995 314.95300293 186.89076233 317.59082031 181.69012451 319.91107178 C 176.24014282 321.88400269 170.78092957 323.51461792 165.23971558 324.66165161 C 159.84341431 325.38665771 154.74761963 325.67221069 150.11927795 325.67703247 C 145.95965576 325.46704102 142.47889709 324.84979248 139.81399536 323.60565186 C 138.04969788 321.55221558 137.30130005 319.07434082 137.41578674 316.11495972 C 138.29893494 312.81115723 139.91227722 309.23620605 142.14447021 305.44012451 C 144.83387756 301.55270386 147.99621582 297.80178833 151.70755005 294.09957886 C 155.70602417 290.46997070 160.00370789 287.07550049 164.57687378 283.89508057 C 169.27705383 280.96197510 174.29673767 278.49432373 179.34803772 276.26916504 C 184.35499573 273.89834595 189.13467407 271.42086792 193.71554565 268.89553833 C 198.06124878 266.29055786 202.21948242 263.62680054 206.13943481 261.10479736 C 209.93850708 258.80032349 213.63687134 256.64358521 217.19728088 254.81632996 C 220.70513916 253.20283508 224.10604858 251.82473755 227.45152283 250.57215881 C 230.69282532 249.39085388 233.81617737 248.34460449 236.89421082 247.31494141 C 239.96008301 246.42723083 242.94087219 245.60569763 246.03724670 244.72459412 C 248.98181152 243.92985535 251.96716309 243.13558960 234.11302185 263.97351074" stroke-width="2.00000000" fill="rgb(253, 253, 255)" opacity="1.0" stroke="rgb(81, 154, 144)" stroke-opacity="0.8094866" stroke-linecap="round" stroke-linejoin="round"/>
    <path d="M 256.90634155 265.23904419 C 251.45829773 265.65615845 245.97627258 266.04760742 240.55427551 266.52120972 C 235.09910583 266.95629883 229.56987000 267.37857056 224.01979065 267.83087158 C 218.50149536 268.41918945 212.86712646 269.09719849 207.23284912 269.72723389 C 201.54357910 270.50976562 195.79704285 271.44085693 189.95806885 272.44122314 C 184.20829773 273.55728149 178.31988525 274.46371460 172.31930542 274.75851440 C 166.23599243 274.74844360 160.16412354 274.57019043 154.13670349 273.92062378 C 148.26887512 273.09692383 142.87506104 271.84741211 137.76924133 270.13619995 C 133.11907959 268.23489380 129.06675720 266.16650391 125.73589325 263.87979126 C 123.03616333 261.47500610 121.33142853 258.79348755 120.48229980 255.86807251 C 120.19205475 253.01397705 120.73938751 250.16279602 122.27198792 247.48344421 C 124.89292908 245.09918213 128.36938477 242.89634705 132.52551270 241.01869202 C 137.25833130 239.09027100 142.47343445 237.43801880 148.02493286 236.26652527 C 153.91314697 235.47740173 159.99487305 235.12519836 166.23544312 235.09690857 C 172.53265381 235.22250366 178.79763794 235.41571045 185.07379150 235.48547363 C 191.21623230 235.59463501 197.23402405 235.87675476 203.18493652 236.41621399 C 208.87065125 237.16560364 214.47697449 238.01541138 219.92829895 239.11495972 C 225.23274231 240.20918274 230.42712402 241.46823120 235.47927856 242.81306458 C 240.43904114 244.20271301 245.32456970 245.64434814 250.17301941 247.15509033 C 254.92713928 248.62042236 259.64721680 250.13949585 264.40301514 251.71130371 C 269.08489990 253.24192810 273.80786133 254.74841309 256.90634155 265.23904419" stroke-width="2.00000000" fill="rgb(251, 255, 254)" opacity="1.0" stroke="rgb(57, 137, 128)" stroke-opacity="0.6554912" stroke-linecap="round" stroke-linejoin="round"/>
    <path d="M 269.46249390 258.87451172 C 266.32174683 258.15414429 263.10568237 257.30404663 259.87582397 256.50085449 C 256.60736084 255.71368408 253.34738159 254.85749817 249.96183777 253.88407898 C 246.48609924 252.90211487 242.89549255 251.82440186 239.15261841 250.64225769 C 235.23727417 249.35055542 231.10714722 247.97666931 226.81896973 246.51336670 C 222.24639893 244.95619202 217.48748779 243.39648438 212.50689697 241.74273682 C 207.27886963 240.11064148 201.92079163 238.53677368 196.33059692 237.04508972 C 190.65550232 235.63082886 184.87583923 234.39910889 179.18193054 232.83850098 C 173.71813965 230.78713989 168.39945984 228.27804565 163.44967651 225.27058411 C 158.72029114 221.95887756 154.34938049 218.37031555 150.34426880 214.58316040 C 146.68464661 210.79034424 143.53114319 206.97767639 141.06820679 203.04797363 C 139.20291138 199.14012146 138.08772278 195.44218445 137.65861511 192.06346130 C 137.84666443 189.01440430 138.94938660 186.53739929 141.06539917 184.72343445 C 143.90171814 183.53500366 147.59613037 183.14489746 151.92105103 183.07342529 C 156.73576355 183.06178284 161.83061218 183.39190674 167.19137573 184.38967896 C 172.60725403 185.72630310 178.04739380 187.71064758 183.46163940 190.28842163 C 188.83493042 193.18316650 194.14624023 196.40649414 199.63020325 199.47821045 C 205.18392944 202.47000122 210.66654968 205.44787598 216.29559326 208.31755066 C 221.78691101 211.26367188 227.28036499 214.14222717 232.73838806 216.99713135 C 238.16236877 219.88034058 243.54708862 222.69271851 248.91598511 225.56352234 C 254.25842285 228.40052795 259.63491821 231.20298767 269.46249390 258.87451172" stroke-width="2.00000000" fill="rgb(253, 253, 255)" opacity="1.0" stroke="rgb(85, 156, 147)" stroke-opacity="0.79377943" stroke-linecap="round" stroke-linejoin="round"/>
    <path d="M 261.07540894 240.35652161 C 259.20819092 241.12710571 257.43450928 241.94760132 255.64730835 242.65788269 C 253.81849670 243.38011169 251.96243286 244.02905273 250.18223572 244.47947693 C 248.27365112 244.79763794 246.32934570 244.95031738 244.35986328 244.75686646 C 242.32980347 244.25706482 240.22673035 243.43489075 237.98095703 242.31236267 C 235.71269226 240.73451233 233.30076599 238.70063782 230.73426819 236.38351440 C 228.09417725 233.64414978 225.33993530 230.51780701 222.44557190 226.99081421 C 219.38931274 223.19248962 216.28771973 219.08918762 213.06776428 214.73693848 C 209.65138245 210.21520996 206.22697449 205.49101257 202.66810608 200.77249146 C 199.09938049 195.97894287 195.63804626 190.96247864 192.55886841 185.97889709 C 189.72100830 180.78108215 187.50672913 175.55990601 185.65322876 170.31317139 C 184.27578735 165.20208740 183.49134827 160.22210693 183.12844849 155.40922546 C 183.05390930 150.94696045 183.35330200 146.97500610 183.93162537 143.56484985 C 184.88859558 140.74128723 186.42344666 138.77841187 188.59104919 137.57463074 C 191.29289246 137.18298340 194.44886780 137.50820923 197.85424805 138.52250671 C 201.64485168 140.25926208 205.48603821 142.68014526 209.36183167 145.64155579 C 213.10585022 149.17947388 216.62896729 153.19180298 220.08546448 157.54510498 C 223.43313599 162.18898010 226.34999084 167.05603027 228.96679688 172.25965881 C 231.56018066 177.64529419 234.09864807 182.99101257 236.00605774 188.63250732 C 237.47633362 194.57751465 239.19192505 200.45402527 241.15583801 206.18434143 C 243.10757446 211.95373535 245.04896545 217.81353760 261.07540894 240.35652161" stroke-width="2.00000000" fill="rgb(251, 255, 252)" opacity="1.0" stroke="rgb(5, 102, 79)" stroke-opacity="0.47332078" stroke-linecap="round" stroke-linejoin="round"/>
    <path d="M 220.12205505 302.33139038 C 217.22064209 300.01806641 214.36840820 297.51895142 211.63204956 294.90258789 C 209.23722839 291.97015381 206.96464539 288.78854370 204.91624451 285.45141602 C 203.04006958 281.88418579 201.23016357 278.29016113 199.69218445 274.50350952 C 198.35707092 270.69766235 197.41069031 266.70986938 196.71684265 262.80511475 C 196.26757812 258.72525024 196.08866882 254.73789978 196.18673706 250.68212891 C 196.61672974 246.67999268 197.42326355 242.67791748 198.41934204 238.76368713 C 199.83106995 234.80755615 201.46632385 231.03855896 203.35554504 227.21932983 C 205.40550232 223.55467224 207.74345398 220.07507324 210.40730286 216.77729797 C 213.25924683 213.53454590 216.22280884 210.57038879 219.44506836 207.83561707 C 222.86720276 205.34179688 226.43701172 203.17065430 230.16258240 201.30973816 C 233.97326660 199.60963440 237.92822266 198.22607422 241.86790466 197.16609192 C 245.99778748 196.41868591 249.98686218 195.91833496 254.09681702 195.67510986 C 258.15182495 195.66226196 262.06738281 196.04077148 265.97943115 196.68702698 C 269.81472778 197.53530884 273.54489136 198.70918274 277.18566895 200.26716614 C 280.75390625 201.93472290 284.22564697 203.76849365 287.58758545 205.87409973 C 290.78939819 208.21792603 293.83172607 210.70014954 296.70007324 213.37680054 C 299.33798218 216.13410950 301.71102905 219.14289856 303.80761719 222.37098694 C 305.74011230 225.70497131 307.44097900 229.21690369 308.96466064 232.81239319 C 310.27233887 236.52278137 311.32403564 240.29370117 312.12661743 244.18588257 C 312.68234253 248.16456604 313.02029419 252.14433289 313.14169312 256.14141846 C 313.02185059 260.15896606 312.54483032 264.17962646 311.76715088 268.13436890 C 310.76776123 272.09307861 309.38613892 275.95532227 307.85049438 279.72827148 C 306.07107544 283.37005615 303.92080688 286.95034790 301.56600952 290.24685669 C 298.86898804 293.38775635 296.00421143 296.32357788 292.94766235 299.16500854 C 289.80963135 301.85028076 286.47134399 304.27139282 283.00701904 306.38711548 C 279.33026123 308.21539307 275.62719727 309.80761719 271.88134766 311.04516602 C 268.06066895 311.93493652 264.21234131 312.70938110 260.40859985 313.20187378 C 256.54321289 313.49145508 252.80572510 313.44100952 249.03549194 313.16375732 C 245.21493530 312.61349487 241.47357178 311.82849121 237.68432617 310.77825928 C 233.90162659 309.70614624 230.08239746 308.68908691 220.12205505 302.33139038" stroke-width="1.46598029" fill="rgb(251, 196, 32)" opacity="1.0" stroke="rgb(233, 211, 134)" stroke-opacity="1.0" stroke-linecap="round" stroke-linejoin="round"/>
    <path d="M 367.27590942 383.08441162 C 365.42010498 386.07281494 363.60415649 389.12783813 361.85903931 392.19024658 C 359.97702026 395.19235229 358.18554688 398.25936890 356.31286621 401.20220947 C 354.31958008 404.21054077 352.35000610 407.14468384 350.28637695 410.07015991 C 348.00585938 412.94018555 345.73590088 415.72256470 343.34829712 418.52804565 C 340.85263062 421.26852417 338.25576782 423.95184326 335.39077759 426.42926025 C 332.32211304 428.89517212 329.18225098 431.14266968 325.86410522 433.35165405 C 322.33950806 435.42291260 318.67169189 437.32467651 314.89926147 439.13980103 C 311.01156616 440.80789185 306.92462158 442.22125244 302.75982666 443.39028931 C 298.52783203 444.42004395 294.24020386 445.32592773 290.00552368 446.02902222 C 285.86224365 446.60003662 281.79931641 447.06997681 278.00585938 447.44741821 C 274.40533447 447.69702148 271.16287231 447.84487915 268.27886963 447.94412231 C 265.86349487 447.83087158 263.92715454 447.34426880 262.60168457 446.39080811 C 261.76864624 444.87719727 261.44100952 442.83404541 261.53091431 440.46664429 C 261.99929810 437.74743652 262.67288208 434.67474365 263.64898682 431.42016602 C 264.72424316 427.98693848 265.97180176 424.44250488 267.43075562 420.90036011 C 268.98986816 417.32192993 270.79660034 413.82839966 272.84811401 410.47650146 C 274.99597168 407.22149658 277.29281616 404.09545898 279.71997070 401.02993774 C 282.24200439 398.22875977 284.87680054 395.51116943 287.58074951 392.87506104 C 290.27603149 390.32611084 293.05017090 387.94580078 296.02349854 385.79174805 C 298.95208740 383.67385864 301.97106934 381.67407227 304.89874268 379.55923462 C 307.82699585 377.35910034 310.80947876 375.37069702 313.99948120 373.67523193 C 317.44229126 372.37274170 321.06573486 371.23364258 324.74758911 369.89526367 C 328.52484131 368.53060913 332.37881470 367.32614136 336.30200195 366.19839478 C 340.21084595 364.93298340 344.08267212 363.77206421 347.94052124 362.76013184 C 351.74111938 361.79953003 355.35308838 361.03442383 358.93243408 360.43872070 C 362.26257324 359.85641479 365.43692017 359.48880005 368.38641357 359.15695190 C 371.05529785 358.92568970 373.49191284 358.76379395 375.60314941 358.61029053 C 377.49200439 358.51119995 379.10736084 358.44137573 380.42953491 358.38940430 C 381.52383423 358.25256348 382.46075439 358.08050537 383.17834473 357.76852417 C 383.75497437 357.47821045 384.28247070 357.10577393 367.27590942 383.08441162" stroke-width="1.21464431" fill="rgb(148, 206, 80)" opacity="1.0" stroke="rgb(104, 166, 0)" stroke-opacity="0.37432358" stroke-linecap="round" stroke-linejoin="round"/>
  </g>
</svg>
