<?xml version="1.0" ?>
<svg xmlns="http://www.w3.org/2000/svg" version="1.1" width="512" height="512" viewBox="0 0 512 512">
  <defs/>
  <g>
    <path d="M 636.62377930 485.21356201 C 614.22454834 495.61428833 591.94213867 506.02993774 569.56530762 516.40270996 C 547.08233643 526.64398193 524.48388672 536.61083984 501.58541870 546.27044678 C 478.38562012 555.50793457 454.83276367 564.11376953 430.81433105 572.00811768 C 406.30667114 579.16192627 381.38061523 585.27166748 355.91439819 590.40081787 C 330.05062866 594.40594482 303.89959717 597.13177490 277.34310913 598.61810303 C 250.82235718 598.75445557 224.22186279 597.48089600 197.79504395 594.76177979 C 171.63768005 590.59136963 146.05586243 584.78802490 121.10892487 577.50463867 C 97.01765442 568.49847412 73.99085999 557.79010010 52.22284698 545.34442139 C 31.86959267 531.03417969 13.16305637 514.80920410 -3.80225897 496.65872192 C -19.06302834 476.56939697 -32.58268356 454.87161255 -44.60598373 431.66964722 C -55.12397385 407.10699463 -64.38804626 381.54620361 -72.32815552 355.03192139 C -79.06471252 327.98831177 -84.68906403 300.43185425 -89.23457336 272.67489624 C -92.57359314 245.00483704 -94.90727997 217.46469116 -96.14854431 190.41749573 C -96.20273590 164.04260254 -95.09771729 138.53018188 -92.77647400 114.05350494 C -89.21418762 90.78127289 -84.18049622 68.88289642 -77.79212189 48.48063660 C -69.91056824 29.60907745 -60.39019775 12.45037556 -49.25405884 -3.08389878 C -36.55721664 -16.88169289 -22.08218193 -28.96256065 -6.01593113 -39.39087677 C 11.60021782 -48.18960571 30.81926918 -55.55743408 51.62285233 -61.38259506 C 73.75757599 -65.97675323 97.27520752 -69.31974030 122.00117493 -71.53475189 C 147.75996399 -72.67875671 174.37277222 -72.94282532 201.64335632 -72.32726288 C 229.41619873 -70.91353607 257.33801270 -68.71051788 285.34976196 -65.74302673 C 313.22650146 -61.95183563 340.67492676 -57.34468842 367.53067017 -51.74343872 C 393.51492310 -45.14979553 418.45471191 -37.33126068 442.09143066 -28.14750671 C 464.21279907 -17.52230644 484.70523071 -5.20634937 503.22531128 9.06811142 C 519.71075439 25.32091713 534.33428955 43.44273376 547.24981689 63.20457077 C 558.53137207 84.37771606 568.39343262 106.87774658 577.02758789 130.56072998 C 584.54370117 155.22686768 591.09576416 180.71983337 596.88568115 206.96424866 C 602.01245117 233.76962280 606.60876465 260.93670654 610.87237549 288.56854248 C 614.78112793 316.37667847 618.57086182 344.27084351 622.25518799 372.25112915 C 625.84588623 400.31457520 629.50561523 428.29882812 636.62377930 485.21356201" stroke-width="2.00000000" fill="rgb(210, 242, 254)" opacity="1.0" stroke="rgb(140, 228, 255)" stroke-opacity="0.35014865" stroke-linecap="round" stroke-linejoin="round"/>
    <path d="M 248.89645386 483.63064575 C 248.52761841 479.13259888 248.35000610 474.72778320 248.15570068 470.07894897 C 248.01379395 465.52322388 247.86506653 460.77801514 247.70639038 455.97601318 C 247.60025024 451.01419067 247.40551758 445.98208618 247.29106140 440.79574585 C 247.07711792 435.50262451 246.88400269 430.12448120 246.74850464 424.66735840 C 246.62377930 419.17193604 246.51467896 413.68206787 246.50860596 408.17959595 C 246.38566589 402.87466431 246.32466125 397.61520386 246.30256653 392.53619385 C 246.38360596 387.79214478 246.64399719 383.31652832 246.98759460 379.18408203 C 247.54324341 375.57992554 248.25900269 372.32763672 248.98413086 369.67184448 C 249.93925476 367.56967163 250.89663696 365.99066162 251.87677002 365.08773804 C 253.00268555 364.76129150 254.12321472 365.03668213 255.12588501 365.94741821 C 256.25549316 367.46936035 257.21609497 369.48690796 258.14456177 372.07220459 C 258.91516113 375.07382202 259.56301880 378.64599609 259.93853760 382.43417358 C 260.16003418 386.63717651 260.15966797 391.16784668 260.09298706 395.87112427 C 260.05273438 400.70666504 260.04562378 405.76864624 260.13940430 410.80300903 C 260.17092896 415.89791870 260.23611450 420.95443726 260.34344482 425.97698975 C 260.47741699 430.88568115 260.74749756 435.72427368 261.06759644 440.44543457 C 261.33419800 445.11022949 261.48202515 449.56512451 261.50985718 454.06561279 C 261.50177002 458.41812134 261.55718994 462.74420166 261.63705444 466.97375488 C 261.75457764 471.24911499 261.75399780 475.40136719 261.72024536 479.67584229 C 261.48529053 483.92019653 261.13375854 488.23983765 248.89645386 483.63064575" stroke-width="1.08526218" fill="rgb(140, 194, 77)" opacity="1.0" stroke="rgb(164, 208, 152)" stroke-opacity="0.7693919" stroke-linecap="round" stroke-linejoin="round"/>
    <path d="M 278.15859985 231.75299072 C 275.57650757 234.02781677 272.92712402 236.25775146 270.28686523 238.42033386 C 267.65579224 240.55296326 265.05279541 242.47248840 262.46023560 244.26174927 C 259.94641113 245.65263367 257.52230835 246.74702454 255.08421326 247.34613037 C 252.86032104 247.55969238 250.72448730 247.15362549 248.65830994 246.23829651 C 246.82508850 244.66795349 245.16334534 242.53930664 243.57746887 239.79322815 C 242.21943665 236.58015442 241.07290649 232.71903992 240.07054138 228.41145325 C 239.17376709 223.70632935 238.39070129 218.54833984 237.82113647 213.08065796 C 237.27558899 207.27262878 236.75500488 201.33628845 236.32318115 195.06837463 C 235.96141052 188.82780457 235.65991211 182.41189575 235.29072571 175.92498779 C 235.00312805 169.57653809 234.92817688 163.23027039 235.29573059 157.08776855 C 236.07585144 151.10353088 237.23782349 145.37303162 238.72698975 140.03408813 C 240.53791809 135.14526367 242.67115784 130.69490051 244.97584534 126.85241699 C 247.17544556 123.65158081 249.57550049 121.24730682 252.15760803 119.77194977 C 254.89215088 119.42361450 257.48400879 119.95765686 260.08523560 121.52565002 C 262.58007812 123.86868286 264.92202759 126.98412323 267.13784790 130.72822571 C 269.16699219 135.06605530 270.73818970 139.93368530 272.08850098 145.15875244 C 273.23135376 150.64743042 274.01937866 156.40048218 274.30209351 162.40737915 C 274.46636963 168.51890564 274.19277954 174.65145874 273.76461792 180.91012573 C 273.37591553 187.24040222 273.15783691 193.56645203 272.87072754 199.99900818 C 272.55661011 206.34042358 272.27243042 212.72962952 278.15859985 231.75299072" stroke-width="2.00000000" fill="rgb(254, 255, 253)" opacity="1.0" stroke="rgb(68, 144, 133)" stroke-opacity="0.7789253" stroke-linecap="round" stroke-linejoin="round"/>
    <path d="M 305.35186768 202.79437256 C 302.77047729 208.65048218 300.12509155 214.32086182 297.28427124 219.92649841 C 294.49368286 225.26863098 291.70874023 230.37345886 288.83374023 235.26814270 C 285.91787720 239.69572449 283.07235718 243.73730469 280.14764404 247.34858704 C 277.24441528 250.31996155 274.38909912 252.75599670 271.73464966 254.62721252 C 269.18002319 255.86465454 266.75476074 256.46691895 264.64099121 256.39343262 C 262.78317261 255.83303833 261.19705200 254.56414795 260.00271606 252.79510498 C 259.11505127 250.48124695 258.64749146 247.69439697 258.35415649 244.40675354 C 258.57644653 240.77720642 259.03411865 236.70857239 259.92749023 232.33193970 C 260.98629761 227.65287781 262.35055542 222.79429626 264.00689697 217.68113708 C 265.81433105 212.38046265 267.62216187 206.96919250 269.62301636 201.32890320 C 271.49645996 195.54899597 273.34954834 189.69648743 275.46572876 183.95314026 C 278.05899048 178.31811523 280.83175659 172.76232910 283.60427856 167.24972534 C 286.58551025 162.01425171 290.03283691 157.18373108 293.73840332 152.77377319 C 297.55853271 148.74851990 301.51992798 145.25817871 305.41357422 142.25955200 C 309.22814941 139.76426697 312.85516357 138.05987549 316.19189453 137.18923950 C 319.14175415 137.12109375 321.59704590 138.16313171 323.38363647 140.23812866 C 324.72125244 143.06439209 325.44512939 146.65437317 325.67333984 150.95420837 C 325.60369873 155.74369812 325.11212158 160.77993774 324.16613770 166.16735840 C 322.80239868 171.57550049 320.84539795 177.02485657 318.24151611 182.29919434 C 315.52413940 187.61720276 312.72555542 192.86718750 305.35186768 202.79437256" stroke-width="2.00000000" fill="rgb(250, 255, 255)" opacity="1.0" stroke="rgb(73, 146, 136)" stroke-opacity="0.77725464" stroke-linecap="round" stroke-linejoin="round"/>
    <path d="M 363.26791382 209.64471436 C 359.61016846 213.59233093 355.74114990 217.41976929 351.69091797 221.02114868 C 347.42187500 224.10707092 342.85458374 226.94970703 337.94842529 229.44169617 C 332.98983765 231.81677246 328.01379395 234.29336548 323.08389282 236.96472168 C 318.03155518 239.45407104 313.00051880 241.68980408 307.92565918 243.76751709 C 302.82427979 245.59558105 297.89340210 247.23892212 293.12326050 248.54365540 C 288.53802490 249.69944763 284.19540405 250.51683044 280.19546509 251.09771729 C 276.52511597 251.34356689 273.30712891 251.40798950 270.56518555 251.08033752 C 268.25912476 250.53285217 266.52780151 249.58424377 265.28732300 248.50798035 C 264.68908691 247.16873169 264.69372559 245.57736206 265.20108032 243.80320740 C 266.33276367 241.82232666 267.98281860 239.64897156 270.18753052 237.35031128 C 272.76727295 234.91668701 275.75045776 232.27566528 279.09661865 229.49713135 C 282.62536621 226.52966309 286.43902588 223.53407288 290.36889648 220.32273865 C 294.24060059 216.91960144 298.19696045 213.32133484 301.93032837 209.44538879 C 305.33575439 205.24957275 309.03048706 201.30540466 313.28121948 197.94956970 C 317.99536133 194.98719788 322.97775269 192.24139404 327.85494995 189.62498474 C 332.96398926 187.46003723 337.94128418 185.78822327 343.02218628 184.62832642 C 347.81524658 183.70135498 352.41094971 183.30920410 356.57281494 183.19825745 C 360.40945435 183.18028259 363.61746216 183.36041260 366.34481812 183.95008850 C 368.42535400 185.00959778 369.80618286 186.81944275 370.63235474 189.24421692 C 371.26705933 192.41397095 372.09545898 195.75999451 363.26791382 209.64471436" stroke-width="2.00000000" fill="rgb(253, 255, 255)" opacity="1.0" stroke="rgb(63, 143, 138)" stroke-opacity="0.7692181" stroke-linecap="round" stroke-linejoin="round"/>
    <path d="M 382.50552368 263.75961304 C 377.63876343 266.75451660 372.60879517 269.23596191 367.35086060 271.21304321 C 361.87265015 272.69601440 356.19131470 273.78656006 350.38638306 274.33401489 C 344.45425415 274.48217773 338.43365479 274.43490601 332.33056641 274.44137573 C 326.14883423 274.56195068 320.09463501 274.91271973 314.03863525 275.17810059 C 307.91598511 275.41641235 302.05914307 275.55358887 296.29632568 275.66964722 C 290.69885254 275.75003052 285.35336304 275.59851074 280.30535889 275.36184692 C 275.54177856 274.95364380 271.25250244 274.25457764 267.36657715 273.39624023 C 264.07586670 272.38778687 261.28182983 271.21893311 259.06768799 269.81442261 C 257.55270386 268.24029541 256.65048218 266.53317261 256.37570190 264.71969604 C 256.80392456 262.78021240 257.87139893 260.77935791 259.59390259 258.79507446 C 261.92547607 256.82113647 264.79077148 254.89103699 268.24163818 253.01504517 C 272.15628052 251.28041077 276.40823364 249.66821289 281.04830933 247.99305725 C 285.95147705 246.44029236 291.17422485 245.07458496 296.44348145 243.75018311 C 301.83026123 242.41458130 307.34323120 241.02273560 312.79577637 239.60552979 C 318.19500732 238.19400024 323.67163086 236.74765015 329.04455566 235.59358215 C 334.52069092 235.26202393 340.07305908 235.12515259 345.51757812 235.16271973 C 350.83053589 235.25651550 355.90887451 235.71781921 360.80505371 236.47352600 C 365.41775513 237.51159668 369.74478149 238.71662903 373.80227661 240.26516724 C 377.66522217 242.02210999 381.07736206 244.08769226 384.17123413 246.87318420 C 386.93325806 250.29199219 389.67932129 253.97952271 382.50552368 263.75961304" stroke-width="2.00000000" fill="rgb(251, 255, 255)" opacity="1.0" stroke="rgb(38, 126, 116)" stroke-opacity="0.60811263" stroke-linecap="round" stroke-linejoin="round"/>
    <path d="M 365.36328125 325.31289673 C 360.34686279 325.53570557 355.28329468 325.58801270 350.26608276 325.34439087 C 345.29440308 324.77294922 340.33523560 323.88876343 335.40280151 322.63482666 C 330.59823608 321.00445557 325.78768921 318.92849731 321.16534424 316.37924194 C 316.49127197 313.56243896 311.64120483 310.77081299 306.67077637 308.12814331 C 301.72799683 305.33859253 296.83352661 302.45486450 292.06594849 299.45379639 C 287.44973755 296.35464478 283.00637817 293.29708862 278.80807495 290.28857422 C 274.94540405 287.17614746 271.47006226 284.10134888 268.32247925 281.11703491 C 265.67297363 278.21630859 263.56323242 275.48358154 261.87429810 272.92507935 C 260.79486084 270.54208374 260.25540161 268.44497681 260.25430298 266.65075684 C 260.82379150 265.10461426 261.93847656 263.93701172 263.61199951 263.19287109 C 265.77182007 262.67773438 268.43649292 262.54998779 271.53973389 262.81771851 C 275.00131226 263.34967041 278.83834839 264.16845703 283.08590698 265.22412109 C 287.50534058 266.50057983 292.13214111 267.82998657 297.07583618 269.24166870 C 302.08026123 270.67834473 307.23492432 271.94638062 312.35607910 273.13772583 C 317.63262939 274.11187744 322.72067261 274.85485840 327.72381592 275.73034668 C 332.41162109 277.34957886 336.76211548 279.53927612 341.08978271 281.79742432 C 345.32345581 284.22915649 349.38360596 286.86434937 353.18209839 289.77117920 C 356.76779175 292.85589600 360.13583374 296.23312378 363.15710449 299.81848145 C 365.99996948 303.50189209 368.41238403 307.59646606 370.36477661 312.00396729 C 372.06884766 316.64001465 373.61206055 321.52929688 365.36328125 325.31289673" stroke-width="2.00000000" fill="rgb(252, 255, 255)" opacity="1.0" stroke="rgb(40, 130, 115)" stroke-opacity="0.599394" stroke-linecap="round" stroke-linejoin="round"/>
    <path d="M 325.73751831 358.13439941 C 325.15884399 361.11819458 324.64025879 363.90737915 323.84838867 366.42892456 C 322.71569824 368.49307251 321.19015503 369.82589722 319.09170532 370.59970093 C 316.70053101 370.77941895 313.91073608 370.23144531 310.78961182 369.02764893 C 307.44628906 367.06799316 303.88122559 364.67126465 300.21926880 361.75250244 C 296.47949219 358.31546021 292.68338013 354.45217896 289.06707764 350.12152100 C 285.71322632 345.33227539 282.52099609 340.24618530 279.59475708 334.80535889 C 276.67065430 329.24960327 273.71408081 323.69625854 270.68908691 318.19104004 C 267.87292480 312.74911499 265.19299316 307.32696533 262.88943481 301.88095093 C 260.86193848 296.61331177 259.01046753 291.61373901 257.37619019 286.83798218 C 256.15460205 282.32904053 255.25546265 278.13220215 254.64491272 274.36703491 C 254.39549255 270.90606689 254.57260132 268.01318359 254.95620728 265.48284912 C 255.78128052 263.48980713 256.83944702 262.08807373 258.22283936 261.14175415 C 259.91458130 260.81195068 261.80691528 261.05075073 263.92132568 261.81893921 C 266.26904297 263.12008667 268.81845093 264.84539795 271.45947266 267.16687012 C 274.16589355 269.88745117 277.11645508 272.88674927 280.15835571 276.19552612 C 283.15405273 279.90054321 286.25857544 283.76336670 289.47616577 287.73867798 C 292.85543823 291.80404663 296.22705078 296.02658081 299.84909058 300.16790771 C 303.58691406 304.28869629 307.21533203 308.66812134 310.59741211 313.31945801 C 313.74844360 318.35620117 316.65472412 323.73580933 319.35568237 329.35372925 C 321.93179321 335.29629517 324.68695068 341.18194580 325.73751831 358.13439941" stroke-width="2.00000000" fill="rgb(251, 253, 255)" opacity="1.0" stroke="rgb(18, 109, 89)" stroke-opacity="0.5241469" stroke-linecap="round" stroke-linejoin="round"/>
    <path d="M 271.53048706 360.21685791 C 270.34539795 364.36260986 269.03219604 368.36776733 267.50128174 372.13012695 C 265.77688599 375.70779419 263.82278442 378.98278809 261.72552490 381.69329834 C 259.61605835 383.76953125 257.20056152 385.13955688 254.48001099 385.52893066 C 251.71255493 385.10232544 249.02244568 383.77172852 246.46891785 381.59893799 C 244.15380859 378.66778564 242.18727112 374.98889160 240.38536072 370.66662598 C 238.66471863 365.88995361 237.15902710 360.77142334 236.10601807 355.31103516 C 235.38546753 349.60073853 235.04562378 343.71014404 235.13630676 337.64144897 C 235.43789673 331.43405151 235.68449402 325.29147339 235.79144287 319.11099243 C 236.04890442 313.02655029 236.32710266 307.06195068 236.61862183 301.34838867 C 237.13662720 295.86688232 237.79521179 290.66220093 238.56484985 285.75640869 C 239.45877075 281.37411499 240.54536438 277.35809326 241.76277161 273.74829102 C 243.09217834 270.75405884 244.55371094 268.35330200 246.15750122 266.42098999 C 247.77619934 265.12161255 249.51739502 264.46704102 251.15957642 264.40832520 C 252.84544373 265.00851440 254.53990173 266.16021729 256.11819458 267.97406006 C 257.65673828 270.27578735 259.13803101 273.15881348 260.56594849 276.46762085 C 261.93386841 280.19873047 263.19451904 284.30822754 264.38723755 288.69692993 C 265.60638428 293.34054565 266.73281860 298.24221802 267.89666748 303.28710938 C 269.00817871 308.39514160 270.20870972 313.55828857 271.48187256 318.71014404 C 272.83026123 323.84112549 273.60177612 329.12615967 273.88699341 334.43716431 C 274.05569458 339.99261475 274.41949463 345.55926514 271.53048706 360.21685791" stroke-width="2.00000000" fill="rgb(253, 255, 251)" opacity="1.0" stroke="rgb(87, 156, 141)" stroke-opacity="0.87657994" stroke-linecap="round" stroke-linejoin="round"/>
    <path d="M 220.06459045 351.79006958 C 216.46630859 355.61688232 212.90850830 359.32827759 209.28659058 362.72961426 C 205.57864380 365.68994141 201.73974609 368.04324341 198.06588745 369.67327881 C 194.60818481 370.71154785 191.44679260 371.01724243 188.65402222 370.56253052 C 186.39237976 369.17337036 184.83966064 366.99575806 183.78590393 364.00082397 C 183.26293945 360.27172852 183.17115784 355.95394897 183.53808594 351.20965576 C 184.20298767 346.14651489 185.47477722 340.88476562 187.16809082 335.61538696 C 189.23391724 330.22427368 191.86888123 324.95431519 194.87803650 319.92657471 C 198.16133118 314.79776001 201.38505554 309.61044312 204.46032715 304.44799805 C 207.44178772 299.24609375 210.56629944 294.30651855 213.60313416 289.58056641 C 216.77751160 285.09350586 219.88569641 280.96075439 223.02787781 277.14160156 C 225.99063110 273.72674561 229.03352356 270.64791870 231.85813904 268.12570190 C 234.60610962 265.96441650 237.00929260 264.29830933 239.41319275 263.17172241 C 241.47631836 262.56777954 243.35987854 262.43698120 244.85903931 262.89831543 C 246.11909485 263.87109375 247.06680298 265.33566284 247.70652771 267.29681396 C 248.04331970 269.77178955 248.06320190 272.63006592 247.78460693 275.87561035 C 247.27494812 279.51916504 246.54434204 283.41717529 245.56460571 287.50805664 C 244.46919250 291.87414551 243.20820618 296.35400391 241.88511658 300.93322754 C 240.52947998 305.52194214 239.06489563 310.21118164 237.70315552 314.89187622 C 236.52145386 319.55450439 235.20578003 324.21954346 233.60704041 328.85083008 C 231.72129822 333.28021240 229.84223938 337.99908447 220.06459045 351.79006958" stroke-width="2.00000000" fill="rgb(252, 255, 254)" opacity="1.0" stroke="rgb(86, 156, 151)" stroke-opacity="0.92483133" stroke-linecap="round" stroke-linejoin="round"/>
    <path d="M 233.55998230 264.24765015 C 230.68946838 268.30163574 227.68943787 272.23608398 224.80984497 276.20159912 C 221.87051392 280.22671509 218.83992004 284.14572144 215.84034729 288.15496826 C 212.83052063 292.12225342 209.76040649 296.12109375 206.75134277 300.24401855 C 203.67169189 304.24365234 200.49829102 308.19812012 196.76057434 311.72955322 C 192.31401062 314.61813354 187.35421753 317.28778076 182.18307495 319.71582031 C 176.74972534 321.75546265 171.16467285 323.39010620 165.64620972 324.55496216 C 160.17944336 325.37194824 155.04130554 325.77172852 150.29391479 325.65139771 C 146.02000427 325.46719360 142.48721313 324.86041260 139.84786987 323.48822021 C 138.04527283 321.53869629 137.26101685 319.01501465 137.42127991 315.99053955 C 138.39053345 312.61279297 140.12797546 308.92120361 142.38169861 305.05239868 C 145.11445618 301.13919067 148.48348999 297.34564209 152.26661682 293.52416992 C 156.43513489 289.85635376 160.82324219 286.41513062 165.56649780 283.30633545 C 170.58999634 280.51290894 175.61909485 277.76422119 180.47950745 274.89752197 C 185.22171021 271.97763062 189.81248474 269.15716553 194.28268433 266.43930054 C 198.61621094 263.80862427 202.73907471 261.38824463 206.69845581 259.07888794 C 210.54478455 257.04327393 214.16387939 255.22633362 217.73075867 253.58271790 C 221.06568909 252.18971252 224.43933105 250.96701050 227.52722168 249.90307617 C 230.63032532 249.00399780 233.61933899 248.29029846 236.59182739 247.64236450 C 239.48168945 247.06997681 242.39198303 246.58119202 245.24826050 246.12107849 C 248.07830811 245.71754456 250.98536682 245.17831421 233.55998230 264.24765015" stroke-width="2.00000000" fill="rgb(253, 255, 252)" opacity="1.0" stroke="rgb(77, 148, 140)" stroke-opacity="0.7971128" stroke-linecap="round" stroke-linejoin="round"/>
    <path d="M 255.38053894 266.32714844 C 250.20561218 266.64355469 245.17094421 266.88409424 240.06982422 267.13366699 C 234.91815186 267.43127441 229.79316711 267.72222900 224.59019470 268.08001709 C 219.35527039 268.51223755 213.98262024 269.02905273 208.53280640 269.60543823 C 202.97372437 270.31604004 197.34913635 271.14624023 191.60935974 272.17459106 C 185.73664856 273.30746460 179.79043579 274.33581543 173.76808167 274.83776855 C 167.53588867 274.85287476 161.19447327 274.64367676 154.97570801 274.05145264 C 148.90397644 273.14123535 143.15895081 271.81283569 137.79644775 270.17871094 C 132.90303040 268.20104980 128.71440125 265.93218994 125.21733093 263.40893555 C 122.59948730 260.80709839 120.91154480 257.94168091 120.17381287 254.87493896 C 120.29415894 251.92279053 121.33052063 249.09461975 123.38815308 246.52859497 C 126.39516449 244.15692139 130.21815491 242.02770996 134.71893311 240.10252380 C 139.67147827 238.30172729 145.05404663 236.83198547 150.74128723 235.79679871 C 156.65884399 235.28204346 162.77345276 235.12022400 168.90313721 235.13037109 C 175.09458923 235.32580566 181.23434448 235.46931458 187.25747681 235.56666565 C 193.22532654 235.81594849 198.98661804 236.14001465 204.63722229 236.61857605 C 210.16001892 237.37388611 215.49006653 238.19090271 220.67070007 239.14651489 C 225.74861145 240.26989746 230.71736145 241.52757263 235.57531738 242.80242920 C 240.33808899 244.29281616 245.06163025 245.80747986 249.72521973 247.42533875 C 254.34973145 249.10083008 258.94235229 250.73077393 263.57690430 252.43876648 C 268.18963623 254.10757446 272.67413330 255.85411072 255.38053894 266.32714844" stroke-width="2.00000000" fill="rgb(254, 255, 255)" opacity="1.0" stroke="rgb(1, 101, 87)" stroke-opacity="0.4894747" stroke-linecap="round" stroke-linejoin="round"/>
    <path d="M 267.59042358 256.03024292 C 264.69525146 255.92993164 261.72387695 255.79541016 258.73168945 255.60749817 C 255.74221802 255.44363403 252.74600220 255.13027954 249.63059998 254.76338196 C 246.42448425 254.16021729 243.14503479 253.44044495 239.72914124 252.58673096 C 236.06861877 251.44364929 232.26245117 250.17805481 228.24687195 248.69874573 C 223.93083191 247.03965759 219.28956604 245.24465942 214.50454712 243.37994385 C 209.31781006 241.40190125 203.98516846 239.58059692 198.29917908 237.82063293 C 192.53315735 236.16430664 186.53079224 234.79351807 180.64990234 233.27560425 C 174.85017395 231.29216003 169.41683960 228.75404358 164.18367004 225.77742004 C 159.26313782 222.41357422 154.73127747 218.77430725 150.55969238 214.87544250 C 146.73512268 210.95809937 143.49005127 206.92962646 140.96197510 202.86526489 C 139.03559875 198.87973022 137.86495972 195.05871582 137.55223083 191.54516602 C 137.99780273 188.52291870 139.30915833 186.10778809 141.57896423 184.42883301 C 144.76368713 183.47317505 148.78884888 183.12153625 153.41755676 183.05290222 C 158.40914917 183.15542603 163.76963806 183.73832703 169.28634644 184.87533569 C 174.80543518 186.51875305 180.29797363 188.75073242 185.77221680 191.39828491 C 191.17556763 194.49565125 196.37829590 197.70930481 201.77171326 200.73233032 C 207.16479492 203.68563843 212.46069336 206.56755066 217.74009705 209.35810852 C 222.96368408 212.00643921 228.12908936 214.65710449 233.20646667 217.27883911 C 238.31590271 219.82705688 243.28498840 222.33673096 248.26478577 224.96174622 C 253.26162720 227.44657898 258.23162842 229.92144775 267.59042358 256.03024292" stroke-width="2.00000000" fill="rgb(254, 255, 255)" opacity="1.0" stroke="rgb(88, 157, 148)" stroke-opacity="0.8268654" stroke-linecap="round" stroke-linejoin="round"/>
    <path d="M 260.17016602 235.66458130 C 258.54794312 237.28788757 256.87393188 238.87550354 255.20097351 240.51155090 C 253.51438904 241.98977661 251.84490967 243.38247681 250.04919434 244.64355469 C 248.29190063 245.59861755 246.44227600 246.24456787 244.51599121 246.51893616 C 242.48780823 246.36114502 240.44926453 245.81858826 238.16455078 244.73701477 C 235.93154907 243.18577576 233.55729675 241.17832947 230.99273682 238.66238403 C 228.36100769 235.70251465 225.64433289 232.34771729 222.76658630 228.62350464 C 219.81335449 224.50146484 216.67626953 220.15054321 213.46144104 215.60038757 C 210.11376953 210.92860413 206.57611084 206.09725952 203.00285339 201.29487610 C 199.41571045 196.46427917 195.96002197 191.45970154 192.80386353 186.39830017 C 190.08918762 181.23712158 187.70779419 176.02195740 185.82307434 170.70594788 C 184.38909912 165.57763672 183.50700378 160.54148865 183.16514587 155.68276978 C 183.07429504 151.12974548 183.33340454 147.08154297 183.89910889 143.53703308 C 184.96072388 140.72793579 186.53666687 138.70681763 188.76853943 137.51480103 C 191.62423706 137.16825867 195.04711914 137.64646912 198.67912292 138.83828735 C 202.54328918 140.79963684 206.50575256 143.48861694 210.49772644 146.69876099 C 214.33369446 150.40348816 217.94667053 154.59770203 221.29144287 159.15554810 C 224.48062134 163.90560913 227.33404541 168.91400146 229.88067627 174.10168457 C 232.34867859 179.26876831 234.60876465 184.60340881 236.45202637 190.08729553 C 238.27595520 195.52407837 240.13059998 201.03218079 241.96893311 206.48652649 C 243.83908081 211.92166138 245.58482361 217.41868591 260.17016602 235.66458130" stroke-width="2.00000000" fill="rgb(251, 255, 253)" opacity="1.0" stroke="rgb(0, 99, 77)" stroke-opacity="0.46517426" stroke-linecap="round" stroke-linejoin="round"/>
    <path d="M 219.71302795 302.11782837 C 216.90406799 299.83279419 214.17456055 297.41082764 211.67080688 294.83239746 C 209.26489258 292.01904297 207.09664917 288.92675781 205.07865906 285.73010254 C 203.19467163 282.30786133 201.49545288 278.81347656 199.96850586 275.11111450 C 198.63069153 271.45077515 197.62219238 267.52612305 196.83169556 263.52410889 C 196.31407166 259.56045532 196.11376953 255.53073120 196.17831421 251.43530273 C 196.56613159 247.38436890 197.25769043 243.30532837 198.30249023 239.31091309 C 199.65393066 235.36712646 201.25793457 231.45532227 203.03741455 227.65956116 C 205.09501648 223.92768860 207.47821045 220.39976501 210.08106995 217.03434753 C 212.89210510 213.87936401 215.91989136 210.83473206 219.15379333 208.08573914 C 222.53971863 205.56340027 226.07527161 203.35884094 229.85440063 201.42210388 C 233.72125244 199.78356934 237.69012451 198.35711670 241.71112061 197.20942688 C 245.76748657 196.45343018 249.86585999 195.89671326 254.01437378 195.62925720 C 258.05105591 195.62538147 262.10894775 195.95339966 265.96795654 196.62925720 C 269.85116577 197.57073975 273.60372925 198.73159790 277.25042725 200.22369385 C 280.81900024 201.93196106 284.31530762 203.82069397 287.58911133 205.84538269 C 290.75091553 208.12812805 293.75607300 210.55339050 296.57516479 213.16648865 C 299.18612671 215.94985962 301.52767944 218.93370056 303.67410278 222.08277893 C 305.62802124 225.40757751 307.35275269 228.85375977 308.89077759 232.44934082 C 310.17654419 236.13420105 311.22167969 239.91229248 312.14596558 243.77157593 C 312.71185303 247.71975708 313.02520752 251.73495483 313.18029785 255.70758057 C 313.02471924 259.74578857 312.60028076 263.74545288 311.84445190 267.74664307 C 310.86422729 271.65716553 309.57888794 275.54455566 308.07247925 279.38763428 C 306.28576660 282.99749756 304.21737671 286.55380249 301.79254150 289.89608765 C 299.17160034 293.12780762 296.31631470 296.10192871 293.25695801 298.97637939 C 290.09478760 301.65023804 286.70416260 304.13201904 283.17761230 306.26562500 C 279.53500366 308.13687134 275.75942993 309.70379639 271.88247681 310.99862671 C 268.02746582 311.97799683 264.14270020 312.71563721 260.14672852 313.20217896 C 256.30691528 313.47546387 252.42198181 313.43786621 248.54273987 313.10961914 C 244.75134277 312.54711914 240.93193054 311.74880981 237.15409851 310.67675781 C 233.42707825 309.55349731 229.63815308 308.42507935 219.71302795 302.11782837" stroke-width="1.45843220" fill="rgb(253, 199, 33)" opacity="1.0" stroke="rgb(237, 211, 137)" stroke-opacity="1.0" stroke-linecap="round" stroke-linejoin="round"/>
    <path d="M 367.29031372 383.17123413 C 365.40893555 386.16271973 363.62271118 389.18673706 361.83447266 392.22235107 C 360.00097656 395.23330688 358.15771484 398.18630981 356.29318237 401.25891113 C 354.41156006 404.18862915 352.38681030 407.10037231 350.35247803 409.99642944 C 348.08786011 412.77539062 345.91006470 415.59252930 343.59503174 418.40377808 C 341.10317993 421.02304077 338.52877808 423.62078857 335.73367310 426.12326050 C 332.81655884 428.49108887 329.72595215 430.73101807 326.49118042 433.01293945 C 323.06283569 434.99060059 319.47592163 436.90225220 315.77832031 438.75704956 C 311.90234375 440.42599487 307.89941406 441.91345215 303.77917480 443.17065430 C 299.54476929 444.23846436 295.23495483 445.13952637 290.95532227 445.88244629 C 286.73739624 446.51342773 282.57315063 446.96948242 278.67739868 447.37216187 C 274.96197510 447.65618896 271.53866577 447.83462524 268.61822510 447.94641113 C 266.08673096 447.82406616 263.97277832 447.30245972 262.59045410 446.27294922 C 261.79669189 444.64068604 261.48007202 442.45022583 261.64456177 439.87072754 C 262.15390015 436.92727661 262.98419189 433.71682739 263.97497559 430.31756592 C 265.18917847 426.71224976 266.50732422 423.08990479 268.06161499 419.45452881 C 269.71362305 415.84927368 271.63058472 412.38638306 273.72299194 409.07986450 C 275.89590454 405.89965820 278.25152588 402.88882446 280.67864990 399.92587280 C 283.17004395 397.28274536 285.70211792 394.74316406 288.24325562 392.24969482 C 290.80969238 389.96090698 293.39883423 387.71408081 296.11514282 385.72573853 C 298.85281372 383.75946045 301.61254883 381.84808350 304.38781738 379.93109131 C 307.15136719 377.92105103 309.96664429 375.97235107 312.91778564 374.19937134 C 316.24310303 372.85412598 319.74850464 371.58944702 323.37185669 370.38140869 C 327.23495483 369.03051758 331.12344360 367.73605347 335.17294312 366.50866699 C 339.33789062 365.19238281 343.53009033 363.96237183 347.68273926 362.83319092 C 351.85726929 361.74209595 355.93667603 360.91009521 359.87802124 360.27468872 C 363.68234253 359.70330811 367.21420288 359.32858276 370.48239136 358.99432373 C 373.39129639 358.73165894 375.91467285 358.58340454 378.09991455 358.48672485 C 379.85833740 358.34176636 381.16113281 358.30130005 382.18649292 358.32467651 C 382.81637573 358.34390259 383.14590454 358.42001343 383.28302002 358.48086548 C 383.19854736 358.51379395 383.06402588 358.54064941 367.29031372 383.17123413" stroke-width="1.21949434" fill="rgb(147, 205, 80)" opacity="1.0" stroke="rgb(104, 165, 0)" stroke-opacity="0.38060352" stroke-linecap="round" stroke-linejoin="round"/>
  </g>
</svg>
