<?xml version="1.0" ?>
<svg xmlns="http://www.w3.org/2000/svg" version="1.1" width="512" height="512" viewBox="0 0 512 512">
  <defs/>
  <g>
    <path d="M 624.42706299 468.89898682 C 604.79968262 482.56759644 585.26519775 496.25827026 565.58123779 509.82513428 C 545.86016846 522.93145752 525.73364258 535.59448242 505.11962891 547.59179688 C 483.84164429 558.66662598 461.83361816 568.58752441 438.91580200 577.27398682 C 415.01791382 584.60955811 390.08999634 590.58691406 364.30770874 595.10424805 C 337.74661255 598.17260742 310.51736450 599.70770264 282.71276855 599.85241699 C 254.69212341 598.56024170 226.63232422 595.97045898 198.83377075 592.10858154 C 171.43721008 587.08081055 144.77250671 580.88513184 118.93400574 573.42529297 C 94.23403931 564.67224121 70.79700470 554.39282227 48.90924835 542.63421631 C 28.83915329 529.20019531 10.69005489 513.84301758 -5.39165974 496.57156372 C -19.45286751 477.27270508 -31.66477394 456.19882202 -42.34780884 433.40243530 C -51.65603638 409.21582031 -59.66737747 383.84707642 -66.52574921 357.40716553 C -72.61889648 330.17196655 -77.92168427 302.19091797 -82.51866913 273.77642822 C -86.37397766 245.18147278 -89.48426056 216.70591736 -91.68476868 188.60656738 C -92.98478699 161.10746765 -93.13010406 134.44689941 -92.20819855 108.90290070 C -89.91394043 84.66501617 -86.19636536 61.91492844 -80.93920898 40.84984589 C -74.00106812 21.56809807 -65.36769104 4.21523523 -54.78895187 -11.21296501 C -42.41268539 -24.59078598 -28.11686516 -35.97558594 -11.87532425 -45.25912476 C 6.15872288 -52.81260681 25.79809380 -58.66505814 47.06947708 -62.75508118 C 69.73211670 -65.52703094 93.68682098 -66.96215820 118.76422882 -67.54163361 C 144.94369507 -67.28195953 172.00135803 -66.33509064 199.78550720 -64.76347351 C 227.89517212 -62.73909760 256.11688232 -60.31047440 284.46929932 -57.42194366 C 312.63613892 -53.94086075 340.36810303 -49.88938904 367.48614502 -44.98526764 C 393.80905151 -39.28391647 419.12008667 -32.43481445 443.03872681 -24.23533440 C 465.35601807 -14.50061417 485.92974854 -2.91861606 504.42596436 10.60415936 C 520.85351562 26.34873199 535.20501709 44.18124008 547.69512939 63.87864685 C 558.43829346 85.25202179 567.80688477 108.23744202 575.83392334 132.47203064 C 582.94635010 157.78712463 588.98529053 183.91738892 594.28912354 210.77177429 C 598.94165039 238.03211975 603.12152100 265.48937988 606.85583496 293.13299561 C 610.49212646 320.81887817 613.90350342 348.54470825 617.43542480 376.26974487 C 620.83813477 404.02792358 624.34637451 431.83065796 624.42706299 468.89898682" stroke-width="2.00000000" fill="rgb(211, 243, 255)" opacity="1.0" stroke="rgb(142, 226, 255)" stroke-opacity="0.3565307" stroke-linecap="round" stroke-linejoin="round"/>
    <path d="M 248.78515625 483.57257080 C 248.50067139 479.10366821 248.33177185 474.53790283 248.15907288 470.04067993 C 248.02734375 465.51434326 247.84088135 460.88989258 247.69068909 456.29931641 C 247.52664185 451.71362305 247.49945068 446.97100830 247.33673096 442.18856812 C 247.09579468 437.24359131 246.95869446 432.21884155 246.76335144 426.94995117 C 246.67213440 421.62457275 246.58786011 416.04528809 246.50967407 410.37622070 C 246.48960876 404.66333008 246.37928772 398.95422363 246.30824280 393.30117798 C 246.35223389 387.80877686 246.56842041 382.67868042 246.79869080 377.89938354 C 247.30371094 373.64999390 247.80409241 369.96096802 248.55619812 366.78723145 C 249.31068420 364.45504761 250.24768066 362.69512939 251.14131165 361.76397705 C 252.29167175 361.60690308 253.27183533 362.18740845 254.39959717 363.54776001 C 255.46446228 365.44372559 256.52987671 368.12600708 257.55508423 371.27148438 C 258.44644165 375.01309204 259.21688843 379.06088257 259.78063965 383.41424561 C 260.09259033 387.97155762 260.13558960 392.65057373 259.99841309 397.41549683 C 260.01998901 402.30902100 260.09390259 407.11987305 260.08560181 412.01458740 C 260.14810181 416.84155273 260.24084473 421.75808716 260.34231567 426.61120605 C 260.54003906 431.45883179 260.83666992 436.31112671 261.18478394 441.04409790 C 261.37414551 445.76333618 261.52612305 450.44879150 261.48483276 454.92703247 C 261.55374146 459.50393677 261.62527466 463.89215088 261.61865234 468.15304565 C 261.71762085 472.35119629 261.80758667 476.32272339 261.67852783 480.28939819 C 261.40811157 484.19805908 261.05938721 488.13143921 248.78515625 483.57257080" stroke-width="1.09733176" fill="rgb(138, 198, 79)" opacity="1.0" stroke="rgb(161, 205, 145)" stroke-opacity="0.73733056" stroke-linecap="round" stroke-linejoin="round"/>
    <path d="M 277.86666870 220.68917847 C 275.47012329 225.36367798 273.09994507 229.99008179 270.72259521 234.48190308 C 268.29559326 238.69624329 265.85153198 242.46867371 263.40179443 245.97082520 C 260.95892334 248.90571594 258.40939331 251.14413452 255.95182800 252.52697754 C 253.44783020 253.00816345 250.94152832 252.62188721 248.59063721 251.36463928 C 246.27310181 249.09613037 244.09841919 246.09069824 242.13340759 242.28022766 C 240.40048218 237.88302612 238.97985840 233.01892090 237.81262207 227.74011230 C 236.88500977 222.25880432 236.35806274 216.55122375 235.89395142 210.77175903 C 235.80769348 205.01838684 235.72088623 199.21368408 235.70663452 193.50201416 C 235.64173889 187.94548035 235.63990784 182.44911194 235.39408875 176.98901367 C 234.98736572 171.55511475 234.78607178 166.16757202 235.02497864 160.72473145 C 235.50349426 155.07460022 236.35993958 149.46768188 237.57418823 144.00767517 C 239.17802429 138.70498657 241.19206238 133.74404907 243.49659729 129.25218201 C 245.87522888 125.30334473 248.40573120 122.23236084 251.23957825 120.23616791 C 254.12796021 119.28932190 257.16384888 119.70880890 260.12921143 121.48876953 C 262.86740112 124.21972656 265.53414917 127.92337799 267.86981201 132.35722351 C 270.00476074 137.43099976 271.67648315 142.92066956 272.84082031 148.72601318 C 273.79742432 154.71159363 274.29342651 160.72566223 274.43783569 166.63522339 C 274.28781128 172.41458130 273.87750244 178.26484680 273.49572754 183.79620361 C 273.17028809 189.26544189 272.93600464 194.48114014 272.63308716 199.71356201 C 272.30212402 204.86308289 271.99139404 210.10447693 277.86666870 220.68917847" stroke-width="2.00000000" fill="rgb(252, 255, 255)" opacity="1.0" stroke="rgb(68, 149, 134)" stroke-opacity="0.7671742" stroke-linecap="round" stroke-linejoin="round"/>
    <path d="M 306.03695679 201.42498779 C 303.89926147 207.31861877 301.59436035 213.10839844 299.28857422 218.82485962 C 296.78366089 224.49583435 294.24752808 229.93261719 291.49038696 235.21890259 C 288.61114502 240.18559265 285.56878662 244.68833923 282.41394043 248.81884766 C 279.25759888 252.33517456 275.86111450 255.28440857 272.65679932 257.67282104 C 269.38662720 259.24633789 266.30270386 259.99902344 263.44714355 260.08834839 C 260.83636475 259.30679321 258.71432495 257.74423218 256.93856812 255.40927124 C 255.71983337 252.37542725 254.96391296 248.67198181 254.76562500 244.44189453 C 255.19592285 239.84638977 256.04956055 234.83842468 257.27120972 229.78109741 C 259.00479126 224.49615479 260.97631836 219.36759949 263.11013794 214.20750427 C 265.36019897 209.22637939 267.61633301 204.32914734 269.83795166 199.49263000 C 271.68032837 194.63574219 273.39501953 189.77166748 275.11468506 184.85107422 C 277.23611450 180.07943726 279.56820679 175.24436951 281.98995972 170.41421509 C 284.55941772 165.39990234 287.47497559 160.63729858 290.93850708 156.10528564 C 294.61502075 151.69389343 298.74252319 147.69470215 303.05783081 144.04234314 C 307.19869995 140.87528992 311.32897949 138.69847107 315.11529541 137.43345642 C 318.56234741 137.11087036 321.36044312 138.12269592 323.55603027 140.25613403 C 324.93115234 143.53866577 325.57669067 147.70616150 325.63613892 152.53085327 C 325.33193970 158.00765991 324.58914185 163.83697510 323.24435425 169.79344177 C 321.24011230 175.80862427 318.67187500 181.74047852 315.53253174 187.40141296 C 312.19699097 193.04533386 308.85711670 198.64122009 306.03695679 201.42498779" stroke-width="2.00000000" fill="rgb(251, 255, 251)" opacity="1.0" stroke="rgb(76, 150, 139)" stroke-opacity="0.77992123" stroke-linecap="round" stroke-linejoin="round"/>
    <path d="M 360.05752563 213.23304749 C 357.02426147 216.12770081 353.91537476 219.02447510 350.63534546 221.82801819 C 347.11276245 224.37756348 343.23132324 226.67900085 339.11038208 228.88116455 C 334.67785645 230.91609192 330.09552002 233.16287231 325.32870483 235.62060547 C 320.51754761 238.20452881 315.39599609 240.70817566 310.14663696 243.25790405 C 304.80282593 245.58435059 299.41564941 247.84996033 294.10897827 249.83439636 C 288.94390869 251.44970703 283.91375732 252.73678589 279.32864380 253.52912903 C 275.08309937 254.02416992 271.28823853 254.02175903 267.99566650 253.54348755 C 265.30572510 252.64985657 263.26589966 251.35157776 261.88070679 249.68321228 C 261.22274780 247.63696289 261.25802612 245.30528259 262.02362061 242.69860840 C 263.55065918 240.11721802 265.66802979 237.43812561 268.37966919 234.67054749 C 271.46847534 231.96595764 274.97570801 229.26948547 278.70843506 226.58560181 C 282.58731079 223.97827148 286.57949829 221.37483215 290.57879639 218.70256042 C 294.39471436 216.07434082 298.15057373 213.12278748 301.52392578 209.83905029 C 304.69552612 206.12466431 308.00323486 202.46562195 311.81375122 199.02372742 C 316.22940063 195.93324280 321.08514404 193.19644165 326.22912598 190.52964783 C 331.46298218 187.97192383 337.02081299 185.98645020 342.62542725 184.65081787 C 348.27835083 183.65032959 353.56671143 183.11595154 358.49725342 183.10728455 C 362.74581909 183.25907898 366.12124634 183.96607971 368.63693237 185.28672791 C 370.10192871 187.28315735 370.78347778 189.65254211 370.73739624 192.65483093 C 370.59533691 195.97848511 370.71884155 199.51098633 360.05752563 213.23304749" stroke-width="2.00000000" fill="rgb(253, 255, 253)" opacity="1.0" stroke="rgb(64, 147, 137)" stroke-opacity="0.7627958" stroke-linecap="round" stroke-linejoin="round"/>
    <path d="M 379.06039429 266.13961792 C 374.15554810 268.44238281 369.31158447 270.45513916 364.30432129 272.04354858 C 359.29388428 273.24133301 354.21746826 274.01617432 349.14364624 274.47738647 C 343.98266602 274.59194946 338.79077148 274.49221802 333.49008179 274.42300415 C 327.96850586 274.50201416 322.35000610 274.80377197 316.44177246 275.21298218 C 310.47387695 275.89514160 304.46820068 276.43179321 298.32717896 277.06137085 C 292.27136230 277.48019409 286.25531006 277.70770264 280.60852051 277.79660034 C 275.09979248 277.52618408 270.09649658 276.92819214 265.65469360 276.02786255 C 261.64352417 274.78512573 258.39321899 273.22729492 255.78492737 271.38833618 C 253.98928833 269.39807129 253.01710510 267.20663452 252.89434814 264.83364868 C 253.59101868 262.39611816 255.11280823 260.05419922 257.42547607 257.50595093 C 260.35375977 255.15701294 263.86471558 252.86682129 267.99850464 250.73468018 C 272.42486572 248.88256836 277.12857056 247.14086914 282.13345337 245.62850952 C 287.27856445 244.30638123 292.58078003 243.14756775 297.97332764 242.18095398 C 303.31420898 241.20811462 308.64135742 240.25958252 313.95590210 239.08406067 C 319.24938965 237.84616089 324.62423706 236.57273865 330.05758667 235.56379700 C 335.68890381 235.22099304 341.27035522 235.10838318 346.93060303 235.14227295 C 352.39392090 235.36776733 357.80233765 235.91203308 362.85150146 236.85121155 C 367.74578857 238.06250000 372.16897583 239.59268188 376.39123535 241.38204956 C 380.13638306 243.28218079 383.21499634 245.70446777 385.56475830 248.83544922 C 387.62033081 252.58708191 389.72943115 256.66015625 379.06039429 266.13961792" stroke-width="2.00000000" fill="rgb(254, 254, 251)" opacity="1.0" stroke="rgb(49, 133, 123)" stroke-opacity="0.6399924" stroke-linecap="round" stroke-linejoin="round"/>
    <path d="M 364.72396851 325.43087769 C 359.44555664 325.63464355 354.20925903 325.53744507 349.13891602 325.26574707 C 344.16445923 324.61343384 339.30514526 323.71752930 334.75534058 322.40579224 C 330.34875488 320.88192749 326.00360107 318.95468140 321.77270508 316.63854980 C 317.44042969 314.05749512 312.93112183 311.54406738 308.20156860 309.02593994 C 303.31311035 306.49847412 298.30972290 303.86709595 293.24304199 301.11459351 C 288.25244141 298.15502930 283.38406372 295.01995850 278.66207886 291.85815430 C 274.20071411 288.65512085 270.14709473 285.38601685 266.42977905 282.17147827 C 263.25494385 279.00488281 260.79110718 275.93496704 258.88302612 272.81643677 C 257.69427490 270.08999634 257.19049072 267.47241211 257.34872437 265.09786987 C 258.28469849 263.08584595 259.80877686 261.45910645 261.94854736 260.20999146 C 264.69647217 259.50186157 267.95690918 259.13055420 271.55648804 259.41299438 C 275.50256348 259.98968506 279.82864380 261.10314941 284.24694824 262.54776001 C 288.83312988 264.18893433 293.48120117 266.02246094 298.28298950 268.01287842 C 303.16525269 269.89624023 308.07980347 271.62634277 313.01965332 273.14852905 C 318.13073730 274.17214966 323.19091797 274.97741699 328.04965210 275.87353516 C 332.69287109 277.47973633 337.17163086 279.59359741 341.50430298 282.03329468 C 345.81008911 284.61950684 349.94378662 287.36785889 353.83779907 290.36376953 C 357.53198242 293.57760620 360.88052368 296.98492432 363.91998291 300.71224976 C 366.53494263 304.53237915 368.86724854 308.56555176 370.63174438 312.84747314 C 372.11218262 317.29394531 373.31036377 321.98110962 364.72396851 325.43087769" stroke-width="2.00000000" fill="rgb(248, 253, 255)" opacity="1.0" stroke="rgb(37, 127, 115)" stroke-opacity="0.5750985" stroke-linecap="round" stroke-linejoin="round"/>
    <path d="M 325.52416992 352.67620850 C 325.50885010 356.29983521 325.26278687 359.89093018 324.79168701 363.33367920 C 323.99002075 366.34829712 322.55776978 368.77813721 320.47863770 370.33477783 C 317.70892334 370.92480469 314.45166016 370.42587280 310.79696655 368.93350220 C 306.82424927 366.77340698 302.73010254 363.89929199 298.61132812 360.41610718 C 294.58990479 356.52651978 290.79537964 352.34045410 287.27365112 347.73208618 C 284.11117554 342.85458374 281.31146240 337.84936523 278.67672729 333.00027466 C 275.99905396 328.02740479 273.23944092 323.15121460 270.59014893 318.30221558 C 267.97946167 313.37481689 265.40484619 308.51388550 262.97241211 303.52813721 C 260.69555664 298.56039429 258.64007568 293.57891846 256.81738281 288.54339600 C 255.20037842 283.67782593 253.97351074 278.93572998 253.09416199 274.45236206 C 252.59449768 270.34121704 252.60296631 266.62680054 252.93827820 263.39212036 C 253.81657410 260.87127686 255.14218140 259.02243042 256.85922241 257.80694580 C 259.02462769 257.31875610 261.37530518 257.50949097 264.02725220 258.43795776 C 266.87731934 259.99032593 269.95428467 262.27453613 273.02136230 264.98602295 C 276.13156128 268.31445312 279.18045044 272.00048828 282.26605225 276.18569946 C 285.36038208 280.51992798 288.45971680 284.95043945 291.60983276 289.37597656 C 294.84710693 293.75140381 298.07196045 297.97796631 301.48178101 302.00558472 C 304.79861450 305.89987183 307.96936035 309.80465698 310.82113647 313.72769165 C 313.43484497 317.79470825 315.79080200 322.04040527 317.96679688 326.41207886 C 320.21673584 330.80380249 322.67355347 335.10519409 325.52416992 352.67620850" stroke-width="2.00000000" fill="rgb(251, 255, 255)" opacity="1.0" stroke="rgb(43, 124, 107)" stroke-opacity="0.62114835" stroke-linecap="round" stroke-linejoin="round"/>
    <path d="M 273.17245483 352.22656250 C 272.08822632 357.68713379 270.79534912 362.92233276 269.18014526 367.91201782 C 267.28817749 372.60610962 265.22201538 376.87252808 262.90689087 380.37377930 C 260.45687866 383.24371338 257.60134888 384.99310303 254.60067749 385.55883789 C 251.49208069 385.04507446 248.49023438 383.59606934 245.77304077 380.86947632 C 243.32165527 377.23413086 241.22198486 372.84188843 239.41510010 367.99291992 C 237.68572998 362.81402588 236.43089294 357.38983154 235.62962341 351.90478516 C 235.22628784 346.27841187 235.10234070 340.72097778 235.26948547 335.12884521 C 235.50723267 329.72796631 235.51091003 324.23385620 235.51391602 318.99896240 C 235.51493835 313.51730347 235.56513977 308.22158813 235.75003052 302.86520386 C 236.01222229 297.56085205 236.59793091 292.31753540 237.29411316 287.16790771 C 238.11325073 282.22406006 239.12890625 277.63754272 240.39466858 273.30447388 C 241.85139465 269.45443726 243.57072449 266.16729736 245.40222168 263.62274170 C 247.42573547 261.81652832 249.43385315 260.72583008 251.50411987 260.52233887 C 253.59289551 261.09439087 255.62585449 262.52545166 257.66836548 264.75711060 C 259.51873779 267.62747192 261.17468262 271.11657715 262.64627075 275.15475464 C 263.93417358 279.65820312 265.08883667 284.62231445 266.08044434 289.76562500 C 266.95663452 295.20700073 267.86453247 300.52584839 268.70587158 305.81326294 C 269.67276001 310.95379639 270.79479980 315.85916138 271.94116211 320.53732300 C 272.96249390 324.94418335 273.62261963 329.29327393 273.81527710 333.48275757 C 273.88278198 337.83557129 274.07458496 342.14260864 273.17245483 352.22656250" stroke-width="2.00000000" fill="rgb(250, 252, 251)" opacity="1.0" stroke="rgb(84, 153, 137)" stroke-opacity="0.87569386" stroke-linecap="round" stroke-linejoin="round"/>
    <path d="M 223.77262878 346.81558228 C 220.21369934 351.35147095 216.33483887 355.69372559 212.33389282 359.81539917 C 208.27540588 363.53744507 204.08796692 366.55032349 199.96334839 368.85195923 C 195.97923279 370.46307373 192.25248718 371.13461304 189.05590820 370.72766113 C 186.54096985 369.31436157 184.74566650 366.89282227 183.59741211 363.43350220 C 183.18586731 359.15133667 183.28289795 354.23016357 183.83679199 348.96289062 C 184.90087891 343.38967896 186.46272278 337.89361572 188.49880981 332.32336426 C 190.78887939 327.07244873 193.55270386 322.12203979 196.50398254 317.41650391 C 199.29499817 312.78793335 202.02603149 308.20166016 204.60946655 303.70040894 C 207.17211914 299.33242798 209.86457825 295.05618286 212.52178955 290.77362061 C 215.35765076 286.56265259 218.23083496 282.49752808 221.26196289 278.51727295 C 224.49827576 274.72576904 227.70999146 271.16586304 231.04403687 267.94540405 C 234.33818054 265.09265137 237.43618774 262.81356812 240.37043762 260.99713135 C 242.97444153 259.94628906 245.17263794 259.53100586 246.99188232 259.76641846 C 248.40065002 260.69866943 249.46348572 262.33374023 250.06228638 264.64141846 C 250.27136230 267.50799561 250.23498535 270.91983032 249.73307800 274.83511353 C 248.87748718 279.06314087 247.79988098 283.64425659 246.43638611 288.50906372 C 244.97724915 293.61672974 243.32229614 298.64129639 241.59100342 303.72363281 C 239.87675476 308.66983032 238.26760864 313.47610474 236.85412598 318.14816284 C 235.70550537 322.70501709 234.48756409 326.99060059 232.88197327 330.96267700 C 230.86262512 334.81277466 228.71646118 338.55001831 223.77262878 346.81558228" stroke-width="2.00000000" fill="rgb(251, 255, 252)" opacity="1.0" stroke="rgb(84, 154, 147)" stroke-opacity="0.8720799" stroke-linecap="round" stroke-linejoin="round"/>
    <path d="M 233.21313477 264.79025269 C 230.31884766 268.71813965 227.43247986 272.60534668 224.51301575 276.55618286 C 221.69560242 280.37371826 218.86656189 284.10565186 216.03846741 287.83789062 C 213.20858765 291.59872437 210.36141968 295.36688232 207.56002808 299.15844727 C 204.72027588 302.95892334 201.74888611 306.79742432 198.40144348 310.50357056 C 194.19737244 313.46405029 189.47392273 316.17547607 184.36405945 318.73880005 C 178.95141602 321.05792236 173.21614075 322.97467041 167.44244385 324.22219849 C 161.69786072 325.16577148 156.12802124 325.63217163 150.90815735 325.73266602 C 146.19781494 325.54043579 142.34460449 324.69961548 139.49778748 323.25317383 C 137.69145203 320.98065186 137.14686584 318.06933594 137.69538879 314.58621216 C 139.25981140 310.65454102 141.54252625 306.48693848 144.34649658 302.30014038 C 147.60525513 298.24746704 151.20640564 294.45458984 155.09745789 290.97631836 C 159.18835449 287.68994141 163.33949280 284.77041626 167.62275696 282.14614868 C 172.06828308 279.75451660 176.41758728 277.43200684 180.65957642 274.85049438 C 184.85881042 272.13134766 189.11737061 269.23916626 193.40402222 266.36148071 C 197.69718933 263.33374023 202.16444397 260.52297974 206.56257629 257.79815674 C 210.85726929 255.29833984 214.94377136 253.10295105 218.82873535 251.21720886 C 222.54609680 249.61209106 226.06797791 248.46690369 229.29827881 247.65550232 C 232.13659668 247.19010925 234.77859497 247.08238220 237.16043091 247.20390320 C 239.39765930 247.58642578 241.45037842 248.13714600 243.40989685 248.84286499 C 245.35597229 249.53038025 247.33244324 250.22079468 233.21313477 264.79025269" stroke-width="2.00000000" fill="rgb(250, 255, 255)" opacity="1.0" stroke="rgb(64, 142, 130)" stroke-opacity="0.71553767" stroke-linecap="round" stroke-linejoin="round"/>
    <path d="M 255.22866821 267.14086914 C 249.87579346 267.37448120 244.60104370 267.54815674 239.35725403 267.78091431 C 234.27716064 268.03054810 229.12556458 268.25112915 224.03276062 268.55310059 C 219.01409912 268.89260864 214.05216980 269.29876709 209.05789185 269.74276733 C 204.04457092 270.32742310 198.79904175 271.02645874 193.55676270 271.83264160 C 188.10768127 272.76361084 182.64952087 273.77655029 176.84451294 274.65219116 C 170.76255798 274.87298584 164.44758606 274.65942383 158.04376221 274.34921265 C 151.56695557 273.63964844 145.35499573 272.41223145 139.43118286 270.76983643 C 133.94844055 268.75796509 129.21836853 266.35571289 125.23654938 263.50607300 C 122.28212738 260.49154663 120.64418030 257.20431519 120.12584686 253.75250244 C 120.70566559 250.32446289 122.53779602 247.29339600 125.53122711 244.66378784 C 129.43824768 242.34336853 134.13739014 240.28244019 139.24845886 238.54823303 C 144.59579468 237.00831604 150.04411316 235.95046997 155.58027649 235.45661926 C 161.06500244 235.12316895 166.54466248 235.08528137 172.09103394 235.22622681 C 177.55844116 235.45706177 183.04824829 235.48629761 188.49971008 235.57490540 C 193.97067261 235.63237000 199.49288940 235.78062439 204.98091125 236.06059265 C 210.41781616 236.57341003 215.83111572 237.08615112 221.05247498 237.94044495 C 226.22003174 238.95675659 231.28665161 240.24343872 236.21459961 241.70779419 C 240.96234131 243.44873047 245.59535217 245.29060364 249.96589661 247.35284424 C 254.29423523 249.41807556 258.50158691 251.68310547 262.65859985 253.91767883 C 266.67596436 256.28305054 270.59963989 258.70922852 255.22866821 267.14086914" stroke-width="2.00000000" fill="rgb(253, 254, 254)" opacity="1.0" stroke="rgb(22, 118, 106)" stroke-opacity="0.5505005" stroke-linecap="round" stroke-linejoin="round"/>
    <path d="M 264.54464722 250.26646423 C 262.26290894 251.43843079 260.00265503 252.64076233 257.62057495 253.73123169 C 255.23786926 254.78446960 252.68649292 255.69618225 249.96832275 256.30087280 C 247.07263184 256.76498413 243.94447327 256.87655640 240.63024902 256.45773315 C 236.97344971 255.60046387 233.09838867 254.36589050 229.02824402 252.62020874 C 224.64118958 250.58038330 220.04470825 248.30110168 215.25720215 245.85942078 C 210.32394409 243.35139465 205.26669312 240.84632874 199.92041016 238.59814453 C 194.37556458 236.70980835 188.67323303 235.25480652 182.91702271 233.90917969 C 177.24433899 232.22065735 171.76715088 229.89744568 166.51148987 227.15745544 C 161.45970154 224.01989746 156.60037231 220.42868042 152.23112488 216.47366333 C 148.03926086 212.39694214 144.38363647 208.08700562 141.48551941 203.63629150 C 139.23207092 199.32594299 137.87750244 195.17848206 137.53643799 191.34594727 C 138.03388977 188.00617981 139.74002075 185.52030945 142.56996155 183.93991089 C 146.43299866 183.24386597 151.02215576 182.97927856 156.17999268 183.13352966 C 161.68933105 183.43664551 167.36436462 184.41441345 173.10331726 186.00489807 C 178.77076721 187.99674988 184.16929626 190.56515503 189.26229858 193.48667908 C 194.41233826 196.49951172 199.38565063 199.45979309 204.36441040 202.24845886 C 209.25796509 204.94589233 214.09141541 207.49554443 218.80187988 209.99385071 C 223.58682251 212.38810730 228.33158875 214.79344177 233.17228699 217.14996338 C 237.90449524 219.50215149 242.77938843 221.77035522 247.66732788 224.02874756 C 252.53619385 226.47718811 257.45046997 228.86584473 264.54464722 250.26646423" stroke-width="2.00000000" fill="rgb(249, 255, 255)" opacity="1.0" stroke="rgb(84, 151, 145)" stroke-opacity="0.7570501" stroke-linecap="round" stroke-linejoin="round"/>
    <path d="M 257.31210327 225.96551514 C 256.41357422 229.65855408 255.40916443 233.41456604 254.42391968 237.00065613 C 253.45941162 240.52096558 252.21878052 243.66644287 250.90675354 246.46456909 C 249.35461426 248.71321106 247.62239075 250.26632690 245.74177551 251.19779968 C 243.68023682 251.36227417 241.38995361 250.67033386 238.95530701 249.20645142 C 236.36004639 247.02131653 233.61544800 244.18861389 230.67224121 240.75637817 C 227.62173462 236.77900696 224.62026978 232.46102905 221.59120178 227.91627502 C 218.47125244 223.27900696 215.37367249 218.56033325 212.31892395 214.02319336 C 209.22726440 209.58128357 206.02435303 205.28128052 202.81117249 201.11372375 C 199.75538635 196.84925842 196.77369690 192.58096313 193.97727966 188.26571655 C 191.44432068 183.84275818 189.01557922 179.22706604 187.10876465 174.25128174 C 185.41569519 169.15258789 184.11279297 163.96165466 183.36300659 158.79702759 C 183.01513672 153.69224548 183.14562988 148.96247864 183.61344910 144.76997375 C 184.52824402 141.35493469 186.21202087 138.88761902 188.61079407 137.58300781 C 191.79736328 137.13720703 195.44674683 137.65254211 199.53117371 139.19436646 C 203.75942993 141.50205994 208.07818604 144.59053040 212.23669434 148.38047791 C 216.25631714 152.65133667 219.95469666 157.31198120 223.32012939 162.18116760 C 226.32955933 167.28794861 229.03959656 172.35934448 231.43739319 177.34559631 C 233.55329895 182.31008911 235.38639832 187.20805359 236.99757385 192.00933838 C 238.56733704 196.56947327 240.20921326 201.08204651 241.91316223 205.42292786 C 243.73469543 209.75694275 245.46195984 213.94941711 257.31210327 225.96551514" stroke-width="2.00000000" fill="rgb(250, 253, 255)" opacity="1.0" stroke="rgb(0, 96, 73)" stroke-opacity="0.47195628" stroke-linecap="round" stroke-linejoin="round"/>
    <path d="M 220.06205750 302.43972778 C 217.36590576 300.08734131 214.66227722 297.84118652 212.09223938 295.32766724 C 209.70761108 292.55661011 207.54441833 289.60995483 205.48475647 286.41470337 C 203.49644470 283.11685181 201.84214783 279.59359741 200.21633911 275.92584229 C 198.83949280 272.09884644 197.76679993 268.25485229 196.91407776 264.27301025 C 196.30834961 260.21560669 196.06471252 256.07556152 196.13858032 251.96200562 C 196.48336792 247.69219971 197.20281982 243.62371826 198.23216248 239.50822449 C 199.59919739 235.53584290 201.25463867 231.57943726 203.03120422 227.70962524 C 205.09843445 224.02427673 207.43348694 220.53100586 209.93814087 217.22941589 C 212.74282837 214.04516602 215.61804199 211.14317322 218.74755859 208.36405945 C 222.05645752 205.85797119 225.55116272 203.66571045 229.25451660 201.72564697 C 233.12591553 200.01133728 237.10882568 198.57279968 241.22207642 197.35610962 C 245.39337158 196.47785950 249.69363403 195.91900635 253.86854553 195.65901184 C 258.17059326 195.66830444 262.24789429 196.04171753 266.33358765 196.67315674 C 270.28717041 197.61987305 274.04623413 198.93234253 277.74917603 200.47697449 C 281.36941528 202.19075012 284.73937988 204.10678101 288.06051636 206.20642090 C 291.12136841 208.40902710 294.04083252 210.80444336 296.80575562 213.30589294 C 299.26696777 216.00747681 301.58163452 218.96534729 303.63003540 222.04512024 C 305.49896240 225.24156189 307.17102051 228.49339294 308.74246216 232.05465698 C 310.01028442 235.62789917 311.11614990 239.29768372 312.00189209 243.16793823 C 312.57821655 247.07920837 313.01541138 251.05433655 313.14746094 255.13903809 C 313.04956055 259.17407227 312.68914795 263.26394653 311.97988892 267.32727051 C 310.96386719 271.29415894 309.77096558 275.26681519 308.21899414 279.09014893 C 306.39569092 282.79190063 304.30801392 286.42541504 301.92196655 289.73715210 C 299.28076172 292.91860962 296.47595215 295.98873901 293.44195557 298.76226807 C 290.30783081 301.45892334 287.04040527 303.87252808 283.57537842 306.08355713 C 279.93142700 307.93844604 276.23599243 309.55172729 272.28021240 310.88973999 C 268.35610962 311.93191528 264.25915527 312.64093018 260.14443970 313.20474243 C 256.09280396 313.45602417 251.97344971 313.41958618 247.92933655 313.09143066 C 243.91909790 312.44638062 239.93196106 311.42041016 236.08932495 310.31347656 C 232.17213440 309.06930542 228.22373962 307.72473145 220.06205750 302.43972778" stroke-width="1.47759461" fill="rgb(250, 195, 30)" opacity="1.0" stroke="rgb(236, 209, 134)" stroke-opacity="1.0" stroke-linecap="round" stroke-linejoin="round"/>
    <path d="M 367.15213013 383.53726196 C 365.34838867 386.37725830 363.63265991 389.22567749 361.88342285 392.15853882 C 360.14120483 395.14224243 358.34448242 398.05758667 356.49426270 401.02069092 C 354.52563477 403.98150635 352.59240723 406.94900513 350.43679810 409.90295410 C 348.32852173 412.79818726 345.95050049 415.62268066 343.69598389 418.33807373 C 341.10769653 421.09060669 338.54486084 423.67211914 335.78820801 426.08078003 C 332.90127563 428.43289185 329.93862915 430.52359009 326.85955811 432.70690918 C 323.67788696 434.66955566 320.24728394 436.51492310 316.73919678 438.26135254 C 313.09451294 439.99490356 309.20227051 441.45800781 305.26690674 442.78002930 C 301.19210815 443.82617188 296.92956543 444.76718140 292.63568115 445.56594849 C 288.31881714 446.24951172 284.11383057 446.79162598 280.04483032 447.26928711 C 276.11337280 447.73483276 272.51098633 447.90789795 269.18026733 448.01672363 C 266.36456299 447.90084839 264.21533203 447.23773193 262.63110352 446.02734375 C 261.82696533 444.13446045 261.53594971 441.68908691 261.78964233 438.67669678 C 262.52792358 435.39584351 263.49182129 431.83801270 264.70184326 428.06219482 C 266.02828979 424.32055664 267.49411011 420.59130859 269.13375854 416.97085571 C 270.95666504 413.50952148 272.85610962 410.23956299 274.91534424 407.11123657 C 277.08541870 404.27908325 279.16726685 401.55078125 281.42556763 399.06338501 C 283.67553711 396.59423828 285.94863892 394.28155518 288.35140991 392.11193848 C 290.72558594 389.94100952 293.16821289 387.97787476 295.73101807 385.98599243 C 298.41259766 384.03030396 301.19226074 382.11492920 303.96768188 380.04232788 C 306.86520386 378.05001831 309.64511108 376.03717041 312.58493042 374.28219604 C 315.62673950 372.89151001 318.84918213 371.74038696 322.22216797 370.66744995 C 325.72677612 369.46865845 329.40304565 368.25338745 333.17047119 367.11633301 C 337.09304810 365.91802979 341.11441040 364.70666504 345.40618896 363.41207886 C 349.67587280 362.25735474 354.13336182 361.26657104 358.58712769 360.43435669 C 363.00973511 359.75772095 367.29354858 359.27749634 371.29379272 358.84332275 C 374.84646606 358.56582642 377.87713623 358.38360596 380.15100098 358.25286865 C 381.67068481 358.58944702 382.21966553 359.33969116 381.92019653 360.53228760 C 381.06613159 362.14108276 379.75875854 364.00289917 378.30596924 365.97406006 C 376.86730957 368.06881714 375.49569702 370.10565186 367.15213013 383.53726196" stroke-width="1.20635915" fill="rgb(148, 207, 82)" opacity="1.0" stroke="rgb(108, 168, 0)" stroke-opacity="0.36963013" stroke-linecap="round" stroke-linejoin="round"/>
  </g>
</svg>
