<?xml version="1.0" ?>
<svg xmlns="http://www.w3.org/2000/svg" version="1.1" width="512" height="512" viewBox="0 0 512 512">
  <defs/>
  <g>
    <path d="M 611.24731445 455.82208252 C 599.99017334 476.88845825 585.53936768 494.63916016 568.41656494 510.01916504 C 551.29376221 525.39916992 531.49896240 538.40856934 509.55380249 549.99230957 C 487.60864258 561.57611084 463.51312256 571.73425293 437.78887939 581.41186523 C 414.83303833 587.39617920 390.97299194 591.86645508 365.89648438 594.68548584 C 340.81994629 597.50451660 314.52691650 598.67242432 286.70510864 598.05206299 C 258.88330078 597.43170166 229.53269958 595.02307129 198.34100342 590.68920898 C 170.88906860 584.69091797 143.97283936 578.21899414 118.60324097 570.28308105 C 93.23364258 562.34716797 69.41067505 552.94726562 48.14525986 541.09295654 C 26.87984848 529.23864746 8.17199230 514.92993164 -6.96737719 497.17633057 C -21.45029640 478.64236450 -33.11786270 457.09887695 -42.58495712 433.53030396 C -52.05204773 409.96173096 -59.31866837 384.36807251 -64.99970245 357.73373413 C -70.68073273 331.09942627 -74.77616882 303.42443848 -77.90090942 275.69326782 C -79.60570526 246.43199158 -81.89967346 217.31549072 -84.03437805 189.00215149 C -86.16908264 160.68881226 -88.14450836 133.17866516 -89.21221924 107.13005829 C -90.27992249 81.08146667 -90.43991089 56.49442673 -88.94372559 34.02734375 C -77.58499908 14.70143604 -65.60044098 -0.97787100 -52.51103210 -13.89663601 C -39.42162323 -26.81540108 -25.22736359 -36.97362137 -9.44924641 -45.25735474 C 6.32887077 -53.54109192 23.69084740 -59.95034027 43.11569214 -65.37115479 C 69.10912323 -67.49359131 94.77195740 -67.83401489 120.57353973 -66.98949432 C 146.37513733 -66.14497375 172.31547546 -64.11550903 198.86392212 -61.49815369 C 225.41238403 -58.88079834 252.56893921 -55.67556000 280.80294800 -52.47949219 C 312.72866821 -48.17210007 341.93209839 -43.87630844 368.92138672 -38.90594864 C 395.91067505 -33.93558502 420.68579102 -28.29065132 443.75488281 -21.28497124 C 466.82394409 -14.27928925 488.18695068 -5.91286182 508.35195923 4.50048780 C 522.63952637 26.07292747 534.30859375 47.80318069 544.37133789 69.92174530 C 554.43408203 92.04031372 562.89038086 114.54718018 570.75225830 137.67285156 C 578.61419678 160.79852295 585.88171387 184.54299927 593.56689453 209.13676453 C 600.74365234 237.16841125 606.40289307 265.83895874 610.32464600 294.30209351 C 614.24645996 322.76525879 616.43078613 351.02102661 616.65789795 378.22311401 C 616.88494873 405.42520142 615.15472412 431.57360840 611.24731445 455.82208252" stroke-width="2.00000000" fill="rgb(210, 241, 252)" opacity="1.0" stroke="rgb(153, 232, 255)" stroke-opacity="1.0" stroke-linecap="round" stroke-linejoin="round"/>
    <path d="M 249.78436279 483.24777222 C 248.73498535 478.66394043 248.54966736 475.01858521 248.46621704 471.06390381 C 248.38275146 467.10925293 248.40115356 462.84524536 247.75924683 457.02410889 C 247.88055420 452.16967773 247.77691650 446.81103516 247.60205078 441.50317383 C 247.42718506 436.19531250 247.18107605 430.93826294 247.01744080 426.28698730 C 247.09378052 419.72183228 246.86604309 415.41229248 246.66816711 411.30163574 C 246.47027588 407.19094849 246.30224609 403.27914429 246.49794006 397.50942993 C 246.92565918 391.44403076 246.77557373 386.31237793 246.50413513 381.40454102 C 246.23269653 376.49670410 245.83992004 371.81265259 245.78228760 366.64245605 C 245.21295166 361.28924561 247.18537903 357.03375244 249.86277771 355.59063721 C 252.54017639 354.14752197 255.92254639 355.51675415 258.17309570 361.41293335 C 259.07336426 368.48052979 259.22399902 372.88229370 259.34750366 376.21829224 C 259.47100830 379.55432129 259.56735229 381.82458496 260.35903931 384.62918091 C 259.72280884 388.11859131 259.59667969 392.11904907 259.64453125 396.47955322 C 259.69235229 400.84002686 259.91412354 405.56054688 259.97363281 410.49008179 C 259.94689941 417.97750854 259.83969116 422.63485718 259.91094971 426.62292480 C 259.98223877 430.61096191 260.23196411 433.92974854 260.91912842 438.74005127 C 260.62530518 444.67800903 260.87600708 449.96978760 261.17495728 454.87316895 C 261.47393799 459.77655029 261.82116699 464.29159546 261.72042847 468.67608643 C 261.92987061 474.70306396 261.81546021 480.12969971 260.21386719 483.15771484 C 258.61230469 486.18572998 255.52354431 486.81515503 249.78436279 483.24777222" stroke-width="0.74604750" fill="rgb(140, 195, 77)" opacity="1.0" stroke="rgb(139, 190, 97)" stroke-opacity="1.0" stroke-linecap="round" stroke-linejoin="round"/>
    <path d="M 272.22875977 215.04837036 C 271.83813477 221.06324768 271.81390381 226.25448608 271.44607544 231.08097839 C 271.07824707 235.90748596 270.36676025 240.36923218 268.60165405 244.92515564 C 265.85140991 251.25588989 262.24423218 255.79306030 258.46224976 257.53765869 C 254.68026733 259.28222656 250.72348022 258.23422241 247.27397156 253.39456177 C 243.47311401 248.57649231 240.63386536 243.79629517 238.70025635 238.94400024 C 236.76666260 234.09169006 235.73872375 229.16726685 235.56048584 224.06072998 C 235.18562317 219.08502197 235.29800415 214.34332275 235.43630981 209.31098938 C 235.57460022 204.27864075 235.73883057 198.95565796 235.46766663 192.81736755 C 235.53491211 187.56884766 235.44860840 182.71057129 235.37043762 177.59852600 C 235.29228210 172.48649597 235.22225952 167.12069702 235.32208252 160.85714722 C 236.02035522 154.77816772 236.42736816 150.73281860 237.16290283 147.02140808 C 237.89845276 143.30999756 238.96253967 139.93252563 240.97494507 135.18933105 C 243.94978333 129.25364685 246.87440491 124.19114685 250.20849609 121.68959045 C 253.54260254 119.18803406 257.28616333 119.24742889 261.89889526 123.55552673 C 264.92086792 127.44462585 267.47161865 132.30587769 269.36517334 137.35224915 C 271.25875854 142.39862061 272.49514771 147.63009644 272.88842773 152.25964355 C 273.66546631 157.26957703 273.94906616 162.35209656 273.94232178 167.50961304 C 273.93557739 172.66714478 273.63851929 177.89965820 273.25427246 183.20960999 C 273.10040283 189.33306885 272.89004517 194.32373047 272.69512939 199.26805115 C 272.50024414 204.21237183 272.32080078 209.11032104 272.22875977 215.04837036" stroke-width="1.44465661" fill="rgb(254, 255, 255)" opacity="1.0" stroke="rgb(34, 131, 107)" stroke-opacity="1.0" stroke-linecap="round" stroke-linejoin="round"/>
    <path d="M 305.47543335 203.82539368 C 302.62353516 208.72052002 299.78970337 213.54026794 297.32595825 218.16142273 C 294.86218262 222.78257751 292.76852417 227.20513916 291.39700317 231.30586243 C 289.58444214 236.50047302 287.75909424 241.69808960 285.46051025 246.47018433 C 283.16189575 251.24229431 280.39004517 255.58888245 276.68444824 259.08145142 C 270.61169434 263.83868408 265.68087769 266.05856323 261.83010864 265.74139404 C 257.97933960 265.42419434 255.20860291 262.57000732 253.45599365 257.17913818 C 251.34936523 250.95727539 250.80285645 245.60098267 251.58114624 240.58570862 C 252.35943604 235.57041931 254.46252441 230.89613342 257.65509033 226.03823853 C 259.45397949 222.48730469 261.59179688 218.70982361 263.90008545 214.06095886 C 266.20837402 209.41207886 268.68713379 203.89179993 271.16787720 196.85523987 C 273.29931641 192.23321533 274.42312622 188.39767456 275.68835449 184.67564392 C 276.95358276 180.95361328 278.36019897 177.34510803 281.05718994 173.17720032 C 284.26202393 167.18997192 286.82714844 162.57888794 289.64144897 158.55929565 C 292.45571899 154.53971863 295.51916504 151.11163330 299.72070312 147.49040222 C 303.51055908 144.30117798 308.07785034 140.50297546 312.50967407 138.77357483 C 316.94149780 137.04417419 321.23785400 137.38357544 324.48596191 142.46952820 C 325.41125488 149.45690918 325.35864258 155.06413269 324.66479492 160.13305664 C 323.97097778 165.20198059 322.63598633 169.73257446 320.99652100 174.56669617 C 319.24310303 179.37689209 317.31597900 183.36015320 314.85064697 187.80656433 C 312.38531494 192.25297546 309.38177490 197.16253662 305.47543335 203.82539368" stroke-width="1.47176290" fill="rgb(253, 255, 255)" opacity="1.0" stroke="rgb(96, 168, 159)" stroke-opacity="1.0" stroke-linecap="round" stroke-linejoin="round"/>
    <path d="M 358.93698120 213.72853088 C 356.78674316 216.07933044 354.41085815 218.29434204 351.16857910 220.72167969 C 347.92633057 223.14901733 343.81768799 225.78869629 338.20193481 228.98881531 C 334.27301025 231.24803162 330.03738403 233.26478577 325.51983643 235.41516113 C 321.00228882 237.56555176 316.20281982 239.84954834 311.14624023 242.64326477 C 305.41500854 245.05584717 300.79351807 247.29057312 296.45550537 249.35385132 C 292.11746216 251.41712952 288.06292725 253.30894470 283.46560669 255.03570557 C 278.02197266 256.15036011 272.31216431 257.17556763 267.16027832 257.24755859 C 262.00842285 257.31951904 257.41448975 256.43826294 254.20265198 253.73999023 C 253.26034546 248.93856812 254.81956482 245.07301331 257.89300537 241.39132690 C 260.96643066 237.70964050 265.55404663 234.21180725 270.66851807 230.14579773 C 274.00314331 227.60333252 277.11621094 225.68208313 280.36605835 224.06991577 C 283.61590576 222.45773315 287.00256348 221.15463257 290.88427734 219.84840393 C 295.34982300 217.37445068 298.41552734 214.05915833 301.42977905 210.46823120 C 304.44403076 206.87731934 307.40686035 203.01074219 311.66662598 199.43423462 C 316.70288086 196.02606201 320.94448853 193.47384644 325.01821899 191.40998840 C 329.09194946 189.34611511 332.99780273 187.77058411 337.36267090 186.31576538 C 342.60348511 185.00907898 347.96984863 183.85762024 353.11923218 183.44941711 C 358.26864624 183.04119873 363.20111084 183.37625122 367.57412720 185.04254150 C 371.18588257 188.19920349 371.08380127 193.02534485 369.05020142 198.23500061 C 367.01660156 203.44465637 363.05142212 209.03781128 358.93698120 213.72853088" stroke-width="1.41708040" fill="rgb(253, 255, 255)" opacity="1.0" stroke="rgb(50, 140, 127)" stroke-opacity="1.0" stroke-linecap="round" stroke-linejoin="round"/>
    <path d="M 377.24044800 266.12527466 C 373.54461670 268.17663574 368.96914673 270.15509033 363.93588257 271.57647705 C 358.90264893 272.99786377 353.41162109 273.86218262 347.88470459 273.68536377 C 343.17053223 273.84381104 338.27722168 273.85214233 333.00476074 273.89974976 C 327.73223877 273.94735718 322.08056641 274.03427124 315.84951782 274.34991455 C 310.74621582 274.47589111 305.88201904 274.97869873 300.93124390 275.65493774 C 295.98046875 276.33114624 290.94305420 277.18075562 285.49334717 278.00030518 C 279.56719971 278.70773315 273.56747437 279.43936157 267.93344116 279.43841553 C 262.29940796 279.43750000 257.03106689 278.70397949 252.56764221 276.48120117 C 248.12782288 272.92797852 246.47116089 268.66073608 247.61212158 264.78070068 C 248.75308228 260.90069580 252.69166565 257.40789795 259.44232178 255.40368652 C 264.92871094 252.81011963 269.12756348 250.66561890 272.70547485 248.89666748 C 276.28338623 247.12771606 279.24035645 245.73431396 282.24298096 244.64295959 C 287.74819946 243.26112366 292.90686035 242.32606506 298.08480835 241.45132446 C 303.26275635 240.57659912 308.45996094 239.76217651 314.04226685 238.62159729 C 319.20626831 237.82945251 324.05075073 236.75729370 329.17016602 235.99340820 C 334.28961182 235.22950745 339.68395996 234.77389526 345.94766235 235.21481323 C 350.52871704 235.37496948 356.09140015 236.12689209 361.59143066 237.33003235 C 367.09149170 238.53317261 372.52893066 240.18751526 376.85946655 242.15248108 C 382.53692627 244.52069092 385.91555786 248.89488220 386.23312378 253.48654175 C 386.55072021 258.07818604 383.80725098 262.88726807 377.24044800 266.12527466" stroke-width="1.51389849" fill="rgb(253, 255, 253)" opacity="1.0" stroke="rgb(74, 155, 145)" stroke-opacity="1.0" stroke-linecap="round" stroke-linejoin="round"/>
    <path d="M 363.11257935 325.09835815 C 358.80694580 325.31918335 354.04046631 325.27075195 349.23831177 324.80706787 C 344.43612671 324.34341431 339.59826660 323.46450806 335.14990234 322.02441406 C 330.22308350 320.46908569 325.91308594 318.46957397 321.60604858 316.10028076 C 317.29901123 313.73098755 312.99493408 310.99191284 308.07995605 307.95745850 C 302.86056519 305.39773560 298.21624756 302.96527100 293.86724854 300.54425049 C 289.51821899 298.12322998 285.46447754 295.71371460 281.42620850 293.19989014 C 276.77459717 291.34869385 272.58081055 289.05883789 268.34411621 286.16281128 C 264.10745239 283.26675415 259.82791138 279.76452637 255.00486755 275.48861694 C 253.03259277 271.04217529 252.40603638 266.96209717 253.65084839 263.53936768 C 254.89564514 260.11663818 258.01181030 257.35125732 263.52496338 255.53414917 C 268.58831787 255.31678772 272.69464111 255.51669312 276.04766846 256.40911865 C 279.40072632 257.30157471 282.00048828 258.88653564 284.05081177 261.43927002 C 287.78634644 265.31356812 292.52380371 268.35949707 297.46267700 270.40679932 C 302.40155029 272.45410156 307.54180908 273.50274658 312.08291626 273.38253784 C 317.41769409 274.41271973 322.15670776 274.95172119 326.70565796 276.02008057 C 331.25463867 277.08840942 335.61352539 278.68609619 340.18801880 281.83355713 C 345.04193115 284.02145386 349.60269165 287.31665039 353.57315063 290.78015137 C 357.54357910 294.24368286 360.92367554 297.87548828 363.41619873 300.73660278 C 367.23870850 306.00891113 370.51306152 311.50411987 371.15667725 315.97888184 C 371.80029297 320.45364380 369.81317139 323.90795898 363.11257935 325.09835815" stroke-width="1.41223741" fill="rgb(253, 255, 255)" opacity="1.0" stroke="rgb(106, 177, 169)" stroke-opacity="1.0" stroke-linecap="round" stroke-linejoin="round"/>
    <path d="M 323.21658325 341.44491577 C 324.18905640 346.06829834 325.15579224 350.87814331 325.22186279 355.55004883 C 325.28796387 360.22198486 324.45336914 364.75598145 321.82318115 368.82775879 C 317.83322144 370.95684814 313.49432373 369.99072266 309.14672852 367.58224487 C 304.79913330 365.17376709 300.44287109 361.32293701 296.41821289 357.68255615 C 292.29394531 353.46850586 289.13961792 349.33938599 286.39468384 345.20275879 C 283.64978027 341.06610107 281.31427002 336.92193604 278.82769775 332.67776489 C 275.95483398 327.62817383 273.48437500 322.70739746 271.23904419 318.05590820 C 268.99371338 313.40441895 266.97344971 309.02218628 265.00094604 305.04965210 C 262.91436768 300.87808228 261.02157593 296.56066895 258.91940308 291.91470337 C 256.81719971 287.26870728 254.50566101 282.29412842 251.58160400 276.80822754 C 250.32513428 270.89331055 249.66117859 266.31024170 249.84431458 262.50347900 C 250.02746582 258.69668579 251.05769348 255.66621399 253.18960571 252.85650635 C 257.49792480 252.93673706 261.93154907 254.25065613 266.23052979 256.58670044 C 270.52954102 258.92276001 274.69393921 262.28094482 278.46380615 266.44973755 C 280.38977051 270.59680176 281.81085205 274.75982666 283.58239746 278.80639648 C 285.35394287 282.85296631 287.47595215 286.78311157 290.80371094 290.46441650 C 294.48278809 294.83367920 298.02728271 298.50640869 301.29101562 302.16485596 C 304.55471802 305.82327271 307.53765869 309.46737671 310.09362793 313.77941895 C 313.32843018 318.32409668 315.82360840 322.76638794 317.90289307 327.30953979 C 319.98211670 331.85269165 321.64544678 336.49670410 323.21658325 341.44491577" stroke-width="1.46977401" fill="rgb(253, 255, 254)" opacity="1.0" stroke="rgb(7, 109, 79)" stroke-opacity="1.0" stroke-linecap="round" stroke-linejoin="round"/>
    <path d="M 272.96371460 350.01351929 C 272.25555420 353.90875244 271.26593018 359.09057617 269.84262085 364.10794067 C 268.41934204 369.12530518 266.56237793 373.97821045 264.11956787 377.21554565 C 261.69592285 382.52880859 258.14160156 385.19207764 254.43139648 385.15853882 C 250.72117615 385.12503052 246.85504150 382.39471436 243.80766296 376.92080688 C 241.53262329 372.24078369 239.75799561 367.65209961 238.50128174 362.92398071 C 237.24455261 358.19586182 236.50575256 353.32833862 236.30238342 348.09063721 C 235.65939331 343.36135864 235.60308838 339.17510986 235.65716553 334.64422607 C 235.71124268 330.11334229 235.87570190 325.23779297 235.67422485 319.12997437 C 235.92224121 313.98431396 236.25714111 309.34082031 236.67535400 304.44912720 C 237.09355164 299.55743408 237.59507751 294.41748047 238.17636108 288.27890015 C 238.83140564 282.39294434 238.58825684 278.63528442 238.56097412 275.12310791 C 238.53369141 271.61096191 238.72225952 268.34426880 240.24075317 263.44027710 C 244.56997681 258.56332397 248.95587158 255.71160889 252.76615906 255.57162476 C 256.57641602 255.43164062 259.81109619 258.00338745 261.83782959 263.97335815 C 263.61389160 268.07095337 264.75195312 272.69610596 265.51330566 277.43469238 C 266.27465820 282.17330933 266.65924072 287.02536011 266.92825317 291.57675171 C 266.90087891 297.46789551 267.40728760 302.38485718 268.23809814 306.90112305 C 269.06887817 311.41741943 270.22406006 315.53302002 271.49417114 319.82141113 C 272.62460327 324.47778320 273.17419434 329.40240479 273.35006714 334.47463989 C 273.52593994 339.54687500 273.32812500 344.76672363 272.96371460 350.01351929" stroke-width="1.49792612" fill="rgb(254, 255, 255)" opacity="1.0" stroke="rgb(95, 166, 149)" stroke-opacity="1.0" stroke-linecap="round" stroke-linejoin="round"/>
    <path d="M 223.75064087 345.85479736 C 221.50830078 349.45111084 218.18428040 353.61816406 214.61694336 357.29357910 C 211.04960632 360.96902466 207.23895264 364.15283203 204.02333069 365.78271484 C 199.00625610 369.67437744 194.04240417 371.36645508 190.29649353 370.55319214 C 186.55059814 369.73992920 184.02264404 366.42132568 183.87742615 360.29162598 C 183.19070435 353.73095703 183.92373657 348.06140137 185.20228577 343.19274902 C 186.48083496 338.32409668 188.30493164 334.25634766 189.80033875 330.89926147 C 192.45445251 324.55828857 194.85134888 320.04730225 197.17268372 316.05795288 C 199.49401855 312.06860352 201.73977661 308.60089111 204.09159851 304.34655762 C 207.07981873 299.87908936 209.45993042 296.34829712 212.08438110 292.65060425 C 214.70881653 288.95291138 217.57757568 285.08831787 221.54307556 279.95324707 C 225.37712097 275.64202881 227.88568115 272.46414185 230.12158203 269.43597412 C 232.35748291 266.40783691 234.32070923 263.52938843 237.06407166 259.81707764 C 240.35267639 256.46038818 244.65750122 255.45298767 248.41191101 256.12854004 C 252.16630554 256.80410767 255.37030029 259.16262817 256.45721436 262.53778076 C 252.85665894 267.87384033 250.04968262 272.10211182 247.94729614 276.29711914 C 245.84494019 280.49212646 244.44717407 284.65386963 243.66502380 289.85687256 C 241.89532471 296.29318237 241.03982544 300.39633179 240.17060852 304.40777588 C 239.30139160 308.41918945 238.41842651 312.33892822 236.59381104 318.40844727 C 235.12754822 322.60043335 233.87437439 326.36041260 232.00895691 330.62319946 C 230.14355469 334.88598633 227.66589355 339.65161133 223.75064087 345.85479736" stroke-width="1.35801768" fill="rgb(254, 255, 253)" opacity="1.0" stroke="rgb(109, 175, 169)" stroke-opacity="1.0" stroke-linecap="round" stroke-linejoin="round"/>
    <path d="M 233.21000671 265.52142334 C 229.78102112 269.43472290 227.10868835 272.63851929 224.52078247 276.01324463 C 221.93289185 279.38793945 219.42941284 282.93353271 216.33811951 287.53042603 C 213.04187012 291.26931763 210.69909668 294.70254517 207.97659302 298.38986206 C 205.25410461 302.07717896 202.15188599 306.01861572 197.33680725 310.77386475 C 194.19190979 313.19830322 190.58544922 315.33349609 186.30261230 317.28948975 C 182.01979065 319.24548340 177.06060791 321.02233887 171.21029663 322.73007202 C 166.73846436 323.65747070 161.24845886 324.94046021 155.81924438 325.44244385 C 150.39002991 325.94439697 145.02160645 325.66534424 140.79296875 323.46856689 C 137.62579346 319.71807861 137.56890869 315.80828857 139.31718445 311.57534790 C 141.06546021 307.34240723 144.61889648 302.78628540 148.67236328 297.74307251 C 152.45271301 294.14434814 154.97952271 291.69061279 157.59832764 289.55761719 C 160.21713257 287.42462158 162.92791748 285.61230469 167.07623291 283.29641724 C 172.57217407 280.15808105 176.90998840 277.48645020 180.75382996 274.90490723 C 184.59765625 272.32336426 187.94750977 269.83193970 191.46754456 267.05401611 C 195.43252563 263.82238770 199.51129150 261.10137939 203.66891479 258.49365234 C 207.82655334 255.88592529 212.06304932 253.39154053 216.34347534 250.61322021 C 221.08483887 248.80688477 225.56158447 246.49316406 230.07063293 244.59257507 C 234.57968140 242.69198608 239.12103271 241.20454407 243.99159241 241.05081177 C 246.92660522 243.27970886 246.44316101 247.34268188 244.11999512 251.87576294 C 241.79681396 256.40884399 237.63391113 261.41204834 233.21000671 265.52142334" stroke-width="1.41573167" fill="rgb(255, 255, 255)" opacity="1.0" stroke="rgb(61, 144, 130)" stroke-opacity="1.0" stroke-linecap="round" stroke-linejoin="round"/>
    <path d="M 254.22627258 264.40386963 C 249.48507690 265.85931396 244.42431641 267.40161133 239.40301514 268.60101318 C 234.38171387 269.80044556 229.39985657 270.65698242 224.81643677 270.74093628 C 219.06002808 271.11486816 213.89897156 271.32574463 208.70338440 271.54757690 C 203.50779724 271.76940918 198.27767944 272.00225830 192.38317871 272.42004395 C 187.26968384 272.61456299 182.41256714 273.32635498 177.36715698 273.84927368 C 172.32174683 274.37219238 167.08805847 274.70620728 161.22142029 274.14517212 C 155.98774719 273.97546387 150.13410950 273.03939819 144.51445007 271.57266235 C 138.89480591 270.10589600 133.50912476 268.10845947 129.21141052 265.81600952 C 123.83442688 262.50006104 120.70564270 258.03790283 120.78775787 253.69108582 C 120.86987305 249.34426880 124.16287994 245.11276245 131.62948608 242.25814819 C 136.72790527 239.95602417 140.68939209 238.53385925 144.31649780 237.61460876 C 147.94358826 236.69535828 151.23629761 236.27905273 154.99716187 235.98864746 C 160.99151611 235.41351318 166.79837036 235.36953735 172.38066101 235.42036438 C 177.96295166 235.47120667 183.32067871 235.61685181 188.41677856 235.42098999 C 194.53533936 235.35537720 199.80688477 235.09362793 204.81826782 235.07217407 C 209.82966614 235.05070496 214.58091736 235.26953125 219.65890503 236.16502380 C 224.77484131 236.91342163 230.06469727 238.28495789 235.31221008 240.12956238 C 240.55973816 241.97416687 245.76493835 244.29183960 250.71157837 246.93247986 C 257.29440308 249.11782837 262.45703125 252.59060669 263.83197021 255.96456909 C 265.20690918 259.33856201 262.79415894 262.61370850 254.22627258 264.40386963" stroke-width="1.45878136" fill="rgb(253, 255, 253)" opacity="1.0" stroke="rgb(0, 107, 87)" stroke-opacity="1.0" stroke-linecap="round" stroke-linejoin="round"/>
    <path d="M 258.23760986 238.06092834 C 258.51251221 242.35565186 258.92376709 246.93983459 258.65014648 251.56185913 C 258.37652588 256.18386841 257.41806030 260.84375000 254.95346069 265.28982544 C 251.21539307 266.15228271 246.81443787 263.96490479 242.24662781 260.85345459 C 237.67880249 257.74200439 232.94412231 253.70651245 228.53858948 250.87281799 C 223.50469971 247.30178833 219.00584412 244.64723206 214.51602173 242.57951355 C 210.02618408 240.51179504 205.54536438 239.03091431 200.54754639 237.80723572 C 192.91491699 236.17951965 187.23568726 234.77445984 182.25909424 233.15017700 C 177.28250122 231.52587891 173.00854492 229.68237305 168.18652344 227.17773438 C 163.26101685 224.31666565 159.10896301 221.67318726 155.09219360 218.36317444 C 151.07540894 215.05316162 147.19390869 211.07659912 142.80950928 205.54937744 C 139.88314819 199.79139709 138.31655884 194.85478210 138.35343933 191.13298035 C 138.39033508 187.41117859 140.03071594 184.90417480 143.51828003 184.00541687 C 148.73675537 182.78775024 154.64566040 182.89163208 160.36865234 183.66627502 C 166.09165955 184.44093323 171.62876892 185.88638306 176.10366821 187.35183716 C 181.46952820 189.49295044 185.80924988 191.79881287 190.13742065 194.21257019 C 194.46559143 196.62634277 198.78219604 199.14801025 204.10182190 201.72070312 C 209.00836182 204.09295654 213.91108704 206.37384033 218.86375427 208.72094727 C 223.81643677 211.06806946 228.81903076 213.48141479 233.92533875 216.11856079 C 239.29791260 219.43515015 244.03939819 221.16676331 248.10603333 223.94621277 C 252.17266846 226.72566223 255.56443787 230.55294800 258.23760986 238.06092834" stroke-width="1.36898434" fill="rgb(253, 255, 255)" opacity="1.0" stroke="rgb(41, 130, 110)" stroke-opacity="1.0" stroke-linecap="round" stroke-linejoin="round"/>
    <path d="M 249.40585327 219.71353149 C 250.65917969 224.04371643 252.26737976 228.87828064 253.80162048 233.62292480 C 255.33586121 238.36756897 256.79614258 243.02230835 257.75366211 246.99282837 C 257.24343872 252.57444763 254.44601440 255.47634888 250.39236450 256.00625610 C 246.33872986 256.53616333 241.02885437 254.69406128 235.49372864 250.78770447 C 232.37844849 247.65457153 230.04336548 244.24130249 227.78897095 240.14013672 C 225.53457642 236.03897095 223.36087036 231.24993896 220.56831360 225.36523438 C 217.97030640 221.18440247 215.31445312 217.08926392 212.40373230 212.96336365 C 209.49301147 208.83746338 206.32739258 204.68081665 202.70983887 200.37692261 C 200.23951721 197.20314026 197.76458740 193.73858643 195.20376587 189.46279907 C 192.64294434 185.18699646 189.99621582 180.09997559 187.18229675 173.68122864 C 185.83300781 168.76629639 184.96536255 165.53414917 184.40895081 162.30496216 C 183.85252380 159.07577515 183.60733032 155.84951782 183.50296021 150.94635010 C 183.40794373 143.89721680 185.53890991 139.62567139 189.18107605 138.15290833 C 192.82325745 136.68013000 197.97662354 138.00613403 203.92643738 142.15206909 C 207.82798767 144.68798828 211.74188232 148.15640259 215.22709656 151.96882629 C 218.71231079 155.78125000 221.76884460 159.93766785 223.95565796 163.84954834 C 226.50778198 168.50988770 228.77677917 172.91462708 230.87466431 177.34497070 C 232.97254944 181.77529907 234.89932251 186.23124695 236.76698303 190.99397278 C 239.42172241 196.23315430 241.45339966 200.63357544 243.38540649 205.11392212 C 245.31742859 209.59426880 247.14978027 214.15457153 249.40585327 219.71353149" stroke-width="1.40549970" fill="rgb(253, 255, 254)" opacity="1.0" stroke="rgb(60, 145, 127)" stroke-opacity="1.0" stroke-linecap="round" stroke-linejoin="round"/>
    <path d="M 219.89372253 302.17779541 C 217.39880371 300.53955078 215.04887390 298.58837891 212.81643677 296.21682739 C 210.58401489 293.84530640 208.46908569 291.05340576 206.44416809 287.73373413 C 204.41925049 284.41406250 202.48434448 280.56658936 200.61193848 276.08386230 C 199.17306519 272.39517212 198.01367188 268.30297852 197.25706482 264.09439087 C 196.50047302 259.88580322 196.14669800 255.56085205 196.31906128 251.40667725 C 196.49143982 247.25248718 197.18997192 243.26907349 198.53800964 239.74357605 C 199.71325684 235.58815002 201.26844788 231.54190063 203.18260193 227.73234558 C 205.09675598 223.92279053 207.36987305 220.34994507 209.98100281 217.14134216 C 212.59213257 213.93273926 215.54125977 211.08837891 218.80741882 208.73579407 C 221.91918945 206.11148071 225.22805786 203.83374023 228.82780457 201.94935608 C 232.42753601 200.06497192 236.31811523 198.57394409 240.59332275 197.52307129 C 244.86851501 196.47219849 249.52832031 195.86148071 254.66650391 195.73773193 C 257.69683838 195.70623779 260.99417114 195.89624023 264.58764648 196.53248596 C 268.18112183 197.16873169 272.07070923 198.25122070 276.28552246 200.00469971 C 280.50036621 201.75817871 285.04040527 204.18264771 289.93478394 207.50283813 C 292.58340454 209.99346924 294.98611450 212.15971375 297.15902710 214.33323669 C 299.33197021 216.50674438 301.27511597 218.68756104 303.00466919 221.20733643 C 304.73419189 223.72711182 306.25012207 226.58586121 307.56857300 230.11526489 C 309.33975220 235.00939941 310.68572998 239.27149963 311.58032227 243.31979370 C 312.47491455 247.36807251 312.91809082 251.20252991 312.88366699 255.24134827 C 312.84921265 259.28018188 312.33715820 263.52337646 311.32122803 268.38909912 C 310.81985474 271.11801147 309.99832153 274.28070068 308.64501953 277.67733765 C 307.29168701 281.07397461 305.40661621 284.70458984 302.77813721 288.36938477 C 300.14965820 292.03414917 296.77777100 295.73312378 292.45092773 299.26647949 C 289.61621094 301.84719849 286.71844482 304.03308105 283.55181885 305.87429810 C 280.38522339 307.71554565 276.94976807 309.21215820 273.03973389 310.41439819 C 269.12966919 311.61660767 264.74499512 312.52441406 259.67996216 313.18807983 C 255.50775146 313.40322876 251.69491577 313.43951416 247.79925537 312.99624634 C 243.90359497 312.55300903 239.92509460 311.63024902 235.42156982 309.92736816 C 230.91806030 308.22451782 225.88949585 305.74151611 219.89372253 302.17779541" stroke-width="0.90482295" fill="rgb(252, 198, 31)" opacity="1.0" stroke="rgb(236, 213, 139)" stroke-opacity="1.0" stroke-linecap="round" stroke-linejoin="round"/>
    <path d="M 366.93185425 383.23516846 C 364.75787354 387.03881836 363.03503418 389.97604370 361.42727661 392.60861206 C 359.81951904 395.24118042 358.32684326 397.56909180 356.61322021 400.15417480 C 354.89959717 402.73925781 352.96496582 405.58148193 350.47335815 409.24267578 C 347.74972534 413.07983398 345.57894897 416.06481934 343.42172241 418.64346313 C 341.26452637 421.22210693 339.12084961 423.39440918 336.45147705 425.60614014 C 333.78210449 427.81787109 330.58697510 430.06903076 326.32681274 432.80548096 C 322.16751099 435.26525879 318.41052246 437.20755005 314.91696167 438.78466797 C 311.42340088 440.36181641 308.19323730 441.57376099 305.08761597 442.57287598 C 301.98199463 443.57199097 299.00091553 444.35824585 296.00543213 445.08398438 C 291.43063354 445.56219482 286.91235352 446.27081299 282.64477539 446.85879517 C 278.37719727 447.44677734 274.36032104 447.91409302 270.78829956 447.90969849 C 267.21630859 447.90527344 264.08914185 447.42913818 261.60101318 446.13021851 C 261.23739624 442.36093140 261.46267700 439.13937378 262.15475464 435.99468994 C 262.84683228 432.84997559 264.00570679 429.78216553 265.50933838 426.32031250 C 267.01293945 422.85848999 268.86126709 419.00265503 270.93228149 414.28195190 C 273.01828003 410.97396851 274.74411011 408.08486938 276.38583374 405.52120972 C 278.02755737 402.95755005 279.58517456 400.71936035 281.33471680 398.71322632 C 283.08428955 396.70709229 285.02581787 394.93298340 287.43533325 393.29757690 C 290.44076538 391.19644165 292.95236206 389.05160522 295.38595581 386.91662598 C 297.81958008 384.78161621 300.17517090 382.65646362 302.86856079 380.59469604 C 305.56195068 378.53289795 308.59313965 376.53448486 312.37792969 374.65298462 C 316.80334473 373.14529419 320.59078979 371.80288696 324.06094360 370.55630493 C 327.53106689 369.30969238 330.68386841 368.15893555 333.83996582 367.03445435 C 336.99609375 365.90997314 340.15551758 364.81182861 343.63885498 363.67053223 C 348.49490356 362.79907227 352.22848511 362.08383179 355.62942505 361.44161987 C 359.03036499 360.79943848 362.09869385 360.23025513 365.62426758 359.65093994 C 369.14984131 359.07162476 373.13265991 358.48211670 378.36260986 357.79928589 C 381.51849365 357.44433594 381.72708130 359.39788818 380.46032715 362.41183472 C 379.19357300 365.42578125 376.45150757 369.50012207 373.70608521 373.38671875 C 370.96069336 377.27331543 368.21194458 380.97216797 366.93185425 383.23516846" stroke-width="0.77491516" fill="rgb(146, 205, 78)" opacity="1.0" stroke="rgb(110, 170, 0)" stroke-opacity="1.0" stroke-linecap="round" stroke-linejoin="round"/>
  </g>
</svg>
