<?xml version="1.0" ?>
<svg xmlns="http://www.w3.org/2000/svg" version="1.1" width="512" height="512" viewBox="0 0 512 512">
  <defs/>
  <g>
    <path d="M 647.49969482 499.07458496 C 622.77081299 507.56250000 598.12811279 516.15521240 573.40563965 524.67102051 C 548.66217041 533.07641602 523.89349365 541.38995361 498.99655151 549.45483398 C 473.97656250 557.19244385 448.89248657 564.56365967 423.65011597 571.39868164 C 398.18402100 577.64331055 372.64196777 583.20056152 346.92495728 587.89575195 C 321.10809326 591.69152832 295.29641724 594.42449951 269.38848877 596.04180908 C 243.60466003 596.44445801 217.90240479 595.44311523 192.45848083 593.07360840 C 167.35377502 589.20391846 142.67568970 583.71594238 118.63343048 576.59643555 C 95.30677032 567.76190186 72.86170959 557.12915039 51.43150711 544.70953369 C 31.26886940 530.38958740 12.40809727 514.09722900 -4.86389828 495.90158081 C -20.60217285 475.88958740 -34.79983521 454.18923950 -47.47573471 431.12960815 C -58.75028992 406.88943481 -68.61324310 381.69540405 -77.12826538 355.73452759 C -84.26769257 329.30676270 -90.08356476 302.51690674 -94.63354492 275.66592407 C -97.81572723 248.93193054 -99.75055695 222.45750427 -100.34916687 196.45785522 C -99.61270905 171.19285583 -97.51679993 146.59741211 -94.05818939 123.01284790 C -89.20450592 100.44342041 -82.93721008 79.03749084 -75.25827026 58.91246796 C -66.02209473 40.10926819 -55.41480637 22.65722084 -43.26512909 6.67874146 C -29.59381104 -7.87882376 -14.49396992 -21.02998543 2.09283113 -32.69911575 C 20.11322403 -43.01192093 39.51070023 -51.99024582 60.20645905 -59.59515762 C 82.17527008 -65.94993591 105.25135803 -71.10985565 129.37536621 -75.07167816 C 154.40744019 -77.89598083 180.22290039 -79.64030457 206.62370300 -80.27835846 C 233.46304321 -79.87361145 260.59970093 -78.45594025 287.79016113 -75.97313690 C 314.81396484 -72.42192078 341.54666138 -67.72064972 367.79577637 -61.94590378 C 393.23117065 -54.84224319 417.78851318 -46.46166229 441.20132446 -36.62920761 C 463.25415039 -25.25811005 483.76220703 -12.25210857 502.54544067 2.60667443 C 519.36499023 19.29409599 534.46051025 37.73830795 547.83966064 57.75459671 C 559.68078613 79.07965851 570.26928711 101.71540833 579.53247070 125.42600250 C 587.80682373 150.03857422 595.21624756 175.40353394 601.83148193 201.44319153 C 607.83551025 227.92111206 613.40209961 254.84657288 618.52575684 281.97964478 C 623.43426514 309.32583618 628.17352295 336.77349854 632.83111572 364.26473999 C 637.39300537 391.82727051 642.03143311 419.32546997 647.49969482 499.07458496" stroke-width="2.00000000" fill="rgb(210, 242, 254)" opacity="1.0" stroke="rgb(146, 229, 255)" stroke-opacity="0.3866914" stroke-linecap="round" stroke-linejoin="round"/>
    <path d="M 248.86524963 483.50189209 C 248.50131226 478.67083740 248.24481201 473.75503540 248.19195557 468.78665161 C 247.96389771 463.72018433 247.78373718 458.69744873 247.61845398 453.56021118 C 247.47229004 448.42114258 247.36518860 443.22079468 247.17059326 437.96850586 C 246.89593506 432.68524170 246.74687195 427.42041016 246.68856812 422.13174438 C 246.57339478 416.91543579 246.49963379 411.76049805 246.44267273 406.73196411 C 246.42619324 401.77273560 246.36520386 397.06777954 246.31300354 392.56140137 C 246.32908630 388.30276489 246.50975037 384.37576294 246.92468262 380.78854370 C 247.49229431 377.58975220 248.19989014 374.81689453 249.08007812 372.51446533 C 250.06350708 370.67984009 251.12745667 369.33221436 252.19351196 368.53244019 C 253.34768677 368.21688843 254.48493958 368.42468262 255.55383301 369.14889526 C 256.66571045 370.35144043 257.62512207 372.05999756 258.48358154 374.19027710 C 259.15997314 376.80239868 259.70764160 379.76553345 260.09277344 383.13601685 C 260.15466309 386.82977295 260.14138794 390.81130981 260.10757446 395.05596924 C 260.08734131 399.47763062 260.04937744 404.08734131 260.10989380 408.79708862 C 260.18908691 413.59243774 260.27859497 418.47467041 260.29559326 423.33499146 C 260.34396362 428.17272949 260.56219482 433.06283569 260.91052246 437.81362915 C 261.22335815 442.51843262 261.42556763 447.23162842 261.49343872 451.83508301 C 261.55917358 456.43365479 261.53225708 460.97741699 261.58056641 465.50714111 C 261.67187500 470.02978516 261.80404663 474.55960083 261.80068970 479.08654785 C 261.53887939 483.73480225 261.23403931 488.40579224 248.86524963 483.50189209" stroke-width="1.09121287" fill="rgb(137, 196, 76)" opacity="1.0" stroke="rgb(166, 209, 155)" stroke-opacity="0.797514" stroke-linecap="round" stroke-linejoin="round"/>
    <path d="M 276.05297852 241.14425659 C 273.72473145 241.85125732 271.40457153 242.44955444 269.10864258 243.08027649 C 266.76547241 243.65141296 264.49084473 244.15376282 262.25091553 244.50729370 C 260.01794434 244.71028137 257.85348511 244.73596191 255.74179077 244.46023560 C 253.69935608 243.88418579 251.71284485 243.01448059 249.83065796 241.74427795 C 247.99209595 240.07081604 246.29580688 237.94436646 244.73345947 235.45323181 C 243.30851746 232.41897583 241.92591858 228.87123108 240.62028503 225.02085876 C 239.49617004 220.66950989 238.56872559 215.91719055 237.73095703 210.73133850 C 237.03686523 205.23463440 236.48355103 199.49491882 236.04940796 193.44979858 C 235.83946228 187.16302490 235.60600281 180.75959778 235.21427917 174.38351440 C 235.02751160 167.98526001 235.10725403 161.60585022 235.55902100 155.35321045 C 236.31596375 149.31716919 237.59519958 143.56719971 239.38769531 138.28846741 C 241.39851379 133.44956970 243.68827820 129.10398865 245.91786194 125.43659210 C 248.05603027 122.49900818 250.53529358 120.63289642 253.12779236 119.66081238 C 255.63330078 119.49664307 258.15551758 120.22881317 260.57122803 121.82360840 C 262.82095337 124.14284515 264.92913818 127.20140839 266.97753906 130.72587585 C 268.87341309 134.64413452 270.52206421 139.10122681 271.75613403 143.98075867 C 272.95254517 149.03410339 273.71087646 154.44952393 274.20288086 160.16461182 C 274.54357910 165.96237183 274.47656250 171.90557861 273.94866943 177.94520569 C 273.40008545 184.03248596 273.17053223 190.28451538 273.12622070 196.55935669 C 273.01766968 202.78982544 272.86856079 208.95004272 276.05297852 241.14425659" stroke-width="2.00000000" fill="rgb(250, 254, 252)" opacity="1.0" stroke="rgb(66, 146, 136)" stroke-opacity="0.7790004" stroke-linecap="round" stroke-linejoin="round"/>
    <path d="M 305.00314331 203.82728577 C 302.39691162 209.23435974 299.70376587 214.60389709 296.93560791 219.77458191 C 294.11654663 224.77175903 291.19143677 229.43064880 288.23547363 233.79853821 C 285.33999634 237.73373413 282.46728516 241.38412476 279.72052002 244.60205078 C 277.03060913 247.35755920 274.48574829 249.54272461 272.14944458 251.32569885 C 269.91680908 252.58334351 267.92996216 253.30696106 266.21945190 253.49349976 C 264.66497803 253.14529419 263.50802612 252.24752808 262.48083496 250.89926147 C 261.76095581 249.02398682 261.35128784 246.56092834 261.19894409 243.69760132 C 261.26318359 240.46176147 261.71994019 236.70083618 262.35293579 232.52894592 C 263.20239258 228.06082153 264.26141357 223.27888489 265.53820801 218.13557434 C 266.91439819 212.70252991 268.37805176 207.10943604 269.98101807 201.29995728 C 271.63812256 195.28886414 273.47341919 189.24674988 275.72927856 183.23149109 C 278.57427979 177.28829956 281.46423340 171.31991577 284.51818848 165.54222107 C 287.83636475 160.10432434 291.46630859 155.22621155 295.31497192 150.79383850 C 299.41049194 146.99259949 303.39221191 143.81484985 307.17575073 141.08883667 C 310.74023438 138.92478943 314.10250854 137.61050415 317.10589600 137.19741821 C 319.69384766 137.31936646 321.78033447 138.30563354 323.33535767 140.18038940 C 324.54650879 142.63119507 325.28607178 145.76631165 325.57113647 149.37348938 C 325.68231201 153.31098938 325.46990967 157.71437073 324.77175903 162.50613403 C 323.93106079 167.36393738 322.55804443 172.21160889 320.61889648 177.09254456 C 318.46142578 182.01940918 316.46820068 187.16304016 305.00314331 203.82728577" stroke-width="2.00000000" fill="rgb(252, 255, 254)" opacity="1.0" stroke="rgb(77, 150, 141)" stroke-opacity="0.7879613" stroke-linecap="round" stroke-linejoin="round"/>
    <path d="M 364.01119995 208.49320984 C 360.34716797 212.92672729 356.31112671 216.93472290 352.00070190 220.71000671 C 347.54171753 224.11686707 342.70425415 227.05905151 337.61666870 229.57176208 C 332.44284058 231.87159729 327.49249268 234.56860352 322.56646729 237.33035278 C 317.58773804 239.82868958 312.63897705 242.03315735 307.62930298 244.00553894 C 302.77600098 245.68934631 298.09268188 247.15086365 293.58993530 248.30432129 C 289.29052734 249.19989014 285.34268188 249.91537476 281.74795532 250.35882568 C 278.49899292 250.58666992 275.69378662 250.53085327 273.30969238 250.33233643 C 271.41888428 249.85827637 270.08724976 249.19973755 269.19989014 248.31866455 C 268.79415894 247.20860291 268.89959717 245.86122131 269.61157227 244.32960510 C 270.70318604 242.60366821 272.29373169 240.66027832 274.32952881 238.47384644 C 276.69088745 236.07783508 279.37246704 233.50355530 282.38732910 230.68428040 C 285.56250000 227.64932251 288.87649536 224.36039734 292.29925537 220.92680359 C 295.72631836 217.29141235 299.03060913 213.36526489 302.18942261 209.24934387 C 305.35488892 205.17768860 308.79754639 201.32302856 312.84442139 198.14248657 C 317.48251343 195.41543579 322.21630859 192.69552612 327.02560425 190.13650513 C 331.88027954 187.78526306 336.76037598 186.15499878 341.67608643 184.93864441 C 346.42834473 183.86842346 350.94210815 183.28228760 355.25540161 183.24949646 C 359.27435303 183.18492126 362.79980469 183.30180359 365.71221924 183.82688904 C 368.05526733 184.58424377 369.68988037 186.22909546 370.55895996 188.82145691 C 371.06488037 192.19261169 372.02441406 196.01623535 364.01119995 208.49320984" stroke-width="2.00000000" fill="rgb(250, 254, 254)" opacity="1.0" stroke="rgb(71, 150, 142)" stroke-opacity="0.7951861" stroke-linecap="round" stroke-linejoin="round"/>
    <path d="M 384.41073608 261.60977173 C 380.00512695 265.31948853 375.17373657 268.27886963 369.90170288 270.35684204 C 364.25582886 272.27511597 358.26538086 273.47717285 352.08032227 274.14126587 C 345.78411865 274.54409790 339.39453125 274.50070190 332.97604370 274.40393066 C 326.54431152 274.63433838 320.18374634 274.94940186 313.85845947 275.11682129 C 307.71697998 275.16870117 301.78533936 275.07656860 296.11340332 274.92605591 C 290.73641968 274.73593140 285.61743164 274.31295776 280.90661621 273.77633667 C 276.59988403 273.07135010 272.75540161 272.39093018 269.41110229 271.57904053 C 266.42904663 270.65930176 264.04119873 269.59036255 262.22863770 268.44342041 C 260.94305420 267.16998291 260.21231079 265.78485107 260.04913330 264.33776855 C 260.39996338 262.86059570 261.38446045 261.26742554 262.87167358 259.64700317 C 264.92303467 257.99221802 267.43020630 256.28564453 270.42602539 254.54182434 C 273.92532349 252.83708191 277.82226562 251.13687134 282.01876831 249.37477112 C 286.60656738 247.69297791 291.48901367 246.11248779 296.54837036 244.48599243 C 301.74148560 242.84613037 306.99874878 241.31082153 312.33898926 239.90142822 C 317.62097168 238.53750610 322.70382690 237.06210327 327.62286377 235.65200806 C 332.46496582 235.24617004 337.36013794 235.20216370 342.13201904 235.19317627 C 346.87243652 235.14480591 351.51202393 235.29411316 356.09759521 235.68672180 C 360.59436035 236.46063232 365.11419678 237.44805908 369.54357910 238.63804626 C 373.75601196 240.19845581 377.96643066 242.14640808 381.84991455 244.76348877 C 385.61691284 248.05374146 389.43731689 251.56732178 384.41073608 261.60977173" stroke-width="2.00000000" fill="rgb(253, 255, 255)" opacity="1.0" stroke="rgb(28, 119, 108)" stroke-opacity="0.5739935" stroke-linecap="round" stroke-linejoin="round"/>
    <path d="M 365.34036255 325.39944458 C 360.09649658 325.63543701 354.89108276 325.57546997 349.74655151 325.33331299 C 344.49621582 324.71923828 339.39364624 323.74981689 334.42062378 322.34771729 C 329.50103760 320.60980225 324.70669556 318.41036987 320.08828735 315.76547241 C 315.50036621 312.91677856 310.61599731 310.33364868 305.73904419 307.77255249 C 300.99301147 305.00714111 296.31134033 302.07803345 291.79553223 299.03381348 C 287.53768921 295.95617676 283.52951050 292.88735962 279.71072388 289.86764526 C 276.24499512 286.86770630 273.15704346 284.03173828 270.41754150 281.31994629 C 268.02124023 278.68859863 266.17575073 276.31182861 264.73156738 274.18984985 C 263.72747803 272.26901245 263.19473267 270.57894897 263.21801758 269.06814575 C 263.71212769 267.91537476 264.66787720 267.05038452 266.13769531 266.39324951 C 268.06033325 266.00051880 270.47198486 265.86590576 273.35189819 265.92587280 C 276.65158081 266.22528076 280.24340820 266.72015381 284.23303223 267.49819946 C 288.51654053 268.37216187 293.10037231 269.26300049 297.90789795 270.19610596 C 302.84356689 271.21743774 307.93930054 272.32522583 313.04443359 273.29733276 C 318.07647705 274.29510498 323.10028076 275.01278687 327.91305542 275.65609741 C 332.31262207 277.28726196 336.64810181 279.41137695 340.83059692 281.70092773 C 345.03924561 284.05181885 348.96691895 286.71429443 352.81369019 289.58843994 C 356.43072510 292.57873535 359.86288452 295.90258789 362.99041748 299.52542114 C 365.90319824 303.23269653 368.40322876 307.35122681 370.33056641 311.89270020 C 372.08935547 316.73550415 373.53439331 321.81838989 365.34036255 325.39944458" stroke-width="2.00000000" fill="rgb(253, 254, 254)" opacity="1.0" stroke="rgb(22, 115, 102)" stroke-opacity="0.5488558" stroke-linecap="round" stroke-linejoin="round"/>
    <path d="M 325.64083862 357.26577759 C 325.17431641 360.21130371 324.74685669 363.08071899 324.11810303 365.75180054 C 323.19299316 367.83798218 321.89242554 369.29745483 319.97747803 370.28311157 C 317.66690063 370.82073975 314.99227905 370.66256714 312.10720825 369.58175659 C 308.80563354 367.83251953 305.14962769 365.64361572 301.34078979 362.77258301 C 297.55355835 359.29357910 293.71987915 355.55477905 290.00344849 351.27941895 C 286.50708008 346.50588989 283.21405029 341.45501709 280.29843140 336.02276611 C 277.33477783 330.47488403 274.26083374 324.94702148 271.27755737 319.43972778 C 268.46914673 314.00305176 265.91809082 308.55963135 263.67330933 303.22531128 C 261.72393799 298.06420898 259.97619629 293.06283569 258.55691528 288.38723755 C 257.47268677 284.08154297 256.65417480 280.05032349 256.14242554 276.38177490 C 255.89172363 273.15203857 255.97018433 270.43872070 256.31784058 268.12664795 C 256.92687988 266.23455811 257.80465698 264.91491699 258.90322876 264.10214233 C 260.31124878 263.69070435 261.95837402 263.75561523 263.82891846 264.31048584 C 265.86831665 265.35971069 268.18402100 266.77728271 270.63543701 268.61801147 C 273.30450439 270.89950562 276.11245728 273.52764893 279.08712769 276.45114136 C 282.18258667 279.66589355 285.44271851 283.20608521 288.76440430 287.01077271 C 292.22335815 290.96517944 295.69546509 295.13867188 299.26791382 299.47857666 C 303.06533813 303.84237671 306.87866211 308.25463867 310.49185181 313.02865601 C 313.72604370 318.32974243 316.84121704 323.93984985 319.58865356 329.79382324 C 322.08700562 336.06246948 324.86871338 342.28878784 325.64083862 357.26577759" stroke-width="2.00000000" fill="rgb(252, 254, 255)" opacity="1.0" stroke="rgb(14, 105, 87)" stroke-opacity="0.53048533" stroke-linecap="round" stroke-linejoin="round"/>
    <path d="M 269.83334351 366.17602539 C 268.67700195 369.54022217 267.21133423 372.77905273 265.67745972 375.81335449 C 264.15393066 378.57635498 262.44650269 381.04437256 260.50936890 382.99295044 C 258.40756226 384.47933960 256.19454956 385.32580566 253.79483032 385.45996094 C 251.35755920 384.90103149 248.91201782 383.68359375 246.49906921 381.64373779 C 244.37626648 378.91125488 242.40130615 375.49011230 240.65942383 371.50473022 C 238.98468018 367.00457764 237.43286133 362.08786011 236.33908081 356.82269287 C 235.43069458 351.30270386 235.11073303 345.40881348 235.07463074 339.31152344 C 235.34738159 333.17974854 235.59297180 327.05596924 235.83624268 320.88986206 C 236.28321838 314.78610229 236.78468323 308.88641357 237.43066406 303.18911743 C 238.18154907 297.76022339 238.91163635 292.63519287 239.75918579 287.93136597 C 240.73217773 283.61761475 241.83021545 279.68899536 242.99188232 276.35577393 C 244.13938904 273.47497559 245.34980774 271.08959961 246.68238831 269.26971436 C 247.96366882 268.07537842 249.33406067 267.38861084 250.72496033 267.21890259 C 252.13102722 267.62124634 253.53814697 268.66912842 254.98207092 270.15335083 C 256.46804810 272.15386963 257.89758301 274.67602539 259.33901978 277.71160889 C 260.81201172 281.15631104 262.26275635 285.03869629 263.71459961 289.34838867 C 265.11447144 293.97900391 266.51116943 298.83877563 267.91140747 304.01138306 C 269.32052612 309.47695923 270.59402466 315.00946045 271.96417236 320.59857178 C 273.37655640 326.20111084 273.97869873 331.96347046 273.84634399 338.01901245 C 273.88250732 344.21502686 274.21353149 350.41470337 269.83334351 366.17602539" stroke-width="2.00000000" fill="rgb(252, 254, 255)" opacity="1.0" stroke="rgb(83, 154, 138)" stroke-opacity="0.8609372" stroke-linecap="round" stroke-linejoin="round"/>
    <path d="M 219.85780334 351.93606567 C 216.05810547 355.94488525 212.33341980 359.85824585 208.44223022 363.31127930 C 204.73519897 366.28067017 200.94329834 368.45858765 197.19316101 369.90936279 C 193.90687561 370.86758423 190.98941040 371.01428223 188.43101501 370.39855957 C 186.33059692 369.00836182 184.68249512 366.92849731 183.70564270 364.14721680 C 183.34132385 360.57748413 183.32109070 356.46981812 183.55932617 351.91809082 C 184.06573486 347.10543823 185.21054077 342.06420898 186.89646912 336.91955566 C 188.72319031 331.60324097 191.12953186 326.29898071 194.12623596 321.12615967 C 197.39823914 316.11441040 200.68191528 310.96151733 203.70800781 305.70074463 C 206.66337585 300.54809570 209.64271545 295.54190063 212.70266724 290.70935059 C 215.81410217 286.24664307 218.94937134 282.19781494 222.14485168 278.57254028 C 225.18309021 275.34509277 228.08692932 272.51770020 230.81297302 270.10552979 C 233.33070374 268.15472412 235.68060303 266.65719604 237.78468323 265.63461304 C 239.73713684 265.08685303 241.41793823 265.06948853 242.85035706 265.48144531 C 244.03097534 266.28240967 244.94969177 267.52832031 245.60330200 269.23611450 C 246.05790710 271.29531860 246.28506470 273.73376465 246.22465515 276.44085693 C 245.94961548 279.50225830 245.50296021 282.83700562 244.87699890 286.53628540 C 244.17269897 290.32171631 243.25363159 294.37472534 242.15135193 298.65975952 C 240.96203613 303.03134155 239.72161865 307.58706665 238.41275024 312.27017212 C 237.10568237 317.14035034 235.85092163 322.11892700 234.24314880 327.08587646 C 232.31260681 332.06509399 230.43341064 337.29885864 219.85780334 351.93606567" stroke-width="2.00000000" fill="rgb(251, 255, 255)" opacity="1.0" stroke="rgb(88, 159, 152)" stroke-opacity="0.9019153" stroke-linecap="round" stroke-linejoin="round"/>
    <path d="M 234.32775879 264.24172974 C 231.04690552 268.43780518 227.80758667 272.56854248 224.66973877 276.78955078 C 221.52729797 281.02139282 218.38903809 285.20330811 215.15948486 289.18737793 C 211.95033264 293.21243286 208.92785645 297.31845093 205.84576416 301.30215454 C 202.97108459 305.21951294 200.03311157 309.06076050 196.26473999 312.19091797 C 191.85536194 314.82821655 186.96794128 317.45001221 181.84886169 319.82995605 C 176.36981201 321.83489990 170.96293640 323.46994019 165.46009827 324.62985229 C 160.04605103 325.39065552 154.84368896 325.72149658 150.13667297 325.65368652 C 146.06283569 325.48843384 142.59757996 324.82714844 139.86358643 323.54742432 C 138.04571533 321.63482666 137.27987671 319.08132935 137.45248413 316.05859375 C 138.28410339 312.90075684 139.89288330 309.35125732 142.02845764 305.55349731 C 144.58799744 301.67202759 147.75453186 297.99725342 151.41116333 294.29629517 C 155.31204224 290.69671631 159.61059570 287.34936523 164.06813049 284.25491333 C 168.70079041 281.33624268 173.41346741 278.85415649 178.39126587 276.65444946 C 183.22561646 274.40740967 187.97613525 272.18554688 192.61390686 269.87350464 C 197.08985901 267.57977295 201.41738892 265.30374146 205.55067444 263.10388184 C 209.56958008 260.97348022 213.45361328 258.89337158 217.18287659 256.94515991 C 220.76010132 255.04934692 224.21350098 253.29771423 227.60063171 251.64192200 C 230.90237427 250.11328125 234.13833618 248.70156860 237.28662109 247.27580261 C 240.41094971 245.90390015 243.51924133 244.64540100 246.59028625 243.36819458 C 249.71185303 242.08944702 252.75132751 240.84034729 234.32775879 264.24172974" stroke-width="2.00000000" fill="rgb(250, 255, 255)" opacity="1.0" stroke="rgb(77, 148, 139)" stroke-opacity="0.78027135" stroke-linecap="round" stroke-linejoin="round"/>
    <path d="M 257.79495239 264.25534058 C 252.12129211 264.91079712 246.37046814 265.46694946 240.67774963 265.99221802 C 235.01828003 266.56744385 229.27496338 267.15106201 223.54298401 267.80331421 C 217.80104065 268.47363281 212.06541443 269.13092041 206.38194275 269.83407593 C 200.61329651 270.66082764 194.83680725 271.52841187 189.17947388 272.52307129 C 183.58712769 273.65835571 178.00830078 274.52340698 172.29130554 274.84677124 C 166.39944458 274.77124023 160.48330688 274.54995728 154.73112488 274.11083984 C 149.11297607 273.16998291 143.69058228 272.08065796 138.70495605 270.48645020 C 134.08843994 268.77136230 130.05102539 266.74890137 126.58634186 264.49822998 C 123.70909119 262.20568848 121.71081543 259.72280884 120.69523621 256.88931274 C 120.21472931 253.82916260 120.51939392 250.85757446 121.81054688 248.17405701 C 124.12864685 245.78637695 127.29820251 243.66101074 131.11622620 241.69906616 C 135.50442505 239.84204102 140.48149109 238.15635681 145.75068665 236.77784729 C 151.48330688 235.72377014 157.47628784 235.19557190 163.66789246 235.07174683 C 169.98081970 235.12791443 176.33546448 235.36537170 182.72227478 235.51249695 C 189.03584290 235.36032104 195.21804810 235.49774170 201.38395691 235.88198853 C 207.37144470 236.53472900 213.20172119 237.38664246 218.92948914 238.38240051 C 224.46871948 239.57348633 229.87934875 240.90977478 235.15766907 242.23272705 C 240.36308289 243.60769653 245.49562073 245.09428406 250.47296143 246.58111572 C 255.48927307 248.17091370 260.42431641 249.63703918 265.37197876 251.23390198 C 270.24838257 252.79063416 275.20349121 254.35467529 257.79495239 264.25534058" stroke-width="2.00000000" fill="rgb(253, 255, 254)" opacity="1.0" stroke="rgb(61, 141, 133)" stroke-opacity="0.67401683" stroke-linecap="round" stroke-linejoin="round"/>
    <path d="M 271.64404297 260.30905151 C 268.10757446 259.19750977 264.51715088 258.08444214 260.97189331 256.99270630 C 257.40444946 255.80432129 253.73905945 254.62738037 250.04017639 253.49263000 C 246.27171326 252.27294922 242.34082031 250.97119141 238.26913452 249.66702271 C 234.09577942 248.36817932 229.75245667 246.90843201 225.23208618 245.43931580 C 220.50254822 243.96769714 215.63780212 242.46000671 210.58917236 240.82290649 C 205.40451050 239.26847839 200.06671143 237.84416199 194.53771973 236.54971313 C 188.94615173 235.27200317 183.38252258 234.03153992 177.87828064 232.36903381 C 172.53956604 230.27590942 167.53424072 227.76676941 162.76232910 224.79878235 C 158.18876648 221.65779114 153.98155212 218.17234802 150.21455383 214.46311951 C 146.69403076 210.77259827 143.61999512 207.02229309 141.21865845 203.16581726 C 139.31671143 199.41889954 138.11807251 195.74081421 137.59655762 192.28633118 C 137.81407166 189.27716064 138.92694092 186.78552246 140.79998779 184.92761230 C 143.42265320 183.73625183 146.81297302 183.19703674 150.81123352 183.09838867 C 155.28849792 182.99560547 160.18202209 183.24264526 165.39625549 184.06231689 C 170.77282715 185.22554016 176.19470215 187.00993347 181.65884399 189.39535522 C 187.10981750 192.21485901 192.47097778 195.28327942 197.98211670 198.56634521 C 203.59135437 201.54783630 209.36663818 204.44270325 215.12106323 207.40171814 C 220.76301575 210.48075867 226.49644470 213.53172302 232.21771240 216.52377319 C 237.91824341 219.57315063 243.62550354 222.67332458 249.28073120 225.71319580 C 254.90739441 228.79289246 260.62060547 231.90969849 271.64404297 260.30905151" stroke-width="2.00000000" fill="rgb(253, 254, 255)" opacity="1.0" stroke="rgb(82, 150, 142)" stroke-opacity="0.7776642" stroke-linecap="round" stroke-linejoin="round"/>
    <path d="M 261.61502075 243.84143066 C 259.73251343 244.06834412 257.88125610 244.23506165 256.04101562 244.45697021 C 254.18917847 244.60475159 252.29943848 244.66043091 250.31562805 244.68484497 C 248.38369751 244.50025940 246.42095947 244.18676758 244.33334351 243.63946533 C 242.18467712 242.86947632 239.94229126 241.84829712 237.64801025 240.51354980 C 235.30656433 238.82325745 232.78668213 236.85720825 230.11289978 234.57293701 C 227.39291382 231.85385132 224.57519531 228.86091614 221.61845398 225.51341248 C 218.52416992 221.98171997 215.44934082 218.04835510 212.30659485 213.79519653 C 209.13095093 209.35707092 205.83840942 204.76878357 202.30789185 200.20843506 C 198.66079712 195.58996582 195.35704041 190.78945923 192.45162964 185.73251343 C 189.70559692 180.57441711 187.41941833 175.52081299 185.71267700 170.26184082 C 184.25126648 165.15383911 183.47781372 160.18150330 183.20289612 155.43096924 C 183.05567932 151.01705933 183.41236877 147.00639343 183.93572998 143.50677490 C 184.87332153 140.74707031 186.36286926 138.78671265 188.44868469 137.65589905 C 191.21308899 137.16899109 194.43203735 137.39350891 197.84156799 138.49340820 C 201.44302368 140.26242065 205.26423645 142.63526917 209.15150452 145.44340515 C 212.77796936 148.78660583 216.23838806 152.65303040 219.54914856 156.85385132 C 222.78277588 161.26095581 225.73509216 166.01106262 228.25842285 171.01884460 C 230.89654541 176.17608643 233.29544067 181.41184998 235.32302856 186.92535400 C 236.95779419 192.59947205 238.39270020 198.46585083 239.72251892 204.37394714 C 241.10015869 210.27964783 242.49423218 216.29124451 261.61502075 243.84143066" stroke-width="2.00000000" fill="rgb(250, 255, 253)" opacity="1.0" stroke="rgb(0, 97, 75)" stroke-opacity="0.47378087" stroke-linecap="round" stroke-linejoin="round"/>
    <path d="M 221.02806091 302.93704224 C 217.83656311 300.46588135 214.76200867 297.88809204 211.89347839 295.22045898 C 209.23724365 292.15301514 206.92416382 288.84484863 204.80361938 285.38070679 C 202.81925964 281.72293091 201.05410767 277.94308472 199.51828003 274.09381104 C 198.20404053 270.13104248 197.26701355 266.11325073 196.56657410 262.07730103 C 196.14303589 258.02697754 196.01754761 254.00309753 196.22422791 249.91754150 C 196.67721558 245.89398193 197.46586609 241.93913269 198.63755798 238.03923035 C 200.09460449 234.15725708 201.73315430 230.33045959 203.59977722 226.58682251 C 205.68357849 222.98269653 208.06875610 219.58068848 210.65924072 216.29650879 C 213.50852966 213.20715332 216.53332520 210.32667542 219.65451050 207.61067200 C 222.96826172 205.19982910 226.54884338 203.09323120 230.23490906 201.25941467 C 233.96446228 199.59606934 237.86154175 198.11198425 241.82882690 197.01133728 C 245.91676331 196.39105225 250.03570557 195.94792175 254.21147156 195.61909485 C 258.30261230 195.62742615 262.35479736 195.99481201 266.34057617 196.66874695 C 270.18051147 197.56358337 273.89978027 198.85321045 277.60455322 200.44540405 C 281.24926758 202.12358093 284.76800537 203.97386169 288.14297485 206.18292236 C 291.36639404 208.55938721 294.44174194 211.06652832 297.39849854 213.63186646 C 299.86422729 216.59164429 302.14230347 219.67211914 304.25073242 222.86192322 C 306.11532593 226.28289795 307.73910522 229.78236389 309.21807861 233.30334473 C 310.47180176 236.99842834 311.53485107 240.82385254 312.30517578 244.68321228 C 312.88436890 248.58958435 313.16409302 252.56520081 313.20303345 256.54693604 C 312.94116211 260.58480835 312.48178101 264.58331299 311.75738525 268.52328491 C 310.70465088 272.40081787 309.40921021 276.28640747 307.88674927 280.03619385 C 306.03927612 283.67019653 303.85604858 287.13775635 301.49609375 290.47595215 C 298.84802246 293.65222168 295.97100830 296.59692383 292.85211182 299.38070679 C 289.66076660 302.07635498 286.36938477 304.51528931 282.84411621 306.65924072 C 279.15737915 308.49026489 275.40853882 309.90518188 271.69116211 311.13943481 C 267.89038086 312.04846191 264.04217529 312.67123413 260.31387329 313.19137573 C 256.59732056 313.52758789 252.78799438 313.55026245 249.07246399 313.24371338 C 245.28007507 312.68698120 241.59661865 311.98019409 237.91671753 310.90402222 C 234.12945557 309.79406738 230.27021790 308.80548096 221.02806091 302.93704224" stroke-width="1.46282482" fill="rgb(251, 199, 31)" opacity="1.0" stroke="rgb(234, 212, 139)" stroke-opacity="1.0" stroke-linecap="round" stroke-linejoin="round"/>
    <path d="M 367.34912109 383.00024414 C 365.49130249 386.01959229 363.66043091 389.07955933 361.86782837 392.10906982 C 360.03836060 395.17620850 358.20050049 398.23269653 356.32305908 401.23815918 C 354.40533447 404.32470703 352.40545654 407.27258301 350.23904419 410.18750000 C 347.99291992 413.07223511 345.68511963 415.96679688 343.22817993 418.79592896 C 340.60342407 421.52865601 337.86929321 424.18923950 335.02798462 426.78460693 C 331.94754028 429.29632568 328.69906616 431.62255859 325.23733521 433.77523804 C 321.70611572 435.85641479 317.99044800 437.74392700 314.16424561 439.53121948 C 310.23931885 441.15103149 306.16436768 442.57092285 302.00677490 443.68090820 C 297.78070068 444.64495850 293.55209351 445.47494507 289.38226318 446.18496704 C 285.27514648 446.72436523 281.36999512 447.13403320 277.61587524 447.52148438 C 274.14636230 447.69555664 271.00189209 447.89559937 268.21377563 447.92031860 C 265.83145142 447.79141235 263.95336914 447.36810303 262.60153198 446.55661011 C 261.80801392 445.10348511 261.46481323 443.26211548 261.46884155 440.91461182 C 261.85498047 438.34286499 262.53723145 435.44885254 263.38348389 432.29769897 C 264.37069702 428.95367432 265.50857544 425.52059937 266.88171387 421.99133301 C 268.45877075 418.46582031 270.19683838 415.01281738 272.15130615 411.57681274 C 274.29980469 408.21463013 276.59518433 404.94125366 278.98657227 401.80340576 C 281.64663696 398.88806152 284.36749268 396.02224731 287.08358765 393.25582886 C 289.87170410 390.64212036 292.76260376 388.13775635 295.81228638 385.84957886 C 298.86026001 383.72985840 302.00112915 381.60717773 305.10382080 379.44067383 C 308.03164673 377.19967651 311.06915283 375.15447998 314.25646973 373.40673828 C 317.80725098 372.19088745 321.46990967 371.03326416 325.11453247 369.73226929 C 328.85247803 368.44015503 332.65512085 367.22192383 336.46728516 366.12353516 C 340.27325439 364.94049072 343.95410156 363.85638428 347.64620972 362.87997437 C 351.21649170 361.94476318 354.71081543 361.16162109 358.01367188 360.55303955 C 361.27835083 360.09497070 364.32312012 359.65765381 367.15655518 359.29507446 C 369.82473755 359.01760864 372.23968506 358.84970093 374.49972534 358.69747925 C 376.46438599 358.59371948 378.21157837 358.38110352 379.75344849 358.17907715 C 381.10238647 357.99215698 382.16619873 357.98059082 383.07330322 357.86370850 C 383.74136353 357.58068848 384.19876099 357.17431641 367.34912109 383.00024414" stroke-width="1.21751845" fill="rgb(147, 205, 80)" opacity="1.0" stroke="rgb(106, 167, 0)" stroke-opacity="0.362514" stroke-linecap="round" stroke-linejoin="round"/>
  </g>
</svg>
