<svg xmlns="http://www.w3.org/2000/svg" viewBox="0 0 512 512" height="512.0px" width="512.0px">
<path id="" fill="rgb(210, 241, 252)" fill-opacity="1.0" stroke="rgb(153, 232, 255)" stroke-width="2.0" stroke-opacity="1.0" stroke-linecap="round" stroke-linejoin="round"  filling="0" d="M611.247314 455.822083 C599.990173 476.888458 585.539368 494.639160 568.416565 510.019165 C551.293762 525.399170 531.498962 538.408569 509.553802 549.992310 C487.608643 561.576111 463.513123 571.734253 437.788879 581.411865 C414.833038 587.396179 390.972992 591.866455 365.896484 594.685486 C340.819946 597.504517 314.526917 598.672424 286.705109 598.052063 C258.883301 597.431702 229.532700 595.023071 198.341003 590.689209 C170.889069 584.690918 143.972839 578.218994 118.603241 570.283081 C93.233643 562.347168 69.410675 552.947266 48.145260 541.092957 C26.879848 529.238647 8.171992 514.929932 -6.967377 497.176331 C-21.450296 478.642365 -33.117863 457.098877 -42.584957 433.530304 C-52.052048 409.961731 -59.318668 384.368073 -64.999702 357.733734 C-70.680733 331.099426 -74.776169 303.424438 -77.900909 275.693268 C-79.605705 246.431992 -81.899673 217.315491 -84.034378 189.002151 C-86.169083 160.688812 -88.144508 133.178665 -89.212219 107.130058 C-90.279922 81.081467 -90.439911 56.494427 -88.943726 34.027344 C-77.584999 14.701436 -65.600441 -0.977871 -52.511032 -13.896636 C-39.421623 -26.815401 -25.227364 -36.973621 -9.449246 -45.257355 C6.328871 -53.541092 23.690847 -59.950340 43.115692 -65.371155 C69.109123 -67.493591 94.771957 -67.834015 120.573540 -66.989494 C146.375137 -66.144974 172.315475 -64.115509 198.863922 -61.498154 C225.412384 -58.880798 252.568939 -55.675560 280.802948 -52.479492 C312.728668 -48.172100 341.932098 -43.876308 368.921387 -38.905949 C395.910675 -33.935585 420.685791 -28.290651 443.754883 -21.284971 C466.823944 -14.279289 488.186951 -5.912862 508.351959 4.500488 C522.639526 26.072927 534.308594 47.803181 544.371338 69.921745 C554.434082 92.040314 562.890381 114.547180 570.752258 137.672852 C578.614197 160.798523 585.881714 184.542999 593.566895 209.136765 C600.743652 237.168411 606.402893 265.838959 610.324646 294.302094 C614.246460 322.765259 616.430786 351.021027 616.657898 378.223114 C616.884949 405.425201 615.154724 431.573608 611.247314 455.822083"></path>
<path id="" fill="rgb(140, 195, 77)" fill-opacity="1.0" stroke="rgb(139, 190, 97)" stroke-width="0.7460475" stroke-opacity="1.0" stroke-linecap="round" stroke-linejoin="round"  filling="0" d="M249.784363 483.247772 C248.734985 478.663940 248.549667 475.018585 248.466217 471.063904 C248.382751 467.109253 248.401154 462.845245 247.759247 457.024109 C247.880554 452.169678 247.776917 446.811035 247.602051 441.503174 C247.427185 436.195312 247.181076 430.938263 247.017441 426.286987 C247.093781 419.721832 246.866043 415.412292 246.668167 411.301636 C246.470276 407.190948 246.302246 403.279144 246.497940 397.509430 C246.925659 391.444031 246.775574 386.312378 246.504135 381.404541 C246.232697 376.496704 245.839920 371.812653 245.782288 366.642456 C245.212952 361.289246 247.185379 357.033752 249.862778 355.590637 C252.540176 354.147522 255.922546 355.516754 258.173096 361.412933 C259.073364 368.480530 259.223999 372.882294 259.347504 376.218292 C259.471008 379.554321 259.567352 381.824585 260.359039 384.629181 C259.722809 388.118591 259.596680 392.119049 259.644531 396.479553 C259.692352 400.840027 259.914124 405.560547 259.973633 410.490082 C259.946899 417.977509 259.839691 422.634857 259.910950 426.622925 C259.982239 430.610962 260.231964 433.929749 260.919128 438.740051 C260.625305 444.678009 260.876007 449.969788 261.174957 454.873169 C261.473938 459.776550 261.821167 464.291595 261.720428 468.676086 C261.929871 474.703064 261.815460 480.129700 260.213867 483.157715 C258.612305 486.185730 255.523544 486.815155 249.784363 483.247772"></path>
<path id="" fill="rgb(254, 255, 255)" fill-opacity="1.0" stroke="rgb(34, 131, 107)" stroke-width="1.44465661" stroke-opacity="1.0" stroke-linecap="round" stroke-linejoin="round"  filling="0" d="M272.228760 215.048370 C271.838135 221.063248 271.813904 226.254486 271.446075 231.080978 C271.078247 235.907486 270.366760 240.369232 268.601654 244.925156 C265.851410 251.255890 262.244232 255.793060 258.462250 257.537659 C254.680267 259.282227 250.723480 258.234222 247.273972 253.394562 C243.473114 248.576492 240.633865 243.796295 238.700256 238.944000 C236.766663 234.091690 235.738724 229.167267 235.560486 224.060730 C235.185623 219.085022 235.298004 214.343323 235.436310 209.310989 C235.574600 204.278641 235.738831 198.955658 235.467667 192.817368 C235.534912 187.568848 235.448608 182.710571 235.370438 177.598526 C235.292282 172.486496 235.222260 167.120697 235.322083 160.857147 C236.020355 154.778168 236.427368 150.732819 237.162903 147.021408 C237.898453 143.309998 238.962540 139.932526 240.974945 135.189331 C243.949783 129.253647 246.874405 124.191147 250.208496 121.689590 C253.542603 119.188034 257.286163 119.247429 261.898895 123.555527 C264.920868 127.444626 267.471619 132.305878 269.365173 137.352249 C271.258759 142.398621 272.495148 147.630096 272.888428 152.259644 C273.665466 157.269577 273.949066 162.352097 273.942322 167.509613 C273.935577 172.667145 273.638519 177.899658 273.254272 183.209610 C273.100403 189.333069 272.890045 194.323730 272.695129 199.268051 C272.500244 204.212372 272.320801 209.110321 272.228760 215.048370"></path>
<path id="" fill="rgb(253, 255, 255)" fill-opacity="1.0" stroke="rgb(96, 168, 159)" stroke-width="1.4717629" stroke-opacity="1.0" stroke-linecap="round" stroke-linejoin="round"  filling="0" d="M305.475433 203.825394 C302.623535 208.720520 299.789703 213.540268 297.325958 218.161423 C294.862183 222.782578 292.768524 227.205139 291.397003 231.305862 C289.584442 236.500473 287.759094 241.698090 285.460510 246.470184 C283.161896 251.242294 280.390045 255.588882 276.684448 259.081451 C270.611694 263.838684 265.680878 266.058563 261.830109 265.741394 C257.979340 265.424194 255.208603 262.570007 253.455994 257.179138 C251.349365 250.957275 250.802856 245.600983 251.581146 240.585709 C252.359436 235.570419 254.462524 230.896133 257.655090 226.038239 C259.453979 222.487305 261.591797 218.709824 263.900085 214.060959 C266.208374 209.412079 268.687134 203.891800 271.167877 196.855240 C273.299316 192.233215 274.423126 188.397675 275.688354 184.675644 C276.953583 180.953613 278.360199 177.345108 281.057190 173.177200 C284.262024 167.189972 286.827148 162.578888 289.641449 158.559296 C292.455719 154.539719 295.519165 151.111633 299.720703 147.490402 C303.510559 144.301178 308.077850 140.502975 312.509674 138.773575 C316.941498 137.044174 321.237854 137.383575 324.485962 142.469528 C325.411255 149.456909 325.358643 155.064133 324.664795 160.133057 C323.970978 165.201981 322.635986 169.732574 320.996521 174.566696 C319.243103 179.376892 317.315979 183.360153 314.850647 187.806564 C312.385315 192.252975 309.381775 197.162537 305.475433 203.825394"></path>
<path id="" fill="rgb(253, 255, 255)" fill-opacity="1.0" stroke="rgb(50, 140, 127)" stroke-width="1.4170804" stroke-opacity="1.0" stroke-linecap="round" stroke-linejoin="round"  filling="0" d="M358.936981 213.728531 C356.786743 216.079330 354.410858 218.294342 351.168579 220.721680 C347.926331 223.149017 343.817688 225.788696 338.201935 228.988815 C334.273010 231.248032 330.037384 233.264786 325.519836 235.415161 C321.002289 237.565552 316.202820 239.849548 311.146240 242.643265 C305.415009 245.055847 300.793518 247.290573 296.455505 249.353851 C292.117462 251.417130 288.062927 253.308945 283.465607 255.035706 C278.021973 256.150360 272.312164 257.175568 267.160278 257.247559 C262.008423 257.319519 257.414490 256.438263 254.202652 253.739990 C253.260345 248.938568 254.819565 245.073013 257.893005 241.391327 C260.966431 237.709641 265.554047 234.211807 270.668518 230.145798 C274.003143 227.603333 277.116211 225.682083 280.366058 224.069916 C283.615906 222.457733 287.002563 221.154633 290.884277 219.848404 C295.349823 217.374451 298.415527 214.059158 301.429779 210.468231 C304.444031 206.877319 307.406860 203.010742 311.666626 199.434235 C316.702881 196.026062 320.944489 193.473846 325.018219 191.409988 C329.091949 189.346115 332.997803 187.770584 337.362671 186.315765 C342.603485 185.009079 347.969849 183.857620 353.119232 183.449417 C358.268646 183.041199 363.201111 183.376251 367.574127 185.042542 C371.185883 188.199203 371.083801 193.025345 369.050201 198.235001 C367.016602 203.444656 363.051422 209.037811 358.936981 213.728531"></path>
<path id="" fill="rgb(253, 255, 253)" fill-opacity="1.0" stroke="rgb(74, 155, 145)" stroke-width="1.51389849" stroke-opacity="1.0" stroke-linecap="round" stroke-linejoin="round"  filling="0" d="M377.240448 266.125275 C373.544617 268.176636 368.969147 270.155090 363.935883 271.576477 C358.902649 272.997864 353.411621 273.862183 347.884705 273.685364 C343.170532 273.843811 338.277222 273.852142 333.004761 273.899750 C327.732239 273.947357 322.080566 274.034271 315.849518 274.349915 C310.746216 274.475891 305.882019 274.978699 300.931244 275.654938 C295.980469 276.331146 290.943054 277.180756 285.493347 278.000305 C279.567200 278.707733 273.567474 279.439362 267.933441 279.438416 C262.299408 279.437500 257.031067 278.703979 252.567642 276.481201 C248.127823 272.927979 246.471161 268.660736 247.612122 264.780701 C248.753082 260.900696 252.691666 257.407898 259.442322 255.403687 C264.928711 252.810120 269.127563 250.665619 272.705475 248.896667 C276.283386 247.127716 279.240356 245.734314 282.242981 244.642960 C287.748199 243.261124 292.906860 242.326065 298.084808 241.451324 C303.262756 240.576599 308.459961 239.762177 314.042267 238.621597 C319.206268 237.829453 324.050751 236.757294 329.170166 235.993408 C334.289612 235.229507 339.683960 234.773895 345.947662 235.214813 C350.528717 235.374969 356.091400 236.126892 361.591431 237.330032 C367.091492 238.533173 372.528931 240.187515 376.859467 242.152481 C382.536926 244.520691 385.915558 248.894882 386.233124 253.486542 C386.550720 258.078186 383.807251 262.887268 377.240448 266.125275"></path>
<path id="" fill="rgb(253, 255, 255)" fill-opacity="1.0" stroke="rgb(106, 177, 169)" stroke-width="1.41223741" stroke-opacity="1.0" stroke-linecap="round" stroke-linejoin="round"  filling="0" d="M363.112579 325.098358 C358.806946 325.319183 354.040466 325.270752 349.238312 324.807068 C344.436127 324.343414 339.598267 323.464508 335.149902 322.024414 C330.223083 320.469086 325.913086 318.469574 321.606049 316.100281 C317.299011 313.730988 312.994934 310.991913 308.079956 307.957458 C302.860565 305.397736 298.216248 302.965271 293.867249 300.544250 C289.518219 298.123230 285.464478 295.713715 281.426208 293.199890 C276.774597 291.348694 272.580811 289.058838 268.344116 286.162811 C264.107452 283.266754 259.827911 279.764526 255.004868 275.488617 C253.032593 271.042175 252.406036 266.962097 253.650848 263.539368 C254.895645 260.116638 258.011810 257.351257 263.524963 255.534149 C268.588318 255.316788 272.694641 255.516693 276.047668 256.409119 C279.400726 257.301575 282.000488 258.886536 284.050812 261.439270 C287.786346 265.313568 292.523804 268.359497 297.462677 270.406799 C302.401550 272.454102 307.541809 273.502747 312.082916 273.382538 C317.417694 274.412720 322.156708 274.951721 326.705658 276.020081 C331.254639 277.088409 335.613525 278.686096 340.188019 281.833557 C345.041931 284.021454 349.602692 287.316650 353.573151 290.780151 C357.543579 294.243683 360.923676 297.875488 363.416199 300.736603 C367.238708 306.008911 370.513062 311.504120 371.156677 315.978882 C371.800293 320.453644 369.813171 323.907959 363.112579 325.098358"></path>
<path id="" fill="rgb(253, 255, 254)" fill-opacity="1.0" stroke="rgb(7, 109, 79)" stroke-width="1.46977401" stroke-opacity="1.0" stroke-linecap="round" stroke-linejoin="round"  filling="0" d="M323.216583 341.444916 C324.189056 346.068298 325.155792 350.878143 325.221863 355.550049 C325.287964 360.221985 324.453369 364.755981 321.823181 368.827759 C317.833221 370.956848 313.494324 369.990723 309.146729 367.582245 C304.799133 365.173767 300.442871 361.322937 296.418213 357.682556 C292.293945 353.468506 289.139618 349.339386 286.394684 345.202759 C283.649780 341.066101 281.314270 336.921936 278.827698 332.677765 C275.954834 327.628174 273.484375 322.707397 271.239044 318.055908 C268.993713 313.404419 266.973450 309.022186 265.000946 305.049652 C262.914368 300.878082 261.021576 296.560669 258.919403 291.914703 C256.817200 287.268707 254.505661 282.294128 251.581604 276.808228 C250.325134 270.893311 249.661179 266.310242 249.844315 262.503479 C250.027466 258.696686 251.057693 255.666214 253.189606 252.856506 C257.497925 252.936737 261.931549 254.250656 266.230530 256.586700 C270.529541 258.922760 274.693939 262.280945 278.463806 266.449738 C280.389771 270.596802 281.810852 274.759827 283.582397 278.806396 C285.353943 282.852966 287.475952 286.783112 290.803711 290.464417 C294.482788 294.833679 298.027283 298.506409 301.291016 302.164856 C304.554718 305.823273 307.537659 309.467377 310.093628 313.779419 C313.328430 318.324097 315.823608 322.766388 317.902893 327.309540 C319.982117 331.852692 321.645447 336.496704 323.216583 341.444916"></path>
<path id="" fill="rgb(254, 255, 255)" fill-opacity="1.0" stroke="rgb(95, 166, 149)" stroke-width="1.49792612" stroke-opacity="1.0" stroke-linecap="round" stroke-linejoin="round"  filling="0" d="M272.963715 350.013519 C272.255554 353.908752 271.265930 359.090576 269.842621 364.107941 C268.419342 369.125305 266.562378 373.978210 264.119568 377.215546 C261.695923 382.528809 258.141602 385.192078 254.431396 385.158539 C250.721176 385.125031 246.855042 382.394714 243.807663 376.920807 C241.532623 372.240784 239.757996 367.652100 238.501282 362.923981 C237.244553 358.195862 236.505753 353.328339 236.302383 348.090637 C235.659393 343.361359 235.603088 339.175110 235.657166 334.644226 C235.711243 330.113342 235.875702 325.237793 235.674225 319.129974 C235.922241 313.984314 236.257141 309.340820 236.675354 304.449127 C237.093552 299.557434 237.595078 294.417480 238.176361 288.278900 C238.831406 282.392944 238.588257 278.635284 238.560974 275.123108 C238.533691 271.610962 238.722260 268.344269 240.240753 263.440277 C244.569977 258.563324 248.955872 255.711609 252.766159 255.571625 C256.576416 255.431641 259.811096 258.003387 261.837830 263.973358 C263.613892 268.070953 264.751953 272.696106 265.513306 277.434692 C266.274658 282.173309 266.659241 287.025360 266.928253 291.576752 C266.900879 297.467896 267.407288 302.384857 268.238098 306.901123 C269.068878 311.417419 270.224060 315.533020 271.494171 319.821411 C272.624603 324.477783 273.174194 329.402405 273.350067 334.474640 C273.525940 339.546875 273.328125 344.766724 272.963715 350.013519"></path>
<path id="" fill="rgb(254, 255, 253)" fill-opacity="1.0" stroke="rgb(109, 175, 169)" stroke-width="1.35801768" stroke-opacity="1.0" stroke-linecap="round" stroke-linejoin="round"  filling="0" d="M223.750641 345.854797 C221.508301 349.451111 218.184280 353.618164 214.616943 357.293579 C211.049606 360.969025 207.238953 364.152832 204.023331 365.782715 C199.006256 369.674377 194.042404 371.366455 190.296494 370.553192 C186.550598 369.739929 184.022644 366.421326 183.877426 360.291626 C183.190704 353.730957 183.923737 348.061401 185.202286 343.192749 C186.480835 338.324097 188.304932 334.256348 189.800339 330.899261 C192.454453 324.558289 194.851349 320.047302 197.172684 316.057953 C199.494019 312.068604 201.739777 308.600891 204.091599 304.346558 C207.079819 299.879089 209.459930 296.348297 212.084381 292.650604 C214.708817 288.952911 217.577576 285.088318 221.543076 279.953247 C225.377121 275.642029 227.885681 272.464142 230.121582 269.435974 C232.357483 266.407837 234.320709 263.529388 237.064072 259.817078 C240.352676 256.460388 244.657501 255.452988 248.411911 256.128540 C252.166306 256.804108 255.370300 259.162628 256.457214 262.537781 C252.856659 267.873840 250.049683 272.102112 247.947296 276.297119 C245.844940 280.492126 244.447174 284.653870 243.665024 289.856873 C241.895325 296.293182 241.039825 300.396332 240.170609 304.407776 C239.301392 308.419189 238.418427 312.338928 236.593811 318.408447 C235.127548 322.600433 233.874374 326.360413 232.008957 330.623199 C230.143555 334.885986 227.665894 339.651611 223.750641 345.854797"></path>
<path id="" fill="rgb(255, 255, 255)" fill-opacity="1.0" stroke="rgb(61, 144, 130)" stroke-width="1.41573167" stroke-opacity="1.0" stroke-linecap="round" stroke-linejoin="round"  filling="0" d="M233.210007 265.521423 C229.781021 269.434723 227.108688 272.638519 224.520782 276.013245 C221.932892 279.387939 219.429413 282.933533 216.338120 287.530426 C213.041870 291.269318 210.699097 294.702545 207.976593 298.389862 C205.254105 302.077179 202.151886 306.018616 197.336807 310.773865 C194.191910 313.198303 190.585449 315.333496 186.302612 317.289490 C182.019791 319.245483 177.060608 321.022339 171.210297 322.730072 C166.738464 323.657471 161.248459 324.940460 155.819244 325.442444 C150.390030 325.944397 145.021606 325.665344 140.792969 323.468567 C137.625793 319.718079 137.568909 315.808289 139.317184 311.575348 C141.065460 307.342407 144.618896 302.786285 148.672363 297.743073 C152.452713 294.144348 154.979523 291.690613 157.598328 289.557617 C160.217133 287.424622 162.927917 285.612305 167.076233 283.296417 C172.572174 280.158081 176.909988 277.486450 180.753830 274.904907 C184.597656 272.323364 187.947510 269.831940 191.467545 267.054016 C195.432526 263.822388 199.511292 261.101379 203.668915 258.493652 C207.826553 255.885925 212.063049 253.391541 216.343475 250.613220 C221.084839 248.806885 225.561584 246.493164 230.070633 244.592575 C234.579681 242.691986 239.121033 241.204544 243.991592 241.050812 C246.926605 243.279709 246.443161 247.342682 244.119995 251.875763 C241.796814 256.408844 237.633911 261.412048 233.210007 265.521423"></path>
<path id="" fill="rgb(253, 255, 253)" fill-opacity="1.0" stroke="rgb(0, 107, 87)" stroke-width="1.45878136" stroke-opacity="1.0" stroke-linecap="round" stroke-linejoin="round"  filling="0" d="M254.226273 264.403870 C249.485077 265.859314 244.424316 267.401611 239.403015 268.601013 C234.381714 269.800446 229.399857 270.656982 224.816437 270.740936 C219.060028 271.114868 213.898972 271.325745 208.703384 271.547577 C203.507797 271.769409 198.277679 272.002258 192.383179 272.420044 C187.269684 272.614563 182.412567 273.326355 177.367157 273.849274 C172.321747 274.372192 167.088058 274.706207 161.221420 274.145172 C155.987747 273.975464 150.134109 273.039398 144.514450 271.572662 C138.894806 270.105896 133.509125 268.108459 129.211411 265.816010 C123.834427 262.500061 120.705643 258.037903 120.787758 253.691086 C120.869873 249.344269 124.162880 245.112762 131.629486 242.258148 C136.727905 239.956024 140.689392 238.533859 144.316498 237.614609 C147.943588 236.695358 151.236298 236.279053 154.997162 235.988647 C160.991516 235.413513 166.798370 235.369537 172.380661 235.420364 C177.962952 235.471207 183.320679 235.616852 188.416779 235.420990 C194.535339 235.355377 199.806885 235.093628 204.818268 235.072174 C209.829666 235.050705 214.580917 235.269531 219.658905 236.165024 C224.774841 236.913422 230.064697 238.284958 235.312210 240.129562 C240.559738 241.974167 245.764938 244.291840 250.711578 246.932480 C257.294403 249.117828 262.457031 252.590607 263.831970 255.964569 C265.206909 259.338562 262.794159 262.613708 254.226273 264.403870"></path>
<path id="" fill="rgb(253, 255, 255)" fill-opacity="1.0" stroke="rgb(41, 130, 110)" stroke-width="1.36898434" stroke-opacity="1.0" stroke-linecap="round" stroke-linejoin="round"  filling="0" d="M258.237610 238.060928 C258.512512 242.355652 258.923767 246.939835 258.650146 251.561859 C258.376526 256.183868 257.418060 260.843750 254.953461 265.289825 C251.215393 266.152283 246.814438 263.964905 242.246628 260.853455 C237.678802 257.742004 232.944122 253.706512 228.538589 250.872818 C223.504700 247.301788 219.005844 244.647232 214.516022 242.579514 C210.026184 240.511795 205.545364 239.030914 200.547546 237.807236 C192.914917 236.179520 187.235687 234.774460 182.259094 233.150177 C177.282501 231.525879 173.008545 229.682373 168.186523 227.177734 C163.261017 224.316666 159.108963 221.673187 155.092194 218.363174 C151.075409 215.053162 147.193909 211.076599 142.809509 205.549377 C139.883148 199.791397 138.316559 194.854782 138.353439 191.132980 C138.390335 187.411179 140.030716 184.904175 143.518280 184.005417 C148.736755 182.787750 154.645660 182.891632 160.368652 183.666275 C166.091660 184.440933 171.628769 185.886383 176.103668 187.351837 C181.469528 189.492950 185.809250 191.798813 190.137421 194.212570 C194.465591 196.626343 198.782196 199.148010 204.101822 201.720703 C209.008362 204.092957 213.911087 206.373840 218.863754 208.720947 C223.816437 211.068069 228.819031 213.481415 233.925339 216.118561 C239.297913 219.435150 244.039398 221.166763 248.106033 223.946213 C252.172668 226.725662 255.564438 230.552948 258.237610 238.060928"></path>
<path id="" fill="rgb(253, 255, 254)" fill-opacity="1.0" stroke="rgb(60, 145, 127)" stroke-width="1.4054997" stroke-opacity="1.0" stroke-linecap="round" stroke-linejoin="round"  filling="0" d="M249.405853 219.713531 C250.659180 224.043716 252.267380 228.878281 253.801620 233.622925 C255.335861 238.367569 256.796143 243.022308 257.753662 246.992828 C257.243439 252.574448 254.446014 255.476349 250.392365 256.006256 C246.338730 256.536163 241.028854 254.694061 235.493729 250.787704 C232.378448 247.654572 230.043365 244.241302 227.788971 240.140137 C225.534576 236.038971 223.360870 231.249939 220.568314 225.365234 C217.970306 221.184402 215.314453 217.089264 212.403732 212.963364 C209.493011 208.837463 206.327393 204.680817 202.709839 200.376923 C200.239517 197.203140 197.764587 193.738586 195.203766 189.462799 C192.642944 185.186996 189.996216 180.099976 187.182297 173.681229 C185.833008 168.766296 184.965363 165.534149 184.408951 162.304962 C183.852524 159.075775 183.607330 155.849518 183.502960 150.946350 C183.407944 143.897217 185.538910 139.625671 189.181076 138.152908 C192.823257 136.680130 197.976624 138.006134 203.926437 142.152069 C207.827988 144.687988 211.741882 148.156403 215.227097 151.968826 C218.712311 155.781250 221.768845 159.937668 223.955658 163.849548 C226.507782 168.509888 228.776779 172.914627 230.874664 177.344971 C232.972549 181.775299 234.899323 186.231247 236.766983 190.993973 C239.421722 196.233154 241.453400 200.633575 243.385406 205.113922 C245.317429 209.594269 247.149780 214.154572 249.405853 219.713531"></path>
<path id="" fill="rgb(252, 198, 31)" fill-opacity="1.0" stroke="rgb(236, 213, 139)" stroke-width="0.90482295" stroke-opacity="1.0" stroke-linecap="round" stroke-linejoin="round"  filling="0" d="M219.893723 302.177795 C217.398804 300.539551 215.048874 298.588379 212.816437 296.216827 C210.584015 293.845306 208.469086 291.053406 206.444168 287.733734 C204.419250 284.414062 202.484344 280.566589 200.611938 276.083862 C199.173065 272.395172 198.013672 268.302979 197.257065 264.094391 C196.500473 259.885803 196.146698 255.560852 196.319061 251.406677 C196.491440 247.252487 197.189972 243.269073 198.538010 239.743576 C199.713257 235.588150 201.268448 231.541901 203.182602 227.732346 C205.096756 223.922791 207.369873 220.349945 209.981003 217.141342 C212.592133 213.932739 215.541260 211.088379 218.807419 208.735794 C221.919189 206.111481 225.228058 203.833740 228.827805 201.949356 C232.427536 200.064972 236.318115 198.573944 240.593323 197.523071 C244.868515 196.472198 249.528320 195.861481 254.666504 195.737732 C257.696838 195.706238 260.994171 195.896240 264.587646 196.532486 C268.181122 197.168732 272.070709 198.251221 276.285522 200.004700 C280.500366 201.758179 285.040405 204.182648 289.934784 207.502838 C292.583405 209.993469 294.986115 212.159714 297.159027 214.333237 C299.331970 216.506744 301.275116 218.687561 303.004669 221.207336 C304.734192 223.727112 306.250122 226.585861 307.568573 230.115265 C309.339752 235.009399 310.685730 239.271500 311.580322 243.319794 C312.474915 247.368073 312.918091 251.202530 312.883667 255.241348 C312.849213 259.280182 312.337158 263.523376 311.321228 268.389099 C310.819855 271.118011 309.998322 274.280701 308.645020 277.677338 C307.291687 281.073975 305.406616 284.704590 302.778137 288.369385 C300.149658 292.034149 296.777771 295.733124 292.450928 299.266479 C289.616211 301.847198 286.718445 304.033081 283.551819 305.874298 C280.385223 307.715546 276.949768 309.212158 273.039734 310.414398 C269.129669 311.616608 264.744995 312.524414 259.679962 313.188080 C255.507751 313.403229 251.694916 313.439514 247.799255 312.996246 C243.903595 312.553009 239.925095 311.630249 235.421570 309.927368 C230.918060 308.224518 225.889496 305.741516 219.893723 302.177795"></path>
<path id="" fill="rgb(146, 205, 78)" fill-opacity="1.0" stroke="rgb(110, 170, 0)" stroke-width="0.77491516" stroke-opacity="1.0" stroke-linecap="round" stroke-linejoin="round"  filling="0" d="M366.931854 383.235168 C364.757874 387.038818 363.035034 389.976044 361.427277 392.608612 C359.819519 395.241180 358.326843 397.569092 356.613220 400.154175 C354.899597 402.739258 352.964966 405.581482 350.473358 409.242676 C347.749725 413.079834 345.578949 416.064819 343.421722 418.643463 C341.264526 421.222107 339.120850 423.394409 336.451477 425.606140 C333.782104 427.817871 330.586975 430.069031 326.326813 432.805481 C322.167511 435.265259 318.410522 437.207550 314.916962 438.784668 C311.423401 440.361816 308.193237 441.573761 305.087616 442.572876 C301.981995 443.571991 299.000916 444.358246 296.005432 445.083984 C291.430634 445.562195 286.912354 446.270813 282.644775 446.858795 C278.377197 447.446777 274.360321 447.914093 270.788300 447.909698 C267.216309 447.905273 264.089142 447.429138 261.601013 446.130219 C261.237396 442.360931 261.462677 439.139374 262.154755 435.994690 C262.846832 432.849976 264.005707 429.782166 265.509338 426.320312 C267.012939 422.858490 268.861267 419.002655 270.932281 414.281952 C273.018280 410.973969 274.744110 408.084869 276.385834 405.521210 C278.027557 402.957550 279.585175 400.719360 281.334717 398.713226 C283.084290 396.707092 285.025818 394.932983 287.435333 393.297577 C290.440765 391.196442 292.952362 389.051605 295.385956 386.916626 C297.819580 384.781616 300.175171 382.656464 302.868561 380.594696 C305.561951 378.532898 308.593140 376.534485 312.377930 374.652985 C316.803345 373.145294 320.590790 371.802887 324.060944 370.556305 C327.531067 369.309692 330.683868 368.158936 333.839966 367.034454 C336.996094 365.909973 340.155518 364.811829 343.638855 363.670532 C348.494904 362.799072 352.228485 362.083832 355.629425 361.441620 C359.030365 360.799438 362.098694 360.230255 365.624268 359.650940 C369.149841 359.071625 373.132660 358.482117 378.362610 357.799286 C381.518494 357.444336 381.727081 359.397888 380.460327 362.411835 C379.193573 365.425781 376.451508 369.500122 373.706085 373.386719 C370.960693 377.273315 368.211945 380.972168 366.931854 383.235168"></path>
</svg>