<?xml version="1.0" ?>
<svg xmlns="http://www.w3.org/2000/svg" version="1.1" width="512" height="512" viewBox="0 0 512 512">
  <defs/>
  <g>
    <path d="M 650.13824463 504.80441284 C 624.82080078 512.78631592 599.46160889 520.75744629 574.09588623 528.69702148 C 548.77770996 536.54101562 523.43652344 544.21282959 498.07022095 551.67456055 C 472.63046265 558.82196045 447.12774658 565.59020996 421.54077148 571.92633057 C 395.82876587 577.69458008 370.01538086 582.79785156 344.11297607 587.15087891 C 318.10568237 590.69238281 292.06347656 593.27838135 266.05322266 594.83734131 C 240.10577393 595.22894287 214.30546570 594.36364746 188.71897888 592.20147705 C 163.49617004 588.59179688 138.77220154 583.42791748 114.61586761 576.66882324 C 91.21745300 568.21832275 68.76421356 557.97760010 47.33206177 545.89166260 C 27.15060997 531.88549805 8.38897514 515.89654541 -8.78697205 497.89965820 C -24.33495140 477.98144531 -38.32567215 456.41687012 -50.83109665 433.42013550 C -61.85873795 409.23760986 -71.48750305 384.10018921 -79.71236420 358.20132446 C -86.58476257 331.84643555 -92.13376617 305.18527222 -96.34544373 278.46496582 C -99.23094940 251.87168884 -100.80441284 225.57867432 -101.08129120 199.80001831 C -100.01897430 174.66877747 -97.57192993 150.30108643 -93.80177307 126.89567566 C -88.60594940 104.48394012 -81.95487976 83.19949341 -73.89404297 63.11966705 C -64.39342499 44.27305603 -53.43577194 26.76169777 -40.94637680 10.52863312 C -26.97804451 -4.35626173 -11.55670643 -17.93794250 5.36104441 -30.22540855 C 23.67301559 -41.22245407 43.29611588 -50.91498184 64.16881561 -59.30622864 C 86.14298248 -66.37844086 109.10025787 -72.12850189 132.92158508 -76.59375000 C 157.55433655 -79.80492401 182.88029480 -81.84259796 208.77644348 -82.75359344 C 235.17561340 -82.56237793 261.90762329 -81.35066986 288.82852173 -79.10067749 C 315.75805664 -75.80348206 342.51791382 -71.45627594 368.93136597 -65.97502899 C 394.71008301 -59.26670074 419.60263062 -51.18042374 443.32281494 -41.57080841 C 465.63275146 -30.30333900 486.31420898 -17.27592087 505.23272705 -2.43639493 C 522.21264648 14.33076763 537.27563477 32.89419174 550.58966064 53.14442062 C 562.30505371 74.87812805 572.63696289 97.89026642 581.74407959 121.98372650 C 589.86523438 146.91070557 597.22369385 172.51420593 603.96917725 198.59692383 C 610.22729492 225.08493042 616.13287354 251.83143616 621.79296875 278.76388550 C 627.36651611 305.72677612 632.88824463 332.72418213 638.38641357 359.74896240 C 643.92138672 386.75659180 649.44116211 413.76284790 650.13824463 504.80441284" stroke-width="2.00000000" fill="rgb(209, 241, 252)" opacity="1.0" stroke="rgb(137, 231, 255)" stroke-opacity="0.33941153" stroke-linecap="round" stroke-linejoin="round"/>
    <path d="M 248.89253235 483.53173828 C 248.40109253 478.46865845 248.26441956 473.40673828 248.19406128 468.26983643 C 247.92146301 463.08367920 247.74937439 457.84280396 247.62091064 452.59826660 C 247.47080994 447.36666870 247.40591431 442.13659668 247.14875793 436.86868286 C 246.83987427 431.64422607 246.76832581 426.45803833 246.71629333 421.29275513 C 246.63348389 416.16354370 246.54632568 411.15429688 246.45550537 406.27465820 C 246.41853333 401.55871582 246.30104065 397.02114868 246.29991150 392.71496582 C 246.42805481 388.65008545 246.48747253 384.87509155 246.83413696 381.47802734 C 247.35035706 378.47515869 248.00381470 375.87274170 248.83900452 373.66448975 C 249.90898132 371.94720459 251.06567383 370.72201538 252.18843079 369.91641235 C 253.35510254 369.62023926 254.58337402 369.78326416 255.78001404 370.42599487 C 256.87173462 371.54159546 257.87725830 373.12115479 258.73767090 375.14004517 C 259.42083740 377.58782959 259.91738892 380.41033936 260.17996216 383.64730835 C 260.16979980 387.24273682 260.12200928 391.09500122 260.05874634 395.10171509 C 259.70208740 399.32556152 259.67730713 403.69412231 260.04321289 408.12860107 C 260.17495728 412.70794678 260.18283081 417.40026855 260.24121094 422.14315796 C 260.33016968 426.89770508 260.39361572 431.64416504 260.81365967 436.37091064 C 261.31484985 441.05322266 261.48794556 445.74682617 261.36068726 450.44277954 C 261.35873413 455.11450195 261.50180054 459.73071289 261.58898926 464.41265869 C 261.55578613 469.13442993 261.71206665 473.84561157 261.80679321 478.64483643 C 261.55056763 483.52688599 260.99957275 488.62716675 248.89253235 483.53173828" stroke-width="1.09026611" fill="rgb(138, 196, 78)" opacity="1.0" stroke="rgb(163, 207, 153)" stroke-opacity="0.808661" stroke-linecap="round" stroke-linejoin="round"/>
    <path d="M 275.31311035 244.47407532 C 273.09140015 244.66485596 270.91259766 244.81288147 268.71615601 244.92375183 C 266.49285889 245.06135559 264.28274536 245.12690735 262.11206055 245.06628418 C 259.99584961 244.82290649 257.89608765 244.40074158 255.81776428 243.84509277 C 253.82749939 242.99610901 251.88882446 241.81224060 249.95103455 240.27473450 C 248.08389282 238.42922974 246.38441467 236.19940186 244.80867004 233.49334717 C 243.26295471 230.33103943 241.80235291 226.83474731 240.47299194 222.92579651 C 239.22804260 218.51792908 238.06857300 213.67982483 237.11485291 208.51010132 C 236.45814514 203.01406860 235.96553040 197.21537781 235.70498657 191.15945435 C 235.82493591 185.00138855 235.61575317 178.84439087 235.01141357 172.69305420 C 234.49440002 166.58239746 234.92546082 160.56062317 235.63706970 154.57028198 C 236.46826172 148.69636536 237.72418213 143.15292358 239.48986816 137.91726685 C 241.53501892 133.13072205 243.85963440 128.79914856 246.13442993 125.17940521 C 248.21672058 122.24570465 250.61265564 120.54183960 253.34049988 119.70950317 C 255.94219971 119.32228088 258.34237671 120.08038330 260.59228516 121.91468811 C 262.90496826 124.34398651 265.10278320 127.36399078 267.15823364 130.88961792 C 268.94665527 134.93728638 270.55447388 139.30221558 271.70642090 143.94812012 C 272.92422485 148.75570679 273.76968384 153.97723389 274.16903687 159.42782593 C 274.51397705 165.04280090 274.44998169 170.72949219 274.04385376 176.48182678 C 273.37777710 182.32806396 273.27694702 188.31712341 273.35836792 194.25788879 C 273.17764282 200.22456360 273.05007935 206.30155945 275.31311035 244.47407532" stroke-width="2.00000000" fill="rgb(251, 253, 253)" opacity="1.0" stroke="rgb(68, 147, 135)" stroke-opacity="0.7697508" stroke-linecap="round" stroke-linejoin="round"/>
    <path d="M 305.25335693 203.20884705 C 303.07937622 208.88465881 300.63482666 214.29219055 297.93585205 219.44766235 C 295.10928345 224.37185669 292.20950317 229.00074768 289.23709106 233.30867004 C 286.21047974 237.19960022 283.26641846 240.64208984 280.46676636 243.69458008 C 277.77130127 246.37693787 275.14328003 248.52244568 272.68618774 250.16401672 C 270.54449463 251.37960815 268.63198853 252.10321045 266.91406250 252.25712585 C 265.45046997 251.92622375 264.29711914 251.13909912 263.36517334 249.83329773 C 262.65542603 248.00447083 262.24890137 245.73008728 262.09362793 243.00263977 C 262.16378784 239.77622986 262.48141479 236.11380005 263.02969360 232.08433533 C 263.70455933 227.71769714 264.57156372 222.98530579 265.63421631 217.92767334 C 266.93017578 212.60743713 268.39920044 207.04298401 269.95117188 201.26983643 C 271.63369751 195.45265198 273.39642334 189.38256836 275.57431030 183.29928589 C 278.57031250 177.47766113 281.38302612 171.45864868 284.45629883 165.63575745 C 287.76296997 160.20951843 291.43527222 155.35043335 295.34222412 150.85978699 C 299.52670288 147.13093567 303.41503906 143.71954346 307.26629639 141.09178162 C 310.87423706 138.93148804 314.13165283 137.57060242 317.09848022 137.24998474 C 319.58755493 137.23469543 321.64761353 138.20365906 323.34524536 140.06629944 C 324.50445557 142.46534729 325.26989746 145.41064453 325.52685547 148.73725891 C 325.73440552 152.59620667 325.52526855 156.96166992 324.84722900 161.51994324 C 324.06570435 166.29165649 322.82043457 171.20907593 320.95385742 176.35726929 C 318.69506836 181.44201660 316.79931641 186.90916443 305.25335693 203.20884705" stroke-width="2.00000000" fill="rgb(251, 253, 253)" opacity="1.0" stroke="rgb(76, 149, 138)" stroke-opacity="0.78013784" stroke-linecap="round" stroke-linejoin="round"/>
    <path d="M 363.74215698 208.60615540 C 360.32421875 213.14468384 356.17926025 217.08580017 351.86538696 220.90350342 C 347.24996948 224.32933044 342.42166138 227.26611328 337.38055420 229.85424805 C 332.26739502 231.83198547 327.62405396 234.40385437 323.07626343 237.39703369 C 318.15356445 239.64306641 313.10855103 241.47747803 308.18707275 243.33198547 C 303.40698242 245.03553772 298.76138306 246.56752014 294.33306885 247.82118225 C 290.18463135 248.81506348 286.38790894 249.65917969 282.92199707 250.31430054 C 279.86355591 250.67494202 277.24487305 250.66450500 275.01782227 250.36984253 C 273.19509888 249.89933777 271.88000488 249.29652405 271.13739014 248.48011780 C 270.85372925 247.38848877 270.97201538 246.01129150 271.49832153 244.35171509 C 272.48959351 242.47842407 273.96853638 240.47502136 275.84573364 238.30444336 C 278.07006836 235.85995483 280.54428101 233.17729187 283.25909424 230.33256531 C 286.18020630 227.30207825 289.32028198 224.09808350 292.57980347 220.72323608 C 295.81079102 217.12214661 298.97167969 213.37496948 302.08551025 209.46652222 C 305.15725708 205.45735168 308.37634277 201.62902832 312.30490112 198.44952393 C 316.89788818 195.74992371 321.71459961 193.09068298 326.48376465 190.37066650 C 331.26107788 187.86903381 336.25122070 186.20219421 341.31262207 185.09631348 C 346.03778076 183.92895508 350.62875366 183.19203186 355.11801147 183.35414124 C 359.18624878 183.10507202 362.69046021 183.20976257 365.74948120 183.90341187 C 368.34442139 184.78956604 370.04754639 186.44792175 370.69027710 189.17529297 C 370.87811279 193.15182495 371.50991821 197.52343750 363.74215698 208.60615540" stroke-width="2.00000000" fill="rgb(252, 255, 254)" opacity="1.0" stroke="rgb(69, 146, 141)" stroke-opacity="0.77767885" stroke-linecap="round" stroke-linejoin="round"/>
    <path d="M 385.35119629 260.01724243 C 381.32666016 264.49542236 376.42321777 267.76379395 370.74624634 269.89373779 C 364.93032837 272.27459717 358.77432251 273.35256958 352.37869263 274.21026611 C 345.89901733 274.63638306 339.46749878 274.59558105 333.16970825 274.37118530 C 326.92428589 274.78384399 320.69418335 275.00933838 314.50503540 275.00222778 C 308.48437500 274.85955811 302.65972900 274.76596069 297.03295898 274.63116455 C 291.66394043 274.35473633 286.58923340 273.89410400 281.88064575 273.31027222 C 277.60046387 272.68359375 273.77996826 271.98648071 270.40264893 271.19799805 C 267.51187134 270.30743408 265.17797852 269.30670166 263.37203979 268.18533325 C 262.16659546 266.97576904 261.50732422 265.67736816 261.31286621 264.26910400 C 261.65933228 262.76260376 262.65396118 261.17800903 264.24453735 259.55780029 C 266.27767944 257.90380859 268.78158569 256.18115234 271.78970337 254.45141602 C 275.24871826 252.66842651 279.05355835 250.83248901 283.21578979 249.02813721 C 287.71878052 247.30546570 292.50256348 245.63081360 297.48272705 243.98320007 C 302.55877686 242.36677551 307.74063110 240.86140442 312.97433472 239.56329346 C 318.15957642 238.53047180 323.08837891 237.15821838 327.69226074 235.60350037 C 332.33898926 235.36114502 337.12060547 235.29170227 341.94134521 235.11297607 C 346.67642212 235.11502075 351.33953857 235.39880371 355.97073364 235.61441040 C 360.53332520 236.40223694 364.95172119 237.44158936 369.42669678 238.61940002 C 373.62670898 240.17501831 377.68182373 242.02534485 381.51376343 244.53970337 C 385.16055298 247.52333069 388.89901733 250.88519287 385.35119629 260.01724243" stroke-width="2.00000000" fill="rgb(254, 253, 254)" opacity="1.0" stroke="rgb(14, 107, 94)" stroke-opacity="0.5469487" stroke-linecap="round" stroke-linejoin="round"/>
    <path d="M 365.26611328 325.28903198 C 359.95364380 325.63327026 354.68475342 325.65121460 349.44049072 325.26824951 C 344.09832764 324.63418579 338.87170410 323.60391235 333.82052612 322.13375854 C 328.91290283 320.47640991 324.22015381 318.16741943 319.78564453 315.50241089 C 315.54568481 312.53918457 310.88400269 310.33810425 306.02194214 308.33297729 C 301.44482422 305.55920410 296.92904663 302.59875488 292.49798584 299.62551880 C 288.23641968 296.63955688 284.18820190 293.66983032 280.38293457 290.67019653 C 276.94976807 287.67636108 273.91662598 284.82302856 271.24758911 282.16705322 C 268.98657227 279.65478516 267.12658691 277.30657959 265.69866943 275.14727783 C 264.78854370 273.23022461 264.34667969 271.58428955 264.39126587 270.19631958 C 264.92440796 269.03103638 265.90536499 268.09701538 267.36407471 267.38937378 C 269.36416626 266.92587280 271.80923462 266.74758911 274.66296387 266.81491089 C 277.97586060 267.07254028 281.65823364 267.56826782 285.64572144 268.32177734 C 289.94393921 269.21347046 294.51364136 270.14883423 299.33459473 271.11389160 C 304.36795044 272.06695557 309.49316406 272.90051270 314.45401001 273.45672607 C 319.12139893 274.65429688 323.82373047 275.22943115 328.42993164 275.70932007 C 332.60232544 277.41250610 336.71997070 279.59777832 340.95562744 281.67770386 C 345.01058960 284.11038208 349.01266479 286.68478394 352.79104614 289.59567261 C 356.44232178 292.70721436 359.98266602 295.86459351 362.91656494 299.64923096 C 365.97137451 303.27011108 368.42916870 307.39675903 370.40045166 311.95901489 C 372.09365845 316.88110352 373.36254883 322.01464844 365.26611328 325.28903198" stroke-width="2.00000000" fill="rgb(251, 255, 254)" opacity="1.0" stroke="rgb(2, 103, 85)" stroke-opacity="0.49316072" stroke-linecap="round" stroke-linejoin="round"/>
    <path d="M 325.56057739 356.10339355 C 325.31085205 359.09399414 324.96759033 361.95971680 324.47113037 364.59219360 C 323.72326660 366.87771606 322.52014160 368.65512085 320.95187378 370.03552246 C 318.89996338 370.67742920 316.42068481 370.84634399 313.56109619 370.25360107 C 310.30239868 368.67297363 306.42462158 366.49880981 302.40042114 363.56961060 C 298.19604492 360.10690308 294.12811279 356.05087280 290.24496460 351.55590820 C 286.62911987 346.76177979 283.30413818 341.68017578 280.42752075 336.27862549 C 277.53637695 330.85491943 274.46609497 325.50720215 271.42559814 320.23782349 C 268.84558105 314.85086060 266.58184814 309.43618774 264.50387573 304.10946655 C 262.53530884 299.03244019 260.70257568 294.22628784 259.12277222 289.66342163 C 257.90924072 285.35757446 257.08465576 281.39465332 256.57620239 277.81573486 C 256.30224609 274.61413574 256.34396362 271.77023315 256.72790527 269.31945801 C 257.39398193 267.37847900 258.31179810 265.95748901 259.39846802 265.01690674 C 260.76657104 264.57440186 262.29244995 264.63809204 263.98129272 265.19241333 C 265.89828491 266.21197510 267.99868774 267.72738647 270.27249146 269.69049072 C 272.67712402 272.04376221 275.22689819 274.78259277 277.88717651 277.92791748 C 280.73461914 281.37097168 283.79067993 284.98828125 287.07128906 288.75747681 C 290.65548706 292.54473877 294.60910034 296.13873291 298.87445068 299.51113892 C 302.83486938 303.30200195 306.37127686 307.74005127 310.03274536 312.43005371 C 313.38946533 317.72009277 316.59707642 323.47830200 319.56115723 329.55108643 C 322.16342163 336.19500732 325.01144409 342.95010376 325.56057739 356.10339355" stroke-width="2.00000000" fill="rgb(253, 254, 254)" opacity="1.0" stroke="rgb(0, 97, 72)" stroke-opacity="0.48838297" stroke-linecap="round" stroke-linejoin="round"/>
    <path d="M 269.54019165 367.11410522 C 268.43856812 370.13748169 267.03417969 373.05935669 265.55911255 375.84207153 C 264.04058838 378.55227661 262.43103027 380.85220337 260.69436646 382.71572876 C 258.78997803 384.32666016 256.72320557 385.21908569 254.39843750 385.37881470 C 251.78141785 385.05364990 249.17243958 383.99417114 246.79907227 381.88699341 C 244.40655518 379.20437622 242.47563171 375.78433228 240.82519531 371.54562378 C 238.95802307 366.98229980 237.36636353 362.08270264 236.33091736 356.49649048 C 235.32330322 350.89434814 235.13087463 344.89843750 235.04287720 338.76672363 C 235.49497986 332.81375122 235.71736145 326.88888550 235.75886536 320.98373413 C 236.14189148 315.15975952 236.69586182 309.48678589 237.39070129 304.03268433 C 238.15382385 298.81970215 238.96463013 293.86682129 239.82069397 289.24688721 C 240.79281616 284.95175171 241.89178467 281.09600830 243.03083801 277.74502563 C 244.21771240 274.86190796 245.42765808 272.44387817 246.61267090 270.58599854 C 247.83911133 269.31805420 249.16992188 268.57061768 250.59912109 268.38500977 C 252.09002686 268.75567627 253.58982849 269.72866821 255.08769226 271.24185181 C 256.54223633 273.27267456 257.95034790 275.78955078 259.39053345 278.78652954 C 260.93341064 282.27835083 262.45916748 286.16326904 263.89541626 290.43740845 C 265.29943848 295.06274414 266.72915649 299.98776245 268.20190430 305.17510986 C 269.54830933 310.48922729 270.86495972 315.86959839 272.09387207 321.38119507 C 273.51635742 326.70645142 273.97601318 332.30633545 273.83886719 338.34661865 C 273.87768555 344.79867554 274.20761108 351.43405151 269.54019165 367.11410522" stroke-width="2.00000000" fill="rgb(253, 254, 253)" opacity="1.0" stroke="rgb(83, 152, 136)" stroke-opacity="0.86106074" stroke-linecap="round" stroke-linejoin="round"/>
    <path d="M 220.58598328 350.92797852 C 216.71459961 355.32751465 212.90940857 359.50915527 208.80169678 362.96752930 C 204.95989990 366.18057251 201.06475830 368.41027832 197.30056763 369.89712524 C 193.99266052 370.95611572 191.04284668 370.98910522 188.48187256 370.30764771 C 186.27009583 369.06326294 184.65950012 367.04495239 183.80981445 364.25909424 C 183.35240173 360.55944824 183.18289185 356.29193115 183.51644897 351.69003296 C 184.01490784 346.91790771 185.21766663 341.94879150 186.96778870 336.77389526 C 188.67553711 331.48074341 191.00921631 326.39297485 194.00297546 321.37939453 C 197.18386841 316.33047485 200.36436462 311.35012817 203.07656860 306.11062622 C 205.94308472 300.93838501 209.07786560 296.14773560 212.29666138 291.67483521 C 215.52525330 287.46746826 218.67388916 283.53045654 221.65930176 279.85345459 C 224.50903320 276.53622437 227.25567627 273.65820312 229.94787598 271.27664185 C 232.45828247 269.35906982 234.75994873 267.84259033 236.90751648 266.74725342 C 238.81840515 266.09176636 240.48974609 265.89474487 241.94953918 266.18722534 C 243.18334961 266.93759155 244.21861267 268.12149048 245.01942444 269.72180176 C 245.53034973 271.60653687 245.72367859 273.80700684 245.70317078 276.40777588 C 245.56222534 279.41281128 245.29815674 282.70925903 244.77590942 286.22851562 C 244.01960754 289.98379517 243.14331055 294.02523804 242.18908691 298.34515381 C 241.08926392 302.79544067 239.79234314 307.33889771 238.46359253 312.11676025 C 237.10789490 317.11627197 235.86869812 322.20846558 234.32611084 327.47000122 C 231.84960938 332.65625000 229.77229309 338.23782349 220.58598328 350.92797852" stroke-width="2.00000000" fill="rgb(250, 255, 253)" opacity="1.0" stroke="rgb(84, 156, 148)" stroke-opacity="0.8831649" stroke-linecap="round" stroke-linejoin="round"/>
    <path d="M 233.99508667 265.04284668 C 230.71072388 269.14935303 227.45231628 273.29980469 224.23915100 277.48110962 C 221.06010437 281.68579102 217.89724731 285.83297729 214.70320129 289.91571045 C 211.49555969 293.96011353 208.38146973 297.97863770 205.30975342 301.87277222 C 202.57041931 305.69586182 200.18023682 309.36300659 196.59968567 311.96267700 C 192.23291016 314.56072998 187.44915771 317.32540894 182.10235596 319.64614868 C 176.68473816 321.78546143 171.13589478 323.48565674 165.54098511 324.54440308 C 160.10964966 325.49304199 154.99794006 325.71649170 150.21569824 325.63430786 C 146.02662659 325.62615967 142.58770752 324.97689819 139.89770508 323.54791260 C 137.92120361 321.45983887 137.17716980 318.88293457 137.50112915 315.64660645 C 138.33403015 312.41488647 140.13732910 308.97537231 142.33908081 305.35693359 C 144.77145386 301.53585815 147.76362610 297.89596558 151.39860535 294.44732666 C 155.10722351 290.80288696 159.24696350 287.47525024 163.76678467 284.51190186 C 168.27053833 281.65029907 173.08029175 279.26947021 177.64788818 276.86315918 C 182.31768799 274.41903687 187.06048584 272.37359619 191.67878723 270.35232544 C 196.13888550 268.24664307 200.51396179 266.10232544 204.77375793 264.01141357 C 208.87391663 262.00677490 212.84884644 260.01602173 216.68734741 258.01788330 C 220.35044861 256.05151367 223.93107605 254.19171143 227.48136902 252.42570496 C 230.93446350 250.70079041 234.29582214 248.98921204 237.61836243 247.33000183 C 240.91246033 245.67933655 244.21495056 244.03987122 247.47941589 242.42883301 C 250.68292236 240.88067627 253.89651489 239.36599731 233.99508667 265.04284668" stroke-width="2.00000000" fill="rgb(253, 255, 254)" opacity="1.0" stroke="rgb(63, 139, 127)" stroke-opacity="0.73142374" stroke-linecap="round" stroke-linejoin="round"/>
    <path d="M 257.89767456 263.69415283 C 252.15559387 264.43731689 246.35183716 265.12536621 240.47557068 265.78787231 C 234.63989258 266.44338989 228.88635254 267.10552979 223.13322449 267.79556274 C 217.35046387 268.52844238 211.58895874 269.30072021 205.90368652 270.02438354 C 200.33436584 270.67105103 194.86856079 271.51803589 189.46546936 272.58300781 C 184.08247375 273.37112427 178.90292358 274.46020508 173.63662720 274.93090820 C 168.05766296 274.63522339 162.29243469 274.57452393 156.53753662 274.24826050 C 150.93063354 273.39141846 145.41902161 272.51782227 140.29570007 271.06170654 C 135.51350403 269.27880859 131.26651001 267.34487915 127.48849487 265.04998779 C 124.35968781 262.70895386 121.96435547 260.29937744 120.86019135 257.32275391 C 120.18918610 254.13505554 120.39516449 251.05567932 121.84140778 248.12718201 C 124.04266357 245.71145630 127.09081268 243.63546753 130.80609131 241.81376648 C 134.96917725 239.95652771 139.61663818 238.38766479 144.73310852 237.02449036 C 149.96809387 235.88800049 155.49258423 235.34326172 161.22781372 235.19293213 C 167.11180115 235.05601501 173.15229797 235.24299622 179.39857483 235.50169373 C 185.68032837 235.24488831 191.94651794 235.11557007 198.23222351 235.20877075 C 204.53294373 235.65103149 210.75984192 236.46473694 216.86375427 237.58013916 C 222.83091736 238.79862976 228.71159363 240.00749207 234.39759827 241.27595520 C 239.96524048 242.68699646 245.46325684 244.18426514 250.85136414 245.76037598 C 256.12628174 247.40711975 261.35275269 249.04441833 266.59509277 250.66386414 C 271.78497314 252.33436584 276.94879150 254.06054688 257.89767456 263.69415283" stroke-width="2.00000000" fill="rgb(253, 253, 253)" opacity="1.0" stroke="rgb(49, 132, 125)" stroke-opacity="0.64391446" stroke-linecap="round" stroke-linejoin="round"/>
    <path d="M 273.55398560 261.15197754 C 269.62564087 259.82043457 265.73001099 258.50283813 261.85644531 257.18566895 C 257.93597412 255.87451172 253.97171021 254.51438904 249.98536682 253.16096497 C 245.93035889 251.80493164 241.72543335 250.46400452 237.36590576 249.14254761 C 232.93037415 247.86712646 228.46093750 246.54809570 223.97523499 245.08097839 C 219.41468811 243.40264893 214.76907349 241.47895813 209.92967224 239.43862915 C 204.82203674 237.73255920 199.45297241 236.67793274 193.90995789 236.32514954 C 188.29132080 235.23818970 182.65420532 233.90721130 177.34474182 232.12620544 C 172.04373169 230.09605408 167.07073975 227.61747742 162.47529602 224.58135986 C 158.00590515 221.43455505 153.92344666 217.97273254 150.14366150 214.37103271 C 146.64891052 210.86253357 143.75572205 207.15266418 141.35670471 203.41654968 C 139.38499451 199.77824402 138.19323730 196.19987488 137.79852295 192.81663513 C 137.91606140 189.79760742 138.75126648 187.32275391 140.32434082 185.38868713 C 142.49404907 183.87571716 145.15580750 183.16896057 148.49389648 183.24902344 C 152.55662537 182.99923706 157.25436401 183.07046509 162.40728760 183.57424927 C 168.03909302 184.73248291 173.96557617 186.25170898 179.87109375 188.63929749 C 185.73626709 191.32693481 191.37620544 194.62261963 196.88697815 198.19459534 C 202.72338867 201.10762024 208.65274048 203.86529541 214.54560852 206.71554565 C 220.43217468 209.70341492 226.28984070 212.80313110 232.06423950 215.93327332 C 237.83421326 219.06608582 243.65826416 222.17965698 249.51104736 225.34358215 C 255.26670837 228.54046631 260.96554565 231.73443604 273.55398560 261.15197754" stroke-width="2.00000000" fill="rgb(253, 254, 254)" opacity="1.0" stroke="rgb(76, 148, 138)" stroke-opacity="0.7427606" stroke-linecap="round" stroke-linejoin="round"/>
    <path d="M 262.41790771 246.38758850 C 260.46337891 246.21319580 258.49868774 246.01628113 256.51214600 245.81274414 C 254.52909851 245.56297302 252.53291321 245.24682617 250.52059937 244.85514832 C 248.43005371 244.37908936 246.28527832 243.76116943 244.12278748 242.93864441 C 241.85969543 241.96372986 239.52799988 240.77369690 237.13265991 239.28909302 C 234.67510986 237.49130249 232.09486389 235.46311951 229.43081665 233.18859863 C 226.72848511 230.61302185 223.91949463 227.74697876 220.96913147 224.59008789 C 217.88177490 221.18495178 214.82418823 217.40167236 211.79466248 213.28752136 C 208.71334839 209.00602722 205.50752258 204.45010376 202.05923462 199.94436646 C 198.60362244 195.35913086 195.28063965 190.59353638 192.42880249 185.60595703 C 189.63208008 180.60034180 187.39085388 175.52621460 185.80519104 170.27476501 C 184.29750061 165.24899292 183.46487427 160.39942932 183.14541626 155.58752441 C 183.07029724 151.09538269 183.34600830 147.01463318 183.90103149 143.55239868 C 184.85252380 140.74212646 186.26058960 138.78088379 188.43563843 137.67860413 C 191.16729736 137.17025757 194.33044434 137.42829895 197.86865234 138.45327759 C 201.53356934 140.15788269 205.20358276 142.66090393 209.06973267 145.43748474 C 212.77519226 148.71470642 216.17547607 152.48200989 219.37280273 156.66384888 C 222.59416199 161.01281738 225.48767090 165.54739380 228.01736450 170.45501709 C 230.50337219 175.43260193 232.88929749 180.43540955 235.00648499 185.73210144 C 236.64212036 191.15344238 238.15289307 196.77021790 239.33781433 202.48815918 C 240.62405396 208.22915649 241.68325806 214.05291748 262.41790771 246.38758850" stroke-width="2.00000000" fill="rgb(250, 255, 252)" opacity="1.0" stroke="rgb(0, 97, 76)" stroke-opacity="0.47609863" stroke-linecap="round" stroke-linejoin="round"/>
    <path d="M 222.46276855 304.02346802 C 218.87046814 301.23178101 215.31523132 298.51275635 212.05862427 295.56536865 C 209.44410706 292.12796021 206.83547974 288.70587158 204.62130737 285.10794067 C 202.65463257 281.21215820 200.83757019 277.24383545 199.27384949 273.30136108 C 197.95286560 269.31338501 197.06663513 265.27612305 196.47151184 261.26272583 C 196.12171936 257.31079102 196.16757202 253.32966614 196.23625183 249.38769531 C 196.70318604 245.61077881 197.54878235 241.83155823 198.74014282 237.97671509 C 200.17890930 234.12309265 201.84170532 230.18894958 203.75796509 226.34707642 C 205.76220703 222.67034912 208.23986816 219.32768250 210.96337891 216.16012573 C 213.73445129 212.98509216 216.65339661 210.13101196 219.85397339 207.51045227 C 223.11769104 205.08331299 226.62637329 203.10627747 230.25595093 201.28768921 C 233.96479797 199.69396973 237.66564941 198.17593384 241.49392700 197.03378296 C 245.66230774 196.38124084 249.93673706 195.94717407 254.25421143 195.63885498 C 258.44357300 195.66873169 262.54446411 196.05839539 266.57092285 196.69795227 C 270.53509521 197.54273987 274.24755859 198.85525513 277.83062744 200.54588318 C 281.48266602 202.23529053 285.03240967 204.13386536 288.32241821 206.26918030 C 291.41726685 208.72987366 294.46749878 211.33174133 297.42837524 213.73992920 C 299.84970093 216.67639160 302.13568115 219.95155334 304.32196045 223.15286255 C 306.30200195 226.57484436 308.01583862 230.15884399 309.47451782 233.88702393 C 310.69485474 237.71734619 311.62673950 241.58119202 312.42489624 245.50405884 C 313.08181763 249.35049438 313.25125122 253.15127563 313.11953735 256.99578857 C 312.98950195 260.89428711 312.42904663 264.77792358 311.54394531 268.55386353 C 310.54052734 272.54025269 309.30587769 276.36901855 307.78936768 280.07385254 C 305.98464966 283.73129272 303.74774170 287.17526245 301.27325439 290.52322388 C 298.52069092 293.76119995 295.68811035 296.89346313 292.52810669 299.74032593 C 289.22030640 302.37472534 285.74615479 304.74783325 282.23175049 306.90289307 C 278.53002930 308.37329102 274.91271973 309.79309082 271.38333130 311.25390625 C 267.67648315 312.03012085 264.06826782 312.67739868 260.44805908 313.18328857 C 256.69381714 313.49768066 252.98609924 313.56713867 249.28015137 313.24786377 C 245.54237366 312.81158447 241.78697205 312.02618408 238.01477051 311.01834106 C 234.29919434 309.64727783 230.46821594 308.53402710 222.46276855 304.02346802" stroke-width="1.45088851" fill="rgb(251, 198, 33)" opacity="1.0" stroke="rgb(234, 212, 136)" stroke-opacity="1.0" stroke-linecap="round" stroke-linejoin="round"/>
    <path d="M 367.40026855 383.11608887 C 365.42898560 386.07907104 363.59213257 389.09341431 361.88177490 392.18847656 C 360.10397339 395.20962524 358.15921021 398.20233154 356.31005859 401.24456787 C 354.38449097 404.26376343 352.34945679 407.25579834 350.21115112 410.22537231 C 347.90216064 413.16790771 345.50210571 416.11737061 342.98999023 419.00103760 C 340.37515259 421.83471680 337.53634644 424.55288696 334.52014160 427.16363525 C 331.43368530 429.66674805 328.07928467 431.99420166 324.56732178 434.31103516 C 320.96243286 436.27401733 317.22216797 438.13980103 313.33215332 439.76953125 C 309.45983887 441.53869629 305.46011353 442.82998657 301.32867432 443.74783325 C 297.14581299 444.71655273 292.98367310 445.57693481 288.85140991 446.26229858 C 284.81729126 446.84219360 280.95312500 447.25244141 277.25115967 447.52313232 C 273.84008789 447.68707275 270.74923706 447.78970337 268.00720215 447.92205811 C 265.72433472 447.91976929 263.93826294 447.61044312 262.69860840 446.79400635 C 261.96313477 445.40103149 261.61981201 443.53698730 261.55557251 441.29919434 C 261.80407715 438.76074219 262.38677979 435.98144531 263.27014160 432.98150635 C 264.13388062 429.71505737 265.14797974 426.26638794 266.53054810 422.79989624 C 267.98226929 419.23065186 269.65936279 415.69879150 271.70074463 412.22509766 C 273.92733765 408.86508179 276.19033813 405.49484253 278.62728882 402.21139526 C 281.26434326 399.16870117 284.07257080 396.24142456 286.97082520 393.54595947 C 289.82196045 390.80984497 292.72866821 388.16845703 295.74224854 385.86248779 C 298.99377441 383.70379639 302.12948608 381.53643799 305.22833252 379.29290771 C 308.26599121 377.09811401 311.20266724 374.95217896 314.25411987 373.28359985 C 317.72952271 372.61215210 321.23800659 371.69735718 324.53967285 370.04379272 C 328.00585938 368.54031372 331.79483032 367.35729980 335.62948608 366.40554810 C 339.41390991 365.25622559 343.14837646 364.01458740 346.85824585 363.00509644 C 350.44326782 362.10314941 353.90829468 361.23983765 357.25183105 360.69003296 C 360.50204468 360.09460449 363.62356567 359.64346313 366.56298828 359.37292480 C 369.30664062 358.92968750 371.83654785 358.66293335 374.26916504 358.70181274 C 376.49069214 358.65954590 378.50375366 358.40924072 380.28149414 358.04165649 C 381.73162842 357.94515991 382.81631470 358.07104492 383.60061646 357.98556519 C 383.89154053 357.59890747 383.83300781 357.04888916 367.40026855 383.11608887" stroke-width="1.22066569" fill="rgb(146, 205, 78)" opacity="1.0" stroke="rgb(106, 167, 0)" stroke-opacity="0.36342025" stroke-linecap="round" stroke-linejoin="round"/>
  </g>
</svg>
