<?xml version="1.0" ?>
<svg xmlns="http://www.w3.org/2000/svg" version="1.1" width="256" height="256" viewBox="0 0 256 256">
  <defs/>
  <g>
    <path d="M 263.37985229 202.65058899 C 256.71395874 234.73516846 232.07759094 255.78955078 199.18197632 262.57977295 C 156.79740906 265.74481201 126.04629517 259.16369629 97.54728699 256.06625366 C 66.74938965 251.14880371 32.46370697 250.01974487 -1.38735199 224.14878845 C -23.58298492 205.93051147 -21.72068024 171.45877075 -20.45902252 128.76661682 C -17.83727264 91.93008423 -19.17534637 53.44504547 -13.96752167 19.33321381 C 1.06707764 -4.83387756 19.70732880 -10.83718109 50.39208221 -8.36543274 C 90.50032806 -6.80485535 126.54585266 -5.47988892 156.74867249 -4.72187805 C 186.16664124 -1.45554352 218.88446045 -6.01764679 254.23706055 1.60259247 C 275.33636475 28.42276764 282.18807983 57.20819855 280.95480347 99.20638275 C 279.02868652 139.20756531 271.35949707 177.36318970 263.37985229 202.65058899" stroke-width="2.00000000" fill="rgb(9, 25, 65)" opacity="1.0" stroke="rgb(9, 25, 69)" stroke-opacity="0.9927149" stroke-linecap="round" stroke-linejoin="round"/>
    <path d="M 21.28111649 26.72077751 C 21.28283310 26.72121620 21.28569794 26.72138596 21.28986549 26.72080231 C 21.29273224 26.72100067 21.29650307 26.71912766 21.29862595 26.71930313 C 21.29816055 26.72158813 21.29623795 26.72570992 21.29589844 26.72788620 C 21.29431915 26.73278999 21.29291153 26.73393440 21.29146767 26.73646355 C 21.28853989 26.73979759 21.28500557 26.74080658 21.28282166 26.74131203 C 21.27663040 26.74128532 21.27812386 26.74129868 21.27463722 26.74098778 C 21.27166557 26.74144745 21.26867867 26.73817444 21.26744652 26.73564148 C 21.26589775 26.73136330 21.26602364 26.72965813 21.26602364 26.72620010 C 21.26592445 26.72418404 21.26636314 26.72023773 21.26982498 26.71925354 C 21.27447701 26.71957397 21.27578926 26.72102547 21.28111649 26.72077751" stroke-width="0.00000000" fill="rgb(255, 255, 244)" opacity="1.0" stroke="rgb(73, 10, 0)" stroke-opacity="0.0" stroke-linecap="round" stroke-linejoin="round"/>
    <path d="M 71.08198547 41.37844467 C 71.08364868 41.36269760 71.09097290 41.32421494 71.08757782 41.28924179 C 71.09214783 41.25258255 71.07072449 41.21732330 71.08477783 41.19894409 C 71.11350250 41.20174789 71.14279938 41.21323395 71.17861938 41.21813202 C 71.22167206 41.22715759 71.25032806 41.23061752 71.28203583 41.22623444 C 71.31968689 41.23188400 71.32637787 41.25817108 71.32677460 41.29929352 C 71.31822968 41.34303665 71.31845093 41.34666443 71.31079102 41.37451553 C 71.29755402 41.41461945 71.28903961 41.43166351 71.25250244 41.45785904 C 71.21602631 41.47537613 71.21520233 41.47902679 71.16610718 41.49613571 C 71.12882233 41.50786209 71.09689331 41.50608063 71.08161926 41.48921204 C 71.06105804 41.46384430 71.08015442 41.43421555 71.08198547 41.37844467" stroke-width="2.00000000" fill="rgb(133, 83, 0)" opacity="1.0" stroke="rgb(5, 0, 0)" stroke-opacity="0.3287173" stroke-linecap="round" stroke-linejoin="round"/>
    <path d="M 171.08944702 33.44207382 C 171.09533691 33.44019318 171.09605408 33.44085693 171.10256958 33.43755341 C 171.10699463 33.43555450 171.11001587 33.43060303 171.11312866 33.43119812 C 171.11338806 33.43553543 171.11190796 33.43986511 171.11334229 33.44498825 C 171.11427307 33.45197678 171.11555481 33.45434952 171.12011719 33.45832062 C 171.12321472 33.46325684 171.12086487 33.46335983 171.11399841 33.46566010 C 171.10659790 33.46596527 171.10583496 33.46521378 171.10272217 33.46721649 C 171.09777832 33.47056961 171.09465027 33.46984863 171.08909607 33.46651077 C 171.08433533 33.46374893 171.08433533 33.46228409 171.07911682 33.45751572 C 171.07444763 33.45230484 171.07325745 33.45072937 171.07377625 33.44602203 C 171.07788086 33.44147873 171.08419800 33.44397354 171.08944702 33.44207382" stroke-width="0.19015023" fill="rgb(5, 37, 108)" opacity="1.0" stroke="rgb(255, 219, 180)" stroke-opacity="0.0" stroke-linecap="round" stroke-linejoin="round"/>
    <path d="M 101.66020966 28.66237068 C 101.64829254 28.66268158 101.63742828 28.66089249 101.62599945 28.66499519 C 101.61339569 28.66633415 101.60269928 28.67501068 101.59545135 28.67413712 C 101.59784698 28.66594124 101.60548401 28.65648460 101.60856628 28.64474869 C 101.61472321 28.62816238 101.61550903 28.62321281 101.61363220 28.60956001 C 101.61445618 28.59883881 101.61685181 28.59711075 101.63372803 28.59666824 C 101.65115356 28.60039711 101.65154266 28.60229111 101.65981293 28.60070610 C 101.67339325 28.59694672 101.68096161 28.60119438 101.69001770 28.61364746 C 101.69854736 28.62413979 101.69715881 28.62663651 101.70314789 28.64198685 C 101.70850372 28.65255737 101.71010590 28.66348648 101.69871521 28.66665268 C 101.68818665 28.66986465 101.67698669 28.66077232 101.66020966 28.66237068" stroke-width="1.73892450" fill="rgb(175, 208, 199)" opacity="1.0" stroke="rgb(0, 5, 117)" stroke-opacity="0.0" stroke-linecap="round" stroke-linejoin="round"/>
    <path d="M 199.96064758 12.43268776 C 199.95120239 12.43802357 199.94917297 12.43692970 199.93968201 12.44379425 C 199.93193054 12.44855881 199.92822266 12.45946407 199.92321777 12.45771790 C 199.92187500 12.44932079 199.92086792 12.44166851 199.91650391 12.43395138 C 199.91134644 12.42222214 199.90847778 12.41811657 199.90071106 12.41171646 C 199.89584351 12.40246010 199.90016174 12.40234566 199.91157532 12.39606285 C 199.92608643 12.39198494 199.92283630 12.39176369 199.93202209 12.38848782 C 199.94459534 12.38392735 199.94485474 12.38135529 199.95701599 12.38325024 C 199.96794128 12.38864326 199.96968079 12.39119053 199.97669983 12.39718914 C 199.98399353 12.40490627 199.98728943 12.41266060 199.98545837 12.41752815 C 199.97933960 12.42765808 199.96911621 12.42740059 199.96064758 12.43268776" stroke-width="0.10236098" fill="rgb(11, 16, 0)" opacity="1.0" stroke="rgb(0, 0, 0)" stroke-opacity="0.32879" stroke-linecap="round" stroke-linejoin="round"/>
    <path d="M 274.77203369 196.15786743 C 271.73489380 211.44445801 270.95596313 241.32891846 247.24429321 261.83575439 C 224.47561646 266.67089844 204.04338074 264.91976929 168.23989868 260.98602295 C 141.39988708 259.78970337 113.55798340 256.49511719 88.44595337 260.37796021 C 56.17572784 259.46493530 32.16045380 269.33688354 5.66841888 260.65600586 C -9.37009430 246.65655518 -14.82265472 211.41809082 -18.04227448 183.85473633 C -16.47241974 153.05462646 -14.82910919 131.58003235 3.15082550 128.96505737 C 28.61313629 128.77996826 52.54418182 129.16186523 89.42525482 128.88864136 C 111.38778687 129.65933228 131.28486633 128.61236572 167.53942871 129.12829590 C 188.72631836 129.25477600 215.20219421 128.95162964 247.06433105 129.04541016 C 270.39901733 126.96826935 277.66629028 149.12384033 274.77203369 196.15786743" stroke-width="0.88064653" fill="rgb(14, 116, 205)" opacity="1.0" stroke="rgb(38, 150, 245)" stroke-opacity="0.47351056" stroke-linecap="round" stroke-linejoin="round"/>
    <path d="M 220.62402344 240.80007935 C 207.87240601 240.71188354 183.96928406 242.28428650 165.58804321 243.96945190 C 144.23576355 240.46081543 132.70437622 236.65747070 120.32289124 237.09156799 C 105.58681488 242.04159546 99.19508362 241.43869019 72.44396973 237.13372803 C 53.04140472 235.01879883 38.88387299 236.35910034 17.64189911 237.24708557 C -16.53068542 244.38641357 6.90079498 233.40003967 21.55338287 235.89460754 C 53.51081848 234.77575684 46.96609497 237.89828491 70.44727325 234.84800720 C 95.22850800 237.12838745 98.96532440 241.95883179 117.49757385 235.50207520 C 130.84236145 232.83824158 135.51936340 238.72410583 158.17834473 238.96093750 C 179.96203613 241.21887207 194.54776001 238.40628052 210.46121216 233.93096924 C 231.74084473 225.75880432 249.04797363 233.24066162 220.62402344 240.80007935" stroke-width="0.00000000" fill="rgb(182, 226, 224)" opacity="1.0" stroke="rgb(255, 255, 255)" stroke-opacity="0.0" stroke-linecap="round" stroke-linejoin="round"/>
    <path d="M 205.76422119 251.30938721 C 191.37820435 248.53184509 183.69476318 248.93934631 160.16134644 245.47418213 C 143.95364380 242.24221802 125.15933228 244.52926636 113.50898743 248.10842896 C 100.96549988 253.49707031 90.63002777 254.42797852 72.70930481 255.01210022 C 48.63619995 258.07608032 29.67469025 262.24346924 11.74612427 259.18316650 C -10.36972809 249.75930786 -0.95045471 244.20545959 21.69284058 245.03347778 C 47.91169739 245.99177551 53.86467743 250.90182495 66.21582031 243.87309265 C 86.26173401 242.85501099 90.97341919 250.73335266 112.26792145 245.55749512 C 136.07014465 242.54124451 134.89820862 243.81332397 155.65757751 244.37377930 C 177.65441895 246.57931519 191.43133545 242.23226929 212.07164001 241.70077515 C 236.17498779 240.23266602 237.24014282 256.14007568 205.76422119 251.30938721" stroke-width="0.00000000" fill="rgb(128, 214, 230)" opacity="1.0" stroke="rgb(94, 255, 255)" stroke-opacity="0.0" stroke-linecap="round" stroke-linejoin="round"/>
    <path d="M 256.44668579 254.14581299 C 248.46534729 261.68734741 239.84338379 255.92346191 225.99639893 257.01733398 C 214.95208740 257.00811768 207.41824341 257.12994385 192.86502075 257.90432739 C 179.00350952 258.28619385 170.19374084 257.96588135 157.92617798 259.72097778 C 144.27372742 258.85632324 155.06329346 248.11367798 157.49842834 235.66497803 C 161.25106812 226.56214905 165.47962952 212.43008423 168.24786377 204.01702881 C 173.43379211 190.91355896 175.79214478 182.34603882 182.72802734 187.06745911 C 195.95773315 192.82432556 206.89045715 192.30369568 216.79025269 191.01126099 C 233.93986511 186.37843323 235.08580017 193.53909302 246.73020935 197.49943542 C 260.55792236 196.75192261 262.99185181 203.58891296 258.89178467 218.93055725 C 258.33706665 232.72637939 258.34802246 240.61280823 256.44668579 254.14581299" stroke-width="0.93243515" fill="rgb(131, 69, 31)" opacity="1.0" stroke="rgb(74, 94, 118)" stroke-opacity="0.974404" stroke-linecap="round" stroke-linejoin="round"/>
    <path d="M 225.46780396 201.48864746 C 216.79159546 204.57612610 206.90187073 203.61166382 198.32933044 203.24427795 C 187.80181885 197.76358032 192.22924805 191.33110046 191.42472839 179.04838562 C 191.73057556 168.68550110 190.97746277 160.57069397 191.37495422 150.10087585 C 191.70335388 139.72244263 191.26033020 129.06690979 191.04035950 120.51511383 C 192.52482605 107.57015991 188.13726807 99.44801331 195.41656494 95.83372498 C 207.80987549 93.94558716 211.16595459 93.49597931 221.07705688 93.32462311 C 232.12854004 95.95324707 228.46954346 105.92557526 228.90669250 116.64448547 C 229.27290344 128.27748108 229.12361145 135.27899170 228.92916870 145.36189270 C 229.50520325 159.29821777 229.17381287 159.60029602 229.09358215 174.17112732 C 227.73890686 184.09637451 232.63844299 196.02862549 225.46780396 201.48864746" stroke-width="0.37772772" fill="rgb(253, 250, 252)" opacity="1.0" stroke="rgb(237, 210, 183)" stroke-opacity="0.5735675" stroke-linecap="round" stroke-linejoin="round"/>
    <path d="M 227.41073608 99.43277740 C 223.81565857 99.33969116 222.98448181 99.07064056 218.18600464 99.27416992 C 213.90150452 99.28973389 211.99122620 99.24544525 207.93797302 99.33199310 C 204.14131165 99.34413147 201.32937622 99.32269287 197.98561096 99.44514465 C 193.04663086 99.42502594 191.10874939 99.76493073 192.29925537 95.16082001 C 192.46324158 92.32608032 190.84350586 86.82749939 193.56240845 86.12712860 C 198.33508301 85.87305450 197.67808533 86.18081665 201.38381958 86.38789368 C 206.03233337 86.23620605 207.80975342 85.99456024 211.45059204 85.99928284 C 215.59431458 86.16922760 217.89062500 86.23821259 221.53050232 86.06855011 C 226.45515442 86.10147095 229.20684814 84.97667694 228.05117798 89.78749084 C 227.41006470 94.43733215 228.81486511 96.94319153 227.41073608 99.43277740" stroke-width="0.75128341" fill="rgb(242, 75, 69)" opacity="1.0" stroke="rgb(149, 17, 6)" stroke-opacity="0.46545547" stroke-linecap="round" stroke-linejoin="round"/>
    <path d="M 218.60948181 72.75663757 C 219.05078125 73.63047028 218.25338745 75.45428467 218.14791870 77.95407867 C 217.61341858 80.09240723 218.92799377 82.66683960 217.03923035 83.67437744 C 215.28617859 84.41795349 214.01167297 85.30181885 211.78192139 86.28242493 C 209.73579407 86.81095123 208.76203918 86.28908539 206.25468445 85.95317841 C 203.36634827 85.35198975 202.45861816 84.23044586 202.12770081 82.63861084 C 201.87599182 78.98628998 202.12892151 79.82832336 201.99284363 77.45776367 C 201.10466003 75.34822083 199.54441833 73.23262024 201.71244812 71.70346832 C 204.00294495 70.76260376 204.03684998 69.83466339 206.40034485 68.93506622 C 209.22422791 68.66793823 210.24763489 69.22917175 212.65863037 69.84869385 C 213.75212097 70.31033325 216.64947510 70.88644409 218.60948181 72.75663757" stroke-width="0.66789120" fill="rgb(232, 69, 75)" opacity="1.0" stroke="rgb(255, 102, 79)" stroke-opacity="0.40637296" stroke-linecap="round" stroke-linejoin="round"/>
    <path d="M 232.72261047 29.59012032 C 236.02450562 31.01852036 231.26487732 36.08426666 229.47697449 40.26564026 C 226.57971191 45.95486069 225.59776306 49.24679565 223.15347290 53.33834457 C 219.38549805 59.51016235 218.59750366 63.46078491 216.48416138 66.75117493 C 213.34713745 70.92811584 209.60322571 70.99076843 204.61907959 68.68696594 C 201.39305115 64.69115448 200.94773865 60.63138580 197.69375610 55.70872116 C 194.75537109 47.12318420 194.38812256 49.02703094 191.88139343 43.37291336 C 190.04588318 37.43448639 187.69834900 36.39229202 186.44380188 30.23584938 C 191.20080566 29.12742233 195.47776794 30.10141182 201.40274048 29.82207298 C 205.79335022 29.85681725 208.91813660 29.92685699 216.26298523 29.65434647 C 220.04560852 29.86613274 226.19674683 29.85016251 232.72261047 29.59012032" stroke-width="0.45252067" fill="rgb(246, 181, 50)" opacity="1.0" stroke="rgb(224, 161, 24)" stroke-opacity="0.5704695" stroke-linecap="round" stroke-linejoin="round"/>
    <path d="M 204.14491272 128.78900146 C 203.88351440 128.74655151 202.60334778 128.67776489 201.09744263 128.72541809 C 199.89820862 128.88627625 199.66494751 128.38339233 200.01705933 126.81922913 C 200.11557007 125.77885437 200.11236572 124.53287506 200.07003784 123.31848907 C 200.08123779 121.83705139 200.08509827 121.22646332 199.85214233 119.95786285 C 199.87777710 118.40267944 200.60142517 118.51466370 202.04035950 118.52135468 C 203.20924377 118.54295349 203.63853455 118.46377563 204.70866394 118.38871765 C 206.01831055 118.03922272 206.32023621 118.90152740 206.22659302 120.55459595 C 206.28501892 121.57055664 206.18174744 122.06193542 206.18128967 123.57216644 C 206.25076294 125.36348724 206.22592163 125.29205322 206.23760986 127.13073730 C 206.27404785 128.26965332 206.32676697 129.09617615 204.14491272 128.78900146" stroke-width="0.53910673" fill="rgb(78, 199, 237)" opacity="1.0" stroke="rgb(73, 196, 225)" stroke-opacity="0.42679924" stroke-linecap="round" stroke-linejoin="round"/>
    <path d="M 218.35745239 126.10116577 C 218.33883667 127.42280579 218.65573120 128.33270264 217.87168884 128.86402893 C 216.81297302 129.10157776 215.72480774 128.55578613 214.65542603 128.69094849 C 213.54595947 128.63766479 212.47076416 129.25175476 212.15676880 127.74590302 C 212.24665833 126.55426025 212.35879517 125.90515900 212.45040894 124.46623993 C 212.37838745 123.54598999 212.56761169 122.61037445 212.31217957 121.10723114 C 212.46556091 119.96828461 212.22102356 119.32162476 212.72032166 118.78547668 C 213.54080200 118.42122650 215.21699524 118.90316010 215.92097473 118.83909607 C 217.62924194 118.84891510 218.27934265 118.16131592 218.54760742 119.37889862 C 218.53660583 120.18329620 218.37782288 121.36130524 218.36364746 122.63590240 C 218.28858948 124.09601593 218.28044128 124.79921722 218.35745239 126.10116577" stroke-width="0.55186772" fill="rgb(76, 197, 239)" opacity="1.0" stroke="rgb(59, 188, 214)" stroke-opacity="0.45440814" stroke-linecap="round" stroke-linejoin="round"/>
    <path d="M 200.85479736 155.22378540 C 200.03634644 155.20571899 200.22477722 153.99015808 200.24694824 152.64500427 C 200.32533264 151.39347839 200.38594055 150.56620789 200.34150696 149.41099548 C 200.39559937 148.27742004 200.21170044 146.95079041 200.14062500 146.24908447 C 200.13284302 144.69615173 201.53739929 145.05813599 202.63104248 144.98864746 C 203.74685669 145.22169495 204.92799377 144.91244507 205.87509155 145.20928955 C 206.60604858 145.98477173 206.44631958 146.32356262 206.39114380 147.50677490 C 206.35812378 148.85865784 206.31057739 149.54577637 206.29121399 150.71470642 C 206.15798950 152.21411133 206.31243896 152.67123413 206.39460754 154.14135742 C 206.80209351 155.72503662 205.66081238 155.23127747 204.37387085 155.18927002 C 203.46420288 155.15936279 201.97892761 155.36578369 200.85479736 155.22378540" stroke-width="0.52942878" fill="rgb(69, 200, 239)" opacity="1.0" stroke="rgb(75, 195, 221)" stroke-opacity="0.50246626" stroke-linecap="round" stroke-linejoin="round"/>
    <path d="M 218.20109558 145.08137512 C 218.90988159 145.93002319 218.69319153 146.00613403 218.68983459 147.87707520 C 218.71423340 148.94734192 218.72076416 149.78503418 218.74150085 151.34129333 C 218.68426514 152.12924194 218.79606628 153.79421997 218.68663025 154.79940796 C 218.61740112 155.98655701 217.56741333 155.99032593 216.17022705 156.14344788 C 215.11598206 156.10586548 213.72282410 156.11759949 212.71002197 155.62850952 C 211.86338806 154.94931030 211.78645325 154.34193420 211.99021912 153.27534485 C 212.11926270 151.86720276 212.23127747 151.12370300 212.17669678 149.85833740 C 212.23048401 148.45222473 212.13043213 147.53877258 212.06538391 146.43035889 C 211.94609070 144.94461060 213.01229858 144.74801636 214.42922974 144.76527405 C 215.22154236 144.77198792 216.68565369 144.68107605 218.20109558 145.08137512" stroke-width="0.00000000" fill="rgb(79, 201, 236)" opacity="1.0" stroke="rgb(170, 255, 253)" stroke-opacity="0.06512286" stroke-linecap="round" stroke-linejoin="round"/>
    <path d="M 204.16598511 181.30491638 C 202.95080566 181.39974976 202.04339600 181.21812439 201.02250671 181.26757812 C 199.72319031 181.05636597 200.26074219 180.30250549 200.32116699 179.23748779 C 200.47900391 177.83731079 200.43272400 177.45372009 200.39619446 175.86599731 C 200.40116882 174.88345337 200.21623230 173.51605225 200.13827515 172.53933716 C 200.16879272 171.32579041 201.02816772 171.63160706 202.54797363 171.71319580 C 203.77227783 171.74328613 204.04188538 171.57861328 205.18112183 171.58325195 C 206.37274170 171.43249512 206.65614319 172.06413269 206.40591431 173.51336670 C 206.28736877 174.86178589 206.19042969 175.54307556 206.15901184 176.62388611 C 206.12210083 178.00140381 206.02967834 178.59257507 206.11183167 179.81225586 C 206.42652893 181.27896118 205.34777832 181.28717041 204.16598511 181.30491638" stroke-width="0.79434180" fill="rgb(69, 194, 239)" opacity="1.0" stroke="rgb(28, 174, 211)" stroke-opacity="0.42814642" stroke-linecap="round" stroke-linejoin="round"/>
    <path d="M 214.57539368 171.41006470 C 215.88310242 171.35290527 216.65766907 171.49038696 217.76873779 171.35211182 C 219.15194702 171.37477112 218.51643372 172.78387451 218.53739929 173.75408936 C 218.42465210 175.37640381 218.48939514 175.79504395 218.48048401 177.22967529 C 218.39753723 178.31692505 218.53887939 179.32392883 218.56300354 180.89718628 C 218.37329102 182.12765503 217.89051819 181.71505737 216.10839844 181.57916260 C 214.68418884 181.47750854 214.49336243 181.62335205 213.39076233 181.82798767 C 212.22697449 182.05473328 212.20668030 181.08590698 212.30839539 179.53602600 C 212.38632202 178.07661438 212.49629211 177.43830872 212.41937256 176.32052612 C 212.39672852 174.75453186 212.42753601 174.53317261 212.39653015 172.75607300 C 212.03863525 170.98857117 213.56654358 171.44487000 214.57539368 171.41006470" stroke-width="0.60389209" fill="rgb(77, 193, 240)" opacity="1.0" stroke="rgb(58, 177, 191)" stroke-opacity="0.33776534" stroke-linecap="round" stroke-linejoin="round"/>
    <path d="M 148.48065186 258.59103394 C 136.93795776 260.25170898 130.92018127 256.72604370 115.99076843 257.50598145 C 105.82907867 258.21221924 96.73690796 259.91976929 83.48538208 257.40240479 C 70.19201660 256.91195679 61.44792175 256.72161865 48.76108170 256.39010620 C 35.30667877 255.68618774 31.34775543 256.71911621 12.88544083 259.10720825 C -3.87415314 262.84872437 -9.49038696 253.58003235 3.92163086 248.89456177 C 21.51891708 245.19290161 23.39517975 245.46551514 31.66008759 247.98800659 C 49.17601776 251.34480286 51.82126617 249.14297485 65.74047089 247.26289368 C 82.29300690 244.54379272 83.68968201 249.13232422 96.69367981 249.95246887 C 108.94731903 250.05761719 120.08956909 246.05395508 131.36972046 246.97332764 C 148.17333984 249.26060486 154.69317627 248.78634644 148.48065186 258.59103394" stroke-width="2.00000000" fill="rgb(9, 167, 176)" opacity="1.0" stroke="rgb(255, 255, 247)" stroke-opacity="0.6694615" stroke-linecap="round" stroke-linejoin="round"/>
    <path d="M 229.17729187 204.19245911 C 224.28315735 204.02340698 224.51780701 204.01199341 219.03436279 204.02087402 C 215.47177124 203.96673584 213.48941040 203.85394287 208.26417542 203.93342590 C 205.19351196 204.09869385 201.50344849 203.96163940 197.76502991 204.12968445 C 194.91180420 203.64222717 189.96565247 204.95783997 189.19107056 203.30133057 C 189.82528687 199.49531555 187.87872314 194.71504211 192.72856140 196.32839966 C 198.52464294 196.74296570 198.19960022 196.35765076 201.58363342 196.40846252 C 206.28092957 196.17669678 208.25314331 196.17156982 211.74066162 196.43756104 C 216.03033447 196.30212402 219.30335999 196.55372620 222.62504578 196.29780579 C 227.54370117 196.43458557 229.49827576 194.74577332 231.44064331 197.01831055 C 230.89260864 199.39164734 233.20204163 205.00369263 229.17729187 204.19245911" stroke-width="0.00000000" fill="rgb(247, 212, 56)" opacity="1.0" stroke="rgb(255, 255, 164)" stroke-opacity="0.0" stroke-linecap="round" stroke-linejoin="round"/>
    <path d="M 218.64598083 74.50520325 C 218.90505981 75.62246704 218.59346008 75.70426941 218.80612183 77.67677307 C 218.82583618 78.73311615 218.95027161 79.74132538 218.93716431 81.28842926 C 218.82429504 82.24784851 218.92871094 83.57629395 219.02494812 84.84347534 C 219.13308716 86.38348389 218.52525330 86.33078766 217.07783508 86.48156738 C 215.08654785 86.44876862 215.22706604 86.79522705 213.57055664 86.08768463 C 212.96754456 84.41785431 213.23136902 84.76951599 213.29487610 83.25713348 C 213.28694153 81.67050171 213.22908020 80.95656586 213.19001770 79.76335144 C 213.28375244 77.87538910 213.12635803 77.95418549 213.06549072 75.87719727 C 212.79959106 74.12799072 213.93914795 74.26852417 215.10739136 74.34550476 C 216.63867188 74.39888763 217.58294678 74.16276550 218.64598083 74.50520325" stroke-width="0.00000000" fill="rgb(247, 248, 245)" opacity="1.0" stroke="rgb(113, 0, 0)" stroke-opacity="0.34731725" stroke-linecap="round" stroke-linejoin="round"/>
    <path d="M 204.91215515 82.33212280 C 204.89575195 83.80104065 204.94372559 83.80680847 204.92034912 85.19243622 C 204.64888000 86.28500366 203.44570923 86.21598816 202.37170410 86.16921234 C 201.26617432 86.38045502 200.57513428 86.07778931 200.74510193 84.62692261 C 200.70153809 83.64631653 200.81924438 82.51875305 200.85034180 81.46949768 C 200.74827576 80.22078705 200.93084717 79.60031128 200.63592529 78.26660919 C 200.69003296 77.27309418 200.66429138 76.77130890 200.64915466 75.87101746 C 201.02322388 74.58000183 201.66079712 74.27233887 203.01506042 74.36478424 C 204.54125977 74.64475250 204.88601685 74.54139709 204.85931396 75.97708893 C 204.88020325 76.70008087 204.86334229 77.83738708 204.93173218 79.02630615 C 204.94047546 80.38306427 204.85978699 81.04737854 204.91215515 82.33212280" stroke-width="0.56347454" fill="rgb(252, 249, 252)" opacity="1.0" stroke="rgb(193, 152, 152)" stroke-opacity="0.9445702" stroke-linecap="round" stroke-linejoin="round"/>
    <path d="M 22.17764282 23.96098709 C 22.04633331 23.70901680 21.98203850 23.56092834 21.85843468 23.26157570 C 21.83349991 23.03584290 21.68724442 22.69223022 21.78994370 22.50953293 C 22.07795906 22.40603447 22.22958755 22.44999695 22.59918022 22.46692085 C 22.90429878 22.52030373 23.14048767 22.71691704 23.31312561 22.88053513 C 23.60313225 23.03767014 23.80537987 23.24062347 23.88749313 23.41838074 C 24.11101151 23.90702820 23.98397636 23.88018227 24.25671577 24.04193497 C 24.63586426 24.13658524 24.54970741 24.53961563 24.29740143 24.73962021 C 23.95153236 24.98320198 23.78368187 24.82798576 23.49431610 24.80239105 C 23.23346901 24.83893585 23.06553841 24.79478455 22.86134911 24.54820633 C 22.61393356 24.37012672 22.55735397 24.35377121 22.17764282 23.96098709" stroke-width="0.13862430" fill="rgb(242, 249, 254)" opacity="1.0" stroke="rgb(239, 216, 178)" stroke-opacity="0.68742394" stroke-linecap="round" stroke-linejoin="round"/>
    <path d="M 100.65357208 31.46257591 C 100.61738586 31.42915916 100.52056122 31.35788918 100.40476227 31.29742432 C 100.34986877 31.23867989 100.19098663 31.18878937 100.17509460 31.08431435 C 100.19686890 30.98676491 100.22992706 30.96161652 100.32909393 30.82065392 C 100.42766571 30.72507286 100.45370483 30.66486549 100.55269623 30.58259964 C 100.68601990 30.56221581 100.81479645 30.61701584 100.87128448 30.66120911 C 101.03710938 30.82196617 101.00520325 30.77374458 101.07981110 30.86711502 C 101.15035248 30.95965576 101.23088074 31.09149933 101.25794983 31.17396164 C 101.30178070 31.34162903 101.30168915 31.38255882 101.24512482 31.48990822 C 101.21501923 31.56391525 101.10337830 31.65646935 100.99254608 31.65126228 C 100.88098145 31.65816879 100.83157349 31.56491852 100.65357208 31.46257591" stroke-width="1.78112555" fill="rgb(141, 144, 151)" opacity="1.0" stroke="rgb(33, 14, 8)" stroke-opacity="0.20548569" stroke-linecap="round" stroke-linejoin="round"/>
    <path d="M 175.79426575 36.10266495 C 175.74392700 36.07649231 175.72392273 36.05444336 175.67912292 36.03332901 C 175.63369751 35.99496841 175.60478210 35.99242020 175.56993103 35.95457840 C 175.54927063 35.91337204 175.57537842 35.88732529 175.59239197 35.84468460 C 175.62504578 35.78804779 175.63897705 35.75453568 175.65943909 35.72186279 C 175.71257019 35.71291351 175.74371338 35.72867966 175.78295898 35.74666977 C 175.85647583 35.79822159 175.84376526 35.78263855 175.88093567 35.81222534 C 175.92384338 35.84120941 175.95822144 35.87990952 175.97604370 35.91851807 C 176.00369263 35.98795700 176.01118469 35.99325180 176.00978088 36.04797363 C 176.01062012 36.09586716 175.97372437 36.13683319 175.93757629 36.14215088 C 175.88253784 36.15686417 175.85234070 36.11888123 175.79426575 36.10266495" stroke-width="0.00000000" fill="rgb(0, 0, 0)" opacity="1.0" stroke="rgb(83, 95, 133)" stroke-opacity="0.03168042" stroke-linecap="round" stroke-linejoin="round"/>
    <path d="M 72.04139709 41.21915817 C 72.15360260 41.28675842 72.52805328 41.44001007 72.82434082 41.54598236 C 73.14205170 41.64959717 73.56958771 41.59838486 73.44681549 41.95983887 C 73.29428864 42.29297638 73.40800476 42.33002853 73.62912750 42.81755447 C 73.72917938 43.19451141 73.82001495 43.41511917 73.76237488 43.70427704 C 73.43351746 43.83226013 72.97397614 43.67642975 72.82172394 43.56319809 C 72.26061249 43.19526291 72.34992218 43.23847198 72.05966187 43.11026001 C 71.68930817 43.13259888 71.38749695 42.95715714 71.15016937 42.68663025 C 70.85827637 42.32112122 71.01393127 42.23691940 70.84136200 41.87797546 C 70.72043610 41.57015610 70.69460297 41.23082733 70.96716309 41.04892349 C 71.19903564 40.86301422 71.48367310 41.08776093 72.04139709 41.21915817" stroke-width="0.00000000" fill="rgb(240, 239, 238)" opacity="1.0" stroke="rgb(165, 160, 139)" stroke-opacity="0.5595937" stroke-linecap="round" stroke-linejoin="round"/>
    <path d="M 200.30319214 13.08089828 C 200.43153381 13.17358780 200.48393250 13.24709797 200.60708618 13.31986332 C 200.73098755 13.44445705 200.81759644 13.45190239 200.93775940 13.53727245 C 200.96174622 13.63190174 200.88725281 13.73146534 200.84262085 13.86995888 C 200.77600098 14.02251244 200.74548340 14.15142250 200.68795776 14.23585701 C 200.55380249 14.23378944 200.38613892 14.17273617 200.32469177 14.11373329 C 200.10618591 13.93883610 200.16481018 13.99670029 200.04144287 13.89006901 C 199.90275574 13.77433491 199.80044556 13.69411373 199.74279785 13.60260010 C 199.68386841 13.41980171 199.67160034 13.31279469 199.67417908 13.19278812 C 199.68672180 13.05070400 199.78912354 12.93252277 199.89952087 12.92326832 C 200.05697632 12.88479042 200.15765381 13.01190948 200.30319214 13.08089828" stroke-width="1.82662570" fill="rgb(76, 81, 127)" opacity="1.0" stroke="rgb(31, 29, 41)" stroke-opacity="0.06356518" stroke-linecap="round" stroke-linejoin="round"/>
    <path d="M 100.30754852 31.59674263 C 100.04432678 31.39677620 99.84117126 31.21210480 99.61295319 31.06908035 C 99.30867004 30.83162689 99.01974487 30.80282211 98.91484070 30.64930153 C 98.91663361 30.44899940 98.89819336 30.20956421 98.93371582 29.82830811 C 99.00994873 29.50687218 99.03918457 29.17822266 99.17578125 28.95494461 C 99.50348663 28.85477257 99.83909607 29.06658554 99.98223114 29.20917511 C 100.39735413 29.65996170 100.32542419 29.60093117 100.55291748 29.76902962 C 100.90916443 29.85938072 101.19226074 30.05657768 101.34819794 30.36301613 C 101.51932526 30.74531746 101.50492859 30.71838188 101.54070282 31.20696068 C 101.55895996 31.60786057 101.40142059 31.85886955 101.21263885 31.93135071 C 100.84761047 32.10202408 100.65345001 31.76808167 100.30754852 31.59674263" stroke-width="0.00000000" fill="rgb(220, 225, 228)" opacity="1.0" stroke="rgb(77, 77, 76)" stroke-opacity="0.3110888" stroke-linecap="round" stroke-linejoin="round"/>
    <path d="M 175.95187378 36.90235138 C 175.61407471 36.71797562 175.44592285 36.58323288 175.14277649 36.42080688 C 174.77735901 36.13615417 174.54028320 36.14072418 174.38322449 35.86392975 C 174.35617065 35.56101608 174.22875977 35.32257462 174.14840698 34.97209930 C 174.07527161 34.62808228 173.97492981 34.28788376 174.09736633 34.00459290 C 174.52764893 33.88269806 174.84957886 34.03969574 175.02767944 34.18424988 C 175.49520874 34.61383820 175.39369202 34.48773193 175.66517639 34.77088928 C 176.00003052 35.08470535 176.18437195 35.27144623 176.41352844 35.48250198 C 176.74226379 35.87798691 176.84150696 35.96281815 177.01133728 36.26288986 C 177.22320557 36.70446014 177.19676208 37.03323364 176.98066711 37.14645004 C 176.58686829 37.27891541 176.27874756 36.98625183 175.95187378 36.90235138" stroke-width="0.00000000" fill="rgb(236, 235, 235)" opacity="1.0" stroke="rgb(181, 181, 173)" stroke-opacity="0.5849187" stroke-linecap="round" stroke-linejoin="round"/>
    <path d="M 199.02145386 12.77261257 C 198.72593689 12.58269024 198.78317261 12.56356525 198.41183472 12.36426353 C 198.19728088 12.25824642 197.99093628 12.16844749 197.68138123 12.02924061 C 197.54544067 11.84348869 197.77793884 11.74069309 197.88888550 11.48902321 C 198.12115479 11.17825890 198.16738892 10.99634933 198.31086731 10.79178333 C 198.62528992 10.80068111 198.75976562 10.91303062 198.98323059 11.07076359 C 199.36677551 11.41523838 199.28276062 11.30138016 199.52061462 11.51199722 C 199.84329224 11.76463890 199.97485352 11.84259415 200.12419128 12.05524254 C 200.25631714 12.42603970 200.25839233 12.59432316 200.25370789 12.83135128 C 200.22607422 13.14811325 200.02575684 13.36953259 199.81858826 13.27898407 C 199.48954773 13.20773697 199.29591370 12.91420174 199.02145386 12.77261257" stroke-width="0.00000000" fill="rgb(221, 224, 230)" opacity="1.0" stroke="rgb(239, 224, 190)" stroke-opacity="0.8252454" stroke-linecap="round" stroke-linejoin="round"/>
  </g>
</svg>
