<?xml version="1.0" ?>
<svg xmlns="http://www.w3.org/2000/svg" version="1.1" width="256" height="256" viewBox="0 0 256 256">
  <defs/>
  <g>
    <path d="M 267.59887695 189.29046631 C 257.93838501 215.15060425 233.21520996 238.81179810 201.21173096 250.81680298 C 160.13116455 261.24639893 131.86415100 253.60705566 104.85028076 248.99786377 C 77.89767456 242.13681030 47.35535431 230.69593811 16.37574768 204.75430298 C -6.33773804 187.29808044 -14.64616394 154.24285889 -16.01171875 114.51713562 C -15.56663513 79.16566467 -20.35919189 42.25712585 -11.36344910 10.61428833 C 7.78081512 -11.39177704 27.38467407 -16.30119324 54.40209961 -10.99842834 C 92.55877686 -8.23932648 126.91876221 -7.24141693 157.68135071 -6.43058014 C 186.89321899 -3.93341064 218.66329956 -9.26094818 251.62799072 -3.79170990 C 273.56079102 19.53128815 281.76806641 49.47885513 280.97552490 90.58764648 C 279.10638428 128.96726990 277.54028320 165.10943604 267.59887695 189.29046631" stroke-width="2.00000000" fill="rgb(10, 26, 66)" opacity="1.0" stroke="rgb(39, 15, 27)" stroke-opacity="1.0" stroke-linecap="round" stroke-linejoin="round"/>
    <path d="M 20.65690613 27.26920509 C 20.65720177 27.26927948 20.65761566 27.26930618 20.65828133 27.26922226 C 20.65872955 27.26926041 20.65932846 27.26896667 20.65965462 27.26900291 C 20.65957832 27.26937103 20.65928078 27.27000999 20.65923119 27.27034760 C 20.65898323 27.27111435 20.65876579 27.27128792 20.65853500 27.27168083 C 20.65807724 27.27220345 20.65752792 27.27235985 20.65718460 27.27243805 C 20.65621948 27.27243233 20.65645409 27.27243614 20.65590668 27.27238464 C 20.65544701 27.27245712 20.65499687 27.27193832 20.65480423 27.27153969 C 20.65458298 27.27087784 20.65459061 27.27061081 20.65457916 27.27006531 C 20.65456200 27.26974487 20.65462303 27.26913643 20.65514946 27.26896667 C 20.65587425 27.26902008 20.65611458 27.26925850 20.65690613 27.26920509" stroke-width="0.00000000" fill="rgb(255, 255, 243)" opacity="1.0" stroke="rgb(49, 0, 0)" stroke-opacity="0.0" stroke-linecap="round" stroke-linejoin="round"/>
    <path d="M 73.07991028 45.80004883 C 73.07981110 45.80329895 73.07891083 45.81055832 73.07964325 45.81798935 C 73.07929993 45.82480240 73.08371735 45.83307648 73.08070374 45.83606339 C 73.07555389 45.83539581 73.06877136 45.83376694 73.06167603 45.83312988 C 73.05193329 45.83125305 73.04746246 45.83086014 73.04058838 45.83158112 C 73.03277588 45.83024216 73.03106689 45.82516098 73.03046417 45.81792450 C 73.03133392 45.81017303 73.03216553 45.80822754 73.03394318 45.80321121 C 73.03752899 45.79421616 73.03641510 45.79291153 73.04450226 45.78588104 C 73.05174255 45.78189468 73.05146027 45.78176498 73.06108856 45.77795792 C 73.06869507 45.77504349 73.07490540 45.77484512 73.07770538 45.77797699 C 73.08183289 45.78318787 73.07931519 45.78882217 73.07991028 45.80004883" stroke-width="2.00000000" fill="rgb(14, 71, 163)" opacity="1.0" stroke="rgb(0, 1, 30)" stroke-opacity="0.11012315" stroke-linecap="round" stroke-linejoin="round"/>
    <path d="M 170.70223999 32.84912491 C 170.55940247 32.89058685 170.55328369 32.87112808 170.39262390 32.94813919 C 170.29455566 32.99234009 170.21786499 33.08705902 170.13659668 33.09816742 C 170.13658142 33.00510406 170.18231201 32.90459061 170.16223145 32.78248596 C 170.15455627 32.61615372 170.13537598 32.56316376 170.04061890 32.45468521 C 169.96945190 32.34258652 170.01870728 32.32162857 170.17723083 32.28188324 C 170.33856201 32.27805328 170.36709595 32.29927063 170.43374634 32.25614548 C 170.54440308 32.18225479 170.63020325 32.21360016 170.74755859 32.29470062 C 170.85650635 32.36202240 170.85682678 32.39040756 170.97488403 32.50812912 C 171.07650757 32.63192368 171.10624695 32.67461777 171.07902527 32.77763748 C 170.96563721 32.87092590 170.82431030 32.80464172 170.70223999 32.84912491" stroke-width="0.00000000" fill="rgb(7, 34, 61)" opacity="1.0" stroke="rgb(240, 178, 164)" stroke-opacity="0.0" stroke-linecap="round" stroke-linejoin="round"/>
    <path d="M 101.87331390 27.67202759 C 101.87352753 27.67201805 101.87364197 27.67204666 101.87385559 27.67197418 C 101.87405396 27.67195320 101.87420654 27.67182159 101.87433624 27.67182159 C 101.87429810 27.67195320 101.87417603 27.67209816 101.87413788 27.67228317 C 101.87404633 27.67254639 101.87403107 27.67262268 101.87406921 27.67284012 C 101.87406158 27.67300797 101.87401581 27.67304802 101.87375641 27.67305756 C 101.87348938 27.67300797 101.87346649 27.67297173 101.87334442 27.67300797 C 101.87313080 27.67307281 101.87302399 27.67300034 101.87287140 27.67280388 C 101.87272644 27.67263985 101.87272644 27.67258453 101.87265015 27.67236137 C 101.87256622 27.67218781 101.87252808 27.67201805 101.87270355 27.67197037 C 101.87287903 27.67191887 101.87306213 27.67206383 101.87331390 27.67202759" stroke-width="1.91567993" fill="rgb(76, 11, 44)" opacity="1.0" stroke="rgb(0, 22, 250)" stroke-opacity="0.0" stroke-linecap="round" stroke-linejoin="round"/>
    <path d="M 200.07432556 12.61860561 C 200.07374573 12.61893559 200.07360840 12.61887264 200.07302856 12.61929131 C 200.07254028 12.61958694 200.07232666 12.62026787 200.07202148 12.62014866 C 200.07192993 12.61962986 200.07186890 12.61915493 200.07159424 12.61867714 C 200.07127380 12.61795139 200.07109070 12.61769772 200.07061768 12.61730194 C 200.07032776 12.61672974 200.07058716 12.61672497 200.07130432 12.61633778 C 200.07218933 12.61608601 200.07199097 12.61607265 200.07255554 12.61586857 C 200.07333374 12.61558628 200.07336426 12.61542320 200.07409668 12.61553860 C 200.07476807 12.61586952 200.07490540 12.61604786 200.07531738 12.61640835 C 200.07575989 12.61687851 200.07597351 12.61737347 200.07586670 12.61766338 C 200.07548523 12.61829185 200.07485962 12.61827755 200.07432556 12.61860561" stroke-width="0.11523438" fill="rgb(7, 12, 0)" opacity="1.0" stroke="rgb(0, 0, 0)" stroke-opacity="0.33057925" stroke-linecap="round" stroke-linejoin="round"/>
    <path d="M 281.17218018 193.86972046 C 277.79528809 210.03308105 270.15460205 235.61866760 247.67961121 258.68383789 C 228.02735901 267.80273438 204.32501221 267.62777710 169.63529968 263.43188477 C 144.09918213 263.08334351 114.23777771 260.84210205 88.75241089 263.87954712 C 56.74838257 263.87112427 31.97922516 271.82043457 7.32051849 260.49639893 C -9.76145935 242.40264893 -16.51109314 209.50332642 -20.00431824 182.96267700 C -18.99519348 151.78424072 -14.79864502 131.55657959 2.37158203 129.10966492 C 27.08898926 128.78295898 53.26771545 129.36573792 88.03184509 128.82958984 C 111.64786530 129.36174011 132.26074219 128.53688049 167.55053711 128.91340637 C 189.80862427 128.92991638 214.92590332 128.96484375 247.18215942 128.89245605 C 268.04687500 126.84649658 281.59661865 147.05908203 281.17218018 193.86972046" stroke-width="0.87831253" fill="rgb(14, 114, 204)" opacity="1.0" stroke="rgb(36, 144, 236)" stroke-opacity="0.5071309" stroke-linecap="round" stroke-linejoin="round"/>
    <path d="M 216.54025269 239.00572205 C 203.31135559 238.50869751 178.85552979 240.63619995 161.18066406 242.86691284 C 138.60029602 239.29525757 127.26366425 236.14697266 119.09803009 237.06454468 C 104.24662018 242.68461609 100.00500488 240.99259949 72.59559631 237.06988525 C 51.04688263 235.09700012 39.99681854 236.32676697 17.91815948 237.13241577 C -16.84809875 244.47622681 7.03617859 233.48936462 21.42347717 235.74255371 C 53.28958893 234.76763916 46.56411743 238.34773254 70.18626404 234.74307251 C 95.06594086 236.97685242 97.50198364 242.09431458 117.36109924 235.73289490 C 130.71653748 232.57626343 133.09678650 238.25729370 155.08641052 238.97541809 C 176.17150879 242.71392822 188.39462280 239.54580688 204.64964294 233.15216064 C 224.72973633 224.49299622 243.48022461 229.03462219 216.54025269 239.00572205" stroke-width="0.00000000" fill="rgb(182, 227, 220)" opacity="1.0" stroke="rgb(255, 255, 255)" stroke-opacity="0.0" stroke-linecap="round" stroke-linejoin="round"/>
    <path d="M 204.48683167 258.29571533 C 187.83958435 257.09295654 183.51864624 250.23472595 160.02401733 246.63526917 C 145.12640381 240.91522217 125.80654144 245.17591858 114.98385620 247.42419434 C 104.38987732 251.93772888 92.63251495 256.04949951 74.07083130 258.77032471 C 50.01617813 261.97543335 27.62452698 266.17391968 11.02543640 262.47436523 C -10.75060272 254.48313904 -5.73921204 245.83224487 18.51693726 244.00044250 C 44.25997925 246.04389954 49.84542847 250.82191467 64.89994049 244.26213074 C 87.62442017 242.52767944 90.76210785 250.47901917 109.11337280 246.56033325 C 124.80283356 243.07991028 130.43754578 243.49468994 155.58372498 244.55046082 C 176.17868042 245.05302429 192.75012207 239.94052124 213.69735718 241.02333069 C 237.01777649 240.39569092 237.88987732 261.64187622 204.48683167 258.29571533" stroke-width="0.00000000" fill="rgb(139, 221, 235)" opacity="1.0" stroke="rgb(94, 255, 255)" stroke-opacity="0.0" stroke-linecap="round" stroke-linejoin="round"/>
    <path d="M 255.98857117 255.40936279 C 249.37570190 260.77172852 237.36785889 255.97029114 223.97164917 257.79528809 C 212.92247009 258.51513672 205.11526489 258.56005859 190.19787598 259.97305298 C 175.52482605 260.63287354 166.25799561 261.18527222 155.48838806 263.62945557 C 144.00204468 259.21813965 153.75270081 251.24362183 157.16429138 236.57946777 C 159.68438721 230.34425354 165.10192871 213.46856689 168.38308716 203.64382935 C 172.31202698 190.94386292 176.88473511 184.01947021 180.76063538 185.83111572 C 192.51322937 192.39721680 202.41873169 192.25938416 215.63941956 191.74922180 C 231.70019531 189.90240479 236.57514954 188.66986084 242.95755005 197.56845093 C 257.00723267 193.81744385 259.04327393 201.71157837 257.53384399 219.28395081 C 256.84451294 228.56465149 258.89202881 246.67570496 255.98857117 255.40936279" stroke-width="0.84665674" fill="rgb(132, 68, 31)" opacity="1.0" stroke="rgb(72, 93, 123)" stroke-opacity="1.0" stroke-linecap="round" stroke-linejoin="round"/>
    <path d="M 225.25666809 201.77401733 C 216.39828491 204.58009338 206.48385620 203.70123291 198.04582214 203.29571533 C 187.72633362 197.78210449 192.31857300 190.54743958 191.42028809 178.84602356 C 191.69267273 168.17877197 190.96427917 160.50080872 191.38375854 149.77708435 C 191.70492554 139.30889893 191.25350952 128.53619385 191.03948975 120.02111816 C 192.44328308 107.19641113 188.05593872 98.92147827 195.66738892 95.81497192 C 208.20399475 94.40086365 211.65777588 93.72059631 221.46766663 93.28562927 C 231.97377014 96.18124390 228.43902588 106.13265991 228.93914795 117.00246429 C 229.33334351 128.70481873 229.17764282 135.66908264 228.96792603 145.79380798 C 229.56536865 159.80690002 229.20278931 160.00772095 229.18302917 174.65884399 C 227.86183167 184.48431396 232.82290649 196.65364075 225.25666809 201.77401733" stroke-width="0.36878043" fill="rgb(252, 255, 250)" opacity="1.0" stroke="rgb(255, 223, 182)" stroke-opacity="0.54466945" stroke-linecap="round" stroke-linejoin="round"/>
    <path d="M 227.25642395 99.43681335 C 223.53170776 99.35530090 222.94360352 99.10320282 218.08525085 99.32063293 C 213.89440918 99.30847168 211.66612244 99.26520538 207.67866516 99.37216949 C 203.65942383 99.36924744 201.40428162 99.28665924 197.70199585 99.40754700 C 192.82453918 99.50260925 191.21328735 99.71574402 192.30778503 95.00027466 C 192.29670715 91.62046814 190.91000366 86.52017975 193.83076477 86.07834625 C 198.13749695 85.94394684 197.86543274 86.25351715 201.45272827 86.47699738 C 205.89807129 85.90729523 207.90298462 85.70164490 211.26341248 85.79521942 C 215.62275696 86.10601807 217.86775208 86.31703949 221.38316345 86.05873108 C 226.40382385 86.29021454 229.22276306 84.88211823 228.11624146 89.66970062 C 227.42807007 94.25014496 228.83241272 97.08953857 227.25642395 99.43681335" stroke-width="0.75151163" fill="rgb(241, 75, 72)" opacity="1.0" stroke="rgb(150, 8, 0)" stroke-opacity="0.48587444" stroke-linecap="round" stroke-linejoin="round"/>
    <path d="M 218.74618530 72.84042358 C 219.04200745 74.25971985 217.99092102 75.71533203 217.66345215 78.31953430 C 216.96095276 80.61700439 217.96987915 83.17584229 216.57643127 84.30517578 C 214.74900818 85.39220428 213.04124451 85.91165924 210.91975403 86.46762848 C 208.80590820 86.98716736 207.56089783 85.66757965 205.31175232 85.30144501 C 202.21260071 84.88857269 201.56829834 84.05647278 201.35177612 82.03655243 C 201.71105957 78.23735809 202.10159302 78.95773315 201.98742676 76.80152130 C 200.46966553 74.64532471 199.80187988 72.25695801 202.22979736 71.31440735 C 204.77316284 70.84307098 204.69558716 69.14981842 206.45861816 67.78747559 C 208.94583130 67.74169159 210.82798767 69.15937805 212.63117981 69.78413391 C 213.79449463 70.33842468 216.58323669 70.69620514 218.74618530 72.84042358" stroke-width="0.67597812" fill="rgb(230, 71, 76)" opacity="1.0" stroke="rgb(255, 80, 52)" stroke-opacity="0.3224438" stroke-linecap="round" stroke-linejoin="round"/>
    <path d="M 232.73646545 29.63364601 C 236.09881592 31.01708794 231.30027771 36.06112289 229.46467590 40.31104279 C 226.53939819 45.90535355 225.55557251 49.35381317 223.11961365 53.37678146 C 219.34553528 59.56440735 218.56733704 63.49775314 216.43234253 66.80310059 C 213.33979797 70.96430206 209.62022400 70.95413208 204.59259033 68.71247864 C 201.37438965 64.70953369 200.93380737 60.72630310 197.67768860 55.77427292 C 194.76829529 47.22323990 194.35937500 49.08366776 191.88198853 43.42277908 C 190.00382996 37.43810272 187.72882080 36.46846771 186.44053650 30.21950531 C 191.19290161 29.01268387 195.56045532 30.00645447 201.37522888 29.77149010 C 205.82312012 29.86283875 208.85659790 29.91096878 216.19055176 29.69295120 C 220.20014954 29.89865494 226.04833984 29.88446045 232.73646545 29.63364601" stroke-width="0.43376300" fill="rgb(245, 178, 48)" opacity="1.0" stroke="rgb(221, 160, 22)" stroke-opacity="0.5855287" stroke-linecap="round" stroke-linejoin="round"/>
    <path d="M 204.22503662 128.72468567 C 203.78880310 128.68638611 202.70106506 128.61303711 201.13934326 128.65162659 C 199.93859863 128.80509949 199.68247986 128.35984802 200.06864929 126.76434326 C 200.15156555 125.79539490 200.09082031 124.53968048 200.09379578 123.27717590 C 200.09793091 121.75055695 200.15933228 121.28755188 199.93107605 119.82715607 C 199.95901489 118.34819031 200.69207764 118.60533142 202.13288879 118.51583099 C 203.32920837 118.51643372 203.68093872 118.43753052 204.80302429 118.36306763 C 206.11721802 117.99177551 206.27513123 118.94979095 206.17440796 120.60320282 C 206.19375610 121.62873840 206.14328003 122.08108521 206.15039062 123.59107971 C 206.20275879 125.36042023 206.13090515 125.30964661 206.24079895 127.14604950 C 206.48773193 128.43778992 206.21813965 128.90213013 204.22503662 128.72468567" stroke-width="0.57033348" fill="rgb(73, 196, 240)" opacity="1.0" stroke="rgb(91, 203, 228)" stroke-opacity="0.4873257" stroke-linecap="round" stroke-linejoin="round"/>
    <path d="M 218.39299011 126.19840240 C 218.32376099 127.53720856 218.59674072 128.47428894 217.81037903 129.02763367 C 216.90266418 129.17532349 215.64015198 128.69813538 214.54512024 128.81060791 C 213.31544495 128.78099060 212.31684875 129.40916443 212.14328003 127.77539825 C 212.22656250 126.69637299 212.31541443 125.85485077 212.36270142 124.46611023 C 212.29782104 123.49121094 212.53292847 122.42309570 212.31549072 121.00519562 C 212.42478943 120.02881622 212.18952942 119.17933655 212.58964539 118.73786163 C 213.33021545 118.43859100 215.06967163 118.81766510 215.85935974 118.79736328 C 217.60835266 118.89593506 218.28338623 118.18421936 218.50711060 119.37427521 C 218.49963379 120.44416046 218.39060974 121.25688171 218.44082642 122.65531158 C 218.38766479 124.13634491 218.33813477 124.92697144 218.39299011 126.19840240" stroke-width="0.49494970" fill="rgb(78, 198, 237)" opacity="1.0" stroke="rgb(80, 190, 215)" stroke-opacity="0.4952221" stroke-linecap="round" stroke-linejoin="round"/>
    <path d="M 200.82063293 155.25640869 C 200.11210632 155.19197083 200.23057556 153.98173523 200.23596191 152.63952637 C 200.28082275 151.38542175 200.36624146 150.59481812 200.32858276 149.41191101 C 200.39634705 148.39149475 200.13763428 146.96784973 200.06068420 146.20094299 C 200.02232361 144.70448303 201.38578796 145.08586121 202.53761292 145.01411438 C 203.67098999 145.20812988 204.88873291 144.84388733 205.78817749 145.16636658 C 206.49653625 145.97953796 206.38403320 146.31597900 206.35958862 147.46159363 C 206.33393860 148.79949951 206.18301392 149.53926086 206.17268372 150.58752441 C 206.00193787 152.13063049 206.22447205 152.71105957 206.35362244 154.02275085 C 206.84202576 155.64608765 205.72245789 155.29528809 204.39753723 155.19158936 C 203.50361633 155.17066956 202.09396362 155.41937256 200.82063293 155.25640869" stroke-width="0.57373422" fill="rgb(73, 199, 233)" opacity="1.0" stroke="rgb(81, 197, 219)" stroke-opacity="0.5307578" stroke-linecap="round" stroke-linejoin="round"/>
    <path d="M 218.18586731 144.91926575 C 218.92073059 145.70983887 218.62905884 145.92127991 218.73075867 147.84194946 C 218.74092102 148.98202515 218.82502747 149.95620728 218.80348206 151.36152649 C 218.71176147 152.10620117 218.89912415 153.87615967 218.84529114 154.88398743 C 218.83164978 156.53631592 217.55986023 155.72639465 216.25140381 155.65777588 C 215.30169678 155.50332642 213.94056702 156.21072388 212.76853943 155.95452881 C 211.87106323 154.81059265 211.86399841 154.81636047 211.92332458 153.50201416 C 212.06806946 151.93490601 212.17778015 151.19171143 212.17074585 150.07946777 C 212.25151062 148.28091431 212.13516235 147.81730652 212.15361023 146.48588562 C 212.08158875 144.81211853 212.99993896 144.35183716 214.28511047 144.72483826 C 215.25663757 144.91299438 216.67179871 144.69145203 218.18586731 144.91926575" stroke-width="0.00000000" fill="rgb(74, 200, 232)" opacity="1.0" stroke="rgb(115, 214, 209)" stroke-opacity="0.24379565" stroke-linecap="round" stroke-linejoin="round"/>
    <path d="M 204.15345764 181.21311951 C 202.89755249 181.33187866 202.12113953 181.16180420 201.02513123 181.27317810 C 199.71055603 181.06591797 200.24235535 180.25314331 200.26530457 179.18101501 C 200.40103149 177.89704895 200.34992981 177.33766174 200.33364868 175.80918884 C 200.34375000 174.69873047 200.21403503 173.44578552 200.11735535 172.45918274 C 200.12545776 171.21688843 201.07534790 171.53308105 202.55355835 171.63273621 C 203.73260498 171.67721558 204.09347534 171.50901794 205.19775391 171.51272583 C 206.38607788 171.35351562 206.68177795 172.00531006 206.43650818 173.44223022 C 206.28982544 174.77040100 206.21519470 175.48797607 206.19142151 176.57429504 C 206.14729309 177.97918701 206.08900452 178.44847107 206.10729980 179.84777832 C 206.47715759 181.42892456 205.22424316 181.20965576 204.15345764 181.21311951" stroke-width="0.74260944" fill="rgb(70, 196, 239)" opacity="1.0" stroke="rgb(54, 181, 214)" stroke-opacity="0.48195428" stroke-linecap="round" stroke-linejoin="round"/>
    <path d="M 214.54364014 171.46321106 C 215.82221985 171.40930176 216.74876404 171.56045532 217.72805786 171.39898682 C 219.17298889 171.37364197 218.63374329 172.82983398 218.63990784 173.83778381 C 218.51342773 175.40583801 218.59614563 175.91021729 218.55123901 177.27992249 C 218.45184326 178.38832092 218.55867004 179.39059448 218.53997803 180.97850037 C 218.38302612 182.19938660 217.76539612 181.77984619 216.01614380 181.56526184 C 214.77764893 181.50714111 214.36512756 181.66314697 213.37953186 181.93980408 C 212.25352478 182.04368591 212.39346313 180.98725891 212.32028198 179.54138184 C 212.38053894 178.15975952 212.44970703 177.45767212 212.43800354 176.34399414 C 212.44685364 174.81089783 212.48992920 174.54592896 212.47267151 172.82640076 C 212.02960205 171.02696228 213.49154663 171.45625305 214.54364014 171.46321106" stroke-width="0.59360045" fill="rgb(72, 198, 240)" opacity="1.0" stroke="rgb(86, 191, 200)" stroke-opacity="0.4086966" stroke-linecap="round" stroke-linejoin="round"/>
    <path d="M 148.22712708 258.31536865 C 135.67092896 260.11419678 129.07545471 258.15075684 115.44438934 260.45175171 C 104.42625427 261.23040771 95.19863129 262.47866821 82.46053314 259.43832397 C 68.83981323 257.91207886 60.03584671 257.58624268 47.10457611 256.56967163 C 34.82437897 255.70535278 28.36858368 255.74006653 10.66495895 257.57403564 C -6.87153625 260.70669556 -10.24993896 253.24421692 4.33009338 248.86502075 C 19.85879517 245.80439758 23.70259857 245.66067505 31.04873657 247.63919067 C 46.71611786 251.63616943 53.30316544 248.85403442 64.43939972 247.42282104 C 81.65439606 244.51612854 83.08394623 248.79695129 95.79026794 249.81317139 C 108.39710999 250.06547546 120.15177917 246.37149048 130.91297913 246.90280151 C 148.08236694 249.31967163 155.05645752 248.82501221 148.22712708 258.31536865" stroke-width="2.00000000" fill="rgb(12, 169, 175)" opacity="1.0" stroke="rgb(255, 255, 248)" stroke-opacity="0.6356808" stroke-linecap="round" stroke-linejoin="round"/>
    <path d="M 229.18913269 204.16352844 C 224.64271545 204.09132385 223.98762512 204.10494995 218.66851807 204.07290649 C 215.54652405 203.99382019 213.17491150 203.83151245 207.88273621 203.91055298 C 205.00393677 204.06321716 200.78677368 203.99700928 197.32878113 204.14549255 C 194.22491455 203.54997253 189.37353516 204.88322449 189.10462952 203.20968628 C 190.11758423 199.56126404 187.62284851 194.65414429 192.68537903 196.26515198 C 198.78556824 196.75776672 198.41609192 196.29615784 201.70828247 196.35511780 C 206.49467468 196.20028687 208.51722717 196.15220642 211.83195496 196.38233948 C 216.56109619 196.22686768 218.88803101 196.53721619 222.58357239 196.29202271 C 228.06752014 196.78494263 229.57781982 195.14569092 231.47361755 196.81198120 C 230.87792969 200.00805664 233.12762451 205.09963989 229.18913269 204.16352844" stroke-width="0.00000000" fill="rgb(249, 213, 52)" opacity="1.0" stroke="rgb(255, 255, 164)" stroke-opacity="0.0" stroke-linecap="round" stroke-linejoin="round"/>
    <path d="M 218.52905273 74.60590363 C 218.92994690 75.60487366 218.59284973 75.80123138 218.73582458 77.53713989 C 218.72778320 78.76005554 218.88179016 79.80443573 218.86798096 81.23407745 C 218.70925903 82.04860687 218.87145996 83.63186646 218.94580078 84.68182373 C 219.12715149 86.41696930 218.44415283 86.46772003 217.00927734 86.20726776 C 215.83320618 86.21063232 215.05065918 86.62918854 213.64083862 86.15456390 C 213.08175659 84.65110779 213.27888489 84.79348755 213.39366150 83.48661041 C 213.35185242 81.67105103 213.34680176 81.43187714 213.29512024 79.84989929 C 213.32673645 78.49220276 213.27767944 78.09619904 213.21183777 76.14761353 C 212.96688843 74.65632629 213.50717163 74.27319336 214.90623474 74.43318176 C 216.75668335 74.44732666 217.09626770 74.16476440 218.52905273 74.60590363" stroke-width="0.12837236" fill="rgb(251, 254, 252)" opacity="1.0" stroke="rgb(208, 194, 188)" stroke-opacity="0.8311439" stroke-linecap="round" stroke-linejoin="round"/>
    <path d="M 204.88482666 82.46534729 C 204.84896851 83.95301056 204.90232849 83.93474579 204.85621643 85.38333130 C 204.53099060 86.38243103 203.30586243 86.11409760 202.22407532 86.12665558 C 201.05825806 86.41249847 200.44642639 86.16313171 200.71537781 84.59487915 C 200.70585632 83.66872406 200.80520630 82.50592804 200.83805847 81.44744873 C 200.74539185 80.17221832 200.90332031 79.53067780 200.61723328 78.27037048 C 200.62992859 77.17156219 200.64996338 76.72052765 200.65898132 75.83760834 C 201.07624817 74.52673340 201.76744080 74.19750977 203.08039856 74.38909149 C 204.55087280 74.76016998 204.91543579 74.64466095 204.86634827 76.13894653 C 204.85113525 76.88723755 204.79916382 77.95677185 204.89193726 79.17495728 C 204.89530945 80.49810028 204.82997131 81.17736053 204.88482666 82.46534729" stroke-width="0.60130286" fill="rgb(251, 248, 248)" opacity="1.0" stroke="rgb(199, 156, 156)" stroke-opacity="0.91138524" stroke-linecap="round" stroke-linejoin="round"/>
    <path d="M 22.18153000 24.00413513 C 22.00777435 23.71413994 21.95218849 23.59571457 21.83201027 23.27446747 C 21.82914925 23.03895760 21.76219177 22.71742058 21.81959343 22.48933029 C 22.06644058 22.34487152 22.40364838 22.39828110 22.65333939 22.40917015 C 23.05447197 22.50870132 23.20292282 22.68327332 23.42719650 22.82740784 C 23.74479866 22.93318176 23.92939186 23.20784760 24.01205254 23.42530632 C 24.20468140 23.94037247 24.08376694 23.94450760 24.39947891 24.08779144 C 24.85928917 24.14615250 24.79598618 24.59846497 24.52191162 24.80362511 C 24.16272926 25.07310295 23.96894073 24.88211250 23.65789032 24.81598091 C 23.37407303 24.82863998 23.21858788 24.78139305 22.98392296 24.52707481 C 22.69891357 24.37362289 22.61974716 24.38246536 22.18153000 24.00413513" stroke-width="0.00000000" fill="rgb(249, 249, 243)" opacity="1.0" stroke="rgb(246, 219, 157)" stroke-opacity="0.73820853" stroke-linecap="round" stroke-linejoin="round"/>
    <path d="M 100.76731873 31.97094727 C 100.72209930 31.93833733 100.64012146 31.87002182 100.55386353 31.82055473 C 100.49520111 31.76293182 100.37489319 31.71735954 100.36086273 31.64873314 C 100.36826324 31.58086586 100.41372681 31.52552414 100.48465729 31.42548752 C 100.55159760 31.34987831 100.60277557 31.26942635 100.67021179 31.21411133 C 100.76902008 31.19760132 100.88194275 31.24918556 100.92584229 31.28672409 C 101.06536865 31.42103958 101.04010010 31.38096809 101.10317993 31.45558739 C 101.16969299 31.52242661 101.24416351 31.64093781 101.26089478 31.70516968 C 101.29165649 31.84966278 101.29203796 31.88991547 101.25429535 31.97611046 C 101.22837830 32.05436325 101.12887573 32.12535858 101.05138397 32.11771011 C 100.94524384 32.13300323 100.90223694 32.04944229 100.76731873 31.97094727" stroke-width="1.99968171" fill="rgb(255, 255, 255)" opacity="1.0" stroke="rgb(8, 0, 9)" stroke-opacity="0.17639878" stroke-linecap="round" stroke-linejoin="round"/>
    <path d="M 175.74208069 35.88498306 C 175.74241638 35.88515854 175.74256897 35.88531876 175.74287415 35.88545609 C 175.74317932 35.88571548 175.74337769 35.88573456 175.74362183 35.88599014 C 175.74374390 35.88626480 175.74357605 35.88644791 175.74345398 35.88674164 C 175.74324036 35.88712311 175.74313354 35.88735962 175.74299622 35.88757706 C 175.74263000 35.88763809 175.74241638 35.88753128 175.74215698 35.88740921 C 175.74165344 35.88705444 175.74172974 35.88716125 175.74148560 35.88695908 C 175.74119568 35.88676453 175.74095154 35.88649368 175.74082947 35.88623810 C 175.74064636 35.88576889 175.74058533 35.88571548 175.74060059 35.88535309 C 175.74060059 35.88503265 175.74084473 35.88475037 175.74110413 35.88471222 C 175.74147034 35.88461304 175.74168396 35.88487244 175.74208069 35.88498306" stroke-width="0.00000000" fill="rgb(0, 0, 0)" opacity="1.0" stroke="rgb(81, 94, 133)" stroke-opacity="0.020429637" stroke-linecap="round" stroke-linejoin="round"/>
    <path d="M 72.02478027 41.34041977 C 72.13406372 41.40957260 72.51071167 41.54951859 72.82053375 41.66420364 C 73.15745544 41.73225021 73.54187775 41.71369934 73.37525940 42.11104202 C 73.17419434 42.52371216 73.30189514 42.52665329 73.60784912 42.95929337 C 73.81532288 43.31442642 73.97617340 43.51089096 73.93829346 43.83742523 C 73.58528137 43.96818161 73.10681152 43.80680084 72.98415375 43.67804337 C 72.41977692 43.30802536 72.50444794 43.33523941 72.21057129 43.17926788 C 71.81621552 43.19588852 71.55205536 43.10103989 71.24133301 42.86969757 C 70.86962891 42.57515335 71.03695679 42.45415497 70.86942291 42.10799789 C 70.75324249 41.76084137 70.69992065 41.38513565 70.92906189 41.21428680 C 71.18773651 40.97849655 71.48378754 41.22489166 72.02478027 41.34041977" stroke-width="0.00000000" fill="rgb(251, 249, 237)" opacity="1.0" stroke="rgb(206, 189, 150)" stroke-opacity="0.7099861" stroke-linecap="round" stroke-linejoin="round"/>
    <path d="M 199.89189148 12.47338676 C 200.08091736 12.61574650 200.17414856 12.73407936 200.35197449 12.84003925 C 200.54049683 13.04028606 200.66276550 13.04955864 200.87678528 13.16480732 C 200.95953369 13.29355812 200.83428955 13.45552349 200.77378845 13.67403030 C 200.68267822 13.90427303 200.65382385 14.11672115 200.56642151 14.22709942 C 200.35621643 14.20476723 200.10269165 14.10726738 200.00584412 14.01532173 C 199.67909241 13.74998474 199.76747131 13.83694839 199.58187866 13.67618465 C 199.37861633 13.50612164 199.21482849 13.37047386 199.12426758 13.25001049 C 199.00692749 12.99576759 198.96408081 12.82611561 198.96243286 12.63599682 C 198.95800781 12.43597603 199.09895325 12.23342133 199.29187012 12.21517849 C 199.51055908 12.16016006 199.67439270 12.36186123 199.89189148 12.47338676" stroke-width="1.41434896" fill="rgb(89, 99, 116)" opacity="1.0" stroke="rgb(5, 0, 0)" stroke-opacity="0.19252673" stroke-linecap="round" stroke-linejoin="round"/>
    <path d="M 100.36720276 31.67322159 C 100.07434845 31.42000580 99.98217773 31.27826309 99.70510864 31.08050537 C 99.40058899 30.85903740 99.05739594 30.88028526 98.95298767 30.74216080 C 98.99066162 30.53939438 98.94728088 30.28297806 98.89634705 29.89984703 C 98.90943146 29.53647995 98.91802979 29.20807266 99.06746674 29.04033279 C 99.43904114 28.96554184 99.78725433 29.13970566 99.92505646 29.28313828 C 100.36927032 29.73278999 100.28460693 29.67568016 100.53394318 29.84927368 C 100.93386078 29.92979431 101.18177795 30.05795860 101.40306091 30.38285065 C 101.60057068 30.73586464 101.56732178 30.74762726 101.60439301 31.23292923 C 101.61351776 31.65141296 101.48371887 31.90197563 101.27179718 32.00435257 C 100.85997009 32.17019272 100.65383148 31.86576080 100.36720276 31.67322159" stroke-width="0.00000000" fill="rgb(206, 211, 208)" opacity="1.0" stroke="rgb(164, 162, 119)" stroke-opacity="0.44318202" stroke-linecap="round" stroke-linejoin="round"/>
    <path d="M 176.01922607 36.91545105 C 175.69033813 36.75045776 175.50202942 36.61655426 175.23869324 36.46547699 C 174.85736084 36.21605301 174.57191467 36.18395615 174.54586792 35.87857819 C 174.54586792 35.59326553 174.38319397 35.35775757 174.23422241 35.02832031 C 174.09730530 34.71147537 173.94155884 34.40741348 174.06521606 34.12576294 C 174.45420837 33.97229767 174.85937500 34.08274078 174.98005676 34.21506119 C 175.47183228 34.61697388 175.36448669 34.49042511 175.61972046 34.76220703 C 175.90466309 35.05163193 176.15972900 35.30320358 176.32357788 35.47873306 C 176.66285706 35.89345169 176.73228455 35.91806793 176.97341919 36.22457886 C 177.24966431 36.64266205 177.25308228 36.92363358 177.01667786 37.06653595 C 176.62588501 37.22229004 176.31161499 36.99247742 176.01922607 36.91545105" stroke-width="0.00000000" fill="rgb(250, 250, 246)" opacity="1.0" stroke="rgb(197, 191, 189)" stroke-opacity="0.60844433" stroke-linecap="round" stroke-linejoin="round"/>
    <path d="M 199.01507568 12.62686920 C 198.72618103 12.43322945 198.77929688 12.41408920 198.41807556 12.22020531 C 198.18753052 12.10939789 197.99720764 12.02713203 197.67433167 11.89821911 C 197.50280762 11.72119141 197.73812866 11.61304855 197.85270691 11.36500931 C 198.08918762 11.06308174 198.13941956 10.88132095 198.29504395 10.69946671 C 198.60798645 10.72659016 198.74313354 10.83804226 198.95783997 10.99626064 C 199.33328247 11.34215927 199.25425720 11.22710609 199.48649597 11.43730450 C 199.80061340 11.67518520 199.94247437 11.77131462 200.07627869 11.97670364 C 200.21200562 12.34137344 200.21708679 12.52326870 200.21453857 12.74836636 C 200.19787598 13.05399418 200.00459290 13.29822540 199.78033447 13.16592216 C 199.46524048 13.06981754 199.28225708 12.77618217 199.01507568 12.62686920" stroke-width="0.00000000" fill="rgb(246, 247, 255)" opacity="1.0" stroke="rgb(111, 112, 115)" stroke-opacity="0.40796104" stroke-linecap="round" stroke-linejoin="round"/>
  </g>
</svg>
