<?xml version="1.0" ?>
<svg xmlns="http://www.w3.org/2000/svg" version="1.1" width="256" height="256" viewBox="0 0 256 256">
  <defs/>
  <g>
    <path d="M 264.60623169 196.22695923 C 253.72441101 222.31799316 228.19320679 245.73312378 194.56489563 256.77734375 C 153.21954346 267.09936523 123.84831238 259.75173950 96.46746063 255.19027710 C 68.93125916 248.14675903 38.71724701 236.03982544 8.02598572 207.43394470 C -13.55599976 189.18569946 -19.40475464 153.90704346 -19.25007629 113.69857025 C -17.41946411 78.05772400 -19.97590637 41.27108765 -12.36448669 7.23478699 C 4.64574432 -16.02611542 25.14533997 -19.68082428 53.62624359 -12.93115997 C 92.08648682 -9.02697754 126.88515472 -7.35964203 157.71293640 -5.26073456 C 188.12265015 -1.64573669 219.61053467 -5.81822968 253.29705811 0.06150818 C 275.71130371 24.04743195 283.05053711 54.53816986 281.34484863 96.31584167 C 278.69812012 135.14875793 275.66723633 172.11158752 264.60623169 196.22695923" stroke-width="2.00000000" fill="rgb(9, 25, 65)" opacity="1.0" stroke="rgb(9, 26, 68)" stroke-opacity="1.0" stroke-linecap="round" stroke-linejoin="round"/>
    <path d="M 20.65766716 27.27350998 C 20.65759659 27.27349281 20.65749741 27.27348709 20.65733719 27.27350616 C 20.65723038 27.27349663 20.65708733 27.27356720 20.65700912 27.27355766 C 20.65702820 27.27346992 20.65709877 27.27331734 20.65711021 27.27323723 C 20.65716934 27.27305412 20.65722275 27.27301216 20.65727806 27.27291870 C 20.65738678 27.27279472 20.65751839 27.27275658 20.65760040 27.27273750 C 20.65783119 27.27273941 20.65777397 27.27273750 20.65790558 27.27275085 C 20.65801620 27.27273178 20.65812302 27.27285576 20.65816879 27.27295303 C 20.65822029 27.27310944 20.65821838 27.27317429 20.65822220 27.27330399 C 20.65822601 27.27338219 20.65821266 27.27352715 20.65808678 27.27356720 C 20.65791321 27.27355385 20.65785599 27.27349854 20.65766716 27.27350998" stroke-width="0.00000000" fill="rgb(255, 255, 243)" opacity="1.0" stroke="rgb(49, 0, 0)" stroke-opacity="0.0" stroke-linecap="round" stroke-linejoin="round"/>
    <path d="M 72.19885254 42.78660965 C 72.19867706 42.78938293 72.19758606 42.79640579 72.19841766 42.80313873 C 72.19789124 42.80955505 72.20203400 42.81673813 72.19967651 42.81990051 C 72.19452667 42.81955338 72.18872070 42.81781387 72.18209076 42.81715012 C 72.17359924 42.81557083 72.16880798 42.81511307 72.16271210 42.81592560 C 72.15597534 42.81491470 72.15439606 42.81010056 72.15409088 42.80275345 C 72.15529633 42.79491425 72.15543365 42.79393387 72.15665436 42.78887939 C 72.15859222 42.78145981 72.15994263 42.77785873 72.16656494 42.77268600 C 72.17359924 42.76873398 72.17290497 42.76874542 72.18201447 42.76542664 C 72.18897247 42.76307678 72.19491577 42.76296616 72.19783020 42.76601410 C 72.20159912 42.77083969 72.19869995 42.77594757 72.19885254 42.78660965" stroke-width="1.88403118" fill="rgb(155, 0, 0)" opacity="1.0" stroke="rgb(96, 59, 0)" stroke-opacity="0.1480362" stroke-linecap="round" stroke-linejoin="round"/>
    <path d="M 171.26644897 32.19437027 C 171.17744446 32.22263336 171.16635132 32.21302032 171.06997681 32.26444626 C 171.00285339 32.29440689 170.95875549 32.36576843 170.91131592 32.36244965 C 170.90814209 32.29970551 170.93174744 32.23386765 170.91233826 32.15727615 C 170.90003967 32.05292130 170.88226318 32.01556396 170.81683350 31.95459557 C 170.76924133 31.88017654 170.80239868 31.87373543 170.90524292 31.84048653 C 171.01573181 31.83563042 171.02606201 31.84685135 171.07354736 31.81980515 C 171.14936829 31.77207184 171.19689941 31.78659058 171.27764893 31.83650780 C 171.35073853 31.87771606 171.35514832 31.89788628 171.43124390 31.96783829 C 171.49871826 32.04443741 171.51800537 32.07277679 171.50354004 32.13856125 C 171.43666077 32.20359421 171.34486389 32.16455460 171.26644897 32.19437027" stroke-width="0.43001583" fill="rgb(2, 41, 87)" opacity="1.0" stroke="rgb(254, 217, 180)" stroke-opacity="0.0" stroke-linecap="round" stroke-linejoin="round"/>
    <path d="M 101.83351898 27.60072136 C 101.84482574 27.60022354 101.85129547 27.60172653 101.86270905 27.59789085 C 101.87338257 27.59672928 101.88165283 27.58972931 101.88850403 27.58969688 C 101.88671875 27.59673500 101.87992859 27.60459518 101.87784576 27.61455345 C 101.87287903 27.62873459 101.87228394 27.63280678 101.87397766 27.64455032 C 101.87370300 27.65354538 101.87133789 27.65569115 101.85717010 27.65620041 C 101.84275055 27.65358353 101.84169006 27.65155983 101.83508301 27.65352058 C 101.82341766 27.65698433 101.81764984 27.65304756 101.80963898 27.64255905 C 101.80168915 27.63368034 101.80163574 27.63074112 101.79764557 27.61873817 C 101.79302979 27.60932732 101.79109192 27.60021782 101.80056763 27.59763145 C 101.81020355 27.59485435 101.81994629 27.60267448 101.83351898 27.60072136" stroke-width="1.90361559" fill="rgb(72, 13, 49)" opacity="1.0" stroke="rgb(0, 34, 234)" stroke-opacity="0.0" stroke-linecap="round" stroke-linejoin="round"/>
    <path d="M 200.07591248 12.61151791 C 200.07563782 12.61166668 200.07557678 12.61163807 200.07531738 12.61182690 C 200.07510376 12.61196041 200.07499695 12.61226749 200.07485962 12.61221409 C 200.07482910 12.61197948 200.07479858 12.61176491 200.07467651 12.61155033 C 200.07452393 12.61122227 200.07444763 12.61110783 200.07423401 12.61092949 C 200.07409668 12.61067104 200.07421875 12.61066914 200.07453918 12.61049461 C 200.07495117 12.61038113 200.07485962 12.61037445 200.07510376 12.61028290 C 200.07545471 12.61015606 200.07546997 12.61008263 200.07580566 12.61013412 C 200.07611084 12.61028290 200.07617188 12.61036396 200.07635498 12.61052608 C 200.07655334 12.61073780 200.07664490 12.61096191 200.07659912 12.61109257 C 200.07643127 12.61137581 200.07614136 12.61136913 200.07591248 12.61151791" stroke-width="0.11523042" fill="rgb(7, 12, 0)" opacity="1.0" stroke="rgb(0, 0, 0)" stroke-opacity="0.33057925" stroke-linecap="round" stroke-linejoin="round"/>
    <path d="M 279.09008789 194.76245117 C 275.82189941 211.32611084 270.41802979 237.59556580 247.32574463 260.18688965 C 226.65139771 267.00979614 204.29208374 266.50463867 168.88763428 262.29312134 C 143.28619385 261.56152344 113.92906189 259.06829834 88.36763000 262.55770874 C 56.29518127 262.21987915 32.06658173 270.72625732 6.73597717 261.00244141 C -10.48983002 244.01577759 -16.33731842 210.16204834 -19.30850983 183.29879761 C -18.07740021 152.14447021 -14.84371185 131.63090515 2.60626984 129.05502319 C 27.40279388 128.71875000 53.27017975 129.41786194 88.36322784 128.85028076 C 111.80097961 129.41069031 132.23028564 128.53953552 167.56314087 128.97576904 C 189.54508972 129.06089783 214.86218262 128.99826050 247.20706177 128.93032837 C 268.86322021 126.97861481 280.24069214 147.74085999 279.09008789 194.76245117" stroke-width="0.89007157" fill="rgb(14, 114, 203)" opacity="1.0" stroke="rgb(38, 147, 240)" stroke-opacity="0.49524096" stroke-linecap="round" stroke-linejoin="round"/>
    <path d="M 217.94863892 239.36065674 C 204.47552490 238.90023804 179.88945007 240.97079468 162.45474243 243.05503845 C 139.72418213 239.68432617 128.76171875 236.59860229 119.32575226 237.06814575 C 104.94571686 242.56019592 100.11662292 241.14581299 72.52359772 237.06224060 C 52.09665680 235.12644958 39.52227783 236.20901489 18.09333038 237.06805420 C -16.51570129 244.51902771 6.66937256 233.40658569 21.32051086 235.71455383 C 53.17363358 234.73321533 46.49263763 238.21279907 70.24352264 234.72315979 C 94.87511444 236.81028748 98.15647888 242.00881958 116.81813812 235.63270569 C 129.61282349 232.53051758 133.09780884 238.17303467 155.36703491 238.83668518 C 176.53544617 242.16125488 189.74707031 239.48092651 205.76046753 233.86386108 C 226.40707397 225.41110229 244.85493469 229.94883728 217.94863892 239.36065674" stroke-width="0.00000000" fill="rgb(185, 233, 223)" opacity="1.0" stroke="rgb(255, 255, 255)" stroke-opacity="0.0" stroke-linecap="round" stroke-linejoin="round"/>
    <path d="M 205.96797180 255.42160034 C 189.72320557 252.60816956 185.63989258 250.28129578 161.30975342 246.39877319 C 145.89933777 241.23443604 126.37151337 244.87072754 114.84037018 247.51544189 C 103.89884186 252.13740540 93.05178070 255.80967712 74.19139099 258.05407715 C 50.36131287 261.16738892 28.11243439 265.44778442 11.60019684 261.44281006 C -9.75049591 252.35461426 -3.95217133 245.21472168 19.27696991 244.23815918 C 45.77046967 246.10174561 51.75891113 251.12297058 65.42147827 244.06744385 C 86.59349060 242.66247559 91.55381012 250.92192078 111.44776154 245.94563293 C 131.64105225 242.68266296 134.45382690 243.72866821 157.83328247 244.38806152 C 179.16076660 245.20509338 194.16534424 240.11611938 215.63082886 240.63113403 C 237.82116699 239.82531738 239.55845642 260.17855835 205.96797180 255.42160034" stroke-width="0.00000000" fill="rgb(139, 218, 231)" opacity="1.0" stroke="rgb(94, 255, 255)" stroke-opacity="0.0" stroke-linecap="round" stroke-linejoin="round"/>
    <path d="M 256.17071533 255.12219238 C 249.47087097 260.86132812 237.99147034 256.20022583 224.58151245 257.46133423 C 212.88798523 257.95971680 205.98492432 257.91943359 191.03428650 259.15307617 C 177.33934021 259.69949341 166.49887085 260.28399658 156.13693237 262.28634644 C 143.87638855 259.78552246 154.01742554 249.77149963 157.16067505 236.61448669 C 160.47938538 228.14385986 165.60028076 211.90562439 168.14376831 203.87986755 C 172.75535583 190.42749023 176.61625671 183.94017029 180.56268311 185.76496887 C 192.69596863 192.26129150 201.98475647 192.25363159 215.21313477 191.55953979 C 230.36872864 190.20297241 236.04969788 188.36074829 242.89895630 197.44714355 C 256.61840820 194.01902771 259.77084351 201.62635803 257.96972656 218.85615540 C 257.35171509 228.04484558 258.82601929 245.70675659 256.17071533 255.12219238" stroke-width="0.87642574" fill="rgb(133, 69, 30)" opacity="1.0" stroke="rgb(76, 93, 120)" stroke-opacity="0.9388599" stroke-linecap="round" stroke-linejoin="round"/>
    <path d="M 225.31661987 201.68464661 C 216.53083801 204.58767700 206.57885742 203.69001770 198.14479065 203.33674622 C 187.74880981 197.87086487 192.27803040 190.85064697 191.39736938 178.98934937 C 191.67121887 168.40014648 190.94009399 160.61103821 191.35935974 149.96466064 C 191.68609619 139.52178955 191.25407410 128.78388977 191.05470276 120.26081848 C 192.49858093 107.43985748 188.16091919 99.26485443 195.51104736 95.85301208 C 208.02766418 94.26380920 211.46324158 93.75170135 221.30564880 93.35549927 C 232.03533936 96.09952545 228.41741943 106.00300598 228.90367126 116.85131073 C 229.32562256 128.53401184 229.17356873 135.50167847 228.96392822 145.64938354 C 229.54803467 159.61334229 229.19781494 159.87892151 229.13323975 174.47937012 C 227.78778076 184.37628174 232.71266174 196.43545532 225.31661987 201.68464661" stroke-width="0.37526035" fill="rgb(252, 251, 250)" opacity="1.0" stroke="rgb(255, 218, 186)" stroke-opacity="0.53887254" stroke-linecap="round" stroke-linejoin="round"/>
    <path d="M 227.37483215 99.44309998 C 223.75222778 99.37254333 222.88435364 99.10279083 218.11006165 99.32846832 C 213.82501221 99.33734894 211.75765991 99.30783081 207.76826477 99.39077759 C 203.80001831 99.36221313 201.38238525 99.29661560 197.78239441 99.42918396 C 192.85354614 99.50557709 191.14996338 99.70087433 192.26339722 95.00864410 C 192.27110291 91.82160187 190.85066223 86.46437836 193.72499084 86.06101227 C 198.21194458 85.91896057 197.80094910 86.19832611 201.43864441 86.45899963 C 205.94754028 85.97901917 207.89295959 85.72188568 211.34153748 85.81540680 C 215.66383362 86.10067749 217.89447021 86.25897217 221.47712708 86.00611877 C 226.53453064 86.15055084 229.26866150 84.89548492 228.11770630 89.67496490 C 227.45182800 94.28961182 228.86628723 97.01571655 227.37483215 99.44309998" stroke-width="0.76359349" fill="rgb(242, 75, 69)" opacity="1.0" stroke="rgb(149, 5, 0)" stroke-opacity="0.49224114" stroke-linecap="round" stroke-linejoin="round"/>
    <path d="M 218.75134277 72.84938049 C 218.96046448 74.40452576 218.05494690 75.55554962 217.78224182 78.28684998 C 217.05328369 80.54190826 218.40147400 83.26765442 216.51016235 84.22026062 C 214.71662903 84.87292480 213.16624451 85.67294312 210.98985291 86.57266235 C 208.94483948 87.24092102 207.68104553 86.27594757 205.38774109 85.73328400 C 202.43206787 85.21376801 201.56712341 84.20741272 201.33663940 82.39270782 C 201.49415588 78.63986969 201.76416016 79.39545441 201.80732727 77.15387726 C 200.68754578 75.08566284 199.45025635 72.75312805 201.90612793 71.41607666 C 204.40858459 70.76017761 204.28454590 69.42620850 206.43841553 68.39217377 C 209.20376587 68.19094086 210.82073975 69.24235535 212.78405762 69.82541656 C 213.93414307 70.38860321 216.77633667 70.74943542 218.75134277 72.84938049" stroke-width="0.60031366" fill="rgb(234, 71, 79)" opacity="1.0" stroke="rgb(255, 86, 47)" stroke-opacity="0.29014575" stroke-linecap="round" stroke-linejoin="round"/>
    <path d="M 232.72882080 29.61996269 C 236.05175781 31.04043961 231.21730042 36.06970215 229.39428711 40.31434631 C 226.45848083 45.92242432 225.50022888 49.34678268 223.08595276 53.40873718 C 219.38635254 59.55995941 218.58831787 63.60021973 216.43489075 66.83178711 C 213.30424500 70.95525360 209.63925171 70.99629974 204.61784363 68.73060608 C 201.41072083 64.71195984 200.96015930 60.73643494 197.69647217 55.77416992 C 194.77038574 47.18929291 194.37313843 49.06122589 191.88818359 43.40090561 C 190.03698730 37.42694473 187.73516846 36.41639709 186.43399048 30.20425034 C 191.18858337 29.08775520 195.51846313 30.08227539 201.39077759 29.81520081 C 205.81965637 29.86157036 208.87617493 29.92284775 216.21218872 29.70075989 C 220.26077271 29.91938782 226.03765869 29.87491608 232.72882080 29.61996269" stroke-width="0.43524525" fill="rgb(246, 176, 48)" opacity="1.0" stroke="rgb(219, 156, 26)" stroke-opacity="0.60015553" stroke-linecap="round" stroke-linejoin="round"/>
    <path d="M 204.16825867 128.77836609 C 203.84234619 128.73521423 202.63415527 128.65187073 201.10658264 128.68186951 C 199.89930725 128.83621216 199.61639404 128.38165283 200.01472473 126.80941010 C 200.11087036 125.77711487 200.09646606 124.52265930 200.06455994 123.30899811 C 200.07344055 121.78487396 200.11213684 121.29139709 199.88336182 119.89720917 C 199.92135620 118.35945892 200.63018799 118.52309418 202.07086182 118.52065277 C 203.25476074 118.55160522 203.64476013 118.47931671 204.75302124 118.42552185 C 206.09074402 118.05485535 206.30586243 118.95935059 206.18728638 120.60961151 C 206.22206116 121.62860870 206.14498901 122.11189270 206.15504456 123.62207031 C 206.21966553 125.40565491 206.17857361 125.34935760 206.23275757 127.17785645 C 206.35786438 128.35585022 206.27851868 129.07279968 204.16825867 128.77836609" stroke-width="0.53983098" fill="rgb(78, 198, 240)" opacity="1.0" stroke="rgb(85, 198, 223)" stroke-opacity="0.4699096" stroke-linecap="round" stroke-linejoin="round"/>
    <path d="M 218.34516907 126.16324615 C 218.28411865 127.47299957 218.55854797 128.47918701 217.74343872 128.96058655 C 216.83410645 129.13093567 215.63485718 128.63073730 214.52354431 128.75222778 C 213.39048767 128.71699524 212.32086182 129.33041382 212.12947083 127.71776581 C 212.23295593 126.55084991 212.31327820 125.85230255 212.36543274 124.42519379 C 212.29992676 123.46321106 212.53956604 122.47655487 212.30383301 121.01933289 C 212.43728638 119.97772217 212.18402100 119.23561096 212.62199402 118.72594452 C 213.37379456 118.42722321 215.11889648 118.83897400 215.85859680 118.80229950 C 217.57797241 118.87902832 218.27264404 118.17782593 218.46627808 119.40850067 C 218.46424866 120.40369415 218.35763550 121.30301666 218.39817810 122.65765381 C 218.34576416 124.11676025 218.29598999 124.88365936 218.34516907 126.16324615" stroke-width="0.49543592" fill="rgb(73, 195, 236)" opacity="1.0" stroke="rgb(78, 193, 216)" stroke-opacity="0.4604295" stroke-linecap="round" stroke-linejoin="round"/>
    <path d="M 200.79180908 155.28123474 C 200.07882690 155.17506409 200.21316528 154.04447937 200.22424316 152.67269897 C 200.27207947 151.43121338 200.35256958 150.61436462 200.30693054 149.42758179 C 200.36805725 148.39892578 200.12844849 146.98631287 200.05502319 146.21627808 C 200.03623962 144.73423767 201.40133667 145.12333679 202.55177307 145.04804993 C 203.65518188 145.25473022 204.89338684 144.88284302 205.80207825 145.20909119 C 206.50729370 146.03454590 206.39982605 146.33815002 206.36364746 147.51641846 C 206.33308411 148.87248230 206.18804932 149.58073425 206.17350769 150.65245056 C 206.00141907 152.20079041 206.22259521 152.74055481 206.34907532 154.10272217 C 206.83283997 155.70295715 205.69329834 155.31559753 204.37185669 155.23052979 C 203.47111511 155.20745850 202.06594849 155.45475769 200.79180908 155.28123474" stroke-width="0.58616829" fill="rgb(69, 201, 237)" opacity="1.0" stroke="rgb(75, 191, 217)" stroke-opacity="0.53076136" stroke-linecap="round" stroke-linejoin="round"/>
    <path d="M 218.17059326 144.95703125 C 218.88670349 145.78092957 218.62971497 145.93017578 218.69299316 147.79789734 C 218.71200562 148.90402222 218.74998474 149.83566284 218.76577759 151.32702637 C 218.70364380 152.09153748 218.86746216 153.82208252 218.81092834 154.80329895 C 218.77970886 156.25898743 217.54815674 155.66990662 216.21650696 155.71723938 C 215.22357178 155.55369568 213.75276184 155.97166443 212.66494751 155.76106262 C 211.84606934 155.06893921 211.82615662 154.61076355 211.94798279 153.38293457 C 212.06953430 151.77342224 212.12957764 151.20243835 212.11999512 150.06913757 C 212.18702698 148.32453918 212.09326172 147.75694275 212.10069275 146.46398926 C 212.01852417 144.85433960 212.99411011 144.54779053 214.31011963 144.77043152 C 215.19297791 144.82977295 216.66351318 144.66522217 218.17059326 144.95703125" stroke-width="0.00000000" fill="rgb(73, 195, 234)" opacity="1.0" stroke="rgb(223, 224, 201)" stroke-opacity="0.39304686" stroke-linecap="round" stroke-linejoin="round"/>
    <path d="M 204.13975525 181.27000427 C 202.89997864 181.38807678 202.07040405 181.21957397 201.00981140 181.31849670 C 199.71310425 181.10357666 200.24699402 180.26835632 200.25369263 179.22634888 C 200.38581848 177.89193726 200.33666992 177.40570068 200.30839539 175.84657288 C 200.32015991 174.79414368 200.15895081 173.45451355 200.09315491 172.49053955 C 200.11981201 171.27722168 201.04029846 171.54450989 202.52494812 171.65139771 C 203.70075989 171.69848633 204.06372070 171.52958679 205.16419983 171.54512024 C 206.33949280 171.41056824 206.66242981 172.02517700 206.44068909 173.45307922 C 206.30484009 174.78549194 206.23255920 175.49700928 206.19795227 176.60295105 C 206.15403748 177.99691772 206.09414673 178.49977112 206.10717773 179.86274719 C 206.44822693 181.41183472 205.22259521 181.25361633 204.13975525 181.27000427" stroke-width="0.74848646" fill="rgb(70, 195, 238)" opacity="1.0" stroke="rgb(41, 176, 212)" stroke-opacity="0.46930936" stroke-linecap="round" stroke-linejoin="round"/>
    <path d="M 214.56420898 171.50538635 C 215.85508728 171.45541382 216.70657349 171.60453796 217.74353027 171.45143127 C 219.19905090 171.42639160 218.63182068 172.86029053 218.62907410 173.84030151 C 218.51220703 175.43760681 218.58793640 175.87959290 218.55247498 177.30148315 C 218.46160889 178.35479736 218.58125305 179.41514587 218.58457947 180.97825623 C 218.42428589 182.18716431 217.82046509 181.77281189 216.07559204 181.57081604 C 214.82904053 181.49873352 214.41220093 181.65171814 213.43052673 181.90785217 C 212.28201294 182.07434082 212.36062622 181.05520630 212.34547424 179.57273865 C 212.42292786 178.16297913 212.51800537 177.47610474 212.48106384 176.37081909 C 212.47650146 174.82867432 212.51049805 174.57904053 212.48402405 172.84030151 C 212.04490662 171.04846191 213.53012085 171.50721741 214.56420898 171.50538635" stroke-width="0.63218397" fill="rgb(73, 199, 239)" opacity="1.0" stroke="rgb(67, 180, 198)" stroke-opacity="0.41366598" stroke-linecap="round" stroke-linejoin="round"/>
    <path d="M 148.33035278 258.36148071 C 136.13053894 260.07250977 129.48214722 257.54965210 115.34377289 259.37820435 C 104.71906281 260.02856445 95.53869629 261.54949951 82.49030304 258.50189209 C 69.06584167 257.32107544 59.81310272 256.98764038 47.01559448 256.39401245 C 34.11973572 255.53799438 28.70646286 256.12350464 10.62065125 258.58383179 C -6.66587067 262.61730957 -10.99235535 254.11642456 3.36680603 249.14498901 C 19.54598618 245.83349609 23.00548553 245.34233093 30.60853958 247.71185303 C 47.03287506 251.56391907 52.52902222 249.18534851 64.53028107 247.47422791 C 81.70567322 244.52722168 83.13324738 248.90534973 96.11461639 249.87696838 C 108.53540039 250.08366394 120.14138794 246.22776794 131.33328247 246.91012573 C 148.33372498 249.26345825 154.98358154 248.90150452 148.33035278 258.36148071" stroke-width="2.00000000" fill="rgb(8, 167, 175)" opacity="1.0" stroke="rgb(255, 255, 248)" stroke-opacity="0.6294922" stroke-linecap="round" stroke-linejoin="round"/>
    <path d="M 229.06321716 204.14065552 C 224.41491699 204.03149414 224.08854675 204.06556702 218.68902588 204.03123474 C 215.53611755 203.95103455 213.22358704 203.80049133 207.96742249 203.87115479 C 205.08944702 204.02003479 200.90997314 203.95065308 197.45687866 204.10881042 C 194.39070129 203.52568054 189.50538635 204.86894226 189.12771606 203.20750427 C 190.22070312 199.52626038 187.63427734 194.61614990 192.69706726 196.22610474 C 198.74748230 196.70170593 198.36352539 196.25399780 201.68441772 196.30888367 C 206.44660950 196.16520691 208.43049622 196.13090515 211.77500916 196.37730408 C 216.46101379 196.19964600 218.82272339 196.48379517 222.52326965 196.23043823 C 227.89636230 196.68635559 229.41432190 195.08888245 231.42129517 196.71737671 C 230.87962341 199.91810608 233.15243530 205.02482605 229.06321716 204.14065552" stroke-width="0.00000000" fill="rgb(251, 216, 55)" opacity="1.0" stroke="rgb(255, 255, 164)" stroke-opacity="0.0" stroke-linecap="round" stroke-linejoin="round"/>
    <path d="M 218.55419922 74.55297089 C 218.92581177 75.60598755 218.61239624 75.69490814 218.74429321 77.54499817 C 218.71907043 78.69003296 218.85769653 79.73690033 218.83665466 81.23452759 C 218.71170044 82.07466125 218.87045288 83.65969086 218.94473267 84.71303558 C 219.14199829 86.46722412 218.42082214 86.35885620 217.02388000 86.22496796 C 215.46710205 86.26853943 215.17370605 86.64188385 213.62261963 86.14571381 C 213.05567932 84.52799988 213.29309082 84.82044220 213.34977722 83.36489868 C 213.30805969 81.63092804 213.29602051 81.20633698 213.24038696 79.82538605 C 213.33689880 77.90523529 213.18380737 78.12465668 213.15420532 75.98725891 C 212.91764832 74.37953949 213.61764526 74.17079163 214.87074280 74.35518646 C 216.75192261 74.39329529 217.11849976 74.18008423 218.55419922 74.55297089" stroke-width="0.00000000" fill="rgb(253, 252, 251)" opacity="1.0" stroke="rgb(207, 243, 244)" stroke-opacity="0.83419734" stroke-linecap="round" stroke-linejoin="round"/>
    <path d="M 204.91215515 82.40862274 C 204.87318420 83.89294434 204.92604065 83.86016846 204.89436340 85.29976654 C 204.58982849 86.32958984 203.36763000 86.10644531 202.29307556 86.10960388 C 201.14813232 86.36927795 200.51722717 86.13903046 200.76087952 84.59201813 C 200.74397278 83.66366577 200.84207153 82.51772308 200.86979675 81.45292664 C 200.77107239 80.18470764 200.95092773 79.54616547 200.67124939 78.26715851 C 200.69776917 77.20024109 200.69825745 76.74181366 200.68775940 75.85736847 C 201.07237244 74.55683136 201.79818726 74.24522400 203.08853149 74.39160156 C 204.57969666 74.73276520 204.93003845 74.58972931 204.90304565 76.07716370 C 204.90333557 76.81873322 204.85234070 77.93102264 204.93316650 79.11928558 C 204.93473816 80.45318604 204.85748291 81.13281250 204.91215515 82.40862274" stroke-width="0.56709498" fill="rgb(248, 251, 246)" opacity="1.0" stroke="rgb(187, 150, 150)" stroke-opacity="0.9214927" stroke-linecap="round" stroke-linejoin="round"/>
    <path d="M 22.17200851 24.09723854 C 22.00476646 23.80917358 21.92756653 23.65648651 21.79843712 23.31715775 C 21.78325272 23.06433296 21.67070580 22.69492340 21.76861572 22.47616959 C 22.06128693 22.33593941 22.33934402 22.38849258 22.67110062 22.39514351 C 23.06489372 22.48476219 23.26137352 22.67478561 23.48821449 22.83460426 C 23.82654381 22.96768188 24.03820801 23.24997139 24.12950134 23.47040367 C 24.35785675 24.02149963 24.22252655 24.00459862 24.55252075 24.18115997 C 25.01889801 24.26424217 24.92034721 24.75261497 24.63578796 24.96129227 C 24.24791908 25.24345589 24.05350494 25.04842949 23.72551155 24.98521233 C 23.42979240 25.00726128 23.26013756 24.95610046 23.01444435 24.68067551 C 22.71797943 24.50806999 22.62879753 24.51033974 22.17200851 24.09723854" stroke-width="0.00000000" fill="rgb(228, 227, 222)" opacity="1.0" stroke="rgb(210, 186, 129)" stroke-opacity="0.6082571" stroke-linecap="round" stroke-linejoin="round"/>
    <path d="M 100.42804718 30.98921967 C 100.41159821 30.97725868 100.37682343 30.94991684 100.34061432 30.93019104 C 100.31618500 30.90760231 100.26603699 30.88983917 100.26164246 30.86126137 C 100.26644135 30.83252716 100.28385162 30.81305122 100.31345367 30.77095413 C 100.34213257 30.73936844 100.35893250 30.70940590 100.38852692 30.68445396 C 100.42997742 30.67582130 100.47603607 30.69716835 100.49448395 30.71177101 C 100.55229950 30.76547432 100.54182434 30.74962425 100.56829834 30.77928734 C 100.59500122 30.80516624 100.62526703 30.85444641 100.63214111 30.88129425 C 100.64538574 30.94014549 100.64589691 30.95566559 100.62927246 30.99140930 C 100.61892700 31.02146721 100.57859802 31.05169296 100.54517365 31.04940987 C 100.50422668 31.05564880 100.48486328 31.02154541 100.42804718 30.98921967" stroke-width="1.97598708" fill="rgb(222, 255, 255)" opacity="1.0" stroke="rgb(1, 0, 0)" stroke-opacity="0.38916323" stroke-linecap="round" stroke-linejoin="round"/>
    <path d="M 175.74130249 35.88247681 C 175.74235535 35.88302231 175.74282837 35.88351440 175.74375916 35.88394165 C 175.74472046 35.88475418 175.74534607 35.88480377 175.74607849 35.88559723 C 175.74649048 35.88645935 175.74595642 35.88702011 175.74559021 35.88792801 C 175.74490356 35.88912201 175.74459839 35.88984680 175.74415588 35.89052963 C 175.74302673 35.89071655 175.74237061 35.89038086 175.74154663 35.88999939 C 175.73999023 35.88890839 175.74024963 35.88924026 175.73947144 35.88861084 C 175.73855591 35.88800812 175.73782349 35.88716507 175.73745728 35.88637543 C 175.73687744 35.88491821 175.73669434 35.88475037 175.73674011 35.88362122 C 175.73672485 35.88263321 175.73750305 35.88175583 175.73828125 35.88163757 C 175.73942566 35.88132858 175.74008179 35.88212967 175.74130249 35.88247681" stroke-width="0.00000000" fill="rgb(0, 0, 0)" opacity="1.0" stroke="rgb(81, 94, 133)" stroke-opacity="0.020430846" stroke-linecap="round" stroke-linejoin="round"/>
    <path d="M 72.07209015 41.27366638 C 72.18179321 41.34590149 72.56384277 41.48955536 72.87684631 41.60094452 C 73.21492004 41.66732407 73.61270142 41.65111160 73.43238831 42.05648804 C 73.21494293 42.44921875 73.34722900 42.46543884 73.64070129 42.92063904 C 73.82936096 43.29504395 73.96640015 43.48393631 73.92125702 43.81658554 C 73.57131958 43.95100403 73.09269714 43.78374481 72.95960236 43.65420151 C 72.39236450 43.27431870 72.47875214 43.29923248 72.17951965 43.15222168 C 71.77705383 43.18627930 71.49423981 43.06962204 71.20545197 42.81308746 C 70.86724091 42.47282791 71.05812073 42.35222626 70.88002014 42.01006317 C 70.76380920 41.67396164 70.71425629 41.29987717 70.96452332 41.11297226 C 71.21125031 40.88767624 71.51675415 41.14503479 72.07209015 41.27366638" stroke-width="0.00000000" fill="rgb(214, 216, 214)" opacity="1.0" stroke="rgb(170, 178, 185)" stroke-opacity="0.6391905" stroke-linecap="round" stroke-linejoin="round"/>
    <path d="M 199.48880005 11.13244724 C 199.77857971 11.29775238 199.91691589 11.44336033 200.18815613 11.55809307 C 200.47190857 11.77743435 200.64584351 11.77845764 200.93721008 11.91152477 C 201.01458740 12.09303284 200.85292053 12.31208706 200.77629089 12.60191917 C 200.64761353 12.92645359 200.60531616 13.20798016 200.46923828 13.37061405 C 200.15596008 13.38202095 199.81358337 13.29526901 199.68281555 13.19215107 C 199.18992615 12.88389015 199.31459045 12.99124050 199.04197693 12.79932594 C 198.73870850 12.59937191 198.48397827 12.42567539 198.37425232 12.26081371 C 198.21211243 11.90295982 198.14785767 11.68985653 198.16003418 11.42826080 C 198.16355896 11.16733837 198.37110901 10.89241123 198.63130188 10.85151768 C 198.93635559 10.75045967 199.16683960 11.01054287 199.48880005 11.13244724" stroke-width="1.39608669" fill="rgb(111, 115, 137)" opacity="1.0" stroke="rgb(20, 9, 10)" stroke-opacity="0.1709507" stroke-linecap="round" stroke-linejoin="round"/>
    <path d="M 100.29314423 31.62775421 C 100.02982330 31.40773773 99.88088226 31.24960136 99.64501953 31.08357430 C 99.35207367 30.85366821 99.04818726 30.85639381 98.94335175 30.71976471 C 98.96639252 30.52926636 98.92330933 30.28280258 98.90452576 29.92022896 C 98.93618774 29.58113098 98.94965363 29.26676941 99.09577179 29.10306168 C 99.44853973 29.02937889 99.75550079 29.19460869 99.90003204 29.33226585 C 100.31036377 29.76291466 100.23394775 29.70532608 100.46148682 29.87440491 C 100.82843018 29.96741104 101.07050323 30.10910606 101.25480652 30.41631126 C 101.42761993 30.76433945 101.39732361 30.76532745 101.45136261 31.22796822 C 101.47996521 31.62066460 101.34702301 31.86679268 101.15410614 31.94386673 C 100.77642822 32.10139465 100.59020996 31.80249786 100.29314423 31.62775421" stroke-width="0.00000000" fill="rgb(222, 226, 233)" opacity="1.0" stroke="rgb(137, 127, 106)" stroke-opacity="0.45888415" stroke-linecap="round" stroke-linejoin="round"/>
    <path d="M 175.84547424 36.91175079 C 175.51725769 36.74374390 175.34199524 36.61529160 175.06892395 36.46458435 C 174.69894409 36.20526886 174.44003296 36.20473862 174.38064575 35.89513397 C 174.37606812 35.59832764 174.22691345 35.37295151 174.10641479 35.04446411 C 173.98713684 34.72523880 173.86300659 34.42362976 173.99024963 34.13935852 C 174.38929749 33.98869705 174.76484680 34.11066818 174.88858032 34.24512863 C 175.35551453 34.65614319 175.25329590 34.52985382 175.50547791 34.80630493 C 175.79612732 35.11142349 176.00692749 35.33591843 176.19506836 35.52396774 C 176.52423096 35.92446136 176.58930969 35.94170380 176.81257629 36.26092529 C 177.06164551 36.68225479 177.06599426 36.95537186 176.83578491 37.09753036 C 176.45213318 37.23058319 176.14309692 36.98485947 175.84547424 36.91175079" stroke-width="0.00000000" fill="rgb(248, 249, 244)" opacity="1.0" stroke="rgb(215, 208, 198)" stroke-opacity="0.6838438" stroke-linecap="round" stroke-linejoin="round"/>
    <path d="M 199.03570557 12.68782139 C 198.74005127 12.49643612 198.79750061 12.47678757 198.42657471 12.28301048 C 198.19813538 12.17701244 197.99943542 12.09646320 197.67800903 11.96716976 C 197.52001953 11.78788662 197.75920105 11.68129253 197.87391663 11.43216419 C 198.11421204 11.12746906 198.16621399 10.94998741 198.32014465 10.75178814 C 198.64025879 10.77115822 198.75325012 10.87084389 198.99203491 11.04062653 C 199.37365723 11.38070011 199.29454041 11.26813889 199.53013611 11.47432232 C 199.84597778 11.70308876 200.00204468 11.81281090 200.13890076 12.00621986 C 200.27870178 12.36689949 200.28295898 12.56437206 200.26832581 12.78556633 C 200.23994446 13.08752441 200.03475952 13.32302094 199.81993103 13.21623611 C 199.49713135 13.13260460 199.30987549 12.83516979 199.03570557 12.68782139" stroke-width="0.12483089" fill="rgb(239, 243, 232)" opacity="1.0" stroke="rgb(87, 98, 123)" stroke-opacity="0.32344002" stroke-linecap="round" stroke-linejoin="round"/>
  </g>
</svg>
