<?xml version="1.0" ?>
<svg xmlns="http://www.w3.org/2000/svg" version="1.1" width="256" height="256" viewBox="0 0 256 256">
  <defs/>
  <g>
    <path d="M 255.80888367 215.33598328 C 265.09698486 255.51638794 237.07266235 260.73797607 197.30816650 255.76824951 C 149.40493774 254.68803406 137.25765991 255.36032104 93.81965637 256.54049683 C 70.54042053 251.13549805 13.11357880 272.02838135 -1.71537781 246.98374939 C -1.20735168 206.86006165 1.45715332 189.40600586 0.18052673 142.77186584 C 0.30842590 108.58528137 0.01849365 81.60499573 -1.24070740 40.09149170 C 2.28112030 0.57896423 23.77170563 -6.57369995 55.35512543 1.15496063 C 100.20114899 0.86318207 123.98618317 0.14362335 159.62841797 -0.36900330 C 196.09010315 3.33876801 230.05914307 -8.25323486 257.35156250 5.35383606 C 259.54016113 43.68605804 252.65312195 76.56371307 255.87942505 109.03817749 C 256.88555908 150.28451538 255.57647705 171.65988159 255.80888367 215.33598328" stroke-width="0.80000001" fill="rgb(0, 31, 63)" opacity="1.0" stroke="rgb(0, 0, 0)" stroke-opacity="1.0" stroke-linecap="round" stroke-linejoin="round"/>
    <path d="M 24.95869637 25.32769966 C 24.88306999 25.31217766 24.71633911 25.31913757 24.52298355 25.36965561 C 24.37725830 25.37811852 24.19231796 25.48143768 24.08015060 25.47761345 C 24.10041428 25.34538651 24.19240379 25.17652512 24.21559334 25.05073357 C 24.31815910 24.78968048 24.35375786 24.78113937 24.43683243 24.61095428 C 24.57567978 24.44550514 24.75835228 24.38871002 24.86761665 24.36582565 C 25.18129921 24.35023880 25.10699844 24.35289383 25.28694344 24.35055161 C 25.44469452 24.31434059 25.61999321 24.45896339 25.67837334 24.57786942 C 25.77460098 24.79668617 25.75560760 24.88448906 25.74603462 25.05683899 C 25.74839592 25.14929581 25.72508812 25.37300110 25.53759193 25.39442825 C 25.31911469 25.38975716 25.26381302 25.31283569 24.95869637 25.32769966" stroke-width="0.80000001" fill="rgb(255, 255, 255)" opacity="1.0" stroke="rgb(0, 0, 0)" stroke-opacity="1.0" stroke-linecap="round" stroke-linejoin="round"/>
    <path d="M 74.36948395 40.20446014 C 74.37826538 40.10664368 74.42069244 39.82260513 74.38505554 39.58793259 C 74.41223145 39.35551071 74.23889923 39.08080673 74.36073303 38.99789047 C 74.56160736 39.02222443 74.75850677 39.08618546 74.99648285 39.10851669 C 75.29482269 39.16686249 75.48149872 39.19473267 75.69917297 39.16895294 C 75.97366333 39.30250168 75.90969849 39.35656357 75.94844055 39.67153931 C 75.88059235 40.07794952 75.92631531 40.00284576 75.87270355 40.23508072 C 75.82883453 40.50726700 75.76769257 40.63510513 75.54482269 40.81686783 C 75.25113678 40.98925781 75.18352509 40.99597168 74.95331573 41.04613876 C 74.75999451 41.09330368 74.48171234 41.10552597 74.36172485 40.96722031 C 74.24420929 40.77949905 74.37556458 40.61038971 74.36948395 40.20446014" stroke-width="0.80000001" fill="rgb(255, 255, 255)" opacity="1.0" stroke="rgb(0, 0, 0)" stroke-opacity="1.0" stroke-linecap="round" stroke-linejoin="round"/>
    <path d="M 174.61555481 34.66785049 C 174.83689880 34.59181595 174.86334229 34.62125778 175.12593079 34.48626709 C 175.27493286 34.40637207 175.40710449 34.17051697 175.50247192 34.23317719 C 175.50865173 34.42567825 175.46226501 34.57586288 175.52880859 34.77102280 C 175.57095337 35.04379272 175.60963440 35.10382080 175.77642822 35.28710175 C 175.87789917 35.43495560 175.79728699 35.47798157 175.54336548 35.54224014 C 175.27420044 35.56134415 175.22819519 35.52938461 175.10050964 35.59825134 C 174.86688232 35.73078537 174.87115479 35.75084305 174.59962463 35.61626434 C 174.44076538 35.51274872 174.46980286 35.46940613 174.24728394 35.27510071 C 174.07366943 35.10992813 174.00086975 34.98626328 174.03192139 34.84283447 C 174.15235901 34.64577103 174.40347290 34.73895264 174.61555481 34.66785049" stroke-width="0.80000001" fill="rgb(255, 255, 255)" opacity="1.0" stroke="rgb(0, 0, 0)" stroke-opacity="1.0" stroke-linecap="round" stroke-linejoin="round"/>
    <path d="M 100.14128113 30.32429314 C 99.92820740 30.30941772 99.82381439 30.27042961 99.61023712 30.32215118 C 99.42066956 30.32627869 99.25996399 30.44620705 99.12265015 30.44619560 C 99.16795349 30.30467987 99.30496979 30.19674301 99.35851288 30.01726913 C 99.46917725 29.77173615 99.48375702 29.71412659 99.46208954 29.47854996 C 99.46362305 29.31893921 99.54297638 29.27070999 99.78337097 29.29767036 C 100.03038025 29.37355995 100.05318451 29.40851402 100.18076324 29.41368294 C 100.40982056 29.39743805 100.48673248 29.43157196 100.62760925 29.64270210 C 100.74922943 29.83051109 100.69835663 29.82187462 100.82671356 30.06800652 C 100.90567780 30.23090935 100.92186737 30.43576622 100.73434448 30.44586182 C 100.54201508 30.49172974 100.37835693 30.31999588 100.14128113 30.32429314" stroke-width="0.80000001" fill="rgb(255, 255, 255)" opacity="1.0" stroke="rgb(0, 0, 0)" stroke-opacity="1.0" stroke-linecap="round" stroke-linejoin="round"/>
    <path d="M 200.48930359 10.38092232 C 200.23052979 10.53755569 200.20384216 10.49230099 199.93251038 10.70961189 C 199.75669861 10.83060074 199.64379883 11.10779762 199.50582886 11.08714104 C 199.46887207 10.87262154 199.46723938 10.67559052 199.35063171 10.46450043 C 199.21496582 10.16442299 199.13317871 10.03463459 198.90748596 9.89763927 C 198.76846313 9.64083385 198.92922974 9.61411953 199.16397095 9.45352364 C 199.56936646 9.30402565 199.45812988 9.31376743 199.71279907 9.21829224 C 200.05740356 9.08875370 200.04905701 9.01120758 200.39459229 9.08527946 C 200.70915222 9.25214958 200.68803406 9.25700474 200.92933655 9.43907356 C 201.13662720 9.63828087 201.22044373 9.85555935 201.15797424 9.97471046 C 200.99359131 10.23748302 200.70870972 10.22945786 200.48930359 10.38092232" stroke-width="0.80000001" fill="rgb(255, 255, 255)" opacity="1.0" stroke="rgb(0, 0, 0)" stroke-opacity="1.0" stroke-linecap="round" stroke-linejoin="round"/>
    <path d="M 255.45721436 198.25746155 C 252.87374878 210.97718811 267.02642822 246.21726990 244.58615112 257.26516724 C 214.06402588 258.63430786 200.97683716 254.09230042 166.45046997 256.13983154 C 140.73083496 255.52305603 115.74272156 255.20983887 91.75810242 257.44152832 C 58.53966522 254.31866455 40.39573669 254.86422729 13.14488983 258.06668091 C -15.44412994 253.42883301 4.90398407 216.15338135 0.18451691 189.22164917 C 2.12491608 162.56404114 -5.23084259 139.76765442 13.88602448 133.06396484 C 42.27017975 125.93138123 54.47976685 128.13763428 91.80509186 127.93873596 C 116.48719788 129.14338684 129.29104614 126.62110901 166.61614990 127.72580719 C 188.99822998 129.49157715 212.63009644 127.49168396 243.42114258 126.96202850 C 269.57556152 132.39080811 250.87661743 158.80670166 255.45721436 198.25746155" stroke-width="0.80000001" fill="rgb(0, 116, 217)" opacity="1.0" stroke="rgb(0, 0, 0)" stroke-opacity="1.0" stroke-linecap="round" stroke-linejoin="round"/>
    <path d="M 229.09820557 238.83682251 C 215.19485474 238.05740356 202.82826233 236.14262390 177.77265930 238.31117249 C 161.18812561 237.48857117 147.69242859 238.87976074 127.16457367 237.49363708 C 108.98174286 238.03054810 98.17852783 240.46015930 75.53961182 236.95037842 C 55.49649811 234.81796265 44.97438049 237.75798035 25.84934235 241.58596802 C -11.33294678 244.88896179 8.69509888 231.79974365 24.05678558 235.75929260 C 56.55029297 236.08476257 52.64630127 238.47941589 72.99877930 236.57629395 C 97.09262848 237.59643555 106.24774170 237.74725342 126.77584076 236.21015930 C 149.94149780 236.91627502 156.38409424 239.66192627 178.26763916 236.20825195 C 199.02960205 236.97059631 211.49969482 236.63330078 229.77989197 236.43428040 C 252.37481689 236.47457886 261.54504395 239.08184814 229.09820557 238.83682251" stroke-width="0.80000001" fill="rgb(255, 255, 255)" opacity="1.0" stroke="rgb(0, 0, 0)" stroke-opacity="1.0" stroke-linecap="round" stroke-linejoin="round"/>
    <path d="M 212.98988342 244.54624939 C 197.53164673 244.10908508 187.25680542 243.81994629 165.82949829 244.71447754 C 152.28582764 243.11282349 134.04148865 244.03483582 119.44088745 244.55137634 C 99.60272217 245.10841370 88.31062317 243.65649414 73.42781067 242.21923828 C 47.57449341 241.91299438 45.61119843 247.30819702 17.07712555 247.03607178 C -6.20008850 244.32530212 5.16799164 241.95120239 24.86024475 243.48406982 C 52.97809601 242.91482544 54.56626129 244.78744507 70.71565247 242.45117188 C 93.64445496 243.66084290 99.71838379 243.33546448 119.30012512 242.96557617 C 142.14279175 241.19345093 148.34674072 244.66807556 168.75033569 243.43435669 C 187.46635437 244.68328857 198.47869873 242.82542419 219.24884033 242.68135071 C 240.84414673 241.69303894 239.29721069 244.63145447 212.98988342 244.54624939" stroke-width="0.80000001" fill="rgb(255, 255, 255)" opacity="1.0" stroke="rgb(0, 0, 0)" stroke-opacity="1.0" stroke-linecap="round" stroke-linejoin="round"/>
    <path d="M 255.24311829 254.17987061 C 249.96366882 258.03485107 237.29943848 255.18446350 225.61698914 255.90084839 C 214.45849609 255.89074707 207.50167847 255.72537231 194.23069763 256.01046753 C 182.38815308 256.54455566 173.94920349 255.60986328 161.91539001 256.07965088 C 145.43867493 259.06115723 153.20425415 249.78826904 156.46520996 236.23648071 C 159.79125977 227.74270630 164.37280273 216.79228210 167.35707092 206.53031921 C 172.42895508 196.02815247 170.15756226 184.49159241 181.61950684 189.95129395 C 196.05293274 191.47422791 204.09515381 191.98910522 213.58178711 191.99269104 C 227.87257385 192.83456421 232.70509338 193.60144043 246.12129211 194.63171387 C 259.45654297 197.19451904 256.26220703 210.46923828 256.38308716 220.73622131 C 255.65470886 234.92036438 256.05108643 239.98120117 255.24311829 254.17987061" stroke-width="0.80000001" fill="rgb(139, 69, 19)" opacity="1.0" stroke="rgb(0, 0, 0)" stroke-opacity="1.0" stroke-linecap="round" stroke-linejoin="round"/>
    <path d="M 224.62428284 199.72381592 C 215.35485840 200.74359131 206.76779175 199.78845215 197.80651855 200.27026367 C 185.94218445 197.43038940 189.76806641 191.97720337 190.02647400 179.69042969 C 190.50177002 169.83689880 189.84114075 161.38110352 189.94290161 151.21127319 C 190.23010254 141.07336426 189.83598328 131.07504272 189.44512939 123.07392883 C 191.04171753 110.29260254 187.93064880 103.08853149 195.59130859 99.93913269 C 207.78630066 99.41793823 211.47042847 100.36728668 220.58598328 100.10140991 C 232.77020264 100.44692993 230.37023926 110.31948853 229.85557556 121.07086182 C 230.01330566 131.78308105 229.94810486 138.50303650 229.80740356 148.27375793 C 230.49415588 161.15481567 229.99237061 164.74391174 229.96829224 176.34893799 C 228.95870972 184.37863159 234.32139587 199.00914001 224.62428284 199.72381592" stroke-width="0.80000001" fill="rgb(255, 255, 255)" opacity="1.0" stroke="rgb(0, 0, 0)" stroke-opacity="1.0" stroke-linecap="round" stroke-linejoin="round"/>
    <path d="M 228.60147095 99.96683502 C 225.85252380 100.03320312 223.26582336 99.81332397 219.19776917 100.21391296 C 214.88198853 100.11326599 212.93992615 100.02957153 208.88594055 99.94499207 C 204.89216614 99.89451599 202.33270264 99.82250977 198.61322021 100.06113434 C 195.52481079 99.84933472 191.28056335 101.12475586 190.30195618 98.49723816 C 191.72654724 95.30337524 192.31752014 92.77423859 193.82716370 88.64201355 C 196.26170349 85.94342041 197.16728210 85.16175842 200.52738953 85.04723358 C 204.70024109 84.81916046 207.51808167 85.20645142 210.68003845 84.97986603 C 215.75535583 85.35494995 216.84924316 84.68061829 221.30172729 84.51933289 C 225.86790466 84.14187622 226.23841858 87.87372589 226.81494141 91.06367493 C 227.67501831 94.16755676 230.90902710 98.29565430 228.60147095 99.96683502" stroke-width="0.80000001" fill="rgb(255, 65, 54)" opacity="1.0" stroke="rgb(0, 0, 0)" stroke-opacity="1.0" stroke-linecap="round" stroke-linejoin="round"/>
    <path d="M 218.20999146 73.92299652 C 219.39279175 76.02856445 219.40914917 76.10200500 220.00689697 79.63081360 C 220.00540161 81.44635010 219.86036682 83.44472504 218.36962891 85.68112183 C 216.94104004 87.33763885 216.21647644 88.09022522 213.46852112 89.29067993 C 211.31980896 89.87825012 210.01809692 90.30876160 207.37580872 89.80031586 C 205.03718567 88.98458099 203.32394409 87.46682739 202.41003418 85.98755646 C 200.74911499 82.65283203 201.03356934 83.64590454 200.44403076 80.95502472 C 200.22164917 78.26167297 200.38365173 76.86442566 201.48786926 74.65750885 C 203.05310059 72.61573029 204.17126465 71.61627960 206.00285339 70.76844788 C 208.59161377 69.94872284 210.22605896 69.94134521 212.36462402 70.12825012 C 215.31275940 71.05143738 215.96228027 71.31251526 218.20999146 73.92299652" stroke-width="0.80000001" fill="rgb(221, 221, 221)" opacity="1.0" stroke="rgb(0, 0, 0)" stroke-opacity="1.0" stroke-linecap="round" stroke-linejoin="round"/>
    <path d="M 232.45158386 29.08028030 C 234.93774414 32.97748184 231.90554810 37.00980377 229.11285400 41.43348694 C 226.00936890 47.66006088 224.75004578 51.21833801 222.05323792 55.78511810 C 219.18933105 61.23707581 216.98413086 66.35519409 214.77392578 70.40333557 C 211.40698242 77.63436890 210.45965576 81.71733093 207.38621521 75.17692566 C 204.56190491 69.55831909 203.37115479 65.67860413 199.88197327 60.33593369 C 196.25718689 50.41766739 196.19346619 52.83496475 193.18568420 46.55271530 C 190.10804749 38.77848434 188.53503418 39.32419586 185.22868347 30.94416237 C 188.39971924 27.84676361 193.45161438 31.15260696 199.72467041 30.11223793 C 205.27359009 29.46882439 210.43530273 30.23843193 215.77218628 29.96608543 C 220.88439941 30.94196510 226.80654907 29.46378708 232.45158386 29.08028030" stroke-width="0.80000001" fill="rgb(255, 220, 0)" opacity="1.0" stroke="rgb(0, 0, 0)" stroke-opacity="1.0" stroke-linecap="round" stroke-linejoin="round"/>
    <path d="M 204.74121094 130.16413879 C 204.40887451 130.16683960 203.22888184 130.13450623 201.60279846 130.08592224 C 200.46897888 130.02375793 199.64314270 129.77220154 199.93183899 128.22210693 C 200.03887939 127.11798096 200.01190186 125.92110443 200.03698730 124.62882233 C 200.08412170 123.29322815 199.97940063 122.07273102 199.79769897 121.11498260 C 199.91700745 119.69358826 201.04411316 119.89084625 202.41398621 120.02604675 C 203.81559753 120.12571716 204.47537231 119.93708801 205.40774536 120.08782959 C 206.87033081 120.15366364 207.74488831 120.11907959 207.53031921 121.79187775 C 207.50921631 123.31565094 207.39869690 123.85281372 207.47427368 125.11313629 C 207.47810364 126.70318604 207.61656189 127.25273132 207.66516113 128.74998474 C 207.51950073 130.33155823 206.59680176 129.90814209 204.74121094 130.16413879" stroke-width="0.80000001" fill="rgb(127, 219, 255)" opacity="1.0" stroke="rgb(0, 0, 0)" stroke-opacity="1.0" stroke-linecap="round" stroke-linejoin="round"/>
    <path d="M 220.03764343 127.33010864 C 220.08351135 128.50498962 220.19969177 129.78981018 219.13525391 129.98950195 C 218.12286377 130.24560547 216.96955872 129.94203186 215.71467590 130.00703430 C 214.54875183 129.92967224 213.48908997 130.26451111 212.82644653 129.36636353 C 212.30004883 128.51583862 212.40187073 127.33228302 212.42303467 126.06809998 C 212.52075195 125.07759857 212.54771423 124.11385345 212.38404846 122.61907196 C 212.61711121 121.41676331 212.46499634 120.89544678 213.27281189 120.41250610 C 214.29220581 119.84194946 215.83010864 119.98072815 216.59408569 119.91498566 C 218.33195496 120.00908661 219.12004089 119.69216156 219.76734924 120.34033966 C 220.26072693 121.17928314 219.91673279 122.58359528 220.01277161 123.72986603 C 219.98281860 125.18952942 219.94198608 126.00872803 220.03764343 127.33010864" stroke-width="0.80000001" fill="rgb(127, 219, 255)" opacity="1.0" stroke="rgb(0, 0, 0)" stroke-opacity="1.0" stroke-linecap="round" stroke-linejoin="round"/>
    <path d="M 200.93577576 155.02119446 C 200.30532837 154.98722839 199.81738281 154.16152954 199.88284302 152.73306274 C 199.90415955 151.56132507 199.97250366 150.42250061 199.92959595 149.26597595 C 200.02729797 148.07748413 199.88018799 146.84083557 200.15493774 145.98156738 C 200.51181030 145.14216614 201.73939514 144.89086914 202.96636963 144.62687683 C 204.24670410 144.66224670 205.22612000 144.64199829 206.28674316 145.04710388 C 207.24990845 145.76264954 207.26821899 146.23194885 207.33744812 147.32081604 C 207.43798828 148.67025757 207.48271179 149.21109009 207.54263306 150.74287415 C 207.47755432 151.61343384 207.70980835 152.98527527 207.47634888 154.20729065 C 206.67022705 155.27674866 206.48330688 154.77081299 204.73852539 155.08766174 C 203.73254395 155.08296204 202.80506897 155.21025085 200.93577576 155.02119446" stroke-width="0.80000001" fill="rgb(127, 219, 255)" opacity="1.0" stroke="rgb(0, 0, 0)" stroke-opacity="1.0" stroke-linecap="round" stroke-linejoin="round"/>
    <path d="M 218.83639526 144.91084290 C 219.83889771 145.46511841 219.98077393 145.45269775 220.15026855 147.25080872 C 220.17285156 148.43124390 220.09274292 149.01390076 220.04689026 150.56503296 C 220.00489807 151.56114197 220.12731934 152.52311707 219.67163086 153.91957092 C 219.18211365 154.73245239 218.64962769 155.22721863 217.14358521 155.58967590 C 216.29202271 155.63822937 214.94322205 155.63157654 213.86277771 154.97830200 C 213.06414795 154.18246460 212.71556091 153.88377380 212.63580322 152.77740479 C 212.53912354 151.44285583 212.54722595 151.00468445 212.38175964 149.37220764 C 212.41139221 148.28375244 212.15599060 147.65493774 212.35585022 146.06764221 C 213.15606689 144.82916260 213.53904724 145.17727661 215.03527832 144.84671021 C 216.63270569 144.78404236 216.65930176 144.66619873 218.83639526 144.91084290" stroke-width="0.80000001" fill="rgb(127, 219, 255)" opacity="1.0" stroke="rgb(0, 0, 0)" stroke-opacity="1.0" stroke-linecap="round" stroke-linejoin="round"/>
    <path d="M 204.85821533 180.14485168 C 203.43257141 180.22160339 202.94631958 180.07919312 201.32774353 179.99607849 C 199.89241028 179.70552063 199.88429260 179.51593018 199.99029541 177.96865845 C 200.10821533 176.81065369 199.99981689 175.85888672 200.00660706 174.33453369 C 200.02239990 173.13124084 199.86689758 171.77751160 199.85774231 170.79061890 C 200.07725525 169.65330505 201.27276611 169.89976501 202.79519653 170.03385925 C 204.04866028 170.14355469 204.63475037 169.87683105 205.75028992 170.07701111 C 207.13336182 170.26583862 207.76715088 170.49533081 207.50526428 172.05007935 C 207.52632141 173.57084656 207.44314575 174.27812195 207.49028015 175.46025085 C 207.46469116 176.88975525 207.55419922 177.76565552 207.64686584 178.87565613 C 207.30166626 180.02697754 206.32241821 180.02265930 204.85821533 180.14485168" stroke-width="0.80000001" fill="rgb(127, 219, 255)" opacity="1.0" stroke="rgb(0, 0, 0)" stroke-opacity="1.0" stroke-linecap="round" stroke-linejoin="round"/>
    <path d="M 215.22918701 169.90072632 C 216.53637695 169.87005615 217.45945740 170.01222229 218.64674377 169.98161316 C 220.36535645 170.04071045 220.02890015 170.91848755 220.02723694 171.92437744 C 219.93754578 173.81065369 219.98992920 174.10760498 220.00881958 175.69912720 C 219.86819458 177.07081604 220.10614014 177.79217529 220.15296936 179.39831543 C 219.31124878 180.30384827 218.62591553 180.03257751 217.29064941 179.96284485 C 215.24244690 179.84594727 215.72259521 180.02203369 214.24304199 179.85919189 C 212.86054993 179.62127686 212.25535583 179.40972900 212.45426941 177.86346436 C 212.51205444 176.31436157 212.58030701 175.60411072 212.51765442 174.40843201 C 212.51089478 172.94020081 212.47247314 172.17514038 212.32969666 170.89289856 C 212.37432861 169.65089417 213.88409424 170.08189392 215.22918701 169.90072632" stroke-width="0.80000001" fill="rgb(127, 219, 255)" opacity="1.0" stroke="rgb(0, 0, 0)" stroke-opacity="1.0" stroke-linecap="round" stroke-linejoin="round"/>
    <path d="M 147.41261292 255.25933838 C 138.96856689 256.71206665 129.31539917 254.52624512 116.17732239 254.11102295 C 105.55316925 254.30488586 98.29237366 254.67694092 86.40095520 253.24462891 C 72.45114899 253.01002502 70.14029694 253.34544373 54.63269806 252.56582642 C 43.51312637 252.05145264 38.34860992 251.72462463 22.24356079 251.56413269 C 9.86006927 253.07418823 -1.35459137 251.65472412 6.54367828 248.71531677 C 24.93383408 245.89878845 24.82550049 247.94197083 33.77663040 248.09503174 C 49.03413773 249.30125427 56.25127792 248.46485901 66.13858795 247.95448303 C 79.38288116 245.74555969 83.81425476 248.20617676 96.70115662 249.42640686 C 108.12291718 250.04862976 118.19627380 247.48075867 127.21472168 247.44848633 C 140.39215088 246.80720520 149.01026917 246.87063599 147.41261292 255.25933838" stroke-width="0.80000001" fill="rgb(11, 168, 176)" opacity="1.0" stroke="rgb(0, 0, 0)" stroke-opacity="1.0" stroke-linecap="round" stroke-linejoin="round"/>
    <path d="M 227.97592163 204.36883545 C 223.26708984 204.25967407 223.97415161 204.17459106 218.44960022 204.31381226 C 215.00599670 204.30836487 212.55757141 204.15658569 208.20057678 204.23965454 C 204.84861755 204.33862305 201.53045654 204.12915039 198.08230591 204.35603333 C 194.22782898 203.80773926 191.42208862 205.45152283 188.77534485 202.93597412 C 188.24453735 199.73266602 188.34420776 195.06530762 193.46975708 196.21505737 C 198.00616455 196.39294434 198.43414307 196.23883057 201.61753845 196.21949768 C 206.24555969 196.17788696 208.63885498 196.40933228 211.87677002 196.19917297 C 215.24804688 195.92510986 218.77169800 196.41194153 222.22019958 196.20016479 C 225.52114868 196.27197266 229.51708984 194.14231873 231.22909546 196.90415955 C 231.48710632 200.26116943 232.62403870 204.25354004 227.97592163 204.36883545" stroke-width="0.80000001" fill="rgb(250, 215, 49)" opacity="1.0" stroke="rgb(0, 0, 0)" stroke-opacity="1.0" stroke-linecap="round" stroke-linejoin="round"/>
    <path d="M 218.49299622 74.38570404 C 219.01679993 75.45232391 218.71240234 75.47823334 218.77890015 77.45417786 C 218.69662476 78.54946136 218.78179932 79.35501862 218.77433777 80.88306427 C 218.73088074 82.30048370 218.78355408 82.80364227 218.71009827 84.46330261 C 218.37797546 85.46501160 218.00019836 86.17144775 216.68008423 86.58604431 C 215.06645203 86.60924530 214.31613159 86.27716064 213.68373108 85.58011627 C 212.71401978 83.70516205 212.96780396 84.20079041 212.79792786 82.73011017 C 212.75648499 81.35268402 212.77540588 80.52518463 212.67431641 79.26901245 C 212.74591064 77.74221039 212.64797974 76.99395752 212.58505249 75.70169830 C 212.60691833 74.22476196 213.85346985 74.31169128 215.03260803 74.17906952 C 216.25842285 74.13301086 217.37287903 73.93516541 218.49299622 74.38570404" stroke-width="0.80000001" fill="rgb(251, 251, 250)" opacity="1.0" stroke="rgb(0, 0, 0)" stroke-opacity="1.0" stroke-linecap="round" stroke-linejoin="round"/>
    <path d="M 205.28225708 81.93106842 C 205.29916382 83.17008209 205.42228699 84.10522461 205.26187134 84.96096802 C 204.96572876 86.09815216 203.63294983 86.11963654 202.54957581 85.91888428 C 201.27346802 85.87828827 200.54766846 85.58693695 200.40222168 84.48118591 C 200.04757690 83.25498962 200.26081848 82.28842163 200.26271057 81.22117615 C 200.13136292 80.12649536 200.22140503 79.42179108 200.17652893 77.99012756 C 200.34295654 76.55462646 200.29620361 76.44941711 200.28836060 75.40467834 C 200.44099426 74.08358765 201.74691772 73.53298950 202.56472778 73.71712494 C 204.09741211 73.81445312 204.69126892 73.93948364 204.84141541 75.28784180 C 205.10639954 76.32656860 205.05322266 76.99932861 205.22467041 78.40068054 C 205.26873779 79.81234741 205.21340942 80.39171600 205.28225708 81.93106842" stroke-width="0.80000001" fill="rgb(249, 250, 249)" opacity="1.0" stroke="rgb(0, 0, 0)" stroke-opacity="1.0" stroke-linecap="round" stroke-linejoin="round"/>
    <path d="M 21.16782951 24.33359337 C 20.91658211 23.72494888 20.96192551 23.67410469 20.69810486 22.96545219 C 20.72081566 22.53950119 20.45403671 21.89006233 20.70140648 21.44369507 C 21.31681633 21.15592957 21.35448647 21.26306915 22.12428284 21.22460556 C 22.67223358 21.21929359 23.24057961 21.48602486 23.50093842 21.72663498 C 23.96574783 22.00529480 24.38772202 22.38879013 24.59622955 22.74586487 C 25.03968620 23.62904167 24.91785812 23.47735023 25.17235947 23.94090080 C 25.44532585 24.23425293 25.15299225 25.01894188 24.90320778 25.36203766 C 24.42565536 25.81538963 24.13711548 25.69711304 23.50122070 25.74148369 C 23.13426971 25.81419373 22.65327263 25.81884575 22.20125580 25.52228546 C 21.75016212 25.25275421 21.62322044 24.94025612 21.16782951 24.33359337" stroke-width="0.80000001" fill="rgb(8, 16, 40)" opacity="1.0" stroke="rgb(0, 0, 0)" stroke-opacity="1.0" stroke-linecap="round" stroke-linejoin="round"/>
    <path d="M 99.28081512 31.97989845 C 99.13259125 31.86221313 98.68202972 31.55769157 98.17982483 31.28723717 C 97.91538239 30.99843216 97.32129669 30.78330231 97.20880127 30.35022926 C 97.27278900 29.83995819 97.36502075 29.80531120 97.74441528 29.16661072 C 98.21045685 28.62870979 98.22681427 28.53704262 98.73252106 28.13111687 C 99.33390808 28.02706337 99.90147400 28.21178436 100.15982819 28.35436249 C 100.93865967 28.97040558 100.78573608 28.77590942 101.13271332 29.16826439 C 101.39148712 29.58071136 101.75569916 30.19906998 101.91095734 30.50078201 C 102.16212463 31.20385170 102.19030762 31.38320923 101.88822937 31.85859489 C 101.73312378 32.18080139 101.28227234 32.62637711 100.81812286 32.65783310 C 100.31293488 32.66955566 100.09777069 32.36588669 99.28081512 31.97989845" stroke-width="0.80000001" fill="rgb(14, 25, 55)" opacity="1.0" stroke="rgb(0, 0, 0)" stroke-opacity="1.0" stroke-linecap="round" stroke-linejoin="round"/>
    <path d="M 175.29130554 33.51715088 C 175.85675049 33.83637238 175.88912964 33.98426819 176.47343445 34.31434631 C 176.89949036 34.70206070 177.19097900 34.81750488 177.51872253 35.30247498 C 177.70234680 35.82718277 177.53942871 36.02532196 177.33868408 36.45973969 C 176.98709106 37.05815506 176.81190491 37.36030197 176.54881287 37.72448730 C 175.90502930 37.80889511 175.75628662 37.67252731 175.20936584 37.46271896 C 174.46299744 36.94414902 174.56414795 37.10540390 174.18983459 36.76308441 C 173.82254028 36.34388733 173.58915710 35.94311523 173.34179688 35.52165604 C 172.98834229 34.81478119 172.85107422 34.73936844 172.95411682 34.17953110 C 172.98934937 33.67359924 173.41413879 33.21805573 173.75691223 33.12289429 C 174.38571167 32.94744110 174.70994568 33.35227203 175.29130554 33.51715088" stroke-width="0.80000001" fill="rgb(4, 10, 39)" opacity="1.0" stroke="rgb(0, 0, 0)" stroke-opacity="1.0" stroke-linecap="round" stroke-linejoin="round"/>
    <path d="M 71.98838806 40.42731476 C 72.18589783 40.53515244 72.60414124 40.72325897 73.13655090 40.92024612 C 73.42733002 41.14958572 73.92012024 41.35733414 74.10527802 41.77793121 C 74.24424744 42.18478012 74.20903778 42.30337143 74.03238678 42.99221420 C 73.83150482 43.45945358 73.72708130 43.86330032 73.55967712 44.22152328 C 73.13030243 44.46803284 72.55832672 44.31327820 72.24449921 44.17157364 C 71.44569397 43.62588882 71.60178375 43.78295898 71.23626709 43.46333313 C 70.94411469 43.19334412 70.45185089 42.77323151 70.22572327 42.46155167 C 69.80844116 41.94256210 69.77975464 41.83343887 69.86119080 41.29713821 C 69.86495972 40.90993881 70.10884094 40.43401337 70.46926880 40.20645523 C 70.93274689 40.05179977 71.15080261 40.30104828 71.98838806 40.42731476" stroke-width="0.80000001" fill="rgb(9, 14, 34)" opacity="1.0" stroke="rgb(0, 0, 0)" stroke-opacity="1.0" stroke-linecap="round" stroke-linejoin="round"/>
    <path d="M 198.96003723 10.14000416 C 199.47760010 10.46175861 199.43777466 10.55986023 200.03265381 10.86645317 C 200.39582825 11.12891197 200.71743774 11.27140522 201.12644958 11.61858940 C 201.24740601 12.02645874 200.96031189 12.22292805 200.79963684 12.63899612 C 200.50767517 13.18882179 200.35586548 13.54379559 200.16233826 13.91179562 C 199.62756348 14.01358128 199.30317688 13.84193993 198.94256592 13.66643143 C 198.18009949 13.17094707 198.36231995 13.35081100 197.93357849 13.01542282 C 197.43513489 12.60388184 197.18707275 12.36935997 196.99020386 11.98347187 C 196.79931641 11.24091148 196.76234436 11.26651001 196.77250671 10.66412926 C 196.87336731 10.11315441 197.24736023 9.74748993 197.53015137 9.70322990 C 198.11163330 9.53708172 198.47477722 9.96808910 198.96003723 10.14000416" stroke-width="0.80000001" fill="rgb(5, 13, 43)" opacity="1.0" stroke="rgb(0, 0, 0)" stroke-opacity="1.0" stroke-linecap="round" stroke-linejoin="round"/>
    <path d="M 99.83914185 31.92349434 C 99.56694031 31.77886772 99.12429810 31.52071762 98.73358917 31.37169838 C 98.35708618 31.14107323 97.78633881 31.04963684 97.76213074 30.68460464 C 97.69589996 30.30499458 97.73800659 29.98146248 97.89152527 29.49656296 C 98.09054565 28.99915123 98.25011444 28.64586639 98.43093109 28.29285812 C 98.86789703 28.05848312 99.31180573 28.24268723 99.60127258 28.35536194 C 100.33580017 28.84329796 100.21945953 28.70839119 100.58691406 28.94573402 C 101.03416443 29.16085625 101.31826782 29.52248573 101.50479889 29.97201538 C 101.70159912 30.52267075 101.74617767 30.51392555 101.76541138 31.20501518 C 101.76229858 31.65132904 101.51390839 32.07205582 101.21630096 32.21798325 C 100.79294586 32.51854324 100.50555420 32.12340927 99.83914185 31.92349434" stroke-width="0.80000001" fill="rgb(7, 13, 34)" opacity="1.0" stroke="rgb(0, 0, 0)" stroke-opacity="1.0" stroke-linecap="round" stroke-linejoin="round"/>
    <path d="M 175.50604248 37.06703186 C 175.05641174 36.83370209 174.80630493 36.64757919 174.40049744 36.47933960 C 173.91635132 36.14105606 173.66116333 36.15348816 173.32424927 35.80012131 C 173.18280029 35.39467239 173.28346252 35.09003067 173.35066223 34.66397858 C 173.47895813 34.12639618 173.57299805 33.72351074 173.73667908 33.34429932 C 174.21218872 33.14830399 174.52600098 33.36734390 174.88444519 33.52492905 C 175.59490967 34.00051880 175.43478394 33.83181763 175.85273743 34.13659286 C 176.32788086 34.46606445 176.62486267 34.71394348 176.85675049 35.04260254 C 177.14514160 35.64378357 177.20562744 35.85117340 177.27180481 36.26642609 C 177.32054138 36.78257751 177.14344788 37.28277969 176.89437866 37.36492538 C 176.39671326 37.52909851 176.00384521 37.16538239 175.50604248 37.06703186" stroke-width="0.80000001" fill="rgb(11, 17, 39)" opacity="1.0" stroke="rgb(0, 0, 0)" stroke-opacity="1.0" stroke-linecap="round" stroke-linejoin="round"/>
    <path d="M 198.83230591 13.21446896 C 198.40689087 12.91540241 198.50126648 12.88663960 197.96116638 12.56842518 C 197.69512939 12.39722633 197.33811951 12.23657322 197.05320740 11.93999481 C 197.06887817 11.57051277 197.29124451 11.49189568 197.49397278 11.11662674 C 197.82002258 10.68232536 197.92094421 10.47343349 198.12136841 10.12430859 C 198.53675842 10.02180672 198.84738159 10.23236275 199.08502197 10.40264606 C 199.67233276 10.89967442 199.51950073 10.73503876 199.86364746 11.06361008 C 200.30253601 11.51124001 200.41174316 11.55574799 200.60119629 11.96127224 C 200.68957520 12.55253696 200.69152832 12.68784523 200.64314270 13.08931923 C 200.52940369 13.56290150 200.20661926 13.84487629 199.99208069 13.82712936 C 199.49000549 13.81472683 199.22442627 13.39560509 198.83230591 13.21446896" stroke-width="0.80000001" fill="rgb(118, 125, 143)" opacity="1.0" stroke="rgb(0, 0, 0)" stroke-opacity="1.0" stroke-linecap="round" stroke-linejoin="round"/>
  </g>
</svg>
