<svg xmlns="http://www.w3.org/2000/svg" viewBox="0 0 256 256" height="256.0px" width="256.0px">
<path id="" fill="#001f3f" fill-opacity="1.0" stroke="#000000" stroke-width="0.0" stroke-opacity="1.0" stroke-linecap="round" stroke-linejoin="round"  filling="0" d="M0.000 0.000 C85.334 0.000 170.667 0.000 256.000 0.000 C256.000 85.334 256.000 170.667 256.000 256.000 C170.667 256.000 85.334 256.000 0.000 256.000 C0.000 170.667 0.000 85.334 0.000 0.000"></path>
<path id="" fill="#ffffff" fill-opacity="1.0" stroke="#000000" stroke-width="0.0" stroke-opacity="1.0" stroke-linecap="round" stroke-linejoin="round"  filling="0" d="M25.750 25.000 C25.750 25.199 25.671 25.389 25.531 25.531 C25.389 25.671 25.199 25.750 25.000 25.750 C24.801 25.750 24.611 25.671 24.469 25.531 C24.329 25.389 24.250 25.199 24.250 25.000 C24.250 24.801 24.329 24.611 24.469 24.469 C24.611 24.329 24.801 24.250 25.000 24.250 C25.199 24.250 25.389 24.329 25.531 24.469 C25.671 24.611 25.750 24.801 25.750 25.000"></path>
<path id="" fill="#ffffff" fill-opacity="1.0" stroke="#000000" stroke-width="0.0" stroke-opacity="1.0" stroke-linecap="round" stroke-linejoin="round"  filling="0" d="M76.000 40.000 C76.000 40.265 75.895 40.520 75.707 40.707 C75.520 40.895 75.265 41.000 75.000 41.000 C74.735 41.000 74.480 40.895 74.293 40.707 C74.105 40.520 74.000 40.265 74.000 40.000 C74.000 39.735 74.105 39.480 74.293 39.293 C74.480 39.105 74.735 39.000 75.000 39.000 C75.265 39.000 75.520 39.105 75.707 39.293 C75.895 39.480 76.000 39.735 76.000 40.000"></path>
<path id="" fill="#ffffff" fill-opacity="1.0" stroke="#000000" stroke-width="0.0" stroke-opacity="1.0" stroke-linecap="round" stroke-linejoin="round"  filling="0" d="M175.750 35.000 C175.750 35.199 175.671 35.389 175.531 35.531 C175.389 35.671 175.199 35.750 175.000 35.750 C174.801 35.750 174.611 35.671 174.469 35.531 C174.329 35.389 174.250 35.199 174.250 35.000 C174.250 34.801 174.329 34.611 174.469 34.469 C174.611 34.329 174.801 34.250 175.000 34.250 C175.199 34.250 175.389 34.329 175.531 34.469 C175.671 34.611 175.750 34.801 175.750 35.000"></path>
<path id="" fill="#ffffff" fill-opacity="1.0" stroke="#000000" stroke-width="0.0" stroke-opacity="1.0" stroke-linecap="round" stroke-linejoin="round"  filling="0" d="M100.750 30.000 C100.750 30.199 100.671 30.389 100.531 30.531 C100.390 30.671 100.199 30.750 100.000 30.750 C99.801 30.750 99.610 30.671 99.469 30.531 C99.329 30.389 99.250 30.199 99.250 30.000 C99.250 29.801 99.329 29.611 99.469 29.469 C99.610 29.329 99.801 29.250 100.000 29.250 C100.199 29.250 100.390 29.329 100.531 29.469 C100.671 29.611 100.750 29.801 100.750 30.000"></path>
<path id="" fill="#ffffff" fill-opacity="1.0" stroke="#000000" stroke-width="0.0" stroke-opacity="1.0" stroke-linecap="round" stroke-linejoin="round"  filling="0" d="M201.000 10.000 C201.000 10.265 200.895 10.520 200.707 10.707 C200.520 10.895 200.265 11.000 200.000 11.000 C199.735 11.000 199.480 10.895 199.293 10.707 C199.105 10.520 199.000 10.265 199.000 10.000 C199.000 9.735 199.105 9.480 199.293 9.293 C199.480 9.105 199.735 9.000 200.000 9.000 C200.265 9.000 200.520 9.105 200.707 9.293 C200.895 9.480 201.000 9.735 201.000 10.000"></path>
<path id="" fill="#0074D9" fill-opacity="1.0" stroke="#000000" stroke-width="0.0" stroke-opacity="1.0" stroke-linecap="round" stroke-linejoin="round"  filling="0" d="M0.000 128.000 C85.334 128.000 170.667 128.000 256.000 128.000 C256.000 170.667 256.000 213.333 256.000 256.000 C170.667 256.000 85.334 256.000 0.000 256.000 C0.000 213.333 0.000 170.667 0.000 128.000"></path>
<path id="" fill="#ffffff" fill-opacity="1.0" stroke="#000000" stroke-width="0.0" stroke-opacity="1.0" stroke-linecap="round" stroke-linejoin="round"  filling="0" d="M-0.098 239.510 C8.268 237.837 16.634 236.163 25.000 234.490 C33.333 236.156 41.667 237.824 50.000 239.490 C58.333 237.824 66.666 236.156 75.000 234.490 C83.334 236.156 91.666 237.824 100.000 239.490 C108.334 237.824 116.666 236.156 125.000 234.490 C133.333 236.156 141.667 237.824 150.000 239.490 C158.333 237.824 166.667 236.156 175.000 234.490 C183.333 236.156 191.667 237.824 200.000 239.490 C208.330 237.824 216.661 236.158 224.990 234.492 C235.354 236.163 245.717 237.835 256.079 239.507 C256.026 239.835 255.973 240.165 255.921 240.493 C245.617 238.831 235.313 237.170 225.010 235.508 C216.673 237.176 208.337 238.842 200.000 240.510 C191.667 238.844 183.333 237.176 175.000 235.510 C166.667 237.176 158.333 238.844 150.000 240.510 C141.667 238.844 133.333 237.176 125.000 235.510 C116.666 237.176 108.334 238.844 100.000 240.510 C91.666 238.844 83.334 237.176 75.000 235.510 C66.666 237.176 58.333 238.844 50.000 240.510 C41.667 238.844 33.333 237.176 25.000 235.510 C16.700 237.170 8.398 238.831 0.098 240.490 C0.033 240.163 -0.033 239.837 -0.098 239.510"></path>
<path id="" fill="#ffffff" fill-opacity="1.0" stroke="#000000" stroke-width="0.0" stroke-opacity="1.0" stroke-linecap="round" stroke-linejoin="round"  filling="0" d="M-0.031 244.626 C9.979 243.792 19.990 242.958 30.000 242.124 C40.000 242.957 50.000 243.790 60.000 244.624 C70.000 243.790 80.000 242.957 90.000 242.124 C100.000 242.957 110.000 243.790 120.000 244.624 C130.000 243.790 140.000 242.957 150.000 242.124 C160.000 242.957 170.000 243.790 180.000 244.624 C190.000 243.790 200.000 242.957 210.000 242.124 C220.010 242.958 230.020 243.792 240.031 244.626 C240.010 244.876 239.990 245.124 239.969 245.374 C229.980 244.541 219.990 243.709 210.000 242.876 C200.000 243.710 190.000 244.543 180.000 245.376 C170.000 244.543 160.000 243.710 150.000 242.876 C140.000 243.710 130.000 244.543 120.000 245.376 C110.000 244.543 100.000 243.710 90.000 242.876 C80.000 243.710 70.000 244.543 60.000 245.376 C50.000 244.543 40.000 243.710 30.000 242.876 C20.010 243.709 10.021 244.541 0.031 245.374 C0.010 245.124 -0.010 244.876 -0.031 244.626"></path>
<path id="" fill="#8B4513" fill-opacity="1.0" stroke="#000000" stroke-width="0.0" stroke-opacity="1.0" stroke-linecap="round" stroke-linejoin="round"  filling="0" d="M150.000 256.000 C185.333 256.000 220.667 256.000 256.000 256.000 C256.000 237.333 256.000 218.667 256.000 200.000 C245.667 196.667 235.333 193.333 225.000 190.000 C216.667 191.667 208.333 193.333 200.000 195.000 C191.667 191.667 183.333 188.333 175.000 185.000 C166.667 208.667 158.333 232.333 150.000 256.000"></path>
<path id="" fill="#ffffff" fill-opacity="1.0" stroke="#000000" stroke-width="0.0" stroke-opacity="1.0" stroke-linecap="round" stroke-linejoin="round"  filling="0" d="M190.000 100.000 C203.333 100.000 216.667 100.000 230.000 100.000 C230.000 133.333 230.000 166.667 230.000 200.000 C216.667 200.000 203.333 200.000 190.000 200.000 C190.000 166.667 190.000 133.333 190.000 100.000"></path>
<path id="" fill="#FF4136" fill-opacity="1.0" stroke="#000000" stroke-width="0.0" stroke-opacity="1.0" stroke-linecap="round" stroke-linejoin="round"  filling="0" d="M190.000 100.000 C203.333 100.000 216.667 100.000 230.000 100.000 C228.333 95.000 226.667 90.000 225.000 85.000 C215.000 85.000 205.000 85.000 195.000 85.000 C193.333 90.000 191.667 95.000 190.000 100.000"></path>
<path id="" fill="#DDDDDD" fill-opacity="1.0" stroke="#000000" stroke-width="0.0" stroke-opacity="1.0" stroke-linecap="round" stroke-linejoin="round"  filling="0" d="M220.000 80.000 C220.000 82.651 218.945 85.197 217.071 87.071 C215.197 88.946 212.651 90.000 210.000 90.000 C207.349 90.000 204.803 88.946 202.929 87.071 C201.055 85.197 200.000 82.651 200.000 80.000 C200.000 77.349 201.055 74.803 202.929 72.929 C204.803 71.054 207.349 70.000 210.000 70.000 C212.651 70.000 215.197 71.054 217.071 72.929 C218.945 74.803 220.000 77.349 220.000 80.000"></path>
<path id="" fill="#FFDC00" fill-opacity="1.0" stroke="#000000" stroke-width="0.0" stroke-opacity="1.0" stroke-linecap="round" stroke-linejoin="round"  filling="0" d="M210.000 80.000 C201.667 63.333 193.333 46.667 185.000 30.000 C201.667 30.000 218.333 30.000 235.000 30.000 C226.667 46.667 218.333 63.333 210.000 80.000"></path>
<path id="" fill="#7FDBFF" fill-opacity="1.0" stroke="#000000" stroke-width="0.0" stroke-opacity="1.0" stroke-linecap="round" stroke-linejoin="round"  filling="0" d="M200.000 120.000 C202.500 120.000 205.000 120.000 207.500 120.000 C207.500 123.334 207.500 126.666 207.500 130.000 C205.000 130.000 202.500 130.000 200.000 130.000 C200.000 126.666 200.000 123.334 200.000 120.000"></path>
<path id="" fill="#7FDBFF" fill-opacity="1.0" stroke="#000000" stroke-width="0.0" stroke-opacity="1.0" stroke-linecap="round" stroke-linejoin="round"  filling="0" d="M212.500 120.000 C215.000 120.000 217.500 120.000 220.000 120.000 C220.000 123.334 220.000 126.666 220.000 130.000 C217.500 130.000 215.000 130.000 212.500 130.000 C212.500 126.666 212.500 123.334 212.500 120.000"></path>
<path id="" fill="#7FDBFF" fill-opacity="1.0" stroke="#000000" stroke-width="0.0" stroke-opacity="1.0" stroke-linecap="round" stroke-linejoin="round"  filling="0" d="M200.000 145.000 C202.500 145.000 205.000 145.000 207.500 145.000 C207.500 148.333 207.500 151.667 207.500 155.000 C205.000 155.000 202.500 155.000 200.000 155.000 C200.000 151.667 200.000 148.333 200.000 145.000"></path>
<path id="" fill="#7FDBFF" fill-opacity="1.0" stroke="#000000" stroke-width="0.0" stroke-opacity="1.0" stroke-linecap="round" stroke-linejoin="round"  filling="0" d="M212.500 145.000 C215.000 145.000 217.500 145.000 220.000 145.000 C220.000 148.333 220.000 151.667 220.000 155.000 C217.500 155.000 215.000 155.000 212.500 155.000 C212.500 151.667 212.500 148.333 212.500 145.000"></path>
<path id="" fill="#7FDBFF" fill-opacity="1.0" stroke="#000000" stroke-width="0.0" stroke-opacity="1.0" stroke-linecap="round" stroke-linejoin="round"  filling="0" d="M200.000 170.000 C202.500 170.000 205.000 170.000 207.500 170.000 C207.500 173.333 207.500 176.667 207.500 180.000 C205.000 180.000 202.500 180.000 200.000 180.000 C200.000 176.667 200.000 173.333 200.000 170.000"></path>
<path id="" fill="#7FDBFF" fill-opacity="1.0" stroke="#000000" stroke-width="0.0" stroke-opacity="1.0" stroke-linecap="round" stroke-linejoin="round"  filling="0" d="M212.500 170.000 C215.000 170.000 217.500 170.000 220.000 170.000 C220.000 173.333 220.000 176.667 220.000 180.000 C217.500 180.000 215.000 180.000 212.500 180.000 C212.500 176.667 212.500 173.333 212.500 170.000"></path>
<path id="" fill="#0ba8b0" fill-opacity="1.0" stroke="#000000" stroke-width="0.0" stroke-opacity="1.0" stroke-linecap="round" stroke-linejoin="round"  filling="0" d="M0.000 250.750 C5.167 249.417 10.333 248.083 15.500 246.750 C18.833 246.750 22.167 246.750 25.500 246.750 C30.167 247.750 34.833 248.750 39.500 249.750 C44.167 249.750 48.833 249.750 53.500 249.750 C58.667 248.750 63.833 247.750 69.000 246.750 C72.166 246.750 75.334 246.750 78.500 246.750 C83.334 247.750 88.166 248.750 93.000 249.750 C97.666 249.750 102.334 249.750 107.000 249.750 C111.834 248.750 116.666 247.750 121.500 246.750 C124.500 246.750 127.500 246.750 130.500 246.750 C134.167 247.583 137.833 248.417 141.500 249.250 C144.500 249.417 147.500 249.583 150.500 249.750 C150.583 250.667 150.667 251.583 150.750 252.500 C150.417 253.500 150.083 254.500 149.750 255.500 C99.834 253.917 49.917 252.333 0.000 250.750"></path>
<path id="" fill="#fad731" fill-opacity="1.0" stroke="#000000" stroke-width="0.0" stroke-opacity="1.0" stroke-linecap="round" stroke-linejoin="round"  filling="0" d="M231.250 204.000 C231.167 204.083 231.083 204.167 231.000 204.250 C217.167 204.250 203.333 204.250 189.500 204.250 C189.250 204.000 189.000 203.750 188.750 203.500 C188.750 201.833 188.750 200.167 188.750 198.500 C188.917 198.333 189.083 198.167 189.250 198.000 C189.250 197.500 189.250 197.000 189.250 196.500 C189.500 196.250 189.750 196.000 190.000 195.750 C190.500 195.750 191.000 195.750 191.500 195.750 C191.667 195.917 191.833 196.083 192.000 196.250 C199.500 196.250 207.000 196.250 214.500 196.250 C214.667 196.083 214.833 195.917 215.000 195.750 C215.167 195.917 215.333 196.083 215.500 196.250 C218.000 196.250 220.500 196.250 223.000 196.250 C223.167 196.083 223.333 195.917 223.500 195.750 C226.000 195.750 228.500 195.750 231.000 195.750 C231.083 195.833 231.167 195.917 231.250 196.000 C231.250 198.667 231.250 201.333 231.250 204.000"></path>
<path id="" fill="#fbfbfa" fill-opacity="1.0" stroke="#000000" stroke-width="0.0" stroke-opacity="1.0" stroke-linecap="round" stroke-linejoin="round"  filling="0" d="M218.500 85.750 C218.167 85.750 217.833 85.750 217.500 85.750 C217.333 85.916 217.167 86.084 217.000 86.250 C215.833 86.250 214.667 86.250 213.500 86.250 C213.250 86.000 213.000 85.750 212.750 85.500 C212.750 81.834 212.750 78.166 212.750 74.500 C212.833 74.416 212.917 74.334 213.000 74.250 C214.500 74.250 216.000 74.250 217.500 74.250 C217.667 74.084 217.833 73.916 218.000 73.750 C218.250 74.000 218.500 74.250 218.750 74.500 C218.750 78.166 218.750 81.834 218.750 85.500 C218.667 85.584 218.583 85.666 218.500 85.750"></path>
<path id="" fill="#f9faf9" fill-opacity="1.0" stroke="#000000" stroke-width="0.0" stroke-opacity="1.0" stroke-linecap="round" stroke-linejoin="round"  filling="0" d="M205.000 85.750 C203.500 85.750 202.000 85.750 200.500 85.750 C200.417 85.666 200.333 85.584 200.250 85.500 C200.250 81.666 200.250 77.834 200.250 74.000 C200.333 73.916 200.417 73.834 200.500 73.750 C201.667 73.750 202.833 73.750 204.000 73.750 C204.250 74.000 204.500 74.250 204.750 74.500 C204.750 75.166 204.750 75.834 204.750 76.500 C204.917 76.666 205.083 76.834 205.250 77.000 C205.250 79.834 205.250 82.666 205.250 85.500 C205.167 85.584 205.083 85.666 205.000 85.750"></path>
<path id="" fill="#081028" fill-opacity="1.0" stroke="#000000" stroke-width="0.0" stroke-opacity="1.0" stroke-linecap="round" stroke-linejoin="round"  filling="0" d="M24.500 25.750 C23.833 25.750 23.167 25.750 22.500 25.750 C21.917 25.167 21.333 24.583 20.750 24.000 C20.750 23.167 20.750 22.333 20.750 21.500 C20.833 21.417 20.917 21.333 21.000 21.250 C21.667 21.250 22.333 21.250 23.000 21.250 C23.750 22.000 24.500 22.750 25.250 23.500 C25.250 24.000 25.250 24.500 25.250 25.000 C25.000 25.250 24.750 25.500 24.500 25.750"></path>
<path id="" fill="#0e1937" fill-opacity="1.0" stroke="#000000" stroke-width="0.0" stroke-opacity="1.0" stroke-linecap="round" stroke-linejoin="round"  filling="0" d="M102.250 31.500 C102.000 31.750 101.750 32.000 101.500 32.250 C101.334 32.250 101.166 32.250 101.000 32.250 C100.834 32.417 100.666 32.583 100.500 32.750 C100.334 32.583 100.166 32.417 100.000 32.250 C99.834 32.250 99.666 32.250 99.500 32.250 C99.334 32.083 99.166 31.917 99.000 31.750 C98.834 31.750 98.666 31.750 98.500 31.750 C98.250 31.500 98.000 31.250 97.750 31.000 C97.750 30.833 97.750 30.667 97.750 30.500 C97.584 30.333 97.416 30.167 97.250 30.000 C97.250 29.667 97.250 29.333 97.250 29.000 C97.500 28.750 97.750 28.500 98.000 28.250 C98.666 28.250 99.334 28.250 100.000 28.250 C100.166 28.417 100.334 28.583 100.500 28.750 C100.666 28.750 100.834 28.750 101.000 28.750 C101.084 28.833 101.166 28.917 101.250 29.000 C101.250 29.167 101.250 29.333 101.250 29.500 C101.416 29.667 101.584 29.833 101.750 30.000 C101.750 30.167 101.750 30.333 101.750 30.500 C101.916 30.667 102.084 30.833 102.250 31.000 C102.250 31.167 102.250 31.333 102.250 31.500"></path>
<path id="" fill="#040a27" fill-opacity="1.0" stroke="#000000" stroke-width="0.0" stroke-opacity="1.0" stroke-linecap="round" stroke-linejoin="round"  filling="0" d="M176.500 37.750 C176.333 37.750 176.167 37.750 176.000 37.750 C175.833 37.583 175.667 37.417 175.500 37.250 C175.167 37.250 174.833 37.250 174.500 37.250 C174.250 37.000 174.000 36.750 173.750 36.500 C173.750 36.333 173.750 36.167 173.750 36.000 C173.583 35.833 173.417 35.667 173.250 35.500 C173.250 35.333 173.250 35.167 173.250 35.000 C173.083 34.833 172.917 34.667 172.750 34.500 C172.917 34.333 173.083 34.167 173.250 34.000 C173.250 33.833 173.250 33.667 173.250 33.500 C173.333 33.417 173.417 33.333 173.500 33.250 C174.000 33.250 174.500 33.250 175.000 33.250 C175.167 33.417 175.333 33.583 175.500 33.750 C175.667 33.750 175.833 33.750 176.000 33.750 C176.417 34.167 176.833 34.583 177.250 35.000 C177.250 35.167 177.250 35.333 177.250 35.500 C177.417 35.667 177.583 35.833 177.750 36.000 C177.750 36.167 177.750 36.333 177.750 36.500 C177.333 36.917 176.917 37.333 176.500 37.750"></path>
<path id="" fill="#090e22" fill-opacity="1.0" stroke="#000000" stroke-width="0.0" stroke-opacity="1.0" stroke-linecap="round" stroke-linejoin="round"  filling="0" d="M73.500 44.250 C73.000 44.250 72.500 44.250 72.000 44.250 C71.250 43.500 70.500 42.750 69.750 42.000 C69.750 41.667 69.750 41.333 69.750 41.000 C70.000 40.750 70.250 40.500 70.500 40.250 C71.000 40.250 71.500 40.250 72.000 40.250 C72.166 40.417 72.334 40.583 72.500 40.750 C72.666 40.750 72.834 40.750 73.000 40.750 C73.084 40.833 73.166 40.917 73.250 41.000 C73.250 41.167 73.250 41.333 73.250 41.500 C73.584 41.833 73.916 42.167 74.250 42.500 C74.250 42.667 74.250 42.833 74.250 43.000 C74.084 43.167 73.916 43.333 73.750 43.500 C73.750 43.667 73.750 43.833 73.750 44.000 C73.666 44.083 73.584 44.167 73.500 44.250"></path>
<path id="" fill="#050d2b" fill-opacity="1.0" stroke="#000000" stroke-width="0.0" stroke-opacity="1.0" stroke-linecap="round" stroke-linejoin="round"  filling="0" d="M200.750 13.500 C200.667 13.583 200.583 13.667 200.500 13.750 C200.000 13.750 199.500 13.750 199.000 13.750 C198.833 13.583 198.667 13.417 198.500 13.250 C198.333 13.250 198.167 13.250 198.000 13.250 C197.750 13.000 197.500 12.750 197.250 12.500 C197.250 12.333 197.250 12.167 197.250 12.000 C197.083 11.833 196.917 11.667 196.750 11.500 C196.750 11.167 196.750 10.833 196.750 10.500 C196.833 10.417 196.917 10.333 197.000 10.250 C197.167 10.250 197.333 10.250 197.500 10.250 C197.667 10.083 197.833 9.917 198.000 9.750 C198.167 9.750 198.333 9.750 198.500 9.750 C198.667 9.917 198.833 10.083 199.000 10.250 C199.167 10.250 199.333 10.250 199.500 10.250 C200.083 10.833 200.667 11.417 201.250 12.000 C201.250 12.167 201.250 12.333 201.250 12.500 C201.083 12.667 200.917 12.833 200.750 13.000 C200.750 13.167 200.750 13.333 200.750 13.500"></path>
<path id="" fill="#070d22" fill-opacity="1.0" stroke="#000000" stroke-width="0.0" stroke-opacity="1.0" stroke-linecap="round" stroke-linejoin="round"  filling="0" d="M101.000 32.250 C100.666 32.250 100.334 32.250 100.000 32.250 C99.834 32.083 99.666 31.917 99.500 31.750 C99.334 31.750 99.166 31.750 99.000 31.750 C98.584 31.333 98.166 30.917 97.750 30.500 C97.750 30.000 97.750 29.500 97.750 29.000 C98.000 28.750 98.250 28.500 98.500 28.250 C98.834 28.250 99.166 28.250 99.500 28.250 C99.666 28.417 99.834 28.583 100.000 28.750 C100.166 28.750 100.334 28.750 100.500 28.750 C100.916 29.167 101.334 29.583 101.750 30.000 C101.750 30.500 101.750 31.000 101.750 31.500 C101.500 31.750 101.250 32.000 101.000 32.250"></path>
<path id="" fill="#0b1127" fill-opacity="1.0" stroke="#000000" stroke-width="0.0" stroke-opacity="1.0" stroke-linecap="round" stroke-linejoin="round"  filling="0" d="M177.000 37.250 C176.333 37.250 175.667 37.250 175.000 37.250 C174.417 36.667 173.833 36.083 173.250 35.500 C173.250 35.000 173.250 34.500 173.250 34.000 C173.500 33.750 173.750 33.500 174.000 33.250 C174.167 33.250 174.333 33.250 174.500 33.250 C174.667 33.417 174.833 33.583 175.000 33.750 C175.167 33.750 175.333 33.750 175.500 33.750 C176.083 34.333 176.667 34.917 177.250 35.500 C177.250 36.000 177.250 36.500 177.250 37.000 C177.167 37.083 177.083 37.167 177.000 37.250"></path>
<path id="" fill="#767d8f" fill-opacity="1.0" stroke="#000000" stroke-width="0.0" stroke-opacity="1.0" stroke-linecap="round" stroke-linejoin="round"  filling="0" d="M200.000 13.750 C199.833 13.750 199.667 13.750 199.500 13.750 C199.333 13.583 199.167 13.417 199.000 13.250 C198.833 13.250 198.667 13.250 198.500 13.250 C198.083 12.833 197.667 12.417 197.250 12.000 C197.250 11.500 197.250 11.000 197.250 10.500 C197.333 10.417 197.417 10.333 197.500 10.250 C198.000 10.250 198.500 10.250 199.000 10.250 C199.583 10.833 200.167 11.417 200.750 12.000 C200.750 12.333 200.750 12.667 200.750 13.000 C200.500 13.250 200.250 13.500 200.000 13.750"></path>
</svg>