<?xml version="1.0" ?>
<svg xmlns="http://www.w3.org/2000/svg" version="1.1" width="256" height="256" viewBox="0 0 256 256">
  <defs/>
  <g>
    <path d="M 269.35903931 218.70787048 C 286.60012817 256.65130615 260.33215332 263.52285767 212.31375122 257.24761963 C 162.50225830 253.92909241 143.04263306 254.51220703 101.86283875 256.79299927 C 72.58723450 250.43353271 13.19038391 267.51605225 -11.43479156 254.92446899 C -15.83739471 226.63139343 -7.73552704 189.73063660 -9.15726471 144.61402893 C -6.80265045 106.50131226 -10.94091034 76.52989197 -16.53974152 33.57770538 C -14.32553864 -9.87366486 11.11177826 -13.90283966 42.42346191 -2.27362823 C 83.22748566 0.25962830 122.14189911 -3.50757599 156.47169495 -4.11956024 C 194.24792480 -1.84171295 232.52612305 -11.75504303 261.90631104 -3.84949493 C 268.18112183 31.37638855 255.37490845 67.37102509 257.68627930 106.69061279 C 259.76025391 144.75779724 263.13134766 175.33187866 269.35903931 218.70787048" stroke-width="1.90259111" fill="rgb(9, 24, 65)" opacity="1.0" stroke="rgb(0, 235, 207)" stroke-opacity="0.97520334" stroke-linecap="round" stroke-linejoin="round"/>
    <path d="M 23.16530418 23.59578705 C 23.14781380 23.59156227 23.10274696 23.59147835 23.05463982 23.60176849 C 23.01568222 23.60276604 22.96998596 23.62646294 22.94209099 23.62621117 C 22.94569397 23.59650612 22.97047997 23.54809570 22.97551727 23.51908302 C 22.99689865 23.45588303 23.01226997 23.44292259 23.02986145 23.40662766 C 23.06575966 23.36273766 23.11366081 23.34936333 23.13975716 23.34385872 C 23.22028923 23.34249115 23.20090485 23.34251976 23.24580956 23.34447670 C 23.28491020 23.33768082 23.32775497 23.37921715 23.34388542 23.40925217 C 23.37087631 23.46434975 23.36705208 23.48554039 23.36387825 23.52895927 C 23.36485100 23.55323982 23.35558510 23.61161804 23.31211090 23.61833382 C 23.25673103 23.61667252 23.24145126 23.59490395 23.16530418 23.59578705" stroke-width="0.89282155" fill="rgb(85, 187, 255)" opacity="1.0" stroke="rgb(27, 38, 129)" stroke-opacity="0.34077385" stroke-linecap="round" stroke-linejoin="round"/>
    <path d="M 71.87008667 42.15364075 C 71.87557220 42.12228775 71.89105225 42.03278351 71.88397980 41.95422745 C 71.89400482 41.86838531 71.84146118 41.79715729 71.88238525 41.75548935 C 71.95652771 41.75989914 72.02199554 41.78769302 72.08761597 41.78787994 C 72.19671631 41.80656433 72.24649048 41.80807495 72.32178497 41.79500198 C 72.40396881 41.81151962 72.41323090 41.86285019 72.41488647 41.95955658 C 72.38942719 42.06691360 72.39852142 42.06286621 72.37689972 42.13525391 C 72.33342743 42.24196625 72.35454559 42.24691010 72.25264740 42.31891251 C 72.16478729 42.36144638 72.17352295 42.36084366 72.06840515 42.40641785 C 71.98944855 42.43642426 71.91216278 42.43244934 71.87261200 42.39797974 C 71.82176971 42.34590912 71.86763763 42.27693558 71.87008667 42.15364075" stroke-width="1.48209536" fill="rgb(0, 0, 68)" opacity="1.0" stroke="rgb(5, 3, 4)" stroke-opacity="0.58685553" stroke-linecap="round" stroke-linejoin="round"/>
    <path d="M 173.26466370 35.50470352 C 173.20622253 35.52210617 173.20378113 35.51331711 173.13259888 35.54395676 C 173.09410095 35.56409073 173.05973816 35.61521530 173.02754211 35.60799789 C 173.02584839 35.55579376 173.04362488 35.52170563 173.02604675 35.46762085 C 173.01687622 35.39719009 173.00691223 35.38285828 172.96287537 35.33293152 C 172.93629456 35.28961945 172.96472168 35.27835083 173.02993774 35.26631546 C 173.09362793 35.26350784 173.11332703 35.27423859 173.14262390 35.25319290 C 173.20114136 35.22084045 173.20939636 35.22078323 173.27339172 35.25838089 C 173.31912231 35.28563309 173.31193542 35.30228424 173.36624146 35.34924698 C 173.41394043 35.39751434 173.42808533 35.41736984 173.42182922 35.46314240 C 173.37928772 35.51152039 173.31848145 35.48934555 173.26466370 35.50470352" stroke-width="0.00000000" fill="rgb(0, 0, 0)" opacity="1.0" stroke="rgb(189, 162, 139)" stroke-opacity="0.0" stroke-linecap="round" stroke-linejoin="round"/>
    <path d="M 100.46776581 30.58065796 C 100.49662781 30.58197021 100.51158905 30.58685112 100.54084778 30.57909203 C 100.56706238 30.57705688 100.59083557 30.55873299 100.60762024 30.56157112 C 100.60134125 30.58137894 100.58328247 30.59854889 100.57606506 30.62310600 C 100.56132507 30.65757942 100.55900574 30.66588593 100.56183624 30.69829559 C 100.56183624 30.71898460 100.55403137 30.72731400 100.52024841 30.72476578 C 100.48525238 30.71480942 100.48300171 30.70969009 100.46521759 30.70971107 C 100.43318939 30.71236229 100.42311096 30.70947838 100.40307617 30.67964363 C 100.38744354 30.65639687 100.39243317 30.65264702 100.37545776 30.62017059 C 100.36407471 30.59722710 100.36306000 30.57109642 100.38579559 30.56661606 C 100.41148376 30.55801773 100.43396759 30.58139610 100.46776581 30.58065796" stroke-width="0.46149880" fill="rgb(255, 255, 255)" opacity="1.0" stroke="rgb(0, 0, 24)" stroke-opacity="0.5680003" stroke-linecap="round" stroke-linejoin="round"/>
    <path d="M 200.10623169 12.85560322 C 200.03979492 12.89410114 200.02513123 12.88661098 199.95712280 12.93535137 C 199.90484619 12.96886730 199.87812805 13.04169178 199.83944702 13.03732204 C 199.82798767 12.97411346 199.82548523 12.92544079 199.79084778 12.86884975 C 199.75407410 12.78360462 199.73805237 12.76466370 199.67944336 12.71533108 C 199.64155579 12.65308666 199.67601013 12.64897156 199.75564575 12.60324383 C 199.85731506 12.57256031 199.83418274 12.57033920 199.89967346 12.54453659 C 199.99494934 12.51288223 199.97787476 12.49455738 200.07768250 12.50981617 C 200.15715027 12.55064201 200.15376282 12.55462074 200.21548462 12.60278511 C 200.27075195 12.65851688 200.29301453 12.70884705 200.27891541 12.74486065 C 200.23445129 12.81774998 200.16596985 12.81707668 200.10623169 12.85560322" stroke-width="0.52379251" fill="rgb(5, 6, 13)" opacity="1.0" stroke="rgb(0, 27, 159)" stroke-opacity="0.36617464" stroke-linecap="round" stroke-linejoin="round"/>
    <path d="M 271.54342651 200.56159973 C 268.33795166 214.80673218 274.76934814 248.18475342 248.03730774 261.95745850 C 223.37036133 263.33334351 203.15481567 262.52655029 167.84208679 261.08587646 C 138.87318420 259.78552246 113.55419922 255.89697266 89.90061951 258.80834961 C 56.75070953 255.34407043 32.82154846 264.82397461 5.50881958 259.64566040 C -8.80478668 248.43295288 -9.76251984 212.08103943 -14.24695587 183.32383728 C -12.72534943 152.87454224 -15.40805817 130.22033691 5.29756165 128.90901184 C 33.03194427 129.10926819 51.85294342 129.17732239 91.94012451 129.01133728 C 112.18592072 129.77966309 130.85049438 128.21502686 169.08293152 129.18902588 C 188.66546631 129.62960815 218.66525269 128.01962280 248.68855286 129.08392334 C 274.48178101 128.91369629 274.29745483 151.68365479 271.54342651 200.56159973" stroke-width="0.88056004" fill="rgb(13, 113, 206)" opacity="1.0" stroke="rgb(38, 157, 252)" stroke-opacity="0.480265" stroke-linecap="round" stroke-linejoin="round"/>
    <path d="M 230.11019897 243.72966003 C 216.50122070 244.82058716 200.33132935 246.41386414 175.77996826 247.03707886 C 159.65626526 243.28875732 145.49588013 238.36241150 127.36269379 237.39561462 C 105.56977844 239.58775330 101.59868622 242.39653015 72.88624573 237.82292175 C 51.06404114 234.21653748 40.97645569 236.10006714 19.17431641 237.23989868 C -18.76441193 244.59893799 5.70107269 233.85583496 20.15593719 235.33293152 C 53.44290924 234.89166260 48.47278595 237.70790100 69.55358887 234.63003540 C 91.86238861 238.15631104 107.17765808 239.12202454 122.83676147 234.96531677 C 142.87702942 235.08622742 146.98779297 240.39801025 171.28262329 241.41511536 C 194.40682983 243.56350708 204.27517700 239.78152466 225.72830200 237.43814087 C 247.78773499 233.12496948 263.35525513 238.45289612 230.11019897 243.72966003" stroke-width="0.00000000" fill="rgb(159, 215, 220)" opacity="1.0" stroke="rgb(255, 255, 255)" stroke-opacity="0.0" stroke-linecap="round" stroke-linejoin="round"/>
    <path d="M 211.39761353 246.53680420 C 195.37741089 244.67193604 185.70751953 243.11358643 163.41867065 244.13240051 C 148.52389526 243.80427551 129.67733765 246.65068054 116.30863953 251.63734436 C 98.40830231 258.36651611 85.99123383 255.24934387 70.64229584 253.13447571 C 44.70176697 253.57026672 37.75363922 259.51547241 12.11872101 256.16424561 C -11.12933350 247.55168152 1.28678894 244.36264038 22.30285645 245.23681641 C 49.38368988 245.05764771 53.73276520 248.71788025 68.68278503 244.14497375 C 90.64611816 245.18289185 97.40043640 246.84007263 118.21946716 245.08100891 C 143.20274353 243.02024841 145.26545715 246.76075745 165.99455261 245.18867493 C 186.35186768 246.46086121 197.21836853 243.86593628 219.48809814 243.60177612 C 243.28436279 244.19879150 241.15802002 249.05143738 211.39761353 246.53680420" stroke-width="0.00000000" fill="rgb(136, 200, 222)" opacity="1.0" stroke="rgb(86, 255, 255)" stroke-opacity="0.0" stroke-linecap="round" stroke-linejoin="round"/>
    <path d="M 257.15222168 260.42599487 C 250.93554688 265.43179321 239.69129944 260.95361328 226.64733887 261.18981934 C 216.26954651 260.68389893 208.00561523 260.24740601 193.79011536 260.13479614 C 181.74520874 260.07693481 170.47158813 258.97348022 159.37251282 259.20074463 C 143.99523926 260.32647705 153.90412903 251.45576477 157.26249695 236.49688721 C 160.60879517 228.27684021 164.62954712 215.12130737 168.14791870 204.94061279 C 173.08702087 194.31661987 173.04864502 183.08955383 183.56475830 187.53695679 C 198.17732239 188.38018799 209.01322937 189.58976746 217.10639954 189.81526184 C 233.83950806 192.18467712 235.46595764 191.73989868 250.84480286 197.39932251 C 263.52359009 204.06066895 261.16403198 212.26217651 259.53610229 225.12200928 C 258.51815796 235.70428467 258.42303467 251.96702576 257.15222168 260.42599487" stroke-width="1.13047814" fill="rgb(132, 67, 29)" opacity="1.0" stroke="rgb(118, 65, 44)" stroke-opacity="0.5546459" stroke-linecap="round" stroke-linejoin="round"/>
    <path d="M 225.25115967 201.32696533 C 216.58595276 204.02398682 206.57945251 203.63935852 198.08532715 203.93522644 C 187.74691772 199.27319336 192.29240417 192.35733032 191.42021179 180.07473755 C 191.72329712 170.03489685 191.10867310 161.01808167 191.34729004 150.78953552 C 191.69918823 140.23005676 191.35768127 130.24147034 191.00636292 121.29182434 C 192.55908203 108.27092743 188.19259644 100.51589203 194.73025513 95.84779358 C 207.03559875 93.91168976 210.13517761 93.97232056 220.53727722 93.18260193 C 232.04841614 95.50798035 228.40843201 106.23751831 228.78543091 116.85611725 C 229.29277039 128.54489136 229.04885864 135.38027954 228.92845154 145.30702209 C 229.51902771 159.32862854 229.17395020 159.68902588 229.09986877 174.19157410 C 227.72810364 184.84461975 232.80513000 196.03121948 225.25115967 201.32696533" stroke-width="0.39241025" fill="rgb(248, 250, 249)" opacity="1.0" stroke="rgb(228, 212, 191)" stroke-opacity="0.59145874" stroke-linecap="round" stroke-linejoin="round"/>
    <path d="M 228.22293091 99.61757660 C 226.00497437 99.32744598 223.22265625 99.12722015 219.08625793 99.38172913 C 214.07144165 99.32929230 213.68991089 99.48916626 208.69514465 99.41490936 C 204.36378479 99.48208618 203.02601624 99.32659149 198.47483826 99.57222748 C 195.00367737 99.20108032 190.52288818 100.40865326 192.23181152 96.09722900 C 193.11030579 93.57925415 190.88151550 89.06040955 192.58515930 86.54381561 C 197.38566589 85.40224457 196.58757019 86.07682800 200.91217041 86.17514038 C 205.82980347 85.88722992 206.47402954 86.13291931 210.94256592 85.97153473 C 215.56237793 85.95711517 216.56095886 85.93703461 221.63102722 86.00421906 C 224.32908630 86.06378174 229.10023499 84.66281128 228.02023315 89.85393524 C 227.96263123 95.36177063 228.19717407 95.36898804 228.22293091 99.61757660" stroke-width="0.70990062" fill="rgb(239, 70, 72)" opacity="1.0" stroke="rgb(166, 30, 22)" stroke-opacity="0.45806614" stroke-linecap="round" stroke-linejoin="round"/>
    <path d="M 218.30957031 72.81576538 C 218.82489014 73.70771027 218.66453552 75.35660553 218.61857605 77.95848846 C 218.13528442 79.99914551 218.62884521 82.25705719 216.78698730 83.48861694 C 215.23388672 84.43279266 214.17655945 85.52610779 211.92761230 86.39543152 C 209.90299988 86.92373657 208.87780762 87.00567627 206.24533081 86.48385620 C 203.89822388 85.46479797 202.69369507 84.21946716 202.03956604 82.86879730 C 200.81237793 79.41341400 201.00894165 80.31428528 200.58786011 78.05043793 C 200.40444946 76.03709412 199.88317871 74.05210114 201.41845703 72.07772827 C 203.26800537 70.55378723 204.57792664 70.29864502 206.39698792 69.80338287 C 209.20794678 69.38513184 209.85995483 69.55670166 212.67645264 69.90299988 C 213.68962097 70.33304596 216.57160950 70.66364288 218.30957031 72.81576538" stroke-width="0.55266511" fill="rgb(237, 71, 76)" opacity="1.0" stroke="rgb(255, 138, 84)" stroke-opacity="0.37610427" stroke-linecap="round" stroke-linejoin="round"/>
    <path d="M 232.62934875 29.76371574 C 235.58283997 31.82552338 231.25439453 36.43342972 229.28518677 40.55278397 C 226.53344727 45.38189316 225.36485291 49.72988129 222.85176086 53.87844086 C 219.96707153 58.55963898 218.59312439 63.82971954 216.02915955 66.90644836 C 212.22976685 72.22637177 209.03862000 72.88741302 204.75631714 68.93989563 C 201.54553223 64.66204071 201.00289917 60.73343277 197.65197754 55.78998566 C 194.72514343 46.94234848 194.35202026 49.04697418 191.91505432 43.28997040 C 189.92735291 36.82184601 187.78828430 36.51974487 186.27674866 30.19031525 C 191.64100647 29.40433502 193.88032532 30.33098793 201.47731018 29.80746651 C 206.13069153 29.79473495 208.74972534 30.10953712 216.29647827 29.79972839 C 219.51223755 30.06441307 226.54116821 29.73207092 232.62934875 29.76371574" stroke-width="0.48171875" fill="rgb(249, 176, 48)" opacity="1.0" stroke="rgb(215, 145, 28)" stroke-opacity="0.62576115" stroke-linecap="round" stroke-linejoin="round"/>
    <path d="M 204.11492920 128.98690796 C 203.72569275 128.98933411 202.57400513 128.88040161 200.95944214 128.83758545 C 199.74658203 128.94157410 199.49046326 128.32536316 199.88801575 126.78004456 C 200.08578491 125.61411285 200.12875366 124.43140411 200.08320618 123.17828369 C 200.11039734 121.78353882 200.04122925 120.83698273 199.78456116 119.78605652 C 199.80532837 118.24496460 200.64488220 118.25870514 202.11824036 118.28969574 C 203.34396362 118.35000610 203.87875366 118.27035522 204.89889526 118.36072540 C 206.26039124 118.19273376 206.60914612 118.75040436 206.42559814 120.47341919 C 206.41517639 121.99536896 206.31553650 122.36402893 206.34403992 123.73077393 C 206.37039185 125.36283875 206.42156982 125.76476288 206.42950439 127.34204865 C 206.59265137 128.59753418 206.10716248 129.06918335 204.11492920 128.98690796" stroke-width="0.00000000" fill="rgb(74, 200, 234)" opacity="1.0" stroke="rgb(153, 255, 255)" stroke-opacity="0.08737335" stroke-linecap="round" stroke-linejoin="round"/>
    <path d="M 218.62774658 126.28186798 C 218.66508484 127.57086945 219.00407410 128.80552673 218.05368042 129.17889404 C 217.07038879 129.63069153 215.94905090 129.16291809 214.72697449 129.15472412 C 213.68077087 128.99331665 212.42323303 129.33514404 212.02124023 127.99136353 C 212.00642395 126.82985687 212.23454285 126.04199219 212.37185669 124.58542633 C 212.38577271 123.50211334 212.44027710 122.81710052 212.06419373 121.12400818 C 212.18424988 119.66074371 211.89228821 119.35755157 212.56068420 118.67265320 C 213.45872498 118.07424164 215.15608215 118.47443390 215.90328979 118.46936035 C 217.59686279 118.54382324 218.59779358 118.13060760 218.83177185 119.21138763 C 218.90596008 120.03020477 218.64854431 121.35292053 218.62130737 122.64115143 C 218.52336121 124.17175293 218.52648926 124.91645050 218.62774658 126.28186798" stroke-width="0.00000000" fill="rgb(80, 198, 234)" opacity="1.0" stroke="rgb(213, 255, 255)" stroke-opacity="0.0039766133" stroke-linecap="round" stroke-linejoin="round"/>
    <path d="M 200.70117188 155.61691284 C 199.80978394 155.59107971 199.58293152 154.43191528 199.72279358 153.10217285 C 199.80299377 151.80419922 199.85853577 150.77249146 199.82415771 149.59703064 C 199.88478088 148.28852844 199.71858215 147.12461853 199.72175598 146.31224060 C 199.91033936 145.16476440 201.29690552 144.93492126 202.43452454 144.67491150 C 203.75531006 144.71939087 204.75192261 144.74987793 205.70489502 145.14730835 C 206.66798401 145.93284607 206.51010132 146.45668030 206.53472900 147.60336304 C 206.57949829 148.99592590 206.63668823 149.51399231 206.68818665 150.97605896 C 206.64002991 152.03427124 206.81353760 153.46501160 206.84437561 154.41981506 C 206.88099670 155.64671326 205.92033386 155.46090698 204.21516418 155.69458008 C 203.53959656 155.67399597 202.10105896 155.80029297 200.70117188 155.61691284" stroke-width="0.00000000" fill="rgb(74, 200, 238)" opacity="1.0" stroke="rgb(134, 252, 254)" stroke-opacity="0.1542455" stroke-linecap="round" stroke-linejoin="round"/>
    <path d="M 218.15779114 144.89009094 C 219.00160217 145.58602905 218.84869385 145.69444275 218.83787537 147.57536316 C 218.83329773 148.71553040 218.80134583 149.39149475 218.81996155 151.00796509 C 218.77235413 151.83015442 218.96430969 153.22326660 218.74031067 154.51504517 C 218.46455383 155.35931396 217.77326965 155.89753723 216.26086426 156.28277588 C 215.31494141 156.37619019 213.83715820 156.38420105 212.92364502 155.77746582 C 212.08869934 154.90258789 212.04148865 154.43644714 212.06727600 153.25961304 C 212.05659485 151.85603333 212.10145569 151.53994751 211.96165466 149.79779053 C 212.01878357 148.99357605 211.79963684 147.67840576 211.86433411 146.31047058 C 212.06671143 145.06666565 212.50872803 145.12397766 214.37985229 144.78843689 C 215.22218323 144.75874329 216.32142639 144.56512451 218.15779114 144.89009094" stroke-width="0.00000000" fill="rgb(81, 199, 232)" opacity="1.0" stroke="rgb(171, 255, 255)" stroke-opacity="0.0646394" stroke-linecap="round" stroke-linejoin="round"/>
    <path d="M 204.26782227 181.70587158 C 202.92454529 181.82531738 202.10258484 181.66575623 200.84118652 181.59556580 C 199.36549377 181.20144653 199.82450867 180.84786987 199.82238770 179.41540527 C 199.94200134 178.09332275 199.81680298 177.39628601 199.78822327 175.84286499 C 199.79324341 174.64927673 199.67823792 173.39033508 199.72329712 172.33120728 C 199.96142578 171.10211182 200.91354370 171.17442322 202.41943359 171.15997314 C 203.60441589 171.18481445 204.04997253 170.94847107 205.26106262 171.15522766 C 206.59355164 171.31604004 206.87600708 171.85490417 206.60586548 173.38491821 C 206.56446838 174.87358093 206.48643494 175.58692932 206.50727844 176.70968628 C 206.50360107 178.20162964 206.49884033 178.84425354 206.63349915 180.11048889 C 206.66668701 181.43380737 205.68193054 181.60552979 204.26782227 181.70587158" stroke-width="0.00000000" fill="rgb(77, 198, 234)" opacity="1.0" stroke="rgb(118, 249, 252)" stroke-opacity="0.18432686" stroke-linecap="round" stroke-linejoin="round"/>
    <path d="M 214.66966248 171.44383240 C 215.97416687 171.38410950 216.86779785 171.54112244 217.98907471 171.52392578 C 219.38008118 171.77137756 218.75427246 172.89135742 218.70587158 173.77876282 C 218.50502014 175.54020691 218.49166870 175.78215027 218.47280884 177.40660095 C 218.33268738 178.58245850 218.53053284 179.43083191 218.62907410 181.03909302 C 218.04464722 182.22636414 217.84414673 181.88885498 216.12733459 181.87176514 C 214.34487915 181.75054932 214.63352966 181.91325378 213.24711609 181.81730652 C 211.97898865 181.72550964 211.78028870 181.11965942 212.13038635 179.55470276 C 212.42181396 178.10975647 212.54264832 177.40093994 212.53546143 176.25692749 C 212.53689575 174.77091980 212.52600098 174.16648865 212.36090088 172.79751587 C 212.03266907 171.23327637 213.55032349 171.56346130 214.66966248 171.44383240" stroke-width="0.29458934" fill="rgb(75, 194, 236)" opacity="1.0" stroke="rgb(40, 191, 206)" stroke-opacity="0.43920556" stroke-linecap="round" stroke-linejoin="round"/>
    <path d="M 150.33473206 257.92169189 C 140.36447144 258.93109131 131.29318237 256.04553223 117.41780090 256.25949097 C 106.76110840 257.20791626 97.31044006 258.10867310 84.36949921 257.08700562 C 70.20473480 257.71893311 65.01306152 258.29788208 50.68442535 258.68093872 C 37.17654037 258.16934204 33.88681412 258.40414429 15.28337479 258.63540649 C -0.71831512 260.15881348 -8.26673889 255.05555725 3.83637238 249.16259766 C 21.51335144 245.19509888 22.51839828 245.30632019 31.07913589 247.87126160 C 45.91178894 251.17630005 55.43704224 248.80993652 65.79759216 247.23847961 C 78.72604370 244.53260803 82.62299347 248.26260376 96.26580811 249.42059326 C 107.41519165 249.92979431 119.22109985 246.62442017 130.59671021 247.25212097 C 146.95809937 247.43054199 151.67541504 247.18362427 150.33473206 257.92169189" stroke-width="1.01824605" fill="rgb(14, 166, 178)" opacity="1.0" stroke="rgb(255, 255, 246)" stroke-opacity="0.7584008" stroke-linecap="round" stroke-linejoin="round"/>
    <path d="M 229.05966187 204.25569153 C 224.21937561 204.00201416 224.70635986 203.94079590 219.37077332 204.07925415 C 215.50553894 203.99890137 213.68272400 203.92042542 208.73852539 203.94854736 C 205.16514587 204.15019226 202.56765747 203.91209412 198.33085632 204.08863831 C 195.42494202 203.61097717 191.25376892 204.95916748 189.47383118 203.37397766 C 189.19056702 199.32385254 188.21308899 194.62876892 192.95271301 196.31086731 C 198.21415710 196.60946655 198.17741394 196.36093140 201.42585754 196.33547974 C 206.48342896 196.14886475 208.16755676 196.30743408 211.81245422 196.23106384 C 215.82669067 196.09449768 219.33444214 196.46589661 222.56443787 196.29302979 C 226.65116882 196.38925171 229.88825989 194.27084351 231.38339233 197.01408386 C 231.14990234 199.39831543 233.19267273 204.71047974 229.05966187 204.25569153" stroke-width="0.00000000" fill="rgb(246, 214, 50)" opacity="1.0" stroke="rgb(255, 255, 160)" stroke-opacity="0.0" stroke-linecap="round" stroke-linejoin="round"/>
    <path d="M 218.68789673 74.48895264 C 218.98776245 75.56837463 218.64559937 75.61880493 218.79595947 77.59388733 C 218.77645874 78.65245056 218.85914612 79.55294800 218.86991882 81.00296021 C 218.83728027 82.44959259 218.94050598 83.02186584 219.02174377 84.62742615 C 218.77919006 85.92563629 218.47023010 86.12631989 217.03410339 86.49926758 C 215.14318848 86.47635651 215.08569336 86.55036163 213.84263611 85.69335175 C 213.05920410 83.89807129 213.26551819 84.30769348 213.25027466 82.89440918 C 213.25543213 81.47917175 213.25726318 80.64355469 213.18498230 79.47471619 C 213.26856995 77.82089996 213.11463928 77.43908691 213.02388000 75.81691742 C 212.86056519 74.26394653 214.09155273 74.31655121 215.28733826 74.26853943 C 216.54777527 74.23884583 217.70021057 74.06262970 218.68789673 74.48895264" stroke-width="0.00000000" fill="rgb(253, 249, 251)" opacity="1.0" stroke="rgb(198, 236, 233)" stroke-opacity="0.91079974" stroke-linecap="round" stroke-linejoin="round"/>
    <path d="M 204.89987183 82.15783691 C 204.91247559 83.58179474 204.95852661 83.88121033 204.92559814 85.03389740 C 204.69683838 86.18168640 203.51283264 86.32064056 202.49093628 86.21525574 C 201.38668823 86.42253876 200.78611755 85.93055725 200.80854797 84.67939758 C 200.64208984 83.55671692 200.72512817 82.52912140 200.77812195 81.50485229 C 200.70024109 80.31318665 200.91007996 79.68193054 200.69989014 78.35515594 C 200.80899048 77.36048126 200.79908752 76.84184265 200.69503784 75.97928619 C 200.77816772 74.68047333 201.79667664 74.16658020 202.82086182 74.32450104 C 204.35815430 74.49761963 204.90965271 74.60618591 204.83250427 75.82307434 C 204.89872742 76.64043427 204.83540344 77.59557343 204.91452026 78.84643555 C 204.92475891 80.18001556 204.84161377 80.82431030 204.89987183 82.15783691" stroke-width="0.53946036" fill="rgb(250, 248, 247)" opacity="1.0" stroke="rgb(175, 152, 155)" stroke-opacity="0.8485337" stroke-linecap="round" stroke-linejoin="round"/>
    <path d="M 22.17989540 23.97869110 C 22.04546356 23.69841003 22.01383781 23.56574821 21.86580658 23.24846649 C 21.84517860 23.01478958 21.67283821 22.65228653 21.79812813 22.45571327 C 22.10713387 22.34071541 22.20829773 22.37744141 22.61199570 22.41744423 C 22.92945671 22.46526909 23.18966675 22.68797684 23.36174202 22.81455612 C 23.67640495 22.94477272 23.89597321 23.14264488 23.98861122 23.32252693 C 24.21701050 23.82955170 24.09634590 23.78773308 24.33198738 23.98179817 C 24.65975189 24.11570930 24.58716202 24.54265785 24.33891869 24.73556900 C 23.96651077 24.96055031 23.79142189 24.82945824 23.49255753 24.84831238 C 23.21918297 24.91524124 23.01865578 24.88358879 22.81360626 24.65386009 C 22.56844521 24.44802666 22.54299164 24.39602470 22.17989540 23.97869110" stroke-width="0.00000000" fill="rgb(220, 224, 222)" opacity="1.0" stroke="rgb(216, 176, 114)" stroke-opacity="0.42231357" stroke-linecap="round" stroke-linejoin="round"/>
    <path d="M 99.30859375 30.87801933 C 99.23461914 30.81525993 99.03125763 30.68395424 98.78794098 30.57041168 C 98.65904999 30.45712471 98.35536957 30.37715340 98.28134918 30.19855309 C 98.35709381 29.96795654 98.41363525 29.94462013 98.59246063 29.65728378 C 98.81381226 29.40180779 98.82183838 29.36310196 99.04524231 29.16303825 C 99.31891632 29.09823036 99.58855438 29.19519997 99.70606995 29.26670456 C 100.06859589 29.55892372 99.99855804 29.47267342 100.16398621 29.64374924 C 100.31519318 29.81128311 100.48278046 30.08538246 100.53704834 30.25945091 C 100.63261414 30.60507965 100.63990021 30.66868210 100.52576447 30.89419937 C 100.45988464 31.04524040 100.25241852 31.23183250 100.01961517 31.22143745 C 99.79134369 31.22684669 99.68664551 31.06298637 99.30859375 30.87801933" stroke-width="1.54560363" fill="rgb(196, 215, 230)" opacity="1.0" stroke="rgb(0, 0, 0)" stroke-opacity="0.41691023" stroke-linecap="round" stroke-linejoin="round"/>
    <path d="M 176.66990662 35.94490051 C 176.80645752 36.01884079 176.84068298 36.06940842 176.96664429 36.13570404 C 177.08212280 36.23951340 177.16204834 36.24834442 177.24185181 36.35272980 C 177.28320312 36.46410370 177.22708130 36.53599548 177.18321228 36.64822388 C 177.09883118 36.79808044 177.06097412 36.88566208 177.00344849 36.97081757 C 176.85523987 36.98583984 176.79927063 36.94474030 176.67939758 36.89028549 C 176.49456787 36.75203705 176.52113342 36.79190445 176.42897034 36.71308136 C 176.32756042 36.63300705 176.24110413 36.52339554 176.19223022 36.43461609 C 176.11114502 36.26780701 176.07945251 36.21363449 176.09965515 36.09766388 C 176.10456848 35.97698212 176.20300293 35.85821152 176.29423523 35.83787537 C 176.44340515 35.79517746 176.52165222 35.89914322 176.66990662 35.94490051" stroke-width="0.00000000" fill="rgb(128, 117, 118)" opacity="1.0" stroke="rgb(78, 45, 4)" stroke-opacity="0.3912797" stroke-linecap="round" stroke-linejoin="round"/>
    <path d="M 72.13356781 41.22090912 C 72.25016022 41.28042603 72.58495331 41.42480469 72.88258362 41.52295303 C 73.12564087 41.63901138 73.51148987 41.65527725 73.55660248 41.92568588 C 73.54370117 42.20557022 73.58850861 42.26180649 73.62403870 42.75592041 C 73.57612610 43.09519196 73.61500549 43.34339905 73.51309967 43.59077072 C 73.19959259 43.72117996 72.78259277 43.59776688 72.62345123 43.49585724 C 72.09431458 43.12784195 72.18592834 43.19838333 71.93534088 43.04404068 C 71.62727356 42.98123169 71.33390045 42.77967834 71.15348816 42.51603699 C 70.88318634 42.16075134 70.95951080 42.11096573 70.86730957 41.75416183 C 70.78364563 41.46466446 70.86344147 41.16118240 71.12798309 41.01657104 C 71.36064148 40.85860062 71.59785461 41.09542465 72.13356781 41.22090912" stroke-width="0.22419500" fill="rgb(213, 217, 217)" opacity="1.0" stroke="rgb(147, 127, 99)" stroke-opacity="0.35818753" stroke-linecap="round" stroke-linejoin="round"/>
    <path d="M 199.20625305 12.21568489 C 199.70222473 12.49085331 199.90779114 12.72321033 200.34501648 12.93190002 C 200.84692383 13.33667469 201.16746521 13.31739330 201.55845642 13.67263031 C 201.69255066 14.06528187 201.39775085 14.38704395 201.25671387 14.85175323 C 200.98858643 15.44050980 200.83204651 15.83485603 200.66314697 16.17550278 C 200.25456238 16.27374840 199.64591980 16.09701920 199.35424805 15.90776920 C 198.55024719 15.37076759 198.76220703 15.54973602 198.29196167 15.20658112 C 197.79304504 14.82881641 197.39498901 14.53652573 197.17938232 14.22937584 C 196.93989563 13.54267025 196.91703796 13.25085640 196.92120361 12.78636837 C 196.99133301 12.24155712 197.35736084 11.83167458 197.68878174 11.79699898 C 198.27639771 11.64093876 198.67807007 12.03938866 199.20625305 12.21568489" stroke-width="1.93764222" fill="rgb(27, 30, 69)" opacity="1.0" stroke="rgb(4, 13, 51)" stroke-opacity="0.090014294" stroke-linecap="round" stroke-linejoin="round"/>
    <path d="M 100.25556183 31.66895676 C 100.02639771 31.51865578 99.82363129 31.35017204 99.61975861 31.24777603 C 99.37752533 31.07469749 99.09925079 31.01719093 99.00431061 30.87503052 C 98.96575165 30.69840431 99.01890564 30.47910309 99.10517120 30.15344429 C 99.22018433 29.86385155 99.26477814 29.58575439 99.35798645 29.40753365 C 99.61878204 29.31286621 99.91370392 29.46407127 100.06413269 29.56178093 C 100.46948242 29.92038536 100.39762878 29.84792328 100.59951782 29.99513245 C 100.87804413 30.10655594 101.10229492 30.31040955 101.22292328 30.57814789 C 101.36199951 30.89377022 101.36536407 30.88969421 101.37242889 31.31398582 C 101.37326050 31.61913681 101.20351410 31.85116577 101.05164337 31.91447639 C 100.75891876 32.09052277 100.59481812 31.80931854 100.25556183 31.66895676" stroke-width="0.31338841" fill="rgb(217, 220, 225)" opacity="1.0" stroke="rgb(110, 65, 1)" stroke-opacity="0.1338121" stroke-linecap="round" stroke-linejoin="round"/>
    <path d="M 175.80812073 36.83699417 C 175.48675537 36.63874817 175.34225464 36.49428940 175.03094482 36.32976532 C 174.71330261 36.05045319 174.49818420 36.03906250 174.24845886 35.82160187 C 174.20465088 35.54288101 174.20071411 35.28399658 174.20234680 34.94654083 C 174.22837830 34.57506180 174.19218445 34.23331833 174.31190491 33.96871567 C 174.70533752 33.87968445 174.93927002 34.03992462 175.18833923 34.18941879 C 175.63964844 34.60506439 175.54225159 34.47933960 175.81666565 34.74964523 C 176.16470337 35.05999374 176.30662537 35.19877243 176.53613281 35.45250702 C 176.79055786 35.86706924 176.88528442 35.99015808 176.98693848 36.29497528 C 177.09403992 36.70698929 176.99424744 37.06774139 176.80329895 37.12926865 C 176.41928101 37.25537872 176.14947510 36.94229889 175.80812073 36.83699417" stroke-width="0.17110807" fill="rgb(223, 226, 225)" opacity="1.0" stroke="rgb(160, 155, 139)" stroke-opacity="0.70694005" stroke-linecap="round" stroke-linejoin="round"/>
    <path d="M 199.04112244 12.95442200 C 198.71911621 12.76093578 198.78617859 12.73964024 198.38513184 12.53304291 C 198.16714478 12.42938423 197.93002319 12.34144402 197.64813232 12.17838097 C 197.57803345 11.96227074 197.81257629 11.86262321 197.92797852 11.60271454 C 198.17419434 11.27359295 198.22834778 11.10347557 198.36999512 10.86013031 C 198.68040466 10.82322979 198.86241150 10.94634056 199.07972717 11.08809185 C 199.50949097 11.43524837 199.40605164 11.31652546 199.66226196 11.53450394 C 199.99107361 11.79953098 200.13394165 11.89588928 200.29254150 12.11311913 C 200.41508484 12.49006462 200.41035461 12.69510269 200.37710571 12.93193150 C 200.31498718 13.24816132 200.08328247 13.46147060 199.89997864 13.42527008 C 199.54280090 13.39627838 199.33451843 13.08986282 199.04112244 12.95442200" stroke-width="0.00000000" fill="rgb(219, 226, 223)" opacity="1.0" stroke="rgb(245, 236, 194)" stroke-opacity="1.0" stroke-linecap="round" stroke-linejoin="round"/>
  </g>
</svg>
