<?xml version="1.0" ?>
<svg xmlns="http://www.w3.org/2000/svg" version="1.1" width="256" height="256" viewBox="0 0 256 256">
  <defs/>
  <g>
    <path d="M 270.98937988 183.87039185 C 262.10531616 209.38597107 238.39639282 233.40814209 207.87083435 245.79881287 C 167.88198853 253.92315674 139.19754028 246.60601807 112.90267181 241.15377808 C 85.62849426 234.13397217 55.43482208 224.49443054 23.61097717 201.28715515 C -0.49810791 185.11477661 -10.48622131 152.87136841 -12.84910583 114.01200867 C -13.58850098 78.37312317 -19.03359985 42.79162598 -11.81156921 11.70518494 C 6.74620056 -10.22006226 26.42601013 -14.01533508 52.96154785 -8.69666290 C 90.57635498 -5.90727234 124.26214600 -5.60860443 155.19329834 -5.21132660 C 183.50172424 -3.61953735 214.55873108 -8.30709076 248.86755371 -4.98964691 C 272.58276367 14.90084076 281.11239624 45.84875107 281.85577393 86.71355438 C 281.29437256 124.51759338 280.25549316 159.10319519 270.98937988 183.87039185" stroke-width="2.00000000" fill="rgb(9, 26, 66)" opacity="1.0" stroke="rgb(17, 24, 64)" stroke-opacity="0.99256307" stroke-linecap="round" stroke-linejoin="round"/>
    <path d="M 20.64519882 27.26684570 C 20.64496803 27.26678848 20.64464760 27.26676750 20.64413071 27.26683235 C 20.64377975 27.26680374 20.64331627 27.26703072 20.64306259 27.26700401 C 20.64312172 27.26671791 20.64335251 27.26622200 20.64339066 27.26595879 C 20.64358330 27.26536179 20.64375305 27.26522636 20.64393234 27.26492310 C 20.64428902 27.26451683 20.64471626 27.26439285 20.64498138 27.26433182 C 20.64573288 27.26433754 20.64554977 27.26433563 20.64597511 27.26437378 C 20.64633369 27.26431847 20.64668274 27.26472092 20.64683151 27.26503181 C 20.64700317 27.26554489 20.64699745 27.26575470 20.64700699 27.26617813 C 20.64702034 27.26642799 20.64697266 27.26689911 20.64656448 27.26703262 C 20.64599991 27.26698875 20.64581299 27.26680374 20.64519882 27.26684570" stroke-width="0.00000000" fill="rgb(255, 255, 243)" opacity="1.0" stroke="rgb(49, 0, 0)" stroke-opacity="0.0" stroke-linecap="round" stroke-linejoin="round"/>
    <path d="M 71.83843231 42.79566956 C 71.83979034 42.71134949 71.85831451 42.55599594 71.83673859 42.40826035 C 71.84121704 42.24438858 71.75370026 42.11480331 71.79911804 42.02598190 C 71.91062927 42.04037094 72.04074860 42.07968903 72.19576263 42.10340118 C 72.38867950 42.14634323 72.49947357 42.16514969 72.63717651 42.15443420 C 72.79370117 42.19056320 72.85877228 42.27310562 72.87186432 42.43450546 C 72.85221100 42.59841919 72.83721161 42.63735962 72.80165100 42.74422836 C 72.73105621 42.92864990 72.74453735 42.96594620 72.57260132 43.11096954 C 72.43383789 43.18724823 72.41492462 43.21082687 72.21233368 43.28268051 C 72.04070282 43.33700562 71.93202972 43.33419037 71.87018585 43.26795578 C 71.78376770 43.15190125 71.85267639 43.02147675 71.83843231 42.79566956" stroke-width="2.00000000" fill="rgb(57, 67, 78)" opacity="1.0" stroke="rgb(23, 10, 7)" stroke-opacity="0.301515" stroke-linecap="round" stroke-linejoin="round"/>
    <path d="M 171.44757080 33.67948532 C 171.45309448 33.67782211 171.45423889 33.67829514 171.46022034 33.67543411 C 171.46464539 33.67363358 171.46757507 33.66956329 171.47079468 33.66931915 C 171.47068787 33.67306137 171.46887207 33.67736816 171.46955872 33.68241119 C 171.46978760 33.68915558 171.47071838 33.69132996 171.47450256 33.69582367 C 171.47708130 33.70029831 171.47486877 33.70114517 171.46864319 33.70255661 C 171.46257019 33.70278931 171.46072388 33.70167160 171.45841980 33.70361328 C 171.45414734 33.70678329 171.45046997 33.70572662 171.44572449 33.70232010 C 171.44129944 33.69948578 171.44165039 33.69810104 171.43675232 33.69345093 C 171.43251038 33.68870926 171.43115234 33.68652344 171.43244934 33.68273926 C 171.43667603 33.67889404 171.44245911 33.68143082 171.44757080 33.67948532" stroke-width="0.00000000" fill="rgb(10, 32, 87)" opacity="1.0" stroke="rgb(223, 128, 144)" stroke-opacity="0.0" stroke-linecap="round" stroke-linejoin="round"/>
    <path d="M 101.87293243 27.66020203 C 101.87260437 27.66021538 101.87241364 27.66017151 101.87207794 27.66028404 C 101.87176514 27.66031837 101.87152100 27.66052437 101.87132263 27.66052628 C 101.87137604 27.66032028 101.87157440 27.66008949 101.87163544 27.65979767 C 101.87178040 27.65938377 101.87180328 27.65926361 101.87174988 27.65892029 C 101.87175751 27.65865707 101.87182617 27.65859413 101.87223816 27.65857887 C 101.87266541 27.65865517 101.87269592 27.65871620 101.87288666 27.65865707 C 101.87322998 27.65855598 101.87339783 27.65867043 101.87363434 27.65897751 C 101.87386322 27.65923691 101.87386322 27.65932274 101.87397766 27.65967369 C 101.87411499 27.65995026 101.87417603 27.66021538 101.87389374 27.66029167 C 101.87361908 27.66037369 101.87332916 27.66014481 101.87293243 27.66020203" stroke-width="1.91567993" fill="rgb(76, 11, 44)" opacity="1.0" stroke="rgb(0, 22, 250)" stroke-opacity="0.0" stroke-linecap="round" stroke-linejoin="round"/>
    <path d="M 200.07719421 12.61810493 C 200.07688904 12.61827946 200.07681274 12.61824608 200.07650757 12.61846828 C 200.07624817 12.61862469 200.07612610 12.61898422 200.07597351 12.61892223 C 200.07592773 12.61864758 200.07589722 12.61839676 200.07574463 12.61814404 C 200.07557678 12.61775970 200.07548523 12.61762524 200.07522583 12.61741638 C 200.07507324 12.61711311 200.07521057 12.61711121 200.07559204 12.61690617 C 200.07606506 12.61677361 200.07595825 12.61676598 200.07626343 12.61665821 C 200.07666016 12.61650848 200.07667542 12.61642265 200.07707214 12.61648369 C 200.07742310 12.61665821 200.07749939 12.61675167 200.07771301 12.61694241 C 200.07795715 12.61719131 200.07806396 12.61745358 200.07800293 12.61760712 C 200.07780457 12.61793995 200.07746887 12.61793137 200.07719421 12.61810493" stroke-width="0.11523438" fill="rgb(7, 12, 0)" opacity="1.0" stroke="rgb(0, 0, 0)" stroke-opacity="0.33057925" stroke-linecap="round" stroke-linejoin="round"/>
    <path d="M 282.88861084 193.25061035 C 279.32299805 209.04759216 270.62109375 234.26344299 248.60713196 257.38165283 C 229.45841980 268.42288208 204.66619873 268.44885254 170.65856934 264.38418579 C 144.89405823 264.32275391 114.85228729 262.21655273 89.54030609 264.91983032 C 57.68617249 265.21246338 32.38640594 272.58126831 8.22666931 259.98782349 C -8.85324097 240.79727173 -16.37643433 208.56878662 -20.02935791 182.75320435 C -19.21467590 151.33311462 -14.37539673 131.51411438 2.38136292 129.02319336 C 26.98794556 128.65039062 53.42789459 129.35095215 87.93815613 128.89151001 C 111.85977936 129.45996094 132.62673950 128.73503113 167.68464661 129.03744507 C 190.22117615 129.07606506 215.04895020 129.06732178 247.24406433 128.97381592 C 267.79214478 127.00331116 282.64019775 146.68292236 282.88861084 193.25061035" stroke-width="0.87718177" fill="rgb(14, 115, 204)" opacity="1.0" stroke="rgb(35, 140, 231)" stroke-opacity="0.5079221" stroke-linecap="round" stroke-linejoin="round"/>
    <path d="M 216.23738098 238.56546021 C 203.14993286 238.11952209 178.68679810 240.43389893 161.05268860 242.78863525 C 138.45272827 239.34869385 127.21347809 236.24887085 119.05889130 237.14736938 C 104.25032043 242.77386475 99.82131195 240.99093628 72.42788696 237.14471436 C 51.14482117 235.20869446 39.65062714 236.29835510 17.70500946 237.14710999 C -16.92845917 244.36981201 7.10868835 233.37777710 21.50415802 235.69381714 C 53.33935928 234.75024414 46.46408081 238.34037781 70.13233948 234.72604370 C 94.92986298 236.93392944 97.33671570 242.02264404 117.42295074 235.62141418 C 130.77539062 232.49002075 133.02722168 238.16728210 154.96569824 238.90226746 C 176.05357361 242.69798279 187.99441528 239.44300842 204.22050476 232.59547424 C 224.08026123 223.70040894 242.74444580 228.00878906 216.23738098 238.56546021" stroke-width="0.00000000" fill="rgb(190, 236, 228)" opacity="1.0" stroke="rgb(255, 255, 255)" stroke-opacity="0.0" stroke-linecap="round" stroke-linejoin="round"/>
    <path d="M 204.77139282 258.97872925 C 187.52946472 258.17309570 181.65551758 249.86795044 159.43186951 246.42889404 C 144.55368042 240.88978577 125.63356018 245.48500061 115.21429443 247.40643311 C 102.78393555 251.97552490 91.07473755 256.32925415 73.50891113 258.88119507 C 48.91067886 262.01760864 29.06848145 266.19628906 11.39652252 262.55215454 C -10.45236206 254.77484131 -5.77857208 245.79920959 19.04825592 243.95034790 C 43.20409393 246.06614685 49.89810181 250.93011475 64.62712097 244.42416382 C 87.56349945 242.50872803 90.01226044 249.90805054 107.70285797 246.85183716 C 122.08322144 243.32981873 127.97565460 243.60743713 153.18434143 244.44799805 C 173.23318481 244.84703064 190.31007385 239.93360901 210.78265381 240.99603271 C 234.77209473 239.73991394 236.45501709 261.10092163 204.77139282 258.97872925" stroke-width="0.00000000" fill="rgb(141, 222, 231)" opacity="1.0" stroke="rgb(94, 255, 255)" stroke-opacity="0.0" stroke-linecap="round" stroke-linejoin="round"/>
    <path d="M 255.78828430 255.58377075 C 249.14971924 260.92984009 237.25462341 255.97782898 223.75280762 257.96966553 C 212.80262756 258.82150269 204.88529968 258.91824341 189.97633362 260.43368530 C 175.34332275 261.02194214 165.90451050 261.63513184 155.20553589 264.18103027 C 144.07069397 259.19195557 153.61264038 251.66314697 157.18333435 236.83274841 C 159.66600037 230.56256104 165.11412048 213.70791626 168.43762207 203.80735779 C 172.37049866 191.10078430 176.90931702 184.15985107 180.81364441 185.88050842 C 192.61534119 192.38745117 202.56362915 192.32629395 215.70828247 191.78997803 C 232.12602234 189.84750366 236.43060303 188.91107178 242.97293091 197.61108398 C 257.14108276 193.79971313 258.86325073 201.73439026 257.34594727 219.40551758 C 256.64434814 228.65574646 258.66000366 246.91685486 255.78828430 255.58377075" stroke-width="0.83766615" fill="rgb(132, 67, 30)" opacity="1.0" stroke="rgb(71, 92, 121)" stroke-opacity="0.9971979" stroke-linecap="round" stroke-linejoin="round"/>
    <path d="M 225.17520142 201.84927368 C 216.26997375 204.59692383 206.35203552 203.67419434 197.91017151 203.17251587 C 187.70376587 197.61227417 192.33184814 190.23657227 191.42362976 178.65292358 C 191.70666504 167.89170837 190.93824768 160.45800781 191.37466431 149.57250977 C 191.64556885 139.14060974 191.20739746 128.21652222 190.99877930 119.76645660 C 192.39360046 106.95961761 187.86062622 98.45368958 195.90158081 96.06230927 C 208.37182617 94.98484802 211.79214478 93.99924469 221.69277954 93.28559113 C 231.98504639 96.00750732 228.39634705 106.56355286 228.89393616 117.33213806 C 229.31192017 129.12631226 229.14762878 136.09593201 228.99328613 145.66195679 C 229.48597717 160.16522217 229.19987488 160.04676819 229.17337036 174.80465698 C 227.86457825 184.45928955 232.77394104 196.78591919 225.17520142 201.84927368" stroke-width="0.34923631" fill="rgb(249, 252, 252)" opacity="1.0" stroke="rgb(255, 221, 180)" stroke-opacity="0.5370185" stroke-linecap="round" stroke-linejoin="round"/>
    <path d="M 227.29299927 99.38753510 C 223.55520630 99.28596497 223.08767700 99.09034729 218.15353394 99.29498291 C 214.08697510 99.26293945 211.69395447 99.24877167 207.73170471 99.34867859 C 203.72969055 99.36291504 201.35345459 99.25395966 197.71809387 99.37649536 C 192.84651184 99.45558929 191.21582031 99.73780823 192.34414673 94.98402405 C 192.30867004 91.41830444 190.92767334 86.58815765 193.86883545 86.04788208 C 198.05874634 85.92578125 197.87133789 86.24914551 201.44168091 86.42585754 C 205.86619568 85.82043457 207.91911316 85.67059326 211.25132751 85.75801086 C 215.65655518 86.09222412 217.82650757 86.28038025 221.37115479 86.01577759 C 226.37664795 86.22901917 229.20796204 84.84690094 228.09301758 89.62570953 C 227.39897156 94.23211670 228.78497314 97.01613617 227.29299927 99.38753510" stroke-width="0.75839955" fill="rgb(241, 72, 70)" opacity="1.0" stroke="rgb(148, 7, 0)" stroke-opacity="0.47383034" stroke-linecap="round" stroke-linejoin="round"/>
    <path d="M 218.70198059 72.77953339 C 219.10073853 74.16546631 218.06733704 75.73799896 217.68118286 78.28596497 C 216.93737793 80.59928131 217.78884888 83.09503174 216.57136536 84.37246704 C 214.95918274 85.67671967 213.23081970 86.11418915 210.97886658 86.53668213 C 208.85841370 86.85119629 207.66024780 85.59172821 205.27294922 85.33698273 C 202.05850220 84.97052002 201.48684692 84.00196838 201.31472778 81.98010254 C 201.74053955 78.13996887 202.14198303 78.87313843 201.98353577 76.68254852 C 200.32862854 74.45883179 199.87562561 72.12094116 202.27636719 71.25357056 C 204.91555786 70.79679108 204.75688171 68.84063721 206.28831482 67.44445801 C 208.67471313 67.45722961 210.64515686 69.01975250 212.44282532 69.69054413 C 213.61666870 70.24871826 216.37655640 70.65528870 218.70198059 72.77953339" stroke-width="0.67517483" fill="rgb(235, 72, 80)" opacity="1.0" stroke="rgb(255, 82, 40)" stroke-opacity="0.30129537" stroke-linecap="round" stroke-linejoin="round"/>
    <path d="M 232.67745972 29.60326767 C 236.04173279 30.98152542 231.27673340 36.05433655 229.45846558 40.27379990 C 226.53486633 45.87664032 225.56011963 49.29973602 223.12760925 53.33045959 C 219.34933472 59.51948929 218.56448364 63.42710876 216.44116211 66.75045013 C 213.36585999 70.97608185 209.64346313 70.93089294 204.62843323 68.66613007 C 201.40264893 64.68467712 200.95013428 60.70602798 197.69580078 55.75817108 C 194.78610229 47.22164154 194.38746643 49.09409332 191.90254211 43.43091583 C 190.04133606 37.47136688 187.74880981 36.48241043 186.42828369 30.25312424 C 191.17166138 29.08632278 195.52799988 30.08475876 201.33616638 29.80894089 C 205.79530334 29.86833382 208.85823059 29.89781952 216.16450500 29.69095802 C 220.10238647 29.89797592 226.01863098 29.88310051 232.67745972 29.60326767" stroke-width="0.42623642" fill="rgb(245, 180, 50)" opacity="1.0" stroke="rgb(223, 161, 27)" stroke-opacity="0.60025203" stroke-linecap="round" stroke-linejoin="round"/>
    <path d="M 204.19912720 128.77081299 C 203.79524231 128.72425842 202.61918640 128.63816833 201.06848145 128.67864990 C 199.83488464 128.84446716 199.64396667 128.40820312 200.05448914 126.76789093 C 200.11830139 125.78899384 200.04611206 124.64729309 200.04313660 123.24340820 C 200.03251648 121.76434326 200.08580017 121.15905762 199.86799622 119.70539093 C 199.88363647 118.21751404 200.73092651 118.56519318 202.18229675 118.45324707 C 203.34489441 118.44972992 203.78869629 118.38069153 204.86117554 118.30343628 C 206.20089722 117.92134094 206.35566711 118.93599701 206.25900269 120.59219360 C 206.26344299 121.59859467 206.23703003 122.09260559 206.23815918 123.62567139 C 206.27066040 125.40953827 206.19224548 125.35900879 206.29331970 127.23455811 C 206.59686279 128.70297241 206.21519470 128.92953491 204.19912720 128.77081299" stroke-width="0.57975554" fill="rgb(73, 198, 240)" opacity="1.0" stroke="rgb(95, 206, 228)" stroke-opacity="0.49415025" stroke-linecap="round" stroke-linejoin="round"/>
    <path d="M 218.36334229 126.16992188 C 218.28598022 127.53008270 218.56504822 128.33049011 217.83155823 129.00654602 C 216.92404175 129.18186951 215.62898254 128.73162842 214.55793762 128.81645203 C 213.23200989 128.77882385 212.32168579 129.38198853 212.15982056 127.80494690 C 212.20379639 126.78910828 212.31770325 125.81422424 212.35931396 124.48212433 C 212.29045105 123.49237823 212.49296570 122.41426849 212.28903198 121.03302002 C 212.38488770 120.01735687 212.18499756 119.20245361 212.53135681 118.76972198 C 213.24560547 118.44729614 214.96987915 118.81623840 215.78868103 118.80099487 C 217.54216003 118.90392303 218.19996643 118.19252777 218.45639038 119.32971954 C 218.45591736 120.43420410 218.34413147 121.20774841 218.40007019 122.61832428 C 218.34555054 124.11312866 218.29798889 124.90908813 218.36334229 126.16992188" stroke-width="0.50127369" fill="rgb(74, 200, 237)" opacity="1.0" stroke="rgb(78, 191, 215)" stroke-opacity="0.51927185" stroke-linecap="round" stroke-linejoin="round"/>
    <path d="M 200.78675842 155.26339722 C 200.08709717 155.19789124 200.19265747 153.99026489 200.19689941 152.65397644 C 200.23851013 151.40098572 200.33015442 150.62518311 200.29876709 149.43676758 C 200.37483215 148.45037842 200.10385132 147.00521851 200.03001404 146.22554016 C 199.98513794 144.74963379 201.33491516 145.13008118 202.49526978 145.05941772 C 203.63415527 145.24449158 204.85115051 144.88037109 205.73820496 145.20727539 C 206.43792725 146.02299500 206.32817078 146.36688232 206.31393433 147.49436951 C 206.29183960 148.82313538 206.12707520 149.56776428 206.11415100 150.59851074 C 205.94265747 152.12631226 206.16717529 152.76473999 206.29901123 154.01417542 C 206.78622437 155.64556885 205.68365479 155.33145142 204.35960388 155.20761108 C 203.46884155 155.18267822 202.08613586 155.42779541 200.78675842 155.26339722" stroke-width="0.57758409" fill="rgb(72, 197, 239)" opacity="1.0" stroke="rgb(84, 200, 224)" stroke-opacity="0.51764697" stroke-linecap="round" stroke-linejoin="round"/>
    <path d="M 217.97808838 144.99822998 C 218.58569336 145.77175903 218.26387024 146.04338074 218.36160278 147.82466125 C 218.34283447 148.91419983 218.39634705 149.87739563 218.41064453 151.19482422 C 218.33653259 151.94006348 218.56314087 153.59114075 218.53475952 154.60232544 C 218.56893921 156.21150208 217.26275635 155.42140198 216.05360413 155.19831848 C 215.15347290 154.99269104 213.79635620 155.75936890 212.76803589 155.70317078 C 211.98036194 154.66049194 212.10733032 154.56665039 212.22215271 153.32598877 C 212.32608032 151.89930725 212.30990601 151.02490234 212.31614685 150.07658386 C 212.41352844 148.39765930 212.24859619 147.85307312 212.22697449 146.59910583 C 211.99278259 144.91543579 213.05889893 144.79827881 214.29338074 145.11006165 C 215.18128967 145.27127075 216.54496765 144.88804626 217.97808838 144.99822998" stroke-width="0.53607881" fill="rgb(74, 197, 237)" opacity="1.0" stroke="rgb(62, 182, 207)" stroke-opacity="0.45314863" stroke-linecap="round" stroke-linejoin="round"/>
    <path d="M 204.13052368 181.23144531 C 202.86938477 181.35179138 202.08166504 181.17964172 200.98846436 181.30027771 C 199.68051147 181.09793091 200.21853638 180.20622253 200.23196411 179.17582703 C 200.35766602 177.88351440 200.31053162 177.32040405 200.28660583 175.78483582 C 200.29388428 174.66883850 200.16340637 173.42309570 200.06652832 172.41943359 C 200.07971191 171.17651367 201.03439331 171.49232483 202.52441406 171.58496094 C 203.74176025 171.63333130 204.06561279 171.46862793 205.18040466 171.47177124 C 206.36260986 171.30805969 206.64385986 171.99374390 206.40596008 173.43348694 C 206.25773621 174.75605774 206.19773865 175.47596741 206.17741394 176.58195496 C 206.13562012 177.98533630 206.07383728 178.49880981 206.09307861 179.87106323 C 206.47151184 181.47874451 205.20553589 181.23924255 204.13052368 181.23144531" stroke-width="0.77389121" fill="rgb(69, 197, 239)" opacity="1.0" stroke="rgb(59, 180, 216)" stroke-opacity="0.48954803" stroke-linecap="round" stroke-linejoin="round"/>
    <path d="M 214.48017883 171.46022034 C 215.75546265 171.41621399 216.71365356 171.56948853 217.66308594 171.40994263 C 219.11898804 171.37951660 218.60031128 172.83598328 218.59963989 173.85168457 C 218.46774292 175.40371704 218.54994202 175.93843079 218.49974060 177.27897644 C 218.39204407 178.42068481 218.49984741 179.37887573 218.46774292 180.97711182 C 218.29257202 182.18592834 217.65934753 181.76455688 215.91178894 181.53231812 C 214.71757507 181.47041321 214.25382996 181.64073181 213.28366089 181.91192627 C 212.19577026 181.98367310 212.34713745 180.90571594 212.26588440 179.48294067 C 212.32011414 178.13909912 212.37341309 177.42979431 212.38851929 176.29106140 C 212.40649414 174.79252625 212.44604492 174.45677185 212.41648865 172.81655884 C 211.96443176 171.02264404 213.41572571 171.44459534 214.48017883 171.46022034" stroke-width="0.61707371" fill="rgb(72, 195, 239)" opacity="1.0" stroke="rgb(92, 192, 204)" stroke-opacity="0.416534" stroke-linecap="round" stroke-linejoin="round"/>
    <path d="M 148.20208740 258.36853027 C 135.49528503 260.56918335 129.06773376 259.02255249 115.54322052 261.25048828 C 104.55821228 261.81033325 95.02946472 262.85449219 82.55644989 259.95489502 C 69.22496796 258.29266357 59.67239380 257.95678711 47.36063385 256.73193359 C 34.54750061 255.78340149 28.37352371 255.58714294 10.70902252 256.89862061 C -7.25030518 259.56472778 -9.40975189 252.45985413 5.32077026 248.62414551 C 20.44514084 245.79354858 24.65849686 246.00100708 31.50707245 247.80697632 C 47.01819229 251.84857178 53.35641479 248.69441223 64.85658264 247.41398621 C 82.33214569 244.51309204 83.67481995 248.90966797 95.72316742 249.82513428 C 108.32552338 250.06434631 120.13845062 246.34082031 130.76342773 246.85600281 C 147.93518066 249.45100403 155.17608643 248.76679993 148.20208740 258.36853027" stroke-width="2.00000000" fill="rgb(12, 166, 175)" opacity="1.0" stroke="rgb(255, 255, 246)" stroke-opacity="0.6200604" stroke-linecap="round" stroke-linejoin="round"/>
    <path d="M 229.21118164 204.10633850 C 224.68141174 204.04933167 223.95333862 204.02403259 218.63806152 204.00880432 C 215.51399231 203.94387817 213.09448242 203.75787354 207.84230042 203.84336853 C 204.96133423 204.00386047 200.78172302 203.95724487 197.28698730 204.08935547 C 194.16983032 203.50314331 189.32696533 204.83488464 189.19696045 203.10188293 C 190.17984009 199.42651367 187.75973511 194.63818359 192.84713745 196.25183105 C 198.92312622 196.74911499 198.58828735 196.28820801 201.83503723 196.33604431 C 206.60778809 196.15432739 208.60522461 196.19955444 211.90391541 196.42187500 C 216.60902405 196.25125122 218.97171021 196.55993652 222.63281250 196.29972839 C 228.13932800 196.79782104 229.66598511 195.14907837 231.44697571 196.78149414 C 230.81553650 199.97569275 233.11523438 205.00012207 229.21118164 204.10633850" stroke-width="0.00000000" fill="rgb(248, 217, 53)" opacity="1.0" stroke="rgb(255, 255, 164)" stroke-opacity="0.0" stroke-linecap="round" stroke-linejoin="round"/>
    <path d="M 218.51811218 74.63635254 C 218.93907166 75.55251312 218.57159424 75.89752197 218.70050049 77.55776978 C 218.67575073 78.78876495 218.83053589 79.83326721 218.80876160 81.24047852 C 218.62335205 82.07370758 218.82812500 83.64834595 218.93244934 84.67076874 C 219.16209412 86.45874023 218.47517395 86.48863983 217.01803589 86.16033936 C 216.00363159 86.13504028 214.97843933 86.62904358 213.68026733 86.22153473 C 213.13662720 84.75150299 213.32415771 84.85103607 213.45936584 83.59464264 C 213.38825989 81.78929138 213.37194824 81.50099945 213.32112122 79.92868042 C 213.37619019 78.66520691 213.35484314 78.18608856 213.25128174 76.26857758 C 212.99417114 74.79090118 213.46687317 74.35984802 214.90568542 74.53805542 C 216.83345032 74.54708862 216.95838928 74.27165985 218.51811218 74.63635254" stroke-width="0.21852243" fill="rgb(251, 252, 253)" opacity="1.0" stroke="rgb(207, 188, 183)" stroke-opacity="0.7647627" stroke-linecap="round" stroke-linejoin="round"/>
    <path d="M 204.90077209 82.44337463 C 204.86105347 83.91904449 204.91322327 83.91201782 204.87432861 85.35153198 C 204.54501343 86.33995056 203.32814026 86.06211853 202.25077820 86.07177734 C 201.08567810 86.35783386 200.48374939 86.09677124 200.76942444 84.53175354 C 200.76708984 83.62133789 200.85989380 82.45072937 200.88897705 81.40260315 C 200.78936768 80.09138489 200.94503784 79.49033356 200.67440796 78.26489258 C 200.68565369 77.12630463 200.70304871 76.69615936 200.71823120 75.82179260 C 201.16046143 74.52115631 201.84223938 74.21382141 203.14562988 74.40989685 C 204.60527039 74.78372192 204.97105408 74.68573761 204.90159607 76.16844177 C 204.88629150 76.92729950 204.83258057 77.96018982 204.91938782 79.17240143 C 204.91296387 80.48730469 204.84744263 81.16657257 204.90077209 82.44337463" stroke-width="0.60047889" fill="rgb(247, 249, 247)" opacity="1.0" stroke="rgb(200, 157, 154)" stroke-opacity="0.9147963" stroke-linecap="round" stroke-linejoin="round"/>
    <path d="M 22.14891243 23.95261383 C 21.97844124 23.66893387 21.92309380 23.55220795 21.81256676 23.23851776 C 21.81459999 23.01173592 21.75939941 22.69674110 21.81264877 22.48297691 C 22.04447556 22.33981705 22.37469292 22.38673019 22.61633301 22.39632225 C 23.01312637 22.49276924 23.14605331 22.66601372 23.36643219 22.79419136 C 23.69026184 22.88654518 23.85999680 23.16167259 23.93035889 23.37100792 C 24.09843636 23.87738609 23.98216438 23.89282799 24.28758812 24.02173424 C 24.74652290 24.06337929 24.70618820 24.49967384 24.43536758 24.70675087 C 24.08938599 24.96629715 23.89903641 24.76089859 23.59819031 24.69216919 C 23.32521439 24.70675278 23.17503738 24.67494202 22.93671608 24.43762398 C 22.65239716 24.30901718 22.57511711 24.31525612 22.14891243 23.95261383" stroke-width="0.00000000" fill="rgb(226, 225, 226)" opacity="1.0" stroke="rgb(241, 226, 182)" stroke-opacity="0.7669053" stroke-linecap="round" stroke-linejoin="round"/>
    <path d="M 98.62618256 29.96758652 C 98.63843536 29.97644424 98.66052246 29.99333572 98.68231201 30.00408173 C 98.69918823 30.01799965 98.72943115 30.02783775 98.73461914 30.04247665 C 98.73358917 30.06052780 98.72089386 30.07324791 98.70315552 30.09928322 C 98.68544006 30.11985970 98.67669678 30.13765144 98.65793610 30.15373230 C 98.63142395 30.16237068 98.60206604 30.15017891 98.59059143 30.14182281 C 98.55379486 30.10930634 98.56053162 30.11864471 98.54421997 30.10073471 C 98.52552032 30.08630943 98.50498962 30.05481339 98.50234985 30.03708076 C 98.49480438 29.99802399 98.49404907 29.99435425 98.50199890 29.96711159 C 98.50681305 29.94759750 98.53012085 29.92960167 98.55337524 29.93126678 C 98.57771301 29.92768097 98.59213257 29.94985580 98.62618256 29.96758652" stroke-width="1.95375109" fill="rgb(0, 39, 147)" opacity="1.0" stroke="rgb(0, 0, 9)" stroke-opacity="0.34318823" stroke-linecap="round" stroke-linejoin="round"/>
    <path d="M 175.74630737 35.88653946 C 175.74601746 35.88639069 175.74589539 35.88625717 175.74565125 35.88614273 C 175.74537659 35.88592148 175.74520874 35.88591003 175.74501038 35.88569260 C 175.74490356 35.88545990 175.74505615 35.88530731 175.74514771 35.88506317 C 175.74533081 35.88473892 175.74542236 35.88454437 175.74552917 35.88435745 C 175.74583435 35.88430405 175.74601746 35.88439560 175.74624634 35.88450241 C 175.74665833 35.88479614 175.74659729 35.88470840 175.74681091 35.88487625 C 175.74705505 35.88504028 175.74725342 35.88526917 175.74734497 35.88548279 C 175.74751282 35.88587952 175.74755859 35.88592529 175.74754333 35.88623047 C 175.74754333 35.88649750 175.74734497 35.88673401 175.74713135 35.88676834 C 175.74681091 35.88685226 175.74664307 35.88663483 175.74630737 35.88653946" stroke-width="0.00000000" fill="rgb(0, 0, 0)" opacity="1.0" stroke="rgb(81, 94, 133)" stroke-opacity="0.020429637" stroke-linecap="round" stroke-linejoin="round"/>
    <path d="M 71.97418213 41.35071182 C 72.08805847 41.42238998 72.48100281 41.57159042 72.78916168 41.69152069 C 73.12479401 41.75709152 73.52018738 41.73429871 73.36850739 42.14007568 C 73.18814087 42.57339478 73.32031250 42.57206345 73.63681030 43.01135635 C 73.84955597 43.37323761 74.03115082 43.59377670 73.99236298 43.92351151 C 73.62364960 44.05623627 73.13031769 43.88459778 73.01533508 43.75009155 C 72.43873596 43.37027359 72.52563477 43.39015579 72.22417450 43.23077774 C 71.81951904 43.26430511 71.53808594 43.17499161 71.21781158 42.94525146 C 70.81880951 42.64692307 70.98384094 42.51544189 70.80552673 42.16292191 C 70.68225098 41.80081177 70.63594055 41.41215134 70.85301208 41.23750305 C 71.12350464 40.97252274 71.42333984 41.22557831 71.97418213 41.35071182" stroke-width="0.00000000" fill="rgb(247, 249, 250)" opacity="1.0" stroke="rgb(202, 201, 186)" stroke-opacity="0.6218859" stroke-linecap="round" stroke-linejoin="round"/>
    <path d="M 199.96540833 12.69586182 C 200.08848572 12.78833485 200.14199829 12.86091137 200.25718689 12.93000698 C 200.37590027 13.05752468 200.45341492 13.06728935 200.59080505 13.13924122 C 200.65133667 13.21766186 200.56903076 13.32018757 200.52598572 13.46146107 C 200.46643066 13.60618401 200.44073486 13.74293709 200.38682556 13.81082439 C 200.25923157 13.79365921 200.09617615 13.73121738 200.03181458 13.67316723 C 199.82476807 13.50742054 199.87774658 13.56176853 199.76177979 13.46222496 C 199.63864136 13.36131382 199.52249146 13.26846123 199.47463989 13.19087982 C 199.40382385 13.02345753 199.37362671 12.91457558 199.37211609 12.79389763 C 199.36875916 12.66729164 199.46032715 12.54032040 199.58401489 12.52905846 C 199.72126770 12.49311543 199.82728577 12.62350273 199.96540833 12.69586182" stroke-width="1.75205994" fill="rgb(87, 103, 120)" opacity="1.0" stroke="rgb(31, 0, 0)" stroke-opacity="0.15449317" stroke-linecap="round" stroke-linejoin="round"/>
    <path d="M 100.26865387 31.65615082 C 99.97097778 31.39352608 99.92900085 31.27616692 99.63195038 31.06239700 C 99.33614349 30.86041260 98.99228668 30.88976669 98.88568878 30.75218201 C 98.92177582 30.55330658 98.88290405 30.29447365 98.82760620 29.91964722 C 98.83468628 29.55750847 98.84154510 29.23721123 98.98855591 29.07977295 C 99.35380554 29.00440216 99.69905853 29.17691040 99.82825470 29.32285881 C 100.26157379 29.76812935 100.17468262 29.71558762 100.42031097 29.88822937 C 100.81829071 29.96234894 101.06069946 30.07811165 101.28934479 30.39517403 C 101.49462891 30.74316788 101.45920563 30.74577332 101.49203491 31.22677040 C 101.49557495 31.64510536 101.37196350 31.88197136 101.15673828 31.99512100 C 100.73798370 32.14735413 100.53308105 31.85123062 100.26865387 31.65615082" stroke-width="0.00000000" fill="rgb(224, 227, 232)" opacity="1.0" stroke="rgb(175, 150, 104)" stroke-opacity="0.5069534" stroke-linecap="round" stroke-linejoin="round"/>
    <path d="M 175.97280884 36.88293839 C 175.66871643 36.72925949 175.48121643 36.59201050 175.25209045 36.45777512 C 174.89364624 36.23872375 174.60435486 36.19274902 174.61123657 35.89130402 C 174.62129211 35.63392639 174.47355652 35.40854645 174.31744385 35.10121918 C 174.18185425 34.81433105 174.01048279 34.54061508 174.13183594 34.27420044 C 174.48822021 34.13101959 174.87490845 34.22440338 174.99546814 34.34351730 C 175.45986938 34.71344376 175.36036682 34.59203339 175.59368896 34.85343170 C 175.83102417 35.13103485 176.06312561 35.38836288 176.21495056 35.55232239 C 176.53947449 35.94856262 176.59060669 35.93771744 176.84175110 36.24304199 C 177.11326599 36.62179184 177.11851501 36.88289261 176.89552307 37.02104950 C 176.53265381 37.17322159 176.23768616 36.96123123 175.97280884 36.88293839" stroke-width="0.00000000" fill="rgb(253, 253, 242)" opacity="1.0" stroke="rgb(238, 230, 217)" stroke-opacity="0.75761586" stroke-linecap="round" stroke-linejoin="round"/>
    <path d="M 199.09202576 12.74475002 C 198.78398132 12.53466415 198.83979797 12.51430130 198.45475769 12.30434513 C 198.20599365 12.18395138 198.00292969 12.09301949 197.65721130 11.95100212 C 197.47027588 11.75832272 197.71084595 11.64834690 197.84278870 11.37934685 C 198.10197449 11.05974197 198.15066528 10.87971497 198.32904053 10.68531418 C 198.66868591 10.72250175 198.79673767 10.83120251 199.03553772 11.00999737 C 199.43309021 11.38063335 199.35099792 11.25763035 199.59736633 11.48324299 C 199.92810059 11.73657703 200.08540344 11.85049820 200.22032166 12.06418228 C 200.36535645 12.45309830 200.37409973 12.65800095 200.37048340 12.89350510 C 200.35432434 13.21805763 200.14810181 13.48279190 199.90121460 13.32983875 C 199.57162476 13.21993446 199.37913513 12.90699100 199.09202576 12.74475002" stroke-width="0.00000000" fill="rgb(242, 246, 245)" opacity="1.0" stroke="rgb(208, 200, 168)" stroke-opacity="0.7788106" stroke-linecap="round" stroke-linejoin="round"/>
  </g>
</svg>
