<?xml version="1.0" ?>
<svg xmlns="http://www.w3.org/2000/svg" version="1.1" width="256" height="256" viewBox="0 0 256 256">
  <defs/>
  <g>
    <path d="M 255.80886841 215.33599854 C 265.09698486 255.51641846 237.07266235 260.73797607 197.30816650 255.76824951 C 149.40493774 254.68803406 137.25767517 255.36033630 93.81965637 256.54049683 C 70.54039001 251.13552856 13.11354828 272.02838135 -1.71539307 246.98374939 C -1.20735168 206.86006165 1.45713043 189.40600586 0.18049622 142.77186584 C 0.30839539 108.58525848 0.01847839 81.60496521 -1.24072266 40.09147644 C 2.28107452 0.57892609 23.77170563 -6.57373047 55.35511017 1.15494537 C 100.20118713 0.86318207 123.98611450 0.14361572 159.62838745 -0.36900330 C 196.08996582 3.33876801 230.05917358 -8.25321960 257.35156250 5.35382080 C 259.54016113 43.68603516 252.65312195 76.56369019 255.87940979 109.03816223 C 256.88549805 150.28451538 255.57644653 171.65985107 255.80886841 215.33599854" stroke-width="1.00000000" fill="rgb(0, 31, 63)" opacity="1.0"/>
    <path d="M 24.95870399 25.32769203 C 24.88307762 25.31217003 24.71634483 25.31912994 24.52299118 25.36964798 C 24.37726593 25.37811089 24.19232559 25.48143005 24.08015633 25.47760582 C 24.10042191 25.34537888 24.19241142 25.17651939 24.21560097 25.05072594 C 24.31816673 24.78967285 24.35376549 24.78113174 24.43684006 24.61094856 C 24.57568741 24.44549751 24.75835991 24.38870239 24.86762428 24.36581993 C 25.18130684 24.35023117 25.10700607 24.35288811 25.28695297 24.35054398 C 25.44470215 24.31433296 25.62000084 24.45895386 25.67838097 24.57786179 C 25.77460861 24.79667664 25.75561523 24.88448143 25.74604225 25.05683136 C 25.74840355 25.14928818 25.72509575 25.37299347 25.53759956 25.39442062 C 25.31912231 25.38974953 25.26382065 25.31282806 24.95870399 25.32769203" stroke-width="1.00000000" fill="rgb(255, 255, 255)" opacity="1.0"/>
    <path d="M 74.36949921 40.20444489 C 74.37828064 40.10662842 74.42071533 39.82258987 74.38507843 39.58791733 C 74.41224670 39.35549545 74.23891449 39.08079147 74.36074829 38.99787521 C 74.56162262 39.02220917 74.75852203 39.08617020 74.99649811 39.10850143 C 75.29483795 39.16684723 75.48151398 39.19471741 75.69918823 39.16893768 C 75.97367859 39.30248642 75.90971375 39.35654449 75.94844818 39.67152405 C 75.88060760 40.07793045 75.92633057 40.00283051 75.87271881 40.23506546 C 75.82884979 40.50725174 75.76770782 40.63508987 75.54483795 40.81685257 C 75.25115204 40.98924255 75.18353271 40.99595642 74.95333099 41.04612350 C 74.76000977 41.09328842 74.48172760 41.10551071 74.36174011 40.96720505 C 74.24422455 40.77948380 74.37557983 40.61037445 74.36949921 40.20444489" stroke-width="1.00000000" fill="rgb(255, 255, 255)" opacity="1.0"/>
    <path d="M 174.61558533 34.66785049 C 174.83692932 34.59181976 174.86337280 34.62126160 175.12596130 34.48626709 C 175.27496338 34.40637207 175.40713501 34.17051697 175.50250244 34.23317719 C 175.50868225 34.42567825 175.46229553 34.57586288 175.52883911 34.77102280 C 175.57098389 35.04379272 175.60966492 35.10382080 175.77645874 35.28710175 C 175.87794495 35.43495560 175.79731750 35.47798157 175.54339600 35.54224014 C 175.27423096 35.56134415 175.22822571 35.52938461 175.10054016 35.59825134 C 174.86691284 35.73078156 174.87118530 35.75083923 174.59965515 35.61626434 C 174.44079590 35.51274872 174.46984863 35.46940613 174.24731445 35.27510071 C 174.07369995 35.10992813 174.00090027 34.98626328 174.03195190 34.84283447 C 174.15238953 34.64577103 174.40350342 34.73895264 174.61558533 34.66785049" stroke-width="1.00000000" fill="rgb(255, 255, 255)" opacity="1.0"/>
    <path d="M 100.14128876 30.32429886 C 99.92821503 30.30942535 99.82382202 30.27043533 99.61024475 30.32215881 C 99.42067719 30.32628632 99.25997162 30.44621277 99.12265778 30.44620323 C 99.16796112 30.30468750 99.30497742 30.19675064 99.35852051 30.01727676 C 99.46918488 29.77174377 99.48376465 29.71413422 99.46209717 29.47855759 C 99.46363068 29.31894684 99.54298401 29.27071762 99.78337860 29.29767799 C 100.03038788 29.37356949 100.05319214 29.40852165 100.18077087 29.41369057 C 100.40982819 29.39744568 100.48674011 29.43157959 100.62761688 29.64270973 C 100.74923706 29.83051872 100.69836426 29.82188225 100.82672119 30.06801414 C 100.90568542 30.23091507 100.92187500 30.43577385 100.73435211 30.44586945 C 100.54202271 30.49173546 100.37836456 30.32000351 100.14128876 30.32429886" stroke-width="1.00000000" fill="rgb(255, 255, 255)" opacity="1.0"/>
    <path d="M 200.48930359 10.38092136 C 200.23052979 10.53755474 200.20384216 10.49230003 199.93251038 10.70960999 C 199.75669861 10.83059978 199.64379883 11.10779762 199.50582886 11.08714104 C 199.46887207 10.87262154 199.46723938 10.67559052 199.35063171 10.46449947 C 199.21496582 10.16442299 199.13317871 10.03463459 198.90748596 9.89763927 C 198.76846313 9.64083385 198.92922974 9.61411953 199.16397095 9.45352459 C 199.56936646 9.30402756 199.45812988 9.31376743 199.71279907 9.21829224 C 200.05740356 9.08875370 200.04905701 9.01120853 200.39459229 9.08527946 C 200.70915222 9.25214958 200.68803406 9.25700474 200.92933655 9.43907452 C 201.13662720 9.63828087 201.22044373 9.85555935 201.15797424 9.97471046 C 200.99359131 10.23748207 200.70870972 10.22945786 200.48930359 10.38092136" stroke-width="1.00000000" fill="rgb(255, 255, 255)" opacity="1.0"/>
    <path d="M 255.45724487 198.25749207 C 252.87374878 210.97723389 267.02645874 246.21725464 244.58615112 257.26519775 C 214.06399536 258.63430786 200.97685242 254.09231567 166.45045471 256.13983154 C 140.73081970 255.52307129 115.74270630 255.20983887 91.75810242 257.44158936 C 58.53962708 254.31866455 40.39569855 254.86425781 13.14485931 258.06671143 C -15.44416046 253.42883301 4.90398407 216.15338135 0.18449402 189.22164917 C 2.12488556 162.56404114 -5.23085785 139.76763916 13.88600922 133.06394958 C 42.27021027 125.93136597 54.47973633 128.13761902 91.80509186 127.93873596 C 116.48718262 129.14337158 129.29104614 126.62110901 166.61614990 127.72580719 C 188.99826050 129.49159241 212.63009644 127.49168396 243.42114258 126.96202850 C 269.57556152 132.39080811 250.87658691 158.80673218 255.45724487 198.25749207" stroke-width="1.00000000" fill="rgb(0, 116, 217)" opacity="1.0"/>
    <path d="M 229.09819031 238.83682251 C 215.19483948 238.05740356 202.82824707 236.14257812 177.77264404 238.31117249 C 161.18812561 237.48855591 147.69239807 238.87977600 127.16457367 237.49363708 C 108.98171997 238.03054810 98.17852020 240.46012878 75.53960419 236.95036316 C 55.49649811 234.81796265 44.97440338 237.75799561 25.84934235 241.58596802 C -11.33294678 244.88896179 8.69509888 231.79974365 24.05678558 235.75929260 C 56.55030060 236.08479309 52.64630127 238.47941589 72.99877930 236.57629395 C 97.09262848 237.59643555 106.24777985 237.74726868 126.77584076 236.21015930 C 149.94149780 236.91627502 156.38409424 239.66192627 178.26763916 236.20826721 C 199.02960205 236.97056580 211.49969482 236.63330078 229.77989197 236.43428040 C 252.37484741 236.47457886 261.54498291 239.08184814 229.09819031 238.83682251" stroke-width="1.00000000" fill="rgb(255, 255, 255)" opacity="1.0"/>
    <path d="M 212.98989868 244.54624939 C 197.53166199 244.10906982 187.25680542 243.81996155 165.82949829 244.71447754 C 152.28582764 243.11283875 134.04147339 244.03483582 119.44089508 244.55137634 C 99.60269165 245.10841370 88.31063843 243.65650940 73.42781067 242.21923828 C 47.57449341 241.91299438 45.61120605 247.30819702 17.07712555 247.03607178 C -6.20008850 244.32528687 5.16797638 241.95120239 24.86026001 243.48406982 C 52.97806549 242.91481018 54.56627655 244.78742981 70.71565247 242.45117188 C 93.64443970 243.66084290 99.71836853 243.33546448 119.30012512 242.96557617 C 142.14279175 241.19346619 148.34674072 244.66809082 168.75033569 243.43432617 C 187.46635437 244.68328857 198.47869873 242.82542419 219.24880981 242.68135071 C 240.84416199 241.69303894 239.29722595 244.63145447 212.98989868 244.54624939" stroke-width="1.00000000" fill="rgb(255, 255, 255)" opacity="1.0"/>
    <path d="M 255.24311829 254.17987061 C 249.96366882 258.03485107 237.29943848 255.18447876 225.61698914 255.90084839 C 214.45849609 255.89074707 207.50167847 255.72537231 194.23069763 256.01046753 C 182.38815308 256.54458618 173.94921875 255.60989380 161.91539001 256.07968140 C 145.43867493 259.06118774 153.20423889 249.78828430 156.46520996 236.23648071 C 159.79125977 227.74273682 164.37278748 216.79229736 167.35707092 206.53033447 C 172.42895508 196.02816772 170.15757751 184.49160767 181.61952209 189.95132446 C 196.05291748 191.47424316 204.09515381 191.98912048 213.58178711 191.99270630 C 227.87257385 192.83456421 232.70509338 193.60147095 246.12129211 194.63174438 C 259.45654297 197.19451904 256.26220703 210.46925354 256.38308716 220.73623657 C 255.65470886 234.92036438 256.05108643 239.98123169 255.24311829 254.17987061" stroke-width="1.00000000" fill="rgb(139, 69, 19)" opacity="1.0"/>
    <path d="M 224.62428284 199.72384644 C 215.35485840 200.74359131 206.76779175 199.78845215 197.80651855 200.27026367 C 185.94218445 197.43038940 189.76806641 191.97720337 190.02647400 179.69042969 C 190.50177002 169.83689880 189.84114075 161.38110352 189.94290161 151.21127319 C 190.23010254 141.07336426 189.83598328 131.07504272 189.44512939 123.07392883 C 191.04171753 110.29260254 187.93064880 103.08853149 195.59130859 99.93914032 C 207.78630066 99.41793823 211.47044373 100.36729431 220.58598328 100.10140991 C 232.77020264 100.44692993 230.37023926 110.31948853 229.85557556 121.07087708 C 230.01330566 131.78308105 229.94810486 138.50303650 229.80740356 148.27375793 C 230.49417114 161.15481567 229.99237061 164.74391174 229.96829224 176.34893799 C 228.95870972 184.37863159 234.32138062 199.00915527 224.62428284 199.72384644" stroke-width="1.00000000" fill="rgb(255, 255, 255)" opacity="1.0"/>
    <path d="M 228.60145569 99.96681213 C 225.85250854 100.03318787 223.26580811 99.81330872 219.19775391 100.21389771 C 214.88197327 100.11325836 212.93992615 100.02955627 208.88592529 99.94497681 C 204.89215088 99.89450073 202.33268738 99.82249451 198.61320496 100.06111908 C 195.52478027 99.84931946 191.28054810 101.12474823 190.30195618 98.49722290 C 191.72653198 95.30335999 192.31752014 92.77422333 193.82714844 88.64199829 C 196.26168823 85.94340515 197.16728210 85.16174316 200.52737427 85.04721832 C 204.70022583 84.81915283 207.51806641 85.20643616 210.68002319 84.97985840 C 215.75534058 85.35493469 216.84922791 84.68060303 221.30171204 84.51931763 C 225.86788940 84.14186096 226.23840332 87.87371063 226.81494141 91.06365967 C 227.67500305 94.16754913 230.90901184 98.29563904 228.60145569 99.96681213" stroke-width="1.00000000" fill="rgb(255, 65, 54)" opacity="1.0"/>
    <path d="M 218.21000671 73.92299652 C 219.39282227 76.02857208 219.40917969 76.10200500 220.00692749 79.63081360 C 220.00541687 81.44635010 219.86038208 83.44472504 218.36965942 85.68112183 C 216.94105530 87.33763885 216.21650696 88.09021759 213.46855164 89.29067993 C 211.31983948 89.87824249 210.01812744 90.30876160 207.37583923 89.80032349 C 205.03721619 88.98458099 203.32397461 87.46682739 202.41006470 85.98755646 C 200.74914551 82.65283203 201.03359985 83.64590454 200.44407654 80.95502472 C 200.22167969 78.26167297 200.38368225 76.86443329 201.48789978 74.65751648 C 203.05313110 72.61573792 204.17129517 71.61628723 206.00288391 70.76844788 C 208.59164429 69.94873047 210.22608948 69.94135284 212.36465454 70.12825775 C 215.31278992 71.05144501 215.96231079 71.31253052 218.21000671 73.92299652" stroke-width="1.00000000" fill="rgb(221, 221, 221)" opacity="1.0"/>
    <path d="M 232.45158386 29.08025169 C 234.93775940 32.97745514 231.90554810 37.00977325 229.11285400 41.43346024 C 226.00938416 47.66003036 224.75004578 51.21831131 222.05325317 55.78509140 C 219.18933105 61.23704529 216.98413086 66.35516357 214.77394104 70.40330505 C 211.40699768 77.63433075 210.45967102 81.71730042 207.38621521 75.17690277 C 204.56190491 69.55828857 203.37115479 65.67857361 199.88198853 60.33591080 C 196.25718689 50.41764450 196.19346619 52.83493423 193.18569946 46.55269241 C 190.10804749 38.77846146 188.53504944 39.32416534 185.22868347 30.94413376 C 188.39971924 27.84673500 193.45161438 31.15257645 199.72467041 30.11220932 C 205.27359009 29.46879578 210.43531799 30.23840141 215.77218628 29.96605110 C 220.88439941 30.94192886 226.80654907 29.46375275 232.45158386 29.08025169" stroke-width="1.00000000" fill="rgb(255, 220, 0)" opacity="1.0"/>
    <path d="M 204.74121094 130.16413879 C 204.40887451 130.16683960 203.22888184 130.13450623 201.60279846 130.08592224 C 200.46897888 130.02375793 199.64314270 129.77220154 199.93183899 128.22210693 C 200.03887939 127.11798096 200.01190186 125.92110443 200.03698730 124.62881470 C 200.08412170 123.29322815 199.97940063 122.07273102 199.79769897 121.11498260 C 199.91700745 119.69359589 201.04411316 119.89084625 202.41398621 120.02604675 C 203.81561279 120.12571716 204.47537231 119.93708801 205.40774536 120.08782959 C 206.87033081 120.15366364 207.74488831 120.11907959 207.53031921 121.79187775 C 207.50921631 123.31565094 207.39869690 123.85282135 207.47427368 125.11313629 C 207.47808838 126.70318604 207.61656189 127.25273895 207.66516113 128.74998474 C 207.51950073 130.33155823 206.59680176 129.90814209 204.74121094 130.16413879" stroke-width="1.00000000" fill="rgb(127, 219, 255)" opacity="1.0"/>
    <path d="M 220.03764343 127.33010864 C 220.08351135 128.50498962 220.19969177 129.78981018 219.13525391 129.98950195 C 218.12286377 130.24560547 216.96955872 129.94203186 215.71467590 130.00703430 C 214.54875183 129.92967224 213.48908997 130.26451111 212.82644653 129.36636353 C 212.30004883 128.51583862 212.40187073 127.33228302 212.42303467 126.06809998 C 212.52075195 125.07759857 212.54771423 124.11385345 212.38404846 122.61907196 C 212.61711121 121.41676331 212.46499634 120.89544678 213.27281189 120.41250610 C 214.29220581 119.84194946 215.83010864 119.98072815 216.59408569 119.91498566 C 218.33195496 120.00908661 219.12004089 119.69216156 219.76734924 120.34033966 C 220.26071167 121.17928314 219.91673279 122.58359528 220.01277161 123.72986603 C 219.98281860 125.18952942 219.94198608 126.00872803 220.03764343 127.33010864" stroke-width="1.00000000" fill="rgb(127, 219, 255)" opacity="1.0"/>
    <path d="M 200.93577576 155.02119446 C 200.30532837 154.98722839 199.81738281 154.16152954 199.88284302 152.73306274 C 199.90415955 151.56132507 199.97250366 150.42250061 199.92959595 149.26597595 C 200.02729797 148.07748413 199.88018799 146.84083557 200.15495300 145.98156738 C 200.51181030 145.14216614 201.73939514 144.89086914 202.96636963 144.62687683 C 204.24670410 144.66224670 205.22612000 144.64199829 206.28674316 145.04710388 C 207.24990845 145.76264954 207.26821899 146.23194885 207.33744812 147.32081604 C 207.43798828 148.67025757 207.48271179 149.21109009 207.54263306 150.74287415 C 207.47755432 151.61343384 207.70980835 152.98527527 207.47634888 154.20729065 C 206.67022705 155.27674866 206.48332214 154.77081299 204.73852539 155.08766174 C 203.73254395 155.08296204 202.80506897 155.21025085 200.93577576 155.02119446" stroke-width="1.00000000" fill="rgb(127, 219, 255)" opacity="1.0"/>
    <path d="M 218.83639526 144.91084290 C 219.83889771 145.46511841 219.98077393 145.45269775 220.15026855 147.25080872 C 220.17285156 148.43124390 220.09274292 149.01390076 220.04689026 150.56503296 C 220.00489807 151.56114197 220.12731934 152.52311707 219.67163086 153.91957092 C 219.18211365 154.73245239 218.64962769 155.22721863 217.14358521 155.58967590 C 216.29202271 155.63822937 214.94322205 155.63157654 213.86277771 154.97830200 C 213.06414795 154.18246460 212.71556091 153.88377380 212.63580322 152.77740479 C 212.53912354 151.44285583 212.54722595 151.00468445 212.38175964 149.37220764 C 212.41139221 148.28375244 212.15599060 147.65493774 212.35585022 146.06764221 C 213.15608215 144.82916260 213.53904724 145.17729187 215.03527832 144.84671021 C 216.63270569 144.78404236 216.65930176 144.66619873 218.83639526 144.91084290" stroke-width="1.00000000" fill="rgb(127, 219, 255)" opacity="1.0"/>
    <path d="M 204.85821533 180.14486694 C 203.43257141 180.22161865 202.94631958 180.07920837 201.32774353 179.99609375 C 199.89241028 179.70553589 199.88429260 179.51594543 199.99029541 177.96867371 C 200.10821533 176.81066895 199.99981689 175.85890198 200.00660706 174.33454895 C 200.02239990 173.13125610 199.86689758 171.77752686 199.85774231 170.79063416 C 200.07725525 169.65332031 201.27276611 169.89978027 202.79519653 170.03387451 C 204.04866028 170.14356995 204.63475037 169.87684631 205.75027466 170.07702637 C 207.13336182 170.26585388 207.76716614 170.49534607 207.50526428 172.05009460 C 207.52632141 173.57086182 207.44314575 174.27812195 207.49028015 175.46026611 C 207.46469116 176.88977051 207.55419922 177.76567078 207.64686584 178.87565613 C 207.30166626 180.02699280 206.32241821 180.02267456 204.85821533 180.14486694" stroke-width="1.00000000" fill="rgb(127, 219, 255)" opacity="1.0"/>
    <path d="M 215.22918701 169.90074158 C 216.53637695 169.87005615 217.45945740 170.01223755 218.64674377 169.98162842 C 220.36535645 170.04072571 220.02890015 170.91850281 220.02723694 171.92439270 C 219.93754578 173.81066895 219.98992920 174.10762024 220.00881958 175.69914246 C 219.86819458 177.07083130 220.10614014 177.79219055 220.15296936 179.39833069 C 219.31124878 180.30386353 218.62591553 180.03259277 217.29064941 179.96286011 C 215.24244690 179.84596252 215.72259521 180.02203369 214.24304199 179.85920715 C 212.86054993 179.62129211 212.25535583 179.40972900 212.45426941 177.86347961 C 212.51205444 176.31437683 212.58030701 175.60412598 212.51765442 174.40844727 C 212.51089478 172.94021606 212.47247314 172.17515564 212.32971191 170.89291382 C 212.37432861 169.65090942 213.88407898 170.08190918 215.22918701 169.90074158" stroke-width="1.00000000" fill="rgb(127, 219, 255)" opacity="1.0"/>
    <path d="M 147.41261292 255.25933838 C 138.96856689 256.71206665 129.31541443 254.52626038 116.17730713 254.11102295 C 105.55317688 254.30490112 98.29237366 254.67695618 86.40093994 253.24462891 C 72.45114899 253.01002502 70.14029694 253.34544373 54.63269806 252.56582642 C 43.51312637 252.05145264 38.34859848 251.72463989 22.24355698 251.56414795 C 9.86006165 253.07420349 -1.35458374 251.65472412 6.54367828 248.71531677 C 24.93383789 245.89878845 24.82550049 247.94197083 33.77663040 248.09503174 C 49.03412628 249.30125427 56.25127792 248.46485901 66.13858795 247.95448303 C 79.38286591 245.74554443 83.81427002 248.20617676 96.70115662 249.42640686 C 108.12291718 250.04862976 118.19627380 247.48075867 127.21472168 247.44848633 C 140.39215088 246.80720520 149.01026917 246.87063599 147.41261292 255.25933838" stroke-width="1.00000000" fill="rgb(11, 168, 176)" opacity="1.0"/>
    <path d="M 227.97592163 204.36883545 C 223.26708984 204.25967407 223.97413635 204.17459106 218.44960022 204.31381226 C 215.00599670 204.30836487 212.55757141 204.15658569 208.20057678 204.23965454 C 204.84861755 204.33862305 201.53045654 204.12915039 198.08230591 204.35603333 C 194.22784424 203.80773926 191.42208862 205.45152283 188.77534485 202.93595886 C 188.24453735 199.73266602 188.34420776 195.06530762 193.46977234 196.21505737 C 198.00616455 196.39294434 198.43414307 196.23883057 201.61753845 196.21949768 C 206.24555969 196.17788696 208.63885498 196.40933228 211.87678528 196.19917297 C 215.24804688 195.92510986 218.77169800 196.41192627 222.22019958 196.20016479 C 225.52114868 196.27197266 229.51708984 194.14231873 231.22909546 196.90415955 C 231.48710632 200.26116943 232.62403870 204.25354004 227.97592163 204.36883545" stroke-width="1.00000000" fill="rgb(250, 215, 49)" opacity="1.0"/>
    <path d="M 218.49299622 74.38570404 C 219.01679993 75.45232391 218.71240234 75.47823334 218.77891541 77.45417786 C 218.69662476 78.54946136 218.78179932 79.35501862 218.77433777 80.88306427 C 218.73088074 82.30048370 218.78355408 82.80363464 218.71009827 84.46330261 C 218.37797546 85.46501160 218.00019836 86.17144775 216.68008423 86.58604431 C 215.06645203 86.60924530 214.31613159 86.27716064 213.68373108 85.58011627 C 212.71401978 83.70516205 212.96780396 84.20079041 212.79792786 82.73011017 C 212.75648499 81.35268402 212.77540588 80.52517700 212.67431641 79.26901245 C 212.74591064 77.74221039 212.64797974 76.99395752 212.58505249 75.70170593 C 212.60691833 74.22476196 213.85346985 74.31169128 215.03260803 74.17906952 C 216.25842285 74.13301086 217.37287903 73.93516541 218.49299622 74.38570404" stroke-width="1.00000000" fill="rgb(251, 251, 250)" opacity="1.0"/>
    <path d="M 205.28225708 81.93105316 C 205.29916382 83.17006683 205.42228699 84.10520935 205.26187134 84.96095276 C 204.96572876 86.09812927 203.63294983 86.11962128 202.54957581 85.91886902 C 201.27346802 85.87827301 200.54766846 85.58692169 200.40222168 84.48116302 C 200.04757690 83.25497437 200.26081848 82.28839874 200.26271057 81.22116089 C 200.13136292 80.12648010 200.22140503 79.42177582 200.17652893 77.99011230 C 200.34295654 76.55461121 200.29620361 76.44940186 200.28836060 75.40466309 C 200.44099426 74.08358002 201.74691772 73.53297424 202.56472778 73.71710968 C 204.09741211 73.81443787 204.69126892 73.93946838 204.84141541 75.28782654 C 205.10639954 76.32656097 205.05322266 76.99931335 205.22467041 78.40066528 C 205.26873779 79.81233215 205.21340942 80.39170074 205.28225708 81.93105316" stroke-width="1.00000000" fill="rgb(249, 250, 249)" opacity="1.0"/>
    <path d="M 21.16782379 24.33358574 C 20.91657639 23.72494125 20.96191978 23.67409706 20.69809914 22.96544456 C 20.72080994 22.53949165 20.45402908 21.89005470 20.70139885 21.44368744 C 21.31680870 21.15592194 21.35447884 21.26306152 22.12427521 21.22459984 C 22.67222404 21.21928787 23.24057007 21.48601913 23.50093079 21.72662735 C 23.96574020 22.00528908 24.38771248 22.38878250 24.59622192 22.74585724 C 25.03967667 23.62903404 24.91784859 23.47734261 25.17234993 23.94089317 C 25.44531631 24.23424530 25.15298271 25.01893234 24.90319824 25.36203003 C 24.42564774 25.81538200 24.13710785 25.69710350 23.50121117 25.74147415 C 23.13426208 25.81418610 22.65326500 25.81884003 22.20124817 25.52227974 C 21.75015450 25.25274658 21.62321472 24.94024658 21.16782379 24.33358574" stroke-width="1.00000000" fill="rgb(8, 16, 40)" opacity="1.0"/>
    <path d="M 99.28082275 31.97987938 C 99.13259888 31.86219597 98.68203735 31.55767441 98.17983246 31.28722191 C 97.91539001 30.99841690 97.32130432 30.78328514 97.20880890 30.35021400 C 97.27279663 29.83994484 97.36502838 29.80529594 97.74442291 29.16659737 C 98.21046448 28.62869644 98.22682190 28.53702736 98.73252869 28.13110161 C 99.33390808 28.02704811 99.90148163 28.21176910 100.15983582 28.35434914 C 100.93866730 28.97039032 100.78574371 28.77589417 101.13272095 29.16824913 C 101.39149475 29.58069611 101.75570679 30.19905281 101.91096497 30.50076675 C 102.16213226 31.20383644 102.19031525 31.38319206 101.88823700 31.85857773 C 101.73313141 32.18078613 101.28227997 32.62636185 100.81813049 32.65781784 C 100.31294250 32.66954041 100.09777832 32.36587143 99.28082275 31.97987938" stroke-width="1.00000000" fill="rgb(14, 25, 55)" opacity="1.0"/>
    <path d="M 175.29129028 33.51715088 C 175.85673523 33.83637238 175.88911438 33.98426819 176.47341919 34.31434631 C 176.89947510 34.70206070 177.19096375 34.81750107 177.51870728 35.30247498 C 177.70231628 35.82718277 177.53941345 36.02532196 177.33866882 36.45973587 C 176.98707581 37.05815125 176.81188965 37.36030197 176.54879761 37.72448349 C 175.90501404 37.80889511 175.75627136 37.67252731 175.20935059 37.46271896 C 174.46298218 36.94414902 174.56413269 37.10540390 174.18981934 36.76308441 C 173.82252502 36.34388733 173.58914185 35.94311523 173.34176636 35.52165222 C 172.98832703 34.81478119 172.85105896 34.73936844 172.95410156 34.17953110 C 172.98933411 33.67359924 173.41412354 33.21805573 173.75689697 33.12289810 C 174.38569641 32.94744110 174.70993042 33.35227585 175.29129028 33.51715088" stroke-width="1.00000000" fill="rgb(4, 10, 39)" opacity="1.0"/>
    <path d="M 71.98838806 40.42731476 C 72.18589783 40.53515244 72.60414124 40.72326279 73.13655090 40.92024994 C 73.42733002 41.14958954 73.92012024 41.35733414 74.10527802 41.77793121 C 74.24424744 42.18478012 74.20903778 42.30337143 74.03238678 42.99221420 C 73.83150482 43.45945358 73.72708130 43.86330032 73.55967712 44.22152328 C 73.13030243 44.46803284 72.55832672 44.31327820 72.24449921 44.17157364 C 71.44569397 43.62588501 71.60178375 43.78295898 71.23626709 43.46332932 C 70.94411469 43.19334412 70.45185089 42.77323151 70.22572327 42.46155167 C 69.80844879 41.94256210 69.77975464 41.83343887 69.86119080 41.29713821 C 69.86495972 40.90993881 70.10884094 40.43401337 70.46926880 40.20645523 C 70.93274689 40.05179977 71.15080261 40.30104828 71.98838806 40.42731476" stroke-width="1.00000000" fill="rgb(9, 14, 34)" opacity="1.0"/>
    <path d="M 198.96003723 10.14000416 C 199.47760010 10.46175861 199.43777466 10.55986118 200.03265381 10.86645317 C 200.39582825 11.12891293 200.71743774 11.27140522 201.12644958 11.61858749 C 201.24739075 12.02645779 200.96031189 12.22292709 200.79963684 12.63899422 C 200.50767517 13.18882179 200.35586548 13.54379368 200.16233826 13.91179466 C 199.62756348 14.01358223 199.30317688 13.84193993 198.94256592 13.66643047 C 198.18009949 13.17094612 198.36231995 13.35081005 197.93357849 13.01542282 C 197.43513489 12.60388184 197.18707275 12.36936092 196.99020386 11.98347187 C 196.79931641 11.24091148 196.76234436 11.26651096 196.77250671 10.66413021 C 196.87336731 10.11315441 197.24736023 9.74748993 197.53015137 9.70322990 C 198.11163330 9.53708172 198.47477722 9.96809006 198.96003723 10.14000416" stroke-width="1.00000000" fill="rgb(5, 13, 43)" opacity="1.0"/>
    <path d="M 99.83914185 31.92347908 C 99.56694031 31.77885056 99.12429810 31.52070045 98.73358917 31.37168312 C 98.35708618 31.14105797 97.78633881 31.04962158 97.76213074 30.68459129 C 97.69589996 30.30498123 97.73800659 29.98144722 97.89152527 29.49654770 C 98.09054565 28.99913788 98.25011444 28.64585114 98.43093109 28.29284477 C 98.86789703 28.05846786 99.31180573 28.24267197 99.60127258 28.35534859 C 100.33580017 28.84328461 100.21945953 28.70837784 100.58691406 28.94571877 C 101.03416443 29.16084099 101.31826782 29.52247047 101.50479889 29.97200012 C 101.70159912 30.52265739 101.74617767 30.51390839 101.76541138 31.20500183 C 101.76229858 31.65131378 101.51390839 32.07204437 101.21630096 32.21796799 C 100.79294586 32.51852417 100.50555420 32.12339020 99.83914185 31.92347908" stroke-width="1.00000000" fill="rgb(7, 13, 34)" opacity="1.0"/>
    <path d="M 175.50602722 37.06703568 C 175.05639648 36.83370972 174.80628967 36.64758682 174.40048218 36.47934341 C 173.91633606 36.14106369 173.66114807 36.15349579 173.32423401 35.80012894 C 173.18278503 35.39468002 173.28344727 35.09004211 173.35064697 34.66398621 C 173.47894287 34.12640762 173.57298279 33.72351837 173.73666382 33.34430695 C 174.21215820 33.14831543 174.52598572 33.36735153 174.88442993 33.52493668 C 175.59489441 34.00052643 175.43476868 33.83182526 175.85272217 34.13660049 C 176.32786560 34.46606827 176.62484741 34.71395111 176.85673523 35.04261017 C 177.14512634 35.64379120 177.20561218 35.85118103 177.27178955 36.26643372 C 177.32052612 36.78258514 177.14343262 37.28278732 176.89436340 37.36493301 C 176.39669800 37.52910614 176.00382996 37.16539383 175.50602722 37.06703568" stroke-width="1.00000000" fill="rgb(11, 17, 39)" opacity="1.0"/>
    <path d="M 198.83232117 13.21445179 C 198.40690613 12.91538620 198.50128174 12.88662243 197.96118164 12.56840897 C 197.69514465 12.39720917 197.33813477 12.23655796 197.05322266 11.93997860 C 197.06889343 11.57049847 197.29125977 11.49188042 197.49398804 11.11661243 C 197.82003784 10.68231010 197.92095947 10.47341919 198.12138367 10.12429428 C 198.53677368 10.02179146 198.84739685 10.23234749 199.08503723 10.40262985 C 199.67234802 10.89965820 199.51951599 10.73502445 199.86366272 11.06359386 C 200.30255127 11.51122379 200.41175842 11.55573177 200.60121155 11.96125507 C 200.68959045 12.55252075 200.69154358 12.68782902 200.64315796 13.08930397 C 200.52941895 13.56288624 200.20663452 13.84486103 199.99209595 13.82711411 C 199.49002075 13.81471062 199.22444153 13.39558792 198.83232117 13.21445179" stroke-width="1.00000000" fill="rgb(118, 125, 143)" opacity="1.0"/>
  </g>
</svg>
