<?xml version="1.0" ?>
<svg xmlns="http://www.w3.org/2000/svg" version="1.1" width="256" height="256" viewBox="0 0 256 256">
  <defs/>
  <g>
    <path d="M 274.56396484 215.31417847 C 269.31427002 255.07420349 245.07644653 262.05587769 204.49539185 261.96609497 C 171.53218079 263.12103271 140.25074768 262.61724854 97.58297729 263.61572266 C 52.89144897 261.14443970 20.66416931 270.68807983 -0.29759216 252.54888916 C -8.75660706 224.21932983 -3.37052917 187.68112183 -6.73483276 145.45060730 C -6.65176392 111.56018066 -7.49052429 74.86684418 -8.92941284 36.29894257 C -4.48631287 2.01353455 14.18902588 -13.00769806 47.77471161 -5.66960907 C 84.02188110 -5.07010651 113.54231262 -6.74633026 153.18258667 -5.23316193 C 196.51104736 -3.18489838 229.75347900 -13.65309906 257.78320312 -0.92246246 C 272.33489990 34.67907715 264.36358643 69.65714264 265.48486328 98.39337158 C 271.86196899 136.63899231 276.04003906 183.64807129 274.56396484 215.31417847" stroke-width="0.65183651" fill="rgb(207, 243, 255)" opacity="1.0" stroke="rgb(180, 254, 255)" stroke-opacity="0.12020666" stroke-linecap="round" stroke-linejoin="round"/>
    <path d="M 124.34121704 239.24142456 C 124.02185822 234.99880981 124.02668762 231.83502197 123.78162384 225.32514954 C 123.54939270 220.24336243 123.53038788 215.40063477 123.50789642 208.89509583 C 123.24694061 202.72613525 123.04875946 199.38140869 123.23976898 193.32388306 C 124.25933838 186.16471863 124.90016174 183.08117676 125.02016449 177.16519165 C 123.91186523 170.50067139 129.16897583 166.77157593 130.82032776 173.04515076 C 131.89640808 182.60520935 131.46984863 181.74116516 130.98303223 186.83201599 C 129.53735352 193.43283081 130.05392456 197.68492126 129.91108704 202.79048157 C 129.83296204 209.49827576 130.25238037 213.10525513 130.33155823 218.76078796 C 130.38960266 224.43196106 131.16239929 229.57287598 130.88885498 235.16146851 C 131.70304871 240.18997192 127.40788269 247.90493774 124.34121704 239.24142456" stroke-width="0.81777364" fill="rgb(134, 195, 76)" opacity="1.0" stroke="rgb(133, 183, 83)" stroke-opacity="0.40995613" stroke-linecap="round" stroke-linejoin="round"/>
    <path d="M 136.97471619 110.34070587 C 136.46730042 115.34798431 135.74833679 122.34717560 134.25045776 125.78826904 C 132.25758362 131.88023376 127.04775238 135.04934692 123.27503967 129.31632996 C 119.98997498 124.48737335 118.96698761 119.07610321 119.10285187 113.32101440 C 118.55249023 108.04520416 118.94850159 103.61404419 118.42169189 97.08702850 C 118.20911407 91.86213684 118.13409424 87.56385803 118.30987549 79.97863007 C 118.74408722 74.44334412 118.10173035 72.59446716 120.33627319 66.88990784 C 124.55098724 61.07447433 127.79803467 57.35565186 131.81596375 62.91030884 C 134.56077576 66.39273071 136.44764709 71.60330200 136.85916138 77.77561951 C 137.34786987 82.88314056 137.53424072 88.16983795 137.42419434 93.82949829 C 137.44845581 100.43095398 137.38745117 103.86750793 136.97471619 110.34070587" stroke-width="0.97971058" fill="rgb(249, 255, 255)" opacity="1.0" stroke="rgb(88, 106, 60)" stroke-opacity="0.6740513" stroke-linecap="round" stroke-linejoin="round"/>
    <path d="M 151.73898315 103.10067749 C 149.04676819 107.35459900 146.01565552 112.15966797 143.73414612 116.14372253 C 140.56135559 121.42849731 138.23332214 125.36566162 134.49842834 128.91223145 C 129.89048767 132.69210815 124.50164032 135.01867676 123.42007446 127.18595886 C 123.46809387 122.33001709 124.52245331 118.77985382 126.91388702 112.36087036 C 129.29769897 106.93157959 132.47799683 103.71121979 135.45733643 97.80841827 C 138.36912537 93.15573120 137.97242737 89.85504150 140.72796631 85.67221069 C 144.70225525 79.84923553 146.33737183 76.57395172 150.94909668 72.84494019 C 155.57962036 69.48460388 160.57913208 66.04100800 162.29829407 73.08982849 C 162.91792297 80.43929291 161.69349670 83.55934143 159.78353882 88.61699677 C 157.07174683 94.76242828 155.77426147 96.52091980 151.73898315 103.10067749" stroke-width="1.68843913" fill="rgb(252, 255, 255)" opacity="1.0" stroke="rgb(49, 144, 128)" stroke-opacity="0.46880668" stroke-linecap="round" stroke-linejoin="round"/>
    <path d="M 179.36773682 106.71392059 C 174.80078125 110.64865112 174.10716248 110.82778168 167.80566406 115.45895386 C 163.10189819 118.45541382 161.45411682 119.54345703 154.32679749 123.48801422 C 150.17550659 125.57958984 146.96087646 127.16155243 140.52130127 129.78253174 C 136.85531616 131.29777527 129.93402100 133.69174194 125.13876343 129.93186951 C 122.82773590 126.00316620 126.11668396 122.34556580 131.39610291 117.52592468 C 135.45791626 113.78170013 136.58271790 112.55346680 141.74311829 109.28481293 C 147.01248169 106.33432007 149.43168640 104.46334839 154.29940796 101.01485443 C 160.13168335 97.57338715 162.08364868 95.92631531 168.42074585 93.13920593 C 174.71789551 92.32102966 177.09144592 90.73751831 183.83383179 92.86808777 C 186.80772400 96.10014343 182.95692444 104.11713409 179.36773682 106.71392059" stroke-width="1.63168657" fill="rgb(252, 255, 254)" opacity="1.0" stroke="rgb(56, 153, 129)" stroke-opacity="0.40190396" stroke-linecap="round" stroke-linejoin="round"/>
    <path d="M 187.77674866 133.29943848 C 182.48417664 135.88256836 178.73484802 137.03364563 173.58386230 136.86968994 C 167.52967834 137.03533936 162.88749695 137.37124634 157.64694214 137.10447693 C 150.63571167 137.37614441 148.81939697 137.23640442 143.26287842 137.42271423 C 136.48193359 136.78961182 131.58251953 136.12472534 126.73382568 134.29292297 C 121.19381714 131.26324463 123.85789490 125.92569733 130.73728943 123.78762054 C 136.07144165 122.24523926 138.00704956 121.25061798 143.09757996 120.64457703 C 149.64056396 119.55594635 152.63665771 119.74829102 158.31495667 118.98532867 C 163.51359558 118.50211334 169.25949097 117.64163971 174.22013855 117.77189636 C 179.36138916 117.90946198 184.40701294 119.31195068 189.39228821 121.87069702 C 195.34419250 124.35469055 193.46499634 131.53604126 187.77674866 133.29943848" stroke-width="1.64193189" fill="rgb(254, 255, 255)" opacity="1.0" stroke="rgb(75, 160, 141)" stroke-opacity="0.4545017" stroke-linecap="round" stroke-linejoin="round"/>
    <path d="M 179.85562134 162.51467896 C 173.76469421 162.10162354 169.71649170 161.79797363 165.44943237 160.18199158 C 159.78697205 157.94462585 157.04777527 155.78540039 151.77658081 152.46594238 C 145.98370361 149.60986328 143.73681641 148.21289062 138.98309326 145.10183716 C 133.84094238 141.61216736 131.33992004 139.87278748 126.38100433 134.77969360 C 123.06649780 130.32034302 124.41595459 125.99438477 130.58178711 125.11811829 C 137.58561707 125.89331818 138.19761658 126.65888214 143.42144775 128.64556885 C 149.88969421 131.08706665 151.70025635 132.65919495 157.03883362 135.22105408 C 161.46043396 137.38302612 167.14439392 139.63932800 171.13142395 141.74263000 C 176.13687134 144.26622009 179.57379150 147.46458435 182.41131592 151.78456116 C 186.56565857 156.34649658 186.37799072 163.45773315 179.85562134 162.51467896" stroke-width="1.67613697" fill="rgb(251, 254, 253)" opacity="1.0" stroke="rgb(48, 136, 116)" stroke-opacity="0.40881675" stroke-linecap="round" stroke-linejoin="round"/>
    <path d="M 161.61682129 171.37713623 C 162.45881653 176.28868103 163.53097534 181.13597107 160.60014343 184.73999023 C 156.89624023 186.51492310 151.56861877 182.03422546 147.82954407 178.45352173 C 144.29466248 174.38978577 141.73220825 170.31849670 138.85588074 165.48165894 C 135.40460205 160.01110840 133.88955688 156.31634521 131.45101929 151.82862854 C 129.26112366 147.48739624 127.95516968 143.76507568 124.97898102 137.20684814 C 124.07355499 131.95190430 122.73486328 129.29241943 125.65565491 125.28762817 C 132.40576172 123.49420929 134.64709473 127.50453186 138.03680420 131.00521851 C 142.17590332 135.45872498 143.73941040 139.30279541 146.46128845 144.22241211 C 149.74232483 149.14451599 151.95527649 152.41003418 155.09226990 156.90911865 C 158.40579224 162.23979187 159.53457642 163.74903870 161.61682129 171.37713623" stroke-width="1.46370792" fill="rgb(255, 255, 255)" opacity="1.0" stroke="rgb(35, 130, 111)" stroke-opacity="0.44325873" stroke-linecap="round" stroke-linejoin="round"/>
    <path d="M 136.43920898 173.35888672 C 136.32110596 177.37295532 134.93872070 184.08947754 132.45184326 187.87069702 C 129.60787964 193.42063904 125.06899261 194.30535889 121.94239807 188.26939392 C 119.93504333 184.17100525 118.22968292 179.10841370 118.09511566 173.73913574 C 117.52902222 168.20808411 117.85075378 163.05894470 117.77602386 158.29447937 C 118.31126404 150.99252319 117.72180176 149.90113831 118.46827698 142.83163452 C 119.51175690 135.34197998 118.86930084 134.53440857 120.84295654 129.37956238 C 124.45163727 123.71705627 129.13179016 121.37696838 131.79634094 127.96976471 C 134.34538269 131.75936890 135.15177917 136.82872009 135.09053040 142.93908691 C 135.21781921 147.11965942 135.57331848 151.54548645 136.28169250 157.85757446 C 136.34327698 162.38920593 136.53564453 167.81440735 136.43920898 173.35888672" stroke-width="1.67444837" fill="rgb(255, 255, 255)" opacity="1.0" stroke="rgb(70, 146, 132)" stroke-opacity="0.49002996" stroke-linecap="round" stroke-linejoin="round"/>
    <path d="M 112.67244720 171.30157471 C 109.78520203 176.22882080 105.85463715 180.78428650 102.27112579 182.44981384 C 96.22692108 186.34954834 92.03368378 186.12699890 92.13121796 179.39253235 C 91.45751953 172.10241699 94.04155731 167.60704041 95.73696136 164.05686951 C 98.59306335 158.26187134 101.28310394 154.07061768 103.47806549 150.20770264 C 106.17400360 146.14521790 108.20575714 142.89750671 112.65093994 136.63201904 C 115.87635040 132.08790588 116.60064697 130.23913574 120.26745605 126.06921387 C 125.11106110 120.82796478 131.62045288 123.09277344 131.37127686 129.12831116 C 130.70207214 135.28561401 128.37036133 138.68411255 126.70497894 143.35688782 C 124.13142395 149.04515076 122.91412354 153.05488586 120.18975830 157.53945923 C 117.72620392 161.67694092 115.91178131 165.77580261 112.67244720 171.30157471" stroke-width="1.64110053" fill="rgb(249, 255, 254)" opacity="1.0" stroke="rgb(40, 124, 104)" stroke-opacity="0.38401735" stroke-linecap="round" stroke-linejoin="round"/>
    <path d="M 126.08078766 136.33056641 C 121.86616516 139.63774109 119.85876465 141.34521484 114.61668396 145.07955933 C 110.00770569 148.24813843 108.10581207 149.50263977 101.32836151 153.21836853 C 97.19022369 155.66047668 93.81828308 157.11389160 87.60458374 159.77438354 C 83.32481384 161.38653564 77.36235046 164.04919434 71.90493774 161.38122559 C 68.06112671 158.89765930 70.64253235 153.12129211 75.53369141 147.97694397 C 80.22772980 144.36242676 80.68865967 143.91049194 86.51010132 140.74507141 C 92.35351562 137.79898071 93.98801422 136.99987793 99.77441406 133.46723938 C 104.12006378 131.14726257 107.95324707 129.15054321 114.20525360 126.47882080 C 118.51940155 125.36876678 122.44656372 123.36924744 129.84463501 123.61801147 C 133.85919189 126.35915375 131.06057739 132.78320312 126.08078766 136.33056641" stroke-width="0.00000000" fill="rgb(252, 255, 251)" opacity="1.0" stroke="rgb(255, 255, 255)" stroke-opacity="0.0" stroke-linecap="round" stroke-linejoin="round"/>
    <path d="M 127.75151062 131.90115356 C 122.87944031 133.35743713 117.30813599 134.72633362 112.53283691 134.96891785 C 106.44812775 136.02070618 102.32477570 136.29058838 96.63333130 136.26068115 C 90.82543945 136.18031311 86.46137238 136.75776672 80.80838013 136.35568237 C 74.92694855 136.21296692 69.40589905 135.05535889 65.05412292 132.87432861 C 59.66504669 129.49879456 59.54501343 124.14134216 66.79705811 120.84795380 C 72.44671631 119.14675903 73.47476196 118.59767151 79.22413635 118.38455200 C 85.60105133 117.84377289 89.63983917 118.31256866 95.01719666 118.10032654 C 100.78575134 117.95985413 106.17906189 117.64247131 111.18393707 118.22930908 C 116.74053955 119.08659363 121.70896912 119.57758331 126.91649628 121.57293701 C 133.53527832 123.08588409 134.37472534 130.30456543 127.75151062 131.90115356" stroke-width="0.30964097" fill="rgb(255, 255, 255)" opacity="1.0" stroke="rgb(210, 230, 170)" stroke-opacity="0.18939675" stroke-linecap="round" stroke-linejoin="round"/>
    <path d="M 129.38948059 122.54088593 C 129.78909302 125.25862122 132.64657593 130.00592041 127.08530426 133.64030457 C 121.49388123 133.30130005 116.79674530 129.67228699 112.57093811 127.23918915 C 107.61586761 124.48151398 103.61043549 121.83274841 98.76202393 119.85182190 C 92.26178741 116.91998291 88.75375366 115.34832001 83.87257385 112.86831665 C 79.73603821 110.55598450 75.52743530 107.56317139 71.85942078 102.75643921 C 70.14377594 97.32724762 68.68373108 92.75798035 73.52469635 92.24050903 C 78.98979187 91.24012756 85.21511841 93.11824799 89.15876770 94.60260773 C 95.35925293 97.70957947 98.81121826 100.51112366 102.48773956 103.54862976 C 108.27909088 107.82871246 111.30357361 109.79519653 115.66983795 111.98827362 C 120.97940063 114.91173553 124.66430664 116.30216217 129.38948059 122.54088593" stroke-width="0.00000000" fill="rgb(253, 255, 255)" opacity="1.0" stroke="rgb(247, 255, 246)" stroke-opacity="0.0053475094" stroke-linecap="round" stroke-linejoin="round"/>
    <path d="M 126.51765442 112.02716064 C 128.21353149 116.24843597 131.11123657 121.98904419 131.46708679 126.18045044 C 131.95928955 132.75143433 126.10277557 133.93408203 120.50567627 129.58233643 C 116.86711121 126.35352325 114.41768646 122.31761169 111.81707764 116.44216156 C 109.28135681 112.21353149 106.99429321 107.96791077 103.60158539 102.73097229 C 100.85568237 98.39827728 98.34704590 95.01571655 94.79470825 88.75162506 C 92.80474854 83.47061920 92.68675995 82.29319763 92.01571655 76.60581970 C 91.25488281 69.01270294 95.72636414 67.50885010 101.92077637 71.54693604 C 105.78271484 74.26304626 110.08407593 78.98691559 112.28972626 83.09483337 C 115.14959717 88.85478210 116.92271423 92.67994690 118.89553833 97.45695496 C 121.44543457 102.89859772 123.67333984 107.13895416 126.51765442 112.02716064" stroke-width="0.00000000" fill="rgb(255, 254, 255)" opacity="1.0" stroke="rgb(255, 255, 255)" stroke-opacity="0.0" stroke-linecap="round" stroke-linejoin="round"/>
    <path d="M 113.76538086 153.14482117 C 110.02407837 151.36636353 106.28166199 148.56582642 101.83528137 141.28849792 C 99.79760742 137.40255737 97.88444519 131.73005676 98.60013580 123.54094696 C 99.05238342 119.73575592 100.89489746 113.23800659 106.38861847 107.15586090 C 110.33946228 103.41426849 114.09701538 100.33932495 122.60755157 98.39136505 C 127.14555359 97.59056091 133.01139832 97.62493896 140.94499207 101.53890991 C 145.43022156 104.33710480 149.17723083 106.42668152 151.83641052 111.63732910 C 155.51159668 119.56056213 156.72360229 122.41217041 156.19847107 129.90660095 C 155.96643066 134.12239075 154.67933655 140.57345581 149.15380859 146.71235657 C 145.95111084 150.49441528 141.69186401 153.24140930 134.06307983 155.87590027 C 128.26531982 157.10029602 123.94906616 156.99925232 113.76538086 153.14482117" stroke-width="1.09573567" fill="rgb(250, 200, 33)" opacity="1.0" stroke="rgb(238, 183, 25)" stroke-opacity="0.56133044" stroke-linecap="round" stroke-linejoin="round"/>
    <path d="M 185.06474304 189.08158875 C 182.06307983 194.22769165 179.99708557 197.29539490 176.91308594 202.00695801 C 173.15577698 207.70387268 172.05009460 209.76098633 165.97636414 214.48179626 C 161.34674072 217.97219849 156.26921082 220.16961670 151.17007446 221.54225159 C 145.63807678 222.68455505 139.21351624 224.12899780 133.86344910 223.93510437 C 128.74348450 221.35389709 131.35414124 215.95161438 134.56700134 208.94494629 C 137.65490723 203.84347534 137.97265625 202.10945129 142.48574829 197.60212708 C 147.54159546 193.40968323 150.11343384 190.91485596 155.06692505 187.90008545 C 161.57841492 185.35630798 165.04600525 183.98294067 170.37951660 182.19888306 C 177.77214050 181.15855408 179.65242004 180.52377319 187.03709412 179.14874268 C 193.95954895 176.43664551 188.64241028 185.11926270 185.06474304 189.08158875" stroke-width="0.86868125" fill="rgb(149, 208, 81)" opacity="1.0" stroke="rgb(123, 189, 18)" stroke-opacity="0.39579892" stroke-linecap="round" stroke-linejoin="round"/>
  </g>
</svg>
