<?xml version="1.0" ?>
<svg xmlns="http://www.w3.org/2000/svg" version="1.1" width="256" height="256" viewBox="0 0 256 256">
  <defs/>
  <g>
    <path d="M 302.95718384 225.99002075 C 286.55444336 257.63299561 255.86923218 274.70385742 217.45182800 289.38302612 C 183.91937256 298.60842896 145.77980042 301.27218628 99.36753845 295.08135986 C 58.69777679 286.80169678 19.60712433 275.89862061 -2.39047241 249.53372192 C -23.82429504 221.85708618 -31.12892151 180.22290039 -35.23463440 139.08795166 C -37.45585632 95.73085785 -42.42268372 52.72949982 -40.51840210 19.11771393 C -24.27420044 -10.03647614 -4.90147400 -23.18616486 23.69046021 -31.48195648 C 62.48097229 -34.83318329 99.33341980 -30.24738312 141.55256653 -25.84200287 C 188.91290283 -19.91939545 224.61465454 -13.36159515 254.09982300 2.09865570 C 274.55572510 34.07978058 283.69073486 66.94023895 294.87509155 103.91386414 C 304.89599609 145.22525024 308.64099121 190.44293213 302.95718384 225.99002075" stroke-width="2.00000000" fill="rgb(210, 242, 254)" opacity="1.0" stroke="rgb(139, 228, 255)" stroke-opacity="0.34883323" stroke-linecap="round" stroke-linejoin="round"/>
    <path d="M 124.89287567 241.40838623 C 123.94925690 236.94132996 124.33226013 234.00444031 123.84790039 228.30183411 C 123.92367554 223.38145447 123.67792511 217.67144775 123.51248932 212.68106079 C 123.64817810 206.17337036 123.12666321 203.69277954 123.25154877 197.92202759 C 123.75818634 191.59918213 123.34268188 187.50541687 123.49195099 182.37687683 C 122.77066803 176.79905701 126.94236755 172.80987549 129.79029846 178.74957275 C 130.72637939 186.32789612 130.48123169 187.61152649 130.61410522 190.42782593 C 129.30400085 194.02835083 129.96812439 199.11096191 129.94900513 203.95718384 C 129.85620117 211.48724365 129.83200073 213.59036255 130.24491882 218.62390137 C 129.99038696 224.64372253 130.95068359 229.55586243 130.82006836 233.91162109 C 131.02890015 240.28636169 130.50624084 245.35270691 124.89287567 241.40838623" stroke-width="0.73103100" fill="rgb(137, 197, 75)" opacity="1.0" stroke="rgb(137, 187, 89)" stroke-opacity="0.53849787" stroke-linecap="round" stroke-linejoin="round"/>
    <path d="M 135.86384583 107.98957062 C 135.43901062 113.97085571 135.73907471 118.53388977 134.01982117 123.07357788 C 131.34770203 129.44844055 126.93720245 132.54263306 123.53875732 127.47729492 C 119.78751373 122.39222717 118.16971588 117.60334015 117.98953247 112.42778778 C 117.59889221 107.36705780 118.16349030 102.88994598 117.82102203 96.67247009 C 117.86248779 91.38273621 117.55850220 86.92628479 117.67000580 80.54177856 C 118.36114502 74.42920685 118.44718933 72.44654846 120.49488831 67.59616852 C 123.48260498 61.59901428 126.43191528 57.45959473 131.04983521 61.89177704 C 133.97486877 65.75869751 136.10510254 71.65296173 136.49517822 76.37971497 C 137.25955200 81.48628235 136.98660278 86.67736053 136.56013489 91.93909454 C 136.31843567 98.15295410 136.00082397 102.01669312 135.86384583 107.98957062" stroke-width="1.43720043" fill="rgb(255, 255, 252)" opacity="1.0" stroke="rgb(29, 127, 104)" stroke-opacity="0.47510657" stroke-linecap="round" stroke-linejoin="round"/>
    <path d="M 152.57875061 102.14480591 C 149.77433777 106.87891388 146.81842041 111.64668274 145.33517456 115.77245331 C 143.41810608 120.83261871 141.52462769 126.02934265 137.86708069 129.48565674 C 131.83575439 134.22868347 127.81600189 133.63533020 126.23803711 128.12513733 C 124.16046906 122.06152344 125.29726410 117.48593140 128.64450073 112.57068634 C 130.49499512 109.15509796 133.12750244 105.23751831 135.72155762 98.15915680 C 137.89054871 93.60277557 137.90364075 90.49823761 140.66439819 86.29933167 C 143.93836975 80.34190369 145.91543579 77.11259460 150.12699890 73.54284668 C 154.06390381 70.26809692 159.38740540 66.08866882 162.33972168 71.53983307 C 163.12112427 78.54174805 162.12405396 82.80458832 160.42370605 87.56159973 C 158.41127014 92.69396973 156.61933899 95.35070038 152.57875061 102.14480591" stroke-width="1.44718301" fill="rgb(255, 254, 255)" opacity="1.0" stroke="rgb(96, 168, 157)" stroke-opacity="0.7250977" stroke-linecap="round" stroke-linejoin="round"/>
    <path d="M 179.49780273 106.90924072 C 177.37908936 109.20192719 174.71806335 111.33009338 169.08171082 114.50279236 C 165.17988586 116.71466827 160.66259766 118.50338745 155.57904053 121.29160309 C 149.92758179 123.63121033 146.29501343 125.68728638 141.68328857 127.45772552 C 136.24398804 128.58258057 130.34223938 129.65530396 127.04884338 127.04769135 C 126.03047180 122.21379852 130.18702698 119.38327026 135.32580566 115.29808807 C 138.65409851 112.75456238 141.49331665 111.35655212 145.37071228 109.99726868 C 149.87399292 107.58379364 151.58786011 103.40660858 155.81338501 99.77945709 C 160.88327026 96.32351685 164.40032959 94.65927124 168.72290039 93.17697144 C 174.00729370 91.94793701 179.37089539 90.89098358 183.78001404 92.55097961 C 187.41567993 95.87663269 183.69224548 102.03923035 179.49780273 106.90924072" stroke-width="1.39539087" fill="rgb(252, 255, 253)" opacity="1.0" stroke="rgb(58, 146, 135)" stroke-opacity="0.5970366" stroke-linecap="round" stroke-linejoin="round"/>
    <path d="M 188.56425476 133.09329224 C 184.60618591 135.20643616 179.34523010 136.98585510 173.72436523 136.81246948 C 169.02835083 136.93356323 163.98150635 136.86141968 157.80450439 137.08851624 C 152.59741211 137.16917419 147.98095703 137.95697021 142.65519714 138.65890503 C 136.76724243 139.22760010 130.69998169 139.85917664 126.20187378 137.51139832 C 121.72595978 134.00793457 123.04712677 129.09976196 129.86380005 127.19216156 C 135.36335754 124.76653290 138.08850098 123.13085175 141.43249512 122.05894470 C 146.96638489 120.72152710 151.69549561 120.39839172 157.30868530 119.27003479 C 162.34207153 118.54807281 166.88809204 117.20871735 173.22137451 117.64711761 C 177.76141357 117.78705597 184.30450439 119.19287872 188.62052917 121.21509552 C 194.28970337 123.65907288 194.95613098 130.07685852 188.56425476 133.09329224" stroke-width="1.50709319" fill="rgb(252, 255, 255)" opacity="1.0" stroke="rgb(74, 152, 143)" stroke-opacity="0.5676532" stroke-linecap="round" stroke-linejoin="round"/>
    <path d="M 181.46881104 162.45790100 C 177.17129517 162.71452332 171.83644104 162.42028809 167.46000671 160.96307373 C 162.47485352 159.42181396 158.83297729 156.94879150 153.90060425 153.95552063 C 148.65962219 151.35517883 144.66854858 149.10899353 140.61001587 146.50080872 C 135.99594116 144.59201050 132.31883240 141.79623413 127.54572296 137.42691040 C 125.47088623 132.95985413 126.14895630 129.27186584 131.68188477 127.38739777 C 136.79611206 127.30839539 139.85987854 128.07986450 141.98979187 130.60716248 C 145.86932373 134.36834717 151.44798279 136.66653442 156.01731873 136.61746216 C 161.33694458 137.77722168 165.54829407 137.78771973 170.11894226 140.86122131 C 174.94946289 143.00541687 179.18841553 147.41999817 181.72697449 150.36030579 C 185.51702881 155.56455994 188.23701477 161.39056396 181.46881104 162.45790100" stroke-width="1.38421059" fill="rgb(252, 255, 255)" opacity="1.0" stroke="rgb(109, 179, 171)" stroke-opacity="0.81728524" stroke-linecap="round" stroke-linejoin="round"/>
    <path d="M 161.60858154 170.74986267 C 162.54740906 175.37277222 163.49116516 180.31523132 160.84564209 184.41156006 C 156.92936707 186.56207275 152.31759644 182.48382568 148.23696899 178.87530518 C 144.23310852 174.79948425 141.97740173 170.75454712 139.37181091 166.29011536 C 136.57934570 161.29547119 134.52093506 156.45285034 132.58865356 152.50929260 C 130.57516479 148.40457153 128.83111572 143.94099426 125.91473389 138.47865295 C 124.83222198 132.85739136 124.44157410 129.52438354 126.65704346 126.39374542 C 131.02619934 126.28107452 135.51571655 128.73513794 139.29791260 133.10517883 C 141.18147278 137.44071960 142.14994812 141.63696289 145.35478210 145.30400085 C 149.07583618 149.66905212 152.48037720 152.50662231 155.09683228 156.85595703 C 158.31524658 161.37487793 159.99351501 165.69285583 161.60858154 170.74986267" stroke-width="1.46408415" fill="rgb(254, 255, 255)" opacity="1.0" stroke="rgb(1, 104, 73)" stroke-opacity="0.36610472" stroke-linecap="round" stroke-linejoin="round"/>
    <path d="M 136.49902344 174.67323303 C 136.00079346 178.21826172 134.46737671 185.05229187 132.09471130 188.43750000 C 129.75366211 193.84255981 124.92999268 193.91043091 121.83785248 188.32666016 C 119.46459961 183.51484680 118.30384064 178.94985962 118.12617493 173.73382568 C 117.45192719 168.87112427 118.00888824 165.16665649 117.83717346 159.00155640 C 118.05929565 154.10093689 118.46358490 149.73915100 119.03181458 143.38171387 C 119.63874054 137.49682617 118.61949158 135.83001709 120.35841370 130.85339355 C 124.75273132 125.82675934 128.88659668 124.69889832 130.97682190 130.91366577 C 132.81838989 135.09744263 133.58128357 140.46351624 133.74632263 145.04225159 C 133.79280090 150.54034424 134.46919250 154.48373413 135.68711853 159.40255737 C 136.65307617 164.12133789 136.90686035 168.87196350 136.49902344 174.67323303" stroke-width="1.49617195" fill="rgb(252, 255, 254)" opacity="1.0" stroke="rgb(96, 167, 150)" stroke-opacity="0.7381709" stroke-linecap="round" stroke-linejoin="round"/>
    <path d="M 112.17562103 172.54234314 C 109.79275513 176.39346313 105.42926025 181.06089783 102.18086243 182.78123474 C 97.11190033 186.76860046 92.21789551 186.36407471 91.95037079 180.09179688 C 91.21997833 173.48385620 93.49468231 168.68081665 95.02296448 165.16526794 C 97.71920013 158.77630615 99.87762451 156.11889648 102.33236694 151.78498840 C 105.44778442 147.17146301 107.20516205 144.66621399 111.28198242 139.45919800 C 115.20494080 134.77812195 116.19779968 133.07063293 119.00496674 129.10156250 C 122.50757599 124.72467041 128.41818237 126.16177368 129.16662598 130.35134888 C 125.60417175 135.73986816 123.52601624 138.89051819 122.44204712 144.14695740 C 120.39086914 150.54403687 120.25859070 152.81010437 118.49778748 158.50125122 C 116.96861267 162.84600830 116.03279114 166.24214172 112.17562103 172.54234314" stroke-width="1.36218393" fill="rgb(255, 254, 254)" opacity="1.0" stroke="rgb(111, 177, 173)" stroke-opacity="0.8825652" stroke-linecap="round" stroke-linejoin="round"/>
    <path d="M 116.82560730 132.96182251 C 113.28898621 136.74589539 111.41910553 139.23323059 108.20787048 143.79095459 C 104.83833313 147.63122559 103.54028320 150.61012268 98.69599915 155.32931519 C 95.48308563 157.85098267 91.63994598 159.59396362 85.67456818 161.37419128 C 81.33852386 162.25549316 74.81105804 164.01950073 70.34618378 161.74490356 C 67.22225189 158.06373596 70.05584717 154.14770508 74.19665527 149.04711914 C 78.01679230 145.43145752 79.25599670 144.07580566 83.45275116 141.68843079 C 88.83937073 138.59901428 92.15325928 136.35295105 95.75159454 133.48013306 C 99.62718201 130.29067993 103.80680847 127.83946228 108.08283997 125.15579987 C 112.79819489 123.28564453 117.05868530 120.36390686 122.13121796 120.65476227 C 125.33840942 122.76131439 121.08844757 129.10676575 116.82560730 132.96182251" stroke-width="1.42582715" fill="rgb(253, 255, 255)" opacity="1.0" stroke="rgb(70, 149, 136)" stroke-opacity="0.5761375" stroke-linecap="round" stroke-linejoin="round"/>
    <path d="M 127.53524017 131.99957275 C 122.79167175 133.44807434 117.36047363 135.11203003 112.75466919 135.20838928 C 106.92416382 135.66763306 102.32078552 135.73249817 96.47914124 136.17298889 C 91.21427155 136.37358093 86.65157318 137.63577271 80.76912689 137.09594727 C 75.53639984 136.93826294 69.06493378 135.23471069 64.65975952 132.88757324 C 59.28105164 129.63598633 58.25392914 123.96932220 65.85846710 121.06797028 C 70.99116516 118.75586700 73.71154785 118.24417114 77.63546753 117.94567108 C 83.71329498 117.38013458 89.27658081 117.89037323 94.40933228 117.67994690 C 100.60388947 117.62138367 105.13092041 117.21495056 110.19032288 118.01710510 C 115.41493225 118.72283173 120.86478424 120.61067963 125.85522461 123.17051697 C 132.59564209 125.28884888 136.05914307 130.14039612 127.53524017 131.99957275" stroke-width="1.45895648" fill="rgb(255, 255, 255)" opacity="1.0" stroke="rgb(0, 106, 85)" stroke-opacity="0.36659062" stroke-linecap="round" stroke-linejoin="round"/>
    <path d="M 129.80990601 119.32902527 C 129.98477173 123.61486053 130.49150085 128.47189331 127.86317444 132.88713074 C 124.02752686 133.79019165 118.94721985 128.52975464 114.54093933 125.68170166 C 109.46758270 122.03486633 105.55114746 120.26101685 100.54047394 119.04441833 C 92.81703186 117.40133667 89.14067841 116.28147125 84.17996216 113.79403687 C 79.18080902 110.92623901 75.79719543 108.51445770 71.39471436 102.93251801 C 68.50068665 97.14340210 68.20915222 93.00864410 71.79940796 92.09329987 C 77.13416290 90.81811523 83.72572327 92.28433990 88.21783447 93.78502655 C 93.60616302 95.97056580 96.96363831 98.46433258 102.34622192 101.07775116 C 107.23607635 103.47262573 112.23200989 105.69390106 117.34089661 108.34481049 C 122.92675781 111.69051361 126.96426392 111.86323547 129.80990601 119.32902527" stroke-width="1.36509693" fill="rgb(251, 255, 255)" opacity="1.0" stroke="rgb(46, 133, 114)" stroke-opacity="0.4936858" stroke-linecap="round" stroke-linejoin="round"/>
    <path d="M 125.16021729 110.20513916 C 126.45391846 114.57589722 128.40008545 119.95752716 129.37803650 124.07337952 C 128.96887207 129.60644531 123.88941956 130.14076233 118.22392273 126.12235260 C 115.03565979 123.00106049 113.42234039 119.21485901 110.62892151 113.25835419 C 108.08789062 109.14217377 105.33124542 105.10162354 101.62889862 100.60551453 C 99.10173035 97.42040253 96.59047699 93.62525940 93.66229248 87.17237854 C 92.24024963 82.20805359 91.77745056 80.69663239 91.70265961 75.66129303 C 91.50230408 68.58702087 95.87409973 66.90308380 101.97303772 71.14225769 C 105.78336334 73.56328583 109.79010010 78.02279663 112.05629730 82.11796570 C 114.58067322 86.68088531 116.52662659 90.86753845 118.58320618 95.70156860 C 121.34610748 100.96379089 122.83840942 104.66841125 125.16021729 110.20513916" stroke-width="1.39691520" fill="rgb(252, 255, 253)" opacity="1.0" stroke="rgb(49, 137, 117)" stroke-opacity="0.49261263" stroke-linecap="round" stroke-linejoin="round"/>
    <path d="M 109.85512543 150.97926331 C 106.23187256 148.65177917 103.07547760 144.70726013 100.25794983 137.99813843 C 98.13307953 132.50267029 97.23627472 125.17238617 99.27272797 119.84226990 C 101.06515503 113.64326477 104.52892303 107.87162781 109.44640350 104.37800598 C 114.13479614 100.44004822 119.62604523 98.11560059 127.35668182 97.92337036 C 131.77128601 97.89099121 137.63078308 98.84433746 144.99552917 103.83119202 C 149.02867126 107.59949493 151.80162048 109.82715607 153.83992004 115.16925812 C 156.42425537 122.67900085 157.26797485 126.68632507 155.59118652 134.41822815 C 154.82211304 138.58995056 152.78445435 144.15084839 146.15940857 149.68141174 C 141.87478638 153.57115173 137.42124939 155.56245422 129.79826355 156.56828308 C 123.45053101 156.82536316 118.84722137 156.40681458 109.85512543 150.97926331" stroke-width="0.90114331" fill="rgb(253, 196, 32)" opacity="1.0" stroke="rgb(236, 212, 138)" stroke-opacity="1.0" stroke-linecap="round" stroke-linejoin="round"/>
    <path d="M 183.57278442 191.41760254 C 180.31309509 197.04606628 178.91995239 199.11528015 175.37677002 204.39616394 C 171.21485901 210.25204468 169.71299744 212.14453125 163.35017395 216.25605774 C 157.14038086 219.98071289 152.68447876 221.37933350 148.25241089 222.45106506 C 141.36531067 223.21374512 134.88851929 224.90272522 130.97738647 223.16114807 C 130.20263672 217.51104736 132.24758911 214.35671997 135.43426514 207.19119263 C 138.49916077 202.26873779 139.94836426 199.30764771 143.61019897 196.74194336 C 147.95841980 193.53790283 150.54872131 190.11201477 156.10685730 187.36396790 C 162.62017822 185.13931274 166.34307861 183.57907104 171.67193604 181.86357117 C 178.95149231 180.51087952 181.19023132 179.91537476 189.01333618 178.88710022 C 193.96504211 178.12222290 185.56524658 188.04876709 183.57278442 191.41760254" stroke-width="0.75784737" fill="rgb(146, 206, 79)" opacity="1.0" stroke="rgb(111, 171, 0)" stroke-opacity="0.35303143" stroke-linecap="round" stroke-linejoin="round"/>
  </g>
</svg>
