<?xml version="1.0" ?>
<svg xmlns="http://www.w3.org/2000/svg" version="1.1" width="256" height="256" viewBox="0 0 256 256">
  <defs/>
  <g>
    <path d="M 305.62365723 227.91104126 C 288.73791504 259.51062012 257.48080444 276.18951416 218.89443970 290.70593262 C 184.46067810 299.68243408 145.95803833 301.84545898 99.17050171 295.34460449 C 57.99260712 286.34713745 19.22536469 275.21850586 -3.48368835 248.58816528 C -25.20806885 220.78723145 -34.26335144 179.44340515 -38.95045471 137.84663391 C -41.50764465 93.95471954 -46.71614075 50.71429443 -44.47186279 17.01367188 C -27.43377686 -11.97519684 -7.57942200 -24.55435944 21.55784607 -32.68556976 C 60.54798889 -35.86923981 98.05045319 -31.03383636 140.40147400 -26.23973846 C 188.29003906 -19.77866364 223.92843628 -13.36977386 254.17597961 2.25024414 C 275.60729980 34.60890198 285.25567627 67.67773438 296.78344727 104.56838226 C 307.54858398 146.61584473 311.48477173 191.53836060 305.62365723 227.91104126" stroke-width="2.00000000" fill="rgb(210, 242, 254)" opacity="1.0" stroke="rgb(154, 229, 255)" stroke-opacity="0.36548492" stroke-linecap="round" stroke-linejoin="round"/>
    <path d="M 124.89218140 241.62388611 C 123.84281158 237.04003906 124.52153778 234.33319092 123.87962341 228.51205444 C 124.00093079 223.65762329 123.67235565 217.79476929 123.50872040 213.14349365 C 123.58505249 206.57833862 123.05326843 204.52442932 123.24897003 198.75471497 C 123.67669678 192.68930054 122.94877625 188.49142456 122.89114380 183.32122803 C 122.32180023 177.96800232 126.83600616 174.81028748 129.08654785 180.70646667 C 129.98681641 187.77406311 129.38783264 189.50997925 130.17951965 192.31459045 C 129.54328918 195.80400085 129.92729187 200.31550598 129.98681641 205.24504089 C 129.96008301 212.73246765 129.77239990 214.55972290 130.45956421 219.37002563 C 130.16575623 225.30798340 130.96093750 229.95355225 130.86021423 234.33804321 C 131.06967163 240.36503601 130.63136292 245.19126892 124.89218140 241.62388611" stroke-width="0.74986410" fill="rgb(139, 197, 75)" opacity="1.0" stroke="rgb(137, 189, 96)" stroke-opacity="0.53727025" stroke-linecap="round" stroke-linejoin="round"/>
    <path d="M 136.11437988 107.52418518 C 135.72375488 113.53906250 136.06594849 117.90666199 134.30082703 122.46257782 C 131.55058289 128.79330444 127.08648682 131.53694153 123.63698578 126.69728088 C 119.83612823 121.87921143 117.95848083 117.13690186 117.78024292 112.03036499 C 117.40538025 107.05465698 118.00499725 102.54697418 117.73383331 96.40868378 C 117.80107117 91.16015625 117.56122589 86.69213104 117.66104126 80.42857361 C 118.35930634 74.34959412 118.47506714 72.33786774 120.48747253 67.59466553 C 123.46231079 61.65897751 126.33671570 57.46966934 130.94944763 61.77776337 C 133.97142029 65.66686249 136.05093384 71.50027466 136.44421387 76.12982178 C 137.22126770 81.13975525 137.01138306 86.29486084 136.62713623 91.60480499 C 136.47325134 97.72826385 136.20643616 101.58614349 136.11437988 107.52418518" stroke-width="1.44612837" fill="rgb(252, 255, 255)" opacity="1.0" stroke="rgb(35, 131, 108)" stroke-opacity="0.4881123" stroke-linecap="round" stroke-linejoin="round"/>
    <path d="M 152.73771667 101.91269684 C 149.88583374 106.80781555 147.07002258 111.55220032 145.69850159 115.65293121 C 143.88594055 120.84754181 142.04782104 126.04815674 138.34222412 129.54072571 C 132.26947021 134.29797363 128.48060608 133.98043823 126.72799683 128.58956909 C 124.62136841 122.36769867 125.63497925 117.87701416 128.82754517 113.01911926 C 130.62643433 109.46817780 133.10317993 105.46417999 135.58393860 98.42761993 C 137.71536255 93.80560303 137.83160400 90.75650787 140.52859497 86.58860016 C 143.73344421 80.60136414 145.65882874 77.36643982 149.86035156 73.74520111 C 153.65022278 70.55597687 158.99488831 66.14880371 162.24298096 71.23476410 C 163.16828918 78.22213745 162.13771057 82.44923401 160.49826050 87.28334808 C 158.74482727 92.09355164 156.64405823 95.24984741 152.73771667 101.91269684" stroke-width="1.46971619" fill="rgb(253, 255, 253)" opacity="1.0" stroke="rgb(96, 168, 158)" stroke-opacity="0.71115535" stroke-linecap="round" stroke-linejoin="round"/>
    <path d="M 179.46849060 106.86426544 C 177.31825256 109.21506500 174.71672058 111.29428101 169.10096741 114.49440765 C 165.17204285 116.75362396 160.62971497 118.52791595 155.57312012 121.32163239 C 149.84188843 123.73421478 146.33012390 125.79109192 141.73280334 127.51785278 C 136.28918457 128.63250732 130.31315613 129.56826782 127.10132599 126.86999512 C 126.15901184 122.06856537 130.21978760 119.13890839 135.33425903 115.07289886 C 138.66888428 112.53042603 141.56040955 111.23042297 145.44213867 109.92420197 C 149.90768433 107.45024109 151.57353210 103.29363251 155.83331299 99.71711731 C 160.86958313 96.30894470 164.31648254 94.61270142 168.68133545 93.15788269 C 173.92214966 91.85119629 179.41403198 90.85497284 183.78706360 92.52127075 C 187.39881897 95.67793274 183.58293152 102.17355347 179.46849060 106.86426544" stroke-width="1.42291009" fill="rgb(254, 255, 252)" opacity="1.0" stroke="rgb(49, 140, 127)" stroke-opacity="0.56085026" stroke-linecap="round" stroke-linejoin="round"/>
    <path d="M 188.62022400 133.06263733 C 184.92439270 135.11401367 179.46926880 137.01951599 173.94235229 136.84268188 C 169.22816467 137.00114441 164.15579224 136.85931396 157.92475891 137.17495728 C 152.82145691 137.30093384 148.19639587 138.18060303 142.74667358 139.00015259 C 136.82051086 139.70758057 130.74723816 140.46339417 126.28382111 138.24060059 C 121.84400177 134.68739319 122.97050476 129.70606995 129.72116089 127.70184326 C 135.20755005 125.10828400 138.11886597 123.41284180 141.12149048 122.32147980 C 146.62670898 120.93964386 151.43884277 120.45137024 157.02113342 119.31079865 C 162.18513489 118.51865387 166.71011353 117.16648102 172.97383118 117.60740662 C 177.55488586 117.76755524 184.09918213 119.11127472 188.42973328 121.07624054 C 194.10717773 123.44444275 195.18701172 129.82464600 188.62022400 133.06263733" stroke-width="1.51316643" fill="rgb(254, 255, 254)" opacity="1.0" stroke="rgb(75, 155, 145)" stroke-opacity="0.56848097" stroke-linecap="round" stroke-linejoin="round"/>
    <path d="M 181.55628967 162.54917908 C 177.25067139 162.77000427 172.02331543 162.45230103 167.57495117 161.01220703 C 162.64813232 159.45687866 158.95495605 157.01318359 154.03997803 153.97872925 C 148.82058716 151.41900635 144.75137329 149.11376953 140.71310425 146.59994507 C 136.06150818 144.74876404 132.32548523 142.02021790 127.50243378 137.74430847 C 125.53015900 133.29785156 126.24932861 129.58416748 131.76248169 127.76707458 C 136.82583618 127.54971313 139.97509766 128.16688538 142.02540588 130.71963501 C 145.76094055 134.59393311 151.50035095 136.81149292 156.04145813 136.69126892 C 161.37623596 137.72143555 165.51950073 137.76930237 170.09400940 140.91677856 C 174.94790649 143.10467529 179.21557617 147.50718689 181.70809937 150.36830139 C 185.53059387 155.64059448 188.25686646 161.35876465 181.55628967 162.54917908" stroke-width="1.41481733" fill="rgb(253, 255, 253)" opacity="1.0" stroke="rgb(106, 175, 168)" stroke-opacity="0.78139883" stroke-linecap="round" stroke-linejoin="round"/>
    <path d="M 161.60829163 170.72245789 C 162.58076477 175.34585571 163.54177856 180.34210205 160.91159058 184.41387939 C 156.92163086 186.54296875 152.23377991 182.48164368 148.20910645 178.84127808 C 144.08485413 174.62722778 141.90042114 170.58305359 139.41384888 166.33888245 C 136.54096985 161.28929138 134.47299194 156.49736023 132.50047302 152.52482605 C 130.41390991 148.35325623 128.71485901 143.89002991 125.79080200 138.40411377 C 124.53433228 132.48921204 124.46289062 129.23796082 126.59480286 126.42825317 C 130.90312195 126.50848389 135.46203613 129.05609131 139.23190308 133.22486877 C 141.15786743 137.37194824 142.07409668 141.55090332 145.40185547 145.23220825 C 149.08093262 149.60148621 152.49084473 152.57766724 155.04681396 156.88970947 C 158.28163147 161.43440247 160.03717041 165.77426147 161.60829163 170.72245789" stroke-width="1.47807479" fill="rgb(253, 255, 254)" opacity="1.0" stroke="rgb(4, 106, 77)" stroke-opacity="0.38433766" stroke-linecap="round" stroke-linejoin="round"/>
    <path d="M 136.48185730 175.00675964 C 135.77368164 178.90197754 134.50260925 185.37042236 132.05978394 188.60777283 C 129.63612366 193.92102051 124.95120239 193.93431091 121.90383148 188.46040344 C 119.62879944 183.78038025 118.35456085 179.28302002 118.15119171 174.04531860 C 117.50819397 169.31604004 118.03859711 165.67282104 117.83711243 159.56498718 C 118.08513641 154.41932678 118.50689697 150.27803040 119.08818054 144.13945007 C 119.74322510 138.25349426 118.60189056 136.62413025 120.12037659 131.72013855 C 124.44960785 126.84318542 128.89216614 126.01671600 130.91891479 131.98667908 C 132.69496155 136.08427429 133.19509888 141.23698425 133.46412659 145.78837585 C 133.43673706 151.67951965 134.47697449 155.62229919 135.74708557 159.91070557 C 136.87751770 164.56709290 136.84625244 169.75994873 136.48185730 175.00675964" stroke-width="1.50479865" fill="rgb(251, 255, 253)" opacity="1.0" stroke="rgb(94, 165, 147)" stroke-opacity="0.7234981" stroke-linecap="round" stroke-linejoin="round"/>
    <path d="M 111.87532043 172.92739868 C 109.63297272 176.52372742 105.22728729 181.26147461 102.01166534 182.89135742 C 96.99459839 186.78302002 92.08393860 186.27552795 91.93871307 180.14581299 C 91.25199890 173.58514404 93.40475464 168.80670166 94.90016937 165.44963074 C 97.55428314 159.10867310 99.69396973 156.42762756 102.04579926 152.17327881 C 105.03401947 147.70582581 106.80603790 145.11167908 110.77153778 139.97662354 C 114.60558319 135.66540527 115.78866577 133.62084961 118.53203583 129.90853882 C 121.82064056 126.55184937 127.14168549 127.89373016 128.22860718 131.26889038 C 124.62804413 136.60494995 122.61465454 139.72541809 121.83251190 144.92843628 C 120.06281281 151.36474609 120.12152863 153.13471985 118.29690552 159.20422363 C 116.83064270 163.39620972 115.79056549 166.72419739 111.87532043 172.92739868" stroke-width="1.36618185" fill="rgb(251, 255, 254)" opacity="1.0" stroke="rgb(109, 175, 169)" stroke-opacity="0.8442207" stroke-linecap="round" stroke-linejoin="round"/>
    <path d="M 116.60500336 132.76071167 C 113.17601776 136.67401123 111.26034546 139.16831970 108.16905975 143.76521301 C 104.87281799 147.50410461 103.48348999 150.63166809 98.66840363 155.38693237 C 95.52350616 157.81138611 91.45546722 159.65728760 85.60514832 161.36503601 C 81.13332367 162.29241943 74.62512207 163.93104553 70.39648438 161.73428345 C 67.22930908 157.98377991 70.28272247 153.91474915 74.33618164 148.87153625 C 78.11653137 145.27281189 79.38980103 143.96409607 83.53811646 141.64820862 C 89.03405762 138.50987244 92.21374512 136.30493164 95.73377228 133.52700806 C 99.69875336 130.29539490 103.89130402 128.08493042 108.17173767 125.30661011 C 112.91310883 123.50028229 117.12522888 120.67913818 121.99579620 120.52540588 C 124.93081665 122.75430298 121.02890015 128.65133667 116.60500336 132.76071167" stroke-width="1.41608548" fill="rgb(252, 255, 255)" opacity="1.0" stroke="rgb(61, 145, 130)" stroke-opacity="0.5406647" stroke-linecap="round" stroke-linejoin="round"/>
    <path d="M 127.11313629 132.20193481 C 122.37193298 133.65737915 116.99163818 135.28651428 112.40821838 135.37046814 C 106.65180969 135.74438477 102.08609772 135.79222107 96.19158936 136.21002197 C 91.07810211 136.40452576 86.47734833 137.63362122 80.61071014 137.07258606 C 75.37703705 136.90287781 68.90342712 135.20046997 64.60570526 132.90800476 C 59.22872162 129.59207153 58.34813690 123.98368835 65.81474304 121.12907410 C 70.91316223 118.82695770 73.73771667 118.28472137 77.49858093 117.99432373 C 83.49293518 117.41918945 89.11228180 117.90636444 94.20838928 117.71049500 C 100.32695007 117.64488220 104.75146484 117.18701172 109.82945251 118.08251190 C 114.94538879 118.83090210 120.40914917 120.82559204 125.35578918 123.46623993 C 131.93861389 125.65158844 135.68103027 130.41178894 127.11313629 132.20193481" stroke-width="1.44956779" fill="rgb(255, 254, 255)" opacity="1.0" stroke="rgb(2, 109, 89)" stroke-opacity="0.35813096" stroke-linecap="round" stroke-linejoin="round"/>
    <path d="M 129.11880493 119.03046417 C 129.39369202 123.32519531 129.94132996 128.19882202 127.47673035 132.64491272 C 123.73866272 133.50738525 118.67482758 128.27011108 114.26929474 125.43640900 C 109.23540497 121.86538696 105.27159119 120.12728882 100.27377319 118.90361786 C 92.64115143 117.27590179 88.91529083 116.09349823 84.09326172 113.58886719 C 79.16775513 110.72779846 75.78915405 108.30191040 71.40475464 102.77468872 C 68.47838593 97.01670837 68.27157593 92.90146637 71.75914001 92.00270844 C 76.97761536 90.78504181 83.57693481 92.21045685 88.05183411 93.67591858 C 93.41769409 95.81702423 96.73128510 98.28765106 102.05091095 100.86035156 C 106.95745087 103.23259735 111.85636902 105.42212677 116.96266937 108.05928040 C 122.33525085 111.37587738 126.44563293 111.52249146 129.11880493 119.03046417" stroke-width="1.35980809" fill="rgb(254, 255, 255)" opacity="1.0" stroke="rgb(40, 129, 109)" stroke-opacity="0.47395563" stroke-linecap="round" stroke-linejoin="round"/>
    <path d="M 124.70292664 109.85676575 C 125.95626068 114.18695068 127.91931152 119.52588654 128.87683105 123.49641418 C 128.36660767 129.07803345 123.28199005 129.30021667 117.74686432 125.39385223 C 114.63158417 122.26071167 113.07670593 118.56731415 110.28415680 112.68261719 C 107.68614197 108.50178528 104.97247314 104.49234772 101.35491943 100.18846130 C 98.88459778 97.01467896 96.40507507 93.25935364 93.59114838 86.84061432 C 92.24186707 81.92567444 91.85585022 80.37635040 91.75148010 75.47317505 C 91.65646362 68.42403412 96.01341248 66.93009949 101.96321869 71.07603455 C 105.86476898 73.61194611 109.79101562 78.01289368 111.97782898 81.92477417 C 114.52995300 86.58510590 116.51583099 90.73426056 118.38349152 95.49698639 C 121.03822327 100.73617554 122.44685364 104.29780579 124.70292664 109.85676575" stroke-width="1.40160608" fill="rgb(253, 255, 253)" opacity="1.0" stroke="rgb(59, 144, 127)" stroke-opacity="0.52374303" stroke-linecap="round" stroke-linejoin="round"/>
    <path d="M 109.94686127 151.08889771 C 106.20447540 148.63151550 103.11457062 144.76600647 100.30596924 138.04193115 C 98.14766693 132.50891113 97.24694824 125.16003418 99.26900482 119.87178802 C 101.03187561 113.63865662 104.50447083 107.89675903 109.40370941 104.36789703 C 114.07136536 100.43143463 119.62599182 98.05449677 127.33325195 97.86886597 C 131.87873840 97.82163239 137.62582397 98.77111816 144.96739197 103.75141907 C 148.94032288 107.48737335 151.80661011 109.76352692 153.78428650 115.05763245 C 156.44105530 122.39882660 157.18447876 126.89593506 155.66061401 134.19454956 C 154.90856934 138.28793335 152.71575928 144.33320618 146.22546387 149.63323975 C 141.97338867 153.50431824 137.43756104 155.59857178 129.83998108 156.59403992 C 123.58166504 156.91677856 118.94052887 156.43447876 109.94686127 151.08889771" stroke-width="0.90999436" fill="rgb(253, 196, 32)" opacity="1.0" stroke="rgb(236, 211, 137)" stroke-opacity="1.0" stroke-linecap="round" stroke-linejoin="round"/>
    <path d="M 183.46592712 191.61758423 C 180.20495605 197.32307434 178.97410583 199.12954712 175.23667908 204.62133789 C 171.15121460 210.37707520 169.55364990 212.29808044 163.16340637 216.40274048 C 156.92443848 220.09240723 152.49592590 221.45338440 148.00271606 222.54199219 C 141.14050293 223.25930786 134.53269958 225.01350403 130.80050659 223.06510925 C 130.25508118 217.41117859 132.35964966 214.22203064 135.46614075 207.14097595 C 138.59515381 202.17901611 140.10336304 199.10191345 143.71766663 196.64878845 C 148.22579956 193.49708557 150.51177979 190.14874268 156.18896484 187.32649231 C 162.82708740 185.06494141 166.59440613 183.54724121 171.81942749 181.83526611 C 179.10351562 180.52806091 181.33638000 179.92391968 189.18130493 178.89964294 C 193.91513062 178.36720276 185.38606262 188.22311401 183.46592712 191.61758423" stroke-width="0.77715164" fill="rgb(147, 206, 78)" opacity="1.0" stroke="rgb(109, 170, 0)" stroke-opacity="0.3617903" stroke-linecap="round" stroke-linejoin="round"/>
  </g>
</svg>
