<?xml version="1.0" ?>
<svg xmlns="http://www.w3.org/2000/svg" version="1.1" width="256" height="256" viewBox="0 0 256 256">
  <defs/>
  <g>
    <path d="M 257.31738281 213.92950439 C 256.06207275 253.16052246 252.69647217 260.03088379 200.73187256 255.91345215 C 157.36437988 256.35565186 145.18318176 255.41194153 99.64889526 256.25433350 C 62.43029022 254.09838867 21.66362000 263.61346436 3.90289307 249.46139526 C -3.87603760 216.21112061 1.26391602 191.23721313 -0.01559448 147.81455994 C 0.40933228 117.21144104 0.12036133 82.56332397 -1.66426086 45.32200623 C 1.96952820 9.99551392 18.82262421 -7.21221924 52.45741272 0.19454193 C 91.30697632 0.91812897 121.04891205 -1.10456848 153.24513245 0.27483368 C 193.51770020 3.61750031 228.03070068 -6.40295410 253.18203735 3.56876373 C 262.70111084 38.43394470 252.99865723 72.36108398 253.59701538 99.26116943 C 256.07110596 149.97959900 257.83090210 162.07351685 257.31738281 213.92950439" stroke-width="0.80000001" fill="rgb(230, 243, 255)" opacity="1.0" stroke="rgb(0, 0, 0)" stroke-opacity="1.0" stroke-linecap="round" stroke-linejoin="round"/>
    <path d="M 126.07914734 236.95823669 C 125.96482849 233.53826904 125.85473633 228.02215576 125.84559631 222.71099854 C 125.75207520 217.22410583 126.07067108 213.86955261 126.32006073 207.55943298 C 126.01580048 201.43180847 125.78435516 199.55740356 125.67966461 192.66506958 C 126.03549194 187.00730896 126.47135162 183.46765137 125.87766266 177.91612244 C 124.64212799 172.58526611 128.34770203 167.29875183 129.88041687 173.09698486 C 130.68829346 182.16790771 129.99650574 181.48391724 130.06095886 186.46307373 C 129.68908691 193.67834473 130.14494324 196.11491394 130.12469482 201.55358887 C 130.22900391 208.56759644 129.68743896 210.28767395 129.95166016 216.60653687 C 129.77061462 222.34873962 130.46218872 226.55294800 130.12541199 231.58172607 C 130.40106201 237.07206726 128.70433044 244.35177612 126.07914734 236.95823669" stroke-width="0.80000001" fill="rgb(0, 128, 0)" opacity="1.0" stroke="rgb(0, 0, 0)" stroke-opacity="1.0" stroke-linecap="round" stroke-linejoin="round"/>
    <path d="M 137.14576721 111.93738556 C 136.48274231 115.67627716 135.89672852 122.24902344 133.81362915 126.47630310 C 132.15530396 131.14581299 126.99373627 135.64456177 123.68138123 129.27780151 C 121.34061432 125.44782257 119.56833649 120.28935242 119.31007385 114.66184998 C 118.40423584 109.40468597 118.30557251 105.19416809 117.85133362 99.51285553 C 117.89978790 94.18482971 118.24964142 90.01844025 119.02085876 84.06999207 C 120.16585541 77.45667267 119.76842499 75.69847870 121.61196136 70.90292358 C 125.66063690 65.31341553 128.64921570 61.19521713 132.38183594 66.80881500 C 135.10420227 71.24943542 135.91233826 74.78381348 136.63647461 81.02952576 C 137.38618469 86.14919281 138.00395203 91.61790466 138.07009888 96.20195770 C 138.09602356 102.40097046 137.89356995 105.49635315 137.14576721 111.93738556" stroke-width="0.80000001" fill="rgb(255, 255, 255)" opacity="1.0" stroke="rgb(0, 0, 0)" stroke-opacity="1.0" stroke-linecap="round" stroke-linejoin="round"/>
    <path d="M 152.48667908 105.75409698 C 150.54969788 108.76448059 147.62059021 113.69961548 144.67927551 117.96928406 C 141.41174316 121.85330200 138.44857788 125.77674103 134.20957947 129.37075806 C 130.82633972 131.86207581 124.63468170 135.08604431 123.21620178 127.92047882 C 124.31523132 119.56004333 124.43265533 120.49370575 126.75251770 112.42614746 C 128.33206177 108.63617706 130.81045532 103.53253174 133.62600708 98.51867676 C 137.04597473 93.78782654 137.37992859 90.62207031 140.69165039 86.95798492 C 145.94934082 81.11014557 146.98681641 78.71795654 151.31489563 75.07802582 C 155.97428894 71.84045410 160.87730408 68.84447479 162.73239136 75.68187714 C 162.62577820 82.18087006 160.93675232 86.15687561 159.36840820 90.87719727 C 156.76904297 97.30568695 156.39544678 98.60194397 152.48667908 105.75409698" stroke-width="0.80000001" fill="rgb(255, 255, 255)" opacity="1.0" stroke="rgb(0, 0, 0)" stroke-opacity="1.0" stroke-linecap="round" stroke-linejoin="round"/>
    <path d="M 178.25086975 107.39945984 C 174.66323853 110.71179962 171.55340576 113.31253815 167.21133423 116.55693817 C 161.08953857 120.41247559 161.16271973 120.85194397 153.84016418 124.45350647 C 148.70040894 127.12776184 146.49877930 127.91956329 139.67451477 130.47032166 C 135.91287231 131.63055420 129.56211853 134.46980286 124.47087097 131.03076172 C 121.69447327 127.86887360 125.18008423 122.81009674 129.93942261 118.65019989 C 134.50088501 114.41618347 135.46626282 112.95697021 140.38487244 109.70696259 C 145.69775391 106.58996582 148.90605164 104.48012543 153.38497925 101.67689514 C 159.55422974 98.81687927 162.01887512 97.85756683 168.08457947 95.40774536 C 174.41397095 94.18835449 176.50874329 92.58722687 183.62225342 94.16728973 C 186.16569519 97.79017639 183.08117676 103.83041382 178.25086975 107.39945984" stroke-width="0.80000001" fill="rgb(255, 255, 255)" opacity="1.0" stroke="rgb(0, 0, 0)" stroke-opacity="1.0" stroke-linecap="round" stroke-linejoin="round"/>
    <path d="M 187.69578552 133.31881714 C 182.51617432 135.26358032 178.48324585 136.55111694 173.22756958 136.93608093 C 166.66740417 137.68232727 163.12367249 138.25025940 157.71806335 138.03207397 C 150.86834717 137.90858459 150.36772156 137.82295227 142.66786194 137.08688354 C 136.25448608 135.66445923 133.75942993 135.33032227 127.35464478 133.41038513 C 120.64054108 129.68666077 123.76873779 124.95478058 130.09878540 122.71338654 C 135.58197021 120.74246979 137.12561035 119.61855316 142.49615479 119.04440308 C 149.31568909 118.00151062 152.51564026 118.29570007 157.45211792 118.16036224 C 163.02906799 118.09001923 168.72499084 117.97111511 172.92721558 118.91558838 C 178.85412598 120.07544708 183.34988403 120.77739716 188.22685242 122.71993256 C 194.72735596 124.71199036 193.97177124 132.18954468 187.69578552 133.31881714" stroke-width="0.80000001" fill="rgb(255, 255, 255)" opacity="1.0" stroke="rgb(0, 0, 0)" stroke-opacity="1.0" stroke-linecap="round" stroke-linejoin="round"/>
    <path d="M 179.08959961 162.57464600 C 173.58514404 161.91694641 168.89562988 160.96554565 164.56643677 159.20634460 C 158.38468933 156.87916565 155.64805603 155.43923950 150.54133606 152.35696411 C 144.48214722 149.20298767 142.86888123 148.05288696 137.71995544 144.38531494 C 132.88665771 140.40563965 130.56694031 138.97018433 125.87641144 133.15028381 C 122.78984070 128.53742981 122.90857697 124.17694092 129.82662964 123.77125549 C 137.34907532 124.71569824 137.95365906 124.91419220 143.21252441 126.86058044 C 149.50985718 129.11952209 152.38972473 130.70309448 156.88719177 133.39256287 C 161.55422974 135.87908936 166.90850830 138.79135132 170.03256226 141.45318604 C 174.71420288 145.49728394 178.18997192 148.29101562 181.47666931 151.76339722 C 186.22711182 155.68127441 185.03663635 163.85766602 179.08959961 162.57464600" stroke-width="0.80000001" fill="rgb(255, 255, 255)" opacity="1.0" stroke="rgb(0, 0, 0)" stroke-opacity="1.0" stroke-linecap="round" stroke-linejoin="round"/>
    <path d="M 161.29373169 170.53009033 C 162.07348633 176.31245422 163.66647339 179.15913391 160.17677307 183.70164490 C 155.29867554 185.86944580 151.05741882 180.49139404 147.84509277 177.67449951 C 143.58476257 172.85861206 140.88221741 169.28741455 138.33972168 165.41645813 C 133.74853516 158.72019958 134.20433044 158.73937988 130.40447998 151.58116150 C 128.59541321 148.08357239 126.65971375 142.86538696 124.74012756 137.68281555 C 123.98065186 131.48303223 122.79197693 128.53823853 125.67392731 125.30555725 C 131.59509277 122.69831085 134.47476196 127.12211609 137.99028015 130.38786316 C 142.51335144 134.74388123 144.62303162 138.05657959 147.64984131 142.62261963 C 151.04316711 147.63291931 152.86149597 150.93745422 155.32174683 155.82127380 C 157.84976196 161.25068665 159.31985474 164.34288025 161.29373169 170.53009033" stroke-width="0.80000001" fill="rgb(255, 255, 255)" opacity="1.0" stroke="rgb(0, 0, 0)" stroke-opacity="1.0" stroke-linecap="round" stroke-linejoin="round"/>
    <path d="M 137.07579041 173.11071777 C 136.32614136 177.20811462 135.37872314 183.68539429 133.31555176 187.74368286 C 131.10699463 193.80038452 125.64472198 193.89743042 123.11916351 188.40872192 C 120.72994995 183.57931519 119.58498383 178.60791016 119.07615662 174.02445984 C 118.16320801 167.22520447 118.24666595 163.51808167 117.99338531 158.33808899 C 118.40566254 151.27648926 117.72062683 150.01692200 118.95709229 143.51832581 C 120.85700989 135.24400330 120.04519653 134.88781738 122.03289795 129.44009399 C 125.55082703 124.01440430 130.15681458 120.60879517 132.86695862 127.96849823 C 135.79125977 133.00610352 135.89686584 135.63623047 136.82122803 142.51591492 C 137.58779907 147.97343445 138.08860779 150.85389709 138.20356750 157.80531311 C 137.88209534 161.87258911 137.67147827 167.12905884 137.07579041 173.11071777" stroke-width="0.80000001" fill="rgb(255, 255, 255)" opacity="1.0" stroke="rgb(0, 0, 0)" stroke-opacity="1.0" stroke-linecap="round" stroke-linejoin="round"/>
    <path d="M 112.92512512 171.96559143 C 111.43811035 173.99150085 106.81291199 179.77847290 102.97532654 182.09944153 C 98.29006958 186.14445496 93.30505371 184.88639832 93.39777374 178.47984314 C 93.41825867 172.74232483 95.81218719 167.95831299 97.31974030 163.26019287 C 99.92153168 157.14872742 101.17389679 154.76199341 104.14255524 149.12725830 C 106.64630127 145.19039917 109.00804901 141.16094971 112.55604553 136.64808655 C 116.96128082 131.80033875 117.60449219 130.41070557 121.80844116 126.42556763 C 127.66155243 122.04891968 133.43218994 123.39453888 132.47966003 129.85870361 C 132.30053711 135.81396484 130.17655945 139.28713989 128.79931641 144.40235901 C 126.63842773 149.87347412 124.92245483 153.85398865 122.17342377 158.01814270 C 118.28764343 164.01004028 118.32610321 164.59112549 112.92512512 171.96559143" stroke-width="0.80000001" fill="rgb(255, 255, 255)" opacity="1.0" stroke="rgb(0, 0, 0)" stroke-opacity="1.0" stroke-linecap="round" stroke-linejoin="round"/>
    <path d="M 127.15095520 136.43801880 C 123.33757782 140.14837646 120.96681976 142.10377502 116.20224762 145.88078308 C 110.38734436 149.65077209 110.05149841 150.45220947 102.98067474 153.88398743 C 97.51038361 156.77743530 95.66822815 157.42512512 88.82756042 160.05998230 C 84.94472504 161.32188416 78.91273499 164.09834290 73.12928009 161.81227112 C 69.26303864 159.50874329 72.48471832 153.46984863 77.31559753 149.19706726 C 81.72734833 145.01852417 82.87428284 143.75413513 87.60517883 140.27616882 C 92.91793823 136.77748108 95.68407440 135.11906433 100.59232330 132.19987488 C 106.75070953 129.59310913 107.89250183 128.37181091 115.68438721 125.71757507 C 120.75120544 124.68508911 122.58032227 122.89544678 130.62736511 123.47122192 C 134.97023010 126.18193054 131.65019226 133.16375732 127.15095520 136.43801880" stroke-width="0.80000001" fill="rgb(255, 255, 255)" opacity="1.0" stroke="rgb(0, 0, 0)" stroke-opacity="1.0" stroke-linecap="round" stroke-linejoin="round"/>
    <path d="M 128.62696838 132.85964966 C 124.03086853 134.99456787 118.29559326 136.49794006 114.12158966 136.79656982 C 107.53382874 137.81335449 104.09618378 138.13775635 98.54831696 137.93133545 C 92.81526184 137.74501038 88.99384308 137.98718262 83.12487793 137.14562988 C 78.24453735 136.42205811 73.29473114 135.46476746 67.76618958 132.96943665 C 62.78862000 130.87524414 61.78215027 125.54271698 69.23301697 122.75038910 C 77.37541199 119.83015442 75.06838989 120.76750183 82.00273132 119.32225037 C 88.41790771 118.13082123 91.16992188 118.08351135 96.88066864 118.11419678 C 102.00819397 117.97564697 107.94068909 117.96446228 112.85485077 118.86621094 C 117.86036682 119.84989929 122.12198639 120.57504272 127.33073425 122.48021698 C 133.70681763 123.87017059 134.51522827 131.28225708 128.62696838 132.85964966" stroke-width="0.80000001" fill="rgb(255, 255, 255)" opacity="1.0" stroke="rgb(0, 0, 0)" stroke-opacity="1.0" stroke-linecap="round" stroke-linejoin="round"/>
    <path d="M 130.36669922 122.69547272 C 130.92784119 125.24589539 134.70568848 130.77441406 128.16076660 132.97537231 C 121.62377930 132.25802612 117.39416504 130.89189148 113.06535339 129.25715637 C 107.66045380 127.50258636 103.21302795 124.91618347 99.25842285 123.01359558 C 92.57515717 119.34272766 91.51460266 117.99971008 85.70442200 114.26714325 C 82.00502777 111.22371674 78.70275116 108.86732483 74.27848816 104.01102448 C 71.89360046 98.94335938 70.97235107 94.59619904 76.04735565 93.97767639 C 81.69711304 93.07578278 87.12868500 95.38940430 91.26770020 96.67485046 C 96.67641449 99.20732117 100.51710510 100.47508240 105.15187073 103.25974274 C 109.95690918 105.85645294 113.30094147 108.29083252 118.07562256 111.57691956 C 121.88269043 114.72557068 124.96160889 116.50970459 130.36669922 122.69547272" stroke-width="0.80000001" fill="rgb(255, 255, 255)" opacity="1.0" stroke="rgb(0, 0, 0)" stroke-opacity="1.0" stroke-linecap="round" stroke-linejoin="round"/>
    <path d="M 129.31805420 112.74918365 C 130.34355164 116.18299866 132.86622620 123.13243103 132.44221497 126.68258667 C 132.53240967 133.68142700 127.13507080 133.52079773 122.02526093 129.41947937 C 118.33615875 126.37587738 114.80648804 123.09449768 111.67339325 118.03766632 C 108.56402588 114.14919281 106.47147369 110.14710999 103.33119202 105.40256500 C 100.95112610 100.79312134 98.94814301 97.16530609 96.88880920 91.30538177 C 95.06799316 85.30464172 93.96916199 83.22875214 93.89288330 79.09992981 C 95.12096405 71.66575623 98.54012299 69.90990448 103.87248993 74.57165527 C 108.46868896 78.11824036 110.16836548 80.34644318 114.21595764 85.64646912 C 117.27780914 90.18013000 120.06503296 94.14899445 122.64211273 98.48159027 C 124.98059082 102.66499329 126.81583405 107.03284454 129.31805420 112.74918365" stroke-width="0.80000001" fill="rgb(255, 255, 255)" opacity="1.0" stroke="rgb(0, 0, 0)" stroke-opacity="1.0" stroke-linecap="round" stroke-linejoin="round"/>
    <path d="M 116.71584320 155.79335022 C 112.64524078 154.18305969 108.22510529 151.74714661 102.98211670 144.74612427 C 99.83782196 139.94544983 98.02815247 136.16113281 98.05380249 127.21861267 C 98.27918243 120.87602997 99.19979858 116.95341492 104.34858704 109.33190918 C 108.43731689 104.87750244 111.48689270 101.72171021 120.28621674 98.89797974 C 124.03285217 97.80493164 131.86250305 97.45565033 138.47349548 100.33708191 C 145.22598267 103.35303497 148.90980530 105.48465729 151.45623779 110.12409973 C 156.00038147 118.13523102 157.85530090 120.64021301 157.98576355 128.25218201 C 157.49009705 134.89585876 157.33935547 138.17773438 152.26950073 145.75978088 C 147.03944397 151.58729553 145.59503174 152.99711609 136.87196350 157.53222656 C 129.77966309 159.31509399 127.37981415 158.38958740 116.71584320 155.79335022" stroke-width="0.80000001" fill="rgb(255, 255, 0)" opacity="1.0" stroke="rgb(0, 0, 0)" stroke-opacity="1.0" stroke-linecap="round" stroke-linejoin="round"/>
    <path d="M 185.11666870 189.17098999 C 182.15058899 194.23165894 179.75726318 197.82600403 176.76025391 202.33406067 C 172.64445496 208.22706604 171.81930542 210.04452515 165.38108826 215.09622192 C 161.42091370 218.02375793 156.08578491 220.32304382 150.55661011 221.81518555 C 145.94636536 222.77876282 139.28619385 225.56871033 132.94357300 224.71383667 C 129.07833862 222.00320435 130.49879456 216.77726746 133.45042419 210.41812134 C 136.75514221 204.33024597 137.19613647 201.76545715 141.32836914 197.70849609 C 146.73280334 192.82293701 148.91484070 190.70164490 154.15126038 187.66601562 C 161.08119202 184.75994873 164.07487488 183.77018738 169.90162659 181.83106995 C 177.15823364 180.66146851 179.24752808 179.55410767 186.54281616 178.32788086 C 193.45385742 176.56353760 188.82887268 185.02558899 185.11666870 189.17098999" stroke-width="0.80000001" fill="rgb(148, 206, 79)" opacity="1.0" stroke="rgb(0, 0, 0)" stroke-opacity="1.0" stroke-linecap="round" stroke-linejoin="round"/>
  </g>
</svg>
