<?xml version="1.0" ?>
<svg xmlns="http://www.w3.org/2000/svg" version="1.1" width="256" height="256" viewBox="0 0 256 256">
  <defs/>
  <g>
    <path d="M 257.31738281 213.92950439 C 256.06207275 253.16052246 252.69647217 260.03088379 200.73187256 255.91345215 C 157.36433411 256.35565186 145.18319702 255.41194153 99.64889526 256.25433350 C 62.43029022 254.09838867 21.66362000 263.61346436 3.90288544 249.46136475 C -3.87602234 216.21105957 1.26393127 191.23721313 -0.01557922 147.81455994 C 0.40934753 117.21146393 0.12039185 82.56332397 -1.66423035 45.32196808 C 1.96956635 9.99553680 18.82265472 -7.21221924 52.45742035 0.19453430 C 91.30697632 0.91811371 121.04895020 -1.10459900 153.24513245 0.27483368 C 193.51771545 3.61750031 228.03073120 -6.40296936 253.18203735 3.56876373 C 262.70111084 38.43393707 252.99865723 72.36113739 253.59701538 99.26116943 C 256.07110596 149.97959900 257.83087158 162.07357788 257.31738281 213.92950439" stroke-width="1.00000000" fill="rgb(230, 243, 255)" opacity="1.0"/>
    <path d="M 126.07914734 236.95823669 C 125.96482849 233.53826904 125.85473633 228.02215576 125.84559631 222.71098328 C 125.75207520 217.22410583 126.07067108 213.86953735 126.32005310 207.55943298 C 126.01579285 201.43180847 125.78435516 199.55740356 125.67966461 192.66506958 C 126.03549194 187.00730896 126.47135162 183.46765137 125.87766266 177.91612244 C 124.64212799 172.58526611 128.34770203 167.29875183 129.88041687 173.09700012 C 130.68827820 182.16790771 129.99650574 181.48391724 130.06094360 186.46305847 C 129.68908691 193.67834473 130.14494324 196.11491394 130.12469482 201.55358887 C 130.22900391 208.56759644 129.68742371 210.28767395 129.95166016 216.60652161 C 129.77061462 222.34872437 130.46218872 226.55294800 130.12541199 231.58171082 C 130.40106201 237.07206726 128.70433044 244.35176086 126.07914734 236.95823669" stroke-width="1.00000000" fill="rgb(0, 128, 0)" opacity="1.0"/>
    <path d="M 137.14575195 111.93737793 C 136.48272705 115.67626953 135.89672852 122.24900818 133.81359863 126.47630310 C 132.15528870 131.14579773 126.99372101 135.64454651 123.68137360 129.27778625 C 121.34060669 125.44781494 119.56832886 120.28934479 119.31006622 114.66184998 C 118.40422821 109.40467072 118.30556488 105.19416809 117.85131836 99.51286316 C 117.89978027 94.18482208 118.24962616 90.01843262 119.02085114 84.06999207 C 120.16584015 77.45666504 119.76840210 75.69847870 121.61195374 70.90292358 C 125.66062927 65.31343079 128.64920044 61.19521332 132.38182068 66.80881500 C 135.10420227 71.24943542 135.91232300 74.78381348 136.63645935 81.02952576 C 137.38616943 86.14919281 138.00393677 91.61789703 138.07009888 96.20195007 C 138.09600830 102.40096283 137.89355469 105.49635315 137.14575195 111.93737793" stroke-width="1.00000000" fill="rgb(255, 255, 255)" opacity="1.0"/>
    <path d="M 152.48667908 105.75409698 C 150.54969788 108.76448059 147.62059021 113.69961548 144.67929077 117.96928406 C 141.41174316 121.85329437 138.44857788 125.77673340 134.20957947 129.37075806 C 130.82633972 131.86207581 124.63468933 135.08604431 123.21620941 127.92047882 C 124.31523132 119.56004333 124.43265533 120.49369812 126.75252533 112.42614746 C 128.33206177 108.63617706 130.81045532 103.53253174 133.62602234 98.51867676 C 137.04597473 93.78782654 137.37992859 90.62207794 140.69165039 86.95798492 C 145.94934082 81.11015320 146.98683167 78.71796417 151.31489563 75.07803345 C 155.97430420 71.84046173 160.87728882 68.84448242 162.73239136 75.68188477 C 162.62577820 82.18087769 160.93675232 86.15688324 159.36840820 90.87719727 C 156.76904297 97.30569458 156.39544678 98.60194397 152.48667908 105.75409698" stroke-width="1.00000000" fill="rgb(255, 255, 255)" opacity="1.0"/>
    <path d="M 178.25086975 107.39945984 C 174.66323853 110.71179962 171.55339050 113.31253815 167.21133423 116.55693817 C 161.08953857 120.41248322 161.16271973 120.85195160 153.84016418 124.45350647 C 148.70040894 127.12776184 146.49877930 127.91955566 139.67451477 130.47032166 C 135.91287231 131.63055420 129.56211853 134.46980286 124.47087097 131.03076172 C 121.69448853 127.86886597 125.18009186 122.81008911 129.93942261 118.65019989 C 134.50088501 114.41617584 135.46626282 112.95697021 140.38487244 109.70696259 C 145.69775391 106.58996582 148.90605164 104.48012543 153.38497925 101.67690277 C 159.55422974 98.81687927 162.01887512 97.85756683 168.08457947 95.40774536 C 174.41397095 94.18835449 176.50874329 92.58723450 183.62223816 94.16728973 C 186.16567993 97.79017639 183.08117676 103.83041382 178.25086975 107.39945984" stroke-width="1.00000000" fill="rgb(255, 255, 255)" opacity="1.0"/>
    <path d="M 187.69578552 133.31881714 C 182.51617432 135.26358032 178.48324585 136.55111694 173.22756958 136.93606567 C 166.66740417 137.68232727 163.12368774 138.25025940 157.71806335 138.03207397 C 150.86836243 137.90858459 150.36772156 137.82295227 142.66786194 137.08688354 C 136.25448608 135.66445923 133.75942993 135.33032227 127.35464478 133.41036987 C 120.64054108 129.68666077 123.76874542 124.95478058 130.09878540 122.71338654 C 135.58197021 120.74246979 137.12562561 119.61855316 142.49615479 119.04440308 C 149.31568909 118.00151062 152.51564026 118.29570007 157.45211792 118.16036224 C 163.02906799 118.09002686 168.72499084 117.97111511 172.92721558 118.91558838 C 178.85411072 120.07543945 183.34988403 120.77739716 188.22685242 122.71992493 C 194.72735596 124.71199036 193.97177124 132.18954468 187.69578552 133.31881714" stroke-width="1.00000000" fill="rgb(255, 255, 255)" opacity="1.0"/>
    <path d="M 179.08959961 162.57464600 C 173.58514404 161.91696167 168.89562988 160.96554565 164.56645203 159.20634460 C 158.38468933 156.87918091 155.64805603 155.43923950 150.54135132 152.35694885 C 144.48214722 149.20298767 142.86889648 148.05288696 137.71995544 144.38531494 C 132.88667297 140.40563965 130.56694031 138.97018433 125.87641907 133.15028381 C 122.78984070 128.53744507 122.90858459 124.17694092 129.82662964 123.77125549 C 137.34909058 124.71569824 137.95367432 124.91419983 143.21252441 126.86058044 C 149.50987244 129.11953735 152.38972473 130.70309448 156.88720703 133.39256287 C 161.55424500 135.87907410 166.90852356 138.79133606 170.03256226 141.45320129 C 174.71421814 145.49728394 178.18998718 148.29101562 181.47668457 151.76339722 C 186.22712708 155.68128967 185.03663635 163.85766602 179.08959961 162.57464600" stroke-width="1.00000000" fill="rgb(255, 255, 255)" opacity="1.0"/>
    <path d="M 161.29373169 170.53009033 C 162.07348633 176.31245422 163.66645813 179.15911865 160.17677307 183.70164490 C 155.29866028 185.86943054 151.05741882 180.49139404 147.84509277 177.67449951 C 143.58476257 172.85861206 140.88221741 169.28741455 138.33972168 165.41645813 C 133.74853516 158.72019958 134.20431519 158.73937988 130.40447998 151.58116150 C 128.59542847 148.08357239 126.65972137 142.86538696 124.74012756 137.68281555 C 123.98065186 131.48303223 122.79197693 128.53823853 125.67393494 125.30555725 C 131.59510803 122.69832611 134.47474670 127.12211609 137.99028015 130.38786316 C 142.51335144 134.74389648 144.62303162 138.05657959 147.64984131 142.62261963 C 151.04315186 147.63291931 152.86149597 150.93745422 155.32174683 155.82127380 C 157.84976196 161.25068665 159.31983948 164.34288025 161.29373169 170.53009033" stroke-width="1.00000000" fill="rgb(255, 255, 255)" opacity="1.0"/>
    <path d="M 137.07579041 173.11070251 C 136.32612610 177.20809937 135.37872314 183.68537903 133.31555176 187.74366760 C 131.10697937 193.80036926 125.64472198 193.89741516 123.11916351 188.40870667 C 120.72994995 183.57929993 119.58498383 178.60789490 119.07615662 174.02444458 C 118.16320801 167.22520447 118.24665833 163.51806641 117.99338531 158.33807373 C 118.40566254 151.27648926 117.72062683 150.01690674 118.95709229 143.51831055 C 120.85700226 135.24398804 120.04519653 134.88780212 122.03289795 129.44007874 C 125.55083466 124.01438904 130.15681458 120.60879517 132.86695862 127.96849060 C 135.79125977 133.00608826 135.89686584 135.63621521 136.82121277 142.51589966 C 137.58779907 147.97341919 138.08860779 150.85388184 138.20356750 157.80529785 C 137.88209534 161.87257385 137.67147827 167.12904358 137.07579041 173.11070251" stroke-width="1.00000000" fill="rgb(255, 255, 255)" opacity="1.0"/>
    <path d="M 112.92510986 171.96559143 C 111.43811035 173.99148560 106.81291199 179.77847290 102.97532654 182.09944153 C 98.29006958 186.14443970 93.30505371 184.88639832 93.39778137 178.47982788 C 93.41826630 172.74232483 95.81219482 167.95829773 97.31974030 163.26019287 C 99.92153168 157.14872742 101.17389679 154.76197815 104.14256287 149.12725830 C 106.64629364 145.19039917 109.00804901 141.16094971 112.55604553 136.64807129 C 116.96128082 131.80033875 117.60449219 130.41070557 121.80844116 126.42556763 C 127.66155243 122.04891968 133.43217468 123.39453888 132.47966003 129.85868835 C 132.30053711 135.81396484 130.17655945 139.28713989 128.79931641 144.40235901 C 126.63842010 149.87347412 124.92244720 153.85398865 122.17341614 158.01812744 C 118.28764343 164.01004028 118.32610321 164.59112549 112.92510986 171.96559143" stroke-width="1.00000000" fill="rgb(255, 255, 255)" opacity="1.0"/>
    <path d="M 127.15093994 136.43803406 C 123.33757019 140.14837646 120.96681213 142.10377502 116.20224762 145.88078308 C 110.38734436 149.65075684 110.05149841 150.45220947 102.98067474 153.88398743 C 97.51038361 156.77743530 95.66822815 157.42512512 88.82756042 160.05996704 C 84.94472504 161.32188416 78.91273499 164.09834290 73.12928009 161.81227112 C 69.26303101 159.50874329 72.48471069 153.46984863 77.31559753 149.19706726 C 81.72734833 145.01852417 82.87428284 143.75413513 87.60517883 140.27616882 C 92.91793823 136.77748108 95.68407440 135.11906433 100.59232330 132.19987488 C 106.75070953 129.59310913 107.89250183 128.37181091 115.68438721 125.71757507 C 120.75120544 124.68508911 122.58031464 122.89545441 130.62736511 123.47122192 C 134.97021484 126.18193817 131.65019226 133.16375732 127.15093994 136.43803406" stroke-width="1.00000000" fill="rgb(255, 255, 255)" opacity="1.0"/>
    <path d="M 128.62695312 132.85964966 C 124.03086853 134.99456787 118.29557037 136.49794006 114.12157440 136.79658508 C 107.53381348 137.81336975 104.09616852 138.13775635 98.54830933 137.93135071 C 92.81525421 137.74502563 88.99382782 137.98719788 83.12486267 137.14562988 C 78.24452972 136.42205811 73.29472351 135.46478271 67.76618195 132.96945190 C 62.78860855 130.87524414 61.78214264 125.54273224 69.23301697 122.75039673 C 77.37539673 119.83016968 75.06838226 120.76751709 82.00272369 119.32226562 C 88.41790771 118.13083649 91.16991425 118.08352661 96.88066101 118.11421204 C 102.00817871 117.97566986 107.94065857 117.96446991 112.85484314 118.86623383 C 117.86034393 119.84992218 122.12196350 120.57505798 127.33070374 122.48023987 C 133.70678711 123.87017822 134.51521301 131.28225708 128.62695312 132.85964966" stroke-width="1.00000000" fill="rgb(255, 255, 255)" opacity="1.0"/>
    <path d="M 130.36669922 122.69546509 C 130.92784119 125.24588776 134.70568848 130.77439880 128.16076660 132.97534180 C 121.62377930 132.25802612 117.39417267 130.89187622 113.06535339 129.25714111 C 107.66045380 127.50257111 103.21302795 124.91616821 99.25843048 123.01357269 C 92.57516479 119.34271240 91.51460266 117.99968719 85.70442963 114.26712036 C 82.00502777 111.22370148 78.70275879 108.86731720 74.27849579 104.01101685 C 71.89360809 98.94335938 70.97235870 94.59619141 76.04736328 93.97767639 C 81.69712067 93.07577515 87.12869263 95.38939667 91.26770782 96.67483521 C 96.67642212 99.20731354 100.51711273 100.47507477 105.15187836 103.25972748 C 109.95691681 105.85644531 113.30094910 108.29081726 118.07562256 111.57691193 C 121.88269043 114.72554779 124.96160889 116.50968170 130.36669922 122.69546509" stroke-width="1.00000000" fill="rgb(255, 255, 255)" opacity="1.0"/>
    <path d="M 129.31805420 112.74918365 C 130.34353638 116.18299866 132.86621094 123.13243103 132.44219971 126.68258667 C 132.53239441 133.68141174 127.13506317 133.52078247 122.02526093 129.41947937 C 118.33615112 126.37587738 114.80648804 123.09449768 111.67338562 118.03765869 C 108.56402588 114.14918518 106.47147369 110.14710999 103.33119202 105.40256500 C 100.95112610 100.79311371 98.94815063 97.16530609 96.88881683 91.30538177 C 95.06800842 85.30464172 93.96917725 83.22875977 93.89289093 79.09992981 C 95.12097168 71.66575623 98.54012299 69.90991211 103.87249756 74.57167053 C 108.46868896 78.11824036 110.16836548 80.34644318 114.21595764 85.64646912 C 117.27780914 90.18013763 120.06503296 94.14899445 122.64211273 98.48159027 C 124.98059082 102.66499329 126.81582642 107.03283691 129.31805420 112.74918365" stroke-width="1.00000000" fill="rgb(255, 255, 255)" opacity="1.0"/>
    <path d="M 116.71583557 155.79335022 C 112.64523315 154.18305969 108.22509003 151.74713135 102.98210144 144.74613953 C 99.83780670 139.94544983 98.02813721 136.16113281 98.05378723 127.21861267 C 98.27917480 120.87602234 99.19978333 116.95342255 104.34857941 109.33190918 C 108.43730927 104.87750244 111.48686981 101.72171783 120.28620148 98.89797974 C 124.03285217 97.80492401 131.86248779 97.45565033 138.47348022 100.33708954 C 145.22596741 103.35304260 148.90980530 105.48465729 151.45623779 110.12409973 C 156.00036621 118.13523865 157.85528564 120.64022064 157.98574829 128.25218201 C 157.49008179 134.89585876 157.33934021 138.17774963 152.26950073 145.75978088 C 147.03944397 151.58728027 145.59501648 152.99713135 136.87194824 157.53224182 C 129.77964783 159.31510925 127.37982178 158.38958740 116.71583557 155.79335022" stroke-width="1.00000000" fill="rgb(255, 255, 0)" opacity="1.0"/>
    <path d="M 185.11665344 189.17100525 C 182.15058899 194.23167419 179.75726318 197.82601929 176.76025391 202.33407593 C 172.64443970 208.22706604 171.81930542 210.04454041 165.38107300 215.09623718 C 161.42091370 218.02377319 156.08578491 220.32305908 150.55659485 221.81518555 C 145.94636536 222.77877808 139.28619385 225.56871033 132.94357300 224.71385193 C 129.07833862 222.00320435 130.49877930 216.77728271 133.45042419 210.41813660 C 136.75515747 204.33026123 137.19613647 201.76547241 141.32835388 197.70851135 C 146.73280334 192.82295227 148.91482544 190.70166016 154.15126038 187.66603088 C 161.08117676 184.75996399 164.07487488 183.77018738 169.90162659 181.83108521 C 177.15823364 180.66148376 179.24752808 179.55412292 186.54281616 178.32789612 C 193.45385742 176.56355286 188.82887268 185.02560425 185.11665344 189.17100525" stroke-width="1.00000000" fill="rgb(148, 206, 79)" opacity="1.0"/>
  </g>
</svg>
