<?xml version="1.0" ?>
<svg xmlns="http://www.w3.org/2000/svg" version="1.1" width="256" height="256" viewBox="0 0 256 256">
  <defs/>
  <g>
    <path d="M 298.88589478 222.46726990 C 282.96813965 253.59060669 252.86355591 269.39584351 214.59191895 283.68847656 C 182.19299316 292.45114136 145.17976379 294.73828125 98.79637146 290.29602051 C 58.04975128 283.48416138 19.00888062 275.36322021 -1.29267883 249.52641296 C -20.95407104 221.60749817 -24.82713318 180.14875793 -28.64228821 139.59944153 C -30.27920532 96.89646912 -34.56660461 55.22414398 -33.25294495 22.02498627 C -17.32939148 -6.91408539 0.97296906 -20.75887299 28.51727295 -29.63478851 C 66.57225037 -33.39713287 103.53091431 -29.44501495 144.36401367 -25.79405975 C 190.24868774 -21.00035858 225.42980957 -14.22713470 253.87960815 2.15975952 C 273.32952881 33.66014099 281.99548340 65.89847565 292.58502197 102.44355774 C 302.00723267 143.33161926 304.78808594 187.95318604 298.88589478 222.46726990" stroke-width="2.00000000" fill="rgb(211, 242, 255)" opacity="1.0" stroke="rgb(147, 231, 255)" stroke-opacity="0.34104902" stroke-linecap="round" stroke-linejoin="round"/>
    <path d="M 124.64672089 241.03829956 C 124.01132965 236.63621521 124.36051941 233.43817139 123.94831085 227.63804626 C 123.86740875 222.69496155 123.66642761 217.17298889 123.53192139 211.76058960 C 123.56847382 205.31765747 123.04322052 202.46531677 123.20133209 196.69099426 C 123.87455750 190.22312927 123.73048401 186.27088928 123.97999573 180.98277283 C 123.33953857 175.19447327 127.14875031 170.94393921 130.39280701 176.78428650 C 131.34632874 184.99661255 131.38504028 185.70448303 131.05332947 188.86363220 C 129.21014404 193.46864319 129.82543945 198.43534851 129.91746521 203.49644470 C 129.94488525 211.25477600 129.93902588 213.51168823 130.18704224 218.67301941 C 130.10017395 225.04225159 130.90850830 230.06051636 130.86396790 234.03958130 C 130.92607117 240.91239929 129.71757507 246.02905273 124.64672089 241.03829956" stroke-width="0.75662947" fill="rgb(140, 195, 72)" opacity="1.0" stroke="rgb(132, 184, 82)" stroke-opacity="0.5342857" stroke-linecap="round" stroke-linejoin="round"/>
    <path d="M 135.75360107 108.62837219 C 135.26487732 114.68156433 135.40879822 119.43909454 133.73303223 123.90828705 C 131.15850830 130.38076782 126.82118225 133.88934326 123.48642731 128.53427124 C 119.83020782 123.00487518 118.56805420 118.26211548 118.37183380 112.96961975 C 117.94400024 107.80595398 118.38761139 103.40829468 117.91769409 97.00076294 C 117.87995911 91.75453949 117.52896118 87.24253082 117.67057037 80.71276855 C 118.35873413 74.52246094 118.44002533 72.62284851 120.52263641 67.57160950 C 123.53389740 61.52435303 126.49089813 57.36365128 131.11955261 62.04020691 C 133.92738342 65.84654999 136.10908508 71.86777496 136.48002625 76.72280884 C 137.22462463 81.91593170 136.95358276 87.07707214 136.54258728 92.37690735 C 136.28872681 98.71598816 135.93859863 102.62956238 135.75360107 108.62837219" stroke-width="1.41200686" fill="rgb(251, 255, 255)" opacity="1.0" stroke="rgb(20, 122, 97)" stroke-opacity="0.44829118" stroke-linecap="round" stroke-linejoin="round"/>
    <path d="M 152.25126648 102.58203125 C 149.32829285 107.32705688 146.22766113 111.98162079 144.52685547 116.27806091 C 142.43461609 121.20475769 140.56825256 126.47005463 136.98942566 129.97927856 C 130.98690796 134.63928223 126.69094849 133.88220215 125.14128113 128.26623535 C 123.14096069 122.45417786 124.55699158 117.75808716 127.86847687 112.64329529 C 129.78639221 109.10125732 132.50486755 105.10614014 135.49598694 98.16191864 C 137.85983276 93.57184601 137.86860657 90.52205658 140.70779419 86.19910431 C 144.05412292 80.11503601 145.92004395 76.99404907 150.28311157 73.39104462 C 154.50413513 70.02413177 159.80342102 66.13654327 162.42131042 71.97952271 C 163.07325745 79.08485413 162.07128906 83.22830200 160.28732300 88.05381012 C 158.35806274 93.08008575 156.28639221 96.08071899 152.25126648 102.58203125" stroke-width="1.46918070" fill="rgb(253, 255, 255)" opacity="1.0" stroke="rgb(90, 164, 152)" stroke-opacity="0.67311656" stroke-linecap="round" stroke-linejoin="round"/>
    <path d="M 179.40814209 107.03009796 C 177.22735596 109.36180115 174.62286377 111.40602112 169.02159119 114.55796814 C 165.08537292 116.75627899 160.53453064 118.60628510 155.45693970 121.39891815 C 149.78459167 123.65077209 146.13017273 125.64062500 141.48626709 127.43626404 C 136.15423584 128.60546875 129.86199951 129.93817139 126.68540955 127.21616364 C 125.50120544 122.29719543 129.73867798 119.81044006 135.11227417 115.62419128 C 138.42022705 113.07746887 140.98731995 111.49676514 145.02290344 109.75511169 C 149.72628784 107.75589752 151.53350830 103.55110168 155.73059082 99.82431030 C 160.82986450 96.32067871 164.47390747 94.63019562 168.79570007 93.10651398 C 174.10893250 91.94528198 179.43930054 90.80477905 183.86431885 92.60122681 C 187.32421875 96.02481842 183.68698120 102.07839966 179.40814209 107.03009796" stroke-width="1.38561857" fill="rgb(251, 255, 255)" opacity="1.0" stroke="rgb(76, 159, 149)" stroke-opacity="0.64527065" stroke-linecap="round" stroke-linejoin="round"/>
    <path d="M 188.51998901 133.17622375 C 184.42001343 135.29824829 179.22212219 137.00190735 173.57353210 136.82351685 C 168.74182129 136.92393494 163.71444702 136.88450623 157.62586975 137.06962585 C 152.32185364 137.11148071 147.73368835 137.85157776 142.45097351 138.42810059 C 136.62847900 138.87098694 130.50755310 139.30464172 125.97247314 136.80352783 C 121.45474243 133.34185791 122.80566406 128.57711792 129.84234619 126.63487244 C 135.23704529 124.40835571 137.82131958 122.73442078 141.54351807 121.69628906 C 147.19540405 120.38323975 151.91558838 120.25277710 157.41983032 119.20040131 C 162.55590820 118.51750946 167.23049927 117.21967316 173.36257935 117.58666992 C 178.09071350 117.72924805 184.59069824 119.20549774 188.80368042 121.25582123 C 194.49592590 123.79634094 194.75506592 130.29159546 188.51998901 133.17622375" stroke-width="1.48666406" fill="rgb(254, 255, 254)" opacity="1.0" stroke="rgb(78, 156, 147)" stroke-opacity="0.5801127" stroke-linecap="round" stroke-linejoin="round"/>
    <path d="M 181.26498413 162.56555176 C 177.02449036 162.69906616 171.71411133 162.52413940 167.27239990 160.95942688 C 162.27859497 159.34465027 158.64202881 156.88690186 153.74641418 153.81208801 C 148.51072693 151.18617249 144.48933411 148.97717285 140.46188354 146.35060120 C 135.79034424 144.37844849 132.33563232 141.79756165 127.49664307 137.22521973 C 124.94538879 132.48287964 125.55435944 128.64564514 131.33355713 127.13526154 C 136.88446045 127.43878174 139.80104065 128.05105591 142.09349060 130.36799622 C 146.39323425 133.84045410 151.59536743 136.62150574 156.07807922 136.57899475 C 161.43484497 137.85914612 165.75080872 137.90245056 170.22808838 140.94528198 C 175.10858154 143.15827942 179.30961609 147.58224487 181.82102966 150.51283264 C 185.73571777 155.85746765 188.17044067 161.48908997 181.26498413 162.56555176" stroke-width="1.36165440" fill="rgb(254, 255, 255)" opacity="1.0" stroke="rgb(111, 179, 173)" stroke-opacity="0.8536036" stroke-linecap="round" stroke-linejoin="round"/>
    <path d="M 161.63484192 170.85379028 C 162.52702332 175.47471619 163.54226685 180.40463257 160.83204651 184.43469238 C 157.06922913 186.63349915 152.34596252 182.47950745 148.29237366 178.91647339 C 144.41871643 174.94102478 142.10389709 170.89825439 139.38075256 166.23512268 C 136.60475159 161.24020386 134.57299805 156.42405701 132.64910889 152.47877502 C 130.73367310 148.62190247 128.91242981 143.96971130 126.00541687 138.53015137 C 124.97546387 133.12640381 124.27038574 129.86108398 126.58774567 126.32151794 C 131.14427185 125.63957214 135.38952637 128.07138062 139.32562256 132.73442078 C 141.61624146 137.17353821 142.65979004 141.35104370 145.59478760 145.10054016 C 149.15539551 149.75790405 152.38755798 152.57466125 155.06198120 156.88336182 C 158.24102783 161.46633911 159.93466187 165.53434753 161.63484192 170.85379028" stroke-width="1.46439254" fill="rgb(252, 255, 252)" opacity="1.0" stroke="rgb(26, 120, 94)" stroke-opacity="0.4055976" stroke-linecap="round" stroke-linejoin="round"/>
    <path d="M 136.54208374 174.23524475 C 136.11918640 178.06669617 134.45252991 184.95870972 132.38496399 188.12654114 C 129.73762512 193.95492554 125.09490204 194.13815308 121.86010742 188.45256042 C 119.53863525 183.73283386 118.21347046 179.03039551 118.12419891 173.74780273 C 117.49745941 168.57337952 118.01058197 164.27774048 118.02897644 158.62254333 C 118.29229736 152.29827881 118.45715332 149.46682739 118.94978333 143.00131226 C 119.44561768 136.54766846 118.45316315 135.10882568 120.31127167 130.11006165 C 124.59570312 124.70219421 128.67871094 123.23892212 130.64015198 129.57159424 C 132.51022339 134.04809570 133.47102356 139.67517090 133.66398621 144.11805725 C 133.83271790 149.65643311 134.26965332 153.64169312 135.59648132 158.85563660 C 136.46046448 163.26585388 136.86352539 168.07412720 136.54208374 174.23524475" stroke-width="1.47535074" fill="rgb(253, 255, 255)" opacity="1.0" stroke="rgb(93, 164, 145)" stroke-opacity="0.7233217" stroke-linecap="round" stroke-linejoin="round"/>
    <path d="M 112.40182495 172.27261353 C 110.01955414 176.17872620 105.63434601 180.90869141 102.31835938 182.69261169 C 97.23610687 186.69261169 92.26213074 186.48074341 91.97384644 180.04913330 C 91.23144531 173.42604065 93.54641724 168.56982422 95.11605835 164.92448425 C 97.86985779 158.49136353 100.04412079 155.83016968 102.57456207 151.42288208 C 105.73236847 146.80906677 107.50335693 144.29080200 111.76834106 138.95306396 C 115.66352844 134.22306824 116.64465332 132.60795593 119.50066376 128.53138733 C 123.18103790 123.64055634 129.33947754 124.95310974 129.86047363 129.62301636 C 126.27636719 135.07745361 124.15396881 138.25222778 122.87847137 143.52052307 C 120.70846558 149.89816284 120.46181488 152.49339294 118.72163391 157.95611572 C 117.18338013 162.43092346 116.23899841 165.84065247 112.40182495 172.27261353" stroke-width="1.35931015" fill="rgb(255, 255, 255)" opacity="1.0" stroke="rgb(115, 182, 172)" stroke-opacity="0.8758267" stroke-linecap="round" stroke-linejoin="round"/>
    <path d="M 116.92742157 133.12181091 C 113.25955200 136.90728760 111.63855743 139.08044434 108.24611664 143.78398132 C 104.95266724 147.58691406 103.59249115 150.61798096 98.74185181 155.35423279 C 95.72077179 157.80046082 91.69380951 159.58456421 85.83513641 161.24263000 C 81.49714661 162.09619141 74.96846008 163.92388916 70.46480560 161.65789795 C 67.33132172 158.09136963 70.07102966 154.20594788 74.18959045 149.07504272 C 78.06268311 145.40954590 79.22761536 144.08087158 83.60407257 141.57711792 C 88.99325562 138.52461243 92.20365906 136.50663757 95.88325500 133.49974060 C 99.65059662 130.44845581 103.80522156 127.74968719 108.23146820 125.02783966 C 112.77042389 123.27218628 117.06469727 120.42052460 122.48706818 120.80541229 C 125.71817780 123.12097168 120.92727661 129.52079773 116.92742157 133.12181091" stroke-width="1.41440201" fill="rgb(255, 255, 255)" opacity="1.0" stroke="rgb(74, 151, 138)" stroke-opacity="0.5814223" stroke-linecap="round" stroke-linejoin="round"/>
    <path d="M 127.80927277 131.61920166 C 123.04741669 133.04397583 117.56403351 134.78634644 112.96988678 134.95989990 C 107.05029297 135.59974670 102.38885498 135.74105835 96.57479858 136.19313049 C 91.29555511 136.37738037 86.77114868 137.61489868 80.80680084 137.06622314 C 75.60929871 136.90235901 69.09131622 135.22587585 64.56700134 132.82597351 C 59.28797913 129.56216431 58.20862198 123.92625427 65.95114136 121.01049805 C 71.16053772 118.75921631 73.78385925 118.23722076 77.82206726 117.94822693 C 83.93359375 117.43147278 89.39230347 117.92659760 94.63674927 117.71850586 C 100.93914032 117.64605713 105.65359497 117.34255981 110.64960480 117.89424133 C 116.04414368 118.47254181 121.48552704 120.10131836 126.54358673 122.51066589 C 133.59548950 124.52157593 136.15437317 129.65707397 127.80927277 131.61920166" stroke-width="1.43936944" fill="rgb(252, 255, 255)" opacity="1.0" stroke="rgb(13, 117, 100)" stroke-opacity="0.37401813" stroke-linecap="round" stroke-linejoin="round"/>
    <path d="M 130.78033447 119.81871033 C 131.03189087 124.04238129 131.41157532 128.81945801 128.33557129 133.32202148 C 124.19020081 134.91923523 119.01602936 129.62199402 114.78407288 126.60200500 C 109.83232880 122.50749207 106.15601349 120.42220306 101.08257294 119.22860718 C 93.32683563 117.47829437 89.53675842 116.49968719 84.50669861 113.95151520 C 79.32060242 111.02770233 76.05276489 108.74875641 71.49427795 103.12147522 C 68.50307465 97.29338074 68.09028625 93.14547729 71.61618042 92.12491608 C 76.90861511 90.80075073 83.69183350 92.28948975 88.29526520 93.83357239 C 93.73831177 96.02048492 97.14592743 98.53404236 102.45767212 101.32130432 C 107.36471558 103.81798553 112.38671112 106.11277008 117.49092102 108.91408539 C 123.27605438 112.40489197 127.26475525 112.81974030 130.78033447 119.81871033" stroke-width="1.34523523" fill="rgb(254, 255, 255)" opacity="1.0" stroke="rgb(47, 134, 116)" stroke-opacity="0.4842479" stroke-linecap="round" stroke-linejoin="round"/>
    <path d="M 125.43114471 110.97257996 C 126.77632904 115.23916626 129.10043335 120.83401489 130.05249023 124.97201538 C 129.78210449 130.49188232 124.46299744 131.38259888 118.75504303 127.09220886 C 115.58399963 123.81742096 113.91757965 119.98840332 111.08819580 113.94105530 C 108.56733704 109.76383209 105.78891754 105.72052765 101.90534973 100.99838257 C 99.37955475 97.95474243 96.77523804 94.04074860 93.77913666 87.46121216 C 92.29426575 82.39241028 91.81882477 80.90101624 91.70636749 75.72035217 C 91.53543091 68.49281311 95.88616943 66.77133179 102.13997650 71.15740204 C 105.82584381 73.61885071 109.86051941 78.07389832 112.26020813 82.41159058 C 114.88066101 87.28008270 116.86952209 91.45722198 118.77404022 96.28096008 C 121.57811737 101.81790924 122.99455261 105.31543732 125.43114471 110.97257996" stroke-width="1.36073399" fill="rgb(254, 255, 253)" opacity="1.0" stroke="rgb(61, 145, 129)" stroke-opacity="0.5514343" stroke-linecap="round" stroke-linejoin="round"/>
    <path d="M 109.45501709 150.63116455 C 105.94078827 148.27351379 102.86488342 144.27496338 100.13371277 137.52293396 C 98.13469696 132.00271606 97.32672119 124.70211029 99.43989563 119.37313843 C 101.33197784 113.24711609 104.86676788 107.52183533 109.86540985 104.11309052 C 114.55983734 100.29861450 119.99032593 98.01900482 127.83148193 97.91050720 C 132.13543701 97.92791748 138.09671021 99.00866699 145.34367371 104.14577484 C 149.35354614 108.01344299 151.96795654 110.19661713 154.00836182 115.67253113 C 156.43345642 123.36386108 157.21299744 127.07069397 155.42143250 134.82882690 C 154.53799438 139.10258484 152.41943359 144.61854553 145.70399475 150.02653503 C 141.37515259 153.82083130 136.95840454 155.64457703 129.28863525 156.58889771 C 122.87455750 156.71788025 118.28057861 156.27511597 109.45501709 150.63116455" stroke-width="0.92320913" fill="rgb(251, 199, 30)" opacity="1.0" stroke="rgb(238, 214, 140)" stroke-opacity="1.0" stroke-linecap="round" stroke-linejoin="round"/>
    <path d="M 183.73574829 191.24075317 C 180.64154053 196.52154541 178.76562500 199.38499451 175.62471008 204.12390137 C 171.08743286 210.31958008 170.10340881 211.83547974 163.70697021 216.04965210 C 157.79028320 219.75778198 153.04431152 221.33082581 148.54014587 222.38307190 C 141.93983459 223.20603943 135.31864929 224.90252686 131.22201538 223.32064819 C 130.11767578 217.75225830 132.07035828 214.67311096 135.36326599 207.35102844 C 138.34075928 202.45568848 139.62739563 199.69802856 143.41867065 196.93777466 C 147.74533081 193.61694336 150.60481262 190.17489624 155.96415710 187.46710205 C 162.44483948 185.25686646 166.10858154 183.67997742 171.48184204 181.97831726 C 178.83485413 180.59500122 180.96835327 180.00030518 188.85591125 178.97921753 C 194.10656738 177.93789673 185.85877991 187.85197449 183.73574829 191.24075317" stroke-width="0.77542931" fill="rgb(147, 205, 76)" opacity="1.0" stroke="rgb(110, 170, 0)" stroke-opacity="0.36012167" stroke-linecap="round" stroke-linejoin="round"/>
  </g>
</svg>
