<svg xmlns="http://www.w3.org/2000/svg" viewBox="0 0 256 256" height="256.0px" width="256.0px">
<path id="" fill="#e6f3ff" fill-opacity="1.0" stroke="#000000" stroke-width="0.0" stroke-opacity="1.0" stroke-linecap="round" stroke-linejoin="round"  filling="0" d="M0.000 0.000 C85.334 0.000 170.667 0.000 256.000 0.000 C256.000 85.334 256.000 170.667 256.000 256.000 C170.667 256.000 85.334 256.000 0.000 256.000 C0.000 170.667 0.000 85.334 0.000 0.000"></path>
<path id="" fill="#008000" fill-opacity="1.0" stroke="#000000" stroke-width="0.0" stroke-opacity="1.0" stroke-linecap="round" stroke-linejoin="round"  filling="0" d="M130.000 170.000 C130.000 193.333 130.000 216.667 130.000 240.000 C128.667 240.000 127.334 240.000 126.000 240.000 C126.000 216.667 126.000 193.333 126.000 170.000 C127.334 170.000 128.667 170.000 130.000 170.000"></path>
<path id="" fill="#ffffff" fill-opacity="1.0" stroke="#000000" stroke-width="0.0" stroke-opacity="1.0" stroke-linecap="round" stroke-linejoin="round"  filling="0" d="M138.000 98.000 C138.000 107.279 136.945 116.188 135.071 122.748 C133.197 129.310 130.651 133.000 128.000 133.000 C125.349 133.000 122.803 129.310 120.929 122.748 C119.054 116.188 118.000 107.279 118.000 98.000 C118.000 88.721 119.054 79.812 120.929 73.252 C122.803 66.690 125.349 63.000 128.000 63.000 C130.651 63.000 133.197 66.690 135.071 73.252 C136.945 79.812 138.000 88.721 138.000 98.000"></path>
<path id="" fill="#ffffff" fill-opacity="1.0" stroke="#000000" stroke-width="0.0" stroke-opacity="1.0" stroke-linecap="round" stroke-linejoin="round"  filling="0" d="M151.660 107.019 C141.995 123.759 130.283 135.092 125.500 132.330 C120.717 129.568 124.675 113.759 134.340 97.019 C144.005 80.279 155.717 68.947 160.500 71.709 C165.283 74.470 161.325 90.279 151.660 107.019"></path>
<path id="" fill="#ffffff" fill-opacity="1.0" stroke="#000000" stroke-width="0.0" stroke-opacity="1.0" stroke-linecap="round" stroke-linejoin="round"  filling="0" d="M158.981 121.660 C142.240 131.325 126.432 135.283 123.670 130.500 C120.909 125.717 132.240 114.005 148.981 104.340 C165.721 94.675 181.530 90.717 184.292 95.500 C187.053 100.283 175.721 111.995 158.981 121.660"></path>
<path id="" fill="#ffffff" fill-opacity="1.0" stroke="#000000" stroke-width="0.0" stroke-opacity="1.0" stroke-linecap="round" stroke-linejoin="round"  filling="0" d="M158.000 138.000 C138.670 138.000 123.000 133.523 123.000 128.000 C123.000 122.477 138.670 118.000 158.000 118.000 C177.330 118.000 193.000 122.477 193.000 128.000 C193.000 133.523 177.330 138.000 158.000 138.000"></path>
<path id="" fill="#ffffff" fill-opacity="1.0" stroke="#000000" stroke-width="0.0" stroke-opacity="1.0" stroke-linecap="round" stroke-linejoin="round"  filling="0" d="M148.981 151.660 C132.240 141.995 120.909 130.283 123.670 125.500 C126.432 120.717 142.240 124.675 158.981 134.340 C175.721 144.005 187.053 155.717 184.292 160.500 C181.530 165.283 165.721 161.325 148.981 151.660"></path>
<path id="" fill="#ffffff" fill-opacity="1.0" stroke="#000000" stroke-width="0.0" stroke-opacity="1.0" stroke-linecap="round" stroke-linejoin="round"  filling="0" d="M134.340 158.981 C124.675 142.240 120.717 126.432 125.500 123.670 C130.283 120.909 141.995 132.240 151.661 148.981 C161.325 165.721 165.283 181.530 160.500 184.292 C155.717 187.053 144.005 175.721 134.340 158.981"></path>
<path id="" fill="#ffffff" fill-opacity="1.0" stroke="#000000" stroke-width="0.0" stroke-opacity="1.0" stroke-linecap="round" stroke-linejoin="round"  filling="0" d="M118.000 158.000 C118.000 138.670 122.477 123.000 128.000 123.000 C133.523 123.000 138.000 138.670 138.000 158.000 C138.000 177.330 133.523 193.000 128.000 193.000 C122.477 193.000 118.000 177.330 118.000 158.000"></path>
<path id="" fill="#ffffff" fill-opacity="1.0" stroke="#000000" stroke-width="0.0" stroke-opacity="1.0" stroke-linecap="round" stroke-linejoin="round"  filling="0" d="M104.340 148.981 C114.005 132.240 125.717 120.909 130.500 123.670 C135.283 126.432 131.325 142.240 121.660 158.981 C111.995 175.721 100.283 187.053 95.500 184.292 C90.717 181.530 94.675 165.721 104.340 148.981"></path>
<path id="" fill="#ffffff" fill-opacity="1.0" stroke="#000000" stroke-width="0.0" stroke-opacity="1.0" stroke-linecap="round" stroke-linejoin="round"  filling="0" d="M97.019 134.340 C113.759 124.675 129.568 120.717 132.330 125.500 C135.092 130.283 123.759 141.995 107.019 151.661 C90.279 161.325 74.470 165.283 71.709 160.500 C68.947 155.717 80.279 144.005 97.019 134.340"></path>
<path id="" fill="#ffffff" fill-opacity="1.0" stroke="#000000" stroke-width="0.0" stroke-opacity="1.0" stroke-linecap="round" stroke-linejoin="round"  filling="0" d="M98.000 118.000 C117.330 118.000 133.000 122.477 133.000 128.000 C133.000 133.523 117.330 138.000 98.000 138.000 C78.670 138.000 63.000 133.523 63.000 128.000 C63.000 122.477 78.670 118.000 98.000 118.000"></path>
<path id="" fill="#ffffff" fill-opacity="1.0" stroke="#000000" stroke-width="0.0" stroke-opacity="1.0" stroke-linecap="round" stroke-linejoin="round"  filling="0" d="M107.019 104.340 C123.759 114.005 135.092 125.717 132.330 130.500 C129.568 135.283 113.759 131.325 97.019 121.660 C80.279 111.995 68.947 100.283 71.709 95.500 C74.470 90.717 90.279 94.675 107.019 104.340"></path>
<path id="" fill="#ffffff" fill-opacity="1.0" stroke="#000000" stroke-width="0.0" stroke-opacity="1.0" stroke-linecap="round" stroke-linejoin="round"  filling="0" d="M121.660 97.019 C131.325 113.759 135.283 129.568 130.500 132.330 C125.717 135.092 114.005 123.759 104.340 107.019 C94.675 90.279 90.717 74.470 95.500 71.709 C100.283 68.947 111.995 80.279 121.660 97.019"></path>
<path id="" fill="#ffff00" fill-opacity="1.0" stroke="#000000" stroke-width="0.0" stroke-opacity="1.0" stroke-linecap="round" stroke-linejoin="round"  filling="0" d="M158.000 128.000 C158.000 135.954 154.837 143.589 149.213 149.213 C143.589 154.837 135.954 158.000 128.000 158.000 C120.047 158.000 112.410 154.837 106.787 149.213 C101.163 143.589 98.000 135.954 98.000 128.000 C98.000 120.047 101.163 112.410 106.787 106.787 C112.410 101.163 120.047 98.000 128.000 98.000 C135.954 98.000 143.589 101.163 149.213 106.787 C154.837 112.410 158.000 120.047 158.000 128.000"></path>
<path id="" fill="#94ce4f" fill-opacity="1.0" stroke="#000000" stroke-width="0.0" stroke-opacity="1.0" stroke-linecap="round" stroke-linejoin="round"  filling="0" d="M130.750 223.000 C130.750 221.167 130.750 219.333 130.750 217.500 C130.917 217.333 131.083 217.167 131.250 217.000 C131.583 215.333 131.917 213.667 132.250 212.000 C133.083 210.167 133.917 208.333 134.750 206.500 C136.083 204.500 137.417 202.500 138.750 200.500 C140.833 198.417 142.917 196.333 145.000 194.250 C146.500 193.083 148.000 191.917 149.500 190.750 C151.833 189.250 154.167 187.750 156.500 186.250 C157.500 186.250 158.500 186.250 159.500 186.250 C160.667 185.417 161.833 184.583 163.000 183.750 C163.500 183.750 164.000 183.750 164.500 183.750 C167.333 182.750 170.167 181.750 173.000 180.750 C173.667 180.750 174.333 180.750 175.000 180.750 C176.000 180.417 177.000 180.083 178.000 179.750 C179.000 179.750 180.000 179.750 181.000 179.750 C181.167 179.583 181.333 179.417 181.500 179.250 C182.833 179.250 184.167 179.250 185.500 179.250 C185.667 179.083 185.833 178.917 186.000 178.750 C187.750 178.833 189.500 178.917 191.250 179.000 C186.250 187.167 181.250 195.333 176.250 203.500 C175.250 204.833 174.250 206.167 173.250 207.500 C171.000 209.750 168.750 212.000 166.500 214.250 C165.833 214.583 165.167 214.917 164.500 215.250 C164.000 215.750 163.500 216.250 163.000 216.750 C160.667 217.917 158.333 219.083 156.000 220.250 C153.833 220.917 151.667 221.583 149.500 222.250 C148.833 222.250 148.167 222.250 147.500 222.250 C146.500 222.583 145.500 222.917 144.500 223.250 C143.167 223.250 141.833 223.250 140.500 223.250 C140.333 223.417 140.167 223.583 140.000 223.750 C137.167 223.750 134.333 223.750 131.500 223.750 C131.250 223.500 131.000 223.250 130.750 223.000"></path>
</svg>