<?xml version="1.0" ?>
<svg xmlns="http://www.w3.org/2000/svg" version="1.1" width="256" height="256" viewBox="0 0 256 256">
  <defs/>
  <g>
    <path d="M 292.88531494 218.46473694 C 276.77975464 248.82870483 246.21284485 263.04257202 209.20343018 276.32562256 C 177.52172852 283.97656250 141.27769470 285.34472656 96.12568665 282.84130859 C 54.44167328 277.47534180 16.52892303 273.15051270 -3.11994934 249.03869629 C -21.67108154 221.68133545 -22.21379089 181.47160339 -24.54254150 140.63888550 C -24.76228333 99.31709290 -28.38078308 58.14579773 -27.00918579 25.52585602 C -10.69248962 -1.85555267 6.94881439 -15.92745972 33.14309692 -24.79203796 C 70.04405212 -28.27330017 106.21703339 -24.26219177 146.19869995 -21.15811157 C 190.92010498 -16.81596375 225.79626465 -12.49966431 253.85403442 2.10781860 C 272.07482910 33.71183777 279.22259521 66.82309723 288.58956909 101.88035583 C 297.43676758 141.89076233 299.85269165 185.90892029 292.88531494 218.46473694" stroke-width="2.00000000" fill="rgb(210, 241, 255)" opacity="1.0" stroke="rgb(146, 231, 255)" stroke-opacity="0.3681447" stroke-linecap="round" stroke-linejoin="round"/>
    <path d="M 124.59388733 240.34854126 C 124.18992615 235.64961243 124.37837219 232.68109131 124.06301880 226.88829041 C 123.82279205 221.85464478 123.75337982 216.68676758 123.62980652 211.04965210 C 123.51890564 204.74737549 123.07847595 201.82629395 123.32963562 196.02120972 C 124.11940002 189.28962708 124.56604767 185.61697388 124.58824158 180.51881409 C 124.42851257 174.60491943 127.73141479 170.02743530 131.08927917 175.86119080 C 131.97610474 184.68859863 132.32374573 184.52616882 131.25939941 188.36866760 C 128.96403503 193.95257568 129.84873962 198.62408447 129.80987549 203.53062439 C 129.65763855 211.10855103 129.92866516 213.60305786 130.22584534 218.76116943 C 130.20816040 225.03826904 130.77032471 229.85737610 130.87680054 234.16902161 C 130.96182251 240.25685120 128.98056030 246.66052246 124.59388733 240.34854126" stroke-width="0.75457287" fill="rgb(141, 195, 74)" opacity="1.0" stroke="rgb(127, 179, 72)" stroke-opacity="0.5321305" stroke-linecap="round" stroke-linejoin="round"/>
    <path d="M 135.59375000 109.30571747 C 135.03330994 115.57148743 135.27293396 120.29187012 133.63565063 124.73475647 C 131.10491943 131.34017944 126.78250885 135.35153198 123.41217041 129.82997131 C 119.93219757 123.74543762 119.47806549 119.04542542 119.25553131 113.63288116 C 118.73815155 108.20310211 118.91611481 103.79880524 118.14456177 97.35326385 C 117.88792419 92.08547974 117.48986816 87.60072327 117.64022827 80.94905853 C 118.33960724 74.52634430 118.41421509 72.78514099 120.50970459 67.52413940 C 123.58399200 61.33089447 126.94734955 57.26684570 131.31723022 62.18652344 C 133.94816589 65.67681885 136.34239197 71.93268585 136.60371399 76.95859528 C 137.29231262 82.55895996 136.87634277 87.49711609 136.50924683 92.76089478 C 136.23788452 99.17358398 135.72666931 103.60855865 135.59375000 109.30571747" stroke-width="1.40624249" fill="rgb(254, 255, 255)" opacity="1.0" stroke="rgb(6, 111, 83)" stroke-opacity="0.42173842" stroke-linecap="round" stroke-linejoin="round"/>
    <path d="M 151.97142029 102.83738708 C 148.98057556 107.62119293 145.85380554 112.01235962 143.93087769 116.29896545 C 141.51872253 121.23483276 139.45075989 126.17396545 135.97590637 129.73846436 C 130.16203308 134.61958313 125.71013641 134.13836670 124.22924042 127.64868927 C 122.61582947 122.75311279 123.99604797 117.64638519 127.05503845 112.23356628 C 129.08914185 108.26411438 132.16729736 104.45446777 135.48335266 97.76345062 C 138.01977539 93.41741943 138.03712463 90.21240997 140.82638550 85.93408203 C 144.10858154 80.04560089 146.04965210 76.69212341 150.60116577 73.08117676 C 155.02397156 69.60806274 160.27972412 66.00942993 162.44369507 72.34606171 C 162.97814941 79.53481293 161.91950989 83.42700195 160.05831909 88.32670593 C 158.07347107 93.41620636 155.94082642 96.54839325 151.97142029 102.83738708" stroke-width="1.44560719" fill="rgb(255, 255, 253)" opacity="1.0" stroke="rgb(95, 167, 156)" stroke-opacity="0.7202074" stroke-linecap="round" stroke-linejoin="round"/>
    <path d="M 179.22598267 107.22254181 C 177.09117126 109.49240875 174.44100952 111.43678284 168.87568665 114.70132446 C 164.83703613 116.93109131 160.43511963 118.87107086 155.31018066 121.86997223 C 149.99986267 124.02913666 146.01364136 126.13197327 141.20748901 128.15457153 C 136.56417847 129.40583801 129.32373047 131.04695129 126.11154175 127.78567505 C 124.45581055 123.25722504 129.02355957 120.48235321 134.65567017 116.25157166 C 138.12133789 113.46048737 139.94712830 112.07144928 144.57301331 109.48361969 C 149.85371399 107.78480530 151.35728455 103.85540009 155.37249756 100.05221558 C 160.47003174 96.41326904 164.50895691 94.64641571 168.92005920 93.05055237 C 174.41288757 91.98270416 179.44769287 90.60164642 184.03059387 92.68034363 C 187.25131226 96.27274323 183.70346069 102.10244751 179.22598267 107.22254181" stroke-width="1.41365886" fill="rgb(255, 255, 254)" opacity="1.0" stroke="rgb(64, 149, 138)" stroke-opacity="0.6308426" stroke-linecap="round" stroke-linejoin="round"/>
    <path d="M 188.32994080 133.24613953 C 183.73144531 135.60504150 178.93237305 137.02096558 173.45854187 136.83618164 C 168.41668701 136.90191650 163.50041199 136.98173523 157.49656677 137.03086853 C 152.24212646 137.03520203 147.76434326 137.64791870 142.48229980 137.97660828 C 137.00881958 138.12176514 130.75680542 138.19671631 125.97717285 135.77261353 C 121.31128693 132.81721497 123.19999695 128.00804138 130.24218750 126.14974213 C 135.63383484 124.11510468 138.02526855 122.53645325 142.25497437 121.60003662 C 148.06629944 120.33549500 152.43472290 120.18173218 157.94082642 119.12683868 C 162.94595337 118.55797577 167.68600464 117.24467468 173.82002258 117.63453674 C 178.54067993 117.85253143 184.99833679 119.39479828 189.17663574 121.49871063 C 194.97351074 124.21024323 194.13769531 130.83932495 188.32994080 133.24613953" stroke-width="1.48631608" fill="rgb(255, 255, 255)" opacity="1.0" stroke="rgb(80, 158, 149)" stroke-opacity="0.5812345" stroke-linecap="round" stroke-linejoin="round"/>
    <path d="M 180.75604248 162.63653564 C 175.59918213 162.48014832 171.07516479 162.41200256 166.44430542 160.65042114 C 161.90133667 158.89854431 158.16531372 156.71037292 153.27670288 153.52743530 C 147.83848572 150.85818481 144.86260986 149.07751465 140.49574280 146.13772583 C 135.76681519 143.63850403 132.73915100 141.35115051 127.82800293 136.78411865 C 124.36315918 132.09609985 125.92204285 128.24697876 131.67153931 127.33899689 C 138.09982300 127.49286652 140.06732178 128.04327393 143.29696655 129.99493408 C 148.77510071 132.37400818 152.76216125 134.90843201 157.52450562 136.25004578 C 162.40084839 138.22181702 167.23156738 138.98103333 171.29731750 141.44679260 C 176.21466064 144.08581543 179.94953918 148.24562073 182.29553223 151.21882629 C 186.46948242 156.71328735 187.31649780 162.16914368 180.75604248 162.63653564" stroke-width="1.36204708" fill="rgb(254, 255, 255)" opacity="1.0" stroke="rgb(81, 161, 150)" stroke-opacity="0.6400067" stroke-linecap="round" stroke-linejoin="round"/>
    <path d="M 161.72601318 170.97962952 C 162.57942200 175.62815857 163.63409424 180.53677368 160.82249451 184.45962524 C 157.13285828 186.67138672 152.22749329 182.37635803 148.19807434 178.82405090 C 144.25915527 174.76303101 141.97140503 170.75013733 139.31365967 166.14257812 C 136.45510864 160.97401428 134.47105408 156.30574036 132.52362061 152.34445190 C 130.61701965 148.60372925 128.79783630 143.79130554 125.77616119 138.17639160 C 124.80415344 133.10479736 123.92106628 129.93711853 126.40817261 126.05131531 C 131.26776123 124.59970093 134.99964905 126.93817139 138.95477295 132.18354797 C 141.64518738 136.90852356 142.83540344 141.01391602 145.78468323 144.94075012 C 149.24940491 149.62289429 152.29010010 152.49160767 155.09626770 156.88566589 C 158.26370239 161.46588135 160.00411987 165.46012878 161.72601318 170.97962952" stroke-width="1.44755495" fill="rgb(254, 255, 255)" opacity="1.0" stroke="rgb(12, 111, 82)" stroke-opacity="0.4093934" stroke-linecap="round" stroke-linejoin="round"/>
    <path d="M 136.54316711 174.00816345 C 136.27200317 177.53695679 134.45788574 184.50588989 132.52528381 187.73875427 C 129.70364380 193.93423462 125.17360687 194.20504761 121.92299652 188.52519226 C 119.47128296 183.89971924 118.16643524 178.86346436 118.11998749 173.84757996 C 117.45924377 167.47554016 117.74864197 163.13215637 117.75369263 158.49082947 C 118.19279480 150.94508362 117.79274750 149.15068054 118.41114807 142.32514954 C 118.84336853 135.81314087 118.37023926 135.14636230 120.12653351 129.51617432 C 123.62393951 123.58007812 128.14585876 121.75762939 129.85523987 128.21318054 C 131.82362366 133.27600098 132.86347961 138.90008545 133.15344238 143.20951843 C 133.51098633 148.80032349 134.00891113 153.09553528 135.40199280 158.11912537 C 136.34269714 162.53536987 136.93911743 166.91775513 136.54316711 174.00816345" stroke-width="1.48855639" fill="rgb(255, 255, 255)" opacity="1.0" stroke="rgb(93, 166, 149)" stroke-opacity="0.72056174" stroke-linecap="round" stroke-linejoin="round"/>
    <path d="M 112.69411469 171.78680420 C 110.02492523 176.10627747 105.73840332 180.69598389 102.45374298 182.58978271 C 97.07913971 186.72396851 92.23274231 186.57148743 91.99629974 179.98582458 C 91.39480591 173.36384583 93.57292175 168.41374207 95.14231873 164.70318604 C 98.19432068 158.00515747 100.34689331 155.80787659 103.12400055 151.11442566 C 106.73231506 146.24423218 108.17699432 144.20272827 112.70719147 138.70346069 C 116.72580719 133.50636292 117.53886414 132.14253235 120.26534271 127.80416107 C 123.67423248 121.76779938 130.52426147 123.47914124 131.24211121 128.97640991 C 128.02043152 134.46090698 125.46768188 138.05656433 123.92340851 142.74021912 C 121.33598328 148.97726440 120.89379120 151.99971008 119.01873779 157.34761047 C 117.30786896 161.94386292 116.31888580 165.30270386 112.69411469 171.78680420" stroke-width="1.31949008" fill="rgb(254, 255, 255)" opacity="1.0" stroke="rgb(95, 167, 160)" stroke-opacity="0.7770277" stroke-linecap="round" stroke-linejoin="round"/>
    <path d="M 118.53497314 133.97094727 C 114.47639465 138.01867676 113.31353760 139.51039124 109.14278412 144.37504578 C 105.75399017 147.85253906 103.92192078 150.61195374 98.51470184 155.28271484 C 95.60639954 157.78244019 91.89936829 159.70883179 85.58574677 161.40486145 C 81.96968842 162.08712769 75.05393982 163.97702026 70.30191803 161.70597839 C 67.30401611 158.20384216 69.84084320 154.80943298 73.95047760 149.23266602 C 77.86928558 145.45982361 79.00868225 144.27420044 83.92465973 141.38688660 C 89.49387360 138.05657959 91.56175232 136.61183167 96.04434967 133.50100708 C 99.80599976 130.74603271 104.23506927 127.71970367 108.98532104 124.96295929 C 113.32848358 123.46913147 117.32002258 120.73392487 123.43489075 121.16134644 C 126.54995728 123.56494141 122.29096222 130.42330933 118.53497314 133.97094727" stroke-width="1.42668164" fill="rgb(251, 255, 253)" opacity="1.0" stroke="rgb(0, 104, 84)" stroke-opacity="0.3821537" stroke-linecap="round" stroke-linejoin="round"/>
    <path d="M 127.98649597 131.18814087 C 122.77287292 132.92491150 117.47030640 134.68098450 112.93815613 134.76527405 C 106.77779388 135.55473328 102.19203949 135.79669189 96.66741943 136.17218018 C 90.91863251 136.36196899 86.62747192 137.56918335 80.68441772 137.04524231 C 75.50846100 136.87564087 69.05145264 135.19560242 64.48033905 132.75509644 C 59.36720657 129.47001648 58.26417160 123.97098541 66.04428101 120.92758179 C 71.35800934 118.70227051 73.45240784 118.21936035 78.06297302 117.89914703 C 84.22949982 117.40903473 89.45035553 117.86668396 94.77567291 117.71006012 C 101.17497253 117.64189148 106.11895752 117.48233032 110.80667114 117.88457489 C 116.67459869 118.52734375 121.97129822 119.61306763 127.13581085 121.63335419 C 134.39035034 123.39884186 135.24792480 129.25979614 127.98649597 131.18814087" stroke-width="1.45363355" fill="rgb(254, 255, 254)" opacity="1.0" stroke="rgb(0, 107, 86)" stroke-opacity="0.3503242" stroke-linecap="round" stroke-linejoin="round"/>
    <path d="M 131.34942627 121.08830261 C 131.71275330 125.47269440 132.53353882 129.86752319 128.97703552 134.24546814 C 124.43494415 135.74566650 119.06804657 130.73728943 114.91174316 127.82424164 C 109.73090363 123.87231445 106.35701752 121.39899445 101.39828491 119.84216309 C 93.52391815 117.43876648 90.09796906 116.50784302 84.88282776 114.05868530 C 79.93692017 111.39131165 76.30376434 108.85540771 71.75816345 103.48073578 C 68.88208008 97.60855103 67.78609467 93.57487488 71.61573792 92.22889709 C 77.09487915 90.65070343 83.67988586 92.27915192 88.44267273 93.98127747 C 94.44325256 96.45966339 98.16494751 98.98322296 102.75488281 101.93850708 C 107.93433380 105.02075195 112.31702423 107.51477814 117.21992493 110.26554108 C 123.17328644 113.85200500 127.32311249 114.94551086 131.34942627 121.08830261" stroke-width="1.39128983" fill="rgb(252, 255, 254)" opacity="1.0" stroke="rgb(11, 99, 64)" stroke-opacity="0.36726576" stroke-linecap="round" stroke-linejoin="round"/>
    <path d="M 126.14141083 111.47325897 C 127.50708008 115.38450623 130.18191528 121.36281586 130.90222168 125.72677612 C 130.64997864 131.00602722 125.11544037 132.41793823 119.31862640 128.03967285 C 116.04502106 124.68565369 114.25997162 120.71463013 111.47536469 114.69519806 C 108.90400696 110.34706116 106.11585236 106.24967194 102.36022186 101.55140686 C 99.57479858 98.10947418 96.96243286 94.46385956 93.92274475 87.79676819 C 92.33213806 82.59519196 91.84510040 81.19241333 91.66545105 75.83193970 C 91.52571106 68.39851379 95.74108887 66.87878418 102.16446686 71.27622223 C 105.80564880 73.74177551 109.93008423 78.18170166 112.39565277 82.69442749 C 115.02996826 87.69116974 117.01867676 91.92740631 119.04034424 96.75451660 C 121.90963745 102.38729858 123.44613647 105.74449921 126.14141083 111.47325897" stroke-width="1.41597092" fill="rgb(253, 255, 254)" opacity="1.0" stroke="rgb(10, 112, 81)" stroke-opacity="0.38874313" stroke-linecap="round" stroke-linejoin="round"/>
    <path d="M 109.37510681 150.58322144 C 105.93537140 148.18232727 102.83335114 144.26947021 100.03668976 137.47743225 C 98.13632202 131.98568726 97.24386597 124.95005035 99.37202454 119.43786621 C 100.99214935 113.86075592 104.59338379 107.64781189 109.82566833 104.13136292 C 114.22586823 100.47764587 119.66374207 98.04792786 127.75099945 97.90915680 C 131.81008911 97.91588593 138.22096252 99.00957489 145.31166077 104.17749786 C 149.34713745 108.02941895 151.88397217 110.15512848 154.02560425 115.82179260 C 156.41032410 123.92906952 157.19888306 127.16766357 155.38459778 134.79513550 C 154.43756104 139.34201050 152.34387207 144.66848755 145.57440186 150.14395142 C 141.49302673 153.79385376 136.98716736 155.59054565 129.19250488 156.65194702 C 122.85120392 156.66590881 118.22308350 156.30175781 109.37510681 150.58322144" stroke-width="0.91123044" fill="rgb(254, 195, 29)" opacity="1.0" stroke="rgb(238, 213, 139)" stroke-opacity="1.0" stroke-linecap="round" stroke-linejoin="round"/>
    <path d="M 184.16604614 190.53869629 C 181.10498047 195.68704224 178.97322083 198.92591858 176.03518677 203.45019531 C 171.74636841 209.52194214 170.80612183 211.21585083 164.46903992 215.55981445 C 158.98533630 219.25756836 154.06117249 221.00181580 149.39205933 222.18150330 C 143.13616943 223.08717346 136.52729797 224.67051697 131.86618042 223.59429932 C 129.86416626 218.48352051 131.76019287 215.19184875 135.18498230 207.76345825 C 138.16925049 202.79666138 139.12965393 200.42509460 143.16056824 197.13781738 C 147.71798706 193.57736206 150.34393311 190.46961975 155.63221741 187.64930725 C 162.01409912 185.38093567 165.58628845 183.70411682 171.13294983 182.03466797 C 178.33514404 180.72659302 180.62945557 180.19131470 188.24749756 179.04071045 C 194.27879333 177.27655029 186.90176392 186.82592773 184.16604614 190.53869629" stroke-width="0.77765954" fill="rgb(150, 205, 81)" opacity="1.0" stroke="rgb(112, 172, 2)" stroke-opacity="0.33157507" stroke-linecap="round" stroke-linejoin="round"/>
  </g>
</svg>
