<?xml version="1.0" ?>
<svg xmlns="http://www.w3.org/2000/svg" version="1.1" width="256" height="256" viewBox="0 0 256 256">
  <defs/>
  <g>
    <path d="M 151.56999207 173.16410828 C 146.77072144 176.00100708 139.37057495 175.68444824 123.95362091 175.80284119 C 111.10251617 175.39813232 105.96414185 175.67565918 94.36754608 166.49301147 C 86.87081909 157.89482117 83.57688141 153.47120667 79.00936890 137.99789429 C 77.56735229 130.38099670 76.36038208 121.14433289 82.08457947 106.40473938 C 85.03918457 100.33524323 90.65136719 89.03993225 103.33900452 82.80112457 C 113.78448486 80.09091187 117.68365479 81.68000031 127.07373810 82.31031799 C 138.49880981 81.46621704 149.73899841 80.79553223 159.35078430 88.74397278 C 166.07467651 94.22940063 171.03541565 100.78858948 176.38079834 113.57666016 C 179.82452393 127.30649567 178.28559875 137.41120911 174.97222900 145.60618591 C 171.79010010 154.32006836 165.98970032 164.68341064 151.56999207 173.16410828" stroke-width="0.68535703" fill="rgb(238, 19, 23)" opacity="1.0" stroke="rgb(137, 0, 0)" stroke-opacity="0.48486137" stroke-linecap="round" stroke-linejoin="round"/>
    <path d="M 96.55863953 109.73849487 C 95.73365784 108.60590363 95.49858856 107.23587799 95.50569916 106.27319336 C 95.89585114 104.83335876 96.76790619 104.11736298 97.76947021 103.11443329 C 98.63159180 102.36617279 99.42146301 101.99481201 101.08490753 101.75795746 C 102.23186493 101.49751282 103.92575836 101.39203644 105.32392120 101.35279846 C 106.27437592 101.60758209 107.91554260 101.74261475 109.28185272 102.39179993 C 109.90155792 103.37096405 109.85241699 104.36425781 109.22974396 104.89084625 C 108.44516754 106.17017365 107.30163574 107.32727814 106.40998077 108.22294617 C 105.34496307 109.04381561 104.13254547 109.94989777 102.91609192 110.82460785 C 101.89484406 111.82197571 100.66267395 112.22383118 99.49641418 111.64736176 C 98.11396790 111.29902649 97.56127167 110.84467316 96.55863953 109.73849487" stroke-width="0.84559852" fill="rgb(246, 210, 207)" opacity="1.0" stroke="rgb(77, 86, 84)" stroke-opacity="0.24586035" stroke-linecap="round" stroke-linejoin="round"/>
    <path d="M 150.38693237 66.70986176 C 149.44032288 68.74446106 147.81471252 70.73292542 146.24798584 72.25334167 C 144.59577942 74.05009460 142.37002563 75.39863586 140.10792542 76.07625580 C 137.18814087 76.66274261 135.56422424 77.62202454 133.38668823 77.40340424 C 130.48728943 76.69961548 130.22386169 75.33140564 130.34448242 72.10231018 C 130.38658142 68.54055786 130.92762756 66.79899597 131.93862915 65.10357666 C 134.90686035 61.53762054 134.08979797 62.32294464 136.25149536 60.70014191 C 138.49627686 59.32515717 140.20065308 58.71436310 143.48913574 57.75780487 C 146.93560791 56.83645630 147.96965027 56.07409668 150.42391968 54.69385910 C 153.01585388 52.96236801 152.45156860 56.29143524 152.60023499 59.27882767 C 152.34098816 62.11878204 151.49519348 64.34469604 150.38693237 66.70986176" stroke-width="0.62745088" fill="rgb(16, 162, 30)" opacity="1.0" stroke="rgb(0, 113, 0)" stroke-opacity="0.31993568" stroke-linecap="round" stroke-linejoin="round"/>
    <path d="M 115.40705109 75.88613892 C 113.42818451 75.40335083 110.85826111 74.19757843 108.90731049 72.94543457 C 106.79145813 71.45138550 104.77347565 69.87234497 103.39901733 68.19821167 C 101.67641449 66.29963684 100.67147827 64.65489960 99.33662415 62.16889572 C 98.73032379 59.80823517 97.27734375 57.00475311 97.78282166 55.68022156 C 100.35143280 56.55882263 102.97517395 57.93280029 105.24974823 58.04716873 C 109.42047882 59.65858459 108.78158569 58.99341965 111.21161652 59.90988541 C 113.63122559 60.56781387 116.30130005 61.60034180 118.49984741 63.34169006 C 120.80352020 65.49246979 122.17104340 67.32553864 123.13410950 69.08661652 C 124.45052338 71.40688324 125.34165955 74.16596222 122.88927460 75.91817474 C 120.94125366 77.10277557 118.81613922 76.61341858 115.40705109 75.88613892" stroke-width="0.68545765" fill="rgb(67, 202, 27)" opacity="1.0" stroke="rgb(31, 150, 0)" stroke-opacity="0.31925485" stroke-linecap="round" stroke-linejoin="round"/>
    <path d="M 124.06419373 68.21646881 C 124.02854919 66.82138824 123.99837494 64.06179047 123.80921173 61.82594299 C 123.29002380 58.46543121 125.42116547 58.15821075 128.08010864 58.84203339 C 128.95196533 60.87836456 127.93187714 63.14380646 128.07618713 65.37960052 C 127.99874878 67.64025879 127.93235779 69.85668182 127.81352997 72.32138824 C 128.03115845 74.68828583 128.00900269 76.12245178 128.04911804 79.49101257 C 127.94364166 82.13292694 127.57785034 83.06304932 127.64707184 84.77932739 C 128.57629395 87.15788269 127.42561340 89.10283661 125.44217682 89.21632385 C 125.52907562 87.79368591 125.80136871 84.71743774 125.15498352 82.90006256 C 125.03698730 79.83651733 124.60785675 77.85157776 124.48884583 76.02951813 C 124.22270966 73.23307800 124.24680328 70.95578003 124.06419373 68.21646881" stroke-width="0.63241386" fill="rgb(113, 21, 28)" opacity="1.0" stroke="rgb(113, 75, 76)" stroke-opacity="0.29715997" stroke-linecap="round" stroke-linejoin="round"/>
    <path d="M 134.84243774 89.45246124 C 133.37236023 89.81583405 132.45767212 90.08148956 130.39326477 90.49625397 C 128.50141907 91.01982117 127.72319031 90.64927673 125.58935547 90.31200409 C 123.34939575 90.41670990 122.49707031 90.39437866 120.99314117 89.71536255 C 118.98149872 88.85566711 117.15032196 88.93910217 116.57062531 87.82402039 C 118.01211548 86.87630463 119.48065186 87.70436096 121.05789948 87.88719940 C 123.56884766 88.16980743 123.83263397 88.28137970 124.98979950 88.23884583 C 126.49692535 87.91667175 128.20640564 88.29510498 129.84169006 88.23383331 C 132.13752747 87.79019928 132.78039551 87.96731567 134.94665527 87.51460266 C 136.95413208 87.19622803 138.50421143 86.62591553 139.90005493 87.24404907 C 138.74952698 88.95383453 137.05053711 89.04184723 134.84243774 89.45246124" stroke-width="0.59492308" fill="rgb(136, 5, 11)" opacity="1.0" stroke="rgb(208, 26, 41)" stroke-opacity="0.62012553" stroke-linecap="round" stroke-linejoin="round"/>
  </g>
</svg>
