<?xml version="1.0" ?>
<svg xmlns="http://www.w3.org/2000/svg" version="1.1" width="256" height="256" viewBox="0 0 256 256">
  <defs/>
  <g>
    <path d="M 151.67303467 173.04951477 C 146.93127441 175.91427612 139.43104553 175.67864990 124.15219116 175.76190186 C 111.30301666 175.42716980 106.26703644 175.81784058 94.52465820 166.63189697 C 86.78166199 157.62016296 83.83261871 153.68980408 79.09535217 138.17359924 C 77.63579559 130.37802124 76.37113953 121.58633423 82.02543640 106.62984467 C 85.00200653 100.48661804 90.55667114 89.26954651 103.19819641 82.86947632 C 113.55435944 80.15129089 117.31105042 81.69944000 126.95350647 82.28340149 C 138.47624207 81.48474121 149.77719116 80.99085999 158.89097595 88.45936584 C 165.75918579 93.88510132 171.07411194 101.02352905 176.26327515 113.49323273 C 179.77348328 127.06304932 178.20198059 137.38612366 174.95870972 145.44096375 C 171.72886658 154.28199768 166.05714417 164.55941772 151.67303467 173.04951477" stroke-width="0.68041700" fill="rgb(235, 19, 23)" opacity="1.0" stroke="rgb(139, 0, 0)" stroke-opacity="0.47884017" stroke-linecap="round" stroke-linejoin="round"/>
    <path d="M 96.66862488 109.89625549 C 95.81559753 108.91290283 95.46519470 107.36764526 95.48139954 106.41577148 C 95.70087433 104.92794800 96.53409576 104.30102539 97.57864380 103.21115875 C 98.53415680 102.66109467 99.32063293 101.98165894 100.90412140 101.71823120 C 102.19725037 101.40693665 103.87500000 101.39974213 105.19229889 101.33458710 C 106.41458130 101.72378540 107.89363098 101.56488800 109.20252228 102.16809082 C 109.75885010 103.14703369 109.88359833 103.98345947 109.37106323 104.73583221 C 108.56503296 106.04502869 107.44783020 107.08911133 106.56885529 108.03675079 C 105.51027679 108.84988403 104.34488678 109.75141907 103.13686371 110.67340088 C 102.16566467 111.62246704 100.95125580 112.12992859 99.69940948 111.68624878 C 98.30886078 111.34254456 97.71066284 110.91493225 96.66862488 109.89625549" stroke-width="0.85764873" fill="rgb(247, 212, 209)" opacity="1.0" stroke="rgb(23, 103, 97)" stroke-opacity="0.21519963" stroke-linecap="round" stroke-linejoin="round"/>
    <path d="M 150.32894897 66.65342712 C 149.49687195 68.55942535 147.79272461 70.59223175 146.24444580 72.17702484 C 144.51571655 73.92352295 142.46009827 75.31820679 140.17704773 76.03150940 C 137.50813293 76.52270508 135.65904236 77.63182068 133.40837097 77.35287476 C 130.51210022 76.70056152 130.14276123 75.32356262 130.33012390 72.07545471 C 130.38740540 68.49489594 130.83007812 66.92838287 131.86898804 65.12190247 C 134.80683899 61.53754044 133.94308472 62.32778931 136.21115112 60.69221878 C 138.23110962 59.44898224 140.26927185 58.68287659 143.46090698 57.73849106 C 146.81958008 56.81911469 147.85269165 56.06006622 150.38726807 54.70957184 C 152.93728638 52.90154648 152.44779968 56.26962280 152.56376648 59.25642395 C 152.28390503 62.12019348 151.48957825 64.16047668 150.32894897 66.65342712" stroke-width="0.62076509" fill="rgb(17, 159, 31)" opacity="1.0" stroke="rgb(0, 115, 0)" stroke-opacity="0.32767949" stroke-linecap="round" stroke-linejoin="round"/>
    <path d="M 115.75355530 75.93888092 C 113.80627441 75.46009064 111.22701263 74.34853363 109.20832062 73.16770935 C 107.24369049 71.74780273 105.19951630 70.18792725 103.70232391 68.52496338 C 101.96246338 66.65373993 100.96759033 65.18415070 99.51888275 62.55553818 C 98.87912750 60.31929016 97.45130920 57.56042480 97.67703247 55.83836365 C 99.97843933 56.31029510 102.93606567 57.81259918 105.04835510 57.95376587 C 109.17589569 59.54463196 108.42829895 58.86399078 110.92016602 59.82183075 C 113.34378052 60.47367096 116.02394867 61.46743393 118.20709229 63.08895111 C 120.54962921 65.23056793 121.90887451 67.00517273 123.01618195 68.83748627 C 124.25347900 70.95314789 125.21319580 73.60871124 123.15438843 75.70449829 C 121.26051331 77.10805511 119.22135925 76.54860687 115.75355530 75.93888092" stroke-width="0.64777446" fill="rgb(70, 200, 28)" opacity="1.0" stroke="rgb(27, 157, 0)" stroke-opacity="0.32600683" stroke-linecap="round" stroke-linejoin="round"/>
    <path d="M 124.07029724 67.79766846 C 124.01313019 66.78088379 123.96424103 63.85578156 123.76113892 61.86809540 C 123.10602570 58.95819473 124.91033173 58.14073563 127.46038055 58.69417953 C 129.07832336 60.07989883 128.12332153 62.25149536 128.18923950 64.46322632 C 128.12565613 66.82491302 127.92881012 68.44334412 127.82188416 71.20145416 C 127.99602509 73.57624054 127.96688080 74.89057159 128.12742615 78.18647766 C 128.02040100 80.68225861 127.84486389 81.58359528 127.91016388 83.38604736 C 128.57403564 85.68805695 127.95278168 88.53070068 125.67549133 88.24336243 C 125.27177429 86.57178497 125.70921326 83.51191711 125.04350281 81.90338898 C 124.85452271 78.93429565 124.52127075 77.19847107 124.37776947 75.40987396 C 124.19004822 72.93949127 124.22259521 70.45494080 124.07029724 67.79766846" stroke-width="0.89043891" fill="rgb(112, 23, 22)" opacity="1.0" stroke="rgb(132, 99, 100)" stroke-opacity="0.2606876" stroke-linecap="round" stroke-linejoin="round"/>
    <path d="M 134.86349487 89.50955200 C 133.36567688 89.92318726 132.47673035 90.08170319 130.39662170 90.51738739 C 128.55213928 91.04120636 127.72537231 90.75762177 125.59309387 90.50710297 C 123.37003326 90.56687164 122.58644104 90.53555298 121.09414673 89.84043884 C 119.05840302 88.94431305 117.28316498 89.02129364 116.56378174 87.95500946 C 117.94030762 86.86238098 119.43299103 87.69571686 121.00144196 87.87458038 C 123.53418732 88.14686584 123.66285706 88.27310944 124.93337250 88.29513550 C 126.53807068 88.01873016 128.27549744 88.25289917 129.89656067 88.20170593 C 132.21714783 87.82624817 132.77792358 87.97984314 135.00895691 87.48895264 C 137.10562134 87.18210602 138.46395874 86.62870789 139.93989563 87.31272888 C 138.82017517 88.98059082 136.72059631 89.12072754 134.86349487 89.50955200" stroke-width="0.66545379" fill="rgb(142, 3, 8)" opacity="1.0" stroke="rgb(203, 24, 35)" stroke-opacity="0.57931954" stroke-linecap="round" stroke-linejoin="round"/>
  </g>
</svg>
