<?xml version="1.0" ?>
<svg xmlns="http://www.w3.org/2000/svg" version="1.1" width="256" height="256" viewBox="0 0 256 256">
  <defs/>
  <g>
    <path d="M 151.66728210 173.13224792 C 146.80087280 175.99426270 139.51670837 175.65069580 124.08851624 175.80459595 C 111.26266479 175.43714905 106.13436890 175.81256104 94.49748993 166.59399414 C 86.88381195 157.77993774 83.73448944 153.62481689 79.04774475 138.11985779 C 77.57415771 130.35232544 76.31420898 121.45682526 82.01046753 106.54830933 C 84.95241547 100.50245667 90.59689331 89.10448456 103.22329712 82.85054016 C 113.53735352 80.12140656 117.50430298 81.70109558 126.99192047 82.27027893 C 138.50143433 81.46179199 149.73110962 80.85496521 159.12106323 88.59594727 C 165.88858032 93.95700073 171.07901001 100.91054535 176.32814026 113.51058197 C 179.79611206 127.15518188 178.24737549 137.43104553 175.00578308 145.51477051 C 171.84793091 154.23391724 166.09233093 164.64106750 151.66728210 173.13224792" stroke-width="0.67648339" fill="rgb(236, 20, 21)" opacity="1.0" stroke="rgb(137, 0, 0)" stroke-opacity="0.49375746" stroke-linecap="round" stroke-linejoin="round"/>
    <path d="M 96.58523560 109.73525238 C 95.77458954 108.65267181 95.48052979 107.21040344 95.51916504 106.25877380 C 95.83706665 104.86090851 96.70283508 104.18585968 97.73490143 103.08294678 C 98.72753143 102.44946289 99.37905884 101.99125671 101.06786346 101.72619629 C 102.24227142 101.45288086 103.99057770 101.39112091 105.30802917 101.34017944 C 106.38822937 101.64824677 107.95759583 101.69874573 109.28145599 102.36971283 C 109.85698700 103.35576630 109.85990143 104.28672791 109.24345398 104.87969971 C 108.39031219 106.16190338 107.29891205 107.26288605 106.41094971 108.19165802 C 105.34994507 109.01177979 104.15430450 109.91244507 102.95125580 110.78733063 C 101.93653107 111.74647522 100.70774078 112.16996002 99.50476074 111.64913177 C 98.13714600 111.28436279 97.57782745 110.80209351 96.58523560 109.73525238" stroke-width="0.81444609" fill="rgb(248, 215, 213)" opacity="1.0" stroke="rgb(66, 98, 92)" stroke-opacity="0.24924278" stroke-linecap="round" stroke-linejoin="round"/>
    <path d="M 150.37268066 66.72563934 C 149.49655151 68.66931152 147.81883240 70.72818756 146.26315308 72.28299713 C 144.57913208 74.06717682 142.38551331 75.41334534 140.13363647 76.08057404 C 137.25392151 76.63609314 135.61494446 77.62725830 133.40983582 77.38401794 C 130.51580811 76.68105316 130.21313477 75.33445740 130.36102295 72.11615753 C 130.40061951 68.53539276 130.90315247 66.84420013 131.92121887 65.10443115 C 134.87763977 61.53241730 134.05522156 62.31904602 136.24108887 60.72545624 C 138.48985291 59.39506531 140.20281982 58.73677444 143.49241638 57.79516983 C 146.93797302 56.86844254 147.92831421 56.12492371 150.43170166 54.74929047 C 153.00802612 52.96873093 152.49467468 56.32226562 152.61798096 59.31000900 C 152.34478760 62.13744736 151.51878357 64.26110077 150.37268066 66.72563934" stroke-width="0.61863810" fill="rgb(17, 161, 29)" opacity="1.0" stroke="rgb(0, 115, 0)" stroke-opacity="0.33246106" stroke-linecap="round" stroke-linejoin="round"/>
    <path d="M 115.36235809 75.84991455 C 113.47837067 75.39258575 110.86029816 74.19228363 108.88539124 72.96247864 C 106.81257629 71.49273682 104.80572510 69.90514374 103.41558075 68.21038055 C 101.69699097 66.31233978 100.70712280 64.72969818 99.32372284 62.19778824 C 98.72221375 59.87591171 97.25013733 57.08834457 97.70816803 55.64792633 C 100.20098877 56.44952011 102.95235443 57.85971069 105.18228912 57.99581909 C 109.32740784 59.60100937 108.65321350 58.93854141 111.09854126 59.85612106 C 113.52211761 60.49833679 116.17475891 61.54158783 118.37429047 63.29099274 C 120.63792419 65.40753937 122.01332855 67.23899841 123.03877258 69.05670929 C 124.32031250 71.26367188 125.24585724 74.00982666 122.86830139 75.86579895 C 120.83462524 77.08666229 118.87383270 76.58383179 115.36235809 75.84991455" stroke-width="0.66192520" fill="rgb(67, 199, 28)" opacity="1.0" stroke="rgb(29, 153, 0)" stroke-opacity="0.33213788" stroke-linecap="round" stroke-linejoin="round"/>
    <path d="M 124.06830597 68.07974243 C 124.02251434 66.70983124 123.98722839 64.00196075 123.80389404 61.80957031 C 123.22232819 58.58713913 125.21810913 58.11944580 127.84128571 58.77760696 C 129.06083679 60.49911880 128.01622009 62.88457108 128.11978149 65.00386047 C 128.05702209 67.33368683 127.91602325 69.24684143 127.81217194 71.87847900 C 128.04016113 74.28914642 128.02552795 75.64553070 128.11482239 79.03933716 C 127.98344421 81.63379669 127.70675659 82.56493378 127.70906067 84.31205750 C 128.50030518 86.68778992 127.65794373 89.09675598 125.55473328 88.95825195 C 125.50709534 87.32585907 125.79019165 84.35425568 125.12714386 82.57925415 C 124.97890472 79.54748535 124.56313324 77.61658478 124.43280029 75.79569244 C 124.21443176 73.07668304 124.25074768 70.78762054 124.06830597 68.07974243" stroke-width="0.74581009" fill="rgb(109, 19, 20)" opacity="1.0" stroke="rgb(122, 90, 90)" stroke-opacity="0.27336773" stroke-linecap="round" stroke-linejoin="round"/>
    <path d="M 134.71447754 89.38107300 C 133.19482422 89.78138733 132.36425781 89.98371887 130.27709961 90.40946198 C 128.38281250 90.90708160 127.62805939 90.60646820 125.53302765 90.30711365 C 123.33770752 90.43011475 122.50058746 90.37625122 120.99476624 89.68159485 C 119.01308441 88.83480835 117.17952728 88.92459869 116.59619141 87.84235382 C 117.98184967 86.86917114 119.51107788 87.66496277 121.02258301 87.85501099 C 123.55094147 88.13499451 123.76343536 88.25763702 124.92391205 88.22309113 C 126.41026306 87.87412262 128.11195374 88.22324371 129.74861145 88.17063141 C 132.01754761 87.73846436 132.66616821 87.90933228 134.80065918 87.43564606 C 136.86619568 87.11820221 138.28575134 86.52795410 139.72119141 87.16063690 C 138.59777832 88.88143921 136.69468689 88.98487091 134.71447754 89.38107300" stroke-width="0.65798861" fill="rgb(127, 7, 7)" opacity="1.0" stroke="rgb(203, 29, 42)" stroke-opacity="0.5449892" stroke-linecap="round" stroke-linejoin="round"/>
  </g>
</svg>
