<?xml version="1.0" ?>
<svg xmlns="http://www.w3.org/2000/svg" version="1.1" width="256" height="256" viewBox="0 0 256 256">
  <defs/>
  <g>
    <path d="M 151.47291565 173.16560364 C 146.63650513 175.98965454 139.32952881 175.62484741 123.89533997 175.78933716 C 110.91756439 175.37026978 105.92533875 175.68937683 94.38632202 166.47167969 C 86.80474854 157.68513489 83.66412354 153.49964905 79.03297424 137.97409058 C 77.58830261 130.30139160 76.36104584 121.13529205 82.10104370 106.38870239 C 85.04879761 100.28445435 90.69530487 89.07005310 103.36443329 82.84106445 C 113.76089478 80.11819458 117.80093384 81.70869446 127.07640076 82.33921814 C 138.48323059 81.46790314 149.74523926 80.79339600 159.33580017 88.80201721 C 166.02941895 94.28575897 170.97901917 100.86129761 176.32048035 113.59820557 C 179.73356628 127.24687195 178.17175293 137.53948975 174.90734863 145.61221313 C 171.57258606 154.60925293 165.98962402 164.58088684 151.47291565 173.16560364" stroke-width="0.67697805" fill="rgb(236, 18, 23)" opacity="1.0" stroke="rgb(141, 0, 0)" stroke-opacity="0.49472877" stroke-linecap="round" stroke-linejoin="round"/>
    <path d="M 96.51224518 109.74861145 C 95.65502167 108.60249329 95.47123718 107.28033447 95.47405243 106.28696442 C 95.92752075 104.81034088 96.75207520 104.05527496 97.75231934 103.10034180 C 98.58337402 102.33708191 99.41844177 102.00218201 101.04959869 101.76107788 C 102.22261047 101.48931885 103.91114807 101.37394714 105.30984497 101.35281372 C 106.23168182 101.62837219 107.86198425 101.74890900 109.28285217 102.37141418 C 109.91471863 103.32105255 109.87796783 104.34555054 109.24677277 104.83494568 C 108.48782349 106.09114075 107.31996155 107.33010101 106.43197632 108.21424866 C 105.37571716 109.03247070 104.16020203 109.94634247 102.92115784 110.82199860 C 101.88040161 111.82025146 100.63654327 112.23421478 99.50651550 111.63546753 C 98.14196777 111.26854706 97.50985718 110.83621216 96.51224518 109.74861145" stroke-width="0.87311548" fill="rgb(245, 212, 212)" opacity="1.0" stroke="rgb(78, 82, 82)" stroke-opacity="0.27422553" stroke-linecap="round" stroke-linejoin="round"/>
    <path d="M 150.40394592 66.70988464 C 149.40704346 68.79951477 147.83372498 70.71816254 146.26834106 72.22385406 C 144.66415405 74.01409149 142.42436218 75.35939026 140.11836243 76.06204987 C 137.23362732 76.65974426 135.56221008 77.62025452 133.37927246 77.39591217 C 130.47627258 76.69977570 130.23414612 75.31922150 130.34672546 72.07228851 C 130.39730835 68.50280762 130.93440247 66.81387329 131.95581055 65.08802032 C 134.93104553 61.53495789 134.11296082 62.31431198 136.27792358 60.69304657 C 138.51641846 59.31989288 140.23669434 58.72645569 143.51408386 57.76558685 C 146.95858765 56.84261703 148.01403809 56.08214951 150.45007324 54.70373154 C 153.04214478 52.95990372 152.47035217 56.29684830 152.61930847 59.27223969 C 152.35556030 62.12104034 151.49488831 64.41427612 150.40394592 66.70988464" stroke-width="0.63070542" fill="rgb(15, 162, 32)" opacity="1.0" stroke="rgb(0, 110, 0)" stroke-opacity="0.325207" stroke-linecap="round" stroke-linejoin="round"/>
    <path d="M 115.27841949 75.83404541 C 113.30799103 75.34082031 110.77770996 74.12425995 108.81078339 72.82814789 C 106.73731995 71.35860443 104.72072601 69.73844147 103.30317688 68.06845093 C 101.55778503 66.14728546 100.58850098 64.54770660 99.26287842 61.96437454 C 98.71086884 59.65622330 97.29571533 57.18327713 97.77471924 55.60972595 C 100.40834045 56.49931335 102.89608765 57.88409042 105.21741486 57.98697281 C 109.40774536 59.60188293 108.81383514 58.94377899 111.21453857 59.87742615 C 113.63118744 60.55236053 116.27426147 61.58198166 118.47380829 63.33919525 C 120.75039673 65.48503876 122.11374664 67.35527039 123.07173157 69.09645081 C 124.42955017 71.43176270 125.29952240 74.18411255 122.78669739 75.91273499 C 120.92603302 77.09051514 118.63533783 76.57741547 115.27841949 75.83404541" stroke-width="0.66294241" fill="rgb(68, 199, 27)" opacity="1.0" stroke="rgb(27, 149, 0)" stroke-opacity="0.31191292" stroke-linecap="round" stroke-linejoin="round"/>
    <path d="M 124.02291870 68.21729279 C 123.99353027 66.84620667 123.95518494 64.07730865 123.77558899 61.82157516 C 123.20417786 58.32285690 125.43206024 58.11624908 128.08602905 58.91173935 C 128.85299683 61.12750244 127.87156677 63.31295013 128.02160645 65.57711029 C 127.94805145 67.89882660 127.88040161 69.94155884 127.79982758 72.52605438 C 127.92414093 74.82779694 127.98425293 76.34500122 128.01052856 79.59860229 C 127.94293976 82.39198303 127.53231812 83.24250031 127.61021423 84.96517181 C 128.55900574 87.40652466 127.40837860 88.69816589 125.63325500 89.07482910 C 125.70214081 87.88462830 125.83215332 84.78936005 125.15289307 82.93690491 C 125.00250244 79.88056946 124.57941437 77.89114380 124.45790863 76.02986908 C 124.19618988 73.22151184 124.20772552 70.94776154 124.02291870 68.21729279" stroke-width="0.67710656" fill="rgb(109, 21, 24)" opacity="1.0" stroke="rgb(117, 78, 80)" stroke-opacity="0.28234395" stroke-linecap="round" stroke-linejoin="round"/>
    <path d="M 134.81069946 89.44026947 C 133.69105530 89.65550995 132.25257874 90.06868744 130.39802551 90.45553589 C 128.56956482 90.98784637 127.72958374 90.61296082 125.58026123 90.31037140 C 123.27770996 90.39606476 122.53768921 90.36538696 121.00821686 89.71214294 C 118.97211456 88.85360718 117.17420959 88.95842743 116.54251862 87.81471252 C 117.91353607 86.84394836 119.40217590 87.68721771 121.00862122 87.88611603 C 123.50873566 88.18788910 123.84364319 88.29365540 124.96772766 88.21013641 C 126.43106842 87.83590698 128.09135437 88.33184814 129.71173096 88.24177551 C 131.98925781 87.74298096 132.71365356 87.93756104 134.86624146 87.48042297 C 136.75131226 87.14789581 138.49710083 86.56069183 139.86965942 87.14807129 C 138.98556519 88.65589142 137.55421448 88.92893982 134.81069946 89.44026947" stroke-width="0.66819865" fill="rgb(132, 7, 7)" opacity="1.0" stroke="rgb(181, 31, 53)" stroke-opacity="0.3455722" stroke-linecap="round" stroke-linejoin="round"/>
  </g>
</svg>
