<?xml version="1.0" ?>
<svg xmlns="http://www.w3.org/2000/svg" version="1.1" width="256" height="256" viewBox="0 0 256 256">
  <defs/>
  <g>
    <path d="M 152.25550842 172.51049805 C 148.36233521 174.31201172 138.84596252 176.55448914 124.24444580 176.50930786 C 112.91027832 175.94908142 106.74156952 175.09661865 94.81007385 166.51747131 C 87.51226807 159.16282654 83.38428497 153.64338684 79.19076538 138.78289795 C 77.80128479 131.15055847 76.89416504 121.24330902 81.83354187 106.73290253 C 84.14866638 102.24375153 91.00965118 88.16362000 103.07960510 83.25920868 C 113.95675659 80.63698578 115.89123535 81.19037628 128.04339600 82.17495728 C 142.10855103 82.97978210 148.62031555 79.73755646 158.53622437 88.55901337 C 164.01991272 92.92324829 172.16754150 101.87005615 176.83493042 114.63514709 C 178.49493408 129.38984680 178.94134521 132.32479858 174.85835266 145.50175476 C 172.49951172 152.75344849 167.72840881 163.53553772 152.25550842 172.51049805" stroke-width="0.83807099" fill="rgb(239, 19, 20)" opacity="1.0" stroke="rgb(155, 0, 0)" stroke-opacity="0.5234893" stroke-linecap="round" stroke-linejoin="round"/>
    <path d="M 96.86383057 110.17642212 C 96.14746094 109.49409485 95.64044189 107.75717163 95.63901520 106.67086029 C 95.57653046 104.99787903 96.37876129 104.32185364 97.43073273 103.41879272 C 98.60472107 102.73970795 99.62442017 101.98140717 100.72560120 101.77436829 C 102.42930603 101.33221436 103.50875092 101.56931305 104.93395233 101.42285919 C 106.45053864 101.72718048 107.82640839 101.52203369 108.91478729 101.94006348 C 109.69215393 102.97166443 109.87299347 103.77308655 109.34963226 104.63304901 C 108.51016235 106.14765167 107.58441162 106.69325256 106.63204956 107.88056183 C 105.64405823 108.62921906 104.89913177 109.35473633 103.33657837 110.59879303 C 102.45932007 111.37624359 101.80366516 111.78405762 100.01763153 111.92590332 C 98.50890350 111.83145142 98.10853577 111.27621460 96.86383057 110.17642212" stroke-width="0.63276029" fill="rgb(244, 214, 213)" opacity="1.0" stroke="rgb(23, 171, 167)" stroke-opacity="0.2211705" stroke-linecap="round" stroke-linejoin="round"/>
    <path d="M 150.23863220 66.83400726 C 149.61782837 68.39968109 147.86273193 70.53950500 146.25315857 72.29113770 C 144.38912964 74.01744080 142.62071228 75.26815033 140.22669983 76.01965332 C 138.16406250 76.31381989 135.73472595 77.74311066 133.34425354 77.38021851 C 130.62890625 76.59156799 130.21720886 75.39877319 130.28578186 72.08335114 C 130.43360901 68.72128296 130.93322754 66.61965942 131.87310791 65.18648529 C 134.75578308 61.51583481 133.83128357 62.34137726 136.38253784 60.62018585 C 138.79864502 59.39105225 140.60954285 58.65656281 143.56106567 57.70264053 C 146.71983337 56.77591705 147.90112305 56.01062393 150.52902222 54.84148407 C 153.14262390 53.26943207 152.44477844 56.25639725 152.53973389 59.39423370 C 152.29490662 62.14377594 151.57664490 64.07769012 150.23863220 66.83400726" stroke-width="0.66737986" fill="rgb(18, 162, 30)" opacity="1.0" stroke="rgb(0, 100, 0)" stroke-opacity="0.34183922" stroke-linecap="round" stroke-linejoin="round"/>
    <path d="M 116.22879028 76.04610443 C 114.65180206 75.70475769 111.93822479 74.65402222 109.81623077 73.50384521 C 107.81075287 72.05421448 105.67140198 70.68974304 104.15336609 69.00965118 C 102.45661926 67.10286713 101.39381409 65.67375946 99.96983337 63.06800079 C 99.20577240 60.94367981 97.74214172 58.12275696 97.70834351 56.08049011 C 99.60025787 56.21891022 103.00886536 57.85513687 104.83328247 58.01913452 C 108.99201202 59.45734406 107.99911499 58.87753677 110.73240662 59.86360550 C 113.25711823 60.55163574 115.70426178 61.29928589 117.96128845 62.85592651 C 120.18286896 64.84943390 121.63166046 66.75926208 122.89859009 68.60649109 C 124.12173462 70.65836334 125.17921448 73.10836792 123.66907501 75.44293213 C 121.63298035 77.00203705 120.02920532 76.51168060 116.22879028 76.04610443" stroke-width="0.71072644" fill="rgb(66, 203, 28)" opacity="1.0" stroke="rgb(21, 144, 0)" stroke-opacity="0.34771276" stroke-linecap="round" stroke-linejoin="round"/>
    <path d="M 124.05677795 68.08023834 C 123.98283386 65.42296600 123.86577606 64.70735168 123.78341675 62.06748962 C 123.27955627 59.59458160 124.62399292 57.98126984 127.24639130 58.57394028 C 128.86784363 60.11069489 128.09687805 61.97071075 128.14285278 64.17991638 C 128.05178833 66.54535675 127.83984375 68.01824951 127.77411652 70.90673065 C 128.00108337 73.25624084 127.86538696 74.39975739 128.06428528 77.76527405 C 127.91571045 80.48793793 127.96835327 80.89138794 127.98296356 82.95461273 C 128.42941284 85.46304321 128.23474121 88.41891479 125.83730316 87.74389648 C 125.07691956 85.84490967 125.53672791 83.03958893 125.01751709 81.53008270 C 124.94281769 78.60810852 124.63018799 77.03524017 124.35141754 75.30992126 C 124.21909332 72.69319153 124.21869659 70.74323273 124.05677795 68.08023834" stroke-width="0.74550885" fill="rgb(110, 19, 22)" opacity="1.0" stroke="rgb(106, 68, 79)" stroke-opacity="0.27600226" stroke-linecap="round" stroke-linejoin="round"/>
    <path d="M 135.22335815 89.46013641 C 133.77534485 89.90624237 132.92475891 89.98820496 130.88871765 90.38439941 C 128.96124268 90.86957550 128.44100952 90.76598358 125.93048096 90.86368561 C 123.66519928 90.75873566 122.80074310 90.53321075 121.22948456 90.00953674 C 119.16416168 89.15299988 117.39171600 89.08407593 116.63003540 88.00507355 C 118.21365356 86.96030426 119.83248138 87.71080780 121.24913025 87.81803131 C 124.00003815 88.18383789 123.73545837 88.04604340 125.44783020 88.25528717 C 127.54551697 88.14304352 128.83493042 88.21432495 130.63307190 87.93788147 C 132.93611145 87.65284729 133.72389221 87.67469025 135.90226746 87.36824799 C 137.84414673 87.23208618 139.30235291 86.79487610 140.64984131 87.52809906 C 139.33856201 88.73355103 136.94602966 89.05513763 135.22335815 89.46013641" stroke-width="0.40097117" fill="rgb(140, 3, 12)" opacity="1.0" stroke="rgb(180, 38, 69)" stroke-opacity="0.36396763" stroke-linecap="round" stroke-linejoin="round"/>
  </g>
</svg>
