<svg xmlns="http://www.w3.org/2000/svg" viewBox="0 0 256 256" height="256.0px" width="256.0px">
<path id="" fill="#FF0000" fill-opacity="1.0" stroke="#000000" stroke-width="0.0" stroke-opacity="1.0" stroke-linecap="round" stroke-linejoin="round"  filling="0" d="M178.000 128.000 C178.000 141.255 172.729 153.982 163.355 163.355 C153.982 172.729 141.255 178.000 128.000 178.000 C114.744 178.000 102.018 172.729 92.645 163.355 C83.271 153.982 78.000 141.255 78.000 128.000 C78.000 114.744 83.271 102.018 92.645 92.645 C102.018 83.271 114.744 78.000 128.000 78.000 C141.255 78.000 153.982 83.271 163.355 92.645 C172.729 102.018 178.000 114.744 178.000 128.000"></path>
<path id="" fill="#FFFFFF" fill-opacity="1.0" stroke="#000000" stroke-width="0.0" stroke-opacity="1.0" stroke-linecap="round" stroke-linejoin="round"  filling="0" d="M110.500 108.000 C110.500 109.326 109.710 110.598 108.303 111.535 C106.897 112.473 104.989 113.000 103.000 113.000 C101.011 113.000 99.103 112.473 97.697 111.535 C96.290 110.598 95.500 109.326 95.500 108.000 C95.500 106.674 96.290 105.402 97.697 104.465 C99.103 103.527 101.011 103.000 103.000 103.000 C104.989 103.000 106.897 103.527 108.303 104.465 C109.710 105.402 110.500 106.674 110.500 108.000"></path>
<path id="" fill="#0ca61a" fill-opacity="1.0" stroke="#000000" stroke-width="0.0" stroke-opacity="1.0" stroke-linecap="round" stroke-linejoin="round"  filling="0" d="M132.000 76.750 C131.417 76.166 130.833 75.584 130.250 75.000 C130.250 74.666 130.250 74.334 130.250 74.000 C130.083 73.834 129.917 73.666 129.750 73.500 C129.750 72.166 129.750 70.834 129.750 69.500 C129.917 69.334 130.083 69.166 130.250 69.000 C130.250 68.500 130.250 68.000 130.250 67.500 C130.417 67.334 130.583 67.166 130.750 67.000 C130.750 66.666 130.750 66.334 130.750 66.000 C130.917 65.834 131.083 65.666 131.250 65.500 C131.250 65.334 131.250 65.166 131.250 65.000 C131.583 64.666 131.917 64.334 132.250 64.000 C132.250 63.833 132.250 63.667 132.250 63.500 C133.167 62.583 134.083 61.667 135.000 60.750 C135.167 60.750 135.333 60.750 135.500 60.750 C135.667 60.583 135.833 60.417 136.000 60.250 C136.167 60.250 136.333 60.250 136.500 60.250 C136.833 59.917 137.167 59.583 137.500 59.250 C137.833 59.250 138.167 59.250 138.500 59.250 C138.667 59.083 138.833 58.917 139.000 58.750 C139.167 58.750 139.333 58.750 139.500 58.750 C140.000 58.417 140.500 58.083 141.000 57.750 C141.333 57.750 141.667 57.750 142.000 57.750 C142.167 57.583 142.333 57.417 142.500 57.250 C142.833 57.250 143.167 57.250 143.500 57.250 C143.667 57.083 143.833 56.917 144.000 56.750 C144.333 56.750 144.667 56.750 145.000 56.750 C145.167 56.583 145.333 56.417 145.500 56.250 C145.833 56.250 146.167 56.250 146.500 56.250 C146.667 56.083 146.833 55.917 147.000 55.750 C147.333 55.750 147.667 55.750 148.000 55.750 C148.333 55.417 148.667 55.083 149.000 54.750 C149.167 54.750 149.333 54.750 149.500 54.750 C149.833 54.417 150.167 54.083 150.500 53.750 C151.000 53.750 151.500 53.750 152.000 53.750 C152.083 53.833 152.167 53.917 152.250 54.000 C152.250 54.333 152.250 54.667 152.250 55.000 C152.417 55.167 152.583 55.333 152.750 55.500 C152.750 56.500 152.750 57.500 152.750 58.500 C152.583 58.667 152.417 58.833 152.250 59.000 C152.250 60.000 152.250 61.000 152.250 62.000 C152.083 62.167 151.917 62.333 151.750 62.500 C151.750 62.667 151.750 62.833 151.750 63.000 C151.583 63.167 151.417 63.333 151.250 63.500 C151.250 63.833 151.250 64.166 151.250 64.500 C151.083 64.666 150.917 64.834 150.750 65.000 C150.750 65.166 150.750 65.334 150.750 65.500 C150.583 65.666 150.417 65.834 150.250 66.000 C150.250 66.166 150.250 66.334 150.250 66.500 C150.083 66.666 149.917 66.834 149.750 67.000 C149.750 67.166 149.750 67.334 149.750 67.500 C149.583 67.666 149.417 67.834 149.250 68.000 C149.250 68.166 149.250 68.334 149.250 68.500 C148.917 68.834 148.583 69.166 148.250 69.500 C148.250 69.666 148.250 69.834 148.250 70.000 C147.333 70.916 146.417 71.834 145.500 72.750 C145.333 72.750 145.167 72.750 145.000 72.750 C144.500 73.250 144.000 73.750 143.500 74.250 C143.333 74.250 143.167 74.250 143.000 74.250 C142.833 74.416 142.667 74.584 142.500 74.750 C142.333 74.750 142.167 74.750 142.000 74.750 C141.833 74.916 141.667 75.084 141.500 75.250 C141.333 75.250 141.167 75.250 141.000 75.250 C140.500 75.584 140.000 75.916 139.500 76.250 C139.000 76.250 138.500 76.250 138.000 76.250 C137.833 76.416 137.667 76.584 137.500 76.750 C136.333 76.750 135.167 76.750 134.000 76.750 C133.833 76.916 133.667 77.084 133.500 77.250 C133.333 77.250 133.167 77.250 133.000 77.250 C132.833 77.084 132.667 76.916 132.500 76.750 C132.333 76.750 132.167 76.750 132.000 76.750"></path>
<path id="" fill="#42cc1a" fill-opacity="1.0" stroke="#000000" stroke-width="0.0" stroke-opacity="1.0" stroke-linecap="round" stroke-linejoin="round"  filling="0" d="M123.750 74.500 C123.166 75.084 122.584 75.666 122.000 76.250 C121.334 76.250 120.666 76.250 120.000 76.250 C119.834 76.416 119.666 76.584 119.500 76.750 C119.334 76.584 119.166 76.416 119.000 76.250 C118.166 76.250 117.334 76.250 116.500 76.250 C116.334 76.084 116.166 75.916 116.000 75.750 C115.666 75.750 115.334 75.750 115.000 75.750 C114.834 75.584 114.666 75.416 114.500 75.250 C114.166 75.250 113.834 75.250 113.500 75.250 C113.334 75.084 113.166 74.916 113.000 74.750 C112.666 74.750 112.334 74.750 112.000 74.750 C111.834 74.584 111.666 74.416 111.500 74.250 C111.334 74.250 111.166 74.250 111.000 74.250 C110.834 74.084 110.666 73.916 110.500 73.750 C110.334 73.750 110.166 73.750 110.000 73.750 C109.834 73.584 109.666 73.416 109.500 73.250 C109.334 73.250 109.166 73.250 109.000 73.250 C108.666 72.916 108.334 72.584 108.000 72.250 C107.834 72.250 107.666 72.250 107.500 72.250 C106.834 71.584 106.166 70.916 105.500 70.250 C105.334 70.250 105.166 70.250 105.000 70.250 C104.416 69.666 103.834 69.084 103.250 68.500 C103.250 68.334 103.250 68.166 103.250 68.000 C102.584 67.334 101.916 66.666 101.250 66.000 C101.250 65.834 101.250 65.666 101.250 65.500 C100.916 65.166 100.584 64.834 100.250 64.500 C100.250 64.334 100.250 64.166 100.250 64.000 C100.084 63.833 99.916 63.667 99.750 63.500 C99.750 63.333 99.750 63.167 99.750 63.000 C99.584 62.833 99.416 62.667 99.250 62.500 C99.250 62.333 99.250 62.167 99.250 62.000 C98.916 61.500 98.584 61.000 98.250 60.500 C98.250 60.167 98.250 59.833 98.250 59.500 C98.084 59.333 97.916 59.167 97.750 59.000 C97.750 58.667 97.750 58.333 97.750 58.000 C97.584 57.833 97.416 57.667 97.250 57.500 C97.250 56.833 97.250 56.167 97.250 55.500 C97.334 55.417 97.416 55.333 97.500 55.250 C97.834 55.250 98.166 55.250 98.500 55.250 C99.000 55.583 99.500 55.917 100.000 56.250 C100.334 56.250 100.666 56.250 101.000 56.250 C101.166 56.417 101.334 56.583 101.500 56.750 C101.834 56.750 102.166 56.750 102.500 56.750 C102.666 56.917 102.834 57.083 103.000 57.250 C103.334 57.250 103.666 57.250 104.000 57.250 C104.166 57.417 104.334 57.583 104.500 57.750 C105.000 57.750 105.500 57.750 106.000 57.750 C106.166 57.917 106.334 58.083 106.500 58.250 C106.834 58.250 107.166 58.250 107.500 58.250 C107.666 58.417 107.834 58.583 108.000 58.750 C108.500 58.750 109.000 58.750 109.500 58.750 C109.666 58.917 109.834 59.083 110.000 59.250 C110.334 59.250 110.666 59.250 111.000 59.250 C111.166 59.417 111.334 59.583 111.500 59.750 C111.834 59.750 112.166 59.750 112.500 59.750 C113.000 60.083 113.500 60.417 114.000 60.750 C114.334 60.750 114.666 60.750 115.000 60.750 C115.166 60.917 115.334 61.083 115.500 61.250 C115.666 61.250 115.834 61.250 116.000 61.250 C116.334 61.583 116.666 61.917 117.000 62.250 C117.166 62.250 117.334 62.250 117.500 62.250 C117.834 62.583 118.166 62.917 118.500 63.250 C118.666 63.250 118.834 63.250 119.000 63.250 C119.416 63.667 119.834 64.084 120.250 64.500 C120.250 64.666 120.250 64.834 120.250 65.000 C120.750 65.500 121.250 66.000 121.750 66.500 C121.750 66.666 121.750 66.834 121.750 67.000 C121.916 67.166 122.084 67.334 122.250 67.500 C122.250 67.666 122.250 67.834 122.250 68.000 C122.416 68.166 122.584 68.334 122.750 68.500 C122.750 68.666 122.750 68.834 122.750 69.000 C123.084 69.500 123.416 70.000 123.750 70.500 C123.750 71.834 123.750 73.166 123.750 74.500"></path>
<path id="" fill="#8e191e" fill-opacity="1.0" stroke="#000000" stroke-width="0.0" stroke-opacity="1.0" stroke-linecap="round" stroke-linejoin="round"  filling="0" d="M127.500 88.750 C127.000 88.750 126.500 88.750 126.000 88.750 C125.916 88.666 125.834 88.584 125.750 88.500 C125.750 88.166 125.750 87.834 125.750 87.500 C125.584 87.334 125.416 87.166 125.250 87.000 C125.250 86.334 125.250 85.666 125.250 85.000 C125.084 84.834 124.916 84.666 124.750 84.500 C124.750 83.334 124.750 82.166 124.750 81.000 C124.584 80.834 124.416 80.666 124.250 80.500 C124.250 78.500 124.250 76.500 124.250 74.500 C124.084 74.334 123.916 74.166 123.750 74.000 C123.750 70.500 123.750 67.000 123.750 63.500 C123.584 63.333 123.416 63.167 123.250 63.000 C123.250 61.667 123.250 60.333 123.250 59.000 C123.500 58.750 123.750 58.500 124.000 58.250 C125.334 58.250 126.666 58.250 128.000 58.250 C128.083 58.333 128.167 58.417 128.250 58.500 C128.250 60.500 128.250 62.500 128.250 64.500 C128.083 64.666 127.916 64.834 127.750 65.000 C127.750 72.834 127.750 80.666 127.750 88.500 C127.666 88.584 127.584 88.666 127.500 88.750"></path>
<path id="" fill="#750505" fill-opacity="1.0" stroke="#000000" stroke-width="0.0" stroke-opacity="1.0" stroke-linecap="round" stroke-linejoin="round"  filling="0" d="M140.750 87.000 C140.500 87.250 140.250 87.500 140.000 87.750 C139.667 87.750 139.333 87.750 139.000 87.750 C138.833 87.916 138.667 88.084 138.500 88.250 C138.167 88.250 137.833 88.250 137.500 88.250 C137.333 88.416 137.167 88.584 137.000 88.750 C136.667 88.750 136.333 88.750 136.000 88.750 C135.833 88.916 135.667 89.084 135.500 89.250 C135.000 89.250 134.500 89.250 134.000 89.250 C133.833 89.416 133.667 89.584 133.500 89.750 C132.833 89.750 132.167 89.750 131.500 89.750 C131.333 89.916 131.167 90.084 131.000 90.250 C128.333 90.250 125.666 90.250 123.000 90.250 C122.834 90.084 122.666 89.916 122.500 89.750 C122.000 89.750 121.500 89.750 121.000 89.750 C120.834 89.584 120.666 89.416 120.500 89.250 C120.166 89.250 119.834 89.250 119.500 89.250 C119.334 89.084 119.166 88.916 119.000 88.750 C118.666 88.750 118.334 88.750 118.000 88.750 C117.834 88.584 117.666 88.416 117.500 88.250 C117.166 88.250 116.834 88.250 116.500 88.250 C116.334 88.084 116.166 87.916 116.000 87.750 C115.834 87.750 115.666 87.750 115.500 87.750 C115.416 87.666 115.334 87.584 115.250 87.500 C115.334 87.416 115.416 87.334 115.500 87.250 C115.666 87.250 115.834 87.250 116.000 87.250 C116.166 87.084 116.334 86.916 116.500 86.750 C116.834 86.750 117.166 86.750 117.500 86.750 C117.666 86.916 117.834 87.084 118.000 87.250 C118.834 87.250 119.666 87.250 120.500 87.250 C120.666 87.416 120.834 87.584 121.000 87.750 C122.500 87.750 124.000 87.750 125.500 87.750 C125.666 87.916 125.834 88.084 126.000 88.250 C126.500 88.250 127.000 88.250 127.500 88.250 C127.666 88.084 127.834 87.916 128.000 87.750 C129.500 87.750 131.000 87.750 132.500 87.750 C132.667 87.584 132.833 87.416 133.000 87.250 C133.833 87.250 134.667 87.250 135.500 87.250 C135.667 87.084 135.833 86.916 136.000 86.750 C137.500 86.750 139.000 86.750 140.500 86.750 C140.583 86.834 140.667 86.916 140.750 87.000"></path>
</svg>