<?xml version="1.0" ?>
<svg xmlns="http://www.w3.org/2000/svg" version="1.1" width="256" height="256" viewBox="0 0 256 256">
  <defs/>
  <g>
    <path d="M 152.01119995 172.23953247 C 145.35026550 175.66206360 138.00785828 178.34936523 123.16114044 177.78869629 C 113.66976166 176.84942627 107.08119965 175.31994629 95.08894348 165.75387573 C 87.52494812 158.76809692 83.46707153 153.32890320 79.03177643 138.86318970 C 77.49690247 128.72019958 76.64162445 121.80567932 82.31291962 106.92148590 C 84.82811737 101.42876434 92.90366364 90.74308777 103.29928589 85.34828949 C 114.26490021 79.69873810 120.62379456 77.38500977 129.77243042 78.90937805 C 144.93029785 81.69938660 149.54211426 81.86477661 159.71893311 89.51844788 C 169.62054443 99.00382996 171.87646484 100.03196716 176.77059937 114.03764343 C 178.53277588 129.45532227 178.39135742 133.88327026 175.38700867 146.37634277 C 168.81684875 160.02102661 166.91339111 160.92185974 152.01119995 172.23953247" stroke-width="0.80000001" fill="rgb(255, 0, 0)" opacity="1.0" stroke="rgb(0, 0, 0)" stroke-opacity="1.0" stroke-linecap="round" stroke-linejoin="round"/>
    <path d="M 96.94114685 111.03923798 C 96.27301025 110.56116486 95.55464172 108.75568390 95.52416992 107.62026215 C 95.63096619 106.04873657 96.48693848 105.35221863 97.70460510 104.47647095 C 98.98287201 103.85079193 99.99643707 103.19017792 101.22736359 103.05194092 C 102.93638611 102.85338593 104.09169006 103.12525940 105.42919922 103.24083710 C 106.55427551 103.64842224 107.84442139 103.87078857 109.19265747 105.14267731 C 109.82666016 106.28410339 110.27409363 106.72550201 110.33467865 108.12411499 C 110.28656769 109.88183594 109.80668640 110.41445160 108.35419464 111.65667725 C 106.55913544 112.42680359 106.64901733 112.42285156 104.68156433 112.86363220 C 102.70308685 113.12187195 102.23143005 113.02693176 100.69159698 112.77462769 C 99.07318878 112.21489716 98.52079773 112.22630310 96.94114685 111.03923798" stroke-width="0.80000001" fill="rgb(255, 255, 255)" opacity="1.0" stroke="rgb(0, 0, 0)" stroke-opacity="1.0" stroke-linecap="round" stroke-linejoin="round"/>
    <path d="M 150.38798523 66.04394531 C 149.84906006 67.68244934 148.27563477 69.76977539 146.55734253 71.72512054 C 144.73580933 73.41796875 142.79689026 74.70410156 140.44531250 75.58042908 C 138.23977661 76.34397888 135.73649597 77.44641876 133.52331543 76.86269379 C 130.78802490 76.28704071 129.63354492 74.74147034 129.73104858 71.74200439 C 129.76489258 69.08061981 130.48724365 66.54776001 131.63250732 64.75785828 C 134.44070435 61.35007477 133.44868469 62.15434265 136.28062439 60.34641647 C 139.10752869 58.97465515 140.55189514 58.33969116 143.17028809 57.24185181 C 146.69757080 55.99102020 146.77946472 55.53962326 150.28709412 54.20342636 C 153.17337036 52.79635239 152.77333069 56.13043976 152.64419556 58.70587540 C 152.34552002 61.55163193 151.70819092 63.15807343 150.38798523 66.04394531" stroke-width="0.80000001" fill="rgb(12, 166, 26)" opacity="1.0" stroke="rgb(0, 0, 0)" stroke-opacity="1.0" stroke-linecap="round" stroke-linejoin="round"/>
    <path d="M 115.99655151 75.95198059 C 114.35648346 75.45123291 111.64981079 74.52671051 109.40769196 73.38999939 C 107.59243011 72.11476135 105.47743988 70.79124451 103.62052917 68.77386475 C 101.80451202 66.44406128 101.23114014 65.91500854 99.35788727 62.67632675 C 98.69499207 60.60467529 97.16687775 58.24971008 97.10097504 55.61785126 C 98.85320282 55.16912079 102.55125427 57.05785370 104.26257324 57.30509567 C 108.48684692 58.80960083 107.44999695 58.20941544 110.43022919 59.38061905 C 113.62432098 60.46008301 115.50876617 61.05938339 117.48598480 61.99087524 C 120.42411804 64.76078033 120.92789459 65.35095215 122.47128296 68.04137421 C 123.54507446 70.47402191 124.31298828 72.53459167 123.37428284 75.29513550 C 120.85807800 77.07262421 119.96679688 76.38911438 115.99655151 75.95198059" stroke-width="0.80000001" fill="rgb(66, 204, 26)" opacity="1.0" stroke="rgb(0, 0, 0)" stroke-opacity="1.0" stroke-linecap="round" stroke-linejoin="round"/>
    <path d="M 123.66961670 68.17552948 C 123.62088013 65.13467407 123.39485931 64.95856476 123.31907654 61.74396515 C 122.79022980 59.25878906 124.14009094 57.39041519 127.00394440 58.08063507 C 128.77949524 59.68502426 128.23136902 61.08241272 128.11695862 63.93560028 C 127.98964691 66.23938751 127.68419647 67.93477631 127.64381409 70.92330170 C 127.86291504 73.36847687 127.69570923 74.50599670 127.78302002 78.03621674 C 127.63433838 81.19055176 127.80202484 81.31291199 127.75716400 83.61727905 C 128.11608887 86.40214539 128.24613953 89.21599579 125.53593445 88.45472717 C 124.62376404 86.40915680 125.08483887 83.65167236 124.60762787 81.98431396 C 124.54978943 79.06629944 124.18601227 77.40399933 123.83614349 75.50655365 C 123.81326294 72.53240204 123.88397980 71.35874176 123.66961670 68.17552948" stroke-width="0.80000001" fill="rgb(142, 25, 30)" opacity="1.0" stroke="rgb(0, 0, 0)" stroke-opacity="1.0" stroke-linecap="round" stroke-linejoin="round"/>
    <path d="M 135.31663513 89.06502533 C 133.34185791 89.71926117 133.23764038 89.57581329 130.53385925 90.06630707 C 128.50028992 90.44630432 127.87695312 90.30273438 125.14012909 90.36090851 C 122.82690430 90.15775299 122.06923676 89.90202332 120.08751678 89.29824829 C 117.85628510 88.31519318 116.58842468 88.41161346 115.33126831 87.53774261 C 117.23551941 86.44679260 118.52158356 87.26878357 120.26959229 87.28626251 C 123.20497131 87.84783173 122.90130615 87.61257935 124.92810059 87.95902252 C 127.70246887 87.90268707 128.10923767 88.05158997 130.33712769 87.66212463 C 133.00064087 87.43857574 133.47308350 87.35666656 136.14768982 87.04788208 C 137.66687012 86.90276337 139.75399780 86.29598236 140.86872864 87.10347748 C 140.14916992 88.05823517 136.88899231 88.64814758 135.31663513 89.06502533" stroke-width="0.80000001" fill="rgb(117, 5, 5)" opacity="1.0" stroke="rgb(0, 0, 0)" stroke-opacity="1.0" stroke-linecap="round" stroke-linejoin="round"/>
  </g>
</svg>
