<?xml version="1.0" ?>
<svg xmlns="http://www.w3.org/2000/svg" version="1.1" width="512" height="512" viewBox="0 0 512 512">
  <defs/>
  <g>
    <path d="M 279.88037109 326.91839600 C 278.55273438 331.56597900 277.08297729 336.22781372 275.62026978 340.87643433 C 274.21258545 345.65847778 272.66333008 350.41360474 270.97821045 355.25436401 C 269.36395264 360.19372559 267.74356079 365.15020752 266.18530273 370.15148926 C 264.75747681 374.99264526 263.32089233 379.70523071 261.89718628 384.14694214 C 260.49530029 388.16580200 259.29809570 391.67630005 258.31347656 394.47494507 C 257.41104126 396.49728394 256.60946655 397.45098877 255.74992371 397.30453491 C 254.99780273 395.94805908 254.04750061 393.58023071 252.97254944 390.38708496 C 251.71522522 386.53491211 250.19535828 382.08529663 248.55142212 377.33782959 C 246.75961304 372.32043457 244.99406433 367.15777588 243.32997131 361.89208984 C 241.59025574 356.69287109 239.91729736 351.47366333 238.28727722 346.43328857 C 236.68290710 341.50723267 235.05065918 336.72393799 233.55616760 331.97534180 C 232.12286377 327.32891846 230.81448364 322.74520874 229.38014221 318.09637451 C 227.84437561 313.49707031 226.39691162 308.87152100 224.86550903 304.17544556 C 223.22227478 299.52716064 221.81062317 294.72421265 220.48553467 289.92022705 C 219.13079834 285.23461914 217.81471252 280.65789795 216.49346924 276.22839355 C 215.26797485 272.08670044 214.05830383 268.18807983 212.91905212 264.71658325 C 211.93545532 261.66375732 211.65635681 258.91146851 212.21961975 256.49270630 C 213.66052246 254.28643799 215.81669617 252.35301208 218.76855469 250.68014526 C 222.25996399 249.14541626 226.33869934 247.79356384 230.82299805 246.55647278 C 235.60752869 245.40357971 240.69000244 244.39161682 245.90718079 243.56101990 C 251.20680237 242.79386902 256.53750610 242.18188477 261.79727173 241.80728149 C 266.92242432 241.52258301 271.93350220 241.51284790 276.66284180 241.72450256 C 281.17401123 242.16688538 285.34411621 242.91636658 289.11859131 244.03419495 C 292.43530273 245.39764404 295.33233643 247.21488953 297.51959229 249.43263245 C 299.11904907 251.82975769 299.97994995 254.71726990 300.07733154 257.86865234 C 299.45837402 261.42074585 298.33285522 265.31048584 296.97750854 269.55044556 C 295.70599365 274.14825439 294.39083862 278.96475220 293.00598145 283.88784790 C 291.54541016 288.94406128 289.98864746 294.02914429 288.33755493 299.19860840 C 286.71643066 304.34939575 285.13070679 309.62646484 283.63629150 314.88543701 C 282.19873047 320.17236328 280.60949707 325.37966919 279.88037109 326.91839600" stroke-width="0.95713973" fill="rgb(184, 119, 64)" opacity="1.0" stroke="rgb(63, 5, 0)" stroke-opacity="0.6350875" stroke-linecap="round" stroke-linejoin="round"/>
    <path d="M 295.74005127 262.38269043 C 292.60549927 264.02685547 289.51547241 265.60284424 286.22970581 267.07916260 C 282.82229614 268.45016479 279.40304565 269.66564941 275.81091309 270.81823730 C 272.09210205 271.74743652 268.34686279 272.52270508 264.45385742 273.25320435 C 260.54046631 273.69503784 256.57925415 274.02944946 252.58625793 274.05145264 C 248.61238098 274.01119995 244.56402588 273.54318237 240.60606384 272.99026489 C 236.57838440 272.03680420 232.59394836 270.84713745 228.72021484 269.41964722 C 224.90525818 267.77474976 221.29225159 265.82876587 217.84231567 263.68457031 C 214.56033325 261.22760010 211.60595703 258.52841187 208.85211182 255.63102722 C 206.24893188 252.51554871 204.01214600 249.14123535 202.04051208 245.76876831 C 200.19552612 242.06469727 198.68061829 238.37141418 197.45919800 234.50456238 C 196.52441406 230.56141663 195.93016052 226.59390259 195.64775085 222.48495483 C 195.72592163 218.40975952 196.10116577 214.33645630 196.83683777 210.18037415 C 197.73854065 206.11425781 198.98753357 202.07658386 200.40760803 198.25292969 C 202.04165649 194.49728394 203.96025085 190.97741699 206.05450439 187.70910645 C 208.46266174 184.62657166 211.06028748 181.82058716 213.79087830 179.30113220 C 216.78675842 177.01757812 219.86213684 174.96540833 223.12260437 173.12663269 C 226.45735168 171.62007141 229.93266296 170.29444885 233.50102234 169.14500427 C 237.16896057 168.31416321 240.85044861 167.57553101 244.64660645 167.05845642 C 248.51866150 166.85169983 252.40371704 166.65834045 256.39175415 166.74128723 C 260.25946045 166.96597290 264.26000977 167.27111816 268.24035645 167.78506470 C 272.16238403 168.41499329 276.13470459 169.26864624 279.97854614 170.25588989 C 283.75296021 171.56669617 287.42529297 172.95706177 290.99121094 174.70075989 C 294.29043579 176.65083313 297.44055176 178.84425354 300.31323242 181.39343262 C 302.85513306 184.22853088 305.21517944 187.33940125 307.22384644 190.73280334 C 309.02697754 194.30453491 310.60821533 198.08432007 311.93878174 202.02716064 C 313.09399414 206.03825378 313.93392944 210.17810059 314.47836304 214.40148926 C 314.79678345 218.61053467 314.90853882 222.86065674 314.62191772 227.10769653 C 314.10354614 231.15447998 313.23388672 235.18145752 312.02413940 238.93513489 C 310.45443726 242.61114502 308.62088013 246.06729126 306.47824097 249.32926941 C 304.17565918 252.54708862 301.66571045 255.53662109 295.74005127 262.38269043" stroke-width="1.68498635" fill="rgb(246, 205, 155)" opacity="1.0" stroke="rgb(191, 149, 61)" stroke-opacity="0.13696232" stroke-linecap="round" stroke-linejoin="round"/>
    <path d="M 306.87689209 165.96058655 C 306.15048218 168.88528442 305.33773804 171.73945618 304.22521973 174.57191467 C 302.65933228 177.23808289 300.75186157 179.79551697 298.50582886 182.26901245 C 296.27584839 184.90084839 293.87362671 187.48411560 291.31903076 189.98841858 C 288.60711670 192.35205078 285.74346924 194.43742371 282.58218384 196.33535767 C 279.33279419 198.02944946 275.85055542 199.50178528 272.37252808 200.74557495 C 268.75201416 201.88482666 265.09948730 202.77093506 261.39810181 203.28909302 C 257.64651489 203.63059998 253.81776428 203.68363953 250.05622864 203.55345154 C 246.33386230 203.26927185 242.64956665 202.68624878 239.07975769 201.84930420 C 235.55758667 200.59202576 232.15023804 199.14381409 228.88786316 197.48539734 C 225.79870605 195.53469849 222.77709961 193.40837097 220.02818298 190.94265747 C 217.49401855 188.20927429 214.97750854 185.39221191 212.57609558 182.62034607 C 210.16485596 179.84521484 208.17544556 176.84507751 206.61009216 173.55113220 C 205.48692322 169.94282532 204.61152649 166.16555786 204.03988647 162.42037964 C 203.66706848 158.55584717 203.40623474 154.75445557 203.31828308 150.85614014 C 203.50750732 147.18469238 203.93782043 143.49317932 204.71507263 140.04098511 C 205.74757385 136.70230103 207.04884338 133.47439575 208.39208984 130.35215759 C 209.91377258 127.36145782 211.41592407 124.37212372 213.03977966 121.62772369 C 214.73518372 118.96967316 216.80665588 116.52603912 219.02592468 114.37099457 C 221.57281494 112.34217834 224.30929565 110.47886658 227.42404175 108.85978699 C 230.67984009 107.43311310 234.12362671 106.10189819 237.60812378 104.93526459 C 241.32029724 103.96544647 245.03131104 103.04338074 248.87457275 102.34471893 C 252.69490051 101.83358002 256.53433228 101.56194305 260.26785278 101.48039246 C 263.96191406 101.61721802 267.54483032 102.01226807 271.08273315 102.69612885 C 274.51266479 103.61834717 277.88406372 104.79195404 281.04879761 106.25479889 C 284.10598755 108.06539154 287.04269409 109.99238586 289.84512329 112.21435547 C 292.48580933 114.63088226 294.95355225 117.26051331 297.31655884 120.01852417 C 299.59228516 122.86632538 301.55523682 125.89177704 303.34835815 128.99989319 C 304.88989258 132.19171143 306.08657837 135.60124207 307.09729004 139.05587769 C 307.84219360 142.73641968 308.25189209 146.43560791 308.46289062 150.29328918 C 308.76074219 154.20275879 309.14968872 158.09025574 306.87689209 165.96058655" stroke-width="2.00000000" fill="rgb(195, 88, 101)" opacity="1.0" stroke="rgb(129, 61, 66)" stroke-opacity="1.0" stroke-linecap="round" stroke-linejoin="round"/>
    <path d="M 252.57771301 139.72392273 C 249.56007385 139.49424744 246.55688477 139.13359070 243.50294495 138.73309326 C 240.52076721 138.10363770 237.52416992 137.21151733 234.67451477 136.06646729 C 231.82708740 134.69886780 229.09306335 133.20477295 226.31658936 131.49595642 C 223.81396484 129.64682007 221.38267517 127.59117126 219.21316528 125.37807465 C 217.27619934 122.79199982 215.58444214 120.18296051 214.04847717 117.31864166 C 212.72428894 114.27839661 211.56343079 111.25250244 210.55725098 107.99588013 C 209.69847107 104.80079651 208.98667908 101.45951080 208.51234436 98.14299011 C 208.26034546 94.78546143 208.08473206 91.44676208 208.25213623 88.05306244 C 208.51148987 84.71389771 209.11131287 81.42359924 209.96391296 78.14735413 C 210.98957825 74.96717072 212.22764587 71.83583069 213.65786743 68.73925781 C 215.35166931 65.71300507 217.17820740 62.76446915 219.22868347 59.94474030 C 221.43960571 57.24628448 223.87942505 54.67137146 226.53038025 52.32707596 C 229.31970215 50.15422440 232.32862854 48.27239227 235.37721252 46.42542648 C 238.51579285 44.94324112 241.66355896 43.68332291 244.92851257 42.59101868 C 248.12245178 41.85216904 251.35052490 41.35540771 254.51199341 41.17054367 C 257.67224121 41.25697708 260.77951050 41.49796677 263.78665161 41.99851227 C 266.78869629 42.67820358 269.70812988 43.54338074 272.54458618 44.63032150 C 275.36892700 45.82949829 278.04238892 47.27534485 280.71621704 48.85128784 C 283.26947021 50.67988968 285.73992920 52.72864151 288.20724487 54.91033173 C 290.42541504 57.38491821 292.64620972 60.03548813 294.63107300 62.89715195 C 296.44973755 65.95318604 298.11212158 69.15556335 299.56912231 72.54678345 C 300.83236694 76.01697540 301.85510254 79.60954285 302.64807129 83.23156738 C 303.21322632 86.82761383 303.45947266 90.42631531 303.43786621 94.02252197 C 303.12371826 97.52160645 302.56021118 100.96881104 301.70358276 104.34394836 C 300.69665527 107.57205963 299.33743286 110.71687317 297.90148926 113.78744507 C 296.15985107 116.70542145 294.31143188 119.47187805 292.18652344 122.18639374 C 290.05520630 124.58631134 287.56680298 126.93378448 284.94393921 129.01254272 C 282.19079590 130.90457153 279.20321655 132.63510132 276.14978027 134.18708801 C 273.04296875 135.56910706 269.71994019 136.82734680 266.49728394 137.90824890 C 263.11880493 138.96797180 259.78448486 139.78695679 252.57771301 139.72392273" stroke-width="1.71175516" fill="rgb(251, 238, 205)" opacity="1.0" stroke="rgb(197, 169, 88)" stroke-opacity="0.09432038" stroke-linecap="round" stroke-linejoin="round"/>
    <path d="M 294.90145874 265.45065308 C 291.34054565 266.90161133 287.86569214 268.33508301 284.49316406 269.86798096 C 281.25137329 271.35592651 278.00744629 272.43664551 274.69409180 273.19039917 C 271.47259521 273.82434082 268.21395874 274.26455688 264.86148071 274.68655396 C 261.47052002 274.79843140 257.99710083 274.85675049 254.40388489 274.76562500 C 250.89035034 274.76803589 247.13134766 274.67913818 243.38729858 274.32775879 C 239.55815125 273.88940430 235.86999512 273.20401001 232.28385925 271.95120239 C 228.70753479 270.59976196 225.43171692 269.04989624 222.25718689 267.46578979 C 219.36579895 266.12939453 216.83825684 264.82693481 214.86016846 263.58535767 C 213.60142517 262.33108521 213.10798645 261.18444824 213.32272339 260.43377686 C 214.27864075 260.16528320 215.76737976 260.27920532 217.70874023 260.92785645 C 220.05760193 261.94766235 222.65296936 263.15408325 225.29074097 264.48114014 C 228.27285767 265.80142212 231.16236877 267.07717896 234.11201477 268.14694214 C 237.04327393 268.95468140 240.01852417 269.45156860 243.10508728 269.65719604 C 246.21875000 269.87127686 249.31044006 270.17782593 252.42497253 270.30838013 C 255.62951660 270.45761108 258.84020996 270.70339966 262.05908203 270.70898438 C 265.30062866 270.48745728 268.46707153 270.21847534 271.51623535 269.69174194 C 274.50631714 268.77386475 277.40023804 267.73107910 280.36303711 266.72549438 C 283.26959229 265.61599731 286.12884521 264.58499146 288.93045044 263.54629517 C 291.62719727 262.41189575 294.11880493 260.96868896 296.53793335 259.37796021 C 298.93902588 257.65026855 301.32254028 256.02462769 294.90145874 265.45065308" stroke-width="2.00000000" fill="rgb(243, 234, 211)" opacity="1.0" stroke="rgb(145, 118, 100)" stroke-opacity="0.5466408" stroke-linecap="round" stroke-linejoin="round"/>
  </g>
</svg>
