<?xml version="1.0" ?>
<svg xmlns="http://www.w3.org/2000/svg" version="1.1" width="512" height="512" viewBox="0 0 512 512">
  <defs/>
  <g>
    <path d="M 278.47717285 328.53234863 C 276.89385986 333.87957764 275.26895142 339.14559937 273.67700195 344.38046265 C 271.86541748 349.54379272 270.22509766 354.75872803 268.61160278 359.82696533 C 267.05737305 364.76641846 265.55368042 369.55725098 264.04354858 374.05920410 C 262.76251221 378.39251709 261.54986572 382.38439941 260.33108521 385.91992188 C 259.34002686 389.02484131 258.46270752 391.62533569 257.62725830 393.69967651 C 256.99417114 395.15499878 256.61276245 395.86328125 256.27758789 395.77865601 C 255.82638550 394.80386353 255.16497803 393.11492920 254.30813599 390.69998169 C 253.35969543 387.70141602 252.04232788 384.18582153 250.61973572 380.28198242 C 248.99801636 375.96374512 247.31013489 371.34365845 245.67919922 366.52606201 C 244.03979492 361.28146362 242.22128296 355.93960571 240.54719543 350.60778809 C 238.96992493 345.03674316 237.10644531 339.43045044 235.17518616 333.90270996 C 233.26797485 328.47424316 231.68791199 322.93212891 230.19470215 317.23895264 C 228.37994385 311.84286499 226.56065369 306.58636475 224.74566650 301.37875366 C 223.11108398 296.18899536 221.66108704 291.03128052 220.31021118 286.07922363 C 218.95480347 281.37881470 217.55056763 276.73040771 216.28697205 272.40200806 C 215.04592896 268.36929321 213.97872925 264.68347168 213.09178162 261.24777222 C 212.43388367 258.27059937 212.32550049 255.63934326 212.92771912 253.35009766 C 214.19636536 251.24601746 216.27738953 249.37983704 219.04913330 247.75178528 C 222.41171265 246.34231567 226.26811218 245.05935669 230.48828125 244.00125122 C 235.02577209 243.12673950 239.82357788 242.31604004 244.91397095 241.74589539 C 250.04914856 241.33158875 255.30278015 241.07601929 260.49884033 241.03254700 C 265.64505005 241.11033630 270.63317871 241.41816711 275.49838257 241.97178650 C 280.01174927 242.72460938 284.25790405 243.63269043 288.10827637 244.84117126 C 291.46182251 246.32351685 294.29788208 248.04286194 296.52774048 249.95574951 C 298.25024414 252.25062561 299.24642944 254.79046631 299.39297485 257.53964233 C 298.75802612 260.60144043 297.68862915 264.05264282 296.47424316 267.78222656 C 295.25628662 271.85046387 294.16821289 276.30645752 292.97994995 280.96823120 C 291.58895874 285.78430176 290.07760620 290.62084961 288.46783447 295.64004517 C 286.78527832 300.70352173 285.23608398 305.85354614 283.81246948 311.05618286 C 282.31082153 316.28839111 280.78759766 321.49539185 278.47717285 328.53234863" stroke-width="1.82107699" fill="rgb(188, 123, 66)" opacity="1.0" stroke="rgb(104, 42, 0)" stroke-opacity="0.78765285" stroke-linecap="round" stroke-linejoin="round"/>
    <path d="M 292.17355347 264.41162109 C 289.00161743 265.55548096 285.80105591 266.77508545 282.55487061 267.94985962 C 279.30715942 269.08624268 275.98831177 270.19018555 272.67840576 271.13073730 C 269.21902466 271.93487549 265.74160767 272.61410522 262.15332031 273.05615234 C 258.53588867 273.39630127 254.76562500 273.56726074 251.00895691 273.50213623 C 247.26396179 273.27542114 243.47570801 272.83813477 239.68345642 272.08407593 C 235.90354919 271.21722412 232.10925293 270.05947876 228.48345947 268.68551636 C 224.85124207 266.99722290 221.45199585 265.06790161 218.19126892 262.84228516 C 215.14102173 260.26721191 212.22676086 257.54565430 209.38061523 254.75024414 C 206.67645264 251.83563232 204.32545471 248.69456482 202.34399414 245.35534668 C 200.44046021 241.89813232 198.86975098 238.30506897 197.55665588 234.61210632 C 196.66148376 230.77624512 196.12338257 226.81593323 195.86964417 222.85145569 C 195.90782166 218.79945374 196.23017883 214.80603027 196.77615356 210.79554749 C 197.63604736 206.92593384 198.73951721 203.03852844 200.10789490 199.34707642 C 201.69302368 195.72697449 203.45976257 192.29594421 205.51972961 189.03358459 C 207.84248352 185.97981262 210.37007141 183.14970398 213.14793396 180.50752258 C 216.07266235 178.09356689 219.20272827 175.89938354 222.48742676 173.85566711 C 225.92298889 172.10533142 229.51979065 170.53102112 233.23153687 169.18989563 C 237.06349182 168.08207703 240.98435974 167.12030029 244.93609619 166.41708374 C 249.01815796 165.89416504 253.10903931 165.58117676 257.20758057 165.48661804 C 261.35644531 165.59576416 265.50265503 165.91505432 269.59698486 166.43734741 C 273.66931152 167.20729065 277.62884521 168.16137695 281.51818848 169.40002441 C 285.29803467 170.81163025 288.91134644 172.52236938 292.27770996 174.49641418 C 295.45275879 176.71705627 298.43835449 179.17599487 301.05078125 181.94425964 C 303.43582153 184.99763489 305.49447632 188.20787048 307.38751221 191.63087463 C 309.11035156 195.13049316 310.60260010 198.78465271 311.84216309 202.47631836 C 312.96774292 206.19383240 313.79095459 209.95767212 314.38513184 213.72654724 C 314.63671875 217.47189331 314.70733643 221.17901611 314.60964966 224.82659912 C 314.35656738 228.44035339 313.82009888 231.88079834 312.99557495 235.30876160 C 311.97909546 238.57949829 310.64776611 241.74180603 309.22375488 244.84680176 C 307.84335327 247.89785767 306.34762573 250.96284485 292.17355347 264.41162109" stroke-width="1.51066577" fill="rgb(250, 209, 155)" opacity="1.0" stroke="rgb(180, 125, 27)" stroke-opacity="0.16701272" stroke-linecap="round" stroke-linejoin="round"/>
    <path d="M 306.98278809 164.88139343 C 306.42089844 168.14393616 305.56506348 171.29019165 304.31130981 174.31774902 C 302.75177002 177.18339539 300.67108154 179.80715942 298.33428955 182.32855225 C 295.94998169 184.92669678 293.67166138 187.61990356 291.17623901 190.21203613 C 288.43624878 192.49934387 285.50363159 194.58686829 282.36468506 196.46768188 C 279.05142212 198.17279053 275.58914185 199.56822205 272.03060913 200.77252197 C 268.37808228 201.93437195 264.65026855 202.90240479 260.80050659 203.46267700 C 256.97055054 203.69128418 253.07666016 203.65396118 249.14122009 203.52180481 C 245.24890137 203.16171265 241.50341797 202.48484802 237.85992432 201.43109131 C 234.35972595 200.09812927 230.98838806 198.53602600 227.73838806 196.75440979 C 224.74302673 194.83201599 221.88621521 192.79147339 219.40460205 190.41673279 C 217.28277588 187.70158386 215.09228516 185.11082458 212.76216125 182.71653748 C 210.46121216 180.23294067 208.56408691 177.53582764 207.08326721 174.58706665 C 205.93013000 171.14204407 205.05097961 167.49931335 204.23852539 163.73187256 C 203.72721863 159.82624817 203.45431519 155.75962830 203.24916077 151.72177124 C 203.49275208 147.74568176 203.95666504 143.92294312 204.61184692 140.14099121 C 205.71591187 136.58871460 207.13052368 133.22236633 208.67863464 129.95480347 C 210.24517822 126.69655609 211.85127258 123.62267303 213.58489990 120.64300537 C 215.54122925 117.85285950 217.68276978 115.32783508 220.03350830 113.05804443 C 222.57102966 110.90911102 225.33392334 109.00163269 228.28460693 107.39428711 C 231.40943909 105.95816040 234.55140686 104.74726868 237.90345764 103.64665985 C 241.37477112 102.85873413 244.91014099 102.25049591 248.51008606 101.82903290 C 252.17141724 101.56838226 255.89733887 101.57182312 259.54525757 101.75927734 C 263.24081421 102.11376190 266.91476440 102.72887421 270.60498047 103.56315613 C 274.16351318 104.51551056 277.62255859 105.76602936 280.97790527 107.26041412 C 284.20059204 108.94574738 287.34967041 110.75867462 290.31802368 112.86249542 C 293.00848389 115.31494904 295.51574707 117.91898346 297.88729858 120.60354614 C 300.09866333 123.62673950 302.03002930 126.71279144 303.85653687 129.94982910 C 305.39169312 133.30535889 306.53805542 136.92782593 307.43362427 140.72830200 C 308.04837036 144.59030151 308.47109985 148.67301941 308.59173584 152.86579895 C 308.59548950 157.11968994 308.68872070 161.42604065 306.98278809 164.88139343" stroke-width="2.00000000" fill="rgb(192, 86, 98)" opacity="1.0" stroke="rgb(130, 56, 63)" stroke-opacity="1.0" stroke-linecap="round" stroke-linejoin="round"/>
    <path d="M 249.00372314 139.56993103 C 246.24937439 139.18130493 243.41722107 138.71672058 240.69073486 138.17492676 C 237.98750305 137.45312500 235.43011475 136.40304565 232.96687317 135.20610046 C 230.44728088 133.91560364 228.01577759 132.49594116 225.62698364 130.94865417 C 223.31050110 129.25428772 221.11061096 127.39536285 219.07299805 125.30924988 C 217.30679321 122.90682983 215.74362183 120.31637573 214.22169495 117.63298798 C 212.89312744 114.71945190 211.70802307 111.69818115 210.71891785 108.48589325 C 209.89932251 105.20251465 209.19082642 101.90721130 208.68829346 98.45754242 C 208.35942078 94.97737885 208.16247559 91.54287720 208.19815063 88.09378815 C 208.50846863 84.64679718 209.06517029 81.29274750 210.00376892 77.98254395 C 211.13987732 74.65509033 212.39541626 71.46667480 213.93850708 68.30044556 C 215.61569214 65.28388214 217.51493835 62.34637070 219.56422424 59.54379654 C 221.73716736 56.86765289 224.12702942 54.43820953 226.66564941 52.17245102 C 229.29733276 50.12321854 232.10592651 48.25301361 234.97265625 46.62528610 C 237.93325806 45.11875534 240.90074158 43.78787231 243.94868469 42.76626587 C 247.10638428 41.98335266 250.22238159 41.44954681 253.44020081 41.23779297 C 256.63513184 41.25060654 259.85345459 41.52735138 263.06619263 42.03576660 C 266.24307251 42.81856155 269.39230347 43.73893356 272.52264404 44.84929657 C 275.54803467 46.11682129 278.50991821 47.61834717 281.31353760 49.35135269 C 283.99194336 51.35778809 286.54589844 53.49217987 288.96911621 55.85115433 C 291.27447510 58.32874298 293.35241699 61.03888702 295.29858398 63.86672974 C 297.04785156 66.84123993 298.59951782 69.92727661 299.93508911 73.18094635 C 301.08905029 76.41880798 302.06961060 79.80868530 302.76235962 83.18768311 C 303.25869751 86.63332367 303.49877930 90.11711121 303.47964478 93.51902008 C 303.19799805 96.88658142 302.69671631 100.22682953 301.93157959 103.51943970 C 300.89132690 106.67512512 299.67547607 109.79040527 298.28411865 112.79765320 C 296.69934082 115.65726471 294.98046875 118.43075562 293.06518555 121.03639984 C 291.09219360 123.58032227 288.86550903 125.85453033 286.38061523 127.91530609 C 283.78060913 129.85388184 281.05593872 131.66325378 278.09201050 133.31924438 C 274.94995117 134.71583557 271.62951660 135.99937439 268.32015991 137.29367065 C 264.93151855 138.56028748 261.48330688 139.85618591 249.00372314 139.56993103" stroke-width="2.00000000" fill="rgb(251, 236, 202)" opacity="1.0" stroke="rgb(200, 176, 93)" stroke-opacity="0.07923397" stroke-linecap="round" stroke-linejoin="round"/>
    <path d="M 295.81753540 264.81726074 C 292.16299438 266.48413086 288.46481323 268.08370972 284.84774780 269.77713013 C 281.42260742 271.54318237 277.81881714 272.67169189 273.92337036 273.34744263 C 269.95431519 274.10736084 265.85440063 274.59671021 261.66180420 274.83471680 C 257.44827271 274.72964478 253.28129578 274.68856812 249.13356018 274.72854614 C 245.14895630 274.47491455 241.40902710 274.28253174 237.88529968 274.02481079 C 234.68739319 272.97845459 231.73617554 271.67010498 228.93202209 270.65066528 C 226.24359131 269.79388428 223.91754150 268.43081665 221.63534546 266.97103882 C 219.07582092 266.01223755 216.75894165 264.91055298 214.72038269 263.64526367 C 213.31983948 262.06161499 212.46557617 260.40582275 212.12416077 259.02996826 C 212.17304993 258.19201660 212.73736572 257.91073608 213.77742004 258.34292603 C 215.25831604 259.35052490 217.23382568 260.63018799 219.74836731 261.97161865 C 222.60183716 263.28152466 225.74140930 264.66668701 228.94557190 266.14285278 C 232.29084778 267.51364136 235.63655090 268.69793701 239.05917358 269.54644775 C 242.49215698 269.51593018 245.97875977 269.71386719 249.46578979 270.22332764 C 253.14453125 270.28787231 256.83596802 270.45889282 260.50216675 270.83178711 C 264.16979980 270.60653687 267.84790039 270.27780151 271.47766113 269.77896118 C 274.91564941 268.61389160 278.33502197 267.38333130 281.66314697 266.19335938 C 284.83676147 264.95486450 287.87814331 264.01229858 290.65750122 263.26922607 C 292.99642944 261.98165894 294.99856567 260.34976196 296.94763184 258.57931519 C 299.02960205 256.89779663 301.13562012 255.20521545 295.81753540 264.81726074" stroke-width="2.00000000" fill="rgb(245, 236, 211)" opacity="1.0" stroke="rgb(135, 108, 94)" stroke-opacity="0.4947831" stroke-linecap="round" stroke-linejoin="round"/>
  </g>
</svg>
