<?xml version="1.0" ?>
<svg xmlns="http://www.w3.org/2000/svg" version="1.1" width="512" height="512" viewBox="0 0 512 512">
  <defs/>
  <g>
    <path d="M 279.83694458 329.05154419 C 278.66546631 333.65087891 277.38607788 337.62008667 276.06658936 341.45590210 C 274.74713135 345.29171753 273.38754272 348.99414062 272.05572510 353.05984497 C 270.72387695 357.12554932 269.41976929 361.55456543 268.21121216 366.84359741 C 265.76113892 372.26541138 264.30776978 377.12564087 263.19097900 381.34277344 C 262.07415771 385.55993652 261.29388428 389.13403320 260.19000244 391.98352051 C 259.08612061 394.83300781 257.65866089 396.95794678 255.24743652 398.27679443 C 253.79512024 394.45144653 252.40048218 390.37811279 250.97650146 386.13186646 C 249.55252075 381.88562012 248.09919739 377.46649170 246.52952576 372.94952393 C 244.95985413 368.43252563 243.27383423 363.81768799 241.38442993 359.18011475 C 240.16140747 354.77511597 238.94090271 350.57589722 237.66410828 346.36019897 C 236.38731384 342.14453125 235.05422974 337.91235352 233.60609436 333.44140625 C 232.15794373 328.97045898 230.59472656 324.26080322 228.85763550 319.09008789 C 227.05383301 313.23995972 225.61486816 308.58096313 224.30783081 304.36569214 C 223.00079346 300.15045166 221.82571411 296.37890625 220.54965210 292.30368042 C 219.27359009 288.22845459 217.89654541 283.84954834 216.18565369 278.41955566 C 215.09288025 272.72360229 213.55546570 268.29000854 212.50268555 264.70336914 C 211.44992065 261.11676025 210.88179016 258.37710571 211.72760010 256.06909180 C 212.57342529 253.76107788 214.83319092 251.88467407 219.43617249 250.02450562 C 224.44937134 249.63420105 228.97399902 249.00428772 233.36184692 248.26794434 C 237.74969482 247.53158569 242.00073242 246.68879700 246.46676636 245.87269592 C 250.93280029 245.05657959 255.61380005 244.26718140 260.86157227 243.63761902 C 266.32791138 243.15325928 271.28729248 242.44389343 275.83627319 241.97912598 C 280.38525391 241.51434326 284.52380371 241.29417419 288.34844971 241.78819275 C 292.17309570 242.28221130 295.68389893 243.49041748 298.97729492 245.88244629 C 300.69692993 250.12528992 300.96453857 254.30888367 300.43206787 258.56497192 C 299.89959717 262.82107544 298.56704712 267.14968872 297.08636475 271.68252563 C 295.60568237 276.21539307 293.97686768 280.95248413 292.85192871 286.02557373 C 291.19500732 291.01760864 289.76950073 295.84136963 288.41424561 300.59463501 C 287.05902100 305.34790039 285.77404785 310.03073120 284.39819336 314.74093628 C 283.02233887 319.45114136 281.55566406 324.18872070 279.83694458 329.05154419" stroke-width="0.44854066" fill="rgb(183, 120, 63)" opacity="1.0" stroke="rgb(67, 18, 0)" stroke-opacity="1.0" stroke-linecap="round" stroke-linejoin="round"/>
    <path d="M 297.64135742 259.71041870 C 293.95541382 262.55581665 290.27719116 264.83407593 286.63226318 266.67291260 C 282.98730469 268.51177979 279.37561035 269.91119385 275.82269287 270.99902344 C 272.26974487 272.08682251 268.77557373 272.86297607 265.36566162 273.45526123 C 261.17550659 274.02246094 256.86877441 274.27865601 252.62893677 274.18682861 C 248.38909912 274.09500122 244.21617126 273.65515137 240.29368591 272.83029175 C 236.37118530 272.00543213 232.69912720 270.79553223 229.46099854 269.16366577 C 225.47564697 267.40438843 221.76411438 265.38671875 218.36154175 263.06408691 C 214.95895386 260.74145508 211.86531067 258.11392212 209.11575317 255.13491821 C 206.36619568 252.15589905 203.96072388 248.82543945 201.93446350 245.09696960 C 200.20549011 242.07247925 198.72619629 238.83007812 197.63076782 235.26815796 C 196.53533936 231.70623779 195.82379150 227.82481384 195.63031006 223.52224731 C 195.43684387 219.21968079 195.76145935 214.49597168 196.73837280 209.24952698 C 197.61262512 206.07331848 198.67327881 202.72640991 200.11456299 199.30139160 C 201.55584717 195.87637329 203.37779236 192.37324524 205.77464294 188.88456726 C 208.17149353 185.39587402 211.14324951 181.92166138 214.88415527 178.55444336 C 218.43714905 176.13381958 221.59722900 174.11183167 224.64498901 172.49958801 C 227.69274902 170.88732910 230.62818909 169.68482971 233.73193359 168.90316772 C 236.83566284 168.12150574 240.10769653 167.76068115 243.82861328 167.83183289 C 247.89149475 167.60565186 251.68142700 167.52682495 255.48660278 167.62773132 C 259.29180908 167.72863770 263.11224365 168.00930786 267.23620605 168.50212097 C 271.36013794 168.99493408 275.78759766 169.69989014 280.80676270 170.64939880 C 283.96319580 171.62106323 287.11846924 172.73747253 290.21987915 174.30323792 C 293.32131958 175.86900330 296.36892700 177.88410950 299.31005859 180.65316772 C 302.25122070 183.42221069 305.08590698 186.94520569 307.76150513 191.52673340 C 309.59509277 194.66989136 311.03500366 197.97364807 312.12051392 201.55824280 C 313.20602417 205.14282227 313.93710327 209.00823975 314.35299683 213.27468872 C 314.76892090 217.54113770 314.86962891 222.20863342 314.69436646 227.39738464 C 314.04223633 232.00433350 312.97894287 236.24618530 311.50140381 240.14918518 C 310.02386475 244.05218506 308.13211060 247.61630249 305.82308960 250.86776733 C 303.51409912 254.11923218 300.78784180 257.05804443 297.64135742 259.71041870" stroke-width="0.96631753" fill="rgb(247, 207, 154)" opacity="1.0" stroke="rgb(200, 173, 102)" stroke-opacity="1.0" stroke-linecap="round" stroke-linejoin="round"/>
    <path d="M 306.31527710 165.67755127 C 305.74472046 168.15234375 304.83285522 170.67097473 303.52825928 173.23600769 C 302.22363281 175.80105591 300.52624512 178.41250610 298.38458252 181.07299805 C 296.24291992 183.73348999 293.65698242 186.44302368 290.57531738 189.20416260 C 287.95535278 191.32888794 284.97854614 193.48626709 281.76599121 195.41773987 C 278.55346680 197.34921265 275.10519409 199.05479431 271.54238892 200.27593994 C 267.97955322 201.49708557 264.30218506 202.23379517 260.63143921 202.22753906 C 257.34997559 202.36914062 254.08818054 202.45028687 250.75009155 202.25413513 C 247.41200256 202.05798340 243.99765015 201.58453369 240.41111755 200.61694336 C 236.82458496 199.64935303 233.06588745 198.18762207 229.03910828 196.01490784 C 226.59103394 194.44505310 224.03439331 192.76701355 221.48101807 190.71540833 C 218.92765808 188.66381836 216.37757874 186.23864746 213.94262695 183.17456055 C 211.50769043 180.11044312 209.18786621 176.40740967 207.09506226 171.80001831 C 206.24079895 168.94134521 205.47151184 165.92839050 204.94177246 162.69201660 C 204.41204834 159.45562744 204.12188721 155.99581909 204.22592163 152.24343872 C 204.32994080 148.49104309 204.82815552 144.44607544 205.87515259 140.03938293 C 207.08255005 136.13134766 208.39765930 132.64814758 209.77406311 129.62423706 C 211.15048218 126.60032654 212.58818054 124.03571320 214.04077148 121.96482849 C 215.49334717 119.89394379 216.96081543 118.31678772 218.39674377 117.26782227 C 221.16572571 114.43390656 224.10612488 111.93578339 227.26635742 109.80678558 C 230.42660522 107.67778015 233.80668640 105.91790771 237.45504761 104.56048584 C 241.10340881 103.20306396 245.02005005 102.24809265 249.25338745 101.72891235 C 253.49093628 101.23944855 257.56796265 101.07451630 261.40145874 101.21894836 C 265.23495483 101.36338043 268.82492065 101.81717682 272.08837891 102.56515503 C 275.35180664 103.31314087 278.28875732 104.35530090 280.81616211 105.67648315 C 283.86791992 107.09160614 286.65072632 109.08687592 289.22915649 111.50995636 C 291.80761719 113.93302917 294.18170166 116.78391266 296.41604614 119.91027069 C 298.65039062 123.03662872 300.74499512 126.43846130 302.76446533 129.96342468 C 304.15859985 133.09117126 305.33056641 135.99943542 306.16937256 139.18786621 C 307.00817871 142.37631226 307.51376343 145.84490967 307.57510376 150.09330750 C 307.63641357 154.34170532 307.25350952 159.36990356 306.31527710 165.67755127" stroke-width="1.50917757" fill="rgb(193, 88, 100)" opacity="1.0" stroke="rgb(149, 66, 78)" stroke-opacity="1.0" stroke-linecap="round" stroke-linejoin="round"/>
    <path d="M 254.43920898 139.41369629 C 251.25242615 139.67698669 247.91171265 139.39447021 244.60012817 138.73567200 C 241.28854370 138.07685852 238.00608826 137.04173279 234.93583679 135.79978943 C 231.86557007 134.55784607 229.00750732 133.10906982 226.54470825 131.62295532 C 223.82637024 129.58026123 221.43455505 127.36551666 219.36601257 124.93164062 C 217.29747009 122.49775696 215.55218506 119.84474182 214.12692261 116.92549133 C 212.70166016 114.00623322 211.59638977 110.82073975 210.80787659 107.32189941 C 210.30448914 104.56720734 209.73605347 101.68750763 209.32304382 98.65367126 C 208.91001892 95.61983490 208.65240479 92.43185425 208.77064514 89.06059265 C 208.88888550 85.68933105 209.38296509 82.13478088 210.47335815 78.36779785 C 211.33621216 74.59163666 212.57017517 71.26286316 214.12670898 68.24672699 C 215.68322754 65.23059082 217.56233215 62.52710724 219.71545410 60.00151825 C 221.86856079 57.47593307 224.29571533 55.12825012 226.94834900 52.82373047 C 229.12561035 50.27658463 231.60925293 48.32241821 234.40408325 46.82270813 C 237.19891357 45.32299805 240.30496216 44.27774048 243.72698975 43.54841614 C 247.14903259 42.81909561 250.88708496 42.40570831 254.94595337 42.16973877 C 260.54153442 42.74433517 263.94268799 43.00299072 266.35845947 43.28027725 C 268.77423096 43.55756378 270.20468140 43.85346985 271.85885620 44.50257111 C 273.51300049 45.15166855 275.39093018 46.15395355 278.70169067 47.84399414 C 281.93780518 49.93854904 284.74865723 52.25827026 287.24594116 54.82748032 C 289.74322510 57.39669037 291.92687988 60.21538544 293.90856934 63.30788422 C 295.89028931 66.40039062 297.67004395 69.76669312 299.35943604 73.43112183 C 300.83438110 77.22756195 301.88211060 80.96156311 302.52926636 84.55962372 C 303.17645264 88.15768433 303.42303467 91.61981201 303.29574585 94.87248993 C 303.16845703 98.12517548 302.66729736 101.16842651 301.81887817 103.92872620 C 300.93771362 107.52839661 299.63107300 110.83197021 297.99368286 113.85464478 C 296.35626221 116.87731171 294.38806152 119.61907196 292.18374634 122.09510803 C 289.97943115 124.57113647 287.53900146 126.78144836 284.95709229 128.74122620 C 282.50973511 130.87442017 279.30770874 132.76565552 275.79119873 134.34111023 C 272.27468872 135.91656494 268.44366455 137.17622375 264.73831177 138.04626465 C 261.03292847 138.91630554 257.45318604 139.39672852 254.43920898 139.41369629" stroke-width="0.93706918" fill="rgb(253, 238, 205)" opacity="1.0" stroke="rgb(195, 179, 93)" stroke-opacity="1.0" stroke-linecap="round" stroke-linejoin="round"/>
    <path d="M 291.89791870 266.68569946 C 289.82208252 267.18991089 287.44204712 268.27380371 284.64208984 269.48147583 C 281.84213257 270.68911743 278.62225342 272.02050781 274.86666870 273.01974487 C 271.38757324 273.72299194 268.05612183 274.27105713 264.74368286 274.62683105 C 261.43121338 274.98260498 258.13775635 275.14611816 254.73458862 275.08032227 C 250.70724487 274.85711670 247.40133667 274.73022461 244.19842529 274.39132690 C 240.99548340 274.05239868 237.89553833 273.50140381 234.28009033 272.42996216 C 229.82368469 271.01312256 226.44352722 269.63354492 223.60263062 268.27099609 C 220.76173401 266.90847778 218.46008301 265.56301880 216.16069031 264.21441650 C 212.71003723 261.03958130 211.60699463 259.33898926 212.27436829 259.02816772 C 212.94174194 258.71734619 215.37951660 259.79629517 219.01046753 262.18057251 C 224.04797363 263.64971924 226.36529541 264.72503662 228.13519287 265.68255615 C 229.90507507 266.64007568 231.12753296 267.47979736 233.97531128 268.47772217 C 237.50833130 269.82257080 240.48832703 270.09692383 243.30215454 270.09613037 C 246.11598206 270.09530640 248.76364136 269.81933594 251.63197327 270.06353760 C 255.88894653 270.59924316 258.83758545 271.00061035 261.59237671 271.04403687 C 264.34716797 271.08746338 266.90814209 270.77294922 270.38967896 269.87698364 C 274.85037231 268.98901367 278.35827637 267.96484375 281.36819458 266.88604736 C 284.37811279 265.80725098 286.89001465 264.67385864 289.35870361 263.56741333 C 293.64999390 261.05459595 296.97662354 260.13586426 297.88455200 260.69448853 C 298.79244995 261.25311279 297.28161621 263.28906250 291.89791870 266.68569946" stroke-width="1.36023962" fill="rgb(243, 237, 215)" opacity="1.0" stroke="rgb(142, 115, 101)" stroke-opacity="1.0" stroke-linecap="round" stroke-linejoin="round"/>
  </g>
</svg>
