<?xml version="1.0" ?>
<svg xmlns="http://www.w3.org/2000/svg" version="1.1" width="512" height="512" viewBox="0 0 512 512">
  <defs/>
  <g>
    <path d="M 278.29348755 329.14990234 C 276.61193848 334.39434814 275.01058960 339.74282837 273.47546387 345.08026123 C 271.61218262 350.25341797 269.98516846 355.40777588 268.31533813 360.56246948 C 266.76953125 365.48217773 265.28198242 370.27105713 263.76876831 374.70437622 C 262.75738525 378.93579102 261.57907104 382.74142456 260.24200439 386.10833740 C 259.43942261 389.17422485 258.35870361 391.72952271 257.40426636 393.74816895 C 256.71215820 395.09829712 256.54309082 395.97262573 256.40286255 396.19125366 C 255.97927856 395.35906982 255.26985168 393.65820312 254.42803955 391.36929321 C 253.54258728 388.46850586 252.21405029 384.94567871 250.84687805 380.87130737 C 249.25926208 376.55920410 247.51437378 371.93179321 245.83268738 366.98849487 C 244.18342590 361.77621460 242.41394043 356.55407715 240.68310547 351.19042969 C 239.24850464 345.44140625 237.26445007 339.88970947 235.27258301 334.39614868 C 233.35063171 328.70510864 231.90153503 322.95440674 230.24736023 317.28839111 C 228.28863525 311.76675415 226.61817932 306.29418945 224.70486450 301.03591919 C 223.01925659 295.80639648 221.68421936 290.61206055 220.23884583 285.66873169 C 218.82881165 280.92550659 217.46192932 276.28250122 216.08485413 271.95364380 C 214.84912109 267.77371216 213.92240906 263.95758057 212.85646057 260.48556519 C 212.10102844 257.47061157 211.96224976 254.72924805 212.59953308 252.29197693 C 214.01222229 250.18234253 216.21240234 248.37504578 219.03834534 246.78179932 C 222.36842346 245.33444214 226.13179016 244.09773254 230.32371521 243.10136414 C 234.88272095 242.27865601 239.72535706 241.60762024 244.72344971 241.08840942 C 249.83035278 240.77644348 255.01962280 240.67218018 260.27563477 240.73184204 C 265.52700806 240.92558289 270.64208984 241.30206299 275.52426147 241.94834900 C 280.07742310 242.85488892 284.33914185 243.95095825 288.26010132 245.19859314 C 291.70199585 246.67076111 294.57983398 248.44729614 296.84906006 250.52369690 C 298.45623779 252.86740112 299.28793335 255.40025330 299.25695801 258.08929443 C 298.63372803 261.04986572 297.54116821 264.30758667 296.37045288 267.94567871 C 295.21826172 271.84133911 294.31771851 276.17333984 293.00003052 280.66741943 C 291.75668335 285.37530518 290.15539551 290.14221191 288.61822510 295.06283569 C 287.03781128 300.15158081 285.41043091 305.22982788 284.01312256 310.29470825 C 282.52102661 315.42471313 280.83850098 320.53024292 278.29348755 329.14990234" stroke-width="1.81644070" fill="rgb(186, 122, 64)" opacity="1.0" stroke="rgb(103, 39, 0)" stroke-opacity="0.7851146" stroke-linecap="round" stroke-linejoin="round"/>
    <path d="M 291.73928833 264.69366455 C 288.54064941 265.93685913 285.35067749 267.13110352 282.08654785 268.23703003 C 278.75854492 269.34759521 275.42916870 270.38714600 272.04083252 271.24621582 C 268.58081055 272.00811768 265.08395386 272.67721558 261.51998901 273.16418457 C 257.84457397 273.46139526 254.08306885 273.63507080 250.30393982 273.65924072 C 246.51119995 273.46115112 242.72979736 273.03900146 239.01721191 272.33947754 C 235.32179260 271.36349487 231.61471558 270.14529419 227.94577026 268.70053101 C 224.38655090 266.97802734 220.99093628 264.89413452 217.77879333 262.46780396 C 214.79423523 259.78866577 211.85044861 257.13766479 208.83311462 254.67752075 C 206.04536438 252.35365295 204.02209473 249.55645752 202.56294250 246.16180420 C 200.91911316 242.62153625 199.17987061 239.11030579 197.71887207 235.37921143 C 196.83998108 231.48027039 196.22807312 227.40354919 195.85249329 223.31271362 C 195.99490356 219.23355103 196.31617737 215.15794373 196.72508240 211.12934875 C 197.48493958 207.18814087 198.60209656 203.37036133 199.95533752 199.73684692 C 201.43641663 196.17631531 203.14263916 192.69714355 205.16539001 189.44352722 C 207.47381592 186.40110779 210.02798462 183.53924561 212.78057861 180.83921814 C 215.76457214 178.30592346 218.95834351 176.00778198 222.30799866 173.98706055 C 225.82623291 172.14343262 229.48658752 170.53410339 233.24078369 169.17227173 C 237.10952759 167.98756409 241.09425354 166.99230957 245.15754700 166.25028992 C 249.23225403 165.73818970 253.35505676 165.39587402 257.52984619 165.26690674 C 261.72720337 165.38078308 265.89312744 165.72021484 269.99011230 166.26162720 C 274.02893066 167.04635620 278.01953125 168.02505493 281.94320679 169.21615601 C 285.67019653 170.69987488 289.19412231 172.42994690 292.57034302 174.38558960 C 295.75756836 176.63246155 298.58871460 179.19001770 301.17642212 181.98663330 C 303.45669556 185.08470154 305.52905273 188.27337646 307.47473145 191.64555359 C 309.25433350 195.13911438 310.76025391 198.70977783 311.99285889 202.35452271 C 313.02441406 206.06932068 313.81600952 209.82943726 314.36795044 213.55651855 C 314.67822266 217.31686401 314.76681519 221.07009888 314.70401001 224.72691345 C 314.39706421 228.30039978 313.93865967 231.85122681 313.17260742 235.34465027 C 312.12335205 238.68301392 310.78457642 241.83930969 309.24365234 244.87382507 C 307.87115479 247.99705505 306.41467285 250.99716187 291.73928833 264.69366455" stroke-width="1.36524844" fill="rgb(249, 208, 154)" opacity="1.0" stroke="rgb(182, 136, 45)" stroke-opacity="0.16622528" stroke-linecap="round" stroke-linejoin="round"/>
    <path d="M 306.94406128 163.64469910 C 306.67663574 167.28387451 305.80749512 170.80331421 304.41387939 174.02519226 C 302.76809692 177.07019043 300.74954224 179.79890442 298.39804077 182.33355713 C 295.98620605 184.89523315 293.63363647 187.61129761 291.06115723 190.15788269 C 288.45150757 192.64506531 285.37298584 194.71633911 282.19134521 196.51155090 C 278.91677856 198.31109619 275.27990723 199.68556213 271.65197754 200.81382751 C 268.07864380 202.07318115 264.32598877 202.98942566 260.42895508 203.55404663 C 256.52069092 203.71875000 252.57574463 203.63862610 248.64526367 203.47715759 C 244.75181580 203.09008789 240.98641968 202.33248901 237.35743713 201.26890564 C 233.78643799 199.90759277 230.47785950 198.28265381 227.26791382 196.46115112 C 224.18081665 194.52479553 221.29437256 192.47531128 218.95130920 190.17868042 C 217.54177856 187.41304016 215.59495544 185.01791382 213.08058167 182.94914246 C 210.80525208 180.60060120 208.80630493 178.09948730 207.29789734 175.04896545 C 206.17248535 171.72027588 205.11016846 167.93489075 204.47015381 164.02035522 C 203.77882385 160.13536072 203.39122009 155.97396851 203.24467468 151.63224792 C 203.57519531 147.51228333 204.03430176 143.70474243 204.66072083 139.81181335 C 205.76338196 136.22492981 207.09898376 132.91172791 208.68742371 129.74696350 C 210.31718445 126.59349823 211.88049316 123.53291321 213.64797974 120.62420654 C 215.61466980 117.84227753 217.71286011 115.30061340 220.02653503 112.95690918 C 222.55867004 110.77443695 225.36077881 108.89037323 228.34284973 107.30356598 C 231.46194458 105.92299652 234.69134521 104.65312958 238.01834106 103.54914856 C 241.47367859 102.70459747 244.99528503 102.09316254 248.57940674 101.66835022 C 252.24446106 101.43129730 255.97270203 101.39855957 259.65118408 101.59046936 C 263.33151245 101.98271942 267.00653076 102.56418610 270.68603516 103.33193207 C 274.32788086 104.33146667 277.81729126 105.59877014 281.16854858 107.07387543 C 284.42785645 108.74992371 287.59567261 110.63425446 290.56817627 112.82492828 C 293.22076416 115.35147095 295.64443970 118.11559296 298.02966309 120.93599701 C 300.22027588 123.94712830 302.19564819 127.08463287 304.04232788 130.30166626 C 305.51794434 133.84060669 306.70297241 137.50686646 307.52047729 141.39993286 C 308.20285034 145.56083679 308.65600586 149.81530762 308.58410645 154.10870361 C 308.41021729 158.52272034 308.65835571 163.01773071 306.94406128 163.64469910" stroke-width="2.00000000" fill="rgb(193, 88, 98)" opacity="1.0" stroke="rgb(127, 55, 65)" stroke-opacity="1.0" stroke-linecap="round" stroke-linejoin="round"/>
    <path d="M 248.79501343 139.56971741 C 245.97354126 139.08088684 243.16644287 138.64317322 240.38694763 138.18473816 C 237.76405334 137.43452454 235.26660156 136.35870361 232.81871033 135.11050415 C 230.36024475 133.82176208 227.93508911 132.44212341 225.57531738 130.93464661 C 223.32304382 129.21275330 221.14843750 127.41162872 219.13935852 125.34997559 C 217.40295410 122.94001007 215.79106140 120.40038300 214.25112915 117.73176575 C 212.88551331 114.88091278 211.77447510 111.80854797 210.82368469 108.55240631 C 209.82466125 105.27107239 209.12670898 101.96606445 208.64773560 98.53923798 C 208.37831116 95.05377197 208.28913879 91.55895996 208.32514954 88.10038757 C 208.48634338 84.69713593 208.97732544 81.31862640 209.81854248 78.00308228 C 211.00360107 74.78911591 212.39083862 71.60050964 213.87805176 68.42387390 C 215.64117432 65.38174438 217.54649353 62.44194412 219.54594421 59.59315872 C 221.71415710 56.85174179 224.01695251 54.30107117 226.47903442 52.00614929 C 229.15563965 50.06952667 232.02511597 48.36869812 234.98144531 46.72931290 C 237.88182068 45.16116333 240.79394531 43.76977539 243.76826477 42.64076996 C 246.88401794 41.88261414 250.05664062 41.43359375 253.28594971 41.24153137 C 256.53274536 41.19285583 259.73208618 41.38507462 262.98324585 41.94348145 C 266.28302002 42.76636505 269.49108887 43.75082016 272.59356689 44.92073059 C 275.68582153 46.19475174 278.71493530 47.66441727 281.62014771 49.32830048 C 284.34664917 51.23249054 286.90039062 53.42248154 289.29254150 55.83063889 C 291.60440063 58.32400894 293.76605225 60.94799042 295.76547241 63.74335098 C 297.51089478 66.71434021 299.00653076 69.77688599 300.20495605 72.97392273 C 301.28826904 76.32760620 302.15081787 79.75202179 302.84222412 83.18310547 C 303.31658936 86.62148285 303.58056641 90.04793549 303.55740356 93.39147949 C 303.30236816 96.73247528 302.76654053 99.98576355 301.97702026 103.14746094 C 301.01535034 106.29022980 299.84088135 109.44492340 298.53213501 112.53527069 C 297.02731323 115.44538116 295.21627808 118.09423065 293.25335693 120.68795013 C 291.33889771 123.27239990 289.18872070 125.66653442 286.68450928 127.66386414 C 284.03472900 129.58341980 281.34701538 131.49452209 278.35479736 133.11598206 C 275.08050537 134.55316162 271.75238037 135.94906616 268.28637695 137.32911682 C 264.59692383 138.55538940 260.84869385 139.99430847 248.79501343 139.56971741" stroke-width="2.00000000" fill="rgb(250, 236, 202)" opacity="1.0" stroke="rgb(202, 181, 99)" stroke-opacity="0.072085634" stroke-linecap="round" stroke-linejoin="round"/>
    <path d="M 295.20056152 265.39242554 C 291.47097778 267.03039551 287.90667725 268.05926514 284.74383545 269.34027100 C 282.96524048 271.83831787 280.81732178 273.05923462 277.47827148 272.61508179 C 273.28372192 273.29650879 268.50946045 274.19863892 263.34143066 274.84466553 C 258.04129028 274.72708130 252.96701050 274.71096802 248.26582336 274.86544800 C 244.23263550 274.19155884 240.69787598 274.07369995 237.56042480 274.56509399 C 234.82723999 273.61557007 232.55531311 271.84893799 230.05648804 270.62103271 C 227.20542908 271.00259399 225.01348877 269.90658569 223.14447021 267.52468872 C 220.44615173 266.34423828 217.63964844 265.32614136 215.17121887 264.04351807 C 213.36311340 262.50024414 212.42953491 260.67715454 212.25291443 258.98345947 C 212.28926086 257.80090332 212.75830078 257.16751099 213.55467224 257.42730713 C 214.70625305 258.62469482 216.31188965 260.22848511 218.82531738 261.59982300 C 222.11962891 262.87811279 225.68937683 264.48355103 229.30642700 266.27972412 C 233.09062195 267.68353271 236.67153931 269.05548096 239.89367676 269.87951660 C 243.04850769 268.70712280 246.08586121 269.08401489 249.19921875 270.59738159 C 252.70497131 270.07125854 256.42370605 270.06027222 260.07568359 271.00598145 C 263.69131470 270.36401367 267.44348145 270.03149414 271.26400757 269.99356079 C 274.82849121 268.51574707 278.57128906 267.15750122 282.23416138 266.07113647 C 285.21334839 264.19433594 287.92767334 263.28778076 290.67626953 263.39093018 C 292.77706909 262.34265137 294.54965210 260.47653198 296.59234619 258.50689697 C 298.91659546 256.78799438 301.56301880 255.34346008 295.20056152 265.39242554" stroke-width="1.88220811" fill="rgb(248, 239, 213)" opacity="1.0" stroke="rgb(134, 103, 85)" stroke-opacity="0.5367644" stroke-linecap="round" stroke-linejoin="round"/>
  </g>
</svg>
