<?xml version="1.0" ?>
<svg xmlns="http://www.w3.org/2000/svg" version="1.1" width="512" height="512" viewBox="0 0 512 512">
  <defs/>
  <g>
    <path d="M 278.75411987 327.07620239 C 277.19845581 332.52734375 275.58197021 337.90460205 274.03970337 343.23995972 C 272.31838989 348.46426392 270.53451538 353.69747925 268.87451172 358.80197144 C 267.29037476 363.85308838 265.81179810 368.68722534 264.27743530 373.25051880 C 263.07360840 377.65884399 261.81289673 381.69714355 260.58132935 385.28302002 C 259.53161621 388.40502930 258.51629639 391.06835938 257.78475952 393.13531494 C 257.16967773 394.63098145 256.64251709 395.26940918 256.11636353 395.06713867 C 255.50514221 394.09680176 254.81346130 392.25430298 254.04116821 389.83142090 C 252.97123718 386.81915283 251.65090942 383.30221558 250.28587341 379.32537842 C 248.71899414 375.11657715 247.03532410 370.48883057 245.37948608 365.61782837 C 243.66392517 360.50180054 241.94433594 355.26516724 240.33688354 349.86663818 C 238.66813660 344.37725830 236.90396118 338.90484619 235.03257751 333.43762207 C 233.25398254 328.02456665 231.75514221 322.49737549 230.18348694 317.07580566 C 228.37956238 311.81311035 226.56867981 306.69210815 224.86560059 301.59112549 C 223.29003906 296.57879639 221.95587158 291.60879517 220.58352661 286.85507202 C 219.22816467 282.24273682 217.86807251 277.86334229 216.57093811 273.62133789 C 215.48924255 269.61880493 214.34965515 266.01379395 213.28482056 262.71438599 C 212.53771973 259.77618408 212.48251343 257.08554077 213.16181946 254.72067261 C 214.61892700 252.60475159 216.77102661 250.64151001 219.56011963 248.88612366 C 222.85374451 247.34184265 226.63058472 245.95796204 230.83860779 244.76655579 C 235.35864258 243.74021912 240.21601868 242.83309937 245.24043274 242.15844727 C 250.34251404 241.63777161 255.59680176 241.29699707 260.78091431 241.16041565 C 265.93240356 241.20985413 270.88375854 241.46092224 275.71289062 241.93933105 C 280.13546753 242.67198181 284.30261230 243.56483459 288.10391235 244.77757263 C 291.38986206 246.26771545 294.15255737 247.93669128 296.41549683 249.92056274 C 298.04284668 252.25474548 298.98681641 254.78738403 299.15032959 257.66088867 C 298.63415527 260.80560303 297.62863159 264.29202271 296.34902954 268.07727051 C 295.18670654 272.28631592 294.00634766 276.71282959 292.71481323 281.50433350 C 291.28488159 286.31372070 289.76437378 291.32028198 288.20385742 296.38977051 C 286.52493286 301.56878662 285.04714966 306.85720825 283.53933716 312.09750366 C 281.87680054 317.33145142 280.27734375 322.61535645 278.75411987 327.07620239" stroke-width="1.83942151" fill="rgb(188, 123, 66)" opacity="1.0" stroke="rgb(103, 41, 0)" stroke-opacity="0.7870029" stroke-linecap="round" stroke-linejoin="round"/>
    <path d="M 292.57742310 263.96810913 C 289.49911499 265.23171997 286.42687988 266.43045044 283.25802612 267.68756104 C 280.15176392 268.86294556 276.91998291 269.92648315 273.56381226 270.91690063 C 270.14901733 271.79968262 266.65957642 272.49990845 262.96533203 273.11071777 C 259.30203247 273.50646973 255.52288818 273.77090454 251.66944885 273.81393433 C 247.84141541 273.64865112 243.89515686 273.22946167 239.99205017 272.57705688 C 236.09709167 271.72070312 232.21504211 270.59701538 228.43128967 269.21984863 C 224.77354431 267.63647461 221.22560120 265.72433472 217.86959839 263.58383179 C 214.61398315 261.15911865 211.64904785 258.45697021 208.89335632 255.62748718 C 206.31434631 252.55859375 204.02062988 249.24331665 202.03854370 245.79351807 C 200.26422119 242.15582275 198.69181824 238.38879395 197.45573425 234.56115723 C 196.55773926 230.58242798 195.97987366 226.63540649 195.71636963 222.53329468 C 195.77856445 218.53999329 196.13955688 214.43005371 196.81715393 210.45086670 C 197.69805908 206.47366333 198.86303711 202.67239380 200.20281982 198.89480591 C 201.81216431 195.29078674 203.57559204 191.85964966 205.65559387 188.60084534 C 207.90934753 185.56123352 210.44519043 182.76858521 213.19076538 180.13139343 C 216.17985535 177.85447693 219.29479980 175.65504456 222.58425903 173.72604370 C 226.08741760 172.07972717 229.58242798 170.54714966 233.28959656 169.28617859 C 237.06596375 168.17973328 240.92765808 167.31706238 244.87088013 166.61270142 C 248.84930420 166.17216492 252.88687134 165.84252930 256.98104858 165.78251648 C 261.04266357 165.89561462 265.14392090 166.18443298 269.23196411 166.65400696 C 273.20800781 167.43519592 277.22479248 168.33544922 281.03839111 169.51242065 C 284.83425903 170.93310547 288.46658325 172.52420044 291.93789673 174.45234680 C 295.17599487 176.59878540 298.13903809 179.05558777 300.95840454 181.79396057 C 303.36904907 184.78507996 305.58016968 188.07223511 307.55068970 191.49246216 C 309.30157471 195.04777527 310.82519531 198.74327087 312.12118530 202.54811096 C 313.15805054 206.37805176 313.95404053 210.25637817 314.50033569 214.15049744 C 314.79464722 218.00698853 314.87429810 221.82275391 314.79318237 225.57713318 C 314.39996338 229.25668335 313.74505615 232.73620605 312.81417847 236.19924927 C 311.70028687 239.49171448 310.37744141 242.67605591 308.96896362 245.76655579 C 307.56738281 248.88246155 306.05868530 251.84436035 292.57742310 263.96810913" stroke-width="1.41151440" fill="rgb(249, 208, 155)" opacity="1.0" stroke="rgb(193, 151, 64)" stroke-opacity="0.16357285" stroke-linecap="round" stroke-linejoin="round"/>
    <path d="M 307.00808716 165.53883362 C 306.25997925 168.63844299 305.36788940 171.62083435 304.19537354 174.52575684 C 302.54010010 177.26640320 300.54226685 179.88481140 298.34625244 182.39019775 C 296.03497314 184.98892212 293.66513062 187.60504150 291.12081909 190.15664673 C 288.46221924 192.47564697 285.53930664 194.56069946 282.44021606 196.39772034 C 279.18438721 198.04595947 275.75366211 199.47077942 272.22729492 200.72354126 C 268.60043335 201.86627197 264.93945312 202.74072266 261.17492676 203.36773682 C 257.30389404 203.66069031 253.46380615 203.73440552 249.61471558 203.56015015 C 245.78096008 203.18405151 242.04464722 202.50872803 238.38468933 201.53358459 C 234.82621765 200.30302429 231.43284607 198.78775024 228.16040039 197.02874756 C 225.06694031 195.15505981 222.20526123 193.02651978 219.61399841 190.57569885 C 217.31198120 187.86479187 215.07269287 185.12370300 212.68339539 182.57046509 C 210.29693604 180.08337402 208.36351013 177.31785583 206.92065430 174.20391846 C 205.75822449 170.85346985 204.92300415 167.25296021 204.30305481 163.46052551 C 203.78643799 159.58276367 203.36270142 155.71015930 203.30673218 151.83000183 C 203.51626587 147.92070007 203.98054504 144.05058289 204.59564209 140.38951111 C 205.63842773 136.85168457 207.07066345 133.49224854 208.47891235 130.19856262 C 210.11007690 126.97781372 211.74266052 123.83032227 213.49963379 120.87537384 C 215.42344666 118.07195282 217.50740051 115.51622009 219.86669922 113.21718597 C 222.45339966 111.09973907 225.18858337 109.26738739 228.12026978 107.58351135 C 231.21598816 106.13618469 234.45254517 104.87940979 237.79182434 103.87329865 C 241.27488708 103.01576996 244.86123657 102.37898254 248.44125366 101.96121979 C 252.14448547 101.69551849 255.81817627 101.69420624 259.60464478 101.82552338 C 263.23593140 102.21633911 266.92315674 102.77445984 270.56655884 103.61537933 C 274.11114502 104.58564758 277.52593994 105.80609894 280.91937256 107.24726868 C 284.14190674 108.93768311 287.23010254 110.76303864 290.20217896 112.82627106 C 292.86105347 115.16517639 295.34301758 117.77084351 297.66918945 120.50554657 C 299.83477783 123.36833191 301.85809326 126.32530975 303.66888428 129.49963379 C 305.10583496 132.76884460 306.33804321 136.21618652 307.28445435 139.84909058 C 307.99026489 143.55850220 308.40286255 147.46656799 308.52236938 151.48731995 C 308.66284180 155.58558655 308.88442993 159.71913147 307.00808716 165.53883362" stroke-width="2.00000000" fill="rgb(194, 88, 100)" opacity="1.0" stroke="rgb(130, 58, 65)" stroke-opacity="1.0" stroke-linecap="round" stroke-linejoin="round"/>
    <path d="M 249.40248108 139.62995911 C 246.62434387 139.26741028 243.92570496 138.82124329 241.21089172 138.29936218 C 238.53436279 137.56701660 235.94400024 136.58135986 233.37046814 135.43812561 C 230.86105347 134.16508484 228.31544495 132.73680115 225.89584351 131.14501953 C 223.56253052 129.41947937 221.28892517 127.44188690 219.21803284 125.36001587 C 217.36686707 123.02258301 215.68402100 120.36483765 214.20574951 117.57724762 C 212.87968445 114.69876862 211.68290710 111.62066650 210.69813538 108.41929626 C 209.88162231 105.14764404 209.15757751 101.81529999 208.70834351 98.38255310 C 208.30000305 94.94065094 208.21832275 91.51818848 208.27893066 88.04679871 C 208.63000488 84.62384796 209.15100098 81.29788208 209.99000549 77.90109253 C 211.11578369 74.65178680 212.42474365 71.45735931 213.90673828 68.29083252 C 215.62379456 65.25068665 217.50056458 62.35183334 219.53587341 59.52198792 C 221.79129028 56.86216736 224.11398315 54.45865631 226.65890503 52.13526917 C 229.37519836 50.07999039 232.12297058 48.21509933 235.07493591 46.53939438 C 237.99134827 45.03895569 241.00729370 43.78393936 244.11608887 42.71474457 C 247.21476746 41.99023056 250.34689331 41.43138123 253.54409790 41.20281219 C 256.75292969 41.26042557 259.92385864 41.52444458 263.11157227 42.04996109 C 266.27593994 42.77315903 269.40289307 43.72094345 272.49032593 44.84104919 C 275.48526001 46.07726669 278.44494629 47.61133194 281.20822144 49.28514862 C 283.93905640 51.21883774 286.46459961 53.34367752 288.86251831 55.68166351 C 291.16064453 58.18748856 293.27853394 60.84870911 295.19641113 63.65856552 C 296.99456787 66.68395233 298.57015991 69.77764893 299.88101196 72.99934387 C 301.07543945 76.33852386 302.04275513 79.69495392 302.75527954 83.16685486 C 303.26971436 86.64603424 303.50045776 90.09789276 303.48226929 93.57851410 C 303.22717285 97.03482819 302.67382812 100.42888641 301.84396362 103.75366211 C 300.81622314 107.04066467 299.54803467 110.11854553 298.09704590 113.17002106 C 296.47351074 116.12207794 294.68969727 118.87297821 292.68576050 121.49658966 C 290.67953491 123.97139740 288.33670044 126.28425598 285.92303467 128.32754517 C 283.26562500 130.17384338 280.49758911 131.93234253 277.61614990 133.47624207 C 274.53683472 134.86022949 271.42800903 136.09481812 268.23071289 137.36242676 C 264.97973633 138.57473755 261.75573730 139.84840393 249.40248108 139.62995911" stroke-width="2.00000000" fill="rgb(253, 238, 204)" opacity="1.0" stroke="rgb(199, 179, 91)" stroke-opacity="0.085689135" stroke-linecap="round" stroke-linejoin="round"/>
    <path d="M 295.38198853 265.11874390 C 291.82757568 266.61798096 288.39559937 268.04666138 285.01568604 269.64083862 C 281.71026611 271.32379150 278.30929565 272.49041748 274.64587402 273.22296143 C 270.85739136 273.90460205 266.92666626 274.40576172 262.91479492 274.77502441 C 258.85131836 274.82189941 254.66033936 274.82302856 250.52009583 274.75531006 C 246.55084229 274.61193848 242.62934875 274.39364624 238.89501953 274.14196777 C 235.61602783 273.36901855 232.44342041 272.13177490 229.44989014 270.78048706 C 226.56945801 269.64642334 223.85853577 268.20666504 221.32693481 266.91815186 C 218.80958557 265.86065674 216.64358521 264.87164307 214.86038208 263.81909180 C 213.62860107 262.71752930 212.91181946 261.64144897 212.76528931 260.77728271 C 213.13879395 260.16848755 214.08251953 259.94558716 215.35957336 260.02923584 C 217.05270386 260.61068726 219.00593567 261.49780273 221.28001404 262.55743408 C 223.82234192 263.77566528 226.53814697 265.09249878 229.44396973 266.35723877 C 232.49261475 267.66574097 235.67008972 268.63864136 238.95379639 269.46191406 C 242.42396545 269.53521729 245.94932556 269.81097412 249.55195618 270.15847778 C 253.17930603 270.36907959 256.89376831 270.54406738 260.48690796 270.79598999 C 264.13641357 270.63702393 267.74896240 270.29968262 271.24816895 269.78775024 C 274.59945679 268.78619385 277.91262817 267.56799316 281.13211060 266.35385132 C 284.32211304 265.27960205 287.32055664 264.18554688 290.22488403 263.33636475 C 292.74673462 262.01870728 294.95941162 260.38851929 297.07858276 258.55584717 C 299.23214722 256.80017090 301.36361694 255.04763794 295.38198853 265.11874390" stroke-width="2.00000000" fill="rgb(246, 233, 215)" opacity="1.0" stroke="rgb(141, 113, 99)" stroke-opacity="0.5099676" stroke-linecap="round" stroke-linejoin="round"/>
  </g>
</svg>
