<?xml version="1.0" ?>
<svg xmlns="http://www.w3.org/2000/svg" version="1.1" width="512" height="512" viewBox="0 0 512 512">
  <defs/>
  <g>
    <path d="M 279.45626831 325.46655273 C 277.64797974 330.83074951 276.02236938 336.29309082 274.40829468 341.73815918 C 272.67410278 347.08151245 270.96377563 352.40249634 269.30795288 357.58068848 C 267.63626099 362.67855835 266.06112671 367.55374146 264.59695435 372.32141113 C 263.17752075 376.76638794 261.91775513 380.95932007 260.70443726 384.67965698 C 259.63739014 387.97241211 258.72891235 390.78906250 257.87207031 392.99948120 C 257.19580078 394.46142578 256.67086792 395.19198608 256.09234619 395.00674438 C 255.47561646 393.86395264 254.72425842 392.02542114 253.88520813 389.39501953 C 252.80422974 386.28350830 251.51008606 382.56961060 249.98986816 378.55374146 C 248.36141968 374.16369629 246.68217468 369.41961670 245.00892639 364.47799683 C 243.28753662 359.33963013 241.68913269 354.07183838 240.01277161 348.73059082 C 238.37318420 343.33953857 236.62234497 338.01507568 234.83766174 332.71771240 C 233.12864685 327.46319580 231.62933350 322.21600342 230.12533569 316.97653198 C 228.42817688 311.94442749 226.69490051 307.01992798 225.11692810 302.05804443 C 223.52313232 297.24197388 222.16442871 292.53735352 220.85130310 287.80795288 C 219.53317261 283.32714844 218.19531250 279.03915405 217.02284241 274.81857300 C 215.76144409 270.89727783 214.67868042 267.24563599 213.65803528 263.89028931 C 212.81231689 260.89489746 212.55349731 258.18161011 213.17413330 255.71151733 C 214.50677490 253.54109192 216.53765869 251.52093506 219.27679443 249.74693298 C 222.57882690 248.10063171 226.45684814 246.67855835 230.70562744 245.39445496 C 235.33029175 244.30364990 240.24342346 243.35525513 245.38586426 242.56788635 C 250.61582947 242.00733948 255.92491150 241.56323242 261.23522949 241.38462830 C 266.39041138 241.32287598 271.37622070 241.54739380 276.24468994 241.96647644 C 280.69958496 242.62081909 284.84887695 243.48208618 288.59332275 244.67230225 C 291.87939453 246.12486267 294.61499023 247.78884888 296.74468994 249.77601624 C 298.27426147 252.11544800 299.14270020 254.72554016 299.23971558 257.65856934 C 298.63885498 260.92831421 297.56030273 264.50939941 296.25695801 268.44976807 C 295.05264282 272.77655029 293.87893677 277.44354248 292.50994873 282.19903564 C 291.05819702 287.23983765 289.52810669 292.33294678 287.92568970 297.51614380 C 286.21929932 302.75677490 284.61807251 308.05053711 283.10134888 313.39990234 C 281.45407104 318.76489258 279.74041748 324.04458618 279.45626831 325.46655273" stroke-width="1.83606720" fill="rgb(187, 123, 62)" opacity="1.0" stroke="rgb(103, 42, 0)" stroke-opacity="0.784465" stroke-linecap="round" stroke-linejoin="round"/>
    <path d="M 293.20858765 263.40563965 C 290.30688477 264.81289673 287.40249634 266.13934326 284.39465332 267.46517944 C 281.27917480 268.66467285 278.02386475 269.80441284 274.69308472 270.88763428 C 271.21969604 271.82531738 267.64254761 272.62145996 263.94415283 273.23352051 C 260.14221191 273.63607788 256.28884888 273.91085815 252.33293152 273.96026611 C 248.30964661 273.78137207 244.26501465 273.38128662 240.29708862 272.78173828 C 236.28988647 271.90249634 232.37841797 270.76925659 228.54663086 269.41668701 C 224.81744385 267.77124023 221.26210022 265.88406372 217.83836365 263.66873169 C 214.61614990 261.29403687 211.62559509 258.57040405 208.92248535 255.68603516 C 206.33590698 252.51396179 204.11683655 249.21284485 202.05895996 245.66548157 C 200.24540710 242.05186462 198.71064758 238.25617981 197.49740601 234.39356995 C 196.61920166 230.46823120 196.07107544 226.39978027 195.84466553 222.40632629 C 195.87783813 218.24804688 196.23338318 214.18594360 196.83168030 210.19566345 C 197.76660156 206.21272278 198.96542358 202.35124207 200.30540466 198.63676453 C 201.92085266 194.98042297 203.85467529 191.58694458 205.90757751 188.35565186 C 208.29136658 185.29042053 210.86648560 182.54719543 213.63281250 179.94631958 C 216.57685852 177.64697266 219.67691040 175.50993347 222.92353821 173.61613464 C 226.27299500 171.96511841 229.80360413 170.49897766 233.35897827 169.30221558 C 237.05255127 168.28686523 240.87001038 167.44871521 244.69256592 166.82011414 C 248.64894104 166.44836426 252.66845703 166.16757202 256.61907959 166.14509583 C 260.71871948 166.26321411 264.73782349 166.62991333 268.77853394 167.09272766 C 272.75244141 167.82997131 276.73580933 168.67907715 280.59790039 169.82501221 C 284.34414673 171.11386108 287.99002075 172.65731812 291.48260498 174.51097107 C 294.72601318 176.55549622 297.80233765 178.91851807 300.57443237 181.57524109 C 303.13735962 184.49667358 305.34463501 187.67945862 307.39553833 191.12409973 C 309.16470337 194.73443604 310.75347900 198.49749756 312.03747559 202.45207214 C 313.14813232 206.39715576 313.97781372 210.43429565 314.46334839 214.50582886 C 314.75503540 218.57553101 314.83312988 222.54005432 314.55700684 226.52215576 C 314.08972168 230.39018250 313.37316895 234.04154968 312.34881592 237.63742065 C 311.09326172 241.01507568 309.62536621 244.17979431 307.96163940 247.26960754 C 306.14096069 250.15115356 304.30685425 253.05706787 293.20858765 263.40563965" stroke-width="1.50223410" fill="rgb(247, 206, 152)" opacity="1.0" stroke="rgb(187, 144, 51)" stroke-opacity="0.1496747" stroke-linecap="round" stroke-linejoin="round"/>
    <path d="M 306.83471680 166.19274902 C 306.12268066 169.07144165 305.24685669 172.00193787 304.11239624 174.84870911 C 302.50744629 177.52127075 300.48007202 179.99569702 298.32214355 182.49334717 C 295.94812012 185.02458191 293.62991333 187.61070251 291.16119385 190.09321594 C 288.56994629 192.46914673 285.64758301 194.54913330 282.60446167 196.39587402 C 279.30468750 197.96542358 275.89508057 199.46760559 272.40295410 200.72300720 C 268.80590820 201.84941101 265.10751343 202.68061829 261.35916138 203.38679504 C 257.62084961 203.64170837 253.75003052 203.68707275 249.89179993 203.54685974 C 246.10778809 203.19244385 242.37515259 202.57060242 238.71656799 201.66223145 C 235.16137695 200.44641113 231.73637390 198.94186401 228.45455933 197.20039368 C 225.25625610 195.28872681 222.34945679 193.09648132 219.62246704 190.69218445 C 217.17698669 188.03088379 214.85092163 185.29005432 212.52000427 182.49829102 C 210.20199585 179.87983704 208.24116516 177.10272217 206.79377747 173.90873718 C 205.70594788 170.49404907 204.87554932 166.91229248 204.23155212 163.18188477 C 203.74508667 159.34437561 203.42672729 155.50277710 203.30622864 151.66653442 C 203.49882507 147.88555908 203.96922302 144.08523560 204.56044006 140.49014282 C 205.55967712 136.96115112 206.95227051 133.68797302 208.44444275 130.46215820 C 209.91860962 127.23717499 211.51777649 124.15702057 213.27095032 121.23896790 C 215.12118530 118.43606567 217.20913696 115.93316650 219.52668762 113.60698700 C 222.09082031 111.56488800 224.88931274 109.67686462 227.85562134 108.04325867 C 231.00123596 106.53146362 234.26960754 105.29381561 237.68516541 104.18133545 C 241.28878784 103.29733276 244.88450623 102.56864166 248.54104614 102.11341858 C 252.29313660 101.77041626 256.01229858 101.66552734 259.70941162 101.81893921 C 263.46246338 102.08843231 267.04296875 102.64865112 270.62219238 103.39996338 C 274.22122192 104.36340332 277.59576416 105.63164520 280.85272217 107.04165649 C 284.10095215 108.70059967 287.09585571 110.66287994 289.96423340 112.73473358 C 292.69531250 115.02564240 295.24719238 117.57014465 297.55294800 120.29441833 C 299.73956299 123.09907532 301.73330688 126.08316803 303.47445679 129.22589111 C 304.98217773 132.46530151 306.19934082 135.83525085 307.10879517 139.36001587 C 307.88980103 143.03266907 308.30233765 146.76165771 308.56600952 150.67829895 C 308.74740601 154.60557556 308.97534180 158.57109070 306.83471680 166.19274902" stroke-width="2.00000000" fill="rgb(191, 85, 97)" opacity="1.0" stroke="rgb(129, 56, 62)" stroke-opacity="1.0" stroke-linecap="round" stroke-linejoin="round"/>
    <path d="M 250.85227966 139.58940125 C 248.00195312 139.42184448 245.16758728 139.02565002 242.35249329 138.55407715 C 239.54258728 137.90168762 236.80355835 136.94419861 234.07281494 135.76570129 C 231.40911865 134.52812195 228.78979492 132.97654724 226.15403748 131.40466309 C 223.71080017 129.57926941 221.39151001 127.57283020 219.31535339 125.39657593 C 217.33702087 122.96836090 215.66850281 120.30216980 214.09733582 117.52889252 C 212.82424927 114.57415009 211.58033752 111.44963074 210.67628479 108.30714417 C 209.81669617 105.03746796 209.13766479 101.66878510 208.67314148 98.28984070 C 208.36999512 94.94561768 208.22848511 91.47434235 208.31097412 88.07015228 C 208.61026001 84.68643951 209.18763733 81.30839539 209.98182678 78.01017761 C 211.07508850 74.75590515 212.37648010 71.53891754 213.80668640 68.37593842 C 215.57789612 65.36045837 217.43453979 62.43788147 219.50663757 59.61009598 C 221.71475220 56.95116043 224.16262817 54.45463181 226.66864014 52.15328598 C 229.41168213 50.01901245 232.22030640 48.16296768 235.16323853 46.48563004 C 238.13211060 44.98919678 241.22424316 43.73680496 244.30787659 42.73978043 C 247.48532104 41.97909927 250.62254333 41.51467133 253.82861328 41.28483582 C 256.97778320 41.33462906 260.16757202 41.56605911 263.31506348 42.04766083 C 266.39746094 42.80098724 269.46215820 43.68046188 272.50323486 44.76472855 C 275.38851929 46.06707764 278.27578735 47.53997040 281.07943726 49.25269699 C 283.66165161 51.09995651 286.25671387 53.24716187 288.68716431 55.50641251 C 290.94714355 57.95006943 293.03076172 60.63973618 295.07836914 63.40813065 C 296.82128906 66.37790680 298.44842529 69.56124115 299.77636719 72.73240662 C 301.03295898 76.13298035 301.96289062 79.52496338 302.72442627 83.04631805 C 303.22479248 86.51880646 303.50711060 90.13027191 303.47225952 93.61719513 C 303.20843506 97.15419006 302.61703491 100.60391235 301.78598022 103.97996521 C 300.70452881 107.31282043 299.40341187 110.48571014 297.87936401 113.59291077 C 296.20098877 116.51343536 294.33764648 119.38986206 292.32794189 121.96481323 C 290.17767334 124.50733948 287.84344482 126.73325348 285.30715942 128.74826050 C 282.65606689 130.63221741 279.85205078 132.28602600 276.94299316 133.78482056 C 273.98928833 135.11051941 270.88616943 136.34310913 267.80206299 137.48628235 C 264.64059448 138.60681152 261.52728271 139.72070312 250.85227966 139.58940125" stroke-width="2.00000000" fill="rgb(249, 235, 201)" opacity="1.0" stroke="rgb(201, 176, 93)" stroke-opacity="0.074087664" stroke-linecap="round" stroke-linejoin="round"/>
    <path d="M 295.20175171 265.16683960 C 291.89660645 266.62475586 288.52532959 267.99319458 285.23077393 269.48800659 C 282.05233765 271.05444336 278.67791748 272.30130005 275.25628662 273.07748413 C 271.58972168 273.80654907 267.89410400 274.34216309 264.08493042 274.68438721 C 260.30245972 274.85516357 256.39675903 274.84591675 252.51661682 274.73767090 C 248.65597534 274.69540405 244.82412720 274.51263428 241.04365540 274.11929321 C 237.43414307 273.62835693 234.04568481 272.69570923 230.71897888 271.32092285 C 227.56929016 270.04653931 224.52444458 268.59460449 221.69912720 267.13500977 C 219.06556702 265.95043945 216.77413940 264.86627197 214.81803894 263.79144287 C 213.60157776 262.62948608 212.95382690 261.64263916 212.88151550 260.80380249 C 213.48559570 260.22763062 214.53935242 260.05722046 216.09640503 260.33322144 C 217.97406006 261.02569580 220.19664001 262.00750732 222.68721008 263.23229980 C 225.36965942 264.52514648 228.16998291 265.90255737 231.17022705 267.17633057 C 234.18304443 268.26434326 237.39984131 269.09097290 240.64474487 269.55374146 C 244.05908203 269.69406128 247.47663879 269.98507690 250.94525146 270.28308105 C 254.38798523 270.38815308 257.84436035 270.64337158 261.23748779 270.78417969 C 264.63214111 270.61453247 267.99932861 270.25512695 271.22155762 269.75610352 C 274.43545532 268.84417725 277.46771240 267.74417114 280.60043335 266.58654785 C 283.57507324 265.50646973 286.54916382 264.44482422 289.39471436 263.46179199 C 292.12530518 262.28167725 294.47540283 260.74237061 296.85772705 259.03442383 C 299.08798218 257.21081543 301.34347534 255.47875977 295.20175171 265.16683960" stroke-width="2.00000000" fill="rgb(241, 236, 211)" opacity="1.0" stroke="rgb(140, 114, 100)" stroke-opacity="0.5196693" stroke-linecap="round" stroke-linejoin="round"/>
  </g>
</svg>
