<svg xmlns="http://www.w3.org/2000/svg" viewBox="0 0 512 512" height="512.0px" width="512.0px">
<path id="" fill="rgb(183, 120, 63)" fill-opacity="1.0" stroke="rgb(67, 18, 0)" stroke-width="0.44854066" stroke-opacity="1.0" stroke-linecap="round" stroke-linejoin="round"  filling="0" d="M279.836945 329.051544 C278.665466 333.650879 277.386078 337.620087 276.066589 341.455902 C274.747131 345.291718 273.387543 348.994141 272.055725 353.059845 C270.723877 357.125549 269.419769 361.554565 268.211212 366.843597 C265.761139 372.265411 264.307770 377.125641 263.190979 381.342773 C262.074158 385.559937 261.293884 389.134033 260.190002 391.983521 C259.086121 394.833008 257.658661 396.957947 255.247437 398.276794 C253.795120 394.451447 252.400482 390.378113 250.976501 386.131866 C249.552521 381.885620 248.099197 377.466492 246.529526 372.949524 C244.959854 368.432526 243.273834 363.817688 241.384430 359.180115 C240.161407 354.775116 238.940903 350.575897 237.664108 346.360199 C236.387314 342.144531 235.054230 337.912354 233.606094 333.441406 C232.157944 328.970459 230.594727 324.260803 228.857635 319.090088 C227.053833 313.239960 225.614868 308.580963 224.307831 304.365692 C223.000793 300.150452 221.825714 296.378906 220.549652 292.303680 C219.273590 288.228455 217.896545 283.849548 216.185654 278.419556 C215.092880 272.723602 213.555466 268.290009 212.502686 264.703369 C211.449921 261.116760 210.881790 258.377106 211.727600 256.069092 C212.573425 253.761078 214.833191 251.884674 219.436172 250.024506 C224.449371 249.634201 228.973999 249.004288 233.361847 248.267944 C237.749695 247.531586 242.000732 246.688797 246.466766 245.872696 C250.932800 245.056580 255.613800 244.267181 260.861572 243.637619 C266.327911 243.153259 271.287292 242.443893 275.836273 241.979126 C280.385254 241.514343 284.523804 241.294174 288.348450 241.788193 C292.173096 242.282211 295.683899 243.490417 298.977295 245.882446 C300.696930 250.125290 300.964539 254.308884 300.432068 258.564972 C299.899597 262.821075 298.567047 267.149689 297.086365 271.682526 C295.605682 276.215393 293.976868 280.952484 292.851929 286.025574 C291.195007 291.017609 289.769501 295.841370 288.414246 300.594635 C287.059021 305.347900 285.774048 310.030731 284.398193 314.740936 C283.022339 319.451141 281.555664 324.188721 279.836945 329.051544"></path>
<path id="" fill="rgb(247, 207, 154)" fill-opacity="1.0" stroke="rgb(200, 173, 102)" stroke-width="0.96631753" stroke-opacity="1.0" stroke-linecap="round" stroke-linejoin="round"  filling="0" d="M297.641357 259.710419 C293.955414 262.555817 290.277191 264.834076 286.632263 266.672913 C282.987305 268.511780 279.375610 269.911194 275.822693 270.999023 C272.269745 272.086823 268.775574 272.862976 265.365662 273.455261 C261.175507 274.022461 256.868774 274.278656 252.628937 274.186829 C248.389099 274.095001 244.216171 273.655151 240.293686 272.830292 C236.371185 272.005432 232.699127 270.795532 229.460999 269.163666 C225.475647 267.404388 221.764114 265.386719 218.361542 263.064087 C214.958954 260.741455 211.865311 258.113922 209.115753 255.134918 C206.366196 252.155899 203.960724 248.825439 201.934464 245.096970 C200.205490 242.072479 198.726196 238.830078 197.630768 235.268158 C196.535339 231.706238 195.823792 227.824814 195.630310 223.522247 C195.436844 219.219681 195.761459 214.495972 196.738373 209.249527 C197.612625 206.073318 198.673279 202.726410 200.114563 199.301392 C201.555847 195.876373 203.377792 192.373245 205.774643 188.884567 C208.171494 185.395874 211.143250 181.921661 214.884155 178.554443 C218.437149 176.133820 221.597229 174.111832 224.644989 172.499588 C227.692749 170.887329 230.628189 169.684830 233.731934 168.903168 C236.835663 168.121506 240.107697 167.760681 243.828613 167.831833 C247.891495 167.605652 251.681427 167.526825 255.486603 167.627731 C259.291809 167.728638 263.112244 168.009308 267.236206 168.502121 C271.360138 168.994934 275.787598 169.699890 280.806763 170.649399 C283.963196 171.621063 287.118469 172.737473 290.219879 174.303238 C293.321320 175.869003 296.368927 177.884109 299.310059 180.653168 C302.251221 183.422211 305.085907 186.945206 307.761505 191.526733 C309.595093 194.669891 311.035004 197.973648 312.120514 201.558243 C313.206024 205.142822 313.937103 209.008240 314.352997 213.274689 C314.768921 217.541138 314.869629 222.208633 314.694366 227.397385 C314.042236 232.004333 312.978943 236.246185 311.501404 240.149185 C310.023865 244.052185 308.132111 247.616302 305.823090 250.867767 C303.514099 254.119232 300.787842 257.058044 297.641357 259.710419"></path>
<path id="" fill="rgb(193, 88, 100)" fill-opacity="1.0" stroke="rgb(149, 66, 78)" stroke-width="1.50917757" stroke-opacity="1.0" stroke-linecap="round" stroke-linejoin="round"  filling="0" d="M306.315277 165.677551 C305.744720 168.152344 304.832855 170.670975 303.528259 173.236008 C302.223633 175.801056 300.526245 178.412506 298.384583 181.072998 C296.242920 183.733490 293.656982 186.443024 290.575317 189.204163 C287.955353 191.328888 284.978546 193.486267 281.765991 195.417740 C278.553467 197.349213 275.105194 199.054794 271.542389 200.275940 C267.979553 201.497086 264.302185 202.233795 260.631439 202.227539 C257.349976 202.369141 254.088181 202.450287 250.750092 202.254135 C247.412003 202.057983 243.997650 201.584534 240.411118 200.616943 C236.824585 199.649353 233.065887 198.187622 229.039108 196.014908 C226.591034 194.445053 224.034393 192.767014 221.481018 190.715408 C218.927658 188.663818 216.377579 186.238647 213.942627 183.174561 C211.507690 180.110443 209.187866 176.407410 207.095062 171.800018 C206.240799 168.941345 205.471512 165.928391 204.941772 162.692017 C204.412048 159.455627 204.121887 155.995819 204.225922 152.243439 C204.329941 148.491043 204.828156 144.446075 205.875153 140.039383 C207.082550 136.131348 208.397659 132.648148 209.774063 129.624237 C211.150482 126.600327 212.588181 124.035713 214.040771 121.964828 C215.493347 119.893944 216.960815 118.316788 218.396744 117.267822 C221.165726 114.433907 224.106125 111.935783 227.266357 109.806786 C230.426605 107.677780 233.806686 105.917908 237.455048 104.560486 C241.103409 103.203064 245.020050 102.248093 249.253387 101.728912 C253.490936 101.239449 257.567963 101.074516 261.401459 101.218948 C265.234955 101.363380 268.824921 101.817177 272.088379 102.565155 C275.351807 103.313141 278.288757 104.355301 280.816162 105.676483 C283.867920 107.091606 286.650726 109.086876 289.229156 111.509956 C291.807617 113.933029 294.181702 116.783913 296.416046 119.910271 C298.650391 123.036629 300.744995 126.438461 302.764465 129.963425 C304.158600 133.091171 305.330566 135.999435 306.169373 139.187866 C307.008179 142.376312 307.513763 145.844910 307.575104 150.093307 C307.636414 154.341705 307.253510 159.369904 306.315277 165.677551"></path>
<path id="" fill="rgb(253, 238, 205)" fill-opacity="1.0" stroke="rgb(195, 179, 93)" stroke-width="0.93706918" stroke-opacity="1.0" stroke-linecap="round" stroke-linejoin="round"  filling="0" d="M254.439209 139.413696 C251.252426 139.676987 247.911713 139.394470 244.600128 138.735672 C241.288544 138.076859 238.006088 137.041733 234.935837 135.799789 C231.865570 134.557846 229.007507 133.109070 226.544708 131.622955 C223.826370 129.580261 221.434555 127.365517 219.366013 124.931641 C217.297470 122.497757 215.552185 119.844742 214.126923 116.925491 C212.701660 114.006233 211.596390 110.820740 210.807877 107.321899 C210.304489 104.567207 209.736053 101.687508 209.323044 98.653671 C208.910019 95.619835 208.652405 92.431854 208.770645 89.060593 C208.888885 85.689331 209.382965 82.134781 210.473358 78.367798 C211.336212 74.591637 212.570175 71.262863 214.126709 68.246727 C215.683228 65.230591 217.562332 62.527107 219.715454 60.001518 C221.868561 57.475933 224.295715 55.128250 226.948349 52.823730 C229.125610 50.276585 231.609253 48.322418 234.404083 46.822708 C237.198914 45.322998 240.304962 44.277740 243.726990 43.548416 C247.149033 42.819096 250.887085 42.405708 254.945953 42.169739 C260.541534 42.744335 263.942688 43.002991 266.358459 43.280277 C268.774231 43.557564 270.204681 43.853470 271.858856 44.502571 C273.513000 45.151669 275.390930 46.153954 278.701691 47.843994 C281.937805 49.938549 284.748657 52.258270 287.245941 54.827480 C289.743225 57.396690 291.926880 60.215385 293.908569 63.307884 C295.890289 66.400391 297.670044 69.766693 299.359436 73.431122 C300.834381 77.227562 301.882111 80.961563 302.529266 84.559624 C303.176453 88.157684 303.423035 91.619812 303.295746 94.872490 C303.168457 98.125175 302.667297 101.168427 301.818878 103.928726 C300.937714 107.528397 299.631073 110.831970 297.993683 113.854645 C296.356262 116.877312 294.388062 119.619072 292.183746 122.095108 C289.979431 124.571136 287.539001 126.781448 284.957092 128.741226 C282.509735 130.874420 279.307709 132.765656 275.791199 134.341110 C272.274689 135.916565 268.443665 137.176224 264.738312 138.046265 C261.032928 138.916306 257.453186 139.396729 254.439209 139.413696"></path>
<path id="" fill="rgb(243, 237, 215)" fill-opacity="1.0" stroke="rgb(142, 115, 101)" stroke-width="1.36023962" stroke-opacity="1.0" stroke-linecap="round" stroke-linejoin="round"  filling="0" d="M291.897919 266.685699 C289.822083 267.189911 287.442047 268.273804 284.642090 269.481476 C281.842133 270.689117 278.622253 272.020508 274.866669 273.019745 C271.387573 273.722992 268.056122 274.271057 264.743683 274.626831 C261.431213 274.982605 258.137756 275.146118 254.734589 275.080322 C250.707245 274.857117 247.401337 274.730225 244.198425 274.391327 C240.995483 274.052399 237.895538 273.501404 234.280090 272.429962 C229.823685 271.013123 226.443527 269.633545 223.602631 268.270996 C220.761734 266.908478 218.460083 265.563019 216.160690 264.214417 C212.710037 261.039581 211.606995 259.338989 212.274368 259.028168 C212.941742 258.717346 215.379517 259.796295 219.010468 262.180573 C224.047974 263.649719 226.365295 264.725037 228.135193 265.682556 C229.905075 266.640076 231.127533 267.479797 233.975311 268.477722 C237.508331 269.822571 240.488327 270.096924 243.302155 270.096130 C246.115982 270.095306 248.763641 269.819336 251.631973 270.063538 C255.888947 270.599243 258.837585 271.000610 261.592377 271.044037 C264.347168 271.087463 266.908142 270.772949 270.389679 269.876984 C274.850372 268.989014 278.358276 267.964844 281.368195 266.886047 C284.378113 265.807251 286.890015 264.673859 289.358704 263.567413 C293.649994 261.054596 296.976624 260.135864 297.884552 260.694489 C298.792450 261.253113 297.281616 263.289062 291.897919 266.685699"></path>
</svg>