<svg xmlns="http://www.w3.org/2000/svg" viewBox="0 0 512 512" height="512.0px" width="512.0px">
<path id="" fill="#e6f3ff" fill-opacity="1.0" stroke="#000000" stroke-width="0.0" stroke-opacity="1.0" stroke-linecap="round" stroke-linejoin="round"  filling="0" d="M0.000000 0.000000 C170.666672 0.000000 341.333313 0.000000 512.000000 0.000000 C512.000000 170.666672 512.000000 341.333313 512.000000 512.000000 C341.333313 512.000000 170.666672 512.000000 0.000000 512.000000 C0.000000 341.333313 0.000000 170.666672 0.000000 0.000000"></path>
<path id="" fill="#008000" fill-opacity="1.0" stroke="#000000" stroke-width="0.0" stroke-opacity="1.0" stroke-linecap="round" stroke-linejoin="round"  filling="0" d="M260.000000 340.000000 C260.000000 386.666656 260.000000 433.333344 260.000000 480.000000 C257.333344 480.000000 254.666672 480.000000 252.000000 480.000000 C252.000000 433.333344 252.000000 386.666656 252.000000 340.000000 C254.666672 340.000000 257.333344 340.000000 260.000000 340.000000"></path>
<path id="" fill="#ffffff" fill-opacity="1.0" stroke="#000000" stroke-width="0.0" stroke-opacity="1.0" stroke-linecap="round" stroke-linejoin="round"  filling="0" d="M276.000000 196.000000 C276.000000 214.558029 273.891449 232.374954 270.142151 245.497467 C266.392853 258.619965 261.302307 266.000000 256.000000 266.000000 C250.697708 266.000000 245.607147 258.619965 241.857864 245.497467 C238.108582 232.374954 236.000000 214.558044 236.000000 196.000000 C236.000000 177.441971 238.108582 159.625046 241.857864 146.502533 C245.607147 133.380020 250.697708 126.000000 256.000000 126.000000 C261.302307 126.000000 266.392822 133.380005 270.142120 146.502518 C273.891418 159.625031 276.000000 177.441971 276.000000 196.000015"></path>
<path id="" fill="#ffffff" fill-opacity="1.0" stroke="#000000" stroke-width="0.0" stroke-opacity="1.0" stroke-linecap="round" stroke-linejoin="round"  filling="0" d="M303.320007 214.037994 C283.990997 247.518997 260.566010 270.183014 251.000000 264.660004 C241.434006 259.136993 249.350006 227.518997 268.679993 194.037994 C288.009003 160.557999 311.433990 137.893997 321.000000 143.417007 C330.566010 148.940002 322.649994 180.557999 303.320007 214.037994"></path>
<path id="" fill="#ffffff" fill-opacity="1.0" stroke="#000000" stroke-width="0.0" stroke-opacity="1.0" stroke-linecap="round" stroke-linejoin="round"  filling="0" d="M317.962006 243.320007 C284.480988 262.649994 252.863007 270.566010 247.339996 261.000000 C241.817001 251.434006 264.480988 228.009003 297.962006 208.679001 C331.441986 189.350006 363.059998 181.434006 368.583008 191.000000 C374.105988 200.565994 351.441986 223.990997 317.962006 243.320007"></path>
<path id="" fill="#ffffff" fill-opacity="1.0" stroke="#000000" stroke-width="0.0" stroke-opacity="1.0" stroke-linecap="round" stroke-linejoin="round"  filling="0" d="M316.000000 276.000000 C277.339996 276.000000 246.000000 267.045990 246.000000 256.000000 C246.000000 244.953995 277.339996 236.000000 316.000000 236.000000 C354.660004 236.000000 386.000000 244.953995 386.000000 256.000000 C386.000000 267.045990 354.660004 276.000000 316.000000 276.000000"></path>
<path id="" fill="#ffffff" fill-opacity="1.0" stroke="#000000" stroke-width="0.0" stroke-opacity="1.0" stroke-linecap="round" stroke-linejoin="round"  filling="0" d="M297.962006 303.320007 C264.480988 283.990997 241.817001 260.566010 247.339996 251.000000 C252.863007 241.434006 284.480988 249.350006 317.962006 268.679993 C351.441986 288.009003 374.105988 311.433990 368.583008 321.000000 C363.059998 330.566010 331.441986 322.649994 297.962006 303.320007"></path>
<path id="" fill="#ffffff" fill-opacity="1.0" stroke="#000000" stroke-width="0.0" stroke-opacity="1.0" stroke-linecap="round" stroke-linejoin="round"  filling="0" d="M268.679993 317.962006 C249.350006 284.480988 241.434006 252.863007 251.000000 247.339996 C260.566010 241.817001 283.990997 264.480988 303.321014 297.962006 C322.649994 331.441986 330.566010 363.059998 321.000000 368.583008 C311.433990 374.105988 288.009003 351.441986 268.679993 317.962006"></path>
<path id="" fill="#ffffff" fill-opacity="1.0" stroke="#000000" stroke-width="0.0" stroke-opacity="1.0" stroke-linecap="round" stroke-linejoin="round"  filling="0" d="M236.000000 316.000000 C236.000000 277.339996 244.953995 246.000000 256.000000 246.000000 C267.045990 246.000000 276.000000 277.339996 276.000000 316.000000 C276.000000 354.660004 267.045990 386.000000 256.000000 386.000000 C244.953995 386.000000 236.000000 354.660004 236.000000 316.000000"></path>
<path id="" fill="#ffffff" fill-opacity="1.0" stroke="#000000" stroke-width="0.0" stroke-opacity="1.0" stroke-linecap="round" stroke-linejoin="round"  filling="0" d="M208.679993 297.962006 C228.009003 264.480988 251.434006 241.817001 261.000000 247.339996 C270.566010 252.863007 262.649994 284.480988 243.320999 317.962006 C223.990997 351.441986 200.565994 374.105988 191.000000 368.583008 C181.434006 363.059998 189.350006 331.441986 208.679993 297.962006"></path>
<path id="" fill="#ffffff" fill-opacity="1.0" stroke="#000000" stroke-width="0.0" stroke-opacity="1.0" stroke-linecap="round" stroke-linejoin="round"  filling="0" d="M194.037994 268.679993 C227.518997 249.350006 259.136993 241.434006 264.660004 251.000000 C270.183014 260.566010 247.518997 283.990997 214.037994 303.321014 C180.557999 322.649994 148.940002 330.566010 143.417007 321.000000 C137.893997 311.433990 160.557999 288.009003 194.037994 268.679993"></path>
<path id="" fill="#ffffff" fill-opacity="1.0" stroke="#000000" stroke-width="0.0" stroke-opacity="1.0" stroke-linecap="round" stroke-linejoin="round"  filling="0" d="M196.000000 236.000000 C234.660004 236.000000 266.000000 244.953995 266.000000 256.000000 C266.000000 267.045990 234.660004 276.000000 196.000000 276.000000 C157.339996 276.000000 126.000000 267.045990 126.000000 256.000000 C126.000000 244.953995 157.339996 236.000000 196.000000 236.000000"></path>
<path id="" fill="#ffffff" fill-opacity="1.0" stroke="#000000" stroke-width="0.0" stroke-opacity="1.0" stroke-linecap="round" stroke-linejoin="round"  filling="0" d="M214.037994 208.679993 C247.518997 228.009003 270.183014 251.434006 264.660004 261.000000 C259.136993 270.566010 227.518997 262.649994 194.037994 243.320999 C160.557999 223.990997 137.893997 200.565994 143.417007 191.000000 C148.940002 181.434006 180.557999 189.350006 214.037994 208.679993"></path>
<path id="" fill="#ffffff" fill-opacity="1.0" stroke="#000000" stroke-width="0.0" stroke-opacity="1.0" stroke-linecap="round" stroke-linejoin="round"  filling="0" d="M243.320007 194.037994 C262.649994 227.518997 270.566010 259.136993 261.000000 264.660004 C251.434006 270.183014 228.009003 247.518997 208.679001 214.037994 C189.350006 180.557999 181.434006 148.940002 191.000000 143.417007 C200.565994 137.893997 223.990997 160.557999 243.320007 194.037994"></path>
<path id="" fill="#ffff00" fill-opacity="1.0" stroke="#000000" stroke-width="0.0" stroke-opacity="1.0" stroke-linecap="round" stroke-linejoin="round"  filling="0" d="M316.000000 256.000000 C316.000000 271.906891 309.674255 287.178528 298.426392 298.426392 C287.178528 309.674255 271.906891 316.000000 256.000000 316.000000 C240.093109 316.000000 224.821457 309.674255 213.573593 298.426392 C202.325729 287.178528 196.000000 271.906891 196.000000 256.000000 C196.000000 240.093109 202.325729 224.821457 213.573593 213.573593 C224.821457 202.325729 240.093109 196.000000 256.000000 196.000000 C271.906891 196.000000 287.178528 202.325714 298.426392 213.573578 C309.674255 224.821442 316.000000 240.093109 316.000000 256.000000"></path>
</svg>