<?xml version="1.0" ?>
<svg xmlns="http://www.w3.org/2000/svg" version="1.1" width="512" height="512" viewBox="0 0 512 512">
  <defs/>
  <g>
    <path d="M 650.14880371 504.88714600 C 624.81945801 512.86181641 599.46563721 520.82995605 574.12481689 528.72760010 C 548.78680420 536.55426025 523.44073486 544.25738525 498.06207275 551.68841553 C 472.64321899 558.81768799 447.11672974 565.60192871 421.50570679 571.93939209 C 395.80514526 577.69879150 369.98718262 582.79760742 344.06307983 587.16217041 C 318.06625366 590.68109131 292.01782227 593.29089355 265.99865723 594.82745361 C 240.06462097 595.21624756 214.23883057 594.37347412 188.67370605 592.19665527 C 163.46495056 588.57293701 138.70797729 583.42626953 114.56727600 576.66662598 C 91.20034027 568.20330811 68.72848511 557.95697021 47.31960297 545.87207031 C 27.11971474 531.87335205 8.38609600 515.87591553 -8.79461765 497.87899780 C -24.35743904 477.98678589 -38.34331894 456.40460205 -50.83870316 433.42562866 C -61.89790726 409.25613403 -71.50123596 384.10607910 -79.73616791 358.23138428 C -86.61815643 331.86856079 -92.16634369 305.23184204 -96.36569214 278.50158691 C -99.24786377 251.90510559 -100.83178711 225.63015747 -101.10186768 199.86203003 C -100.02458191 174.71566772 -97.59853363 150.35890198 -93.78796387 126.93426514 C -88.58638763 104.53323364 -81.94509888 83.24584198 -73.87609863 63.14623642 C -64.37219238 44.32212448 -53.40552902 26.78374672 -40.91815567 10.57402420 C -26.94743538 -4.32678080 -11.51096725 -17.91839600 5.39965820 -30.21643829 C 23.71108437 -41.20114136 43.34583282 -50.91241455 64.21700287 -59.31823349 C 86.16977692 -66.35778046 109.10657501 -72.11064911 132.95663452 -76.59330750 C 157.56340027 -79.79940033 182.85678101 -81.83341980 208.79598999 -82.75097656 C 235.20457458 -82.60179138 261.94827271 -81.40330505 288.86495972 -79.15886688 C 315.79583740 -75.86913300 342.59829712 -71.54307556 368.99618530 -66.08479309 C 394.78353882 -59.36346817 419.64474487 -51.25397110 443.32327271 -41.60461426 C 465.59597778 -30.29396057 486.28009033 -17.27328682 505.21264648 -2.44512606 C 522.18402100 14.31338406 537.25073242 32.92195511 550.56744385 53.13624191 C 562.34259033 74.84537506 572.68933105 97.82788849 581.81713867 121.88777924 C 589.96160889 146.82783508 597.29766846 172.41815186 604.01409912 198.55641174 C 610.26019287 225.03932190 616.16864014 251.80119324 621.83697510 278.75204468 C 627.39141846 305.70632935 632.91430664 332.72256470 638.44818115 359.71752930 C 643.98303223 386.71719360 649.54144287 413.70687866 650.14880371 504.88714600" stroke-width="2.00000000" fill="rgb(211, 243, 255)" opacity="1.0" stroke="rgb(137, 230, 255)" stroke-opacity="0.33883026" stroke-linecap="round" stroke-linejoin="round"/>
    <path d="M 248.92660522 483.52416992 C 248.41082764 478.47775269 248.25814819 473.39907837 248.18272400 468.26354980 C 247.94618225 463.07220459 247.75170898 457.83920288 247.64228821 452.59368896 C 247.49127197 447.34173584 247.41853333 442.10794067 247.17343140 436.86181641 C 246.84970093 431.64694214 246.78070068 426.45028687 246.74090576 421.26553345 C 246.65621948 416.17410278 246.56256104 411.14822388 246.48432922 406.26452637 C 246.44784546 401.55471802 246.29243469 397.03317261 246.32746887 392.71685791 C 246.43107605 388.66061401 246.46034241 384.88394165 246.81605530 381.45721436 C 247.35203552 378.48446655 248.00990295 375.88000488 248.84323120 373.69296265 C 249.89144897 371.96801758 251.06311035 370.70971680 252.20738220 369.94613647 C 253.34742737 369.62371826 254.56288147 369.79858398 255.78225708 370.43450928 C 256.90911865 371.55316162 257.87133789 373.14120483 258.72436523 375.15792847 C 259.45980835 377.57141113 259.93869019 380.43307495 260.17770386 383.68490601 C 260.17742920 387.24478149 260.09768677 391.05853271 260.02529907 395.12283325 C 259.68548584 399.33572388 259.73120117 403.67376709 260.06240845 408.11376953 C 260.15777588 412.70135498 260.15512085 417.40505981 260.22320557 422.13784790 C 260.32919312 426.86349487 260.36206055 431.64352417 260.80422974 436.36450195 C 261.37338257 441.02273560 261.49682617 445.73800659 261.36413574 450.44403076 C 261.35693359 455.06713867 261.50070190 459.71691895 261.56375122 464.43841553 C 261.56982422 469.12026978 261.70016479 473.82464600 261.82519531 478.65194702 C 261.56561279 483.52789307 260.99935913 488.65499878 248.92660522 483.52416992" stroke-width="1.08540416" fill="rgb(140, 197, 80)" opacity="1.0" stroke="rgb(164, 208, 154)" stroke-opacity="0.80293053" stroke-linecap="round" stroke-linejoin="round"/>
    <path d="M 275.26684570 244.53254700 C 273.11575317 244.68301392 270.92251587 244.81549072 268.69821167 244.95606995 C 266.47042847 245.08805847 264.28079224 245.15255737 262.12902832 245.05094910 C 259.98907471 244.79527283 257.87872314 244.42402649 255.84196472 243.84689331 C 253.84416199 242.99287415 251.85958862 241.77346802 249.92575073 240.26936340 C 248.10653687 238.43223572 246.41123962 236.17471313 244.79393005 233.44079590 C 243.25659180 230.32324219 241.81752014 226.83639526 240.46754456 222.90629578 C 239.18011475 218.47628784 238.03199768 213.64967346 237.14208984 208.48475647 C 236.48054504 202.99150085 235.99761963 197.16752625 235.75080872 191.11590576 C 235.85862732 184.98609924 235.58705139 178.83665466 235.00889587 172.67102051 C 234.52342224 166.58172607 234.95932007 160.53675842 235.66792297 154.57408142 C 236.42152405 148.68266296 237.67567444 143.10218811 239.46682739 137.91049194 C 241.54170227 133.11914062 243.83940125 128.78726196 246.10852051 125.15020752 C 248.19609070 122.21278381 250.55264282 120.49327087 253.31164551 119.66938019 C 255.97018433 119.31272888 258.33468628 120.06445312 260.60626221 121.90077972 C 262.88500977 124.34500122 265.12216187 127.36061096 267.16809082 130.88995361 C 268.97402954 134.91497803 270.55734253 139.25148010 271.70455933 143.94729614 C 272.95071411 148.78697205 273.70657349 153.94758606 274.12448120 159.42735291 C 274.53512573 165.08262634 274.44631958 170.70791626 274.06439209 176.47666931 C 273.39025879 182.30561829 273.33825684 188.26869202 273.40695190 194.25347900 C 273.23956299 200.22424316 272.97744751 206.21981812 275.26684570 244.53254700" stroke-width="2.00000000" fill="rgb(253, 255, 254)" opacity="1.0" stroke="rgb(66, 145, 135)" stroke-opacity="0.7744622" stroke-linecap="round" stroke-linejoin="round"/>
    <path d="M 305.27182007 203.21037292 C 303.11126709 208.88009644 300.68014526 214.29161072 297.97677612 219.46188354 C 295.10787964 224.37422180 292.18597412 228.99470520 289.23327637 233.28086853 C 286.26885986 237.18568420 283.29666138 240.64764404 280.45727539 243.70169067 C 277.76336670 246.34762573 275.15316772 248.51786804 272.71948242 250.17941284 C 270.55371094 251.36824036 268.65075684 252.06690979 266.93008423 252.24969482 C 265.47232056 251.93339539 264.27877808 251.12908936 263.35574341 249.79376221 C 262.68411255 248.00527954 262.24987793 245.74243164 262.08154297 242.97381592 C 262.17816162 239.73878479 262.52627563 236.12156677 263.03515625 232.10922241 C 263.69735718 227.70628357 264.52169800 222.96556091 265.63549805 217.92428589 C 266.98318481 212.60807800 268.41687012 207.02207947 269.94335938 201.28134155 C 271.61709595 195.44442749 273.37539673 189.35266113 275.55508423 183.29171753 C 278.59173584 177.50531006 281.41131592 171.48492432 284.44723511 165.62989807 C 287.72326660 160.16606140 291.41168213 155.32896423 295.32968140 150.84712219 C 299.53152466 147.13531494 303.40328979 143.70671082 307.20059204 141.02261353 C 310.81207275 138.85848999 314.11114502 137.53202820 317.07546997 137.20469666 C 319.57812500 137.22538757 321.65026855 138.21385193 323.32083130 140.09962463 C 324.50195312 142.45118713 325.31735229 145.38642883 325.49578857 148.73437500 C 325.77734375 152.64060974 325.55831909 156.94306946 324.87710571 161.53137207 C 324.10070801 166.30757141 322.80914307 171.22248840 320.90945435 176.30754089 C 318.68432617 181.43984985 316.80358887 186.91891479 305.27182007 203.21037292" stroke-width="2.00000000" fill="rgb(251, 255, 254)" opacity="1.0" stroke="rgb(76, 150, 140)" stroke-opacity="0.77665335" stroke-linecap="round" stroke-linejoin="round"/>
    <path d="M 363.71813965 208.58790588 C 360.34472656 213.15843201 356.18148804 217.08735657 351.85446167 220.90075684 C 347.21786499 224.30326843 342.40225220 227.26376343 337.37542725 229.87017822 C 332.24618530 231.81477356 327.59851074 234.38250732 323.03976440 237.33363342 C 318.16952515 239.64350891 313.12597656 241.47525024 308.16320801 243.27214050 C 303.39031982 244.99838257 298.78967285 246.54421997 294.35403442 247.84236145 C 290.20339966 248.83422852 286.38037109 249.62489319 282.94836426 250.26802063 C 279.89251709 250.66664124 277.22442627 250.69638062 275.00329590 250.38700867 C 273.23706055 249.90243530 271.94357300 249.30281067 271.16265869 248.49192810 C 270.86453247 247.37373352 270.95364380 245.95921326 271.48757935 244.34136963 C 272.53097534 242.52383423 274.01828003 240.49617004 275.87878418 238.27394104 C 278.05294800 235.83753967 280.53915405 233.19612122 283.26550293 230.33355713 C 286.21560669 227.30426025 289.34362793 224.12059021 292.55404663 220.69644165 C 295.76473999 217.08204651 298.91946411 213.32659912 302.05548096 209.43955994 C 305.14480591 205.45310974 308.36242676 201.62408447 312.33703613 198.49143982 C 316.92062378 195.78042603 321.71453857 193.09234619 326.46203613 190.35598755 C 331.24963379 187.87297058 336.27810669 186.20045471 341.28472900 185.06968689 C 346.03488159 183.96974182 350.67440796 183.16293335 355.14862061 183.39147949 C 359.13455200 183.15423584 362.62551880 183.25402832 365.77243042 183.89840698 C 368.33804321 184.78332520 370.00531006 186.48368835 370.70669556 189.20449829 C 370.89468384 193.15568542 371.49813843 197.52377319 363.71813965 208.58790588" stroke-width="2.00000000" fill="rgb(252, 254, 252)" opacity="1.0" stroke="rgb(70, 147, 141)" stroke-opacity="0.7766633" stroke-linecap="round" stroke-linejoin="round"/>
    <path d="M 385.38693237 260.02316284 C 381.34930420 264.50927734 376.45205688 267.78408813 370.77252197 269.90213013 C 364.93084717 272.24981689 358.75250244 273.32647705 352.33340454 274.16226196 C 345.91223145 274.61972046 339.48620605 274.55712891 333.17575073 274.39309692 C 326.91339111 274.84909058 320.71917725 275.05810547 314.54260254 275.01791382 C 308.45578003 274.86129761 302.62466431 274.71524048 297.05966187 274.57943726 C 291.68637085 274.32546997 286.60488892 273.91207886 281.89776611 273.36715698 C 277.60525513 272.69012451 273.78359985 271.93853760 270.43045044 271.15768433 C 267.53808594 270.29949951 265.16937256 269.30352783 263.39779663 268.20321655 C 262.18661499 267.00466919 261.50680542 265.67407227 261.31747437 264.22787476 C 261.68136597 262.73452759 262.69174194 261.20999146 264.25625610 259.58227539 C 266.28417969 257.87652588 268.79159546 256.16735840 271.82409668 254.46276855 C 275.26504517 252.67404175 279.04888916 250.80909729 283.21490479 249.00367737 C 287.74734497 247.30349731 292.53698730 245.64961243 297.47854614 243.97286987 C 302.55435181 242.34231567 307.74859619 240.83134460 312.97369385 239.53289795 C 318.13107300 238.50738525 323.09960938 237.15319824 327.64172363 235.55824280 C 332.38790894 235.37815857 337.11108398 235.31948853 341.95394897 235.14193726 C 346.69638062 235.10554504 351.31134033 235.37324524 355.99368286 235.60882568 C 360.52737427 236.39779663 364.92098999 237.46197510 369.39236450 238.66682434 C 373.61401367 240.17230225 377.69461060 242.02456665 381.48367310 244.56861877 C 385.17590332 247.52262878 388.93566895 250.87455750 385.38693237 260.02316284" stroke-width="2.00000000" fill="rgb(251, 255, 255)" opacity="1.0" stroke="rgb(14, 108, 96)" stroke-opacity="0.54097366" stroke-linecap="round" stroke-linejoin="round"/>
    <path d="M 365.22677612 325.25286865 C 359.98785400 325.65344238 354.73449707 325.64257812 349.43417358 325.25744629 C 344.05398560 324.67651367 338.82223511 323.63424683 333.84255981 322.13479614 C 328.86022949 320.50775146 324.17514038 318.18667603 319.80023193 315.49353027 C 315.52462769 312.55633545 310.86672974 310.36950684 306.00088501 308.39938354 C 301.42001343 305.60897827 296.94738770 302.61718750 292.53936768 299.61846924 C 288.24536133 296.63314819 284.19564819 293.65414429 280.43487549 290.67300415 C 276.95315552 287.71340942 273.89489746 284.84075928 271.28143311 282.14965820 C 269.00491333 279.67129517 267.11871338 277.33834839 265.71520996 275.16708374 C 264.80383301 273.21420288 264.35626221 271.59109497 264.39382935 270.24542236 C 264.92437744 269.07052612 265.92144775 268.08676147 267.40246582 267.36196899 C 269.37002563 266.91915894 271.80853271 266.76733398 274.70861816 266.83401489 C 278.01098633 267.09939575 281.65811157 267.60430908 285.64352417 268.33914185 C 289.95401001 269.24057007 294.53601074 270.19317627 299.37301636 271.15652466 C 304.44927979 272.14544678 309.49890137 272.95788574 314.44778442 273.49847412 C 319.19329834 274.64105225 323.85217285 275.20916748 328.41879272 275.69711304 C 332.58175659 277.42056274 336.72555542 279.60595703 340.97457886 281.65606689 C 345.04263306 284.09008789 349.04830933 286.64685059 352.82379150 289.56130981 C 356.49166870 292.66638184 360.01559448 295.82736206 362.95794678 299.61029053 C 365.95358276 303.27008057 368.40350342 307.45144653 370.37698364 311.98406982 C 372.07855225 316.85311890 373.35369873 321.99588013 365.22677612 325.25286865" stroke-width="2.00000000" fill="rgb(251, 254, 252)" opacity="1.0" stroke="rgb(2, 104, 85)" stroke-opacity="0.48885164" stroke-linecap="round" stroke-linejoin="round"/>
    <path d="M 325.54525757 356.13369751 C 325.28915405 359.08297729 324.92468262 361.95352173 324.41958618 364.53060913 C 323.74649048 366.91510010 322.51464844 368.63540649 320.93664551 370.02291870 C 318.90222168 370.67620850 316.40063477 370.84869385 313.56063843 370.26586914 C 310.34283447 368.65686035 306.40945435 366.51663208 302.42477417 363.56842041 C 298.22579956 360.08831787 294.14532471 356.04318237 290.27975464 351.52127075 C 286.60229492 346.77966309 283.30487061 341.68893433 280.46124268 336.24819946 C 277.55230713 330.83282471 274.50555420 325.49746704 271.44000244 320.22790527 C 268.83236694 314.85266113 266.56747437 309.44366455 264.48739624 304.15039062 C 262.54791260 299.05670166 260.73529053 294.23361206 259.14752197 289.68380737 C 257.91864014 285.38024902 257.07968140 281.39114380 256.56158447 277.82247925 C 256.32489014 274.63336182 256.37652588 271.77780151 256.74841309 269.33093262 C 257.41741943 267.37384033 258.29211426 265.95910645 259.42730713 265.04016113 C 260.74081421 264.60067749 262.27157593 264.66198730 263.97766113 265.19387817 C 265.90026855 266.23428345 267.98834229 267.75646973 270.24917603 269.71951294 C 272.67147827 272.06121826 275.19564819 274.81179810 277.85180664 277.97894287 C 280.68933105 281.42276001 283.75024414 285.04138184 287.06292725 288.80319214 C 290.65557861 292.59185791 294.59204102 296.19000244 298.85922241 299.54702759 C 302.82626343 303.32562256 306.36972046 307.72473145 310.01055908 312.44012451 C 313.40451050 317.72045898 316.60632324 323.41629028 319.55032349 329.57464600 C 322.13064575 336.24670410 324.96411133 342.99487305 325.54525757 356.13369751" stroke-width="2.00000000" fill="rgb(250, 254, 252)" opacity="1.0" stroke="rgb(0, 97, 73)" stroke-opacity="0.4874394" stroke-linecap="round" stroke-linejoin="round"/>
    <path d="M 269.53616333 367.11758423 C 268.45404053 370.17507935 267.06362915 373.07669067 265.57226562 375.85577393 C 264.11242676 378.63183594 262.50390625 380.91479492 260.70407104 382.72488403 C 258.79760742 384.32086182 256.75723267 385.21792603 254.39921570 385.40103149 C 251.76017761 385.06604004 249.20431519 383.99444580 246.83671570 381.85559082 C 244.43598938 379.17388916 242.47370911 375.78894043 240.82524109 371.54669189 C 238.98811340 366.92916870 237.37579346 362.07077026 236.36236572 356.47900391 C 235.33834839 350.85140991 235.14404297 344.86300659 235.09489441 338.81594849 C 235.55210876 332.83187866 235.73254395 326.87319946 235.75260925 320.96591187 C 236.14974976 315.17285156 236.70280457 309.51080322 237.36784363 304.04034424 C 238.15730286 298.80712891 238.98774719 293.87316895 239.84237671 289.24722290 C 240.78575134 284.98468018 241.85369873 281.12142944 243.02073669 277.75067139 C 244.22140503 274.87060547 245.42308044 272.47296143 246.63253784 270.61343384 C 247.87419128 269.32107544 249.19129944 268.59854126 250.58381653 268.38894653 C 252.04124451 268.78048706 253.58335876 269.74377441 255.11894226 271.25750732 C 256.54666138 273.29080200 257.91604614 275.80029297 259.39459229 278.80749512 C 260.95391846 282.28112793 262.46112061 286.17269897 263.88183594 290.44619751 C 265.29830933 295.07632446 266.77545166 300.02478027 268.18743896 305.20385742 C 269.56625366 310.46987915 270.87161255 315.86068726 272.03244019 321.45578003 C 273.50543213 326.70050049 273.98089600 332.27435303 273.83163452 338.33282471 C 273.84628296 344.79537964 274.19580078 351.43420410 269.53616333 367.11758423" stroke-width="2.00000000" fill="rgb(250, 253, 252)" opacity="1.0" stroke="rgb(82, 152, 137)" stroke-opacity="0.8597217" stroke-linecap="round" stroke-linejoin="round"/>
    <path d="M 220.57801819 350.89483643 C 216.71984863 355.31430054 212.89810181 359.48257446 208.82429504 362.99264526 C 204.96466064 366.16342163 201.04071045 368.38970947 197.28251648 369.89321899 C 194.03460693 371.00289917 191.09152222 370.99951172 188.45828247 370.33969116 C 186.27330017 369.04440308 184.66236877 367.05459595 183.76260376 364.30599976 C 183.36419678 360.57495117 183.22253418 356.27951050 183.54275513 351.71142578 C 184.00044250 346.90567017 185.22833252 341.93945312 186.97068787 336.77642822 C 188.66380310 331.47814941 190.98564148 326.35165405 194.01231384 321.39221191 C 197.21952820 316.36660767 200.42343140 311.40185547 203.15504456 306.19604492 C 206.03027344 301.03320312 209.12953186 296.20529175 212.32017517 291.67388916 C 215.51255798 287.47732544 218.66702271 283.53491211 221.66525269 279.88275146 C 224.51054382 276.58123779 227.27998352 273.67312622 229.93231201 271.26449585 C 232.43795776 269.37860107 234.76580811 267.89410400 236.88549805 266.76132202 C 238.81634521 266.06420898 240.50086975 265.90032959 241.92752075 266.21295166 C 243.15399170 266.96502686 244.20719910 268.15130615 245.03120422 269.68811035 C 245.51277161 271.56991577 245.71582031 273.81951904 245.72425842 276.45727539 C 245.58407593 279.44531250 245.27682495 282.68109131 244.73464966 286.17056274 C 244.01477051 289.97155762 243.18368530 294.08453369 242.22045898 298.37719727 C 241.04989624 302.74157715 239.77091980 307.30496216 238.45437622 312.11953735 C 237.08161926 317.08724976 235.86717224 322.21139526 234.30374146 327.46212769 C 231.80326843 332.59979248 229.73352051 338.23040771 220.57801819 350.89483643" stroke-width="2.00000000" fill="rgb(252, 255, 252)" opacity="1.0" stroke="rgb(85, 156, 148)" stroke-opacity="0.8800648" stroke-linecap="round" stroke-linejoin="round"/>
    <path d="M 233.96109009 265.03561401 C 230.72090149 269.16900635 227.47152710 273.31292725 224.23638916 277.48162842 C 221.04847717 281.68624878 217.86283875 285.82821655 214.67556763 289.93902588 C 211.51097107 293.98175049 208.38703918 298.00958252 205.29962158 301.88824463 C 202.54769897 305.69021606 200.20683289 309.39141846 196.63667297 311.97616577 C 192.21376038 314.55343628 187.47993469 317.31326294 182.11320496 319.64907837 C 176.68600464 321.77517700 171.10360718 323.45742798 165.50465393 324.52627563 C 160.16101074 325.51235962 154.99148560 325.73519897 150.24368286 325.64630127 C 146.06246948 325.59780884 142.60038757 324.96185303 139.89427185 323.52749634 C 137.93057251 321.49771118 137.17300415 318.85391235 137.52278137 315.68710327 C 138.37901306 312.44625854 140.19723511 309.03656006 142.34465027 305.35394287 C 144.77410889 301.51818848 147.75297546 297.89657593 151.38566589 294.43222046 C 155.10540771 290.79922485 159.26934814 287.50650024 163.79501343 284.53884888 C 168.23078918 281.61727905 173.05972290 279.26712036 177.61984253 276.82464600 C 182.28738403 274.42929077 187.04983521 272.40145874 191.70457458 270.36892700 C 196.14440918 268.24871826 200.49395752 266.13684082 204.75627136 264.04074097 C 208.85551453 261.97296143 212.83097839 260.00677490 216.67636108 258.06359863 C 220.37046814 256.09948730 223.95391846 254.19529724 227.46733093 252.40809631 C 230.92083740 250.70034790 234.30300903 249.00852966 237.61054993 247.30317688 C 240.90824890 245.66995239 244.22955322 244.05470276 247.50611877 242.44013977 C 250.70175171 240.86416626 253.87188721 239.33932495 233.96109009 265.03561401" stroke-width="2.00000000" fill="rgb(251, 253, 254)" opacity="1.0" stroke="rgb(64, 141, 129)" stroke-opacity="0.72076184" stroke-linecap="round" stroke-linejoin="round"/>
    <path d="M 257.93316650 263.67904663 C 252.13290405 264.45605469 246.31526184 265.13989258 240.48477173 265.76089478 C 234.66166687 266.41333008 228.86587524 267.10842896 223.10855103 267.83117676 C 217.35952759 268.55862427 211.59429932 269.28475952 205.89683533 269.99630737 C 200.35700989 270.70043945 194.91543579 271.57217407 189.48532104 272.57754517 C 184.10502625 273.35922241 178.95018005 274.46035767 173.64710999 274.92880249 C 168.05528259 274.67379761 162.34103394 274.61077881 156.57815552 274.28094482 C 150.93591309 273.38442993 145.44215393 272.52319336 140.32629395 271.06320190 C 135.49688721 269.30294800 131.27151489 267.37438965 127.47083282 265.08483887 C 124.39936829 262.65219116 121.99497986 260.30075073 120.84341431 257.32019043 C 120.18193817 254.14683533 120.43142700 251.07099915 121.87841797 248.16575623 C 124.09802246 245.75181580 127.11091614 243.65335083 130.83383179 241.84385681 C 135.00709534 239.98857117 139.65449524 238.42620850 144.72781372 237.02146912 C 149.92567444 235.85424805 155.44854736 235.32093811 161.23406982 235.19976807 C 167.12922668 235.02218628 173.14050293 235.21534729 179.32662964 235.51879883 C 185.65032959 235.20809937 191.95085144 235.10920715 198.22660828 235.25376892 C 204.47991943 235.63583374 210.70901489 236.41615295 216.83863831 237.51634216 C 222.83052063 238.75555420 228.66732788 240.02157593 234.38644409 241.32458496 C 239.95785522 242.68740845 245.44433594 244.14787292 250.85424805 245.74160767 C 256.13909912 247.40444946 261.37442017 249.04394531 266.59490967 250.67668152 C 271.81283569 252.33892822 276.98242188 254.01394653 257.93316650 263.67904663" stroke-width="2.00000000" fill="rgb(251, 255, 253)" opacity="1.0" stroke="rgb(48, 133, 125)" stroke-opacity="0.6423517" stroke-linecap="round" stroke-linejoin="round"/>
    <path d="M 273.55740356 261.08743286 C 269.65844727 259.82916260 265.74978638 258.54687500 261.83862305 257.20004272 C 257.92630005 255.85324097 253.99705505 254.48451233 250.02235413 253.14596558 C 245.92233276 251.81694031 241.67663574 250.46112061 237.31468201 249.17903137 C 232.90011597 247.91548157 228.48710632 246.56355286 224.01631165 245.04945374 C 219.46858215 243.31500244 214.79859924 241.31277466 209.93246460 239.27383423 C 204.81460571 237.68211365 199.43150330 236.73120117 193.87557983 236.37300110 C 188.28552246 235.26203918 182.64942932 233.94627380 177.31787109 232.15457153 C 172.03315735 230.10678101 167.09083557 227.58975220 162.50703430 224.55029297 C 158.02670288 221.42237854 153.92677307 217.95692444 150.13056946 214.38197327 C 146.61103821 210.90962219 143.71258545 207.19509888 141.37557983 203.41127014 C 139.40499878 199.77770996 138.19183350 196.21504211 137.76542664 192.82905579 C 137.88090515 189.77627563 138.72032166 187.31242371 140.31866455 185.39793396 C 142.46171570 183.85784912 145.12280273 183.19444275 148.49821472 183.25564575 C 152.56907654 182.99710083 157.22148132 183.03703308 162.34971619 183.56346130 C 167.98657227 184.77017212 173.96520996 186.22457886 179.88739014 188.59867859 C 185.76913452 191.29437256 191.41276550 194.57220459 196.91007996 198.18650818 C 202.66961670 201.18957520 208.62515259 203.92288208 214.53157043 206.75866699 C 220.40307617 209.70271301 226.27694702 212.75920105 232.09716797 215.91497803 C 237.84947205 219.07270813 243.65422058 222.19015503 249.49145508 225.31283569 C 255.27642822 228.50776672 260.97863770 231.77673340 273.55740356 261.08743286" stroke-width="2.00000000" fill="rgb(252, 255, 255)" opacity="1.0" stroke="rgb(77, 150, 139)" stroke-opacity="0.7341638" stroke-linecap="round" stroke-linejoin="round"/>
    <path d="M 262.47409058 246.37969971 C 260.46255493 246.24499512 258.47003174 246.06837463 256.50820923 245.83108521 C 254.55441284 245.55656433 252.55810547 245.25057983 250.50762939 244.85813904 C 248.42762756 244.37271118 246.29649353 243.74565125 244.09848022 242.95899963 C 241.85014343 241.96499634 239.51921082 240.76367188 237.15061951 239.24275208 C 234.67279053 237.46138000 232.06988525 235.46856689 229.42974854 233.20091248 C 226.74017334 230.59770203 223.92472839 227.71900940 220.91593933 224.62606812 C 217.85931396 221.17955017 214.85302734 217.35426331 211.77923584 213.30061340 C 208.64691162 209.06582642 205.47802734 204.47412109 202.00024414 199.99708557 C 198.57380676 195.40354919 195.26710510 190.59181213 192.43144226 185.60505676 C 189.62713623 180.61549377 187.36976624 175.53179932 185.81880188 170.27665710 C 184.33113098 165.20195007 183.49713135 160.39767456 183.15567017 155.56956482 C 183.08122253 151.08805847 183.36073303 147.05204773 183.92469788 143.54981995 C 184.80084229 140.69975281 186.19766235 138.71879578 188.44154358 137.72683716 C 191.19807434 137.17781067 194.35682678 137.40428162 197.86505127 138.47471619 C 201.56410217 140.10498047 205.25758362 142.62754822 209.04994202 145.44609070 C 212.74708557 148.74612427 216.13478088 152.52230835 219.36199951 156.67828369 C 222.63851929 160.96582031 225.52662659 165.50926208 228.05545044 170.41151428 C 230.45498657 175.45738220 232.90768433 180.42071533 234.98716736 185.72882080 C 236.64099121 191.16784668 238.16587830 196.72685242 239.31916809 202.45625305 C 240.61428833 208.25210571 241.69509888 213.99778748 262.47409058 246.37969971" stroke-width="2.00000000" fill="rgb(252, 253, 253)" opacity="1.0" stroke="rgb(0, 96, 75)" stroke-opacity="0.47865698" stroke-linecap="round" stroke-linejoin="round"/>
    <path d="M 222.47387695 304.04647827 C 218.84678650 301.26760864 215.30714417 298.51165771 212.04319763 295.59115601 C 209.42277527 292.12380981 206.89382935 288.63433838 204.62799072 285.08963013 C 202.62113953 281.27169800 200.80619812 277.27212524 199.25907898 273.27566528 C 197.96537781 269.30270386 197.11331177 265.24356079 196.47502136 261.24520874 C 196.07092285 257.28598022 196.13026428 253.29096985 196.21342468 249.42333984 C 196.74557495 245.66441345 197.58619690 241.86357117 198.71682739 237.92173767 C 200.19265747 234.11718750 201.87104797 230.24603271 203.77264404 226.35334778 C 205.70402527 222.60940552 208.17878723 219.29951477 210.93055725 216.12527466 C 213.70912170 212.95532227 216.67147827 210.14875793 219.88459778 207.53977966 C 223.14466858 205.09912109 226.62931824 203.11224365 230.24557495 201.27693176 C 234.00341797 199.74824524 237.65043640 198.18280029 241.44039917 196.99194336 C 245.62089539 196.37574768 249.96202087 195.94758606 254.25080872 195.64920044 C 258.43017578 195.67887878 262.49588013 196.09666443 266.58407593 196.70828247 C 270.57803345 197.53529358 274.20587158 198.85382080 277.78021240 200.58950806 C 281.49874878 202.25122070 285.01040649 204.13023376 288.30673218 206.29554749 C 291.39553833 208.77278137 294.48165894 211.29740906 297.45028687 213.72911072 C 299.89007568 216.65826416 302.16989136 219.90550232 304.32061768 223.16439819 C 306.32785034 226.55963135 308.03814697 230.15037537 309.47937012 233.88011169 C 310.73138428 237.70550537 311.65008545 241.58383179 312.41506958 245.51553345 C 313.12145996 249.35324097 313.23773193 253.14578247 313.11898804 257.00845337 C 313.01144409 260.93115234 312.46554565 264.77111816 311.50885010 268.54336548 C 310.56909180 272.52182007 309.31753540 276.39282227 307.78619385 280.07733154 C 306.02026367 283.72048950 303.80291748 287.21722412 301.29681396 290.54251099 C 298.50039673 293.73391724 295.67047119 296.86047363 292.49343872 299.71813965 C 289.22717285 302.38464355 285.71844482 304.74087524 282.21368408 306.89974976 C 278.56860352 308.43444824 274.95373535 309.86566162 271.39505005 311.25872803 C 267.67303467 312.02606201 264.04891968 312.66784668 260.49749756 313.23153687 C 256.71963501 313.47042847 252.99250793 313.54721069 249.31457520 313.21151733 C 245.57667542 312.80532837 241.74980164 312.03231812 238.01872253 311.03918457 C 234.30496216 309.65667725 230.44267273 308.55361938 222.47387695 304.04647827" stroke-width="1.44920397" fill="rgb(253, 198, 31)" opacity="1.0" stroke="rgb(236, 211, 137)" stroke-opacity="1.0" stroke-linecap="round" stroke-linejoin="round"/>
    <path d="M 367.38204956 383.10052490 C 365.40493774 386.07354736 363.56164551 389.05258179 361.89263916 392.20675659 C 360.10394287 395.22866821 358.17117310 398.19665527 356.29791260 401.23297119 C 354.38574219 404.25201416 352.36456299 407.27581787 350.20278931 410.21420288 C 347.90670776 413.17443848 345.46710205 416.08239746 342.97747803 418.98712158 C 340.36627197 421.84048462 337.49520874 424.51611328 334.49716187 427.13415527 C 331.38467407 429.63217163 328.05007935 431.99514771 324.52899170 434.26330566 C 320.92605591 436.23999023 317.20098877 438.15386963 313.33007812 439.74700928 C 309.40176392 441.49450684 305.39508057 442.78814697 301.30346680 443.72381592 C 297.18237305 444.69848633 292.94631958 445.56787109 288.78915405 446.20123291 C 284.78482056 446.78106689 280.91247559 447.18087769 277.22930908 447.49243164 C 273.84735107 447.71902466 270.75396729 447.79571533 268.00839233 447.92681885 C 265.71740723 447.85336304 263.95251465 447.54342651 262.72875977 446.79977417 C 261.98605347 445.40066528 261.59948730 443.52395630 261.53485107 441.29678345 C 261.73458862 438.76593018 262.35375977 435.95785522 263.27493286 432.97158813 C 264.16333008 429.74169922 265.16320801 426.31213379 266.52288818 422.79113770 C 267.97482300 419.21533203 269.64764404 415.70535278 271.67871094 412.21875000 C 273.94851685 408.86331177 276.21380615 405.49450684 278.64828491 402.24322510 C 281.27365112 399.17605591 284.08236694 396.25503540 286.98449707 393.55621338 C 289.80010986 390.78240967 292.69598389 388.15496826 295.76434326 385.86816406 C 299.02276611 383.74221802 302.14450073 381.54852295 305.26455688 379.31970215 C 308.33093262 377.11697388 311.17742920 374.92739868 314.26593018 373.26611328 C 317.72152710 372.56661987 321.22839355 371.68661499 324.50119019 370.02221680 C 327.97650146 368.51950073 331.79901123 367.39733887 335.65441895 366.44012451 C 339.38119507 365.21502686 343.10592651 364.01086426 346.82720947 362.99804688 C 350.43756104 362.08346558 353.91049194 361.24182129 357.28350830 360.72787476 C 360.52481079 360.13412476 363.60260010 359.66885376 366.55462646 359.38320923 C 369.32122803 358.97302246 371.89501953 358.70697021 374.25408936 358.73745728 C 376.47604370 358.64251709 378.54934692 358.36468506 380.31091309 358.05029297 C 381.73275757 357.99011230 382.85159302 358.04803467 383.60989380 357.98489380 C 383.90365601 357.62609863 383.81774902 357.03674316 367.38204956 383.10052490" stroke-width="1.21711242" fill="rgb(149, 207, 80)" opacity="1.0" stroke="rgb(107, 168, 0)" stroke-opacity="0.35936767" stroke-linecap="round" stroke-linejoin="round"/>
  </g>
</svg>
