<svg xmlns="http://www.w3.org/2000/svg" viewBox="0 0 512 512" height="512.0px" width="512.0px">
<path id="" fill="#e6f3ff" fill-opacity="1.0" stroke="#000000" stroke-width="0.0" stroke-opacity="1.0" stroke-linecap="round" stroke-linejoin="round"  filling="0" d="M0.000 0.000 C170.667 0.000 341.333 0.000 512.000 0.000 C512.000 170.667 512.000 341.333 512.000 512.000 C341.333 512.000 170.667 512.000 0.000 512.000 C0.000 341.333 0.000 170.667 0.000 0.000"></path>
<path id="" fill="#008000" fill-opacity="1.0" stroke="#000000" stroke-width="0.0" stroke-opacity="1.0" stroke-linecap="round" stroke-linejoin="round"  filling="0" d="M260.000 340.000 C260.000 386.667 260.000 433.333 260.000 480.000 C257.333 480.000 254.667 480.000 252.000 480.000 C252.000 433.333 252.000 386.667 252.000 340.000 C254.667 340.000 257.333 340.000 260.000 340.000"></path>
<path id="" fill="#ffffff" fill-opacity="1.0" stroke="#000000" stroke-width="0.0" stroke-opacity="1.0" stroke-linecap="round" stroke-linejoin="round"  filling="0" d="M276.000 196.000 C276.000 214.558 273.891 232.375 270.142 245.497 C266.393 258.620 261.302 266.000 256.000 266.000 C250.698 266.000 245.607 258.620 241.858 245.497 C238.109 232.375 236.000 214.558 236.000 196.000 C236.000 177.442 238.109 159.625 241.858 146.503 C245.607 133.380 250.698 126.000 256.000 126.000 C261.302 126.000 266.393 133.380 270.142 146.503 C273.891 159.625 276.000 177.442 276.000 196.000"></path>
<path id="" fill="#ffffff" fill-opacity="1.0" stroke="#000000" stroke-width="0.0" stroke-opacity="1.0" stroke-linecap="round" stroke-linejoin="round"  filling="0" d="M303.320 214.038 C283.991 247.519 260.566 270.183 251.000 264.660 C241.434 259.137 249.350 227.519 268.680 194.038 C288.009 160.558 311.434 137.894 321.000 143.417 C330.566 148.940 322.650 180.558 303.320 214.038"></path>
<path id="" fill="#ffffff" fill-opacity="1.0" stroke="#000000" stroke-width="0.0" stroke-opacity="1.0" stroke-linecap="round" stroke-linejoin="round"  filling="0" d="M317.962 243.320 C284.481 262.650 252.863 270.566 247.340 261.000 C241.817 251.434 264.481 228.009 297.962 208.679 C331.442 189.350 363.060 181.434 368.583 191.000 C374.106 200.566 351.442 223.991 317.962 243.320"></path>
<path id="" fill="#ffffff" fill-opacity="1.0" stroke="#000000" stroke-width="0.0" stroke-opacity="1.0" stroke-linecap="round" stroke-linejoin="round"  filling="0" d="M316.000 276.000 C277.340 276.000 246.000 267.046 246.000 256.000 C246.000 244.954 277.340 236.000 316.000 236.000 C354.660 236.000 386.000 244.954 386.000 256.000 C386.000 267.046 354.660 276.000 316.000 276.000"></path>
<path id="" fill="#ffffff" fill-opacity="1.0" stroke="#000000" stroke-width="0.0" stroke-opacity="1.0" stroke-linecap="round" stroke-linejoin="round"  filling="0" d="M297.962 303.320 C264.481 283.991 241.817 260.566 247.340 251.000 C252.863 241.434 284.481 249.350 317.962 268.680 C351.442 288.009 374.106 311.434 368.583 321.000 C363.060 330.566 331.442 322.650 297.962 303.320"></path>
<path id="" fill="#ffffff" fill-opacity="1.0" stroke="#000000" stroke-width="0.0" stroke-opacity="1.0" stroke-linecap="round" stroke-linejoin="round"  filling="0" d="M268.680 317.962 C249.350 284.481 241.434 252.863 251.000 247.340 C260.566 241.817 283.991 264.481 303.321 297.962 C322.650 331.442 330.566 363.060 321.000 368.583 C311.434 374.106 288.009 351.442 268.680 317.962"></path>
<path id="" fill="#ffffff" fill-opacity="1.0" stroke="#000000" stroke-width="0.0" stroke-opacity="1.0" stroke-linecap="round" stroke-linejoin="round"  filling="0" d="M236.000 316.000 C236.000 277.340 244.954 246.000 256.000 246.000 C267.046 246.000 276.000 277.340 276.000 316.000 C276.000 354.660 267.046 386.000 256.000 386.000 C244.954 386.000 236.000 354.660 236.000 316.000"></path>
<path id="" fill="#ffffff" fill-opacity="1.0" stroke="#000000" stroke-width="0.0" stroke-opacity="1.0" stroke-linecap="round" stroke-linejoin="round"  filling="0" d="M208.680 297.962 C228.009 264.481 251.434 241.817 261.000 247.340 C270.566 252.863 262.650 284.481 243.321 317.962 C223.991 351.442 200.566 374.106 191.000 368.583 C181.434 363.060 189.350 331.442 208.680 297.962"></path>
<path id="" fill="#ffffff" fill-opacity="1.0" stroke="#000000" stroke-width="0.0" stroke-opacity="1.0" stroke-linecap="round" stroke-linejoin="round"  filling="0" d="M194.038 268.680 C227.519 249.350 259.137 241.434 264.660 251.000 C270.183 260.566 247.519 283.991 214.038 303.321 C180.558 322.650 148.940 330.566 143.417 321.000 C137.894 311.434 160.558 288.009 194.038 268.680"></path>
<path id="" fill="#ffffff" fill-opacity="1.0" stroke="#000000" stroke-width="0.0" stroke-opacity="1.0" stroke-linecap="round" stroke-linejoin="round"  filling="0" d="M196.000 236.000 C234.660 236.000 266.000 244.954 266.000 256.000 C266.000 267.046 234.660 276.000 196.000 276.000 C157.340 276.000 126.000 267.046 126.000 256.000 C126.000 244.954 157.340 236.000 196.000 236.000"></path>
<path id="" fill="#ffffff" fill-opacity="1.0" stroke="#000000" stroke-width="0.0" stroke-opacity="1.0" stroke-linecap="round" stroke-linejoin="round"  filling="0" d="M214.038 208.680 C247.519 228.009 270.183 251.434 264.660 261.000 C259.137 270.566 227.519 262.650 194.038 243.321 C160.558 223.991 137.894 200.566 143.417 191.000 C148.940 181.434 180.558 189.350 214.038 208.680"></path>
<path id="" fill="#ffffff" fill-opacity="1.0" stroke="#000000" stroke-width="0.0" stroke-opacity="1.0" stroke-linecap="round" stroke-linejoin="round"  filling="0" d="M243.320 194.038 C262.650 227.519 270.566 259.137 261.000 264.660 C251.434 270.183 228.009 247.519 208.679 214.038 C189.350 180.558 181.434 148.940 191.000 143.417 C200.566 137.894 223.991 160.558 243.320 194.038"></path>
<path id="" fill="#ffff00" fill-opacity="1.0" stroke="#000000" stroke-width="0.0" stroke-opacity="1.0" stroke-linecap="round" stroke-linejoin="round"  filling="0" d="M316.000 256.000 C316.000 271.907 309.674 287.179 298.426 298.426 C287.179 309.674 271.907 316.000 256.000 316.000 C240.093 316.000 224.821 309.674 213.574 298.426 C202.326 287.179 196.000 271.907 196.000 256.000 C196.000 240.093 202.326 224.821 213.574 213.574 C224.821 202.326 240.093 196.000 256.000 196.000 C271.907 196.000 287.179 202.326 298.426 213.574 C309.674 224.821 316.000 240.093 316.000 256.000"></path>
<path id="" fill="#94ce4f" fill-opacity="1.0" stroke="#000000" stroke-width="0.0" stroke-opacity="1.0" stroke-linecap="round" stroke-linejoin="round"  filling="0" d="M261.500 446.000 C261.500 442.333 261.500 438.667 261.500 435.000 C261.833 434.667 262.167 434.333 262.500 434.000 C263.167 430.667 263.833 427.333 264.500 424.000 C266.167 420.333 267.833 416.667 269.500 413.000 C272.167 409.000 274.833 405.000 277.500 401.000 C281.667 396.833 285.833 392.667 290.000 388.500 C293.000 386.167 296.000 383.833 299.000 381.500 C303.667 378.500 308.333 375.500 313.000 372.500 C315.000 372.500 317.000 372.500 319.000 372.500 C321.333 370.833 323.667 369.167 326.000 367.500 C327.000 367.500 328.000 367.500 329.000 367.500 C334.667 365.500 340.333 363.500 346.000 361.500 C347.333 361.500 348.667 361.500 350.000 361.500 C352.000 360.833 354.000 360.167 356.000 359.500 C358.000 359.500 360.000 359.500 362.000 359.500 C362.333 359.167 362.667 358.833 363.000 358.500 C365.667 358.500 368.333 358.500 371.000 358.500 C371.333 358.167 371.667 357.833 372.000 357.500 C375.500 357.667 379.000 357.833 382.500 358.000 C372.500 374.333 362.500 390.667 352.500 407.000 C350.500 409.667 348.500 412.333 346.500 415.000 C342.000 419.500 337.500 424.000 333.000 428.500 C331.667 429.167 330.333 429.833 329.000 430.500 C328.000 431.500 327.000 432.500 326.000 433.500 C321.333 435.833 316.667 438.167 312.000 440.500 C307.667 441.833 303.333 443.167 299.000 444.500 C297.667 444.500 296.333 444.500 295.000 444.500 C293.000 445.167 291.000 445.833 289.000 446.500 C286.333 446.500 283.667 446.500 281.000 446.500 C280.667 446.833 280.333 447.167 280.000 447.500 C274.333 447.500 268.667 447.500 263.000 447.500 C262.500 447.000 262.000 446.500 261.500 446.000"></path>
</svg>