<svg viewBox="0 0 512 512" xmlns="http://www.w3.org/2000/svg">
  <!-- Background -->
  <rect x="0" y="0" width="512" height="512" fill="#e6f3ff"/>
  
  <!-- Stem -->
  <line x1="256" y1="340" x2="256" y2="480" stroke="#008000" stroke-width="8"/>
  
  <!-- Petals -->
  <ellipse cx="256" cy="196" rx="20" ry="70" fill="#ffffff" transform="rotate(0 256 256)"/>
  <ellipse cx="256" cy="196" rx="20" ry="70" fill="#ffffff" transform="rotate(30 256 256)"/>
  <ellipse cx="256" cy="196" rx="20" ry="70" fill="#ffffff" transform="rotate(60 256 256)"/>
  <ellipse cx="256" cy="196" rx="20" ry="70" fill="#ffffff" transform="rotate(90 256 256)"/>
  <ellipse cx="256" cy="196" rx="20" ry="70" fill="#ffffff" transform="rotate(120 256 256)"/>
  <ellipse cx="256" cy="196" rx="20" ry="70" fill="#ffffff" transform="rotate(150 256 256)"/>
  <ellipse cx="256" cy="196" rx="20" ry="70" fill="#ffffff" transform="rotate(180 256 256)"/>
  <ellipse cx="256" cy="196" rx="20" ry="70" fill="#ffffff" transform="rotate(210 256 256)"/>
  <ellipse cx="256" cy="196" rx="20" ry="70" fill="#ffffff" transform="rotate(240 256 256)"/>
  <ellipse cx="256" cy="196" rx="20" ry="70" fill="#ffffff" transform="rotate(270 256 256)"/>
  <ellipse cx="256" cy="196" rx="20" ry="70" fill="#ffffff" transform="rotate(300 256 256)"/>
  <ellipse cx="256" cy="196" rx="20" ry="70" fill="#ffffff" transform="rotate(330 256 256)"/>
  
  <!-- Flower center -->
  <circle cx="256" cy="256" r="60" fill="#ffff00"/>
</svg>