<svg xmlns="http://www.w3.org/2000/svg" viewBox="0 0 512 512" height="512.0px" width="512.0px">
<path id="" fill="#D32F2F" fill-opacity="1.0" stroke="#000000" stroke-width="0.0" stroke-opacity="1.0" stroke-linecap="round" stroke-linejoin="round"  filling="0" d="M166.000000 350.000000 C226.000000 350.000000 286.000000 350.000000 346.000000 350.000000 C348.651154 350.000000 351.196442 351.054291 353.071075 352.928925 C354.945709 354.803558 356.000000 357.348846 356.000000 360.000000 C356.000000 386.666656 356.000000 413.333344 356.000000 440.000000 C356.000000 442.651154 354.945709 445.196442 353.071075 447.071075 C351.196442 448.945709 348.651154 450.000000 346.000000 450.000000 C286.000000 450.000000 226.000000 450.000000 166.000000 450.000000 C163.348846 450.000000 160.803574 448.945709 158.928925 447.071075 C157.054276 445.196442 156.000000 442.651154 156.000000 440.000000 C156.000000 413.333344 156.000000 386.666656 156.000000 360.000000 C156.000000 357.348846 157.054276 354.803558 158.928925 352.928925 C160.803574 351.054291 163.348846 350.000000 166.000000 350.000000"></path>
<path id="" fill="#B71C1C" fill-opacity="1.0" stroke="#000000" stroke-width="0.0" stroke-opacity="1.0" stroke-linecap="round" stroke-linejoin="round"  filling="0" d="M156.000000 350.000000 C222.666672 363.333344 289.333313 363.333344 356.000000 350.000000 C356.000000 383.333344 356.000000 416.666656 356.000000 450.000000 C289.333313 436.666656 222.666672 436.666656 156.000000 450.000000 C156.000000 416.666656 156.000000 383.333344 156.000000 350.000000"></path>
<path id="" fill="#8B0000" fill-opacity="1.0" stroke="#000000" stroke-width="0.0" stroke-opacity="1.0" stroke-linecap="round" stroke-linejoin="round"  filling="0" d="M161.000000 440.000000 C224.333344 440.000000 287.666656 440.000000 351.000000 440.000000 C351.000000 443.333344 351.000000 446.666656 351.000000 450.000000 C287.666656 450.000000 224.333344 450.000000 161.000000 450.000000 C161.000000 446.666656 161.000000 443.333344 161.000000 440.000000"></path>
<path id="" fill="#5D4037" fill-opacity="1.0" stroke="#000000" stroke-width="0.0" stroke-opacity="1.0" stroke-linecap="round" stroke-linejoin="round"  filling="0" d="M249.035995 352.785004 C235.150665 318.071655 231.687332 283.319672 238.645996 248.529007 C245.215332 215.681000 248.500000 182.838013 248.500000 150.000000 C248.500000 149.752335 248.500000 149.504669 248.500000 149.257004 C248.548660 149.014343 248.597336 148.771667 248.645996 148.529007 C255.116013 116.176331 255.116013 83.823669 248.645996 51.471001 C253.548660 50.490334 258.451324 49.509666 263.354004 48.528999 C270.168671 82.599670 270.216980 116.669998 263.498993 150.740005 C263.450317 184.322006 260.068665 217.899002 253.354004 251.470993 C246.979340 283.346985 250.182663 315.261658 262.963989 347.214996 C258.321320 349.071655 253.678665 350.928345 249.035995 352.785004"></path>
<path id="" fill="#5D4037" fill-opacity="1.0" stroke="#000000" stroke-width="0.0" stroke-opacity="1.0" stroke-linecap="round" stroke-linejoin="round"  filling="0" d="M243.171997 252.828003 C230.905991 240.562668 212.171997 237.580322 186.970001 243.880997 C186.323334 241.293671 185.676666 238.706329 185.029999 236.119003 C213.161331 229.086334 234.427338 232.770676 248.828003 247.171997 C246.942673 249.057327 245.057327 250.942673 243.171997 252.828003"></path>
<path id="" fill="#5D4037" fill-opacity="1.0" stroke="#000000" stroke-width="0.0" stroke-opacity="1.0" stroke-linecap="round" stroke-linejoin="round"  filling="0" d="M253.781006 196.671997 C274.762329 182.684006 299.158661 179.166336 326.970001 186.119003 C326.323334 188.706329 325.676666 191.293671 325.029999 193.880997 C299.507324 187.500336 277.237000 190.649338 258.218994 203.328003 C256.739655 201.109329 255.260330 198.890671 253.781006 196.671997"></path>
<path id="" fill="#5D4037" fill-opacity="1.0" stroke="#000000" stroke-width="0.0" stroke-opacity="1.0" stroke-linecap="round" stroke-linejoin="round"  filling="0" d="M254.335999 152.496002 C235.445328 139.902664 216.554672 139.902664 197.664001 152.496002 C196.554672 150.832001 195.445328 149.167999 194.335999 147.503998 C215.445328 133.431335 236.554672 133.431335 257.664001 147.503998 C256.554657 149.167999 255.445328 150.832001 254.335999 152.496002"></path>
<path id="" fill="#1B5E20" fill-opacity="1.0" stroke="#000000" stroke-width="0.0" stroke-opacity="1.0" stroke-linecap="round" stroke-linejoin="round"  filling="0" d="M226.000000 240.000000 C226.000000 250.604584 221.782852 260.785706 214.284271 268.284271 C206.785690 275.782837 196.604584 280.000000 186.000000 280.000000 C175.395416 280.000000 165.214310 275.782837 157.715729 268.284271 C150.217148 260.785706 146.000000 250.604599 146.000000 240.000000 C146.000000 229.395416 150.217148 219.214310 157.715729 211.715729 C165.214310 204.217148 175.395401 200.000000 186.000000 200.000000 C196.604584 200.000000 206.785690 204.217148 214.284271 211.715729 C221.782852 219.214310 226.000000 229.395401 226.000000 240.000000"></path>
<path id="" fill="#2E7D32" fill-opacity="1.0" stroke="#000000" stroke-width="0.0" stroke-opacity="1.0" stroke-linecap="round" stroke-linejoin="round"  filling="0" d="M316.000000 80.000000 C316.000000 95.906883 309.674255 111.178543 298.426392 122.426407 C287.178528 133.674271 271.906891 140.000000 256.000000 140.000000 C240.093109 140.000000 224.821457 133.674271 213.573593 122.426407 C202.325729 111.178535 196.000000 95.906883 196.000000 79.999992 C196.000000 64.093109 202.325729 48.821465 213.573593 37.573597 C224.821457 26.325726 240.093109 20.000000 256.000000 20.000000 C271.906891 20.000000 287.178528 26.325722 298.426392 37.573586 C309.674255 48.821457 316.000000 64.093117 316.000000 80.000008"></path>
<path id="" fill="#388E3C" fill-opacity="1.0" stroke="#000000" stroke-width="0.0" stroke-opacity="1.0" stroke-linecap="round" stroke-linejoin="round"  filling="0" d="M376.000000 190.000000 C376.000000 203.255737 370.728577 215.982117 361.355347 225.355347 C351.982117 234.728577 339.255737 240.000000 326.000000 240.000000 C312.744263 240.000000 300.017883 234.728577 290.644653 225.355347 C281.271423 215.982117 276.000000 203.255737 276.000000 190.000000 C276.000000 176.744263 281.271423 164.017883 290.644653 154.644669 C300.017883 145.271439 312.744263 140.000000 326.000000 140.000000 C339.255737 140.000000 351.982117 145.271439 361.355347 154.644653 C370.728577 164.017883 376.000000 176.744278 376.000000 190.000015"></path>
<path id="" fill="#43A047" fill-opacity="1.0" stroke="#000000" stroke-width="0.0" stroke-opacity="1.0" stroke-linecap="round" stroke-linejoin="round"  filling="0" d="M241.000000 150.000000 C241.000000 161.930161 236.255707 173.383911 227.819809 181.819809 C219.383911 190.255707 207.930161 195.000000 196.000000 195.000000 C184.069839 195.000000 172.616089 190.255707 164.180191 181.819809 C155.744293 173.383911 151.000000 161.930161 151.000000 150.000000 C151.000000 138.069839 155.744293 126.616096 164.180191 118.180199 C172.616089 109.744293 184.069839 105.000000 196.000000 105.000000 C207.930161 105.000000 219.383896 109.744293 227.819794 118.180191 C236.255707 126.616089 241.000000 138.069839 241.000000 150.000015"></path>
<path id="" fill="#4CAF50" fill-opacity="1.0" stroke="#000000" stroke-width="0.0" stroke-opacity="1.0" stroke-linecap="round" stroke-linejoin="round"  filling="0" d="M346.000000 110.000000 C346.000000 120.604591 341.782837 130.785690 334.284271 138.284271 C326.785706 145.782852 316.604584 150.000000 306.000000 150.000000 C295.395416 150.000000 285.214294 145.782852 277.715729 138.284271 C270.217163 130.785690 266.000000 120.604591 266.000000 110.000000 C266.000000 99.395409 270.217163 89.214310 277.715729 81.715729 C285.214294 74.217148 295.395416 70.000000 306.000000 70.000000 C316.604584 70.000000 326.785706 74.217155 334.284271 81.715729 C341.782867 89.214310 346.000000 99.395416 346.000000 110.000008"></path>
<path id="" fill="#66BB6A" fill-opacity="1.0" stroke="#000000" stroke-width="0.0" stroke-opacity="1.0" stroke-linecap="round" stroke-linejoin="round"  filling="0" d="M251.000000 170.000000 C251.000000 176.627869 248.364288 182.991058 243.677673 187.677673 C238.991058 192.364288 232.627869 195.000000 226.000000 195.000000 C219.372131 195.000000 213.008942 192.364288 208.322327 187.677673 C203.635712 182.991058 201.000000 176.627869 201.000000 170.000000 C201.000000 163.372131 203.635712 157.008942 208.322327 152.322327 C213.008942 147.635712 219.372131 145.000000 226.000000 145.000000 C232.627869 145.000000 238.991058 147.635712 243.677673 152.322327 C248.364288 157.008942 251.000000 163.372131 251.000000 170.000000"></path>
<path id="" fill="#81C784" fill-opacity="1.0" stroke="#000000" stroke-width="0.0" stroke-opacity="1.0" stroke-linecap="round" stroke-linejoin="round"  filling="0" d="M316.000000 150.000000 C316.000000 157.953445 312.837128 165.589264 307.213196 171.213196 C301.589264 176.837128 293.953430 180.000000 286.000000 180.000000 C278.046570 180.000000 270.410736 176.837128 264.786804 171.213196 C259.162872 165.589264 256.000000 157.953445 256.000000 150.000000 C256.000000 142.046555 259.162872 134.410736 264.786804 128.786804 C270.410736 123.162872 278.046570 120.000000 286.000000 120.000000 C293.953430 120.000000 301.589264 123.162857 307.213196 128.786789 C312.837128 134.410721 316.000000 142.046555 316.000000 150.000000"></path>
<path id="" fill="#A5D6A7" fill-opacity="1.0" stroke="#000000" stroke-width="0.0" stroke-opacity="1.0" stroke-linecap="round" stroke-linejoin="round"  filling="0" d="M266.000000 210.000000 C266.000000 215.302292 263.891449 220.392853 260.142151 224.142136 C256.392853 227.891418 251.302292 230.000000 246.000000 230.000000 C240.697708 230.000000 235.607147 227.891418 231.857864 224.142136 C228.108582 220.392853 226.000000 215.302292 226.000000 210.000000 C226.000000 204.697708 228.108582 199.607147 231.857864 195.857864 C235.607147 192.108582 240.697708 190.000000 246.000000 190.000000 C251.302292 190.000000 256.392822 192.108582 260.142120 195.857864 C263.891418 199.607147 266.000000 204.697708 266.000000 210.000000"></path>
<path id="" fill="#C8E6C9" fill-opacity="1.0" stroke="#000000" stroke-width="0.0" stroke-opacity="1.0" stroke-linecap="round" stroke-linejoin="round"  filling="0" d="M291.000000 70.000000 C291.000000 73.976723 289.418579 77.794632 286.606598 80.606598 C283.794617 83.418564 279.976715 85.000000 276.000000 85.000000 C272.023285 85.000000 268.205383 83.418564 265.393402 80.606598 C262.581421 77.794632 261.000000 73.976723 261.000000 70.000000 C261.000000 66.023277 262.581421 62.205364 265.393402 59.393398 C268.205383 56.581432 272.023285 55.000000 276.000000 55.000000 C279.976715 55.000000 283.794617 56.581429 286.606598 59.393394 C289.418579 62.205360 291.000000 66.023277 291.000000 70.000000"></path>
</svg>