<svg xmlns="http://www.w3.org/2000/svg" viewBox="0 0 512 512" height="512.0px" width="512.0px">
<path id="" fill="#D32F2F" fill-opacity="1.0" stroke="#000000" stroke-width="0.0" stroke-opacity="1.0" stroke-linecap="round" stroke-linejoin="round"  filling="0" d="M166.000 350.000 C226.000 350.000 286.000 350.000 346.000 350.000 C348.651 350.000 351.196 351.054 353.071 352.929 C354.946 354.804 356.000 357.349 356.000 360.000 C356.000 386.667 356.000 413.333 356.000 440.000 C356.000 442.651 354.946 445.196 353.071 447.071 C351.196 448.946 348.651 450.000 346.000 450.000 C286.000 450.000 226.000 450.000 166.000 450.000 C163.349 450.000 160.804 448.946 158.929 447.071 C157.054 445.196 156.000 442.651 156.000 440.000 C156.000 413.333 156.000 386.667 156.000 360.000 C156.000 357.349 157.054 354.804 158.929 352.929 C160.804 351.054 163.349 350.000 166.000 350.000"></path>
<path id="" fill="#8B0000" fill-opacity="1.0" stroke="#000000" stroke-width="0.0" stroke-opacity="1.0" stroke-linecap="round" stroke-linejoin="round"  filling="0" d="M161.000 440.000 C224.333 440.000 287.667 440.000 351.000 440.000 C351.000 443.333 351.000 446.667 351.000 450.000 C287.667 450.000 224.333 450.000 161.000 450.000 C161.000 446.667 161.000 443.333 161.000 440.000"></path>
<path id="" fill="#5D4037" fill-opacity="1.0" stroke="#000000" stroke-width="0.0" stroke-opacity="1.0" stroke-linecap="round" stroke-linejoin="round"  filling="0" d="M249.036 352.785 C235.151 318.072 231.687 283.320 238.646 248.529 C245.215 215.681 248.500 182.838 248.500 150.000 C248.500 149.752 248.500 149.505 248.500 149.257 C248.549 149.014 248.597 148.772 248.646 148.529 C255.116 116.176 255.116 83.824 248.646 51.471 C253.549 50.490 258.451 49.510 263.354 48.529 C270.169 82.600 270.217 116.670 263.499 150.740 C263.450 184.322 260.069 217.899 253.354 251.471 C246.979 283.347 250.183 315.262 262.964 347.215 C258.321 349.072 253.679 350.928 249.036 352.785"></path>
<path id="" fill="#5D4037" fill-opacity="1.0" stroke="#000000" stroke-width="0.0" stroke-opacity="1.0" stroke-linecap="round" stroke-linejoin="round"  filling="0" d="M243.172 252.828 C230.906 240.563 212.172 237.580 186.970 243.881 C186.323 241.294 185.677 238.706 185.030 236.119 C213.161 229.086 234.427 232.771 248.828 247.172 C246.943 249.057 245.057 250.943 243.172 252.828"></path>
<path id="" fill="#5D4037" fill-opacity="1.0" stroke="#000000" stroke-width="0.0" stroke-opacity="1.0" stroke-linecap="round" stroke-linejoin="round"  filling="0" d="M253.781 196.672 C274.762 182.684 299.159 179.166 326.970 186.119 C326.323 188.706 325.677 191.294 325.030 193.881 C299.507 187.500 277.237 190.649 258.219 203.328 C256.740 201.109 255.260 198.891 253.781 196.672"></path>
<path id="" fill="#5D4037" fill-opacity="1.0" stroke="#000000" stroke-width="0.0" stroke-opacity="1.0" stroke-linecap="round" stroke-linejoin="round"  filling="0" d="M254.336 152.496 C235.445 139.903 216.555 139.903 197.664 152.496 C196.555 150.832 195.445 149.168 194.336 147.504 C215.445 133.431 236.555 133.431 257.664 147.504 C256.555 149.168 255.445 150.832 254.336 152.496"></path>
<path id="" fill="#1B5E20" fill-opacity="1.0" stroke="#000000" stroke-width="0.0" stroke-opacity="1.0" stroke-linecap="round" stroke-linejoin="round"  filling="0" d="M226.000 240.000 C226.000 250.605 221.783 260.786 214.284 268.284 C206.786 275.783 196.605 280.000 186.000 280.000 C175.395 280.000 165.214 275.783 157.716 268.284 C150.217 260.786 146.000 250.605 146.000 240.000 C146.000 229.395 150.217 219.214 157.716 211.716 C165.214 204.217 175.395 200.000 186.000 200.000 C196.605 200.000 206.786 204.217 214.284 211.716 C221.783 219.214 226.000 229.395 226.000 240.000"></path>
<path id="" fill="#2E7D32" fill-opacity="1.0" stroke="#000000" stroke-width="0.0" stroke-opacity="1.0" stroke-linecap="round" stroke-linejoin="round"  filling="0" d="M316.000 80.000 C316.000 95.907 309.674 111.179 298.426 122.426 C287.179 133.674 271.907 140.000 256.000 140.000 C240.093 140.000 224.821 133.674 213.574 122.426 C202.326 111.179 196.000 95.907 196.000 80.000 C196.000 64.093 202.326 48.821 213.574 37.574 C224.821 26.326 240.093 20.000 256.000 20.000 C271.907 20.000 287.179 26.326 298.426 37.574 C309.674 48.821 316.000 64.093 316.000 80.000"></path>
<path id="" fill="#388E3C" fill-opacity="1.0" stroke="#000000" stroke-width="0.0" stroke-opacity="1.0" stroke-linecap="round" stroke-linejoin="round"  filling="0" d="M376.000 190.000 C376.000 203.256 370.729 215.982 361.355 225.355 C351.982 234.729 339.256 240.000 326.000 240.000 C312.744 240.000 300.018 234.729 290.645 225.355 C281.271 215.982 276.000 203.256 276.000 190.000 C276.000 176.744 281.271 164.018 290.645 154.645 C300.018 145.271 312.744 140.000 326.000 140.000 C339.256 140.000 351.982 145.271 361.355 154.645 C370.729 164.018 376.000 176.744 376.000 190.000"></path>
<path id="" fill="#43A047" fill-opacity="1.0" stroke="#000000" stroke-width="0.0" stroke-opacity="1.0" stroke-linecap="round" stroke-linejoin="round"  filling="0" d="M241.000 150.000 C241.000 161.930 236.256 173.384 227.820 181.820 C219.384 190.256 207.930 195.000 196.000 195.000 C184.070 195.000 172.616 190.256 164.180 181.820 C155.744 173.384 151.000 161.930 151.000 150.000 C151.000 138.070 155.744 126.616 164.180 118.180 C172.616 109.744 184.070 105.000 196.000 105.000 C207.930 105.000 219.384 109.744 227.820 118.180 C236.256 126.616 241.000 138.070 241.000 150.000"></path>
<path id="" fill="#4CAF50" fill-opacity="1.0" stroke="#000000" stroke-width="0.0" stroke-opacity="1.0" stroke-linecap="round" stroke-linejoin="round"  filling="0" d="M346.000 110.000 C346.000 120.605 341.783 130.786 334.284 138.284 C326.786 145.783 316.605 150.000 306.000 150.000 C295.395 150.000 285.214 145.783 277.716 138.284 C270.217 130.786 266.000 120.605 266.000 110.000 C266.000 99.395 270.217 89.214 277.716 81.716 C285.214 74.217 295.395 70.000 306.000 70.000 C316.605 70.000 326.786 74.217 334.284 81.716 C341.783 89.214 346.000 99.395 346.000 110.000"></path>
<path id="" fill="#66BB6A" fill-opacity="1.0" stroke="#000000" stroke-width="0.0" stroke-opacity="1.0" stroke-linecap="round" stroke-linejoin="round"  filling="0" d="M251.000 170.000 C251.000 176.628 248.364 182.991 243.678 187.678 C238.991 192.364 232.628 195.000 226.000 195.000 C219.372 195.000 213.009 192.364 208.322 187.678 C203.636 182.991 201.000 176.628 201.000 170.000 C201.000 163.372 203.636 157.009 208.322 152.322 C213.009 147.636 219.372 145.000 226.000 145.000 C232.628 145.000 238.991 147.636 243.678 152.322 C248.364 157.009 251.000 163.372 251.000 170.000"></path>
<path id="" fill="#81C784" fill-opacity="1.0" stroke="#000000" stroke-width="0.0" stroke-opacity="1.0" stroke-linecap="round" stroke-linejoin="round"  filling="0" d="M316.000 150.000 C316.000 157.953 312.837 165.589 307.213 171.213 C301.589 176.837 293.953 180.000 286.000 180.000 C278.047 180.000 270.411 176.837 264.787 171.213 C259.163 165.589 256.000 157.953 256.000 150.000 C256.000 142.047 259.163 134.411 264.787 128.787 C270.411 123.163 278.047 120.000 286.000 120.000 C293.953 120.000 301.589 123.163 307.213 128.787 C312.837 134.411 316.000 142.047 316.000 150.000"></path>
<path id="" fill="#A5D6A7" fill-opacity="1.0" stroke="#000000" stroke-width="0.0" stroke-opacity="1.0" stroke-linecap="round" stroke-linejoin="round"  filling="0" d="M266.000 210.000 C266.000 215.302 263.891 220.393 260.142 224.142 C256.393 227.891 251.302 230.000 246.000 230.000 C240.698 230.000 235.607 227.891 231.858 224.142 C228.109 220.393 226.000 215.302 226.000 210.000 C226.000 204.698 228.109 199.607 231.858 195.858 C235.607 192.109 240.698 190.000 246.000 190.000 C251.302 190.000 256.393 192.109 260.142 195.858 C263.891 199.607 266.000 204.698 266.000 210.000"></path>
<path id="" fill="#C8E6C9" fill-opacity="1.0" stroke="#000000" stroke-width="0.0" stroke-opacity="1.0" stroke-linecap="round" stroke-linejoin="round"  filling="0" d="M291.000 70.000 C291.000 73.977 289.419 77.795 286.607 80.607 C283.795 83.419 279.977 85.000 276.000 85.000 C272.023 85.000 268.205 83.419 265.393 80.607 C262.581 77.795 261.000 73.977 261.000 70.000 C261.000 66.023 262.581 62.205 265.393 59.393 C268.205 56.581 272.023 55.000 276.000 55.000 C279.977 55.000 283.795 56.581 286.607 59.393 C289.419 62.205 291.000 66.023 291.000 70.000"></path>
<path id="" fill="#ded1aa" fill-opacity="1.0" stroke="#000000" stroke-width="0.0" stroke-opacity="1.0" stroke-linecap="round" stroke-linejoin="round"  filling="0" d="M232.500 345.000 C232.500 345.667 232.500 346.333 232.500 347.000 C231.667 347.833 230.833 348.667 230.000 349.500 C227.000 349.500 224.000 349.500 221.000 349.500 C220.667 349.833 220.333 350.167 220.000 350.500 C208.000 350.500 196.000 350.500 184.000 350.500 C183.500 350.000 183.000 349.500 182.500 349.000 C182.500 348.000 182.500 347.000 182.500 346.000 C182.833 345.667 183.167 345.333 183.500 345.000 C183.500 344.667 183.500 344.333 183.500 344.000 C184.167 343.333 184.833 342.667 185.500 342.000 C185.500 341.667 185.500 341.333 185.500 341.000 C188.000 338.500 190.500 336.000 193.000 333.500 C193.333 333.500 193.667 333.500 194.000 333.500 C194.667 332.833 195.333 332.167 196.000 331.500 C196.333 331.500 196.667 331.500 197.000 331.500 C197.333 331.167 197.667 330.833 198.000 330.500 C198.667 330.500 199.333 330.500 200.000 330.500 C200.333 330.167 200.667 329.833 201.000 329.500 C205.000 329.500 209.000 329.500 213.000 329.500 C213.333 329.833 213.667 330.167 214.000 330.500 C214.667 330.500 215.333 330.500 216.000 330.500 C216.333 330.833 216.667 331.167 217.000 331.500 C217.333 331.500 217.667 331.500 218.000 331.500 C218.333 331.833 218.667 332.167 219.000 332.500 C219.333 332.500 219.667 332.500 220.000 332.500 C220.333 332.833 220.667 333.167 221.000 333.500 C221.333 333.500 221.667 333.500 222.000 333.500 C222.667 334.167 223.333 334.833 224.000 335.500 C224.333 335.500 224.667 335.500 225.000 335.500 C225.167 335.667 225.333 335.833 225.500 336.000 C225.500 336.333 225.500 336.667 225.500 337.000 C227.500 339.000 229.500 341.000 231.500 343.000 C231.500 343.333 231.500 343.667 231.500 344.000 C231.833 344.333 232.167 344.667 232.500 345.000"></path>
<path id="" fill="#dacd9f" fill-opacity="1.0" stroke="#000000" stroke-width="0.0" stroke-opacity="1.0" stroke-linecap="round" stroke-linejoin="round"  filling="0" d="M298.500 349.000 C298.000 349.500 297.500 350.000 297.000 350.500 C281.333 350.500 265.667 350.500 250.000 350.500 C249.500 350.000 249.000 349.500 248.500 349.000 C248.500 348.667 248.500 348.333 248.500 348.000 C249.333 347.167 250.167 346.333 251.000 345.500 C251.333 345.500 251.667 345.500 252.000 345.500 C252.500 345.000 253.000 344.500 253.500 344.000 C253.500 343.667 253.500 343.333 253.500 343.000 C255.667 340.833 257.833 338.667 260.000 336.500 C260.333 336.500 260.667 336.500 261.000 336.500 C261.667 335.833 262.333 335.167 263.000 334.500 C263.667 334.500 264.333 334.500 265.000 334.500 C265.333 334.167 265.667 333.833 266.000 333.500 C266.333 333.500 266.667 333.500 267.000 333.500 C267.333 333.167 267.667 332.833 268.000 332.500 C269.000 332.500 270.000 332.500 271.000 332.500 C271.333 332.167 271.667 331.833 272.000 331.500 C274.333 331.500 276.667 331.500 279.000 331.500 C279.333 331.833 279.667 332.167 280.000 332.500 C280.667 332.500 281.333 332.500 282.000 332.500 C282.333 332.833 282.667 333.167 283.000 333.500 C283.667 333.500 284.333 333.500 285.000 333.500 C285.333 333.833 285.667 334.167 286.000 334.500 C286.333 334.500 286.667 334.500 287.000 334.500 C289.500 337.000 292.000 339.500 294.500 342.000 C294.500 342.333 294.500 342.667 294.500 343.000 C295.500 344.000 296.500 345.000 297.500 346.000 C297.500 346.333 297.500 346.667 297.500 347.000 C297.833 347.333 298.167 347.667 298.500 348.000 C298.500 348.333 298.500 348.667 298.500 349.000"></path>
<path id="" fill="#efeace" fill-opacity="1.0" stroke="#000000" stroke-width="0.0" stroke-opacity="1.0" stroke-linecap="round" stroke-linejoin="round"  filling="0" d="M338.500 348.000 C338.500 348.667 338.500 349.333 338.500 350.000 C338.333 350.167 338.167 350.333 338.000 350.500 C332.000 350.500 326.000 350.500 320.000 350.500 C319.833 350.333 319.667 350.167 319.500 350.000 C319.500 349.667 319.500 349.333 319.500 349.000 C320.000 348.500 320.500 348.000 321.000 347.500 C321.333 347.500 321.667 347.500 322.000 347.500 C322.333 347.167 322.667 346.833 323.000 346.500 C323.333 346.500 323.667 346.500 324.000 346.500 C324.333 346.167 324.667 345.833 325.000 345.500 C328.333 345.500 331.667 345.500 335.000 345.500 C335.333 345.833 335.667 346.167 336.000 346.500 C336.333 346.500 336.667 346.500 337.000 346.500 C337.500 347.000 338.000 347.500 338.500 348.000"></path>
<path id="" fill="#c7b89d" fill-opacity="1.0" stroke="#000000" stroke-width="0.0" stroke-opacity="1.0" stroke-linecap="round" stroke-linejoin="round"  filling="0" d="M316.500 349.000 C316.000 349.500 315.500 350.000 315.000 350.500 C310.333 350.500 305.667 350.500 301.000 350.500 C300.833 350.333 300.667 350.167 300.500 350.000 C300.500 349.333 300.500 348.667 300.500 348.000 C301.000 347.500 301.500 347.000 302.000 346.500 C302.333 346.500 302.667 346.500 303.000 346.500 C303.333 346.167 303.667 345.833 304.000 345.500 C306.333 345.500 308.667 345.500 311.000 345.500 C311.333 345.833 311.667 346.167 312.000 346.500 C312.333 346.500 312.667 346.500 313.000 346.500 C313.333 346.833 313.667 347.167 314.000 347.500 C314.333 347.500 314.667 347.500 315.000 347.500 C315.500 348.000 316.000 348.500 316.500 349.000"></path>
</svg>