<?xml version="1.0" ?>
<svg xmlns="http://www.w3.org/2000/svg" version="1.1" width="256" height="256" viewBox="0 0 256 256">
  <defs/>
  <g>
    <path d="M 175.93829346 218.66047668 C 173.41378784 225.62974548 162.87023926 222.34449768 150.77691650 222.10285950 C 139.68615723 221.90484619 131.21244812 222.83296204 120.39201355 222.43392944 C 110.41187286 223.54338074 100.69078827 222.85650635 90.95855713 222.80096436 C 75.43711090 223.39900208 77.22172546 220.68011475 76.77922058 207.24838257 C 78.04354095 199.23782349 75.41952515 186.09712219 77.84384155 177.26599121 C 85.62239075 174.29428101 88.23803711 175.06271362 99.29795837 173.92871094 C 112.61489868 173.56051636 117.14120483 174.26696777 128.98416138 173.90303040 C 139.60908508 173.87930298 148.79840088 175.56973267 158.10362244 175.21011353 C 173.40139771 176.89376831 178.16310120 173.00402832 176.37927246 185.92564392 C 175.68859863 199.17416382 176.92373657 208.36618042 175.93829346 218.66047668" stroke-width="1.37189829" fill="rgb(174, 83, 40)" opacity="1.0" stroke="rgb(36, 10, 0)" stroke-opacity="0.76298976" stroke-linecap="round" stroke-linejoin="round"/>
    <path d="M 164.05920410 224.04559326 C 157.18150330 224.47232056 153.61090088 224.10304260 144.83807373 224.27879333 C 137.07521057 224.03073120 132.32385254 224.51091003 123.93325043 224.11802673 C 117.33255005 224.34956360 112.04808044 224.52261353 103.18081665 224.17062378 C 96.09219360 223.73741150 89.13241577 224.84658813 80.76624298 223.97210693 C 75.73028564 217.39303589 82.99015808 220.56057739 91.04042053 220.76713562 C 100.23505402 220.92088318 102.57695007 221.29255676 108.35546875 220.78596497 C 116.42427063 220.56809998 120.77085114 220.87631226 126.68897247 221.02891541 C 134.73643494 220.14527893 137.93455505 221.21499634 146.54914856 220.82638550 C 154.32038879 221.53671265 160.31906128 220.25939941 167.98425293 220.57836914 C 176.34078979 221.40484619 176.85998535 225.56535339 164.05920410 224.04559326" stroke-width="0.56716156" fill="rgb(132, 64, 34)" opacity="1.0" stroke="rgb(144, 98, 78)" stroke-opacity="0.5461527" stroke-linecap="round" stroke-linejoin="round"/>
    <path d="M 123.96577454 138.97106934 C 123.55870056 147.76971436 124.69926453 155.41091919 127.71828461 167.99835205 C 126.68103027 181.92481995 120.70189667 171.51809692 119.42307281 159.39819336 C 117.04045105 149.43533325 117.92094421 139.11593628 118.85124969 128.95941162 C 121.45757294 117.49324799 123.21183777 113.24938965 123.60242462 100.83219147 C 122.68505859 91.25683594 121.55364990 83.83731079 124.29445648 70.58869171 C 129.05667114 60.57498932 132.39584351 58.58909225 130.64140320 49.21081161 C 126.55530548 30.25917053 134.15155029 37.48201752 137.29643250 51.25257874 C 138.01158142 61.30746460 134.39097595 65.86718750 131.01524353 76.64021301 C 129.65928650 90.24040222 130.51295471 97.60746002 128.50654602 107.35138702 C 127.03514099 118.75197601 124.39395905 123.97856140 123.96577454 138.97106934" stroke-width="0.33715665" fill="rgb(114, 59, 36)" opacity="1.0" stroke="rgb(0, 11, 0)" stroke-opacity="0.38896707" stroke-linecap="round" stroke-linejoin="round"/>
    <path d="M 104.27162933 118.11106873 C 105.78230286 117.67000580 106.87153625 117.31111908 108.23512268 116.54360199 C 109.71411896 115.79574585 111.09140015 116.05921936 112.29119873 117.01327515 C 113.37087250 117.91633606 114.80546570 118.05877686 116.54003143 118.61045074 C 118.51665497 118.90532684 119.63552856 119.15853119 121.00909424 119.88342285 C 122.35330200 121.09848022 122.51502228 122.82455444 121.14366913 123.21796417 C 119.53190613 123.23177338 118.77188110 122.21679688 118.23517609 122.14118958 C 116.61811066 121.92758179 115.50290680 121.40672302 113.82027435 120.92372131 C 112.23419189 120.41065216 111.33244324 119.59427643 109.37351227 119.98419952 C 107.96875000 120.35597992 106.51473236 121.04743195 104.96109009 120.55943298 C 103.28367615 119.67104340 102.24575806 118.94863129 104.27162933 118.11106873" stroke-width="0.55525702" fill="rgb(92, 53, 34)" opacity="1.0" stroke="rgb(61, 61, 51)" stroke-opacity="0.21508631" stroke-linecap="round" stroke-linejoin="round"/>
    <path d="M 146.11109924 96.26565552 C 144.81306458 96.19403839 143.70637512 96.12733459 141.45571899 96.19792175 C 139.82066345 96.26167297 138.54808044 95.95298004 136.36622620 96.31684875 C 134.66798401 96.85874939 134.07614136 97.84638977 132.40913391 98.69087219 C 131.09107971 98.25735474 129.67518616 97.80655670 130.10520935 96.57611847 C 131.70750427 95.35356903 133.38330078 94.52911377 134.66595459 94.18135071 C 137.51638794 93.30227661 137.15168762 93.53292084 139.03912354 92.71562195 C 141.80912781 92.09898376 141.37117004 92.05030060 144.51663208 92.18976593 C 146.47106934 92.39062500 147.84698486 92.52957153 149.53532410 92.99777222 C 150.98602295 93.32098389 153.51550293 94.36449432 152.01033020 96.29891968 C 150.23307800 97.03043365 149.00674438 96.75588989 146.11109924 96.26565552" stroke-width="0.26569986" fill="rgb(94, 39, 23)" opacity="1.0" stroke="rgb(19, 13, 6)" stroke-opacity="0.4192524" stroke-linecap="round" stroke-linejoin="round"/>
    <path d="M 117.64905548 68.72300720 C 115.63442993 68.78220367 114.96809387 68.63950348 112.49822235 69.54277039 C 110.38114166 70.48165131 109.43004608 70.80274200 107.23054504 71.62045288 C 105.11091614 72.69245148 104.20693207 73.48376465 104.26982880 71.20654297 C 104.57367706 68.73444366 104.26583862 67.85894775 105.58277893 67.05554962 C 107.37443542 65.63109589 108.50724030 65.54627228 110.65078735 65.12500763 C 113.85592651 64.98820496 113.75267792 65.34368896 115.33901215 64.73697662 C 117.77983093 63.77519226 118.66683197 64.18437958 120.78599548 65.74982452 C 122.66847229 66.84503937 122.44992065 67.58032990 124.77297974 68.68022156 C 127.09202576 70.02193451 127.14260101 71.78014374 124.29661560 70.86395264 C 121.70194244 70.20362091 120.19802094 69.09517670 117.64905548 68.72300720" stroke-width="0.69766486" fill="rgb(65, 36, 27)" opacity="1.0" stroke="rgb(0, 0, 0)" stroke-opacity="0.37676588" stroke-linecap="round" stroke-linejoin="round"/>
    <path d="M 86.66507721 138.10971069 C 82.36780548 136.63821411 80.80413818 135.94680786 77.21598053 132.04653931 C 74.85527802 129.03497314 72.78506470 124.96028900 72.93275452 120.03439331 C 72.96246338 116.48985291 72.96973419 113.02463531 76.07244873 108.33184814 C 77.35271454 105.76251221 81.25484467 102.53291321 85.53020477 101.01800537 C 89.18688202 99.80038452 93.86784363 99.24307251 98.54203796 101.12393188 C 102.19976807 102.88314056 103.96589661 103.18736267 106.65010834 106.14949036 C 110.16709900 109.35415649 111.89445496 113.71971130 111.93248749 117.11410522 C 111.86165619 122.30470276 111.07381439 125.74781799 108.96331787 129.45671082 C 105.53105927 133.65057373 104.18791199 134.88011169 100.30766296 136.93217468 C 95.00775909 139.10438538 91.02646637 138.66632080 86.66507721 138.10971069" stroke-width="0.24809460" fill="rgb(39, 89, 33)" opacity="1.0" stroke="rgb(6, 0, 13)" stroke-opacity="0.4521712" stroke-linecap="round" stroke-linejoin="round"/>
    <path d="M 111.15254211 62.99296188 C 107.84210205 61.60156631 105.44258118 57.50715256 101.60681152 51.06536865 C 99.40500641 45.50778961 97.75129700 42.01937103 98.43794250 35.65163803 C 99.81217957 28.67259979 102.68691254 22.77492142 106.18986511 20.06948471 C 112.71867371 14.10547066 117.38214111 13.43344879 122.46466064 12.30715752 C 129.56105042 11.40120316 135.39103699 12.60030556 141.17294312 15.50642395 C 149.37185669 21.51436615 147.55157471 19.40928841 151.61054993 25.77143478 C 154.57464600 32.14080429 154.88618469 38.41329956 154.53474426 44.07430649 C 153.33387756 51.15713120 151.36022949 57.31534576 147.42398071 59.89796448 C 143.37565613 62.39421844 137.08149719 62.69554138 130.40951538 64.08994293 C 124.46122742 64.58184052 119.09046936 66.31781006 111.15254211 62.99296188" stroke-width="1.29489255" fill="rgb(55, 136, 38)" opacity="1.0" stroke="rgb(19, 50, 14)" stroke-opacity="0.8876896" stroke-linecap="round" stroke-linejoin="round"/>
    <path d="M 164.12800598 117.13398743 C 161.13859558 117.69189453 155.04269409 116.97150421 150.62586975 114.44030762 C 146.81655884 112.65847015 143.00543213 108.63949585 141.06985474 103.63388062 C 139.57507324 100.12892151 138.70483398 94.52658081 140.26992798 89.45217896 C 140.84405518 85.54463196 143.41062927 80.39334106 147.32072449 76.74211884 C 151.57035828 73.28160858 155.73077393 71.41310883 161.27796936 71.29101562 C 166.53245544 71.50511932 169.01963806 71.32142639 173.46545410 74.01567841 C 176.57466125 75.63584900 180.09329224 78.15895844 183.65020752 84.45805359 C 184.87774658 87.12582397 186.52529907 93.49826813 185.36656189 98.46119690 C 184.80039978 102.76618195 181.89862061 107.97419739 178.25096130 111.40454865 C 174.22221375 114.83121490 170.49069214 116.43582153 164.12800598 117.13398743" stroke-width="1.23664606" fill="rgb(70, 144, 47)" opacity="1.0" stroke="rgb(4, 32, 0)" stroke-opacity="0.811461" stroke-linecap="round" stroke-linejoin="round"/>
    <path d="M 113.95615387 79.98915100 C 111.70812988 84.42128754 111.51528931 84.96422577 107.17957306 90.64405823 C 105.06047058 92.98384094 101.48553467 95.66113281 95.92361450 95.14054108 C 92.08350372 95.01142883 88.04678345 94.33801270 83.93199158 91.23762512 C 79.33581543 87.61637878 77.85314941 84.07878876 76.61083984 80.74167633 C 75.39900208 74.94500732 76.08954620 70.48997498 77.22098541 67.29504395 C 81.22898102 59.88408279 79.89862823 61.81565094 83.44707489 58.13078690 C 86.95130920 54.94464111 91.67536926 53.32959747 96.18076324 52.84739685 C 101.46166229 52.69700623 105.73075104 53.01229095 109.18943787 55.58826447 C 112.15947723 57.20942307 116.17500305 62.26023483 116.80427551 65.80294800 C 117.82727814 71.25803375 115.35926056 73.60269928 113.95615387 79.98915100" stroke-width="1.22773635" fill="rgb(76, 164, 59)" opacity="1.0" stroke="rgb(27, 58, 24)" stroke-opacity="0.9019952" stroke-linecap="round" stroke-linejoin="round"/>
    <path d="M 164.47659302 68.96136475 C 161.98554993 70.98222351 157.86592102 69.87496948 153.29257202 70.25009918 C 149.97311401 70.43442535 146.11476135 72.69990540 142.70291138 70.73957062 C 138.52142334 68.53857422 135.12516785 66.23725128 133.77532959 63.38161469 C 131.86117554 59.87567902 131.60844421 54.68422318 131.63253784 50.76607895 C 132.41558838 46.32962036 133.86183167 42.85791016 136.91780090 39.50152969 C 142.93447876 35.75243378 141.47293091 36.01261520 145.96771240 35.27728653 C 150.27410889 34.46657562 154.52572632 34.88292694 158.96791077 36.85204315 C 163.35728455 39.07616806 166.32922363 42.66246796 167.76324463 44.99803925 C 170.13459778 49.63707733 170.54006958 53.66481781 170.05702209 57.37684250 C 169.45643616 61.64196777 166.90679932 66.82044220 164.47659302 68.96136475" stroke-width="1.17422235" fill="rgb(96, 173, 64)" opacity="1.0" stroke="rgb(29, 67, 20)" stroke-opacity="0.84087986" stroke-linecap="round" stroke-linejoin="round"/>
    <path d="M 124.80589294 83.12358093 C 124.48765564 84.94448853 124.00503540 87.56077576 123.00528717 90.46478271 C 121.47819519 92.75521851 119.59136963 91.74294281 117.69429016 93.14714813 C 115.14559174 94.63159180 111.85251617 94.54891205 109.94536591 94.25776672 C 106.24184418 93.40523529 104.38441467 92.92655945 103.37322235 90.95785522 C 101.60074615 88.88589478 100.28541565 86.40673828 100.22840881 83.42879486 C 100.55062103 78.82949066 100.43321228 79.74790192 101.48916626 77.19660187 C 103.05791473 74.25190735 105.17794800 72.62960815 107.64703369 71.56527710 C 111.73761749 70.61517334 113.52074432 70.64495087 115.79667664 71.21134949 C 118.63217163 71.96208954 120.10095215 74.18556213 121.33323669 75.91738129 C 124.45197296 77.24160767 124.21482086 78.69288635 124.80589294 83.12358093" stroke-width="1.16525078" fill="rgb(113, 195, 90)" opacity="1.0" stroke="rgb(43, 59, 40)" stroke-opacity="0.813517" stroke-linecap="round" stroke-linejoin="round"/>
    <path d="M 150.61407471 84.59622955 C 148.09469604 86.54959869 144.78804016 87.16909790 142.40425110 87.28788757 C 138.79434204 87.15216064 136.37419128 86.56364441 133.57203674 84.88707733 C 131.13987732 83.07788086 129.34562683 82.29765320 127.58119202 78.61653900 C 126.43603516 75.68849945 125.92921448 73.55296326 126.77159882 69.47094727 C 127.61568451 66.48696136 129.76245117 63.92078781 132.02639771 61.85493851 C 136.57794189 59.30739212 135.48999023 59.48607635 138.94187927 58.98139954 C 142.38026428 58.61511230 145.27421570 59.07604599 148.59349060 60.65642929 C 151.71424866 62.40186310 154.21484375 65.03990173 155.06227112 67.24335480 C 156.47537231 70.51114655 156.43984985 73.57043457 155.96733093 76.48521423 C 155.52499390 79.43782806 152.83132935 83.17207336 150.61407471 84.59622955" stroke-width="1.03795588" fill="rgb(146, 208, 118)" opacity="1.0" stroke="rgb(30, 46, 28)" stroke-opacity="0.7830633" stroke-linecap="round" stroke-linejoin="round"/>
    <path d="M 129.74423218 98.01684570 C 130.75715637 99.10456085 131.24696350 101.31537628 131.24838257 102.79573059 C 131.04534912 104.88871765 131.12176514 106.34966278 129.94871521 107.76237488 C 128.95571899 109.00791931 128.18687439 110.07244873 126.13050079 110.94589233 C 124.50176239 111.48392487 123.25350952 111.75637817 120.69126129 111.65821838 C 119.36467743 111.26139069 117.68341064 110.67055511 116.26441193 108.87403870 C 115.16681671 106.72721100 115.02969360 106.61883545 114.58280945 105.22587585 C 114.09522247 103.66751099 114.99375916 101.22673798 115.67932129 99.83583832 C 117.32617950 97.62876892 118.37444305 96.97887421 119.76097870 96.37033844 C 121.49554443 95.50354004 123.66484833 95.23035431 125.00121307 95.38142395 C 127.21836853 95.75097656 128.68350220 96.69670868 129.74423218 98.01684570" stroke-width="1.21846414" fill="rgb(157, 217, 130)" opacity="1.0" stroke="rgb(21, 35, 18)" stroke-opacity="0.7734948" stroke-linecap="round" stroke-linejoin="round"/>
    <path d="M 131.01828003 28.82971001 C 131.88194275 28.02069473 133.62696838 27.00368118 134.81953430 26.45170784 C 136.00761414 26.16687393 137.10861206 26.06476593 138.38040161 26.54758263 C 139.65287781 26.78437233 141.36431885 27.69707489 142.17846680 28.85455704 C 143.35769653 30.09366417 143.98110962 31.88614655 144.18165588 33.25458908 C 144.33450317 34.95492935 143.53582764 36.29364395 142.47314453 37.69735718 C 140.28431702 39.50431824 140.85557556 39.14782715 139.18550110 39.94129181 C 137.60998535 40.82404327 135.66635132 40.97982025 134.34605408 40.50033951 C 131.90374756 39.26268387 131.96324158 39.18501282 130.32128906 37.68555069 C 129.07089233 35.88699722 129.08825684 34.58753967 129.29545593 33.46845245 C 129.36627197 31.20402527 129.70242310 29.96448708 131.01828003 28.82971001" stroke-width="1.10622680" fill="rgb(178, 224, 157)" opacity="1.0" stroke="rgb(23, 18, 32)" stroke-opacity="0.6016207" stroke-linecap="round" stroke-linejoin="round"/>
    <path d="M 111.21427155 167.99383545 C 112.02050781 168.43374634 113.83012390 170.37202454 114.85216522 171.81167603 C 116.97727203 173.47097778 117.03112793 175.47970581 113.59233093 174.95707703 C 111.62306213 174.86096191 110.11727905 175.03494263 107.51228333 175.04551697 C 105.39205933 175.08618164 103.46970367 174.97103882 101.47743225 175.10157776 C 98.95321655 175.04794312 97.09902954 174.90536499 95.55036163 175.19653320 C 92.58395386 175.30311584 91.35979462 175.46202087 91.90431976 174.31275940 C 92.18531799 173.03199768 93.56008148 171.21269226 94.85820007 169.72950745 C 96.04228210 168.61746216 96.78468323 167.77766418 99.07180023 166.53346252 C 101.96657562 165.42308044 102.14881134 165.44805908 105.02989197 165.54849243 C 106.90393829 165.80780029 108.94054413 166.45828247 111.21427155 167.99383545" stroke-width="1.18236935" fill="rgb(224, 212, 181)" opacity="1.0" stroke="rgb(35, 38, 43)" stroke-opacity="0.76877505" stroke-linecap="round" stroke-linejoin="round"/>
    <path d="M 146.80316162 175.18673706 C 144.95837402 175.20129395 144.25921631 175.14422607 141.43574524 175.22637939 C 139.27745056 175.18525696 137.69015503 175.20196533 135.26950073 175.04641724 C 133.70372009 175.09288025 131.24272156 175.05142212 129.19161987 175.16061401 C 126.96373749 174.89297485 125.61826324 175.48283386 123.97541809 175.00151062 C 125.10060883 173.34963989 126.71150208 172.62942505 128.47065735 170.76686096 C 130.00973511 169.51983643 130.67393494 168.91000366 132.36607361 168.12121582 C 134.66847229 167.12133789 136.32841492 166.88542175 137.90464783 166.80732727 C 140.55032349 166.95491028 142.11570740 167.40499878 143.62019348 168.55619812 C 145.41101074 169.63706970 146.38391113 171.44267273 147.61613464 172.87435913 C 148.83346558 174.49174500 151.36296082 175.79197693 146.80316162 175.18673706" stroke-width="1.20734751" fill="rgb(226, 216, 180)" opacity="1.0" stroke="rgb(17, 16, 22)" stroke-opacity="0.714969" stroke-linecap="round" stroke-linejoin="round"/>
    <path d="M 162.85733032 174.10002136 C 163.33244324 174.05010986 163.44111633 174.08453369 164.22929382 173.99948120 C 164.66706848 174.01753235 165.07922363 173.98744202 165.72673035 173.96876526 C 166.11796570 173.96798706 166.55041504 173.97680664 167.20800781 174.06774902 C 167.56217957 174.13619995 168.20372009 174.31660461 168.51487732 174.81402588 C 168.27616882 175.28126526 167.92608643 175.12564087 167.27955627 175.18954468 C 166.58200073 175.21621704 166.64752197 175.23028564 166.00871277 175.24525452 C 165.38034058 175.26945496 165.31881714 175.26699829 164.58634949 175.33647156 C 164.17572021 175.35813904 163.64747620 175.29435730 163.06707764 175.28224182 C 162.60914612 175.23991394 161.98573303 175.21240234 161.61993408 174.82633972 C 161.66362000 174.27619934 162.09378052 174.27462769 162.85733032 174.10002136" stroke-width="1.27198315" fill="rgb(229, 212, 181)" opacity="1.0" stroke="rgb(73, 55, 43)" stroke-opacity="0.76798904" stroke-linecap="round" stroke-linejoin="round"/>
    <path d="M 156.64010620 175.33583069 C 156.07301331 175.34712219 156.04098511 175.33563232 155.30342102 175.35035706 C 154.81156921 175.37025452 154.52700806 175.34429932 153.90504456 175.36560059 C 153.45783997 175.39891052 153.03211975 175.37236023 152.47883606 175.40940857 C 152.02763367 175.42834473 151.49481201 175.55268860 151.22944641 174.97055054 C 151.26348877 174.47656250 151.41928101 174.23060608 152.04914856 174.05249023 C 152.72558594 173.94746399 152.60769653 173.99212646 153.21720886 173.92199707 C 153.84246826 173.91041565 154.07714844 173.93768311 154.60449219 173.95024109 C 155.01481628 173.98892212 155.42498779 174.08894348 156.00672913 174.20906067 C 156.44677734 174.30261230 156.83090210 174.35137939 157.36911011 174.71669006 C 157.85879517 175.21626282 157.24476624 175.32257080 156.64010620 175.33583069" stroke-width="1.12689006" fill="rgb(235, 224, 192)" opacity="1.0" stroke="rgb(56, 45, 38)" stroke-opacity="0.8574827" stroke-linecap="round" stroke-linejoin="round"/>
  </g>
</svg>
