<?xml version="1.0" ?>
<svg xmlns="http://www.w3.org/2000/svg" version="1.1" width="512" height="512" viewBox="0 0 512 512">
  <defs/>
  <g>
    <path d="M 349.18893433 442.68383789 C 345.11093140 444.29513550 340.99929810 445.66452026 336.53445435 446.12451172 C 331.59747314 446.04385376 326.24234009 445.94711304 320.67602539 445.88003540 C 314.95803833 445.94851685 308.98184204 445.79763794 302.64733887 445.84655762 C 296.01821899 445.96081543 289.18005371 446.02621460 282.20803833 445.90512085 C 275.12673950 445.64862061 267.82107544 445.77871704 260.25277710 445.86895752 C 252.54833984 445.66516113 244.78968811 445.78189087 236.99893188 445.91839600 C 229.09791565 445.84475708 221.17404175 445.76547241 213.38308716 445.98770142 C 205.74627686 446.00585938 198.31280518 445.94097900 191.23056030 445.89285278 C 184.50682068 446.00656128 178.20350647 446.18548584 172.45341492 446.14663696 C 167.32901001 446.22460938 162.91194153 445.80126953 159.19412231 444.29852295 C 156.19049072 441.66583252 154.13983154 438.07882690 153.53634644 433.37463379 C 153.24349976 427.45343018 153.48071289 420.56109619 153.48220825 413.00463867 C 153.49949646 404.97637939 153.52276611 396.67333984 153.56329346 388.38381958 C 153.52621460 380.45471191 153.49496460 373.09912109 153.57708740 366.49569702 C 153.46041870 361.02062988 153.24426270 356.92361450 154.29679871 354.10293579 C 156.17564392 352.55825806 158.88215637 352.50836182 162.23001099 352.66168213 C 165.53221130 350.75399780 170.14857483 350.31542969 175.45237732 349.02529907 C 181.31472778 348.46569824 187.55023193 348.61825562 194.31121826 348.42434692 C 201.44538879 347.85363770 208.56669617 347.57223511 215.52745056 347.60809326 C 222.48774719 347.93286133 229.36431885 348.69924927 235.89773560 348.72106934 C 242.09013367 346.35116577 249.06256104 345.75704956 256.95211792 346.09210205 C 265.32678223 346.36535645 274.13641357 346.53659058 283.10253906 346.79162598 C 291.89492798 347.52935791 300.41894531 348.63485718 308.77770996 350.16394043 C 316.70217896 350.87332153 324.06414795 350.78561401 330.83319092 350.92526245 C 336.95458984 351.49597168 342.38531494 351.88958740 346.86666870 352.02618408 C 349.85855103 351.80435181 351.73773193 352.72079468 352.77047729 355.05545044 C 353.15896606 358.46444702 353.06448364 363.09826660 353.10299683 368.73013306 C 353.19305420 375.33291626 353.03833008 382.79376221 353.22027588 391.01870728 C 353.16580200 399.68664551 353.27694702 408.90859985 353.11453247 418.42626953 C 353.28741455 428.42971802 354.10140991 438.62139893 349.18893433 442.68383789" stroke-width="2.00000000" fill="rgb(175, 86, 41)" opacity="1.0" stroke="rgb(22, 6, 0)" stroke-opacity="0.8703138" stroke-linecap="round" stroke-linejoin="round"/>
    <path d="M 344.75360107 447.33590698 C 335.66241455 447.46105957 326.54751587 447.47155762 317.54354858 447.34997559 C 308.61553955 447.40341187 299.74670410 447.44607544 290.97753906 447.42388916 C 282.29745483 447.28686523 273.66925049 447.40341187 265.14273071 447.35925293 C 256.70568848 447.38555908 248.26930237 447.37069702 239.73162842 447.52166748 C 231.04353333 447.24505615 222.47697449 447.40408325 214.13861084 447.32846069 C 206.06967163 447.37316895 198.35121155 447.33108521 191.20162964 447.46902466 C 184.59968567 447.35208130 178.65354919 447.48312378 173.35308838 447.48147583 C 168.79048157 447.43304443 165.10624695 447.50549316 162.33091736 446.72180176 C 160.21008301 445.55590820 158.84339905 444.67410278 158.75674438 444.00619507 C 160.05482483 443.89303589 162.75563049 444.02444458 166.55488586 444.10363770 C 171.19001770 444.15206909 176.61387634 444.19683838 182.66281128 444.12524414 C 189.28988647 444.28128052 196.38563538 444.27316284 203.90325928 444.10144043 C 211.65914917 444.14486694 219.57585144 444.15652466 227.60313416 444.10787964 C 235.69036865 444.14785767 243.76498413 444.16690063 251.72949219 444.13043213 C 259.57235718 444.09417725 267.26281738 444.11151123 274.77212524 444.12896729 C 282.05328369 444.07519531 289.07824707 444.08435059 295.86788940 444.09829712 C 302.32388306 444.12866211 308.51635742 444.22634888 314.42181396 444.21298218 C 320.04962158 444.03588867 325.36489868 444.18301392 330.38366699 444.31628418 C 335.07812500 444.24844360 339.42742920 444.30593872 343.36865234 444.40557861 C 346.90695190 444.22854614 350.23110962 443.38275146 344.75360107 447.33590698" stroke-width="1.79912961" fill="rgb(172, 88, 51)" opacity="1.0" stroke="rgb(37, 0, 0)" stroke-opacity="0.6669059" stroke-linecap="round" stroke-linejoin="round"/>
    <path d="M 248.34495544 300.29794312 C 249.85284424 309.45550537 251.25865173 318.18539429 253.18449402 326.04153442 C 255.08950806 332.88208008 256.01690674 338.37026978 255.31636047 342.58499146 C 252.46255493 345.02099609 248.85963440 345.59988403 245.79789734 344.38482666 C 243.84695435 340.32385254 242.18197632 334.57989502 240.69422913 327.18768311 C 238.37094116 318.97637939 236.99794006 309.67105103 236.23408508 299.48297119 C 235.65321350 288.83068848 236.08946228 277.86813354 237.03103638 266.76779175 C 237.85037231 255.67903137 240.18203735 244.99877930 243.89564514 233.94854736 C 246.24768066 221.62132263 247.31925964 209.04214478 246.82330322 197.17216492 C 244.23939514 186.62969971 242.71490479 177.34173584 244.60891724 168.83352661 C 247.77520752 160.90730286 248.83030701 153.59082031 247.37960815 147.03906250 C 247.47181702 141.43705750 249.80116272 136.73419189 253.11155701 133.02421570 C 256.25903320 129.49766541 258.89318848 126.21952820 261.05917358 123.31804657 C 262.77761841 120.90512848 264.10226440 119.06761932 265.09387207 117.95248413 C 265.68807983 117.69728851 265.87606812 118.34136963 265.79580688 119.90092468 C 265.51284790 122.41954803 265.08251953 125.96933746 264.53958130 130.58692932 C 263.83923340 136.20269775 263.06234741 142.68869019 262.27035522 150.05598450 C 261.54962158 158.29562378 260.99945068 167.33303833 260.38366699 177.03150940 C 259.89627075 187.20115662 259.75616455 197.92591858 258.75704956 209.00671387 C 256.69635010 220.53945923 253.92475891 232.28549194 251.39839172 244.54782104 C 249.38200378 257.16555786 246.85971069 269.90380859 248.34495544 300.29794312" stroke-width="0.50495601" fill="rgb(109, 60, 33)" opacity="1.0" stroke="rgb(0, 0, 0)" stroke-opacity="0.395068" stroke-linecap="round" stroke-linejoin="round"/>
    <path d="M 207.62158203 232.33088684 C 209.20889282 232.64378357 210.75335693 232.97053528 212.28703308 233.21595764 C 213.84169006 233.45030212 215.43095398 233.74285889 217.01661682 234.00796509 C 218.56486511 234.20214844 220.08387756 234.32846069 221.54014587 234.46255493 C 222.95252991 234.59022522 224.30516052 234.60374451 225.62501526 234.73272705 C 226.78594971 235.48553467 228.15760803 235.95147705 229.60977173 236.39649963 C 231.18556213 236.95736694 232.83473206 237.35113525 234.64620972 237.56709290 C 236.23988342 237.91362000 237.59094238 238.43733215 238.96241760 238.88548279 C 240.29692078 239.05067444 241.41479492 239.31648254 242.26553345 239.74060059 C 242.78215027 240.21955872 242.77580261 240.99519348 242.48257446 241.83709717 C 242.14004517 242.76078796 241.82199097 243.85375977 241.53381348 244.99826050 C 241.31733704 245.84825134 241.03913879 246.18852234 240.53990173 246.17874146 C 239.77432251 245.92948914 238.88307190 245.39265442 238.01029968 244.74237061 C 236.88537598 244.34011841 235.63737488 244.23112488 234.26014709 243.96630859 C 232.99153137 243.30561829 231.51493835 242.79675293 229.99420166 242.19514465 C 228.56291199 241.53472900 226.96897888 241.05792236 225.36878967 240.83877563 C 223.79281616 240.70440674 222.12413025 240.56201172 220.45712280 240.38363647 C 218.84019470 240.19416809 217.25646973 240.04623413 215.62617493 239.93884277 C 213.99429321 239.82672119 212.34176636 239.70483398 210.67277527 239.59260559 C 209.00979614 239.45191956 207.35545349 239.28677368 205.71878052 239.11965942 C 204.08207703 239.01731873 202.44180298 238.93571472 207.62158203 232.33088684" stroke-width="0.59115064" fill="rgb(79, 49, 29)" opacity="1.0" stroke="rgb(19, 9, 0)" stroke-opacity="0.34965914" stroke-linecap="round" stroke-linejoin="round"/>
    <path d="M 292.26644897 190.83331299 C 290.17941284 191.07241821 288.13201904 191.29359436 286.12954712 191.53656006 C 284.14050293 191.78219604 282.17337036 191.94721985 280.24102783 192.02595520 C 278.34603882 192.05375671 276.41119385 192.04388428 274.43569946 192.16096497 C 272.57858276 192.76860046 270.74270630 193.53706360 269.13543701 194.53732300 C 267.66082764 195.49104309 266.25512695 196.25074768 265.14868164 197.10890198 C 264.47647095 197.74191284 263.85025024 198.03849792 263.27502441 197.66096497 C 262.91134644 196.79054260 262.32452393 195.65879822 261.36410522 194.86030579 C 260.44247437 193.96990967 259.76159668 193.10179138 259.76330566 192.48117065 C 260.24847412 192.09236145 261.00595093 192.05769348 261.93450928 191.91902161 C 263.04711914 191.34552002 264.12701416 190.47486877 265.57586670 189.77372742 C 267.63546753 189.27287292 269.60009766 188.64373779 271.56518555 187.79864502 C 273.42510986 187.40510559 275.21499634 186.99319458 276.61343384 185.98237610 C 278.11163330 184.99937439 279.82183838 184.32586670 281.62295532 183.94645691 C 283.50360107 183.78713989 285.37512207 183.71437073 287.19113159 183.78921509 C 288.97238159 184.05015564 290.67684937 184.44580078 292.24905396 184.87985229 C 293.66552734 185.32362366 294.97506714 185.79148865 296.21780396 186.37194824 C 297.40118408 186.98963928 298.49987793 187.58496094 299.51837158 188.18643188 C 300.47573853 188.85598755 301.39312744 189.58219910 302.22183228 190.30586243 C 303.00070190 191.01286316 303.76095581 191.73315430 304.54681396 192.47261047 C 305.32073975 193.17195129 306.07174683 193.81951904 292.26644897 190.83331299" stroke-width="0.59768152" fill="rgb(82, 37, 27)" opacity="1.0" stroke="rgb(0, 0, 0)" stroke-opacity="0.3927551" stroke-linecap="round" stroke-linejoin="round"/>
    <path d="M 235.83970642 137.29501343 C 233.81364441 137.86029053 231.78863525 138.38984680 229.77371216 138.88760376 C 227.82182312 139.38198853 225.92385864 139.86164856 224.08409119 140.24597168 C 222.33335876 140.55540466 220.63090515 140.86314392 219.04426575 141.08819580 C 217.56805420 141.20437622 216.21827698 141.23925781 215.00587463 141.21060181 C 213.91548157 141.08419800 212.98039246 140.86880493 212.24020386 140.56161499 C 211.64651489 140.17053223 211.25270081 139.69551086 211.03883362 139.16744995 C 211.01872253 138.57510376 211.16038513 137.95234680 211.55474854 137.29457092 C 212.14810181 136.60363770 212.93260193 135.85023499 213.92463684 135.07203674 C 215.10168457 134.26214600 216.42562866 133.47402954 217.95016479 132.67910767 C 219.66096497 131.97616577 221.49435425 131.37681580 223.40515137 130.92025757 C 225.34819031 130.62951660 227.39646912 130.48619080 229.50645447 130.48721313 C 231.55369568 130.73974609 233.60363770 131.11987305 235.69712830 131.48924255 C 237.78994751 131.91766357 239.78326416 132.21307373 241.58059692 132.40306091 C 243.09091187 132.63024902 244.36784363 132.95571899 245.30044556 133.53758240 C 245.70893860 134.31924438 245.95199585 135.15072632 246.39135742 135.78373718 C 247.28709412 135.99453735 248.41697693 136.02005005 249.55793762 136.00396729 C 250.57127380 135.84655762 251.29069519 135.42330933 251.89126587 135.29797363 C 252.15544128 135.66540527 252.13629150 136.40403748 252.01316833 137.47637939 C 251.86222839 138.73832703 251.67529297 140.10694885 251.56213379 141.45195007 C 251.60838318 142.61077881 251.78968811 143.74934387 235.83970642 137.29501343" stroke-width="0.49004734" fill="rgb(67, 37, 30)" opacity="1.0" stroke="rgb(0, 11, 10)" stroke-opacity="0.45719692" stroke-linecap="round" stroke-linejoin="round"/>
    <path d="M 170.13955688 275.04074097 C 167.06785583 273.94552612 164.19502258 272.28918457 161.28942871 270.44226074 C 158.35630798 268.49880981 155.77890015 266.13973999 153.66076660 263.26580811 C 151.40962219 260.40496826 149.59153748 257.19247437 148.22152710 253.58190918 C 146.90827942 249.79393005 145.98756409 245.87712097 145.72094727 241.72320557 C 145.41439819 237.85121155 145.80094910 233.90443420 146.39144897 229.98822021 C 147.25854492 226.24674988 148.58813477 222.52966309 150.40786743 219.01690674 C 152.61843872 215.48123169 155.21360779 212.18496704 158.32273865 209.29058838 C 161.61471558 206.62242126 165.23377991 204.40014648 169.19747925 202.63658142 C 173.41979980 201.10676575 177.72473145 200.16403198 182.20205688 199.95642090 C 186.82514954 199.81314087 191.11737061 200.41740417 195.15684509 201.87440491 C 199.06291199 202.67895508 202.69140625 204.56001282 206.33592224 206.55281067 C 209.78135681 208.74603271 212.73165894 211.50708008 215.34362793 214.59741211 C 217.92935181 217.68333435 220.07247925 220.96063232 221.57910156 224.47016907 C 223.06063843 228.01292419 224.17973328 231.26028442 224.16787720 234.88920593 C 224.00251770 238.74464417 223.70092773 242.73374939 222.83969116 246.72006226 C 221.86009216 250.48768616 220.27505493 253.99362183 218.36953735 257.35049438 C 216.57965088 260.60052490 214.19898987 263.40502930 211.74722290 266.19177246 C 208.91192627 268.66027832 205.89759827 270.88607788 202.49224854 272.83325195 C 198.75286865 274.57968140 194.62622070 276.01156616 190.05223083 276.89520264 C 184.93203735 277.07971191 179.54489136 277.75570679 170.13955688 275.04074097" stroke-width="0.48641700" fill="rgb(37, 86, 33)" opacity="1.0" stroke="rgb(18, 0, 25)" stroke-opacity="0.38723198" stroke-linecap="round" stroke-linejoin="round"/>
    <path d="M 218.55548096 129.06936646 C 216.92285156 125.75752258 215.30609131 122.47204590 213.60162354 119.32894897 C 211.75956726 116.37244415 209.89318848 113.40457916 208.10035706 110.30995941 C 206.31184387 107.18016815 204.45332336 104.18044281 202.56694031 101.41357422 C 201.30842590 98.47990417 199.89476013 95.49512482 198.55216980 92.34619141 C 197.66607666 88.74441528 196.97837830 84.95348358 196.44638062 80.86444855 C 196.10534668 76.97885895 196.56930542 73.27708435 196.77134705 69.59978485 C 197.68360901 66.05206299 198.31954956 62.51781845 199.40509033 59.05031586 C 200.88917542 55.69068527 202.48155212 52.29838562 204.40740967 48.84068680 C 206.95173645 45.60364532 209.43785095 42.30615616 212.29244995 39.46863556 C 215.15502930 36.67332077 218.49842834 34.28321457 221.92367554 31.96850777 C 225.88238525 30.06385803 229.70576477 28.07204247 233.85447693 26.72346878 C 238.20425415 25.67383957 242.57189941 24.21380424 247.11163330 23.87790489 C 251.74229431 23.47871208 256.41043091 23.26883698 260.73193359 23.93257713 C 265.00967407 24.41387939 268.93728638 25.38281631 272.82574463 26.36308861 C 276.19665527 27.30949020 279.12023926 29.12706375 282.16409302 30.88941574 C 285.34481812 32.31450272 288.12670898 34.43595505 291.31112671 36.41120148 C 294.15386963 38.77579880 296.68811035 41.48544312 299.02008057 44.30297852 C 301.40042114 46.95616913 303.16873169 50.03076935 304.64135742 53.47894669 C 306.06384277 56.99712753 307.30017090 60.61763382 308.29748535 64.13540649 C 308.82250977 67.89372253 308.98699951 71.73987579 308.88119507 75.46955872 C 308.57348633 79.18193054 308.01126099 82.93730164 307.25372314 86.71546173 C 306.31213379 90.36447906 305.12118530 93.79304504 303.73385620 97.07663727 C 302.19052124 100.26564789 300.36434937 103.29042053 298.25134277 106.10059357 C 295.93533325 108.75806427 293.48291016 111.34652710 290.87823486 113.92700958 C 288.07281494 116.44848633 285.14520264 118.75731659 282.10449219 120.84358215 C 279.00985718 122.74716949 275.88235474 124.49892426 272.58590698 126.07070160 C 269.11795044 127.40279388 265.68441772 128.42289734 262.32919312 129.12265015 C 258.95928955 129.52229309 255.65885925 129.46417236 252.37889099 129.22314453 C 249.17251587 130.04792786 245.93356323 130.72943115 242.60505676 131.04907227 C 239.21087646 131.05323792 235.60874939 130.82940674 218.55548096 129.06936646" stroke-width="1.91638184" fill="rgb(55, 134, 40)" opacity="1.0" stroke="rgb(14, 35, 9)" stroke-opacity="0.93867886" stroke-linecap="round" stroke-linejoin="round"/>
    <path d="M 325.68884277 235.00125122 C 322.75668335 234.79383850 319.77014160 234.88984680 317.03320312 234.16964722 C 314.18887329 233.98164368 311.38571167 232.99075317 308.27252197 232.42771912 C 305.39160156 231.29251099 302.35552979 230.15814209 299.50781250 228.55842590 C 296.72024536 226.89050293 294.14047241 225.10844421 292.12960815 222.73939514 C 289.62789917 220.93017578 287.79721069 218.44242859 286.14498901 215.67216492 C 283.96362305 213.10179138 282.49331665 210.01316833 281.20263672 206.46473694 C 279.93243408 202.98851013 279.39508057 199.34016418 278.48336792 195.83038330 C 278.60293579 192.27096558 278.80792236 188.90756226 278.66897583 185.52915955 C 279.02258301 182.33457947 279.65859985 179.36286926 280.69479370 176.49633789 C 281.73379517 173.66934204 282.93331909 170.84526062 284.29843140 168.00923157 C 285.79931641 165.22406006 287.47311401 162.54199219 289.30087280 159.96531677 C 291.24377441 157.41343689 293.22476196 154.88241577 295.33325195 152.48921204 C 297.67587280 150.32299805 300.16586304 148.35675049 302.72305298 146.48855591 C 305.40570068 144.74235535 308.20446777 143.25195312 311.11859131 142.15991211 C 314.16317749 141.44453430 317.24948120 141.00666809 320.26745605 140.81625366 C 323.27374268 140.99546814 326.29516602 141.41227722 329.19549561 142.03141785 C 331.93972778 143.05612183 334.74746704 143.30404663 337.80139160 143.65017700 C 340.87307739 144.57635498 343.86837769 145.99101257 346.75262451 147.66511536 C 349.79586792 149.14505005 352.60540771 150.87158203 355.02413940 153.03382874 C 357.22314453 155.26220703 359.55017090 157.38186646 361.69662476 159.72906494 C 363.67864990 162.41217041 365.32992554 165.33097839 366.78384399 168.10351562 C 368.43249512 170.60179138 369.51834106 173.30300903 369.71380615 176.20150757 C 370.85333252 179.30386353 371.53140259 182.60606384 371.73599243 186.06008911 C 372.07443237 189.60317993 371.51940918 193.43844604 371.30758667 196.87129211 C 370.60122681 200.23829651 369.51065063 203.40513611 368.21429443 206.54359436 C 367.13024902 209.76531982 365.32507324 212.51158142 363.29693604 215.19245911 C 361.64965820 218.28520203 359.40127563 220.68304443 357.00662231 223.11996460 C 354.32531738 225.04557800 351.71218872 226.87693787 349.08737183 228.51460266 C 346.58972168 229.68974304 344.12701416 230.73474121 341.65490723 231.98210144 C 338.54409790 233.00318909 335.53002930 234.28620911 325.68884277 235.00125122" stroke-width="1.93949127" fill="rgb(71, 145, 50)" opacity="1.0" stroke="rgb(14, 35, 10)" stroke-opacity="0.9299359" stroke-linecap="round" stroke-linejoin="round"/>
    <path d="M 230.88514709 163.07545471 C 228.96585083 165.36506653 226.99272156 167.57557678 224.99792480 169.65539551 C 222.97834778 171.68809509 220.95732117 173.75157166 218.94606018 175.89077759 C 216.96069336 178.03376770 214.95945740 180.09442139 212.97050476 182.06889343 C 211.01779175 183.94003296 209.12152100 185.80915833 207.20765686 187.54739380 C 205.03555298 188.61396790 202.71507263 189.75796509 200.26574707 190.28761292 C 197.53349304 190.80126953 194.64021301 190.82542419 191.56704712 190.71066284 C 188.56007385 190.60408020 185.68482971 190.15509033 182.64152527 189.59906006 C 179.87629700 189.03388977 177.17517090 188.06851196 174.50370789 186.93450928 C 171.84742737 185.82594299 169.51667786 184.43705750 167.37153625 182.45861816 C 164.73010254 180.72116089 162.46736145 178.31141663 160.22311401 175.83061218 C 158.27844238 173.16535950 156.93353271 170.20214844 155.17108154 167.76341248 C 154.08119202 165.08903503 153.41613770 162.33488464 152.44007874 159.62657166 C 151.93869019 156.50352478 151.53318787 153.29185486 151.56539917 149.93321228 C 151.70390320 146.58328247 151.97070312 143.23005676 152.40811157 139.92761230 C 153.29536438 137.31053162 154.25691223 134.87394714 154.89831543 132.42829895 C 156.00856018 130.30827332 157.09960938 128.20341492 158.20407104 126.14720917 C 159.40036011 124.11170959 160.81256104 122.26178741 162.47534180 120.54532623 C 164.06489563 118.64308929 165.84132385 116.88168335 167.62858582 115.22322083 C 169.51808167 113.78216553 171.32357788 112.43900299 173.52262878 111.12326813 C 176.15396118 110.08972931 178.73011780 108.55119324 181.58390808 107.40879059 C 184.64187622 106.67785645 187.76235962 105.91613770 190.97338867 105.48220825 C 194.10223389 105.02994537 197.26527405 105.06645966 200.62995911 105.19992065 C 203.79405212 105.16419983 206.53533936 105.70886993 209.32376099 106.73139954 C 212.30357361 107.69397736 215.06770325 108.82894135 217.57507324 110.51597595 C 220.14913940 112.16938782 222.44767761 114.10523987 224.65652466 116.07459259 C 226.62033081 118.19436646 228.29681396 120.53065491 229.95050049 122.97827911 C 231.36448669 125.40430450 232.66807556 128.00602722 233.50511169 130.82717896 C 233.86146545 133.74749756 234.02320862 136.59225464 234.55249023 139.47250366 C 234.20562744 142.24481201 234.20220947 145.10185242 234.20944214 147.95347595 C 234.20521545 150.81596375 234.17343140 153.70367432 230.88514709 163.07545471" stroke-width="1.89187133" fill="rgb(76, 163, 60)" opacity="1.0" stroke="rgb(12, 35, 11)" stroke-opacity="0.9600059" stroke-linecap="round" stroke-linejoin="round"/>
    <path d="M 328.50161743 139.55583191 C 324.25238037 140.05377197 320.05059814 140.45565796 315.86334229 141.01379395 C 311.80230713 141.47605896 307.79367065 141.77609253 303.75375366 141.80357361 C 299.75878906 141.56375122 295.89276123 141.07807922 292.16378784 140.33059692 C 288.56527710 139.36279297 285.09310913 138.17932129 281.74670410 136.74185181 C 278.57836914 135.06814575 275.65765381 133.17478943 272.94522095 131.01551819 C 270.46939087 128.60546875 268.37234497 125.97196960 266.67092896 123.17383575 C 265.12786865 120.17825317 264.00234985 116.95612335 263.43377686 113.44081116 C 262.88467407 109.76744080 262.73239136 106.09451294 263.08914185 102.19698334 C 263.73309326 98.26628876 264.69335938 94.43567657 266.20004272 90.70114899 C 267.85888672 86.90586090 269.79428101 83.30052948 271.95639038 79.87452698 C 274.75888062 76.82109070 277.78256226 74.24205017 281.13046265 72.28559113 C 284.95812988 70.96206665 289.09005737 70.17205048 293.36184692 69.95005035 C 297.77334595 69.75891113 302.26074219 69.68840790 306.64648438 69.79795074 C 310.97518921 70.77095795 315.15548706 72.13715363 319.09890747 74.00600433 C 323.08865356 76.08630371 326.56011963 78.86408997 329.65087891 82.13917542 C 332.79449463 85.15254974 335.23403931 88.72329712 337.34863281 92.40891266 C 338.77926636 96.04080200 340.03509521 99.55382538 340.56481934 103.18851471 C 340.93283081 106.81925201 340.86752319 110.55709076 340.68673706 114.33287048 C 340.13470459 117.91137695 339.33514404 121.20668030 337.97622681 124.45634460 C 336.84643555 127.72331238 335.08615112 130.54922485 328.50161743 139.55583191" stroke-width="1.77240789" fill="rgb(97, 174, 64)" opacity="1.0" stroke="rgb(16, 46, 9)" stroke-opacity="0.94793755" stroke-linecap="round" stroke-linejoin="round"/>
    <path d="M 249.24362183 170.13252258 C 248.97450256 172.17094421 248.70977783 174.00469971 248.32600403 175.68141174 C 247.68380737 177.24177551 246.71693420 178.65249634 245.85200500 179.96331787 C 244.81179810 181.17951965 243.62435913 182.31974792 242.32028198 183.58898926 C 240.23368835 184.54617310 238.02934265 185.88827515 235.49607849 186.86863708 C 232.94479370 188.00914001 230.57534790 188.73664856 227.99906921 189.02764893 C 225.39805603 189.48611450 222.75971985 189.35531616 220.00517273 188.89848328 C 217.35906982 188.55903625 214.69418335 188.00416565 212.43495178 186.92430115 C 210.31695557 185.41845703 208.19552612 183.98132324 206.33030701 182.29211426 C 204.76136780 180.33903503 203.41725159 178.32684326 202.32269287 176.03623962 C 201.35939026 173.58552551 200.67265320 171.09542847 200.14030457 168.49954224 C 200.09777832 165.78182983 200.15713501 162.96386719 200.24739075 160.17485046 C 200.96551514 157.48202515 202.07493591 154.76864624 203.61830139 152.17379761 C 205.55197144 149.67160034 207.65669250 147.37951660 210.28112793 145.57548523 C 212.91201782 143.80551147 215.76293945 142.55703735 218.79919434 141.83067322 C 221.92129517 141.51193237 225.00912476 141.40168762 227.75460815 141.55581665 C 230.10353088 142.20520020 232.32090759 142.93981934 234.35052490 143.24264526 C 235.98757935 143.81510925 237.29591370 144.91891479 238.57244873 146.24102783 C 240.25605774 147.48887634 241.57272339 149.40641785 242.95893860 151.33605957 C 244.29757690 153.24205017 245.61187744 154.87977600 246.96722412 155.56587219 C 248.14807129 155.73695374 249.08432007 155.71099854 249.24362183 170.13252258" stroke-width="1.61035776" fill="rgb(112, 194, 91)" opacity="1.0" stroke="rgb(3, 23, 2)" stroke-opacity="0.8514184" stroke-linecap="round" stroke-linejoin="round"/>
    <path d="M 298.98303223 170.53466797 C 296.04141235 171.96495056 293.16177368 173.28067017 290.22143555 174.10749817 C 287.36630249 174.62568665 284.52020264 174.68324280 281.80322266 174.78993225 C 279.28485107 174.64407349 276.75405884 174.17590332 274.49847412 173.36698914 C 272.14724731 172.66239929 269.87847900 171.55062866 267.57861328 170.37159729 C 265.61834717 168.52398682 263.22891235 167.02700806 260.68847656 165.64144897 C 258.37805176 163.51788330 256.44122314 160.72010803 254.84837341 157.38963318 C 253.84164429 153.81083679 253.12719727 150.30334473 252.63945007 146.75132751 C 252.49682617 143.53431702 252.85696411 140.57225037 253.37577820 137.72169495 C 254.32406616 135.20016479 255.49340820 132.99536133 256.99539185 130.73025513 C 258.71783447 128.60954285 260.76651001 126.58546448 262.85003662 124.49710846 C 265.13070679 122.58843994 267.78909302 121.02384949 270.66165161 119.68778229 C 273.68133545 118.56616974 276.86810303 117.97355652 280.18249512 117.80136108 C 283.53152466 117.54306030 286.62603760 117.83294678 289.66595459 118.56724548 C 292.78717041 119.36524963 295.72937012 120.47499084 298.52264404 121.88749695 C 301.16082764 123.64389801 303.50704956 125.63092804 305.67269897 127.79447937 C 307.55181885 130.07011414 309.12503052 132.47753906 310.40542603 134.96810913 C 311.52478027 137.50677490 312.11090088 140.24176025 312.52536011 142.92803955 C 312.74612427 145.65550232 312.61309814 148.48146057 312.20742798 151.31953430 C 311.58251953 154.18080139 310.71484375 157.13226318 309.21612549 159.83619690 C 307.72402954 162.67787170 306.37515259 165.75297546 298.98303223 170.53466797" stroke-width="1.63959277" fill="rgb(145, 210, 119)" opacity="1.0" stroke="rgb(10, 26, 8)" stroke-opacity="0.8551468" stroke-linecap="round" stroke-linejoin="round"/>
    <path d="M 258.87097168 195.02629089 C 260.15466309 196.57749939 261.08349609 198.35993958 261.83557129 200.22645569 C 262.07064819 202.28688049 262.75976562 204.17112732 262.89215088 206.04826355 C 263.11602783 207.96168518 262.75283813 209.78817749 262.37530518 211.56736755 C 261.59136963 213.12599182 260.65603638 214.67454529 259.89337158 216.19766235 C 258.76095581 217.40631104 257.57846069 218.50459290 256.39978027 219.55184937 C 255.27377319 220.40116882 254.02534485 221.14157104 252.75987244 221.87568665 C 251.25289917 222.44288635 249.60978699 222.94094849 247.93601990 223.27105713 C 246.11294556 223.51843262 243.97383118 223.57350159 242.08271790 223.68125916 C 240.11999512 223.44493103 238.25646973 222.71490479 236.43037415 221.69268799 C 234.65345764 220.77963257 233.35551453 219.19708252 231.85690308 217.84277344 C 231.02868652 216.14727783 230.36622620 214.73162842 229.52297974 213.19165039 C 229.10758972 211.37460327 228.78842163 209.44000244 228.38424683 207.79652405 C 228.75144958 206.31515503 229.14070129 204.77909851 229.24240112 203.35021973 C 229.83032227 202.18135071 230.11407471 200.83306885 230.93908691 199.90351868 C 231.66282654 198.47341919 232.50715637 197.10205078 233.75210571 196.03356934 C 235.31629944 194.99154663 236.77273560 193.76318359 238.32382202 192.74356079 C 239.86323547 192.18408203 241.40779114 191.43084717 243.08303833 190.80145264 C 244.76957703 190.81716919 246.52786255 190.71270752 248.20349121 190.34346008 C 249.69610596 190.54438782 251.13261414 191.05572510 252.75624084 191.51008606 C 254.10360718 192.26527405 255.79689026 192.84605408 258.87097168 195.02629089" stroke-width="1.72045100" fill="rgb(157, 217, 132)" opacity="1.0" stroke="rgb(23, 33, 18)" stroke-opacity="0.9485545" stroke-linecap="round" stroke-linejoin="round"/>
    <path d="M 262.23004150 57.18364716 C 263.25875854 56.94590759 263.87152100 56.17276382 264.49520874 55.28047180 C 265.65454102 54.75166321 266.91128540 54.20038986 268.07427979 53.49662018 C 269.28918457 52.91581345 270.75140381 52.71304321 272.33160400 52.56880188 C 273.80496216 52.51308060 275.19439697 52.72709274 276.76684570 52.96241379 C 278.17959595 53.31113815 279.63223267 53.81410217 280.90570068 54.59054565 C 282.00204468 55.55517578 283.16189575 56.32791519 284.22317505 57.37469101 C 285.18984985 58.59902191 286.13357544 59.75581360 286.64376831 61.25240326 C 287.22177124 62.76606369 287.73242188 64.29808044 288.23547363 65.76246643 C 288.36843872 67.40621948 288.42709351 69.00316620 288.17687988 70.38005829 C 287.37380981 71.71443939 286.61026001 73.14617920 285.67321777 74.56515503 C 284.49188232 75.97569275 283.39642334 77.34066772 281.95477295 78.52588654 C 280.27981567 79.09995270 278.88647461 79.83496094 277.51092529 80.45433044 C 276.43542480 80.99507904 275.03628540 81.22574615 273.60009766 81.21550751 C 272.39138794 81.44698334 270.98999023 81.47167969 269.45114136 81.24552155 C 268.20153809 80.60855865 266.87765503 80.43338013 265.57162476 79.77506256 C 264.07843018 78.85778809 262.65396118 77.79529572 261.32971191 76.54610443 C 260.34213257 74.90890503 259.35449219 73.23234558 258.61929321 71.63719177 C 258.38253784 70.09959412 258.19366455 68.81532288 258.07891846 67.65237427 C 258.30484009 66.51745605 258.44494629 65.30272675 258.64028931 63.72576904 C 259.33023071 62.14335251 259.69342041 60.35141754 262.23004150 57.18364716" stroke-width="1.74327636" fill="rgb(183, 227, 162)" opacity="1.0" stroke="rgb(12, 34, 11)" stroke-opacity="0.9052911" stroke-linecap="round" stroke-linejoin="round"/>
    <path d="M 223.84516907 336.60342407 C 225.30084229 338.08111572 226.67980957 339.52395630 228.05242920 340.87350464 C 229.23538208 342.37680054 230.39169312 343.49557495 231.00148010 344.79968262 C 232.07101440 345.94680786 232.78915405 346.77120972 233.30912781 347.31527710 C 232.99050903 347.69476318 232.09692383 348.24365234 231.17564392 348.72683716 C 230.04991150 349.36154175 228.72607422 350.05001831 227.15341187 350.41830444 C 225.24642944 350.28613281 223.13053894 350.42807007 220.75019836 350.53485107 C 217.98199463 350.42672729 214.98626709 350.52584839 211.92369080 350.64910889 C 208.77145386 350.45123291 205.64321899 350.75164795 202.53437805 350.51199341 C 199.43234253 350.48110962 196.52372742 350.50979614 193.87692261 350.62802124 C 191.38038635 350.60720825 189.25730896 350.58865356 187.28894043 350.57968140 C 185.49656677 350.87506104 184.10366821 350.87951660 183.15541077 350.70001221 C 182.69447327 350.50527954 182.76705933 350.30325317 183.06033325 349.61315918 C 183.61439514 348.56466675 184.11636353 347.07839966 184.97615051 345.57342529 C 186.34806824 343.86871338 187.67431641 341.87271118 189.14314270 339.87811279 C 190.76953125 338.04061890 192.64511108 336.56146240 194.45166016 335.15435791 C 196.25027466 334.00463867 198.02833557 333.01232910 199.66432190 332.02935791 C 201.49977112 331.65130615 203.51194763 331.36572266 205.46714783 331.08935547 C 207.31054688 331.23376465 209.11141968 331.30242920 210.77743530 331.18978882 C 212.46273804 331.65454102 214.14215088 332.17376709 216.01620483 332.37899780 C 217.88842773 333.24404907 219.92802429 333.73226929 223.84516907 336.60342407" stroke-width="1.88500166" fill="rgb(225, 215, 182)" opacity="1.0" stroke="rgb(1, 0, 0)" stroke-opacity="0.8328773" stroke-linecap="round" stroke-linejoin="round"/>
    <path d="M 296.21072388 350.23568726 C 293.88458252 350.64791870 291.59210205 350.56460571 289.27807617 350.41259766 C 286.81213379 350.39184570 284.25482178 350.57888794 281.65667725 350.51449585 C 278.85961914 350.54965210 275.89587402 350.60385132 273.02514648 350.47741699 C 270.18176270 350.23358154 267.42193604 350.43420410 264.60006714 350.42260742 C 261.78619385 350.40521240 259.03454590 350.47885132 256.60342407 350.31497192 C 254.46992493 350.50857544 252.61041260 350.40527344 251.12579346 350.28262329 C 250.01434326 350.32647705 249.30062866 350.52667236 248.73844910 350.58139038 C 248.70338440 350.11148071 248.59637451 349.27896118 248.71325684 348.30337524 C 250.05932617 347.46463013 251.62120056 346.32849121 253.38507080 345.89959717 C 254.05767822 344.77041626 254.65936279 343.54061890 255.81074524 342.46450806 C 257.28881836 341.28973389 258.99130249 340.10467529 260.67660522 338.68826294 C 262.55895996 337.30972290 264.63238525 336.18441772 266.58990479 335.14151001 C 268.54574585 334.61505127 270.27322388 334.34878540 271.94067383 333.66989136 C 273.74960327 333.45092773 275.61538696 333.21395874 277.69534302 333.41564941 C 279.51574707 333.49673462 281.05050659 334.14501953 282.94149780 334.44143677 C 284.77600098 335.21832275 286.50219727 336.11941528 288.01486206 337.15969849 C 289.44506836 338.30667114 290.68984985 339.59896851 291.83041382 340.87155151 C 292.87442017 342.20431519 293.69436646 343.75161743 294.71426392 345.18377686 C 295.78308105 346.59750366 296.81262207 347.97537231 298.09661865 349.01083374 C 299.26583862 350.14709473 300.34078979 351.36550903 296.21072388 350.23568726" stroke-width="1.96608555" fill="rgb(230, 220, 183)" opacity="1.0" stroke="rgb(7, 0, 3)" stroke-opacity="0.8445962" stroke-linecap="round" stroke-linejoin="round"/>
    <path d="M 324.33407593 348.51226807 C 326.33206177 347.97384644 327.91055298 347.60473633 329.42144775 347.70870972 C 331.11566162 347.43585205 332.62521362 347.62286377 333.71652222 347.89370728 C 334.64117432 348.23672485 335.47109985 348.38275146 336.36596680 348.61306763 C 336.92221069 349.13800049 337.56195068 349.63235474 338.20254517 350.00509644 C 338.33334351 350.23153687 337.96249390 350.25720215 337.39199829 350.38354492 C 336.83016968 350.54895020 336.31585693 350.64059448 335.70361328 350.67636108 C 334.65609741 350.60623169 333.30593872 350.48461914 331.82366943 350.48281860 C 330.34188843 350.62954712 328.83895874 350.44091797 327.36856079 350.65383911 C 325.97036743 350.65017700 324.37121582 350.61505127 322.77612305 350.87066650 C 321.53085327 350.78118896 320.14712524 350.41534424 324.33407593 348.51226807" stroke-width="1.89215922" fill="rgb(238, 230, 200)" opacity="1.0" stroke="rgb(33, 15, 7)" stroke-opacity="0.89764947" stroke-linecap="round" stroke-linejoin="round"/>
    <path d="M 309.45019531 350.94366455 C 308.86239624 350.54446411 308.26422119 350.48727417 307.63714600 350.89083862 C 306.80792236 350.82916260 305.94412231 350.84622192 304.89071655 350.81863403 C 303.81665039 350.82119751 302.98593140 350.82928467 302.36004639 350.89724731 C 302.06402588 350.61492920 301.87734985 350.22393799 301.89825439 349.76791382 C 301.96881104 349.29925537 302.24630737 348.73641968 302.74374390 348.38772583 C 303.68728638 348.29287720 304.75888062 347.93923950 305.82275391 347.55749512 C 307.00253296 347.62936401 308.12106323 347.67666626 309.18356323 347.63659668 C 310.47976685 347.85256958 311.89453125 348.19967651 312.76800537 348.49652100 C 313.35748291 348.92071533 314.07315063 349.14382935 315.02862549 349.35241699 C 315.85128784 350.34393311 316.77896118 350.94635010 309.45019531 350.94366455" stroke-width="1.87250817" fill="rgb(222, 215, 185)" opacity="1.0" stroke="rgb(40, 24, 16)" stroke-opacity="0.8730717" stroke-linecap="round" stroke-linejoin="round"/>
  </g>
</svg>
