<svg xmlns="http://www.w3.org/2000/svg" viewBox="0 0 512 512" height="512.0px" width="512.0px">
<path id="" fill="#D32F2F" fill-opacity="1.0" stroke="#000000" stroke-width="0.0" stroke-opacity="1.0" stroke-linecap="round" stroke-linejoin="round"  filling="0" d="M166 350 C226 350 286 350 346 350 C349 350 351 351 353 353 C355 355 356 357 356 360 C356 387 356 413 356 440 C356 443 355 445 353 447 C351 449 349 450 346 450 C286 450 226 450 166 450 C163 450 161 449 159 447 C157 445 156 443 156 440 C156 413 156 387 156 360 C156 357 157 355 159 353 C161 351 163 350 166 350"></path>
<path id="" fill="#B71C1C" fill-opacity="1.0" stroke="#000000" stroke-width="0.0" stroke-opacity="1.0" stroke-linecap="round" stroke-linejoin="round"  filling="0" d="M156 350 C223 363 289 363 356 350 C356 383 356 417 356 450 C289 437 223 437 156 450 C156 417 156 383 156 350"></path>
<path id="" fill="#8B0000" fill-opacity="1.0" stroke="#000000" stroke-width="0.0" stroke-opacity="1.0" stroke-linecap="round" stroke-linejoin="round"  filling="0" d="M161 440 C224 440 288 440 351 440 C351 443 351 447 351 450 C288 450 224 450 161 450 C161 447 161 443 161 440"></path>
<path id="" fill="#5D4037" fill-opacity="1.0" stroke="#000000" stroke-width="0.0" stroke-opacity="1.0" stroke-linecap="round" stroke-linejoin="round"  filling="0" d="M249 353 C235 318 232 283 239 249 C245 216 248 183 248 150 C248 150 248 150 248 149 C249 149 249 149 249 149 C255 116 255 84 249 51 C254 50 258 50 263 49 C270 83 270 117 263 151 C263 184 260 218 253 251 C247 283 250 315 263 347 C258 349 254 351 249 353"></path>
<path id="" fill="#5D4037" fill-opacity="1.0" stroke="#000000" stroke-width="0.0" stroke-opacity="1.0" stroke-linecap="round" stroke-linejoin="round"  filling="0" d="M243 253 C231 241 212 238 187 244 C186 241 186 239 185 236 C213 229 234 233 249 247 C247 249 245 251 243 253"></path>
<path id="" fill="#5D4037" fill-opacity="1.0" stroke="#000000" stroke-width="0.0" stroke-opacity="1.0" stroke-linecap="round" stroke-linejoin="round"  filling="0" d="M254 197 C275 183 299 179 327 186 C326 189 326 191 325 194 C300 188 277 191 258 203 C257 201 255 199 254 197"></path>
<path id="" fill="#5D4037" fill-opacity="1.0" stroke="#000000" stroke-width="0.0" stroke-opacity="1.0" stroke-linecap="round" stroke-linejoin="round"  filling="0" d="M254 152 C235 140 217 140 198 152 C197 151 195 149 194 148 C215 133 237 133 258 148 C257 149 255 151 254 152"></path>
<path id="" fill="#1B5E20" fill-opacity="1.0" stroke="#000000" stroke-width="0.0" stroke-opacity="1.0" stroke-linecap="round" stroke-linejoin="round"  filling="0" d="M226 240 C226 251 222 261 214 268 C207 276 197 280 186 280 C175 280 165 276 158 268 C150 261 146 251 146 240 C146 229 150 219 158 212 C165 204 175 200 186 200 C197 200 207 204 214 212 C222 219 226 229 226 240"></path>
<path id="" fill="#2E7D32" fill-opacity="1.0" stroke="#000000" stroke-width="0.0" stroke-opacity="1.0" stroke-linecap="round" stroke-linejoin="round"  filling="0" d="M316 80 C316 96 310 111 298 122 C287 134 272 140 256 140 C240 140 225 134 214 122 C202 111 196 96 196 80 C196 64 202 49 214 38 C225 26 240 20 256 20 C272 20 287 26 298 38 C310 49 316 64 316 80"></path>
<path id="" fill="#388E3C" fill-opacity="1.0" stroke="#000000" stroke-width="0.0" stroke-opacity="1.0" stroke-linecap="round" stroke-linejoin="round"  filling="0" d="M376 190 C376 203 371 216 361 225 C352 235 339 240 326 240 C313 240 300 235 291 225 C281 216 276 203 276 190 C276 177 281 164 291 155 C300 145 313 140 326 140 C339 140 352 145 361 155 C371 164 376 177 376 190"></path>
<path id="" fill="#43A047" fill-opacity="1.0" stroke="#000000" stroke-width="0.0" stroke-opacity="1.0" stroke-linecap="round" stroke-linejoin="round"  filling="0" d="M241 150 C241 162 236 173 228 182 C219 190 208 195 196 195 C184 195 173 190 164 182 C156 173 151 162 151 150 C151 138 156 127 164 118 C173 110 184 105 196 105 C208 105 219 110 228 118 C236 127 241 138 241 150"></path>
<path id="" fill="#4CAF50" fill-opacity="1.0" stroke="#000000" stroke-width="0.0" stroke-opacity="1.0" stroke-linecap="round" stroke-linejoin="round"  filling="0" d="M346 110 C346 121 342 131 334 138 C327 146 317 150 306 150 C295 150 285 146 278 138 C270 131 266 121 266 110 C266 99 270 89 278 82 C285 74 295 70 306 70 C317 70 327 74 334 82 C342 89 346 99 346 110"></path>
<path id="" fill="#66BB6A" fill-opacity="1.0" stroke="#000000" stroke-width="0.0" stroke-opacity="1.0" stroke-linecap="round" stroke-linejoin="round"  filling="0" d="M251 170 C251 177 248 183 244 188 C239 192 233 195 226 195 C219 195 213 192 208 188 C204 183 201 177 201 170 C201 163 204 157 208 152 C213 148 219 145 226 145 C233 145 239 148 244 152 C248 157 251 163 251 170"></path>
<path id="" fill="#81C784" fill-opacity="1.0" stroke="#000000" stroke-width="0.0" stroke-opacity="1.0" stroke-linecap="round" stroke-linejoin="round"  filling="0" d="M316 150 C316 158 313 166 307 171 C302 177 294 180 286 180 C278 180 270 177 265 171 C259 166 256 158 256 150 C256 142 259 134 265 129 C270 123 278 120 286 120 C294 120 302 123 307 129 C313 134 316 142 316 150"></path>
<path id="" fill="#A5D6A7" fill-opacity="1.0" stroke="#000000" stroke-width="0.0" stroke-opacity="1.0" stroke-linecap="round" stroke-linejoin="round"  filling="0" d="M266 210 C266 215 264 220 260 224 C256 228 251 230 246 230 C241 230 236 228 232 224 C228 220 226 215 226 210 C226 205 228 200 232 196 C236 192 241 190 246 190 C251 190 256 192 260 196 C264 200 266 205 266 210"></path>
<path id="" fill="#C8E6C9" fill-opacity="1.0" stroke="#000000" stroke-width="0.0" stroke-opacity="1.0" stroke-linecap="round" stroke-linejoin="round"  filling="0" d="M291 70 C291 74 289 78 287 81 C284 83 280 85 276 85 C272 85 268 83 265 81 C263 78 261 74 261 70 C261 66 263 62 265 59 C268 57 272 55 276 55 C280 55 284 57 287 59 C289 62 291 66 291 70"></path>
</svg>