<svg xmlns="http://www.w3.org/2000/svg" viewBox="0 0 512 512" height="512.0px" width="512.0px">
<path id="" fill="#FF0000" fill-opacity="1.0" stroke="#000000" stroke-width="0.0" stroke-opacity="1.0" stroke-linecap="round" stroke-linejoin="round"  filling="0" d="M356.000000 256.000000 C356.000000 282.511475 345.457153 307.964233 326.710693 326.710693 C307.964233 345.457153 282.511475 356.000000 256.000000 356.000000 C229.488525 356.000000 204.035767 345.457153 185.289322 326.710693 C166.542877 307.964233 156.000000 282.511475 156.000000 255.999985 C156.000000 229.488510 166.542862 204.035782 185.289307 185.289337 C204.035751 166.542892 229.488525 156.000000 256.000000 156.000000 C282.511475 156.000000 307.964233 166.542877 326.710663 185.289307 C345.457123 204.035751 356.000000 229.488541 356.000000 256.000031"></path>
<path id="" fill="#FFFFFF" fill-opacity="1.0" stroke="#000000" stroke-width="0.0" stroke-opacity="1.0" stroke-linecap="round" stroke-linejoin="round"  filling="0" d="M221.000000 216.000000 C221.000000 218.651154 219.418564 221.196426 216.606598 223.071075 C213.794632 224.945724 209.976715 226.000000 206.000000 226.000000 C202.023285 226.000000 198.205368 224.945724 195.393402 223.071075 C192.581436 221.196426 191.000000 218.651154 191.000000 216.000000 C191.000000 213.348846 192.581436 210.803589 195.393402 208.928940 C198.205368 207.054291 202.023285 206.000000 206.000000 206.000000 C209.976715 206.000000 213.794632 207.054276 216.606598 208.928925 C219.418564 210.803574 221.000000 213.348846 221.000000 216.000000"></path>
<path id="" fill="#8B4513" fill-opacity="1.0" stroke="#000000" stroke-width="0.0" stroke-opacity="1.0" stroke-linecap="round" stroke-linejoin="round"  filling="0" d="M254.000000 156.000000 C254.000000 146.000000 254.000000 136.000000 254.000000 126.000000 C255.333328 126.000000 256.666656 126.000000 258.000000 126.000000 C258.000000 136.000000 258.000000 146.000000 258.000000 156.000000 C256.666656 156.000000 255.333328 156.000000 254.000000 156.000000"></path>
<path id="" fill="#008000" fill-opacity="1.0" stroke="#000000" stroke-width="0.0" stroke-opacity="1.0" stroke-linecap="round" stroke-linejoin="round"  filling="0" d="M256.000000 156.000000 C242.666672 142.666672 229.333328 139.333328 216.000000 146.000000 C229.333328 149.333328 242.666672 152.666672 256.000000 156.000000"></path>
<path id="" fill="#008000" fill-opacity="1.0" stroke="#000000" stroke-width="0.0" stroke-opacity="1.0" stroke-linecap="round" stroke-linejoin="round"  filling="0" d="M256.000000 156.000000 C269.333344 142.666672 282.666656 139.333328 296.000000 146.000000 C282.666656 149.333328 269.333344 152.666672 256.000000 156.000000"></path>
</svg>