<?xml version="1.0" ?>
<svg xmlns="http://www.w3.org/2000/svg" version="1.1" width="512" height="512" viewBox="0 0 512 512">
  <defs/>
  <g>
    <path d="M 299.75045776 346.44363403 C 293.66070557 348.85083008 287.60995483 350.55780029 281.49798584 351.22454834 C 275.35092163 351.18411255 269.43429565 350.26458740 263.61511230 348.82705688 C 257.72985840 347.90460205 251.82679749 347.95330811 246.05665588 348.77655029 C 240.70382690 350.36965942 235.55603027 351.56018066 230.00375366 351.30700684 C 223.98529053 350.82766724 218.08610535 349.20172119 212.19735718 346.43460083 C 205.99139404 343.66845703 200.19670105 339.85223389 194.71276855 335.27609253 C 189.08650208 330.62701416 183.93298340 325.37454224 179.33309937 319.47555542 C 174.71897888 313.66824341 170.86102295 307.34436035 167.50570679 300.84732056 C 164.36354065 294.21609497 162.10041809 287.33786011 160.14279175 280.30471802 C 158.53608704 273.32788086 157.47572327 266.17047119 157.13893127 258.89883423 C 157.22831726 251.58865356 157.53565979 244.29132080 158.62619019 237.13449097 C 160.00695801 229.99832153 161.68679810 223.13363647 163.94767761 216.39640808 C 166.75421143 209.82067871 169.80187988 203.33425903 173.47822571 197.37097168 C 177.47764587 191.58175659 181.80900574 186.20556641 186.65388489 181.48535156 C 191.44667053 176.86546326 196.50254822 172.93020630 201.96928406 169.74412537 C 207.73683167 166.99040222 213.64385986 165.08523560 219.82847595 163.87875366 C 225.88702393 163.19734192 232.01933289 163.61434937 238.33903503 164.41021729 C 244.66578674 164.73713684 251.00656128 165.99295044 257.42697144 166.51771545 C 264.05007935 165.43852234 270.82980347 164.62640381 277.73263550 164.66510010 C 284.64791870 164.91094971 291.38134766 165.71414185 297.81997681 167.50100708 C 304.06991577 169.59423828 309.92889404 172.70021057 315.40832520 176.61950684 C 320.94912720 180.79486084 325.98092651 185.58364868 330.67596436 190.95613098 C 335.18798828 196.33650208 339.15414429 202.37306213 342.82794189 208.63934326 C 346.35903931 214.87919617 349.21017456 221.51908875 351.45498657 228.39726257 C 353.18002319 235.22299194 354.36779785 242.07496643 355.37365723 249.11514282 C 355.51144409 256.24230957 355.02551270 263.29846191 354.45776367 270.32571411 C 353.36590576 277.15786743 351.55764771 283.90328979 349.43646240 290.32107544 C 347.09176636 296.74591064 344.24328613 302.89108276 340.57778931 308.67321777 C 336.74356079 314.59362793 332.36486816 320.42773438 327.17691040 325.95205688 C 321.26864624 331.40798950 315.73635864 337.49298096 299.75045776 346.44363403" stroke-width="1.93303704" fill="rgb(239, 17, 22)" opacity="1.0" stroke="rgb(166, 0, 0)" stroke-opacity="0.8683691" stroke-linecap="round" stroke-linejoin="round"/>
    <path d="M 192.47966003 219.08557129 C 192.05448914 217.87319946 191.60682678 216.63784790 191.46780396 215.48352051 C 191.35000610 214.25289917 191.23324585 213.06111145 191.44453430 211.87817383 C 191.87698364 210.73118591 192.38002014 209.74659729 192.92639160 208.78034973 C 193.65672302 207.95040894 194.42263794 207.15553284 195.34678650 206.48930359 C 196.26310730 205.85391235 197.11537170 205.03376770 198.04179382 204.35389709 C 199.34144592 204.02195740 200.80032349 203.47352600 202.24725342 202.88363647 C 203.60485840 202.66621399 205.09072876 202.71496582 206.63453674 202.69554138 C 208.11776733 202.63952637 209.52006531 202.60688782 210.88966370 202.83113098 C 212.24275208 203.33340454 213.55360413 203.43356323 214.84446716 203.45233154 C 216.05502319 203.80476379 217.14094543 204.35760498 218.09014893 204.81741333 C 218.85787964 205.47091675 219.31829834 206.11764526 219.57096863 206.84973145 C 219.43527222 207.68139648 219.09242249 208.61160278 218.64114380 209.61395264 C 218.27455139 210.59753418 217.57186890 211.55345154 216.63703918 212.50024414 C 215.54016113 213.38644409 214.56684875 214.38412476 213.72604370 215.48559570 C 212.54887390 216.35409546 211.57327271 217.31010437 210.56301880 218.23181152 C 209.40420532 219.07998657 208.37683105 219.94250488 207.24510193 220.66578674 C 206.20785522 221.44598389 205.20661926 222.16450500 204.26432800 222.66921997 C 203.32046509 223.07667542 202.32424927 223.54501343 201.41831970 223.85598755 C 200.64221191 223.90010071 199.80534363 223.78723145 198.86260986 223.69482422 C 197.74761963 223.71878052 196.53236389 223.84561157 192.47966003 219.08557129" stroke-width="1.69224739" fill="rgb(246, 211, 207)" opacity="1.0" stroke="rgb(78, 45, 46)" stroke-opacity="0.29825804" stroke-linecap="round" stroke-linejoin="round"/>
    <path d="M 301.25396729 132.57929993 C 299.83947754 135.25518799 298.26724243 137.87397766 296.60061646 140.28804016 C 294.86318970 142.61604309 292.83471680 144.53976440 290.60250854 146.29637146 C 288.34603882 147.91693115 286.06408691 149.44340515 283.75488281 150.80740356 C 281.48657227 151.98320007 279.17913818 152.85769653 276.79718018 153.44686890 C 274.40594482 153.71595764 272.09478760 154.03161621 269.91461182 154.33068848 C 267.87252808 154.62080383 266.11212158 154.84373474 264.73904419 154.52377319 C 263.65612793 153.71952820 262.70291138 152.57545471 261.79968262 151.31968689 C 260.99627686 149.93687439 260.38470459 148.36968994 260.27493286 146.54571533 C 260.43157959 144.43870544 260.48440552 142.12266541 260.55343628 139.68276978 C 260.99975586 137.21179199 261.60989380 134.71066284 262.64959717 132.24632263 C 263.74667358 129.87789917 265.28390503 127.60222626 267.05206299 125.62521362 C 269.02813721 123.77057648 271.25976562 122.03496552 273.73150635 120.63273621 C 276.38739014 119.38418579 279.13284302 118.06047058 281.89678955 116.88314819 C 284.73071289 115.91141510 287.50515747 115.09150696 290.21893311 114.27351379 C 292.79226685 113.47493744 295.09024048 112.76498413 297.03930664 111.90806580 C 298.76434326 110.87523651 300.08459473 109.73062897 301.12466431 108.64786530 C 302.01483154 107.85159302 302.77816772 107.48428345 303.43750000 107.68592834 C 304.05548096 108.37912750 304.71987915 109.51657104 305.22317505 110.95230103 C 305.39971924 112.76906586 305.36026001 114.75069427 305.28598022 116.99535370 C 305.21926880 119.50716400 305.50238037 122.21614838 301.25396729 132.57929993" stroke-width="0.89330161" fill="rgb(18, 162, 33)" opacity="1.0" stroke="rgb(0, 115, 0)" stroke-opacity="0.37877148" stroke-linecap="round" stroke-linejoin="round"/>
    <path d="M 231.48118591 152.34878540 C 228.89566040 151.33583069 226.24188232 150.43838501 223.69331360 149.28852844 C 221.22251892 147.97126770 218.69552612 146.54678345 216.18301392 145.05593872 C 213.67524719 143.34089661 211.35276794 141.43397522 209.13572693 139.33543396 C 207.07312012 137.14250183 205.09480286 134.81301880 203.27784729 132.45147705 C 201.65255737 129.97451782 200.30807495 127.41177368 199.07246399 125.00360107 C 197.96762085 122.74689484 197.18571472 120.44043732 196.57707214 118.29025269 C 195.98245239 116.39569855 195.52038574 114.74422455 195.21166992 113.28720856 C 195.04434204 112.18251038 195.13395691 111.39799500 195.44540405 111.02766418 C 196.10075378 111.12075043 197.16410828 111.53820038 198.54164124 112.11435699 C 200.16194153 112.86136627 202.13511658 113.67631531 204.43499756 114.49453735 C 206.95626831 115.07813263 209.66749573 115.87802887 212.44422913 116.70267487 C 215.31399536 117.54521942 218.33174133 118.35080719 221.33441162 119.21382904 C 224.29364014 120.23204041 227.16146851 121.27659607 229.96002197 122.43532562 C 232.57693481 123.71991730 235.03334045 125.09140778 237.26495361 126.67344666 C 239.26345825 128.52088928 241.17996216 130.39662170 242.81114197 132.39772034 C 244.20637512 134.54502869 245.38490295 136.74478149 246.35841370 138.95664978 C 247.47262573 140.90489197 248.43028259 142.75765991 249.08596802 144.48219299 C 249.36627197 146.11456299 249.23704529 147.64309692 248.72274780 149.01846313 C 247.85345459 150.17195129 246.71736145 151.13630676 245.24694824 152.18692017 C 243.77951050 153.27317810 242.40138245 154.36611938 231.48118591 152.34878540" stroke-width="0.93347251" fill="rgb(68, 199, 30)" opacity="1.0" stroke="rgb(37, 151, 0)" stroke-opacity="0.3036668" stroke-linecap="round" stroke-linejoin="round"/>
    <path d="M 247.64279175 117.78173065 C 248.78277588 117.73813629 249.89431763 117.65500641 250.98951721 117.57041931 C 251.96743774 117.47922516 252.85237122 117.65694427 253.71946716 117.85054779 C 254.52299500 117.74565125 255.27453613 117.59339905 255.95845032 117.61587524 C 256.39147949 117.77811432 256.65899658 118.07598114 256.67727661 118.47722626 C 256.56564331 119.11409760 256.35198975 119.88271332 256.29058838 120.92627716 C 256.48431396 122.30287170 256.53488159 123.90069580 256.29870605 125.67926025 C 256.11624146 127.74211121 255.94313049 130.10581970 255.80845642 132.65794373 C 255.83805847 135.30937195 255.89691162 138.09506226 255.76745605 141.01916504 C 255.67634583 144.03681946 255.61077881 147.03079224 255.86347961 150.04183960 C 255.76863098 153.08662415 255.75025940 156.09440613 255.69908142 158.98367310 C 255.75817871 161.75651550 255.67713928 164.35469055 255.31306458 166.78335571 C 255.08723450 169.03746033 255.01275635 171.01768494 255.07868958 172.75012207 C 255.19230652 174.20883179 255.17825317 175.40171814 254.94071960 176.22950745 C 254.55274963 176.68989563 254.08792114 176.81230164 253.54992676 176.62013245 C 253.02001953 176.00346375 252.54449463 175.08848572 252.15075684 173.87600708 C 251.79745483 172.35137939 251.39945984 170.59901428 250.99099731 168.70245361 C 250.65914917 166.60337830 250.29408264 164.39938354 249.86744690 162.12583923 C 249.68435669 159.74552917 249.61424255 157.31689453 249.35949707 154.81134033 C 249.13537598 152.20184326 248.85888672 149.58976746 248.64328003 146.98501587 C 248.28935242 144.36323547 248.07623291 141.71949768 247.64279175 117.78173065" stroke-width="0.65654153" fill="rgb(109, 20, 24)" opacity="1.0" stroke="rgb(39, 0, 0)" stroke-opacity="0.40682307" stroke-linecap="round" stroke-linejoin="round"/>
    <path d="M 260.24484253 180.20198059 C 257.83615112 180.20152283 255.44618225 180.19303894 253.19328308 180.13969421 C 251.07402039 179.91561890 249.10835266 179.64831543 247.31022644 179.34684753 C 245.67732239 179.05905151 244.33856201 178.77328491 243.27871704 178.48226929 C 242.58309937 178.20089722 242.25161743 177.91110229 242.34718323 177.64401245 C 242.87132263 177.53524780 243.79960632 177.54930115 245.03950500 177.63702393 C 246.54576111 177.69462585 248.36824036 177.71467590 250.46125793 177.64518738 C 252.72418213 177.60723877 255.14558411 177.60763550 257.71670532 177.67155457 C 260.41528320 177.82322693 263.19012451 177.80458069 266.07464600 177.38433838 C 269.07385254 176.62371826 272.19909668 175.89381409 275.44729614 175.30331421 C 278.77529907 174.90303040 282.14294434 174.75476074 260.24484253 180.20198059" stroke-width="1.28774559" fill="rgb(119, 1, 4)" opacity="1.0" stroke="rgb(85, 2, 6)" stroke-opacity="0.60958546" stroke-linecap="round" stroke-linejoin="round"/>
  </g>
</svg>
