<svg xmlns="http://www.w3.org/2000/svg" viewBox="0 0 512 512" height="512.0px" width="512.0px">
<path id="" fill="#FF0000" fill-opacity="1.0" stroke="#000000" stroke-width="0.0" stroke-opacity="1.0" stroke-linecap="round" stroke-linejoin="round"  filling="0" d="M356.000 256.000 C356.000 282.511 345.457 307.964 326.711 326.711 C307.964 345.457 282.511 356.000 256.000 356.000 C229.489 356.000 204.036 345.457 185.289 326.711 C166.543 307.964 156.000 282.511 156.000 256.000 C156.000 229.489 166.543 204.036 185.289 185.289 C204.036 166.543 229.489 156.000 256.000 156.000 C282.511 156.000 307.964 166.543 326.711 185.289 C345.457 204.036 356.000 229.489 356.000 256.000"></path>
<path id="" fill="#FFFFFF" fill-opacity="1.0" stroke="#000000" stroke-width="0.0" stroke-opacity="1.0" stroke-linecap="round" stroke-linejoin="round"  filling="0" d="M221.000 216.000 C221.000 218.651 219.419 221.196 216.607 223.071 C213.795 224.946 209.977 226.000 206.000 226.000 C202.023 226.000 198.205 224.946 195.393 223.071 C192.581 221.196 191.000 218.651 191.000 216.000 C191.000 213.349 192.581 210.804 195.393 208.929 C198.205 207.054 202.023 206.000 206.000 206.000 C209.977 206.000 213.795 207.054 216.607 208.929 C219.419 210.804 221.000 213.349 221.000 216.000"></path>
<path id="" fill="#0ca61a" fill-opacity="1.0" stroke="#000000" stroke-width="0.0" stroke-opacity="1.0" stroke-linecap="round" stroke-linejoin="round"  filling="0" d="M264.000 153.500 C262.833 152.333 261.667 151.167 260.500 150.000 C260.500 149.333 260.500 148.667 260.500 148.000 C260.167 147.667 259.833 147.333 259.500 147.000 C259.500 144.333 259.500 141.667 259.500 139.000 C259.833 138.667 260.167 138.333 260.500 138.000 C260.500 137.000 260.500 136.000 260.500 135.000 C260.833 134.667 261.167 134.333 261.500 134.000 C261.500 133.333 261.500 132.667 261.500 132.000 C261.833 131.667 262.167 131.333 262.500 131.000 C262.500 130.667 262.500 130.333 262.500 130.000 C263.167 129.333 263.833 128.667 264.500 128.000 C264.500 127.667 264.500 127.333 264.500 127.000 C266.333 125.167 268.167 123.333 270.000 121.500 C270.333 121.500 270.667 121.500 271.000 121.500 C271.333 121.167 271.667 120.833 272.000 120.500 C272.333 120.500 272.667 120.500 273.000 120.500 C273.667 119.833 274.333 119.167 275.000 118.500 C275.667 118.500 276.333 118.500 277.000 118.500 C277.333 118.167 277.667 117.833 278.000 117.500 C278.333 117.500 278.667 117.500 279.000 117.500 C280.000 116.833 281.000 116.167 282.000 115.500 C282.667 115.500 283.333 115.500 284.000 115.500 C284.333 115.167 284.667 114.833 285.000 114.500 C285.667 114.500 286.333 114.500 287.000 114.500 C287.333 114.167 287.667 113.833 288.000 113.500 C288.667 113.500 289.333 113.500 290.000 113.500 C290.333 113.167 290.667 112.833 291.000 112.500 C291.667 112.500 292.333 112.500 293.000 112.500 C293.333 112.167 293.667 111.833 294.000 111.500 C294.667 111.500 295.333 111.500 296.000 111.500 C296.667 110.833 297.333 110.167 298.000 109.500 C298.333 109.500 298.667 109.500 299.000 109.500 C299.667 108.833 300.333 108.167 301.000 107.500 C302.000 107.500 303.000 107.500 304.000 107.500 C304.167 107.667 304.333 107.833 304.500 108.000 C304.500 108.667 304.500 109.333 304.500 110.000 C304.833 110.333 305.167 110.667 305.500 111.000 C305.500 113.000 305.500 115.000 305.500 117.000 C305.167 117.333 304.833 117.667 304.500 118.000 C304.500 120.000 304.500 122.000 304.500 124.000 C304.167 124.333 303.833 124.667 303.500 125.000 C303.500 125.333 303.500 125.667 303.500 126.000 C303.167 126.333 302.833 126.667 302.500 127.000 C302.500 127.667 302.500 128.333 302.500 129.000 C302.167 129.333 301.833 129.667 301.500 130.000 C301.500 130.333 301.500 130.667 301.500 131.000 C301.167 131.333 300.833 131.667 300.500 132.000 C300.500 132.333 300.500 132.667 300.500 133.000 C300.167 133.333 299.833 133.667 299.500 134.000 C299.500 134.333 299.500 134.667 299.500 135.000 C299.167 135.333 298.833 135.667 298.500 136.000 C298.500 136.333 298.500 136.667 298.500 137.000 C297.833 137.667 297.167 138.333 296.500 139.000 C296.500 139.333 296.500 139.667 296.500 140.000 C294.667 141.833 292.833 143.667 291.000 145.500 C290.667 145.500 290.333 145.500 290.000 145.500 C289.000 146.500 288.000 147.500 287.000 148.500 C286.667 148.500 286.333 148.500 286.000 148.500 C285.667 148.833 285.333 149.167 285.000 149.500 C284.667 149.500 284.333 149.500 284.000 149.500 C283.667 149.833 283.333 150.167 283.000 150.500 C282.667 150.500 282.333 150.500 282.000 150.500 C281.000 151.167 280.000 151.833 279.000 152.500 C278.000 152.500 277.000 152.500 276.000 152.500 C275.667 152.833 275.333 153.167 275.000 153.500 C272.667 153.500 270.333 153.500 268.000 153.500 C267.667 153.833 267.333 154.167 267.000 154.500 C266.667 154.500 266.333 154.500 266.000 154.500 C265.667 154.167 265.333 153.833 265.000 153.500 C264.667 153.500 264.333 153.500 264.000 153.500"></path>
<path id="" fill="#42cc1a" fill-opacity="1.0" stroke="#000000" stroke-width="0.0" stroke-opacity="1.0" stroke-linecap="round" stroke-linejoin="round"  filling="0" d="M247.500 149.000 C246.333 150.167 245.167 151.333 244.000 152.500 C242.667 152.500 241.333 152.500 240.000 152.500 C239.667 152.833 239.333 153.167 239.000 153.500 C238.667 153.167 238.333 152.833 238.000 152.500 C236.333 152.500 234.667 152.500 233.000 152.500 C232.667 152.167 232.333 151.833 232.000 151.500 C231.333 151.500 230.667 151.500 230.000 151.500 C229.667 151.167 229.333 150.833 229.000 150.500 C228.333 150.500 227.667 150.500 227.000 150.500 C226.667 150.167 226.333 149.833 226.000 149.500 C225.333 149.500 224.667 149.500 224.000 149.500 C223.667 149.167 223.333 148.833 223.000 148.500 C222.667 148.500 222.333 148.500 222.000 148.500 C221.667 148.167 221.333 147.833 221.000 147.500 C220.667 147.500 220.333 147.500 220.000 147.500 C219.667 147.167 219.333 146.833 219.000 146.500 C218.667 146.500 218.333 146.500 218.000 146.500 C217.333 145.833 216.667 145.167 216.000 144.500 C215.667 144.500 215.333 144.500 215.000 144.500 C213.667 143.167 212.333 141.833 211.000 140.500 C210.667 140.500 210.333 140.500 210.000 140.500 C208.833 139.333 207.667 138.167 206.500 137.000 C206.500 136.667 206.500 136.333 206.500 136.000 C205.167 134.667 203.833 133.333 202.500 132.000 C202.500 131.667 202.500 131.333 202.500 131.000 C201.833 130.333 201.167 129.667 200.500 129.000 C200.500 128.667 200.500 128.333 200.500 128.000 C200.167 127.667 199.833 127.333 199.500 127.000 C199.500 126.667 199.500 126.333 199.500 126.000 C199.167 125.667 198.833 125.333 198.500 125.000 C198.500 124.667 198.500 124.333 198.500 124.000 C197.833 123.000 197.167 122.000 196.500 121.000 C196.500 120.333 196.500 119.667 196.500 119.000 C196.167 118.667 195.833 118.333 195.500 118.000 C195.500 117.333 195.500 116.667 195.500 116.000 C195.167 115.667 194.833 115.333 194.500 115.000 C194.500 113.667 194.500 112.333 194.500 111.000 C194.667 110.833 194.833 110.667 195.000 110.500 C195.667 110.500 196.333 110.500 197.000 110.500 C198.000 111.167 199.000 111.833 200.000 112.500 C200.667 112.500 201.333 112.500 202.000 112.500 C202.333 112.833 202.667 113.167 203.000 113.500 C203.667 113.500 204.333 113.500 205.000 113.500 C205.333 113.833 205.667 114.167 206.000 114.500 C206.667 114.500 207.333 114.500 208.000 114.500 C208.333 114.833 208.667 115.167 209.000 115.500 C210.000 115.500 211.000 115.500 212.000 115.500 C212.333 115.833 212.667 116.167 213.000 116.500 C213.667 116.500 214.333 116.500 215.000 116.500 C215.333 116.833 215.667 117.167 216.000 117.500 C217.000 117.500 218.000 117.500 219.000 117.500 C219.333 117.833 219.667 118.167 220.000 118.500 C220.667 118.500 221.333 118.500 222.000 118.500 C222.333 118.833 222.667 119.167 223.000 119.500 C223.667 119.500 224.333 119.500 225.000 119.500 C226.000 120.167 227.000 120.833 228.000 121.500 C228.667 121.500 229.333 121.500 230.000 121.500 C230.333 121.833 230.667 122.167 231.000 122.500 C231.333 122.500 231.667 122.500 232.000 122.500 C232.667 123.167 233.333 123.833 234.000 124.500 C234.333 124.500 234.667 124.500 235.000 124.500 C235.667 125.167 236.333 125.833 237.000 126.500 C237.333 126.500 237.667 126.500 238.000 126.500 C238.833 127.333 239.667 128.167 240.500 129.000 C240.500 129.333 240.500 129.667 240.500 130.000 C241.500 131.000 242.500 132.000 243.500 133.000 C243.500 133.333 243.500 133.667 243.500 134.000 C243.833 134.333 244.167 134.667 244.500 135.000 C244.500 135.333 244.500 135.667 244.500 136.000 C244.833 136.333 245.167 136.667 245.500 137.000 C245.500 137.333 245.500 137.667 245.500 138.000 C246.167 139.000 246.833 140.000 247.500 141.000 C247.500 143.667 247.500 146.333 247.500 149.000"></path>
<path id="" fill="#8e191e" fill-opacity="1.0" stroke="#000000" stroke-width="0.0" stroke-opacity="1.0" stroke-linecap="round" stroke-linejoin="round"  filling="0" d="M255.000 177.500 C254.000 177.500 253.000 177.500 252.000 177.500 C251.833 177.333 251.667 177.167 251.500 177.000 C251.500 176.333 251.500 175.667 251.500 175.000 C251.167 174.667 250.833 174.333 250.500 174.000 C250.500 172.667 250.500 171.333 250.500 170.000 C250.167 169.667 249.833 169.333 249.500 169.000 C249.500 166.667 249.500 164.333 249.500 162.000 C249.167 161.667 248.833 161.333 248.500 161.000 C248.500 157.000 248.500 153.000 248.500 149.000 C248.167 148.667 247.833 148.333 247.500 148.000 C247.500 141.000 247.500 134.000 247.500 127.000 C247.167 126.667 246.833 126.333 246.500 126.000 C246.500 123.333 246.500 120.667 246.500 118.000 C247.000 117.500 247.500 117.000 248.000 116.500 C250.667 116.500 253.333 116.500 256.000 116.500 C256.167 116.667 256.333 116.833 256.500 117.000 C256.500 121.000 256.500 125.000 256.500 129.000 C256.167 129.333 255.833 129.667 255.500 130.000 C255.500 145.667 255.500 161.333 255.500 177.000 C255.333 177.167 255.167 177.333 255.000 177.500"></path>
<path id="" fill="#750505" fill-opacity="1.0" stroke="#000000" stroke-width="0.0" stroke-opacity="1.0" stroke-linecap="round" stroke-linejoin="round"  filling="0" d="M281.500 174.000 C281.000 174.500 280.500 175.000 280.000 175.500 C279.333 175.500 278.667 175.500 278.000 175.500 C277.667 175.833 277.333 176.167 277.000 176.500 C276.333 176.500 275.667 176.500 275.000 176.500 C274.667 176.833 274.333 177.167 274.000 177.500 C273.333 177.500 272.667 177.500 272.000 177.500 C271.667 177.833 271.333 178.167 271.000 178.500 C270.000 178.500 269.000 178.500 268.000 178.500 C267.667 178.833 267.333 179.167 267.000 179.500 C265.667 179.500 264.333 179.500 263.000 179.500 C262.667 179.833 262.333 180.167 262.000 180.500 C256.667 180.500 251.333 180.500 246.000 180.500 C245.667 180.167 245.333 179.833 245.000 179.500 C244.000 179.500 243.000 179.500 242.000 179.500 C241.667 179.167 241.333 178.833 241.000 178.500 C240.333 178.500 239.667 178.500 239.000 178.500 C238.667 178.167 238.333 177.833 238.000 177.500 C237.333 177.500 236.667 177.500 236.000 177.500 C235.667 177.167 235.333 176.833 235.000 176.500 C234.333 176.500 233.667 176.500 233.000 176.500 C232.667 176.167 232.333 175.833 232.000 175.500 C231.667 175.500 231.333 175.500 231.000 175.500 C230.833 175.333 230.667 175.167 230.500 175.000 C230.667 174.833 230.833 174.667 231.000 174.500 C231.333 174.500 231.667 174.500 232.000 174.500 C232.333 174.167 232.667 173.833 233.000 173.500 C233.667 173.500 234.333 173.500 235.000 173.500 C235.333 173.833 235.667 174.167 236.000 174.500 C237.667 174.500 239.333 174.500 241.000 174.500 C241.333 174.833 241.667 175.167 242.000 175.500 C245.000 175.500 248.000 175.500 251.000 175.500 C251.333 175.833 251.667 176.167 252.000 176.500 C253.000 176.500 254.000 176.500 255.000 176.500 C255.333 176.167 255.667 175.833 256.000 175.500 C259.000 175.500 262.000 175.500 265.000 175.500 C265.333 175.167 265.667 174.833 266.000 174.500 C267.667 174.500 269.333 174.500 271.000 174.500 C271.333 174.167 271.667 173.833 272.000 173.500 C275.000 173.500 278.000 173.500 281.000 173.500 C281.167 173.667 281.333 173.833 281.500 174.000"></path>
</svg>