<?xml version="1.0" ?>
<svg xmlns="http://www.w3.org/2000/svg" version="1.1" width="224" height="224">
  <defs/>
  <g>
    <path d="M 66.28934478759766 48.95175552368164 C 74.4449234008789 42.14980697631836 93.13408660888672 35.43535232543945 107.80863952636719 34.27326965332031 C 113.30642700195312 33.71177291870117 134.5153045654297 35.756351470947266 149.70462036132812 44.54357147216797 C 165.14044189453125 54.199398040771484 173.85122680664062 64.50798797607422 181.61907958984375 79.32467651367188 C 188.69549560546875 95.96078491210938 190.2764129638672 112.3556137084961 187.14529418945312 128.1768798828125 C 184.30276489257812 143.04248046875 173.67681884765625 160.67205810546875 162.38674926757812 170.5446014404297 C 149.97833251953125 180.9803924560547 134.12496948242188 187.75709533691406 117.43208312988281 189.437255859375 C 99.07496643066406 190.1516571044922 85.326416015625 186.66127014160156 70.45357513427734 178.13404846191406 C 57.40496063232422 169.417236328125 46.39806365966797 157.8541259765625 38.754425048828125 139.25856018066406 C 33.23809051513672 123.7683334350586 32.66263961791992 109.17632293701172 36.18073654174805 92.97898864746094 C 41.46818542480469 73.74418640136719 51.37868881225586 60.762752532958984 66.28934478759766 48.95175552368164" stroke-width="0.0" fill="rgb(0, 0, 0)" opacity="1.0"/>
  </g>
</svg>
