<?xml version="1.0" ?>
<svg xmlns="http://www.w3.org/2000/svg" version="1.1" width="512" height="512" viewBox="0 0 512 512">
  <defs/>
  <g>
    <path d="M 349.22747803 442.67700195 C 344.88714600 444.22006226 340.37976074 445.37387085 335.68954468 446.03924561 C 330.73309326 446.15814209 325.59585571 445.96203613 320.27920532 445.75805664 C 314.70816040 445.75927734 308.95480347 445.85220337 302.95336914 445.89636230 C 296.67626953 445.93600464 290.09478760 445.93411255 283.28036499 445.88601685 C 276.28112793 445.81243896 269.00167847 445.84646606 261.56704712 445.96548462 C 253.91310120 445.87124634 246.10478210 445.84811401 238.22047424 445.90332031 C 230.28100586 445.81259155 222.31451416 445.76046753 214.43856812 445.88671875 C 206.66143799 445.88684082 199.07827759 445.93066406 191.78376770 445.93124390 C 184.92915344 445.98348999 178.51744080 446.04446411 172.55236816 446.23345947 C 167.20120239 446.33151245 162.69699097 445.86968994 159.08804321 444.23324585 C 156.23027039 441.58499146 154.24772644 438.01138306 153.52230835 433.15219116 C 153.34725952 427.22360229 153.46440125 420.41326904 153.52531433 413.03607178 C 153.43783569 405.24035645 153.43339539 397.26318359 153.61468506 389.26272583 C 153.57409668 381.54870605 153.49067688 374.35150146 153.53858948 367.90701294 C 153.43702698 362.29187012 153.36170959 357.73837280 153.98286438 354.53845215 C 155.44978333 352.76226807 157.99201965 352.44195557 161.48377991 352.50842285 C 165.42030334 351.23291016 170.09147644 350.04016113 175.43266296 349.01916504 C 181.26519775 348.51815796 187.37947083 348.40710449 193.79183960 348.25329590 C 200.62629700 348.11108398 207.60699463 348.10955811 214.59889221 348.22723389 C 221.62794495 348.56628418 228.71434021 348.99081421 235.72813416 348.72863770 C 242.51525879 346.82107544 249.70738220 345.68319702 257.50192261 345.28958130 C 265.62088013 345.39923096 273.74182129 345.77471924 282.00134277 346.48120117 C 290.50207520 347.50308228 298.93005371 348.59408569 307.05218506 349.80130005 C 314.75662231 350.69155884 322.19262695 350.90090942 329.26672363 351.09854126 C 335.66757202 351.54147339 341.17153931 351.77606201 345.82308960 351.96209717 C 349.43698120 351.83395386 351.59045410 352.58578491 352.69284058 354.70999146 C 353.13613892 358.19201660 353.13452148 362.81344604 353.10528564 368.48614502 C 353.14538574 375.19702148 353.07263184 382.77978516 353.16421509 391.08587646 C 353.20773315 399.87692261 353.22253418 409.17343140 353.03506470 418.94546509 C 353.33813477 428.99041748 353.96292114 438.89761353 349.22747803 442.67700195" stroke-width="2.00000000" fill="rgb(175, 86, 40)" opacity="1.0" stroke="rgb(24, 5, 0)" stroke-opacity="0.86209023" stroke-linecap="round" stroke-linejoin="round"/>
    <path d="M 344.79168701 447.48449707 C 335.40103149 447.43249512 325.97583008 447.39215088 316.66961670 447.35046387 C 307.37295532 447.38351440 298.13046265 447.41220093 289.17950439 447.35360718 C 280.49670410 447.34127808 271.95950317 447.42263794 263.54739380 447.34811401 C 255.37113953 447.30545044 247.37451172 447.34783936 239.42637634 447.46371460 C 231.38081360 447.30944824 223.34254456 447.39846802 215.36152649 447.35098267 C 207.52809143 447.30981445 199.96308899 447.31546021 192.80363464 447.39712524 C 186.02949524 447.37988281 179.73410034 447.49697876 174.18356323 447.53164673 C 169.40405273 447.55578613 165.41299438 447.32101440 162.33898926 446.70443726 C 160.25010681 445.58447266 159.18217468 444.70437622 159.34370422 444.07550049 C 160.84318542 443.93911743 163.57966614 444.03192139 167.46455383 444.15643311 C 172.28237915 444.11224365 177.83882141 444.19741821 184.13844299 444.21353149 C 190.96690369 444.25668335 198.21719360 444.20019531 205.75762939 444.09869385 C 213.55406189 444.20587158 221.49879456 444.25823975 229.56820679 444.18148804 C 237.59695435 444.17446899 245.50030518 444.17623901 253.36236572 444.14166260 C 261.08761597 444.12222290 268.67190552 444.14111328 276.08609009 444.09814453 C 283.34927368 444.09960938 290.31845093 444.08169556 297.04089355 444.11480713 C 303.40155029 444.18188477 309.43978882 444.26910400 315.18646240 444.18347168 C 320.54632568 444.20056152 325.58956909 444.22656250 330.36203003 444.25515747 C 334.83370972 444.25988770 339.05496216 444.31469727 342.99374390 444.45175171 C 346.75283813 444.14065552 350.39953613 443.35739136 344.79168701 447.48449707" stroke-width="1.78935540" fill="rgb(169, 87, 51)" opacity="1.0" stroke="rgb(38, 0, 0)" stroke-opacity="0.6635961" stroke-linecap="round" stroke-linejoin="round"/>
    <path d="M 248.43379211 301.43502808 C 249.91978455 310.40411377 251.38713074 318.88482666 253.29193115 326.64605713 C 255.04734802 333.24972534 255.93321228 338.66229248 254.94769287 342.57473755 C 252.37156677 344.88323975 249.08035278 345.48825073 245.83808899 344.20684814 C 243.81382751 340.45361328 242.27847290 334.77822876 240.73880005 327.47247314 C 238.58819580 319.13470459 237.09545898 309.80581665 236.25772095 299.54254150 C 235.70985413 288.75784302 236.20538330 277.59185791 237.08506775 266.27093506 C 237.96267700 255.06695557 240.52966309 244.13948059 244.09524536 233.43261719 C 246.05422974 222.24359131 246.33363342 210.80293274 245.40855408 199.46435547 C 244.28146362 188.53883362 244.39982605 178.22795105 246.14826965 168.73396301 C 248.09440613 160.07788086 248.37716675 152.25941467 247.41836548 145.48376465 C 248.52043152 139.80171204 251.39727783 134.87332153 254.83914185 130.46026611 C 257.78970337 126.06111908 260.41091919 121.97503662 262.68536377 118.44134521 C 264.40829468 115.43518829 265.57473755 113.09182739 266.37533569 111.77845001 C 266.92367554 111.49711609 267.09597778 112.20890045 266.82958984 113.94232178 C 266.45816040 116.85833740 265.98284912 120.97908783 265.27706909 126.17386627 C 264.31472778 132.33009338 263.38607788 139.51651001 262.52792358 147.55448914 C 261.74688721 156.39414978 261.02325439 165.99678040 260.33764648 176.18495178 C 260.00460815 186.77874756 259.60879517 197.83992004 258.48947144 209.17543030 C 256.52584839 220.73541260 253.82550049 232.62510681 251.32206726 244.91738892 C 249.21427917 257.69284058 246.82415771 270.39324951 248.43379211 301.43502808" stroke-width="0.51937532" fill="rgb(108, 56, 31)" opacity="1.0" stroke="rgb(0, 0, 0)" stroke-opacity="0.43710512" stroke-linecap="round" stroke-linejoin="round"/>
    <path d="M 207.80537415 232.76223755 C 209.27491760 232.83506775 210.78688049 232.98776245 212.21771240 233.09855652 C 213.71118164 233.21434021 215.24801636 233.37031555 216.72984314 233.51213074 C 218.18652344 233.70286560 219.64305115 233.92578125 221.14053345 234.07365417 C 222.71307373 234.26860046 224.27722168 234.49125671 225.72764587 234.82078552 C 227.21218872 235.41337585 228.71305847 236.00213623 230.23320007 236.54861450 C 231.87847900 237.04273987 233.48355103 237.33094788 235.00431824 237.66386414 C 236.46603394 238.04298401 237.84458923 238.53089905 239.15084839 238.93455505 C 240.31629944 239.11129761 241.26412964 239.30917358 241.99084473 239.70298767 C 242.46266174 240.27470398 242.60389709 241.03799438 242.54049683 241.93951416 C 242.39741516 242.79698181 242.11398315 243.76516724 241.71559143 244.62655640 C 241.30993652 245.36457825 240.88629150 245.86470032 240.27934265 245.99874878 C 239.53164673 245.81124878 238.72859192 245.35191345 237.78517151 244.84394836 C 236.69256592 244.48591614 235.49645996 244.18457031 234.20582581 243.75846863 C 232.91410828 243.12214661 231.46823120 242.59939575 229.89533997 242.17631531 C 228.37730408 241.55758667 226.82580566 241.06553650 225.22708130 240.81030273 C 223.56889343 240.59954834 221.92628479 240.36665344 220.19245911 240.19822693 C 218.58467102 240.08636475 217.01194763 239.94500732 215.37895203 239.80761719 C 213.72994995 239.69763184 212.08503723 239.66508484 210.56457520 239.57142639 C 208.98937988 239.41273499 207.39732361 239.32627869 205.85055542 239.26707458 C 204.29684448 239.21151733 202.78007507 239.13468933 207.80537415 232.76223755" stroke-width="0.61100453" fill="rgb(81, 45, 30)" opacity="1.0" stroke="rgb(22, 6, 0)" stroke-opacity="0.35901377" stroke-linecap="round" stroke-linejoin="round"/>
    <path d="M 292.96633911 190.54284668 C 290.84429932 190.67877197 288.61560059 190.87484741 286.43328857 191.03617859 C 284.31903076 191.25985718 282.20083618 191.46908569 280.13961792 191.60238647 C 278.13507080 191.72126770 276.08331299 191.92097473 274.11102295 192.22236633 C 272.34530640 192.85685730 270.72286987 193.68786621 269.19686890 194.60931396 C 267.69439697 195.52908325 266.36938477 196.31985474 265.35296631 196.96629333 C 264.62951660 197.56053162 263.98898315 197.87049866 263.40368652 197.58973694 C 262.87631226 196.87785339 262.26852417 195.88989258 261.52102661 194.88520813 C 260.77127075 193.98657227 260.24780273 193.29354858 259.91473389 192.73722839 C 260.07400513 192.41220093 260.80218506 192.23353577 261.84646606 191.96748352 C 262.79870605 191.28805542 264.05081177 190.59982300 265.58383179 189.82173157 C 267.35934448 189.29151917 269.21923828 188.65341187 271.14208984 187.88482666 C 273.15945435 187.31452942 275.17874146 186.75791931 277.13092041 185.98027039 C 279.04556274 185.35560608 281.07955933 184.89070129 282.98617554 184.58581543 C 284.85736084 184.45231628 286.65487671 184.39067078 288.36407471 184.39651489 C 290.08056641 184.52958679 291.69845581 184.79019165 293.14749146 185.05886841 C 294.43988037 185.48620605 295.62802124 185.92785645 296.78652954 186.46368408 C 297.87658691 187.02262878 298.87976074 187.69128418 299.69995117 188.35116577 C 300.51242065 189.03614807 301.22552490 189.74443054 301.97317505 190.45559692 C 302.65832520 191.21673584 303.26608276 191.94053650 303.92730713 192.73663330 C 304.57244873 193.46809387 305.24221802 194.24807739 292.96633911 190.54284668" stroke-width="0.63166004" fill="rgb(79, 39, 25)" opacity="1.0" stroke="rgb(0, 0, 0)" stroke-opacity="0.3457366" stroke-linecap="round" stroke-linejoin="round"/>
    <path d="M 235.87219238 137.23103333 C 233.83235168 137.81777954 231.80773926 138.46434021 229.77531433 139.03791809 C 227.86470032 139.56945801 225.91633606 140.10810852 224.09555054 140.50340271 C 222.33901978 140.86766052 220.61956787 141.22444153 219.01516724 141.48669434 C 217.53172302 141.59690857 216.10708618 141.71559143 214.85581970 141.66586304 C 213.78186035 141.52186584 212.83566284 141.29203796 212.01626587 140.99896240 C 211.36990356 140.56163025 210.92781067 140.11309814 210.66069031 139.51960754 C 210.56883240 138.86174011 210.70385742 138.15060425 211.03236389 137.46507263 C 211.55844116 136.65382385 212.25550842 135.86552429 213.22453308 135.12490845 C 214.33462524 134.36340332 215.72940063 133.54562378 217.18402100 132.82873535 C 218.78857422 132.21376038 220.59768677 131.65197754 222.60282898 131.09922791 C 224.65420532 130.66212463 226.78999329 130.34173584 228.92152405 130.17506409 C 231.10394287 130.15440369 233.33503723 130.16427612 235.49493408 130.31004333 C 237.52737427 130.73353577 239.45599365 131.21850586 241.18176270 131.70597839 C 242.71739197 132.21112061 244.04415894 132.74313354 245.04299927 133.39352417 C 245.66001892 134.26451111 246.10237122 135.16389465 246.58003235 135.80055237 C 247.36569214 136.06347656 248.26683044 136.06640625 249.22193909 136.10841370 C 250.04391479 135.93006897 250.66796875 135.59260559 251.15422058 135.41929626 C 251.58192444 135.70349121 251.78778076 136.35897827 251.81352234 137.28417969 C 251.74969482 138.48884583 251.75042725 139.89138794 251.72740173 141.24217224 C 251.68605042 142.57255554 251.67773438 143.88568115 235.87219238 137.23103333" stroke-width="0.52159381" fill="rgb(62, 36, 24)" opacity="1.0" stroke="rgb(0, 9, 5)" stroke-opacity="0.4465252" stroke-linecap="round" stroke-linejoin="round"/>
    <path d="M 170.74313354 275.34829712 C 167.55351257 273.94180298 164.37689209 272.31066895 161.30711365 270.52328491 C 158.45230103 268.39801025 155.86482239 265.96179199 153.62185669 263.16360474 C 151.36605835 260.21490479 149.53698730 257.03161621 148.12780762 253.47848511 C 146.96519470 249.70719910 146.04609680 245.77207947 145.65843201 241.80867004 C 145.44468689 237.77864075 145.72834778 233.83744812 146.38273621 229.97561646 C 147.35836792 226.10893250 148.74491882 222.38223267 150.57615662 218.83229065 C 152.76538086 215.33944702 155.41394043 212.19926453 158.37757874 209.23977661 C 161.73657227 206.67488098 165.34443665 204.56227112 169.09112549 202.68386841 C 173.15678406 201.18148804 177.26741028 200.29206848 181.48489380 199.99423218 C 185.77798462 199.80476379 190.06408691 200.31198120 194.18278503 201.46620178 C 198.40092468 202.57067871 202.30233765 204.28366089 206.09226990 206.33473206 C 209.53935242 208.71766663 212.65126038 211.41676331 215.24893188 214.58082581 C 217.83238220 217.64179993 219.96374512 220.98377991 221.55343628 224.51045227 C 223.02394104 227.97326660 223.98713684 231.58250427 224.20019531 235.39318848 C 224.11259460 239.17758179 223.53344727 242.95867920 222.76062012 246.84970093 C 221.74404907 250.67726135 220.24295044 254.14102173 218.30807495 257.44467163 C 216.46612549 260.76608276 214.13381958 263.61691284 211.58236694 266.27780151 C 208.80844116 268.78387451 205.91355896 270.96792603 202.51484680 272.83129883 C 199.00553894 274.48666382 195.10180664 275.83370972 190.89654541 276.67071533 C 186.36802673 277.13391113 181.55632019 277.87011719 170.74313354 275.34829712" stroke-width="0.48752007" fill="rgb(39, 87, 36)" opacity="1.0" stroke="rgb(17, 0, 25)" stroke-opacity="0.3957559" stroke-linecap="round" stroke-linejoin="round"/>
    <path d="M 219.09552002 129.80961609 C 217.19656372 126.69554138 215.43151855 123.70787811 213.65270996 120.70888519 C 211.78627014 117.57673645 209.96401978 114.38187408 208.22895813 111.33631897 C 206.41011047 108.43098450 204.46282959 105.39533997 202.71594238 102.10222626 C 201.37573242 98.73152924 199.87316895 95.44460297 198.44648743 91.97254181 C 197.68087769 88.34132385 196.98226929 84.51525879 196.47135925 80.78411865 C 196.22612000 77.10441589 196.39462280 73.37004852 196.83660889 69.66443634 C 197.49432373 66.13938141 198.34773254 62.56932831 199.49812317 59.01394653 C 200.90965271 55.64926910 202.53813171 52.13694000 204.55975342 48.80457687 C 206.98156738 45.61533737 209.51191711 42.34817123 212.41238403 39.46437836 C 215.31101990 36.57345963 218.62374878 34.13640213 222.12666321 31.92425537 C 225.93534851 29.87302399 229.76271057 28.16209221 233.93251038 26.77643394 C 238.19311523 25.43339729 242.58688354 24.40130806 247.10601807 23.79526520 C 251.65203857 23.46165657 256.10934448 23.41227531 260.53277588 23.72229767 C 264.79779053 24.44268417 268.80639648 25.31873322 272.61251831 26.30251122 C 276.17501831 27.38886833 279.22927856 29.12199783 282.27969360 30.96526909 C 285.57836914 32.48831558 288.59298706 34.37439346 291.49774170 36.61047745 C 294.33721924 38.87520981 296.81018066 41.55107880 299.08956909 44.37833786 C 301.47732544 47.06274033 303.22482300 50.08377075 304.63311768 53.54596329 C 306.09915161 56.88607788 307.34680176 60.42293167 308.32702637 64.13086700 C 308.88717651 67.87603760 309.00183105 71.67820740 308.91464233 75.51779175 C 308.62985229 79.38887787 308.21157837 83.29222870 307.62216187 87.11127472 C 306.82131958 90.76805115 305.80294800 94.26573181 304.45516968 97.72093201 C 302.87106323 101.09793854 301.02993774 104.22563934 299.02471924 107.07547760 C 296.80221558 109.74993134 294.37530518 112.34214783 291.67974854 114.79165649 C 288.81832886 116.89545441 285.74084473 118.67687988 282.63018799 120.39695740 C 279.33435059 122.06462097 275.85003662 123.55155945 272.23818970 124.88214111 C 268.60769653 126.01205444 264.97436523 126.89891052 261.28305054 127.61230469 C 257.58041382 128.27273560 253.99897766 128.86351013 250.55554199 129.68797302 C 247.12628174 130.45814514 243.74429321 130.92877197 240.39515686 131.10394287 C 237.09518433 130.99737549 233.86161804 130.88760376 219.09552002 129.80961609" stroke-width="1.91585541" fill="rgb(56, 136, 41)" opacity="1.0" stroke="rgb(17, 36, 13)" stroke-opacity="0.9530388" stroke-linecap="round" stroke-linejoin="round"/>
    <path d="M 325.85446167 235.01281738 C 322.85256958 234.84248352 319.94009399 234.71487427 317.04714966 234.28884888 C 313.97418213 233.82260132 311.13922119 233.15545654 308.24932861 232.35740662 C 305.26797485 231.30195618 302.32733154 230.11921692 299.62252808 228.64384460 C 297.04913330 227.00939941 294.55584717 225.12905884 292.28115845 223.07600403 C 289.81753540 221.16036987 287.86456299 218.78092957 286.19152832 215.90602112 C 284.20791626 213.25508118 282.50558472 210.15750122 281.23526001 206.71148682 C 280.11520386 203.16777039 279.36337280 199.63929749 278.62438965 196.03514099 C 278.48117065 192.49432373 278.55972290 189.21569824 278.61462402 185.94902039 C 278.98135376 182.96434021 279.61758423 180.02052307 280.45370483 177.23794556 C 281.49481201 174.45874023 282.61587524 171.60786438 283.86907959 168.80578613 C 285.39639282 166.11724854 287.07119751 163.46830750 288.90051270 160.85482788 C 290.88101196 158.28201294 292.99398804 155.76594543 295.26159668 153.39205933 C 297.69766235 151.22232056 300.23632812 149.13217163 302.82128906 147.12222290 C 305.39736938 145.39176941 308.20413208 143.96119690 311.06304932 142.76362610 C 314.02267456 141.89645386 316.99191284 141.34104919 319.93270874 141.03071594 C 322.86721802 141.05142212 325.82821655 141.43972778 328.82208252 142.23895264 C 331.82867432 142.98744202 334.93511963 143.44413757 338.06008911 143.82008362 C 341.03210449 144.67393494 343.98046875 146.08847046 346.80953979 147.60060120 C 349.63452148 149.16123962 352.43811035 150.91812134 354.90402222 152.93373108 C 357.28155518 155.15322876 359.52084351 157.33934021 361.72128296 159.70532227 C 363.73532104 162.16374207 365.35494995 165.06600952 366.70092773 168.02473450 C 368.36126709 170.59544373 369.33566284 173.44902039 369.98059082 176.51490784 C 370.79223633 179.58274841 371.47659302 182.84939575 371.74426270 186.24810791 C 371.80361938 189.75357056 371.61267090 193.16197205 371.41714478 196.65945435 C 370.63983154 200.10124207 369.62234497 203.45544434 368.36596680 206.62307739 C 367.09240723 209.68699646 365.31561279 212.65232849 363.35568237 215.40736389 C 361.52606201 218.17741394 359.35281372 220.71873474 357.07205200 223.07302856 C 354.47158813 224.98927307 351.81106567 226.78919983 349.17718506 228.43540955 C 346.62844849 229.66690063 343.88720703 230.89096069 341.24252319 232.04034424 C 338.43374634 233.03556824 335.40545654 234.11380005 325.85446167 235.01281738" stroke-width="1.94523501" fill="rgb(72, 143, 51)" opacity="1.0" stroke="rgb(12, 33, 7)" stroke-opacity="0.9298582" stroke-linecap="round" stroke-linejoin="round"/>
    <path d="M 231.02191162 162.20668030 C 229.02326965 164.48489380 227.02322388 166.76441956 225.06230164 169.11196899 C 223.09388733 171.36405945 221.15254211 173.60906982 219.14302063 175.86679077 C 217.17633057 178.04087830 215.17866516 180.15138245 213.31704712 182.16348267 C 211.28892517 184.09548950 209.30540466 185.93923950 207.31172180 187.56141663 C 205.11528015 188.70356750 202.77967834 189.75312805 200.21659851 190.31054688 C 197.58746338 190.67538452 194.72552490 190.79602051 191.65419006 190.69302368 C 188.67333984 190.60664368 185.88479614 190.22056580 182.99395752 189.58474731 C 180.11366272 189.10131836 177.41915894 188.14251709 174.72856140 186.99871826 C 172.02014160 185.95356750 169.51684570 184.34596252 167.13262939 182.53668213 C 164.65245056 180.64825439 162.44860840 178.28010559 160.32565308 175.84103394 C 158.40342712 173.36134338 156.86592102 170.56260681 155.42156982 167.77226257 C 154.18325806 165.14064026 153.31625366 162.37712097 152.34413147 159.52243042 C 151.85208130 156.47549438 151.58239746 153.41433716 151.59846497 150.14865112 C 151.61264038 146.84400940 151.78306580 143.78172302 152.32685852 140.83082581 C 153.14935303 138.04913330 154.00155640 135.30271912 154.77783203 132.76834106 C 155.84175110 130.50813293 157.07809448 128.23358154 158.25010681 126.23257446 C 159.45825195 124.15026093 160.86421204 122.23396301 162.41378784 120.49031830 C 164.03401184 118.64990997 165.65942383 116.92036438 167.41886902 115.29323578 C 169.38414001 113.79503632 171.32609558 112.33667755 173.62171936 111.14186096 C 176.22338867 110.00141144 178.78144836 108.52503204 181.52958679 107.47222900 C 184.72216797 106.62516022 187.78852844 106.07074738 190.84448242 105.44715118 C 194.12376404 105.08718109 197.41375732 105.11875153 200.57951355 105.09952545 C 203.52886963 105.31474304 206.47698975 105.87105560 209.52403259 106.66378784 C 212.42085266 107.66455841 215.10258484 108.96473694 217.62210083 110.49687958 C 220.01931763 112.22109985 222.36848450 114.08335114 224.63825989 116.13571167 C 226.64637756 118.28426361 228.38528442 120.57607269 229.95291138 123.00749207 C 231.36106873 125.56388092 232.56254578 128.17991638 233.48970032 130.83216858 C 234.01406860 133.60211182 234.23579407 136.53788757 234.54113770 139.49543762 C 234.32456970 142.31481934 234.25465393 145.16267395 234.18049622 148.04841614 C 233.97489929 150.88784790 233.69862366 153.70909119 231.02191162 162.20668030" stroke-width="1.89985466" fill="rgb(79, 162, 63)" opacity="1.0" stroke="rgb(12, 34, 10)" stroke-opacity="0.963278" stroke-linecap="round" stroke-linejoin="round"/>
    <path d="M 328.38409424 139.55065918 C 324.34359741 140.05070496 320.30145264 140.49536133 316.20925903 141.04275513 C 312.17984009 141.42529297 308.24005127 141.64669800 304.32989502 141.71241760 C 300.36840820 141.52008057 296.51840210 141.06816101 292.81173706 140.40721130 C 289.14553833 139.52384949 285.60244751 138.42944336 282.25689697 137.05943298 C 279.04873657 135.36120605 276.03054810 133.46568298 273.31896973 131.35461426 C 270.78970337 128.99168396 268.46646118 126.29069519 266.63049316 123.43283081 C 265.18743896 120.38970947 264.10977173 117.05803680 263.42572021 113.44660950 C 262.90499878 109.75061798 262.76583862 105.93322754 263.07971191 102.15097809 C 263.73373413 98.19438934 264.73364258 94.25426483 266.20141602 90.49095917 C 267.93582153 86.84499359 269.85528564 83.29086304 272.12551880 79.98503876 C 274.86291504 77.09729767 277.96231079 74.73197174 281.37420654 72.80035400 C 285.09197998 71.26933289 289.10626221 70.29017639 293.37402344 69.92017365 C 297.67758179 69.77061462 302.14099121 69.68625641 306.64916992 69.83716583 C 310.94589233 70.77376556 315.01950073 72.24487305 319.14099121 74.05751801 C 323.13088989 75.99996948 326.53173828 78.83638000 329.55529785 82.07464600 C 332.68173218 85.10729218 335.16943359 88.45872498 337.14239502 92.12232971 C 338.79824829 95.64881897 340.05960083 99.34883881 340.61608887 103.15081787 C 340.83654785 106.90190887 340.87503052 110.74166870 340.65820312 114.52036285 C 340.11547852 118.04002380 339.18817139 121.52221680 337.81085205 124.83884430 C 336.54275513 128.16195679 334.73748779 131.13575745 328.38409424 139.55065918" stroke-width="1.77184069" fill="rgb(95, 172, 63)" opacity="1.0" stroke="rgb(16, 49, 9)" stroke-opacity="0.95371187" stroke-linecap="round" stroke-linejoin="round"/>
    <path d="M 249.16462708 171.15435791 C 248.88418579 172.69914246 248.69046021 174.27688599 248.37496948 175.77380371 C 247.74551392 177.16065979 246.85842896 178.49089050 245.91627502 179.84796143 C 244.88998413 181.17442322 243.69894409 182.44502258 242.16708374 183.79660034 C 240.13294983 184.78068542 237.93891907 185.89323425 235.42828369 186.88349915 C 233.10415649 187.97253418 230.55137634 188.71846008 227.86134338 189.00166321 C 225.18444824 189.43193054 222.57246399 189.33277893 220.06330872 188.88858032 C 217.46731567 188.41581726 214.93170166 187.78768921 212.49613953 186.92506409 C 210.22012329 185.65225220 208.27706909 184.03829956 206.39450073 182.37965393 C 204.68695068 180.47885132 203.28765869 178.37348938 202.30181885 176.05789185 C 201.30926514 173.53524780 200.62298584 171.00051880 200.16093445 168.42428589 C 200.05091858 165.69233704 200.04826355 162.79432678 200.26560974 160.03919983 C 200.96490479 157.31654358 202.03314209 154.71804810 203.55117798 152.29786682 C 205.37850952 149.90771484 207.39031982 147.78204346 209.77636719 145.88887024 C 212.34072876 144.19754028 215.04948425 142.91148376 217.91329956 142.00947571 C 220.82524109 141.52511597 223.77598572 141.45645142 226.64305115 141.53456116 C 229.17532349 141.97808838 231.57186890 142.58995056 233.83145142 143.07199097 C 235.80154419 143.73200989 237.29222107 144.75869751 238.71311951 146.22680664 C 240.28858948 147.62518311 241.71784973 149.37602234 242.95143127 151.16685486 C 244.08096313 152.97221375 245.32725525 154.44387817 246.62869263 155.28872681 C 248.14674377 155.85508728 249.36280823 155.99348450 249.16462708 171.15435791" stroke-width="1.61307418" fill="rgb(115, 194, 91)" opacity="1.0" stroke="rgb(5, 25, 5)" stroke-opacity="0.86675453" stroke-linecap="round" stroke-linejoin="round"/>
    <path d="M 299.04104614 170.49783325 C 296.30368042 171.91136169 293.59957886 173.08917236 290.87945557 174.00404358 C 288.09503174 174.47434998 285.29187012 174.74345398 282.56781006 174.85900879 C 279.87927246 174.67355347 277.34875488 174.19250488 274.89443970 173.51115417 C 272.36740112 172.67008972 269.84808350 171.75874329 267.49319458 170.32936096 C 265.46569824 168.37309265 262.91738892 166.89752197 260.36718750 165.34104919 C 258.23944092 163.07426453 256.39746094 160.44169617 254.97729492 157.33448792 C 254.00305176 154.08557129 253.23423767 150.74230957 252.67349243 147.43424988 C 252.52471924 144.16856384 252.72375488 141.16229248 253.24856567 138.18981934 C 254.10034180 135.54481506 255.34497070 133.11260986 256.94052124 130.79870605 C 258.72421265 128.60214233 260.79901123 126.49184418 262.99645996 124.46039581 C 265.36630249 122.53047943 267.91189575 120.88435364 270.70800781 119.56572723 C 273.67904663 118.54627228 276.83441162 118.02098083 280.09732056 117.75100708 C 283.32608032 117.57341766 286.48059082 117.83133698 289.63830566 118.47175598 C 292.74215698 119.35023499 295.69729614 120.42884827 298.47146606 121.89530182 C 301.06060791 123.61799622 303.36523438 125.58007812 305.55856323 127.64714813 C 307.45474243 129.84213257 308.94717407 132.27351379 310.27795410 134.80108643 C 311.31546021 137.33624268 312.05322266 140.03285217 312.51235962 142.79571533 C 312.64816284 145.60354614 312.63882446 148.35766602 312.21298218 151.23854065 C 311.67849731 154.16793823 310.65289307 156.99807739 309.24160767 159.71859741 C 307.78421021 162.58728027 306.45938110 165.68539429 299.04104614 170.49783325" stroke-width="1.65164852" fill="rgb(145, 208, 120)" opacity="1.0" stroke="rgb(7, 24, 6)" stroke-opacity="0.8550181" stroke-linecap="round" stroke-linejoin="round"/>
    <path d="M 259.02084351 195.15602112 C 260.14984131 196.75730896 261.04711914 198.41821289 261.78897095 200.14492798 C 262.15750122 202.06851196 262.59756470 204.01313782 262.86611938 205.92037964 C 263.04846191 207.93020630 262.85754395 209.75193787 262.35037231 211.60835266 C 261.58004761 213.19709778 260.72506714 214.65145874 259.89486694 216.18162537 C 258.80340576 217.33299255 257.61679077 218.50630188 256.57519531 219.58113098 C 255.27793884 220.49569702 253.95085144 221.37786865 252.61557007 221.92863464 C 250.92227173 222.44238281 249.23136902 222.90127563 247.47933960 223.27107239 C 245.65559387 223.44284058 243.83245850 223.70803833 241.92764282 223.74148560 C 239.95242310 223.42579651 238.15000916 222.71205139 236.35722351 221.81394958 C 234.74444580 220.71237183 233.32717896 219.35148621 232.06871033 217.85574341 C 230.99205017 216.33908081 230.31501770 214.49613953 229.59117126 212.76780701 C 228.96641541 211.20556641 228.61376953 209.56915283 228.46150208 207.84135437 C 228.68766785 206.25769043 228.99850464 204.93885803 229.28794861 203.52725220 C 229.72441101 202.03416443 230.40229797 200.72908020 231.04605103 199.45274353 C 231.83735657 198.21617126 232.70809937 196.96682739 234.04678345 196.03909302 C 235.35267639 194.89610291 236.73992920 193.70806885 238.30366516 192.85902405 C 240.03082275 192.24565125 241.54554749 191.55773926 243.12850952 190.86463928 C 244.76779175 190.74806213 246.45614624 190.62199402 248.16503906 190.41557312 C 249.78843689 190.52842712 251.19602966 190.93490601 252.62709045 191.54389954 C 254.15499878 192.14512634 255.71046448 192.61262512 259.02084351 195.15602112" stroke-width="1.73398578" fill="rgb(159, 217, 134)" opacity="1.0" stroke="rgb(21, 30, 19)" stroke-opacity="0.9506764" stroke-linecap="round" stroke-linejoin="round"/>
    <path d="M 262.05084229 57.37007523 C 263.04840088 56.71451187 263.96145630 56.10194397 264.87069702 55.26092148 C 265.88037109 54.65981293 267.03100586 53.98352432 268.26626587 53.43436432 C 269.56161499 53.00558853 270.92697144 52.69115448 272.32055664 52.54079056 C 273.87240601 52.64316940 275.30432129 52.65289688 276.79248047 52.84577179 C 278.32119751 53.30187988 279.70495605 53.88154602 280.87350464 54.60664749 C 282.11154175 55.47412109 283.40426636 56.35644150 284.36538696 57.45768738 C 285.21969604 58.69970322 285.99334717 59.98428345 286.65216064 61.41850662 C 287.31210327 62.85105515 287.73757935 64.26422119 288.25262451 65.80087280 C 288.42202759 67.30304718 288.44296265 68.77784729 288.19940186 70.29418945 C 287.44552612 71.64335632 286.63967896 73.11302948 285.69366455 74.57564545 C 284.64639282 75.85378265 283.42984009 77.16057587 282.27706909 78.26567078 C 280.92401123 79.02998352 279.42938232 79.63066864 278.01504517 80.19361877 C 276.67208862 80.87344360 275.33706665 81.27501678 273.91293335 81.41216278 C 272.48806763 81.51122284 270.97360229 81.41506958 269.52124023 81.18988800 C 268.13009644 80.69488525 266.67752075 80.21184540 265.21359253 79.51937103 C 263.81307983 78.69429779 262.56082153 77.77626801 261.37677002 76.60803986 C 260.37826538 75.17083740 259.51303101 73.63310242 258.84091187 72.20958710 C 258.49160767 70.67267609 258.19396973 69.08139801 258.03869629 67.59610748 C 258.17752075 66.26444244 258.37335205 64.99757385 258.75875854 63.64844131 C 259.15466309 62.24496460 259.54669189 60.86264801 262.05084229 57.37007523" stroke-width="1.72872436" fill="rgb(183, 228, 160)" opacity="1.0" stroke="rgb(13, 31, 11)" stroke-opacity="0.8875358" stroke-linecap="round" stroke-linejoin="round"/>
    <path d="M 223.81622314 336.70529175 C 225.29115295 338.11700439 226.76986694 339.51123047 228.08781433 340.95510864 C 229.26231384 342.44705200 230.33091736 343.75769043 231.19575500 344.99917603 C 231.94035339 345.79183960 232.76890564 346.49624634 233.03997803 347.26254272 C 232.92095947 347.81552124 232.39755249 348.21981812 231.44116211 348.67175293 C 230.31082153 349.23587036 228.82788086 349.85427856 227.09713745 350.39688110 C 225.04754639 350.41241455 222.76423645 350.44497681 220.24224854 350.48693848 C 217.45419312 350.42257690 214.44166565 350.57482910 211.34663391 350.45086670 C 208.20825195 350.57388306 205.12899780 350.67425537 202.10905457 350.61495972 C 199.19200134 350.49871826 196.39875793 350.52206421 193.76846313 350.61053467 C 191.37184143 350.72860718 189.17903137 350.59347534 187.28413391 350.59115601 C 185.70594788 350.88595581 184.44273376 350.93768311 183.56068420 350.88018799 C 183.11264038 350.55923462 182.95831299 350.17584229 183.22125244 349.38235474 C 183.75596619 348.25094604 184.29722595 346.88244629 185.18438721 345.31964111 C 186.43693542 343.65246582 187.70185852 341.71188354 189.09056091 339.88226318 C 190.68284607 338.18557739 192.47383118 336.67535400 194.29898071 335.23184204 C 196.20959473 334.13510132 197.94441223 332.98638916 199.74142456 332.03952026 C 201.69711304 331.54385376 203.48123169 331.19955444 205.32144165 330.99151611 C 207.19309998 331.22045898 208.95829773 331.32717896 210.66271973 331.29339600 C 212.44714355 331.58380127 214.16114807 332.09310913 216.00025940 332.54278564 C 217.73725891 333.14443970 219.69328308 333.76806641 223.81622314 336.70529175" stroke-width="1.88981175" fill="rgb(227, 217, 183)" opacity="1.0" stroke="rgb(2, 0, 3)" stroke-opacity="0.8186125" stroke-linecap="round" stroke-linejoin="round"/>
    <path d="M 296.32287598 350.37155151 C 293.88897705 350.48266602 291.44546509 350.46694946 289.01486206 350.47732544 C 286.44610596 350.57351685 283.86090088 350.55911255 281.19601440 350.47198486 C 278.58633423 350.45938110 275.93743896 350.40975952 273.26663208 350.46151733 C 270.44290161 350.31640625 267.75616455 350.37176514 265.14028931 350.46472168 C 262.52859497 350.45666504 259.93298340 350.36740112 257.42276001 350.36822510 C 255.16481018 350.41766357 253.26269531 350.43499756 251.58628845 350.40347290 C 250.28776550 350.48510742 249.36978149 350.62655640 248.76867676 350.47845459 C 248.48394775 349.80596924 248.50013733 349.00387573 249.09605408 348.18096924 C 250.23785400 347.34194946 251.82550049 346.58868408 253.26260376 345.98226929 C 254.11570740 344.86450195 254.81192017 343.53359985 255.80189514 342.30972290 C 257.32162476 341.32104492 258.87548828 340.16589355 260.50137329 338.76870728 C 262.23709106 337.42672729 264.10989380 336.28353882 266.07403564 335.33261108 C 268.14245605 334.70166016 270.11849976 334.19445801 271.91253662 333.60058594 C 273.80856323 333.30792236 275.72647095 333.24295044 277.76269531 333.45471191 C 279.71954346 333.53894043 281.52471924 334.07305908 283.22412109 334.70648193 C 285.02145386 335.32000732 286.63665771 336.22372437 288.13528442 337.16235352 C 289.46707153 338.26119995 290.67877197 339.51290894 291.80114746 340.76068115 C 292.85653687 342.29226685 293.73858643 343.75933838 294.72601318 345.15005493 C 295.74526978 346.56347656 296.91506958 347.84060669 298.05688477 349.21945190 C 299.40521240 350.11151123 300.68103027 351.38446045 296.32287598 350.37155151" stroke-width="1.95709598" fill="rgb(228, 219, 185)" opacity="1.0" stroke="rgb(8, 0, 0)" stroke-opacity="0.8440962" stroke-linecap="round" stroke-linejoin="round"/>
    <path d="M 324.44671631 348.52832031 C 326.15277100 348.05123901 327.80856323 347.62448120 329.40829468 347.52883911 C 330.89712524 347.52481079 332.39401245 347.61837769 333.82046509 347.74740601 C 335.05084229 347.99624634 336.03619385 348.34707642 336.71691895 348.82150269 C 337.34005737 349.32055664 337.87704468 349.68203735 338.20486450 350.02551270 C 338.13610840 350.32870483 337.80267334 350.59048462 337.35888672 350.79794312 C 336.84988403 350.79367065 336.14987183 350.62887573 335.17059326 350.50097656 C 334.09582520 350.63662720 332.89999390 350.67852783 331.76251221 350.60684204 C 330.47326660 350.54968262 329.06881714 350.49520874 327.58526611 350.55700684 C 326.10794067 350.65014648 324.57559204 350.67483521 323.08651733 350.90084839 C 321.54693604 350.81808472 320.04385376 350.66339111 324.44671631 348.52832031" stroke-width="1.88704789" fill="rgb(243, 236, 205)" opacity="1.0" stroke="rgb(30, 12, 3)" stroke-opacity="0.8868205" stroke-linecap="round" stroke-linejoin="round"/>
    <path d="M 309.61181641 350.92733765 C 309.02294922 350.62695312 308.27957153 350.65246582 307.48260498 350.83297729 C 306.49578857 350.79605103 305.49978638 350.78881836 304.58041382 350.87097168 C 303.67800903 350.89071655 303.02325439 350.90969849 302.45242310 350.95135498 C 301.97003174 350.67953491 301.75167847 350.20675659 301.74191284 349.68423462 C 301.89236450 349.24340820 302.28085327 348.76535034 302.75042725 348.39501953 C 303.65020752 348.19628906 304.65103149 347.92922974 305.67834473 347.62570190 C 306.83486938 347.59442139 308.04809570 347.58361816 309.21878052 347.66500854 C 310.44879150 347.88287354 311.65924072 348.16964722 312.59896851 348.40475464 C 313.34899902 348.93188477 314.16006470 349.32711792 315.02770996 349.60180664 C 315.71850586 350.23193359 316.37698364 350.97848511 309.61181641 350.92733765" stroke-width="1.89386022" fill="rgb(228, 217, 185)" opacity="1.0" stroke="rgb(40, 24, 17)" stroke-opacity="0.8553109" stroke-linecap="round" stroke-linejoin="round"/>
  </g>
</svg>
