<?xml version="1.0" ?>
<svg xmlns="http://www.w3.org/2000/svg" version="1.1" width="512" height="512" viewBox="0 0 512 512">
  <defs/>
  <g>
    <path d="M 349.23107910 442.69952393 C 345.17807007 444.30868530 340.97131348 445.61178589 336.48794556 446.08389282 C 331.52368164 446.02294922 326.22094727 445.97006226 320.70202637 445.95327759 C 314.97216797 445.98944092 308.98394775 445.87490845 302.64819336 445.85104370 C 295.97515869 445.95901489 289.15335083 446.02960205 282.24615479 445.87008667 C 275.15417480 445.68579102 267.81246948 445.82376099 260.28866577 445.84921265 C 252.56338501 445.68603516 244.77143860 445.82473755 236.98947144 445.91177368 C 229.11221313 445.80087280 221.18263245 445.77801514 213.38529968 445.93786621 C 205.75289917 445.96560669 198.30886841 445.90136719 191.20947266 445.86376953 C 184.51152039 446.00793457 178.23051453 446.18771362 172.43351746 446.16439819 C 167.29385376 446.20785522 162.88681030 445.84811401 159.19918823 444.29931641 C 156.21522522 441.66537476 154.19114685 438.01989746 153.56710815 433.31964111 C 153.26356506 427.41870117 153.49980164 420.60241699 153.43812561 413.05023193 C 153.49449158 404.94732666 153.52294922 396.62527466 153.58064270 388.42575073 C 153.53811646 380.51684570 153.48109436 373.09463501 153.54695129 366.51931763 C 153.43272400 361.02206421 153.22502136 356.91299438 154.31248474 354.10736084 C 156.13108826 352.49798584 158.79841614 352.45935059 162.19145203 352.62875366 C 165.52902222 350.74749756 170.13887024 350.30838013 175.48936462 349.03228760 C 181.34466553 348.40762329 187.49729919 348.55392456 194.25785828 348.38565063 C 201.47100830 347.83163452 208.60887146 347.60607910 215.52357483 347.60147095 C 222.44392395 347.88735962 229.34786987 348.65945435 235.91104126 348.73660278 C 242.10069275 346.38305664 249.12405396 345.76284790 256.97268677 346.05603027 C 265.34109497 346.25302124 274.12231445 346.51684570 283.06021118 346.82763672 C 291.85241699 347.53958130 300.41049194 348.66052246 308.72155762 350.15371704 C 316.66125488 350.86380005 324.10421753 350.81140137 330.87060547 350.96170044 C 336.99502563 351.44519043 342.40820312 351.82116699 346.87075806 351.99957275 C 349.86624146 351.81738281 351.72891235 352.75210571 352.75964355 355.06030273 C 353.12942505 358.42919922 353.04568481 363.07287598 353.08978271 368.74218750 C 353.17471313 375.33050537 353.03262329 382.78359985 353.23953247 391.00421143 C 353.17111206 399.71737671 353.25396729 408.92465210 353.08370972 418.48800659 C 353.34350586 428.51739502 354.18060303 438.69583130 349.23107910 442.69952393" stroke-width="2.00000000" fill="rgb(173, 84, 41)" opacity="1.0" stroke="rgb(22, 6, 0)" stroke-opacity="0.86901385" stroke-linecap="round" stroke-linejoin="round"/>
    <path d="M 344.77136230 447.37783813 C 335.68661499 447.48623657 326.57571411 447.45318604 317.55581665 447.31411743 C 308.62008667 447.37561035 299.69256592 447.40344238 290.93972778 447.41351318 C 282.25997925 447.26861572 273.62667847 447.38684082 265.10552979 447.33813477 C 256.66366577 447.34143066 248.25531006 447.36840820 239.72639465 447.51846313 C 231.02832031 447.23114014 222.43647766 447.40643311 214.15586853 447.32107544 C 206.07864380 447.40017700 198.38212585 447.37786865 191.21324158 447.46096802 C 184.60076904 447.34725952 178.65286255 447.48333740 173.37901306 447.48236084 C 168.83323669 447.40167236 165.13648987 447.44949341 162.32943726 446.70169067 C 160.20924377 445.56558228 158.85330200 444.69860840 158.75648499 444.03329468 C 160.11730957 443.90802002 162.79989624 444.02258301 166.55430603 444.14199829 C 171.20547485 444.18347168 176.61276245 444.21688843 182.67919922 444.13955688 C 189.27629089 444.23004150 196.40605164 444.22091675 203.90283203 444.10775757 C 211.68736267 444.17114258 219.62191772 444.18200684 227.63391113 444.13665771 C 235.69226074 444.18893433 243.75903320 444.19665527 251.75859070 444.15881348 C 259.62997437 444.09661865 267.29101562 444.10345459 274.76104736 444.13754272 C 282.03756714 444.12408447 289.12277222 444.12084961 295.88070679 444.13543701 C 302.34063721 444.11242676 308.50137329 444.25097656 314.42431641 444.20162964 C 320.03338623 444.03515625 325.35339355 444.18435669 330.37744141 444.30288696 C 335.05136108 444.19989014 339.39230347 444.26577759 343.35485840 444.41354370 C 346.94021606 444.21801758 350.25683594 443.40008545 344.77136230 447.37783813" stroke-width="1.79348981" fill="rgb(172, 86, 53)" opacity="1.0" stroke="rgb(39, 0, 0)" stroke-opacity="0.6647469" stroke-linecap="round" stroke-linejoin="round"/>
    <path d="M 248.36930847 300.26382446 C 249.87297058 309.44091797 251.27073669 318.18133545 253.16305542 326.07406616 C 255.07772827 332.87918091 256.00680542 338.33697510 255.27597046 342.56060791 C 252.42440796 344.97885132 248.90396118 345.61209106 245.77760315 344.39959717 C 243.82948303 340.33258057 242.18046570 334.60833740 240.71905518 327.16076660 C 238.40400696 318.94638062 237.00346375 309.65466309 236.24128723 299.49044800 C 235.67222595 288.85726929 236.11140442 277.85968018 237.03941345 266.75683594 C 237.85459900 255.64924622 240.13471985 244.94148254 243.88783264 233.90650940 C 246.24446106 221.62756348 247.32522583 209.15826416 246.79450989 197.20550537 C 244.23851013 186.66949463 242.74757385 177.31597900 244.65251160 168.79821777 C 247.79039001 160.89295959 248.79966736 153.57058716 247.37236023 146.94400024 C 247.47361755 141.38436890 249.84371948 136.75198364 253.11619568 132.99194336 C 256.26635742 129.46076965 258.90396118 126.20927429 261.03317261 123.30278015 C 262.77700806 120.84477997 264.12194824 118.99742126 265.10122681 117.90714264 C 265.70947266 117.65200806 265.90939331 118.28379822 265.78997803 119.82701874 C 265.50552368 122.35472870 265.09942627 125.92823029 264.54830933 130.52723694 C 263.86965942 136.11705017 263.05322266 142.65055847 262.26800537 150.05158997 C 261.53625488 158.26174927 260.96569824 167.28047180 260.36840820 176.97924805 C 259.91317749 187.20172119 259.76763916 197.91244507 258.78240967 209.02583313 C 256.71368408 220.56770325 253.94943237 232.30047607 251.42567444 244.57502747 C 249.40876770 257.21286011 246.87884521 269.92904663 248.36930847 300.26382446" stroke-width="0.50667489" fill="rgb(109, 57, 31)" opacity="1.0" stroke="rgb(0, 0, 0)" stroke-opacity="0.3989911" stroke-linecap="round" stroke-linejoin="round"/>
    <path d="M 207.66224670 232.35693359 C 209.18540955 232.65725708 210.73965454 232.93940735 212.28669739 233.19355774 C 213.85874939 233.46392822 215.42977905 233.73127747 216.98490906 233.99816895 C 218.55354309 234.21809387 220.07945251 234.33952332 221.55139160 234.42263794 C 222.95407104 234.53804016 224.33717346 234.58674622 225.66304016 234.70117188 C 226.83424377 235.41734314 228.24812317 235.87538147 229.68443298 236.32838440 C 231.25218201 236.90901184 232.87464905 237.29559326 234.67147827 237.55827332 C 236.22380066 237.91862488 237.60893250 238.43960571 238.97319031 238.86726379 C 240.30522156 239.05427551 241.38510132 239.30168152 242.28083801 239.72834778 C 242.78918457 240.25248718 242.77011108 240.99436951 242.48410034 241.81448364 C 242.16482544 242.75831604 241.81166077 243.86753845 241.51742554 244.96168518 C 241.34216309 245.81367493 241.05062866 246.22154236 240.50170898 246.20141602 C 239.73103333 245.95159912 238.81607056 245.46307373 237.97052002 244.76406860 C 236.90730286 244.30290222 235.66714478 244.18135071 234.33053589 243.89364624 C 233.03646851 243.26138306 231.56077576 242.77911377 229.95689392 242.23002625 C 228.57513428 241.52139282 227.01786804 241.01834106 225.40820312 240.80964661 C 223.76577759 240.68469238 222.09988403 240.51887512 220.47802734 240.34115601 C 218.87036133 240.19500732 217.24606323 240.05769348 215.62397766 239.95539856 C 213.99508667 239.82879639 212.34896851 239.69027710 210.65513611 239.57424927 C 208.99914551 239.46235657 207.37194824 239.29310608 205.72613525 239.12915039 C 204.08154297 239.00674438 202.43244934 238.93560791 207.66224670 232.35693359" stroke-width="0.59917229" fill="rgb(84, 48, 34)" opacity="1.0" stroke="rgb(18, 8, 0)" stroke-opacity="0.3535126" stroke-linecap="round" stroke-linejoin="round"/>
    <path d="M 292.30975342 190.82661438 C 290.16378784 191.04165649 288.11041260 191.29872131 286.13082886 191.54125977 C 284.16308594 191.76005554 282.18652344 191.91670227 280.24118042 192.00595093 C 278.31805420 192.01477051 276.37615967 191.97589111 274.43344116 192.13632202 C 272.62176514 192.81399536 270.74676514 193.54054260 269.10943604 194.50985718 C 267.63888550 195.48757935 266.25042725 196.23794556 265.18441772 197.13302612 C 264.42309570 197.69891357 263.80078125 198.00743103 263.28967285 197.65943909 C 262.93618774 196.77563477 262.33215332 195.66012573 261.35488892 194.86248779 C 260.44033813 193.95266724 259.73617554 193.15078735 259.72332764 192.47958374 C 260.21646118 192.03433228 260.95416260 191.98620605 261.89916992 191.86250305 C 263.00692749 191.28565979 264.07241821 190.43923950 265.58044434 189.78269958 C 267.61126709 189.26043701 269.60650635 188.60668945 271.53207397 187.79846191 C 273.44992065 187.40606689 275.21307373 186.99200439 276.62277222 185.97859192 C 278.16149902 185.03672791 279.82894897 184.35501099 281.66769409 183.98635864 C 283.53161621 183.77877808 285.39282227 183.71003723 287.22921753 183.80816650 C 289.01217651 184.07891846 290.70141602 184.47033691 292.25827026 184.89906311 C 293.65560913 185.30825806 294.94818115 185.79431152 296.22424316 186.36813354 C 297.43743896 186.98733521 298.52285767 187.59130859 299.51428223 188.18913269 C 300.46334839 188.84957886 301.38525391 189.57885742 302.22366333 190.31169128 C 302.99288940 191.03253174 303.77746582 191.75016785 304.53106689 192.45416260 C 305.28985596 193.14411926 306.08905029 193.86091614 292.30975342 190.82661438" stroke-width="0.61100256" fill="rgb(78, 37, 27)" opacity="1.0" stroke="rgb(0, 0, 0)" stroke-opacity="0.3860266" stroke-linecap="round" stroke-linejoin="round"/>
    <path d="M 235.85226440 137.28144836 C 233.81591797 137.85247803 231.76617432 138.40011597 229.78903198 138.89517212 C 227.83081055 139.38470459 225.91004944 139.84017944 224.09671021 140.23950195 C 222.32374573 140.59082031 220.63383484 140.85841370 219.04542542 141.08590698 C 217.56642151 141.22097778 216.22000122 141.24639893 215.00207520 141.20306396 C 213.91157532 141.09724426 212.98242188 140.88081360 212.22134399 140.56513977 C 211.65032959 140.16300964 211.25761414 139.68919373 211.05146790 139.17181396 C 210.98390198 138.61360168 211.16252136 137.93486023 211.55236816 137.26054382 C 212.14260864 136.60154724 212.91546631 135.88044739 213.91400146 135.07130432 C 215.08703613 134.28170776 216.42941284 133.48388672 217.94882202 132.70420837 C 219.63166809 131.98072815 221.47790527 131.37350464 223.40908813 130.89817810 C 225.36476135 130.61528015 227.39268494 130.45796204 229.48658752 130.46217346 C 231.59297180 130.64866638 233.63024902 131.03637695 235.67576599 131.45828247 C 237.74635315 131.84854126 239.78652954 132.14035034 241.60133362 132.39340210 C 243.11441040 132.60330200 244.38391113 132.90769958 245.31983948 133.50132751 C 245.73358154 134.32463074 245.96505737 135.12524414 246.42018127 135.76176453 C 247.28614807 136.00965881 248.40042114 136.03981018 249.56295776 136.05477905 C 250.56033325 135.85047913 251.29283142 135.41615295 251.86877441 135.29153442 C 252.17005920 135.68055725 252.14401245 136.42642212 252.01017761 137.43594360 C 251.86666870 138.68345642 251.68586731 140.08885193 251.52062988 141.43394470 C 251.59774780 142.61581421 251.79971313 143.73890686 235.85226440 137.28144836" stroke-width="0.49049458" fill="rgb(63, 37, 26)" opacity="1.0" stroke="rgb(0, 16, 14)" stroke-opacity="0.4459207" stroke-linecap="round" stroke-linejoin="round"/>
    <path d="M 170.14192200 275.05664062 C 167.07940674 273.93774414 164.19859314 272.27783203 161.31025696 270.42279053 C 158.39021301 268.46789551 155.79421997 266.11843872 153.66506958 263.25839233 C 151.40110779 260.40533447 149.57923889 257.20419312 148.19738770 253.60560608 C 146.90956116 249.78207397 145.99873352 245.88179016 145.73321533 241.70690918 C 145.41001892 237.86752319 145.77851868 233.85816956 146.36306763 229.97204590 C 147.26817322 226.22935486 148.61120605 222.56536865 150.45014954 219.05001831 C 152.62887573 215.49177551 155.19483948 212.15777588 158.29376221 209.26185608 C 161.62980652 206.65188599 165.29542542 204.45912170 169.23831177 202.67683411 C 173.45129395 201.13531494 177.73211670 200.21850586 182.27203369 199.99366760 C 186.82165527 199.77171326 191.09335327 200.38534546 195.17292786 201.82788086 C 199.10237122 202.62361145 202.70071411 204.53633118 206.28524780 206.59986877 C 209.76306152 208.76976013 212.70935059 211.52409363 215.33573914 214.60581970 C 217.91914368 217.69454956 220.06369019 220.96784973 221.57810974 224.46426392 C 223.04742432 228.03892517 224.16896057 231.27005005 224.17379761 234.89640808 C 224.00862122 238.77586365 223.71917725 242.76780701 222.79728699 246.66282654 C 221.80824280 250.45446777 220.23161316 253.93832397 218.33494568 257.32763672 C 216.60145569 260.62484741 214.20265198 263.40863037 211.71443176 266.16018677 C 208.90490723 268.65505981 205.88546753 270.86947632 202.47676086 272.82479858 C 198.77529907 274.58425903 194.61106873 276.00137329 190.04653931 276.87454224 C 184.95329285 277.08804321 179.53915405 277.77188110 170.14192200 275.05664062" stroke-width="0.48464575" fill="rgb(39, 88, 35)" opacity="1.0" stroke="rgb(20, 0, 27)" stroke-opacity="0.3829571" stroke-linecap="round" stroke-linejoin="round"/>
    <path d="M 218.58703613 129.09039307 C 216.91542053 125.75036621 215.24726868 122.52419281 213.56246948 119.40550995 C 211.79365540 116.37280273 209.93382263 113.36061096 208.06976318 110.32513428 C 206.25248718 107.25860596 204.44470215 104.24285126 202.59458923 101.41586304 C 201.33586121 98.44248199 199.88684082 95.51342010 198.51091003 92.39293671 C 197.67367554 88.69314575 197.03376770 85.00625610 196.41625977 80.86836243 C 196.08602905 76.97491455 196.57521057 73.28034210 196.73867798 69.59243011 C 197.64437866 66.02059937 198.28723145 62.46759796 199.35722351 59.00775528 C 200.86366272 55.67538834 202.50193787 52.30770111 204.46574402 48.90357208 C 206.98590088 45.63513184 209.46707153 42.33755112 212.33293152 39.50627136 C 215.15295410 36.67121124 218.49574280 34.27565384 221.90371704 31.94371986 C 225.88414001 30.06741333 229.74394226 28.09936142 233.86819458 26.75294685 C 238.25756836 25.66052055 242.52294922 24.23185730 247.14909363 23.91821289 C 251.84794617 23.55017471 256.46765137 23.29231071 260.77691650 23.88739014 C 265.03082275 24.38749695 268.94845581 25.35515213 272.86441040 26.32124329 C 276.13772583 27.36031342 279.09979248 29.15120316 282.18093872 30.87062836 C 285.36340332 32.30815125 288.15072632 34.40811157 291.25436401 36.46997833 C 294.14712524 38.78899765 296.69903564 41.48397827 299.02072144 44.30056763 C 301.37564087 46.99015808 303.15551758 50.04486084 304.65036011 53.46977997 C 306.06280518 56.99894333 307.29162598 60.64120483 308.29327393 64.14348602 C 308.85552979 67.91713715 309.04736328 71.71140289 308.89505005 75.43039703 C 308.58032227 79.17495728 308.02944946 82.96475983 307.24130249 86.72697449 C 306.25830078 90.34234619 305.12268066 93.76676941 303.80233765 97.09371185 C 302.22225952 100.31880951 300.37350464 103.32751465 298.25482178 106.10324097 C 295.92730713 108.75096130 293.47747803 111.36517334 290.87728882 113.93316650 C 288.09118652 116.38360596 285.13128662 118.70111084 282.09921265 120.84097290 C 279.02624512 122.78037262 275.87612915 124.49922180 272.57910156 126.01110840 C 269.12677002 127.35241699 265.68118286 128.43798828 262.32598877 129.16249084 C 258.97787476 129.52865601 255.64097595 129.48205566 252.38719177 129.24815369 C 249.14416504 130.05267334 245.94059753 130.74977112 242.63038635 131.12934875 C 239.19673157 131.13679504 235.52334595 130.89945984 218.58703613 129.09039307" stroke-width="1.91736841" fill="rgb(54, 136, 38)" opacity="1.0" stroke="rgb(13, 35, 8)" stroke-opacity="0.93920964" stroke-linecap="round" stroke-linejoin="round"/>
    <path d="M 325.69396973 234.98866272 C 322.80517578 234.73747253 319.73919678 234.82516479 317.03488159 234.19509888 C 314.15548706 234.01118469 311.34539795 232.96881104 308.31994629 232.37351990 C 305.40646362 231.29206848 302.30935669 230.16912842 299.53643799 228.54872131 C 296.70108032 226.89849854 294.13299561 225.12011719 292.13171387 222.73699951 C 289.64395142 220.91534424 287.80505371 218.43330383 286.14254761 215.67564392 C 283.93637085 213.12155151 282.47375488 210.06394958 281.17745972 206.48165894 C 279.95602417 202.97943115 279.41824341 199.34275818 278.46432495 195.83792114 C 278.56048584 192.27606201 278.75344849 188.91807556 278.66781616 185.53167725 C 279.03952026 182.36804199 279.68063354 179.37747192 280.70471191 176.51095581 C 281.69158936 173.65235901 282.94296265 170.87060547 284.33282471 168.03636169 C 285.80764771 165.21272278 287.44869995 162.56010437 289.27374268 159.99121094 C 291.20202637 157.38848877 293.24920654 154.85350037 295.40826416 152.50442505 C 297.68957520 150.38374329 300.10595703 148.38491821 302.66528320 146.46041870 C 305.39147949 144.70445251 308.26312256 143.28099060 311.16085815 142.20381165 C 314.11370850 141.47784424 317.18621826 141.01809692 320.28363037 140.84111023 C 323.30593872 141.01763916 326.25259399 141.43107605 329.16030884 142.05543518 C 331.90899658 143.07922363 334.77426147 143.23434448 337.83627319 143.58363342 C 340.87182617 144.58714294 343.83575439 146.01904297 346.74468994 147.67422485 C 349.76647949 149.17561340 352.55587769 150.91110229 354.99972534 153.05743408 C 357.27145386 155.20736694 359.60260010 157.32603455 361.72482300 159.70574951 C 363.71594238 162.36357117 365.37402344 165.30288696 366.79211426 168.08366394 C 368.43814087 170.59556580 369.50567627 173.30740356 369.70837402 176.20976257 C 370.83108521 179.33146667 371.53027344 182.62522888 371.72970581 186.03691101 C 372.01724243 189.55874634 371.47027588 193.38909912 371.31237793 196.88253784 C 370.64031982 200.28483582 369.53399658 203.42898560 368.24313354 206.55845642 C 367.18460083 209.84466553 365.38714600 212.55899048 363.34469604 215.24354553 C 361.63247681 218.27525330 359.33331299 220.60450745 356.97631836 223.09178162 C 354.34286499 225.06614685 351.75640869 226.91656494 349.12451172 228.54609680 C 346.64099121 229.73730469 344.15066528 230.77293396 341.64303589 231.97937012 C 338.51828003 232.98915100 335.53744507 234.28942871 325.69396973 234.98866272" stroke-width="1.94133711" fill="rgb(69, 144, 48)" opacity="1.0" stroke="rgb(14, 33, 9)" stroke-opacity="0.93314946" stroke-linecap="round" stroke-linejoin="round"/>
    <path d="M 230.92024231 163.08406067 C 228.94110107 165.35343933 226.96910095 167.54954529 224.98739624 169.66328430 C 223.01162720 171.70864868 220.99308777 173.75749207 218.96076965 175.87312317 C 216.94459534 178.00543213 214.95742798 180.12203979 212.99728394 182.08810425 C 211.06399536 183.98770142 209.18449402 185.85147095 207.25918579 187.59678650 C 205.04360962 188.63801575 202.73927307 189.76948547 200.26492310 190.28765869 C 197.52102661 190.77403259 194.55863953 190.82650757 191.62461853 190.68527222 C 188.59454346 190.56486511 185.64830017 190.14451599 182.65945435 189.58435059 C 179.84191895 189.06808472 177.16094971 188.09701538 174.47895813 186.96379089 C 171.78572083 185.87936401 169.46852112 184.49201965 167.33174133 182.48297119 C 164.69438171 180.75163269 162.46740723 178.30444336 160.21881104 175.82592773 C 158.29232788 173.16654968 156.97003174 170.15426636 155.20045471 167.73533630 C 154.04640198 165.13291931 153.36389160 162.36552429 152.42562866 159.66123962 C 151.93087769 156.47917175 151.54518127 153.24546814 151.55867004 149.96557617 C 151.68992615 146.62315369 151.98600769 143.24118042 152.43586731 139.96835327 C 153.31677246 137.33128357 154.24745178 134.88513184 154.88439941 132.39912415 C 156.02282715 130.32373047 157.15956116 128.26663208 158.22834778 126.17868042 C 159.40336609 124.11159515 160.78004456 122.22429657 162.46437073 120.53503418 C 164.10629272 118.68215179 165.87695312 116.91952515 167.63786316 115.22570038 C 169.44715881 113.71488953 171.27606201 112.39080048 173.51577759 111.11708069 C 176.15534973 110.09243011 178.73068237 108.54444885 181.59629822 107.44621277 C 184.75010681 106.76463318 187.81962585 106.00098419 190.97569275 105.45929718 C 194.06600952 105.04744720 197.31893921 105.09933472 200.60319519 105.18418121 C 203.76466370 105.18363190 206.55050659 105.75339508 209.28959656 106.74774933 C 212.23829651 107.71800232 215.06645203 108.89793396 217.57287598 110.51452637 C 220.18304443 112.14864349 222.46511841 114.08068848 224.64329529 116.08662415 C 226.61657715 118.19492340 228.27203369 120.56321716 229.93379211 122.99952698 C 231.35395813 125.41910553 232.64271545 128.00453186 233.50785828 130.84043884 C 233.88520813 133.74028015 233.99922180 136.58491516 234.54345703 139.46749878 C 234.20344543 142.27021790 234.19453430 145.06509399 234.19430542 147.92068481 C 234.14785767 150.82212830 234.17118835 153.73374939 230.92024231 163.08406067" stroke-width="1.88677239" fill="rgb(78, 162, 61)" opacity="1.0" stroke="rgb(12, 36, 11)" stroke-opacity="0.9582164" stroke-linecap="round" stroke-linejoin="round"/>
    <path d="M 328.49285889 139.55104065 C 324.25643921 140.07754517 320.07461548 140.47558594 315.86087036 141.02601624 C 311.81365967 141.46199036 307.80990601 141.78210449 303.76205444 141.82069397 C 299.77209473 141.55038452 295.90048218 141.05355835 292.14767456 140.34646606 C 288.55780029 139.37580872 285.08944702 138.18113708 281.74740601 136.75402832 C 278.61975098 135.05656433 275.67163086 133.14637756 272.92068481 131.03817749 C 270.46255493 128.64205933 268.37496948 125.98693085 266.63958740 123.15053558 C 265.15270996 120.16252899 264.01782227 116.95537567 263.41400146 113.45816803 C 262.92608643 109.74822998 262.74618530 106.06716919 263.09988403 102.21276093 C 263.76574707 98.31152344 264.70773315 94.45190430 266.20468140 90.70315552 C 267.86755371 86.88764954 269.79528809 83.30777740 272.00030518 79.93464661 C 274.74929810 76.82403564 277.78555298 74.21612549 281.13546753 72.28417969 C 284.93615723 70.97422028 289.11077881 70.26181793 293.42468262 69.99156189 C 297.79846191 69.74853516 302.20019531 69.63750458 306.64059448 69.80665588 C 310.94512939 70.78963470 315.13464355 72.17147827 319.09506226 74.02181244 C 323.10198975 76.06873322 326.58200073 78.84466553 329.69689941 82.09735107 C 332.82141113 85.12821960 335.26873779 88.68317413 337.34176636 92.40070343 C 338.79226685 96.03472900 340.07238770 99.50775909 340.62710571 103.12825775 C 340.92169189 106.85853577 340.86560059 110.56941223 340.67733765 114.29658508 C 340.09390259 117.88989258 339.28158569 121.14212799 337.96533203 124.45709991 C 336.85098267 127.74146271 335.08453369 130.55490112 328.49285889 139.55104065" stroke-width="1.77383757" fill="rgb(95, 174, 63)" opacity="1.0" stroke="rgb(17, 48, 9)" stroke-opacity="0.94311327" stroke-linecap="round" stroke-linejoin="round"/>
    <path d="M 249.22312927 170.18367004 C 248.96578979 172.19105530 248.70701599 173.99684143 248.31687927 175.66864014 C 247.62600708 177.17733765 246.68824768 178.59907532 245.83528137 179.93847656 C 244.77281189 181.15533447 243.61724854 182.28913879 242.32392883 183.62290955 C 240.29270935 184.59831238 238.05670166 185.93977356 235.52539062 186.88160706 C 232.87966919 187.97688293 230.57760620 188.68473816 227.96543884 188.98904419 C 225.33416748 189.46942139 222.80978394 189.32574463 220.07913208 188.83140564 C 217.39842224 188.52326965 214.73190308 187.94149780 212.44746399 186.90818787 C 210.27859497 185.45796204 208.17843628 184.00067139 206.34249878 182.28973389 C 204.73017883 180.36877441 203.38896179 178.34126282 202.29792786 176.06622314 C 201.33012390 173.63340759 200.67044067 171.06968689 200.18562317 168.46832275 C 200.10487366 165.79360962 200.17074585 162.97856140 200.26467896 160.16929626 C 200.95892334 157.49674988 202.07356262 154.74957275 203.63816833 152.18986511 C 205.52409363 149.65368652 207.65692139 147.37466431 210.26322937 145.55874634 C 212.91027832 143.80479431 215.76251221 142.58520508 218.82237244 141.82565308 C 221.91268921 141.50904846 224.90437317 141.38800049 227.77597046 141.54548645 C 230.10285950 142.18588257 232.31544495 142.93292236 234.36846924 143.24038696 C 236.03810120 143.76271057 237.30545044 144.90769958 238.59326172 146.22883606 C 240.30064392 147.45358276 241.58113098 149.40869141 242.94906616 151.34950256 C 244.32420349 153.20390320 245.65359497 154.82637024 246.99162292 155.56420898 C 248.14408875 155.78010559 249.07832336 155.71238708 249.22312927 170.18367004" stroke-width="1.60718060" fill="rgb(114, 193, 93)" opacity="1.0" stroke="rgb(3, 22, 3)" stroke-opacity="0.85105103" stroke-linecap="round" stroke-linejoin="round"/>
    <path d="M 298.97067261 170.51976013 C 296.04550171 171.94960022 293.14279175 173.27795410 290.20657349 174.06050110 C 287.33377075 174.53895569 284.47714233 174.61894226 281.79370117 174.79017639 C 279.26760864 174.67155457 276.76123047 174.18235779 274.49780273 173.37565613 C 272.15802002 172.65531921 269.90255737 171.52818298 267.53469849 170.40368652 C 265.60351562 168.53392029 263.22100830 167.01838684 260.73016357 165.60549927 C 258.36761475 163.45809937 256.44531250 160.75706482 254.84661865 157.37976074 C 253.89506531 153.78245544 253.19013977 150.24160767 252.62945557 146.72200012 C 252.44390869 143.51234436 252.83657837 140.60476685 253.37432861 137.71356201 C 254.26103210 135.17237854 255.44587708 132.92021179 256.95663452 130.69960022 C 258.69024658 128.57255554 260.73385620 126.55839539 262.82632446 124.47513580 C 265.16348267 122.59188843 267.78781128 121.02639008 270.64617920 119.66908264 C 273.65441895 118.54677582 276.87753296 117.98857880 280.19708252 117.81204987 C 283.50857544 117.52497864 286.60781860 117.82228851 289.66369629 118.56198120 C 292.73989868 119.40702057 295.69079590 120.52632904 298.49685669 121.91774750 C 301.16897583 123.65129852 303.52325439 125.60610962 305.66207886 127.80593872 C 307.54507446 130.06861877 309.16110229 132.44268799 310.35531616 135.01715088 C 311.50781250 137.52915955 312.12225342 140.20831299 312.55267334 142.91961670 C 312.75173950 145.66879272 312.60522461 148.45559692 312.16348267 151.26678467 C 311.57617188 154.16987610 310.69403076 157.13656616 309.23181152 159.84860229 C 307.78317261 162.73529053 306.40289307 165.77282715 298.97067261 170.51976013" stroke-width="1.65094030" fill="rgb(145, 208, 119)" opacity="1.0" stroke="rgb(9, 25, 6)" stroke-opacity="0.8604665" stroke-linecap="round" stroke-linejoin="round"/>
    <path d="M 258.91519165 194.99746704 C 260.17593384 196.55989075 261.10968018 198.34152222 261.82238770 200.23085022 C 262.10934448 202.26725769 262.75222778 204.14767456 262.87057495 206.06208801 C 263.08300781 207.94369507 262.74273682 209.75407410 262.38235474 211.56755066 C 261.57507324 213.12319946 260.60543823 214.61143494 259.85446167 216.17036438 C 258.79946899 217.44772339 257.60635376 218.49911499 256.41629028 219.56872559 C 255.32762146 220.43295288 254.01899719 221.17301941 252.79348755 221.86613464 C 251.21958923 222.41722107 249.60203552 222.91888428 247.93128967 223.23324585 C 246.04492188 223.49639893 243.99717712 223.55191040 242.05845642 223.70985413 C 240.08438110 223.47705078 238.20793152 222.75529480 236.42405701 221.69805908 C 234.63047791 220.79228210 233.31893921 219.23159790 231.88031006 217.82894897 C 231.07026672 216.13150024 230.40611267 214.63917542 229.46665955 213.24993896 C 229.05563354 211.40274048 228.77566528 209.44393921 228.40055847 207.82263184 C 228.77375793 206.30548096 229.17231750 204.83790588 229.28314209 203.38146973 C 229.79518127 202.10021973 230.06721497 200.79815674 230.87426758 199.82992554 C 231.70217896 198.49740601 232.55654907 197.14689636 233.73295593 195.99851990 C 235.28558350 194.95787048 236.76547241 193.76171875 238.34193420 192.76716614 C 239.87632751 192.20692444 241.37646484 191.40756226 243.02900696 190.75822449 C 244.84049988 190.84823608 246.59342957 190.76765442 248.21623230 190.40905762 C 249.68180847 190.54002380 251.19123840 191.01446533 252.75230408 191.50384521 C 254.04264832 192.31809998 255.76818848 192.87969971 258.91519165 194.99746704" stroke-width="1.72319674" fill="rgb(158, 216, 131)" opacity="1.0" stroke="rgb(23, 31, 17)" stroke-opacity="0.95170826" stroke-linecap="round" stroke-linejoin="round"/>
    <path d="M 262.21585083 57.16881943 C 263.24368286 56.91208649 263.82495117 56.16685486 264.49661255 55.26798248 C 265.65173340 54.78370667 266.94366455 54.20266724 268.12295532 53.54029465 C 269.34783936 52.97939682 270.77572632 52.71229553 272.30047607 52.58406448 C 273.73788452 52.59426880 275.19421387 52.79299545 276.72836304 52.98497009 C 278.19931030 53.30271530 279.65322876 53.79334259 280.92187500 54.57487488 C 281.99478149 55.54418945 283.14523315 56.34249115 284.26043701 57.34570312 C 285.16918945 58.63823318 286.07046509 59.80356216 286.65344238 61.25375748 C 287.20523071 62.78937531 287.70632935 64.31735229 288.21145630 65.80247498 C 288.37478638 67.41071320 288.43173218 68.98796844 288.16415405 70.34645844 C 287.35372925 71.69869232 286.56512451 73.10133362 285.65115356 74.54362488 C 284.45559692 75.94090271 283.34121704 77.29190063 282.03411865 78.58446503 C 280.25061035 79.11418152 278.81527710 79.80908966 277.56185913 80.49356842 C 276.41647339 80.99832916 275.04022217 81.18240356 273.66308594 81.25534821 C 272.37896729 81.49287415 270.98645020 81.49634552 269.49600220 81.25028992 C 268.15756226 80.59780884 266.84793091 80.48814392 265.54949951 79.77710724 C 263.99075317 78.90205383 262.62887573 77.84101868 261.31787109 76.54986572 C 260.33740234 74.91819000 259.30447388 73.29622650 258.57934570 71.70064545 C 258.41241455 70.14502716 258.23309326 68.75308990 258.04974365 67.67886353 C 258.29440308 66.48356628 258.41317749 65.29124451 258.65444946 63.72261810 C 259.32684326 62.16825867 259.68844604 60.35326767 262.21585083 57.16881943" stroke-width="1.73350894" fill="rgb(181, 227, 162)" opacity="1.0" stroke="rgb(12, 35, 10)" stroke-opacity="0.9042944" stroke-linecap="round" stroke-linejoin="round"/>
    <path d="M 223.82156372 336.62631226 C 225.30908203 338.06195068 226.66444397 339.55068970 228.06324768 340.86254883 C 229.27093506 342.33792114 230.41279602 343.48196411 231.04769897 344.76434326 C 232.11779785 345.86679077 232.87408447 346.74536133 233.36528015 347.23620605 C 233.00424194 347.75503540 232.11589050 348.24789429 231.16917419 348.71633911 C 230.02355957 349.35086060 228.70303345 350.01480103 227.11917114 350.40768433 C 225.24858093 350.28018188 223.15403748 350.45260620 220.71856689 350.56091309 C 217.99114990 350.45059204 214.99786377 350.57086182 211.88487244 350.60906982 C 208.76614380 350.41390991 205.62129211 350.72741699 202.47650146 350.54351807 C 199.38714600 350.48721313 196.48484802 350.48745728 193.87284851 350.61068726 C 191.39967346 350.62652588 189.25405884 350.61935425 187.29353333 350.62161255 C 185.55361938 350.90502930 184.13293457 350.88665771 183.13751221 350.70947266 C 182.75103760 350.52001953 182.80722046 350.27120972 183.10507202 349.65765381 C 183.67253113 348.61224365 184.15855408 347.10327148 184.97857666 345.57424927 C 186.34375000 343.86013794 187.65399170 341.85092163 189.10736084 339.83969116 C 190.75469971 338.02487183 192.60594177 336.52944946 194.43138123 335.13812256 C 196.27136230 334.03573608 198.05929565 333.04467773 199.66609192 332.01730347 C 201.52149963 331.66397095 203.49736023 331.36029053 205.46965027 331.04873657 C 207.19966125 331.26647949 209.10472107 331.31668091 210.83503723 331.15640259 C 212.47666931 331.62484741 214.13853455 332.16937256 216.01858521 332.38119507 C 217.90655518 333.22332764 219.92158508 333.73278809 223.82156372 336.62631226" stroke-width="1.88216519" fill="rgb(228, 215, 183)" opacity="1.0" stroke="rgb(4, 0, 2)" stroke-opacity="0.82595164" stroke-linecap="round" stroke-linejoin="round"/>
    <path d="M 296.18518066 350.23480225 C 293.84967041 350.69009399 291.59063721 350.57159424 289.26010132 350.40530396 C 286.79537964 350.42184448 284.24322510 350.60287476 281.57711792 350.46148682 C 278.81066895 350.49633789 275.93334961 350.60845947 272.98541260 350.46264648 C 270.18215942 350.21508789 267.40402222 350.41180420 264.59460449 350.43444824 C 261.79815674 350.41180420 259.03161621 350.48367310 256.57037354 350.30163574 C 254.51344299 350.49325562 252.62322998 350.41729736 251.14401245 350.29867554 C 250.03027344 350.34933472 249.33979797 350.56896973 248.79666138 350.64068604 C 248.75767517 350.11602783 248.64259338 349.21487427 248.73962402 348.29486084 C 250.06411743 347.44229126 251.61273193 346.33529663 253.35449219 345.86596680 C 254.01994324 344.73455811 254.59799194 343.48730469 255.81661987 342.47821045 C 257.32461548 341.32559204 259.02297974 340.13696289 260.69625854 338.70144653 C 262.48663330 337.24337769 264.57174683 336.12869263 266.58239746 335.13885498 C 268.53842163 334.63653564 270.28253174 334.29223633 271.88439941 333.63168335 C 273.75909424 333.43405151 275.68164062 333.22552490 277.66497803 333.46557617 C 279.46386719 333.54455566 281.06103516 334.16738892 282.95559692 334.46102905 C 284.75134277 335.25900269 286.44412231 336.17703247 288.00802612 337.17611694 C 289.44943237 338.30252075 290.70236206 339.58209229 291.83944702 340.86514282 C 292.91467285 342.15863037 293.73855591 343.71469116 294.73666382 345.16201782 C 295.79525757 346.58395386 296.83450317 347.95651245 298.12954712 348.98223877 C 299.28158569 350.11614990 300.34936523 351.34292603 296.18518066 350.23480225" stroke-width="1.97187352" fill="rgb(227, 217, 185)" opacity="1.0" stroke="rgb(5, 0, 1)" stroke-opacity="0.85536677" stroke-linecap="round" stroke-linejoin="round"/>
    <path d="M 324.37435913 348.53869629 C 326.30633545 347.94604492 327.91976929 347.59286499 329.41806030 347.71853638 C 331.08651733 347.46725464 332.63610840 347.65835571 333.76254272 347.84750366 C 334.70626831 348.18533325 335.49844360 348.35266113 336.36730957 348.61694336 C 336.92922974 349.12020874 337.58514404 349.63275146 338.15292358 350.00427246 C 338.30203247 350.17575073 337.97988892 350.22915649 337.37091064 350.35974121 C 336.80813599 350.60147095 336.34280396 350.66134644 335.69088745 350.70568848 C 334.55633545 350.64419556 333.26461792 350.49758911 331.81039429 350.48348999 C 330.33273315 350.61135864 328.88418579 350.45941162 327.44650269 350.68438721 C 325.94070435 350.67807007 324.38787842 350.63159180 322.80963135 350.88421631 C 321.57342529 350.79455566 320.20477295 350.47567749 324.37435913 348.53869629" stroke-width="1.89026308" fill="rgb(238, 230, 200)" opacity="1.0" stroke="rgb(37, 17, 10)" stroke-opacity="0.8887835" stroke-linecap="round" stroke-linejoin="round"/>
    <path d="M 309.33316040 351.01092529 C 308.80825806 350.58541870 308.22549438 350.53271484 307.56475830 350.87606812 C 306.79559326 350.86557007 305.96447754 350.89938354 304.89596558 350.85000610 C 303.80432129 350.82434082 302.95095825 350.84576416 302.34072876 350.90313721 C 302.06286621 350.65435791 301.89932251 350.22146606 301.87255859 349.76400757 C 301.99279785 349.29620361 302.24407959 348.75643921 302.77291870 348.41937256 C 303.69512939 348.30068970 304.75863647 347.92907715 305.77029419 347.53848267 C 307.01388550 347.62716675 308.17242432 347.62814331 309.18762207 347.61608887 C 310.40176392 347.90344238 311.87524414 348.27182007 312.72052002 348.52810669 C 313.33505249 348.89776611 314.11837769 349.10443115 315.03378296 349.32824707 C 315.80026245 350.33319092 316.75927734 350.95706177 309.33316040 351.01092529" stroke-width="1.87626803" fill="rgb(225, 216, 184)" opacity="1.0" stroke="rgb(37, 23, 14)" stroke-opacity="0.8782097" stroke-linecap="round" stroke-linejoin="round"/>
  </g>
</svg>
