<?xml version="1.0" ?>
<svg xmlns="http://www.w3.org/2000/svg" version="1.1" width="512" height="512" viewBox="0 0 512 512">
  <defs/>
  <g>
    <path d="M 348.76971436 443.10617065 C 344.42111206 444.19229126 339.98895264 445.17236328 335.46188354 445.86059570 C 330.84042358 446.08670044 325.92556763 446.06329346 320.79623413 445.97619629 C 315.44152832 445.80310059 309.82723999 445.80511475 303.89465332 445.95123291 C 297.76046753 445.96163940 291.37564087 445.88412476 284.64706421 445.87069702 C 277.67214966 445.89147949 270.51235962 445.85198975 263.12200928 445.86700439 C 255.48152161 445.77575684 247.70945740 445.78326416 239.89100647 445.87466431 C 231.94175720 445.83743286 223.89422607 445.82763672 215.98416138 445.91555786 C 208.14364624 445.93325806 200.39547729 445.92968750 192.87042236 445.87149048 C 185.86155701 445.91061401 179.24844360 446.14447021 173.15266418 446.27215576 C 167.71394348 446.24859619 163.10079956 445.75851440 159.25355530 444.41934204 C 156.36270142 441.88150024 154.43428040 438.31622314 153.50265503 433.47232056 C 153.22544861 427.70367432 153.43928528 421.12167358 153.49630737 413.88513184 C 153.38819885 406.16506958 153.48164368 398.17694092 153.52461243 390.18655396 C 153.54820251 382.46051025 153.50210571 375.09747314 153.54994202 368.38726807 C 153.52107239 362.59283447 153.46826172 357.94424438 153.89628601 354.62945557 C 155.44073486 352.77444458 157.89739990 352.52780151 161.30955505 352.48751831 C 165.33596802 351.29962158 169.88986206 350.04760742 175.16038513 349.15914917 C 180.81645203 348.53897095 186.97291565 348.34024048 193.50897217 348.25881958 C 200.18415833 348.19085693 207.22494507 348.31918335 214.38079834 348.64138794 C 221.42065430 349.18624878 228.54788208 349.44427490 235.74768066 348.69171143 C 242.65049744 346.81192017 249.81352234 345.66122437 257.35366821 345.22760010 C 265.10043335 345.27075195 273.03146362 345.68917847 281.02432251 346.47067261 C 289.09356689 347.37698364 297.01763916 348.35070801 304.91564941 349.51843262 C 312.58206177 350.43881226 319.92233276 350.97131348 326.87911987 351.14218140 C 333.40359497 351.52502441 339.22039795 351.74118042 344.15447998 351.78594971 C 348.10174561 351.73696899 350.86236572 352.43020630 352.49334717 354.19412231 C 353.18487549 357.18521118 353.12219238 361.54000854 353.13327026 367.12539673 C 353.16744995 373.78555298 353.16049194 381.30136108 353.12048340 389.66586304 C 353.27273560 398.76773071 353.29043579 408.44671631 353.04687500 418.51455688 C 353.40527344 428.85177612 354.06100464 439.27636719 348.76971436 443.10617065" stroke-width="2.00000000" fill="rgb(175, 86, 43)" opacity="1.0" stroke="rgb(20, 3, 0)" stroke-opacity="0.87370765" stroke-linecap="round" stroke-linejoin="round"/>
    <path d="M 335.65933228 447.48471069 C 327.96875000 447.40551758 320.28930664 447.37847900 312.69146729 447.34469604 C 305.01004028 447.43347168 297.33349609 447.47021484 289.67883301 447.41955566 C 281.93389893 447.31427002 274.23785400 447.32199097 266.36639404 447.34393311 C 258.41497803 447.30133057 250.42121887 447.38134766 242.47534180 447.41534424 C 234.35787964 447.37863159 226.30555725 447.29183960 218.25900269 447.28091431 C 210.40853882 447.31552124 202.60249329 447.38562012 195.11218262 447.45248413 C 188.05342102 447.45538330 181.43334961 447.39739990 175.41456604 447.53445435 C 170.20161438 447.55923462 165.91110229 447.44842529 162.60456848 446.75555420 C 160.44906616 445.80892944 159.49975586 444.91891479 159.94046021 444.17916870 C 161.82946777 443.95312500 164.95010376 444.05618286 169.17253113 444.15853882 C 174.30564880 444.21078491 180.23840332 444.24948120 186.79440308 444.21823120 C 193.79751587 444.20080566 201.17431641 444.17251587 208.73028564 444.18646240 C 216.55493164 444.23516846 224.42239380 444.21600342 232.22178650 444.12628174 C 239.99114990 444.14691162 247.70397949 444.19049072 255.23759460 444.15878296 C 262.58111572 444.07684326 269.76831055 444.03240967 276.78219604 444.07748413 C 283.51498413 444.11715698 290.12359619 444.15365601 296.53863525 444.15121460 C 302.67852783 444.26016235 308.71731567 444.28488159 314.49996948 444.20904541 C 320.00946045 444.18811035 325.34115601 444.21072388 330.38442993 444.24972534 C 335.21340942 444.18908691 339.67611694 444.15023804 343.80978394 444.43530273 C 347.59582520 445.58056641 351.16589355 447.25735474 335.65933228 447.48471069" stroke-width="1.80964863" fill="rgb(174, 86, 53)" opacity="1.0" stroke="rgb(40, 0, 0)" stroke-opacity="0.67476356" stroke-linecap="round" stroke-linejoin="round"/>
    <path d="M 248.59658813 303.00619507 C 250.22352600 311.74942017 251.72540283 320.10488892 253.52783203 327.56838989 C 255.29640198 333.96759033 255.81233215 339.13906860 254.59678650 342.94186401 C 252.23735046 345.25625610 249.22741699 345.68518066 245.97694397 344.18023682 C 243.77368164 340.37246704 242.24058533 334.77075195 240.62899780 327.49819946 C 238.57536316 319.05300903 237.13418579 309.65878296 236.24488831 299.40731812 C 235.75599670 288.72409058 236.16685486 277.63803101 236.99258423 266.43859863 C 237.96617126 255.28147888 240.42799377 244.67761230 243.68621826 234.27365112 C 245.82136536 223.72343445 246.30928040 213.12475586 245.74902344 202.45909119 C 244.75514221 191.80195618 244.26991272 181.47283936 245.02821350 171.41694641 C 246.33207703 161.81787109 247.31140137 152.78146362 247.80055237 144.50843811 C 250.24227905 137.54714966 253.71134949 131.44802856 257.08432007 125.78017426 C 259.85299683 120.58656311 262.12481689 115.91323090 263.98361206 111.90570068 C 265.46578979 108.80045319 266.39456177 106.69856262 266.95410156 105.63810730 C 267.21017456 105.64646912 267.21246338 106.82984161 266.91815186 109.17022705 C 266.37576294 112.65682983 265.74395752 117.33586884 264.98892212 123.02095032 C 264.09005737 129.83972168 263.17059326 137.53463745 262.41552734 146.09536743 C 261.64013672 155.42874146 260.95837402 165.45732117 260.41018677 176.02770996 C 260.07598877 187.07493591 259.59161377 198.44633484 258.36614990 210.08370972 C 256.32244873 221.93693542 253.50270081 233.97366333 251.05046082 246.33058167 C 249.00889587 259.09051514 246.66073608 272.03253174 248.59658813 303.00619507" stroke-width="0.53044403" fill="rgb(107, 59, 30)" opacity="1.0" stroke="rgb(0, 0, 0)" stroke-opacity="0.4441621" stroke-linecap="round" stroke-linejoin="round"/>
    <path d="M 207.74473572 233.16798401 C 209.26721191 233.24615479 210.77627563 233.31077576 212.28215027 233.34321594 C 213.78361511 233.39596558 215.21562195 233.42033386 216.75308228 233.57875061 C 218.25965881 233.66831970 219.77149963 233.76452637 221.26989746 233.88975525 C 222.74026489 234.17298889 224.24665833 234.49720764 225.76518250 234.96009827 C 227.21745300 235.55776978 228.74078369 236.13166809 230.30287170 236.67631531 C 231.91885376 237.08813477 233.57943726 237.31721497 235.08558655 237.68843079 C 236.55349731 238.09381104 237.88526917 238.48547363 239.13455200 238.87977600 C 240.34062195 239.05543518 241.30882263 239.28536987 242.06834412 239.66690063 C 242.57658386 240.31631470 242.71032715 241.05249023 242.68545532 241.95495605 C 242.50291443 242.86149597 242.27566528 243.75999451 241.86358643 244.56082153 C 241.42063904 245.29550171 240.90675354 245.78813171 240.18878174 245.95220947 C 239.49980164 245.75975037 238.64831543 245.28334045 237.65087891 244.70343018 C 236.42018127 244.36177063 235.09947205 243.98580933 233.68447876 243.54124451 C 232.22721863 243.03364563 230.76249695 242.40670776 229.20907593 241.78837585 C 227.69026184 241.34645081 226.06918335 241.04060364 224.46334839 240.71070862 C 222.89619446 240.46087646 221.29943848 240.30879211 219.69804382 240.14913940 C 218.09745789 240.00537109 216.55772400 239.87350464 214.99511719 239.77001953 C 213.48268127 239.67111206 211.96707153 239.61868286 210.48696899 239.56283569 C 209.00579834 239.47219849 207.55796814 239.47489929 206.02946472 239.41036987 C 204.61466980 239.35266113 203.13240051 239.32095337 207.74473572 233.16798401" stroke-width="0.60757864" fill="rgb(81, 45, 34)" opacity="1.0" stroke="rgb(26, 12, 1)" stroke-opacity="0.36129925" stroke-linecap="round" stroke-linejoin="round"/>
    <path d="M 293.86914062 190.58094788 C 291.64669800 190.71026611 289.42639160 190.85247803 287.13439941 191.03981018 C 284.88873291 191.24743652 282.74066162 191.39225769 280.58081055 191.49964905 C 278.40332031 191.64448547 276.48739624 191.87477112 274.54586792 192.16722107 C 272.73486328 192.75627136 271.13751221 193.46601868 269.63314819 194.21244812 C 268.21823120 195.08949280 266.97430420 195.88874817 265.85778809 196.64985657 C 264.92297363 197.34399414 264.21636963 197.73025513 263.59289551 197.72462463 C 262.98931885 197.14822388 262.32739258 196.20326233 261.57455444 195.23336792 C 260.82327271 194.39494324 260.22167969 193.66653442 259.97305298 192.97332764 C 260.19406128 192.47781372 260.75265503 192.21658325 261.70187378 191.99906921 C 262.85195923 191.47131348 264.05343628 190.63253784 265.54943848 189.77836609 C 267.36987305 189.22380066 269.34197998 188.61167908 271.40682983 187.87686157 C 273.49429321 187.20977783 275.57913208 186.52142334 277.72146606 185.85279846 C 279.90585327 185.21197510 281.87167358 184.83264160 283.88610840 184.49565125 C 285.85534668 184.38539124 287.71249390 184.30212402 289.39355469 184.36006165 C 291.00152588 184.52925110 292.43228149 184.79072571 293.81002808 185.11930847 C 295.08181763 185.50230408 296.17922974 186.02507019 297.21243286 186.53932190 C 298.18136597 187.12065125 298.97595215 187.74493408 299.75122070 188.46713257 C 300.45645142 189.13130188 301.10317993 189.91098022 301.67947388 190.67498779 C 302.27658081 191.42306519 302.82278442 192.16111755 303.36956787 193.01005554 C 303.93023682 193.75997925 304.42303467 194.52511597 293.86914062 190.58094788" stroke-width="0.63798094" fill="rgb(82, 43, 29)" opacity="1.0" stroke="rgb(0, 0, 0)" stroke-opacity="0.39571247" stroke-linecap="round" stroke-linejoin="round"/>
    <path d="M 235.96325684 137.29826355 C 233.89158630 137.94012451 231.85859680 138.60073853 229.90052795 139.16499329 C 227.87399292 139.75335693 225.92253113 140.32795715 224.07618713 140.82847595 C 222.24604797 141.19154358 220.53186035 141.57083130 218.94807434 141.81271362 C 217.42047119 141.99238586 216.03810120 142.05108643 214.78834534 142.04396057 C 213.66072083 141.90599060 212.67520142 141.71058655 211.85227966 141.39094543 C 211.17054749 141.00216675 210.71113586 140.47810364 210.39944458 139.86399841 C 210.29855347 139.21165466 210.34831238 138.47937012 210.66520691 137.69319153 C 211.11193848 136.88941956 211.79927063 136.04440308 212.70025635 135.20440674 C 213.75241089 134.34405518 214.98333740 133.51881409 216.44969177 132.75444031 C 218.01609802 132.02380371 219.74191284 131.37016296 221.69369507 130.71511841 C 223.72874451 130.29360962 225.85643005 129.86636353 228.07583618 129.64714050 C 230.32545471 129.54881287 232.58818054 129.57920837 234.87330627 129.77006531 C 237.06982422 130.10696411 239.08248901 130.57041931 241.03071594 131.14353943 C 242.75189209 131.82644653 244.17092896 132.69392395 245.22477722 133.80690002 C 246.01756287 134.78611755 246.72624207 135.56152344 247.54867554 136.06428528 C 248.48823547 136.22459412 249.57533264 136.02493286 250.52632141 135.68801880 C 251.27392578 135.43434143 251.66688538 135.60574341 251.88011169 136.15086365 C 251.86048889 136.92483521 251.83314514 137.85501099 251.58534241 138.92883301 C 251.27676392 140.02241516 251.03964233 140.95587158 250.85099792 141.74427795 C 250.64105225 142.49107361 250.49087524 143.08927917 235.96325684 137.29826355" stroke-width="0.67633736" fill="rgb(64, 35, 30)" opacity="1.0" stroke="rgb(0, 0, 0)" stroke-opacity="0.37077013" stroke-linecap="round" stroke-linejoin="round"/>
    <path d="M 170.93605042 275.46560669 C 167.62638855 274.02673340 164.42901611 272.42932129 161.37089539 270.50991821 C 158.41679382 268.39694214 155.83065796 265.95968628 153.46250916 263.24807739 C 151.34024048 260.18170166 149.54919434 256.97277832 148.14654541 253.45645142 C 147.00880432 249.60299683 146.12065125 245.73402405 145.59506226 241.83514404 C 145.50588989 237.79248047 145.76699829 233.70024109 146.42498779 229.78352356 C 147.36940002 225.90878296 148.82815552 222.10626221 150.67593384 218.50727844 C 152.89848328 215.08757019 155.61532593 211.99838257 158.54791260 209.08850098 C 161.87164307 206.55603027 165.45339966 204.41204834 169.19046021 202.59159851 C 173.19445801 201.14808655 177.32202148 200.24180603 181.45529175 199.98521423 C 185.71852112 199.88623047 189.90538025 200.39938354 194.15695190 201.39349365 C 198.31881714 202.52761841 202.22053528 204.24147034 205.97795105 206.26231384 C 209.46820068 208.64259338 212.49800110 211.35197449 215.27912903 214.41716003 C 217.81701660 217.52394104 219.96661377 220.85415649 221.54083252 224.45263672 C 223.08453369 228.05947876 224.04014587 231.62564087 224.30001831 235.48098755 C 224.13641357 239.40127563 223.55928040 243.25309753 222.69366455 247.10794067 C 221.57260132 250.82369995 220.07730103 254.37605286 218.21383667 257.75082397 C 216.22224426 260.92288208 213.90707397 263.81726074 211.36531067 266.53652954 C 208.64372253 268.91311646 205.70640564 271.08978271 202.38180542 272.90914917 C 198.95068359 274.56066895 195.26206970 275.79888916 191.24028015 276.60491943 C 186.96211243 277.25091553 182.67802429 277.90875244 170.93605042 275.46560669" stroke-width="0.49923971" fill="rgb(36, 86, 35)" opacity="1.0" stroke="rgb(17, 0, 25)" stroke-opacity="0.396837" stroke-linecap="round" stroke-linejoin="round"/>
    <path d="M 219.68911743 130.63619995 C 217.87376404 127.27713776 215.92762756 124.15187073 213.84523010 121.15904236 C 211.82627869 118.01627350 209.92749023 114.75760651 208.11602783 111.52622223 C 206.31294250 108.35954285 204.56431580 105.16436768 202.89465332 101.92978668 C 201.25045776 98.65238190 199.84123230 95.33605957 198.51420593 91.94806671 C 197.62428284 88.40248871 196.90208435 84.72135925 196.43093872 80.99727631 C 196.27307129 77.11865997 196.38468933 73.47076416 196.75582886 69.78815460 C 197.48733521 66.15283203 198.34835815 62.44000244 199.52717590 58.89135742 C 200.90400696 55.40559006 202.61038208 51.94394684 204.64035034 48.54994583 C 207.00321960 45.25189209 209.65185547 42.14904785 212.53601074 39.24876404 C 215.52851868 36.41508102 218.84216309 34.02084732 222.43312073 31.86611366 C 226.09471130 29.91479111 229.92742920 28.14859772 234.08773804 26.73309708 C 238.35839844 25.58863068 242.62197876 24.57606316 247.11999512 23.84543037 C 251.57403564 23.49873924 255.90345764 23.48891449 260.23248291 23.72176743 C 264.60653687 24.46095657 268.83380127 25.32642174 272.56982422 26.22380257 C 275.98507690 27.56862831 279.24334717 29.34515572 282.47256470 31.02273178 C 285.75994873 32.66936111 288.73376465 34.55884171 291.59439087 36.74205017 C 294.36782837 38.97728348 296.84072876 41.57177353 299.02432251 44.41590500 C 301.33663940 47.07019806 303.17514038 50.09664917 304.62289429 53.45530701 C 306.07550049 56.94078445 307.34075928 60.38917160 308.28982544 64.16477966 C 308.81701660 67.97834778 308.96939087 71.83757782 308.94296265 75.82023621 C 308.84509277 79.78137207 308.50302124 83.77418518 308.02487183 87.65293121 C 307.22091675 91.44459534 306.24026489 95.11465454 305.01141357 98.61037445 C 303.49560547 101.97551727 301.76785278 105.16425323 299.82324219 108.06901550 C 297.62677002 110.66543579 295.17526245 113.24420929 292.47912598 115.53982544 C 289.62265015 117.60314941 286.54714966 119.40911865 283.17004395 121.03279114 C 279.77243042 122.47673035 276.18536377 123.71174622 272.49700928 124.84300232 C 268.72235107 125.83515167 264.93600464 126.73968506 261.09622192 127.57302856 C 257.24429321 128.31950378 253.49678040 128.99555969 249.82649231 129.78446960 C 246.18161011 130.58557129 242.72714233 131.00947571 239.31288147 131.06604004 C 235.75668335 130.98400879 232.10116577 130.88838196 219.68911743 130.63619995" stroke-width="1.92135489" fill="rgb(52, 133, 38)" opacity="1.0" stroke="rgb(19, 40, 14)" stroke-opacity="0.9625503" stroke-linecap="round" stroke-linejoin="round"/>
    <path d="M 325.91403198 234.97558594 C 322.94158936 234.86077881 320.00924683 234.58863831 317.25051880 234.21336365 C 314.29788208 233.83442688 311.28179932 233.15184021 308.44186401 232.44902039 C 305.74633789 231.46580505 302.97937012 230.41418457 300.35784912 229.04174805 C 297.74121094 227.46507263 295.27041626 225.75372314 292.93789673 223.61985779 C 290.51440430 221.49185181 288.28225708 219.10433960 286.45028687 216.22677612 C 284.32611084 213.33570862 282.76348877 210.21015930 281.32250977 206.88735962 C 280.14990234 203.46145630 279.34826660 199.98608398 278.68621826 196.56985474 C 278.57940674 193.31855774 278.54711914 190.10133362 278.55328369 187.05734253 C 278.75363159 184.18199158 279.26824951 181.32365417 280.08129883 178.44032288 C 281.06686401 175.49995422 282.20532227 172.66549683 283.52145386 169.75894165 C 285.08386230 166.89100647 286.82641602 164.05592346 288.70169067 161.27844238 C 290.72000122 158.67631531 292.94329834 156.06890869 295.33422852 153.57723999 C 297.81082153 151.27426147 300.34457397 149.18322754 303.00576782 147.27879333 C 305.73794556 145.59513855 308.53546143 144.16467285 311.43112183 142.97996521 C 314.37182617 142.04551697 317.24636841 141.53579712 320.15676880 141.34960938 C 323.19628906 141.29559326 326.21853638 141.57102966 329.17742920 142.17453003 C 332.18667603 142.79428101 335.17199707 143.40725708 338.04373169 143.85934448 C 341.05169678 144.77336121 343.97015381 146.13302612 346.81042480 147.52600098 C 349.64022827 149.04380798 352.29730225 150.87110901 354.85064697 152.83879089 C 357.17370605 155.00399780 359.49227905 157.23889160 361.60845947 159.68583679 C 363.51736450 162.26707458 365.19586182 165.04553223 366.72647095 167.86511230 C 368.32730103 170.58105469 369.44488525 173.57882690 370.08120728 176.75120544 C 370.86083984 179.87387085 371.51123047 183.16506958 371.75619507 186.53311157 C 371.82879639 189.89164734 371.60205078 193.25823975 371.26419067 196.75981140 C 370.59591675 200.20037842 369.62121582 203.34046936 368.21493530 206.53652954 C 366.89065552 209.65371704 365.20346069 212.60435486 363.37561035 215.35673523 C 361.45956421 218.17512512 359.42071533 220.76473999 357.19259644 223.03761292 C 354.55731201 224.98292542 352.00555420 226.86003113 349.35232544 228.45680237 C 346.46838379 229.81217957 343.85763550 230.98042297 340.93389893 232.18859863 C 337.95147705 233.13059998 335.01522827 234.12191772 325.91403198 234.97558594" stroke-width="1.95294356" fill="rgb(68, 143, 48)" opacity="1.0" stroke="rgb(11, 29, 6)" stroke-opacity="0.9178916" stroke-linecap="round" stroke-linejoin="round"/>
    <path d="M 230.65553284 161.49264526 C 228.83250427 163.80943298 226.91789246 166.08103943 225.09092712 168.42898560 C 223.18006897 170.71278381 221.28190613 173.05880737 219.40672302 175.31193542 C 217.52870178 177.54826355 215.54003906 179.74015808 213.53498840 181.82174683 C 211.52401733 183.78428650 209.63664246 185.71527100 207.63789368 187.43637085 C 205.40740967 188.72543335 203.11254883 189.64598083 200.68818665 190.17646790 C 198.07011414 190.51878357 195.38938904 190.76171875 192.53880310 190.72964478 C 189.72735596 190.65625000 186.76348877 190.29943848 183.74424744 189.89474487 C 180.73951721 189.28320312 177.94418335 188.41851807 175.10931396 187.26507568 C 172.25257874 186.08712769 169.65063477 184.45861816 167.26777649 182.51292419 C 164.80758667 180.58148193 162.44107056 178.27688599 160.34890747 175.90934753 C 158.60246277 173.33731079 156.83865356 170.62020874 155.36471558 167.93287659 C 154.16094971 165.19425964 153.20848083 162.27252197 152.38742065 159.35968018 C 151.99412537 156.44090271 151.67683411 153.33300781 151.48999023 150.15461731 C 151.55793762 147.05868530 151.83277893 144.10102844 152.26663208 141.19731140 C 152.95135498 138.36308289 153.84538269 135.60400391 154.72511292 133.14068604 C 155.73567200 130.65362549 157.00329590 128.34863281 158.18908691 126.20467377 C 159.53282166 124.19373322 160.99259949 122.33538818 162.51464844 120.46936798 C 164.03459167 118.66961670 165.66487122 116.92530823 167.49475098 115.27106476 C 169.41256714 113.84488678 171.45277405 112.38191223 173.77238464 111.05673981 C 176.22271729 109.86189270 178.84393311 108.52919769 181.70593262 107.43406677 C 184.65350342 106.67707062 187.76203918 105.94135284 190.93058777 105.49427032 C 194.11732483 105.10793304 197.39523315 105.00701904 200.53285217 105.01493073 C 203.63694763 105.26158905 206.69682312 105.85726929 209.67520142 106.75057983 C 212.50059509 107.81858826 215.15165710 109.08773041 217.76554871 110.63038635 C 220.28649902 112.34181976 222.66162109 114.23111725 224.77169800 116.21084595 C 226.68698120 118.36404419 228.49803162 120.70962524 230.04385376 123.11957550 C 231.41337585 125.60221100 232.58918762 128.21923828 233.47579956 130.86976624 C 233.96083069 133.62736511 234.26417542 136.51960754 234.42637634 139.33784485 C 234.33363342 142.16452026 234.28503418 145.05892944 234.21394348 147.96838379 C 234.05419922 150.76541138 233.83850098 153.58462524 230.65553284 161.49264526" stroke-width="1.90298903" fill="rgb(77, 163, 61)" opacity="1.0" stroke="rgb(13, 35, 11)" stroke-opacity="0.9581619" stroke-linecap="round" stroke-linejoin="round"/>
    <path d="M 328.43389893 139.59324646 C 324.46636963 140.05299377 320.51614380 140.42042542 316.59530640 140.88694763 C 312.66424561 141.35848999 308.79220581 141.67376709 304.95520020 141.68286133 C 301.09576416 141.51107788 297.36407471 141.24494934 293.55831909 140.66932678 C 289.94369507 139.83940125 286.40307617 138.77914429 282.91674805 137.47428894 C 279.67419434 135.85717773 276.64578247 133.96363831 273.80041504 131.84176636 C 271.17669678 129.46150208 268.85232544 126.76015472 266.87069702 123.84412384 C 265.29193115 120.67811584 264.15057373 117.26919556 263.40069580 113.57585907 C 262.90859985 109.83998871 262.80221558 105.96770477 263.11422729 101.95427704 C 263.81668091 97.98577881 264.88043213 94.10035706 266.32446289 90.27568817 C 267.99603271 86.53449249 269.97567749 82.98725891 272.36169434 79.85597992 C 275.13027954 77.07101440 278.25915527 74.69507599 281.73840332 72.79198456 C 285.44967651 71.31774902 289.38043213 70.37478638 293.54980469 69.85954285 C 297.94000244 69.69544983 302.40411377 69.68676758 306.75613403 69.82351685 C 310.93191528 70.72187805 315.07919312 72.31742096 319.13259888 73.96316528 C 322.89920044 76.04989624 326.41311646 78.71655273 329.43334961 81.79249573 C 332.36764526 84.88066101 334.91473389 88.31446838 337.08486938 91.74746704 C 338.68884277 95.41737366 339.90936279 99.29512787 340.60299683 103.01482391 C 340.92431641 106.91098785 340.92367554 110.79627991 340.71670532 114.72854614 C 340.06286621 118.43612671 339.04336548 121.95595551 337.57150269 125.37585449 C 336.07150269 128.81777954 334.12771606 131.96516418 328.43389893 139.59324646" stroke-width="1.77985549" fill="rgb(95, 175, 63)" opacity="1.0" stroke="rgb(17, 49, 11)" stroke-opacity="0.9526372" stroke-linecap="round" stroke-linejoin="round"/>
    <path d="M 249.12771606 171.70581055 C 248.78616333 173.11993408 248.58825684 174.62657166 248.23895264 176.09484863 C 247.55384827 177.47477722 246.75344849 178.71705627 245.82099915 180.01513672 C 244.77130127 181.31095886 243.51423645 182.62461853 241.94720459 183.81953430 C 239.93917847 184.83576965 237.72615051 185.92857361 235.27633667 186.96025085 C 232.80830383 187.97296143 230.22650146 188.66439819 227.60531616 189.04753113 C 225.04988098 189.36965942 222.41264343 189.20155334 219.91366577 188.86489868 C 217.32952881 188.39682007 214.81855774 187.76014709 212.44880676 186.87371826 C 210.21871948 185.64082336 208.23063660 184.03533936 206.35975647 182.26916504 C 204.75306702 180.33950806 203.39184570 178.15988159 202.20178223 175.86981201 C 201.28633118 173.36598206 200.54602051 170.79716492 200.17787170 168.20448303 C 200.08045959 165.39031982 200.10276794 162.60189819 200.38284302 159.84730530 C 201.06988525 157.25201416 202.16767883 154.72868347 203.54238892 152.23321533 C 205.26480103 150.01168823 207.21858215 148.03695679 209.46081543 146.22271729 C 211.83421326 144.59970093 214.30653381 143.28526306 217.05709839 142.28022766 C 219.78323364 141.60607910 222.60952759 141.34596252 225.44996643 141.42913818 C 228.21954346 141.78688049 230.74430847 142.26856995 233.14614868 142.82115173 C 235.25721741 143.52357483 236.98452759 144.59133911 238.52627563 146.09608459 C 240.09329224 147.56787109 241.48283386 149.23704529 242.60032654 151.05549622 C 243.77777100 152.65280151 245.05575562 154.01745605 246.47215271 154.95681763 C 247.92776489 155.48593140 249.52699280 155.95077515 249.12771606 171.70581055" stroke-width="1.62189567" fill="rgb(111, 195, 90)" opacity="1.0" stroke="rgb(13, 35, 10)" stroke-opacity="0.8807444" stroke-linecap="round" stroke-linejoin="round"/>
    <path d="M 298.97753906 170.57405090 C 296.40390015 171.84039307 293.68820190 172.95912170 291.00543213 173.85220337 C 288.32870483 174.49162292 285.61291504 174.81060791 282.87521362 174.78251648 C 280.19134521 174.72866821 277.54867554 174.34567261 274.99490356 173.55393982 C 272.42065430 172.77886963 269.89208984 171.76350403 267.58050537 170.17152405 C 265.33334351 168.38725281 262.76541138 166.82965088 260.21072388 165.16813660 C 258.12222290 162.94487000 256.38488770 160.31234741 255.00648499 157.43473816 C 253.95872498 154.27749634 253.23866272 151.02465820 252.76237488 147.75457764 C 252.54241943 144.59571838 252.68370056 141.45547485 253.23486328 138.63504028 C 254.03538513 135.92886353 255.25590515 133.33705139 256.88238525 130.87615967 C 258.75393677 128.63719177 260.80310059 126.56478119 263.05209351 124.44992065 C 265.50564575 122.54164886 268.02047729 120.90757751 270.77059937 119.52865601 C 273.80630493 118.51877594 276.92800903 118.02832794 280.09042358 117.76856232 C 283.27276611 117.63311005 286.49310303 117.84333801 289.64114380 118.46495819 C 292.66543579 119.33515167 295.59692383 120.45931244 298.38854980 121.83142853 C 301.01031494 123.52862549 303.39807129 125.42195892 305.51074219 127.52090454 C 307.36550903 129.75061035 308.96881104 132.17555237 310.31466675 134.67350769 C 311.42776489 137.21600342 312.09878540 139.95639038 312.47262573 142.77967834 C 312.75915527 145.54154968 312.60238647 148.32778931 312.15969849 151.19171143 C 311.49826050 154.06420898 310.57641602 156.87203979 309.30145264 159.70956421 C 307.87335205 162.60949707 306.52523804 165.46037292 298.97753906 170.57405090" stroke-width="1.64820278" fill="rgb(147, 207, 118)" opacity="1.0" stroke="rgb(5, 24, 2)" stroke-opacity="0.85470724" stroke-linecap="round" stroke-linejoin="round"/>
    <path d="M 259.14437866 195.18936157 C 260.08264160 196.87475586 261.01422119 198.49279785 261.80346680 200.21762085 C 262.11120605 202.17440796 262.53775024 204.24328613 262.78646851 206.05033875 C 263.00811768 207.92016602 262.89544678 209.73539734 262.42996216 211.54925537 C 261.58993530 213.09104919 260.76306152 214.51986694 259.86190796 216.01953125 C 258.83081055 217.35876465 257.68661499 218.48649597 256.40560913 219.57167053 C 255.17779541 220.60374451 253.84204102 221.43124390 252.38403320 222.05421448 C 250.76174927 222.51716614 249.10548401 222.90310669 247.29400635 223.25308228 C 245.48971558 223.56036377 243.69293213 223.75204468 241.82008362 223.72128296 C 239.90119934 223.30845642 238.09346008 222.69178772 236.43148804 221.70846558 C 234.73699951 220.69267273 233.27770996 219.47802734 232.14297485 217.96765137 C 231.13226318 216.38536072 230.19816589 214.71887207 229.58876038 212.99557495 C 229.10140991 211.25508118 228.65252686 209.55047607 228.45179749 207.92765808 C 228.59637451 206.36131287 228.91612244 204.80427551 229.28529358 203.31909180 C 229.66477966 201.91551208 230.26269531 200.51406860 231.08679199 199.37185669 C 231.96003723 198.18133545 232.83401489 196.93034363 233.99732971 195.83192444 C 235.40856934 194.80081177 236.78070068 193.72601318 238.21992493 192.90003967 C 239.85255432 192.13235474 241.46794128 191.47991943 243.10494995 190.95823669 C 244.89894104 190.78512573 246.55557251 190.62437439 248.16810608 190.41816711 C 249.78175354 190.61543274 251.32150269 190.96569824 252.78756714 191.54437256 C 254.23997498 192.15364075 255.67652893 192.82514954 259.14437866 195.18936157" stroke-width="1.73493552" fill="rgb(160, 216, 133)" opacity="1.0" stroke="rgb(22, 28, 16)" stroke-opacity="0.9608411" stroke-linecap="round" stroke-linejoin="round"/>
    <path d="M 261.79153442 57.58634186 C 262.82803345 56.81358337 263.89019775 56.02639389 264.88394165 55.23419189 C 266.12542725 54.65509415 267.34674072 54.01594925 268.51187134 53.28219604 C 269.83126831 52.82366180 271.16464233 52.63138199 272.59011841 52.54654312 C 274.02325439 52.76374435 275.46246338 52.66544342 276.93768311 52.84555054 C 278.33224487 53.33168030 279.62008667 53.89224243 280.93280029 54.60795975 C 282.09298706 55.52191162 283.35778809 56.46078873 284.45803833 57.51595688 C 285.27899170 58.74774933 286.07107544 60.11236954 286.72738647 61.48182678 C 287.29403687 62.88878250 287.75289917 64.34587097 288.21679688 65.89257050 C 288.49395752 67.36029053 288.47921753 68.81386566 288.08306885 70.30564117 C 287.42248535 71.75309753 286.63476562 73.16788483 285.68463135 74.57718658 C 284.55651855 75.84565735 283.43688965 77.08449554 282.30117798 78.16226196 C 280.96478271 78.99787903 279.49755859 79.65477753 278.01055908 80.26403046 C 276.60217285 80.88465118 275.22491455 81.26773071 273.73959351 81.29730988 C 272.19366455 81.40032196 270.69210815 81.52712250 269.21795654 81.48197174 C 267.74917603 80.94712067 266.39212036 80.26328278 265.05233765 79.41074371 C 263.68548584 78.69444275 262.35583496 77.78194427 261.32461548 76.54166412 C 260.43087769 75.14601135 259.64620972 73.70568848 258.82687378 72.26443481 C 258.43771362 70.78461456 258.26855469 69.33261871 258.13320923 67.84806061 C 258.26202393 66.50541687 258.38336182 65.18946075 258.67108154 63.83661652 C 258.97424316 62.48306274 259.17608643 61.12877274 261.79153442 57.58634186" stroke-width="1.72988307" fill="rgb(181, 226, 161)" opacity="1.0" stroke="rgb(14, 35, 15)" stroke-opacity="0.8878973" stroke-linecap="round" stroke-linejoin="round"/>
    <path d="M 223.85940552 336.68951416 C 225.40849304 338.06051636 226.81346130 339.56597900 228.14227295 340.92813110 C 229.35232544 342.30136108 230.34603882 343.70703125 231.25231934 344.94259644 C 232.05979919 346.01483154 232.77725220 346.71582031 233.23405457 347.27096558 C 233.06723022 347.77413940 232.61732483 348.13647461 231.65138245 348.65814209 C 230.47283936 349.27911377 229.01805115 349.82379150 227.16609192 350.43304443 C 225.05400085 350.40908813 222.66040039 350.46417236 220.02549744 350.48590088 C 217.04565430 350.53479004 213.98580933 350.57501221 210.90263367 350.55712891 C 207.85144043 350.55496216 204.84561157 350.53552246 201.87983704 350.56375122 C 198.97151184 350.48626709 196.20962524 350.54580688 193.63429260 350.59591675 C 191.25753784 350.60678101 189.14189148 350.58859253 187.26652527 350.63336182 C 185.69676208 350.87164307 184.39535522 350.91833496 183.53050232 350.89141846 C 183.04577637 350.60983276 182.93281555 350.11175537 183.22787476 349.33447266 C 183.73109436 348.22384644 184.33367920 346.78176880 185.27920532 345.26882935 C 186.42149353 343.57284546 187.65789795 341.71118164 189.09904480 339.97296143 C 190.68257141 338.30908203 192.43748474 336.81515503 194.17729187 335.36840820 C 196.08853149 334.17782593 197.97535706 333.03536987 199.74090576 332.03137207 C 201.64210510 331.61636353 203.64709473 331.32583618 205.49674988 331.07876587 C 207.19625854 331.09146118 208.90641785 331.20138550 210.73875427 331.22244263 C 212.51864624 331.63641357 214.20668030 332.07589722 215.97132874 332.45492554 C 217.79983521 333.17544556 219.70870972 333.72668457 223.85940552 336.68951416" stroke-width="1.86383784" fill="rgb(227, 216, 187)" opacity="1.0" stroke="rgb(4, 0, 4)" stroke-opacity="0.8153422" stroke-linecap="round" stroke-linejoin="round"/>
    <path d="M 296.70223999 350.37399292 C 294.33959961 350.47671509 291.93045044 350.44390869 289.60098267 350.39813232 C 287.14468384 350.48263550 284.61239624 350.58004761 282.03546143 350.53366089 C 279.34707642 350.34747314 276.66772461 350.43463135 273.98825073 350.49179077 C 271.36743164 350.31567383 268.61404419 350.31115723 265.81716919 350.47219849 C 263.08444214 350.48684692 260.52920532 350.36895752 258.05700684 350.36563110 C 255.73815918 350.49884033 253.73602295 350.42004395 251.91877747 350.29702759 C 250.45362854 350.50463867 249.37336731 350.61032104 248.74119568 350.42864990 C 248.46040344 349.96524048 248.44381714 349.07766724 249.00880432 348.04776001 C 250.21858215 347.32598877 251.64877319 346.51718140 253.22386169 345.85174561 C 254.11476135 344.86511230 254.79129028 343.49960327 255.77929688 342.26358032 C 257.19509888 341.20147705 258.76495361 339.99694824 260.43798828 338.81921387 C 262.12155151 337.57775879 263.96905518 336.36914062 265.91250610 335.46124268 C 267.89706421 334.77264404 269.88320923 334.10574341 271.86193848 333.58880615 C 273.91052246 333.35195923 275.84274292 333.35101318 277.75518799 333.48522949 C 279.67340088 333.67623901 281.49929810 334.20321655 283.35348511 334.67291260 C 285.10113525 335.21978760 286.62747192 336.35412598 288.07467651 337.19448853 C 289.49465942 338.28088379 290.73443604 339.47836304 291.78430176 340.84387207 C 292.82067871 342.30169678 293.80609131 343.62576294 294.77178955 345.10263062 C 295.75244141 346.49606323 296.82919312 347.88381958 298.06713867 348.95114136 C 299.29733276 350.20004272 300.54067993 351.20297241 296.70223999 350.37399292" stroke-width="1.97174394" fill="rgb(229, 221, 184)" opacity="1.0" stroke="rgb(5, 0, 1)" stroke-opacity="0.8367024" stroke-linecap="round" stroke-linejoin="round"/>
    <path d="M 324.52334595 348.40377808 C 326.14956665 347.98907471 327.67926025 347.61209106 329.33621216 347.60317993 C 330.96603394 347.51345825 332.39651489 347.48867798 333.71890259 347.79568481 C 334.82849121 348.16958618 335.89190674 348.49502563 336.75723267 348.88201904 C 337.47579956 349.30337524 337.95343018 349.76394653 338.17898560 350.11801147 C 338.09564209 350.33621216 337.87673950 350.46197510 337.38220215 350.58090210 C 336.75531006 350.64154053 335.89764404 350.64355469 334.82788086 350.54425049 C 333.76803589 350.48489380 332.68316650 350.50082397 331.45904541 350.45199585 C 330.09442139 350.46017456 328.69808960 350.47357178 327.31893921 350.52383423 C 325.87741089 350.68109131 324.47949219 350.81729126 323.04525757 350.89758301 C 321.69213867 350.72134399 320.15155029 350.61135864 324.52334595 348.40377808" stroke-width="1.90184247" fill="rgb(246, 240, 209)" opacity="1.0" stroke="rgb(32, 12, 4)" stroke-opacity="0.89839596" stroke-linecap="round" stroke-linejoin="round"/>
    <path d="M 310.64059448 350.93762207 C 309.52914429 350.72891235 308.41430664 350.65896606 307.37417603 350.81307983 C 306.37182617 350.84881592 305.42956543 350.85690308 304.42041016 350.79797363 C 303.51593018 350.77709961 302.85916138 350.79934692 302.40963745 350.76730347 C 302.06903076 350.48303223 301.87051392 350.02267456 301.88305664 349.57186890 C 302.02493286 349.21105957 302.31964111 348.77798462 302.77587891 348.32556152 C 303.56399536 348.07983398 304.57269287 347.87823486 305.67514038 347.64526367 C 306.76995850 347.58312988 308.01489258 347.54006958 309.24703979 347.60494995 C 310.27679443 347.76788330 311.22024536 348.13439941 312.35952759 348.45901489 C 313.42364502 348.86685181 314.26190186 349.05645752 314.99319458 349.61227417 C 315.77783203 350.12518311 316.48889160 350.90856934 310.64059448 350.93762207" stroke-width="1.89566183" fill="rgb(220, 215, 181)" opacity="1.0" stroke="rgb(37, 22, 17)" stroke-opacity="0.8730971" stroke-linecap="round" stroke-linejoin="round"/>
  </g>
</svg>
