<svg xmlns="http://www.w3.org/2000/svg" viewBox="0 0 512 512" height="512.0px" width="512.0px">
<path id="" fill="rgb(174, 83, 40)" fill-opacity="1.0" stroke="rgb(36, 10, 0)" stroke-width="1.37189829" stroke-opacity="1.0" stroke-linecap="round" stroke-linejoin="round"  filling="0" d="M351.876587 437.320953 C350.193573 441.967133 346.728577 444.334534 341.960754 445.408203 C337.192932 446.481873 331.122314 446.261780 324.228088 445.733032 C317.333862 445.204254 309.616028 444.366821 301.553833 444.205719 C294.160004 444.073700 287.347717 444.191956 280.749329 444.378723 C274.150940 444.565491 267.766418 444.820801 261.228088 444.962891 C254.689789 445.104980 247.997650 445.133881 240.784027 444.867859 C234.130600 445.607483 227.534744 445.947937 220.976440 446.069031 C214.418121 446.190125 207.897369 446.091858 201.394165 445.954071 C194.890945 445.816284 188.405273 445.638977 181.917114 445.601929 C171.569489 446.000610 165.067642 445.662231 160.964691 444.038879 C156.861740 442.415527 155.157684 439.507233 154.405609 434.766174 C153.653534 430.025085 153.853455 423.451233 153.558441 414.496765 C154.401321 409.156403 154.380127 402.675995 154.156830 395.754791 C153.933533 388.833588 153.508148 381.471588 153.542633 374.368042 C153.577118 367.264496 154.071472 360.419403 155.687683 354.531982 C160.873383 352.550842 164.911774 351.400848 168.810791 350.664032 C172.709808 349.927185 176.469437 349.603546 181.097656 349.275085 C185.725861 348.946655 191.222626 348.613403 198.595917 347.857422 C207.473877 347.611969 214.398361 347.605316 220.562500 347.678558 C226.726654 347.751831 232.130447 347.905029 237.967041 347.979248 C243.803635 348.053467 250.073029 348.048706 257.968323 347.806061 C265.051605 347.790253 271.815857 348.155334 278.376038 348.622559 C284.936188 349.089752 291.292236 349.659058 297.559143 350.051605 C303.826050 350.444153 310.003784 350.659973 316.207245 350.420227 C326.405762 351.542664 334.262939 351.426575 340.074341 351.730072 C345.885742 352.033569 349.651428 352.756653 351.666931 355.557495 C353.682434 358.358337 353.947754 363.236877 352.758545 371.851288 C352.298096 380.683624 352.265594 388.614532 352.353943 396.026123 C352.442261 403.437714 352.651398 410.329987 352.674225 417.085083 C352.697052 423.840179 352.533569 430.458069 351.876587 437.320953"></path>
<path id="" fill="rgb(132, 64, 34)" fill-opacity="1.0" stroke="rgb(144, 98, 78)" stroke-width="0.56716156" stroke-opacity="1.0" stroke-linecap="round" stroke-linejoin="round"  filling="0" d="M328.118408 448.091187 C321.240723 448.517914 316.016541 448.546631 310.318634 448.512634 C304.620697 448.478607 298.448975 448.381836 289.676147 448.557587 C281.913269 448.309509 275.656189 448.425598 269.242126 448.505432 C262.828094 448.585297 256.257111 448.628937 247.866501 448.236053 C241.265808 448.467590 235.323212 448.669891 228.813995 448.726288 C222.304764 448.782715 215.228897 448.693237 206.361633 448.341248 C199.273010 447.908020 192.248810 448.246033 184.905228 448.473694 C177.561630 448.701355 169.898651 448.818695 161.532486 447.944214 C156.496521 441.365143 157.608490 439.659363 161.992004 439.650024 C166.375519 439.640656 174.030579 441.327698 182.080841 441.534271 C191.275482 441.688019 197.043732 441.950745 201.957977 442.048340 C206.872208 442.145996 210.932419 442.078522 216.710938 441.571930 C224.779739 441.354065 230.987427 441.399231 236.657455 441.537018 C242.327469 441.674805 247.459824 441.905212 253.377945 442.057831 C261.425415 441.174194 267.048187 441.267242 272.812775 441.484039 C278.577332 441.700836 284.483704 442.041382 293.098297 441.652771 C300.869537 442.363098 307.754486 442.079590 314.612946 441.698273 C321.471375 441.316956 328.303314 440.837769 335.968506 441.156738 C344.325043 441.983215 348.762909 444.476715 347.911438 446.383636 C347.059998 448.290588 340.919189 449.610962 328.118408 448.091187"></path>
<path id="" fill="rgb(114, 59, 36)" fill-opacity="1.0" stroke="rgb(0, 11, 0)" stroke-width="0.33715665" stroke-opacity="1.0" stroke-linecap="round" stroke-linejoin="round"  filling="0" d="M247.931549 277.942139 C247.524475 286.740784 247.891220 294.960693 249.114487 304.127838 C250.337753 313.294952 252.417542 323.409271 255.436569 335.996704 C254.399323 349.923157 250.891113 351.683044 247.322540 346.931335 C243.753952 342.179596 240.124969 330.916290 238.846146 318.796387 C236.463531 308.833527 235.712463 298.692383 235.789627 288.502869 C235.866791 278.313293 236.772186 268.075348 237.702499 257.918823 C240.308823 246.452667 242.489120 238.597656 244.115479 230.504883 C245.741837 222.412109 246.814270 214.081573 247.204849 201.664383 C246.287476 192.089020 245.263092 183.591583 245.153259 174.175827 C245.043411 164.760071 245.848114 154.425995 248.588913 141.177383 C253.351135 131.163681 257.401825 125.163879 259.823364 119.322937 C262.244873 113.481995 263.037231 107.799911 261.282806 98.421631 C257.196716 79.469986 258.951782 73.605591 262.514587 75.921738 C266.077423 78.237892 271.447998 88.734596 274.592865 102.505157 C275.308014 112.560043 273.855286 119.867348 271.379822 127.354187 C268.904388 134.841034 265.406219 142.507401 262.030487 153.280426 C260.674530 166.880615 260.423401 177.364243 260.009644 186.883789 C259.595886 196.403351 259.019501 204.958847 257.013092 214.702774 C255.541687 226.103363 253.485397 234.416946 251.689911 243.628510 C249.894409 252.840088 248.359741 262.949646 247.931549 277.942139"></path>
<path id="" fill="rgb(92, 53, 34)" fill-opacity="1.0" stroke="rgb(61, 61, 51)" stroke-width="0.55525702" stroke-opacity="1.0" stroke-linecap="round" stroke-linejoin="round"  filling="0" d="M208.543259 236.222137 C210.053925 235.781067 211.353882 235.381104 212.617065 234.899506 C213.880249 234.417923 215.106659 233.854721 216.470245 233.087204 C217.949249 232.339355 219.377380 232.097153 220.735718 232.280441 C222.094055 232.463730 223.382599 233.072495 224.582397 234.026550 C225.662079 234.929611 226.919205 235.452362 228.340057 235.887268 C229.760925 236.322174 231.345490 236.669220 233.080063 237.220901 C235.056686 237.515778 236.604431 237.789825 238.001419 238.171356 C239.398407 238.552902 240.644623 239.041962 242.018188 239.766846 C243.362396 240.981903 244.115356 242.452469 244.189438 243.717621 C244.263504 244.982773 243.658691 246.042511 242.287338 246.435928 C240.675568 246.449738 239.489685 245.949158 238.572556 245.426208 C237.655426 244.903275 237.007050 244.357986 236.470352 244.282379 C234.853287 244.068771 233.487152 243.701538 232.104630 243.266953 C230.722107 242.832367 229.323181 242.330444 227.640549 241.847443 C226.054474 241.334381 224.810547 240.669647 223.473419 240.230682 C222.136292 239.791702 220.705963 239.578476 218.747025 239.968399 C217.342255 240.340179 215.912872 240.871796 214.446259 241.188461 C212.979645 241.505142 211.475830 241.606873 209.922180 241.118866 C208.244766 240.230469 206.887100 239.425079 206.455261 238.632385 C206.023407 237.839691 206.517395 237.059692 208.543259 236.222137"></path>
<path id="" fill="rgb(94, 39, 23)" fill-opacity="1.0" stroke="rgb(19, 13, 6)" stroke-width="0.26569986" stroke-opacity="1.0" stroke-linecap="round" stroke-linejoin="round"  filling="0" d="M292.222198 192.531311 C290.924164 192.459686 289.721802 192.390533 288.281281 192.356918 C286.840759 192.323318 285.162109 192.325256 282.911438 192.395844 C281.276367 192.459595 279.822571 192.337128 278.232056 192.289688 C276.641541 192.242249 274.914307 192.269836 272.732452 192.633698 C271.034210 193.175598 269.889160 193.940369 268.751923 194.780792 C267.614685 195.621201 266.485291 196.537262 264.818268 197.381744 C263.500214 196.948227 262.133240 196.506073 261.203278 195.864685 C260.273315 195.223297 259.780396 194.382675 260.210419 193.152237 C261.812714 191.929688 263.451752 190.906189 265.010895 190.101379 C266.570038 189.296570 268.049255 188.710464 269.331909 188.362701 C272.182343 187.483627 273.425201 187.159409 274.427338 186.850647 C275.429443 186.541870 276.190796 186.248535 278.078247 185.431244 C280.848267 184.814606 282.014282 184.481949 283.274170 184.338318 C284.534058 184.194672 285.887817 184.240067 289.033264 184.379532 C290.987701 184.580383 292.652893 184.750290 294.251526 184.987030 C295.850189 185.223770 297.382324 185.527344 299.070648 185.995544 C300.521362 186.318756 302.511444 187.002121 303.762573 188.088287 C305.013672 189.174438 305.525818 190.663422 304.020660 192.597839 C302.243408 193.329346 300.741608 193.557831 298.960236 193.480881 C297.178833 193.403931 295.117859 193.021545 292.222198 192.531311"></path>
<path id="" fill="rgb(65, 36, 27)" fill-opacity="1.0" stroke="rgb(0, 0, 0)" stroke-width="0.69766486" stroke-opacity="1.0" stroke-linecap="round" stroke-linejoin="round"  filling="0" d="M235.298111 137.446014 C233.283478 137.505219 231.943008 137.463455 230.488708 137.632721 C229.034424 137.801987 227.466309 138.182281 224.996445 139.085541 C222.879364 140.024414 221.345276 140.654404 219.790588 141.254105 C218.235886 141.853790 216.660583 142.423187 214.461090 143.240906 C212.341461 144.312897 210.829651 145.244568 209.863480 145.338913 C208.897308 145.433258 208.476761 144.690308 208.539658 142.413086 C208.843506 139.940979 208.841507 138.267181 209.092789 137.010559 C209.344070 135.753937 209.848618 134.914490 211.165558 134.111099 C212.957214 132.686646 214.419449 131.932007 215.969650 131.428162 C217.519852 130.924316 219.158020 130.671280 221.301575 130.250015 C224.506714 130.113220 226.057663 130.222549 227.203903 130.214417 C228.350143 130.206284 229.091690 130.080658 230.678024 129.473953 C233.118835 128.512177 234.782745 128.235870 236.366241 128.591385 C237.949738 128.946884 239.452820 129.934204 241.571991 131.499649 C243.454468 132.594864 244.286438 133.510117 245.228546 134.426544 C246.170654 135.342957 247.222900 136.260559 249.545959 137.360443 C251.865005 138.702148 253.049820 140.252121 252.943375 141.237610 C252.836914 142.223083 251.439209 142.644104 248.593231 141.727905 C245.998566 141.067566 243.949265 140.183182 241.911392 139.370834 C239.873520 138.558487 237.847076 137.818176 235.298111 137.446014"></path>
<path id="" fill="rgb(39, 89, 33)" fill-opacity="1.0" stroke="rgb(6, 0, 13)" stroke-width="0.2480946" stroke-opacity="1.0" stroke-linecap="round" stroke-linejoin="round"  filling="0" d="M173.330154 276.219421 C169.032883 274.747925 166.102417 273.666473 163.349228 271.977844 C160.596039 270.289185 158.020111 267.993347 154.431961 264.093079 C152.071259 261.081512 149.855804 257.538391 148.267441 253.516678 C146.679077 249.494965 145.717819 244.994690 145.865509 240.068787 C145.895218 236.524246 145.913712 233.019363 146.700455 229.227432 C147.487183 225.435486 149.042175 221.356476 152.144897 216.663696 C153.425171 214.094360 156.016357 211.194885 159.356339 208.559036 C162.696304 205.923172 166.785049 203.550919 171.060410 202.036011 C174.717087 200.818390 178.885910 199.930923 183.309113 199.818085 C187.732300 199.705231 192.409882 200.367004 197.084076 202.247864 C200.741806 204.007080 203.453735 205.038788 205.922287 206.371231 C208.390839 207.703674 210.615997 209.336853 213.300217 212.298981 C216.817200 215.503647 219.439377 219.288757 221.191818 223.121307 C222.944244 226.953842 223.826935 230.833817 223.864975 234.228210 C223.794144 239.418808 223.364807 243.735657 222.425552 247.682098 C221.486298 251.628525 220.037140 255.204529 217.926636 258.913422 C214.494385 263.107300 212.106674 265.818970 209.606979 267.995239 C207.107269 270.171478 204.495575 271.812286 200.615326 273.864349 C195.315430 276.036560 190.674820 276.903625 186.268860 277.088501 C181.862885 277.273376 177.691544 276.776031 173.330154 276.219421"></path>
<path id="" fill="rgb(55, 136, 38)" fill-opacity="1.0" stroke="rgb(19, 50, 14)" stroke-width="1.29489255" stroke-opacity="1.0" stroke-linecap="round" stroke-linejoin="round"  filling="0" d="M222.305084 125.985931 C220.098129 125.058327 218.093597 123.530060 216.117615 121.427467 C214.141647 119.324875 212.194244 116.647949 210.101532 113.423050 C208.008820 110.198151 205.770813 106.425262 203.213623 102.130737 C201.745758 98.425682 200.399689 95.180443 199.308167 92.028465 C198.216660 88.876488 197.379700 85.817764 196.930069 82.485756 C196.480438 79.153740 196.418121 75.548431 196.875885 71.303284 C197.792038 66.650589 199.041641 62.238197 200.560074 58.222469 C202.078506 54.206741 203.865768 50.587677 205.857254 47.521641 C207.848724 44.455605 210.044434 41.942596 212.379730 40.138977 C216.732269 36.162964 220.670288 33.362949 224.363007 31.313288 C228.055725 29.263626 231.503128 27.964314 234.874435 26.989700 C238.245758 26.015089 241.540985 25.365177 244.929321 24.614319 C249.660248 24.010345 254.109756 23.874165 258.368073 24.176291 C262.626404 24.478416 266.693542 25.218849 270.659790 26.368103 C274.626007 27.517357 278.491272 29.075436 282.345886 31.012848 C287.811829 35.018143 291.051270 37.220543 293.241913 38.848217 C295.432556 40.475891 296.574341 41.528839 297.845001 43.235226 C299.115631 44.941616 300.515137 47.301445 303.221100 51.542877 C305.197174 55.789124 306.583771 60.013840 307.528290 64.178909 C308.472839 68.343979 308.975281 72.449409 309.183014 76.457062 C309.390747 80.464722 309.303772 84.374619 309.069489 88.148621 C308.268921 92.870506 307.296600 97.386917 306.064423 101.501495 C304.832275 105.616074 303.340210 109.328804 301.500183 112.443336 C299.660156 115.557861 297.472107 118.074188 294.847961 119.795929 C292.149078 121.460098 288.951111 122.636505 285.392456 123.568703 C281.833801 124.500900 277.914429 125.188904 273.772736 125.876244 C269.631042 126.563591 265.267029 127.250290 260.819031 128.179886 C256.853516 128.507812 253.016327 129.112213 249.074539 129.526031 C245.132751 129.939850 241.086365 130.163116 236.702438 129.728775 C232.318512 129.294434 227.597046 128.202484 222.305084 125.985931"></path>
<path id="" fill="rgb(70, 144, 47)" fill-opacity="1.0" stroke="rgb(4, 32, 0)" stroke-width="1.23664606" stroke-opacity="1.0" stroke-linecap="round" stroke-linejoin="round"  filling="0" d="M328.256012 234.267975 C326.263062 234.639908 323.579803 234.727783 320.560669 234.492142 C317.541565 234.256500 314.186615 233.697357 310.850281 232.775253 C307.513977 231.853149 304.196289 230.568085 301.251740 228.880615 C298.712189 227.692719 296.172241 226.007690 293.770966 223.918152 C291.369690 221.828613 289.107056 219.334549 287.122162 216.528595 C285.137268 213.722656 283.430115 210.604828 282.139709 207.267761 C281.143188 204.931122 280.285461 202.128403 279.700653 199.054062 C279.115845 195.979721 278.803925 192.633759 278.899078 189.210663 C278.994263 185.787552 279.496460 182.287292 280.539856 178.904358 C280.922607 176.299332 281.748138 173.417908 282.968353 170.463348 C284.188568 167.508789 285.803467 164.481079 287.765015 161.583481 C289.726562 158.685883 292.034729 155.918396 294.641449 153.484238 C297.474548 151.177231 300.287811 149.223999 303.190582 147.636002 C306.093353 146.047989 309.085632 144.825195 312.276733 143.979050 C315.467834 143.132919 318.857788 142.663422 322.555939 142.582031 C326.058929 142.724762 328.946960 142.779099 331.570099 142.987686 C334.193237 143.196274 336.551514 143.559113 338.994965 144.318832 C341.438416 145.078568 343.967041 146.235199 346.930908 148.031357 C349.003723 149.111465 351.167511 150.392242 353.394775 152.086472 C355.622070 153.780701 357.912842 155.888428 360.239594 158.622421 C362.566376 161.356415 364.929138 164.716705 367.300415 168.916107 C368.118774 170.694626 369.030457 173.296402 369.796509 176.342606 C370.562561 179.388809 371.182953 182.879456 371.418732 186.435684 C371.654480 189.991928 371.505615 193.613770 370.733124 196.922394 C370.355682 199.792389 369.459229 202.863052 368.161469 205.935822 C366.863739 209.008575 365.164734 212.083450 363.182220 214.961853 C361.199707 217.840256 358.933716 220.522186 356.501923 222.809097 C353.816101 225.093536 351.196320 226.973083 348.425659 228.515549 C345.655029 230.058014 342.733490 231.263397 339.444183 232.199524 C336.154907 233.135651 332.497803 233.802521 328.256012 234.267975"></path>
<path id="" fill="rgb(76, 164, 59)" fill-opacity="1.0" stroke="rgb(27, 58, 24)" stroke-width="1.22773635" stroke-opacity="1.0" stroke-linecap="round" stroke-linejoin="round"  filling="0" d="M227.912308 159.978302 C226.413620 162.933060 225.371643 165.023544 224.327271 166.918381 C223.282883 168.813202 222.236084 170.512360 220.727783 172.684448 C219.219467 174.856537 217.249634 177.501556 214.359146 181.288116 C212.946411 182.847977 211.210159 184.482834 209.111038 185.930801 C207.011932 187.378784 204.549942 188.639893 201.685760 189.452225 C198.821564 190.264557 195.555176 190.628143 191.847229 190.281082 C189.287155 190.195007 186.683395 189.987976 184.044708 189.520538 C181.406036 189.053101 178.732452 188.325226 176.032745 187.197510 C173.333023 186.069778 170.607178 184.542175 167.863983 182.475250 C164.799866 180.061081 162.427643 177.665512 160.534485 175.297180 C158.641327 172.928848 157.227219 170.587769 156.079361 168.282578 C154.931503 165.977386 154.049896 163.708099 153.221680 161.483353 C152.413788 157.618912 152.028641 154.052597 151.958008 150.778397 C151.887360 147.504196 152.131195 144.522095 152.581284 141.826050 C153.031357 139.130020 153.687683 136.720032 154.441971 134.590088 C157.113968 129.649445 158.599670 126.784920 159.655884 124.888443 C160.712112 122.991966 161.338867 122.063538 162.292969 120.995079 C163.247070 119.926620 164.528519 118.718140 166.894150 116.261566 C169.230301 114.137474 171.837540 112.362511 174.609283 110.904221 C177.381027 109.445923 180.317291 108.304306 183.311523 107.446884 C186.305740 106.589470 189.357941 106.016266 192.361526 105.694794 C195.882126 105.594536 199.177872 105.597755 202.263702 105.837425 C205.349518 106.077095 208.225418 106.553215 210.906311 107.398743 C213.587204 108.244270 216.073090 109.459213 218.378876 111.176529 C220.358902 112.257301 222.571259 114.100220 224.687668 116.339531 C226.804077 118.578835 228.824539 121.214523 230.420776 123.880836 C232.017014 126.547150 233.189026 129.244095 233.608551 131.605896 C234.290558 135.242615 234.196777 138.188141 233.664688 140.972244 C233.132599 143.756348 232.162201 146.379059 231.090988 149.370132 C230.019760 152.361206 228.847717 155.720673 227.912308 159.978302"></path>
<path id="" fill="rgb(96, 173, 64)" fill-opacity="1.0" stroke="rgb(29, 67, 20)" stroke-width="1.17422235" stroke-opacity="1.0" stroke-linecap="round" stroke-linejoin="round"  filling="0" d="M328.953186 137.922729 C326.462158 139.943588 323.156799 140.400391 319.330902 140.445755 C315.504974 140.491135 311.158508 140.125061 306.585144 140.500198 C303.265686 140.684525 299.676788 141.909424 296.064789 142.598160 C292.452759 143.286896 288.817688 143.439484 285.405823 141.479141 C281.224335 139.278137 277.435455 137.026978 274.354492 134.612167 C271.273560 132.197342 268.900513 129.618866 267.550659 126.763229 C265.636505 123.257294 264.553070 118.908600 263.954193 114.456848 C263.355286 110.005096 263.240967 105.450302 263.265076 101.532166 C264.048126 97.095703 265.162781 93.141617 266.845642 89.457550 C268.528534 85.773483 270.779633 82.359436 273.835602 79.003052 C279.852295 75.253960 282.129852 73.509506 284.026947 72.518494 C285.924011 71.527481 287.440643 71.289902 291.935425 70.554565 C296.241821 69.743858 300.520813 69.546677 304.833771 70.044456 C309.146729 70.542236 313.493652 71.734970 317.935822 73.704086 C322.325195 75.928215 326.005859 78.833427 328.947662 81.766502 C331.889496 84.699570 334.092468 87.660507 335.526489 89.996078 C337.897827 94.635117 339.286255 98.968506 339.961060 103.070145 C340.635864 107.171783 340.597107 111.041664 340.114044 114.753693 C339.513458 119.018814 337.938354 123.740616 335.905823 127.931358 C333.873322 132.122101 331.383392 135.781799 328.953186 137.922729"></path>
<path id="" fill="rgb(113, 195, 90)" fill-opacity="1.0" stroke="rgb(43, 59, 40)" stroke-width="1.16525078" stroke-opacity="1.0" stroke-linecap="round" stroke-linejoin="round"  filling="0" d="M249.611786 166.247162 C249.293549 168.068069 248.893127 170.286667 248.322311 172.776031 C247.751511 175.265411 247.010315 178.025558 246.010574 180.929565 C244.483490 183.220001 242.776520 183.859085 240.977066 184.276611 C239.177612 184.694122 237.285660 184.890091 235.388580 186.294296 C232.839874 187.778748 229.918991 188.479614 227.158493 188.736603 C224.397995 188.993591 221.797882 188.806671 219.890732 188.515533 C216.187210 187.662994 213.406738 186.997406 211.299347 186.052750 C209.191956 185.108109 207.757629 183.884415 206.746445 181.915710 C204.973969 179.843750 203.430069 177.568192 202.315033 175.066132 C201.199997 172.564087 200.513824 169.835541 200.456818 166.857590 C200.779022 162.258286 200.881439 160.417847 201.167267 159.089386 C201.453110 157.760956 201.922379 156.944504 202.978333 154.393204 C204.547089 151.448517 206.391479 149.165009 208.460953 147.351608 C210.530426 145.538208 212.824982 144.194885 215.294067 143.130554 C219.384644 142.180450 222.321503 141.720291 224.804703 141.639252 C227.287888 141.558212 229.317413 141.856293 231.593353 142.422699 C234.428848 143.173431 236.580994 144.660553 238.332321 146.392914 C240.083649 148.125305 241.434189 150.102936 242.666473 151.834763 C245.785217 153.158997 247.225998 154.546738 248.034882 156.711105 C248.843750 158.875488 249.020721 161.816467 249.611786 166.247162"></path>
<path id="" fill="rgb(146, 208, 118)" fill-opacity="1.0" stroke="rgb(30, 46, 28)" stroke-width="1.03795588" stroke-opacity="1.0" stroke-linecap="round" stroke-linejoin="round"  filling="0" d="M301.228149 169.192459 C298.708771 171.145828 295.795746 172.432266 292.916626 173.260056 C290.037506 174.087845 287.192291 174.456985 284.808502 174.575775 C281.198608 174.440048 278.183563 174.077927 275.370483 173.330597 C272.557373 172.583267 269.946228 171.450714 267.144073 169.774155 C264.711914 167.964966 262.598694 166.670242 260.652435 164.907562 C258.706177 163.144867 256.926819 160.914185 255.162384 157.233078 C254.017227 154.305038 253.191238 151.773254 252.862137 148.952972 C252.533035 146.132690 252.700806 143.023911 253.543198 138.941895 C254.387283 135.957916 255.882706 133.182831 257.733093 130.637283 C259.583496 128.091736 261.788849 125.775726 264.052795 123.709869 C268.604340 121.162323 270.336121 119.977890 271.793030 119.304184 C273.249908 118.630470 274.431885 118.467476 277.883759 117.962799 C281.322144 117.596512 284.488312 117.643837 287.624695 118.177826 C290.761108 118.711823 293.867706 119.732483 297.186981 121.312866 C300.307739 123.058296 303.118408 125.250031 305.360748 127.556274 C307.603088 129.862518 309.277100 132.283264 310.124542 134.486710 C311.537659 137.754501 312.226440 140.918045 312.443817 143.993332 C312.661194 147.068619 312.407166 150.055649 311.934662 152.970428 C311.492310 155.923035 309.924316 159.266479 307.912598 162.227783 C305.900879 165.189102 303.445404 167.768311 301.228149 169.192459"></path>
<path id="" fill="rgb(157, 217, 130)" fill-opacity="1.0" stroke="rgb(21, 35, 18)" stroke-width="1.21846414" stroke-opacity="1.0" stroke-linecap="round" stroke-linejoin="round"  filling="0" d="M259.488464 196.033691 C260.501404 197.121399 261.252747 198.770676 261.751251 200.518097 C262.249725 202.265518 262.495361 204.111115 262.496765 205.591461 C262.293732 207.684448 262.230408 209.461411 261.924622 211.068314 C261.618805 212.675201 261.070496 214.112030 259.897430 215.524750 C258.904419 216.770294 258.023499 217.925323 256.876740 218.987335 C255.729980 220.049347 254.317383 221.018341 252.261002 221.891785 C250.632263 222.429810 249.193771 222.835052 247.521896 223.081253 C245.850021 223.327454 243.944763 223.414597 241.382523 223.316437 C240.055939 222.919617 238.552017 222.425781 237.024979 221.582031 C235.497955 220.738266 233.947815 219.544586 232.528824 217.748077 C231.431229 215.601257 230.813873 214.473648 230.359192 213.534515 C229.904510 212.595383 229.612503 211.844711 229.165619 210.451752 C228.678040 208.893387 228.883514 206.893814 229.382263 204.936111 C229.881027 202.978409 230.673080 201.062576 231.358643 199.671677 C233.005493 197.464600 234.353058 196.036133 235.635544 195.007278 C236.918030 193.978424 238.135422 193.349213 239.521957 192.740677 C241.256531 191.873871 243.208466 191.303894 245.060837 190.988358 C246.913223 190.672836 248.666061 190.611786 250.002426 190.762848 C252.219574 191.132401 254.060730 191.790039 255.612762 192.685333 C257.164795 193.580627 258.427734 194.713562 259.488464 196.033691"></path>
<path id="" fill="rgb(178, 224, 157)" fill-opacity="1.0" stroke="rgb(23, 18, 32)" stroke-width="1.1062268" stroke-opacity="1.0" stroke-linecap="round" stroke-linejoin="round"  filling="0" d="M262.036560 57.659424 C262.900208 56.850403 264.204559 55.937386 265.591125 55.088631 C266.977722 54.239876 268.446503 53.455383 269.639069 52.903412 C270.827148 52.618576 271.971680 52.425106 273.137146 52.423550 C274.302612 52.421993 275.489014 52.612350 276.760803 53.095169 C278.033264 53.331955 279.525238 53.906700 280.902618 54.711617 C282.279999 55.516537 283.542786 56.551628 284.356934 57.709106 C285.536163 58.948219 286.437500 60.464016 287.094147 62.012146 C287.750793 63.560276 288.162781 65.140739 288.363312 66.509186 C288.516174 68.209518 288.193237 69.729042 287.566437 71.174408 C286.939636 72.619781 286.008972 73.990997 284.946289 75.394714 C282.757446 77.201675 281.948669 77.926910 281.269592 78.398773 C280.590485 78.870636 280.041077 79.089119 278.371002 79.882584 C276.795471 80.765335 275.035919 81.284599 273.340149 81.463303 C271.644379 81.642014 270.012390 81.480156 268.692108 81.000671 C266.249817 79.763016 265.058411 79.105354 264.067078 78.382240 C263.075745 77.659126 262.284546 76.870560 260.642578 75.371094 C259.392181 73.572540 258.775665 72.023537 258.523560 70.644402 C258.271423 69.265259 258.383728 68.055992 258.590912 66.936905 C258.661743 64.672478 258.865204 62.920494 259.379944 61.450924 C259.894714 59.981354 260.720703 58.794197 262.036560 57.659424"></path>
<path id="" fill="rgb(224, 212, 181)" fill-opacity="1.0" stroke="rgb(35, 38, 43)" stroke-width="1.18236935" stroke-opacity="1.0" stroke-linecap="round" stroke-linejoin="round"  filling="0" d="M222.428543 335.987671 C223.234772 336.427582 224.542709 337.616669 225.904587 339.055695 C227.266464 340.494751 228.682281 342.183716 229.704330 343.623352 C231.829437 345.282654 232.918915 347.116669 232.617432 348.405212 C232.315933 349.693726 230.623459 350.436768 227.184662 349.914154 C225.215393 349.818054 223.477875 349.856964 221.581406 349.922577 C219.684952 349.988190 217.629562 350.080444 215.024567 350.091034 C212.904343 350.131714 210.883057 350.094452 208.893753 350.079681 C206.904449 350.064911 204.947144 350.072632 202.954865 350.203156 C200.430649 350.149536 198.241455 350.051422 196.296127 350.039520 C194.350815 350.027588 192.649384 350.101898 191.100723 350.393066 C188.134308 350.499634 186.039032 350.632385 184.821487 350.451172 C183.603928 350.269958 183.264114 349.774780 183.808640 348.625519 C184.089630 347.344757 184.917511 345.794739 185.999680 344.194092 C187.081848 342.593445 188.418274 340.942200 189.716400 339.459015 C190.900482 338.346985 191.863724 337.371033 193.102722 336.362091 C194.341721 335.353119 195.856476 334.311127 198.143600 333.066925 C201.038376 331.956543 202.576874 331.413849 204.111969 331.173828 C205.647049 330.933838 207.178711 330.996552 210.059784 331.096985 C211.933838 331.356293 213.889160 331.811188 215.944397 332.585144 C217.999649 333.359100 220.154816 334.452118 222.428543 335.987671"></path>
<path id="" fill="rgb(226, 216, 180)" fill-opacity="1.0" stroke="rgb(17, 16, 22)" stroke-width="1.20734751" stroke-opacity="1.0" stroke-linecap="round" stroke-linejoin="round"  filling="0" d="M293.606323 350.373474 C291.761536 350.388031 290.489563 350.366760 288.972931 350.362427 C287.456268 350.358063 285.694946 350.370605 282.871490 350.452759 C280.713196 350.411621 278.840393 350.399414 276.902008 350.358612 C274.963623 350.317810 272.959656 350.248383 270.539001 350.092834 C268.973206 350.139282 266.959839 350.141785 264.825104 350.159973 C262.690399 350.178162 260.434326 350.212036 258.383240 350.321228 C256.155365 350.053589 254.368683 350.214691 252.728256 350.322388 C251.087845 350.430084 249.593689 350.484344 247.950836 350.003021 C249.076019 348.351135 250.444061 347.165100 251.970596 345.926392 C253.497131 344.687683 255.182159 343.396301 256.941315 341.533722 C258.480408 340.286682 259.582031 339.358276 260.721924 338.544403 C261.861847 337.730530 263.040009 337.031219 264.732147 336.242432 C267.034546 335.242554 269.015717 334.624664 270.815338 334.237213 C272.614990 333.849762 274.233063 333.692749 275.809296 333.614655 C278.454956 333.762238 280.560486 334.061066 282.380737 334.610809 C284.200958 335.160553 285.735901 335.961182 287.240387 337.112396 C289.031189 338.193268 290.413055 339.636505 291.655273 341.167450 C292.897491 342.698395 294.000061 344.317017 295.232269 345.748718 C296.449585 347.366089 298.322998 348.824921 298.752136 349.728058 C299.181274 350.631226 298.166138 350.978699 293.606323 350.373474"></path>
<path id="" fill="rgb(229, 212, 181)" fill-opacity="1.0" stroke="rgb(73, 55, 43)" stroke-width="1.27198315" stroke-opacity="1.0" stroke-linecap="round" stroke-linejoin="round"  filling="0" d="M325.714661 348.200043 C326.664886 348.100220 326.882233 348.169067 328.458588 347.998962 C329.334137 348.035065 330.158447 347.974884 331.453461 347.937531 C332.235931 347.935974 333.100830 347.953613 334.416016 348.135498 C335.124359 348.272400 336.407440 348.633209 337.029755 349.628052 C336.552338 350.562531 335.852173 350.251282 334.559113 350.379089 C333.164001 350.432434 333.295044 350.460571 332.017426 350.490509 C330.760681 350.538910 330.637634 350.533997 329.172699 350.672943 C328.351440 350.716278 327.294952 350.588715 326.134155 350.564484 C325.218292 350.479828 323.971466 350.424805 323.239868 349.652679 C323.327240 348.552399 324.187561 348.549255 325.714661 348.200043"></path>
<path id="" fill="rgb(235, 224, 192)" fill-opacity="1.0" stroke="rgb(56, 45, 38)" stroke-width="1.12689006" stroke-opacity="1.0" stroke-linecap="round" stroke-linejoin="round"  filling="0" d="M313.280212 350.671661 C312.146027 350.694244 312.081970 350.671265 310.606842 350.700714 C309.623138 350.740509 309.054016 350.688599 307.810089 350.731201 C306.915680 350.797821 306.064240 350.744720 304.957672 350.818817 C304.055267 350.856689 302.989624 351.105377 302.458893 349.941101 C302.526978 348.953125 302.838562 348.461212 304.098297 348.104980 C305.451172 347.894928 305.215393 347.984253 306.434418 347.843994 C307.684937 347.820831 308.154297 347.875366 309.208984 347.900482 C310.029633 347.977844 310.849976 348.177887 312.013458 348.418121 C312.893555 348.605225 313.661804 348.702759 314.738220 349.433380 C315.717590 350.432526 314.489532 350.645142 313.280212 350.671661"></path>
</svg>