<?xml version="1.0" ?>
<svg xmlns="http://www.w3.org/2000/svg" version="1.1" width="512" height="512" viewBox="0 0 512 512">
  <defs/>
  <g>
    <path d="M 349.18832397 442.94940186 C 345.01486206 444.09512329 340.72500610 445.10394287 336.40142822 445.79718018 C 331.92205811 446.01129150 327.08370972 446.03826904 321.92398071 445.88104248 C 316.59930420 445.82186890 311.02209473 445.81506348 305.10604858 445.87188721 C 298.84857178 445.94506836 292.40075684 445.94519043 285.65029907 445.87936401 C 278.67208862 445.89694214 271.33886719 445.83633423 263.94912720 445.74340820 C 256.35769653 445.75219727 248.60054016 445.80038452 240.82835388 445.84063721 C 232.98770142 445.85397339 225.11497498 445.77981567 217.36184692 445.77386475 C 209.65382385 445.90454102 202.20100403 445.95587158 195.06509399 445.93630981 C 188.19311523 445.93362427 181.66706848 446.03598022 175.76913452 446.27029419 C 170.48197937 446.69201660 165.73069763 446.90133667 161.63636780 446.17391968 C 158.21092224 444.06082153 155.47521973 440.59759521 153.86363220 435.85260010 C 153.18281555 429.89663696 153.36851501 423.08755493 153.52430725 415.68392944 C 153.45925903 407.66992188 153.50555420 399.39801025 153.53953552 391.04077148 C 153.50006104 383.02615356 153.58404541 375.51992798 153.57690430 368.73358154 C 153.48587036 362.78952026 153.44468689 357.97018433 153.88633728 354.60461426 C 155.34832764 352.89654541 157.80552673 352.49163818 161.29205322 352.42031860 C 165.43315125 351.22955322 170.19645691 349.97238159 175.63714600 348.95733643 C 181.58596802 348.50332642 187.95022583 348.44097900 194.48371887 348.78518677 C 201.25325012 349.13613892 208.16790771 349.61294556 215.13488770 349.93713379 C 222.13499451 350.00537109 229.15574646 349.66033936 236.02546692 348.56588745 C 242.84138489 346.74636841 249.92198181 345.52218628 257.21899414 345.16369629 C 264.70083618 345.24276733 272.33813477 345.69198608 280.13543701 346.33166504 C 287.94784546 347.27975464 295.62530518 348.21435547 303.28060913 349.18048096 C 310.81585693 350.23443604 318.06063843 350.74761963 324.98382568 350.98901367 C 331.42361450 351.28549194 337.30957031 351.63577271 342.45193481 351.85894775 C 346.70474243 351.71731567 349.94415283 352.09219360 352.01849365 353.36221313 C 353.02902222 355.99487305 353.15811157 360.12680054 353.17266846 365.68365479 C 353.16409302 372.33441162 353.13607788 380.09982300 353.07751465 388.66693115 C 353.27224731 397.93652344 353.26330566 407.63674927 352.96643066 417.79751587 C 353.38070679 428.23171997 354.05596924 438.68115234 349.18832397 442.94940186" stroke-width="2.00000000" fill="rgb(172, 83, 42)" opacity="1.0" stroke="rgb(21, 5, 0)" stroke-opacity="0.87357837" stroke-linecap="round" stroke-linejoin="round"/>
    <path d="M 332.98968506 447.36480713 C 325.92932129 447.36544800 318.85760498 447.34896851 311.68646240 447.31192017 C 304.58486938 447.38009644 297.43084717 447.44989014 290.18994141 447.34725952 C 282.85379028 447.22994995 275.46029663 447.29650879 267.98281860 447.38409424 C 260.38092041 447.28155518 252.66709900 447.31423950 244.80647278 447.34204102 C 236.98660278 447.40451050 229.16082764 447.30426025 221.43341064 447.31686401 C 213.80406189 447.25357056 206.36843872 447.26049805 199.17103577 447.34909058 C 192.27027893 447.36227417 185.80586243 447.37252808 179.82653809 447.39471436 C 174.67909241 447.46789551 170.34806824 447.50939941 167.02226257 447.28308105 C 164.96186829 446.53576660 164.17361450 445.57238770 164.87298584 444.62203979 C 167.01396179 444.16961670 170.24845886 444.08956909 174.50680542 444.14056396 C 179.53979492 444.17996216 185.28947449 444.18066406 191.58985901 444.21102905 C 198.25404358 444.14120483 205.23693848 444.12680054 212.36810303 444.19049072 C 219.54277039 444.14230347 226.98480225 444.13043213 234.36395264 444.12994385 C 241.67138672 444.11276245 248.98760986 444.17846680 256.17861938 444.12442017 C 263.23620605 444.09906006 270.15658569 444.11703491 276.92657471 444.14489746 C 283.58654785 444.10675049 290.08157349 444.11584473 296.41500854 444.14074707 C 302.54043579 444.16046143 308.52444458 444.20733643 314.21884155 444.22830200 C 319.69299316 444.14669800 324.99404907 444.15093994 330.04086304 444.23678589 C 334.81964111 444.18353271 339.46228027 444.18395996 343.95095825 444.50518799 C 348.08248901 445.61923218 352.29718018 447.20098877 332.98968506 447.36480713" stroke-width="1.82969260" fill="rgb(172, 90, 52)" opacity="1.0" stroke="rgb(46, 4, 0)" stroke-opacity="0.6642036" stroke-linecap="round" stroke-linejoin="round"/>
    <path d="M 248.60281372 303.52960205 C 250.24560547 312.13543701 251.80552673 320.37802124 253.57542419 327.76004028 C 255.29924011 334.13528442 255.80010986 339.26052856 254.74664307 342.99978638 C 252.21771240 345.32214355 248.95538330 345.81951904 245.94784546 344.21481323 C 243.81819153 340.51528931 242.32144165 334.75628662 240.65560913 327.42953491 C 238.55995178 319.14993286 237.02113342 309.83087158 236.17678833 299.55191040 C 235.80911255 288.75411987 236.09729004 277.65869141 236.98886108 266.47689819 C 238.00782776 255.46365356 240.40893555 244.83755493 243.62361145 234.49163818 C 245.73937988 224.01583862 246.28521729 213.57899475 245.70462036 203.08583069 C 244.78135681 192.58207703 244.31492615 182.35502625 244.74827576 172.34225464 C 245.85153198 162.49388123 246.89331055 153.07321167 247.96882629 144.17323303 C 250.89587402 136.13037109 254.67066956 128.60311890 258.01226807 121.61732483 C 260.76562500 115.04096222 263.00814819 109.27006531 264.77514648 104.53540039 C 266.00994873 100.91394043 266.72363281 98.54911041 267.07849121 97.61752319 C 267.19876099 98.17020416 267.03439331 100.10335541 266.57977295 103.42301941 C 266.06277466 108.07607269 265.39584351 113.89868927 264.64749146 120.85442352 C 263.85986328 128.71582031 263.14151001 137.47586060 262.29885864 146.91694641 C 261.50817871 156.95318604 260.89813232 167.43502808 260.33996582 178.24850464 C 259.96069336 189.31364441 259.36334229 200.52441406 258.10943604 211.88645935 C 255.99984741 223.33364868 253.35765076 234.87828064 251.01295471 246.71569824 C 249.00712585 258.98672485 246.72294617 271.27148438 248.60281372 303.52960205" stroke-width="0.51443899" fill="rgb(109, 56, 30)" opacity="1.0" stroke="rgb(0, 2, 0)" stroke-opacity="0.41830412" stroke-linecap="round" stroke-linejoin="round"/>
    <path d="M 208.04560852 233.73484802 C 209.49252319 233.66639709 210.84213257 233.71643066 212.32356262 233.73556519 C 213.74911499 233.61032104 215.10427856 233.59918213 216.61674500 233.69274902 C 218.09426880 233.69718933 219.53860474 233.75477600 221.00854492 233.93315125 C 222.52351379 234.21548462 224.04745483 234.44108582 225.55935669 234.79156494 C 227.01698303 235.48170471 228.54287720 236.05026245 230.11170959 236.48406982 C 231.70042419 236.88839722 233.26605225 237.22857666 234.72257996 237.54820251 C 236.31433105 237.89944458 237.65763855 238.40029907 238.88433838 238.84014893 C 240.14111328 239.09510803 241.18357849 239.30276489 241.96784973 239.66302490 C 242.49267578 240.31663513 242.76043701 241.09838867 242.73377991 242.02691650 C 242.66706848 242.90994263 242.33760071 243.72419739 242.00822449 244.60552979 C 241.51296997 245.27449036 240.87939453 245.72225952 240.15565491 245.89027405 C 239.39523315 245.71643066 238.47209167 245.24601746 237.39176941 244.70542908 C 236.08935547 244.36404419 234.70701599 243.97045898 233.29029846 243.47026062 C 231.78646851 242.90687561 230.26194763 242.32754517 228.74165344 241.66291809 C 227.21392822 241.12135315 225.57136536 240.82568359 223.93049622 240.61865234 C 222.37573242 240.36366272 220.80459595 240.15324402 219.25459290 239.99668884 C 217.76898193 239.91168213 216.25247192 239.83276367 214.69731140 239.79158020 C 213.32920837 239.79016113 211.85839844 239.65960693 210.48451233 239.61282349 C 209.04356384 239.58607483 207.70458984 239.58970642 206.24769592 239.55313110 C 204.92678833 239.50933838 203.53504944 239.50735474 208.04560852 233.73484802" stroke-width="0.58267564" fill="rgb(83, 45, 30)" opacity="1.0" stroke="rgb(24, 11, 0)" stroke-opacity="0.3597443" stroke-linecap="round" stroke-linejoin="round"/>
    <path d="M 294.01004028 191.31935120 C 292.03091431 191.29690552 289.91003418 191.25306702 287.89483643 191.17819214 C 285.75878906 191.33659363 283.71093750 191.36456299 281.67129517 191.38134766 C 279.65216064 191.53694153 277.63729858 191.68353271 275.70205688 191.94393921 C 273.87771606 192.29512024 272.13946533 192.89758301 270.52648926 193.64668274 C 268.99118042 194.55375671 267.60922241 195.47016907 266.34286499 196.33412170 C 265.28051758 197.21905518 264.27774048 197.74595642 263.26885986 197.80015564 C 262.24798584 197.35591125 261.27630615 196.61662292 260.46414185 195.84626770 C 259.84289551 195.00447083 259.51052856 194.06759644 259.52319336 193.16679382 C 259.98941040 192.58399963 260.88092041 192.15881348 262.11129761 191.73327637 C 263.43743896 191.01026917 264.99176025 190.22825623 266.70843506 189.48664856 C 268.62066650 188.85084534 270.65252686 188.19065857 272.69848633 187.48747253 C 274.76818848 186.88238525 276.83590698 186.21441650 278.80477905 185.57620239 C 280.82766724 185.05398560 282.77069092 184.72755432 284.68353271 184.48554993 C 286.53076172 184.30931091 288.26599121 184.23252869 289.95803833 184.32052612 C 291.47644043 184.44306946 292.97369385 184.73852539 294.32641602 185.07313538 C 295.50958252 185.51037598 296.65734863 185.99409485 297.67770386 186.55989075 C 298.51763916 187.15711975 299.32119751 187.82418823 300.00143433 188.54399109 C 300.56396484 189.26934814 301.09994507 190.02154541 301.51837158 190.82791138 C 301.95806885 191.62551880 302.33648682 192.44206238 302.65969849 193.24861145 C 303.03250122 194.06851196 303.36532593 194.92039490 294.01004028 191.31935120" stroke-width="0.59481525" fill="rgb(79, 42, 26)" opacity="1.0" stroke="rgb(0, 0, 0)" stroke-opacity="0.41757467" stroke-linecap="round" stroke-linejoin="round"/>
    <path d="M 235.97293091 137.29350281 C 233.97773743 137.91490173 231.91961670 138.59303284 229.88059998 139.19937134 C 227.97032166 139.77238464 225.99867249 140.34289551 224.15191650 140.87109375 C 222.29321289 141.35784912 220.54364014 141.76550293 218.88432312 142.06564331 C 217.35176086 142.31341553 215.87916565 142.43905640 214.62774658 142.42495728 C 213.42745972 142.41468811 212.44271851 142.16461182 211.58352661 141.94850159 C 210.87425232 141.54493713 210.41149902 141.03079224 210.06929016 140.36741638 C 210.01013184 139.72463989 210.07614136 138.92317200 210.29779053 138.09130859 C 210.84223938 137.13682556 211.46656799 136.24493408 212.28392029 135.28689575 C 213.34207153 134.30328369 214.48907471 133.35433960 215.93565369 132.50111389 C 217.44902039 131.70059204 219.10882568 130.94905090 220.98715210 130.31114197 C 222.94584656 129.71586609 224.96908569 129.41529846 227.05944824 129.13685608 C 229.26231384 129.01144409 231.54740906 129.08164978 233.77934265 129.29107666 C 235.98114014 129.63613892 238.12519836 130.14424133 240.12838745 130.79287720 C 241.92884827 131.49780273 243.49195862 132.39961243 244.75695801 133.42329407 C 245.57324219 134.59432983 246.33732605 135.45356750 247.26716614 135.93795776 C 248.34948730 136.04273987 249.42973328 136.02297974 250.43284607 136.13926697 C 251.06739807 136.80813599 251.38653564 137.75962830 251.31954956 139.03523254 C 250.98240662 140.16316223 250.41500854 141.25971985 249.60568237 141.86746216 C 248.60887146 142.15835571 247.63514709 141.85752869 246.58671570 141.27471924 C 245.41270447 140.77809143 244.11538696 140.46176147 235.97293091 137.29350281" stroke-width="0.69928312" fill="rgb(66, 36, 27)" opacity="1.0" stroke="rgb(0, 0, 0)" stroke-opacity="0.41711456" stroke-linecap="round" stroke-linejoin="round"/>
    <path d="M 170.95616150 275.48345947 C 167.58567810 274.03472900 164.39445496 272.55364990 161.37739563 270.59667969 C 158.49414062 268.42919922 155.93699646 266.06280518 153.65878296 263.26135254 C 151.40455627 260.29608154 149.63877869 257.07965088 148.19253540 253.46528625 C 146.96078491 249.77284241 146.06425476 245.80284119 145.65655518 241.76954651 C 145.46586609 237.72636414 145.81172180 233.64591980 146.43586731 229.55683899 C 147.42259216 225.56506348 148.90332031 221.80065918 150.90509033 218.23120117 C 153.25865173 214.79713440 155.89456177 211.59890747 158.99703979 208.71992493 C 162.27056885 206.22512817 165.85177612 204.13703918 169.76387024 202.41561890 C 173.70596313 201.07363892 177.74935913 200.20880127 181.90814209 199.92338562 C 186.11921692 199.95130920 190.24391174 200.46511841 194.32104492 201.47090149 C 198.39935303 202.63604736 202.29260254 204.23651123 205.86724854 206.29565430 C 209.36567688 208.49050903 212.43540955 211.20437622 215.07217407 214.19300842 C 217.55520630 217.34536743 219.72422791 220.66586304 221.46835327 224.26049805 C 222.98078918 227.82151794 223.92684937 231.57510376 224.28038025 235.43486023 C 224.09248352 239.42213440 223.58766174 243.37165833 222.61965942 247.30601501 C 221.53602600 251.19998169 219.91815186 254.81489563 217.86085510 258.21618652 C 215.82781982 261.43301392 213.41720581 264.35760498 210.83834839 267.02575684 C 207.99353027 269.45928955 204.99259949 271.44836426 201.70768738 273.16384888 C 198.28488159 274.76043701 194.63812256 275.84652710 190.77662659 276.72015381 C 186.74945068 277.12686157 182.60983276 277.84628296 170.95616150 275.48345947" stroke-width="0.48033851" fill="rgb(36, 89, 32)" opacity="1.0" stroke="rgb(15, 0, 22)" stroke-opacity="0.39866954" stroke-linecap="round" stroke-linejoin="round"/>
    <path d="M 220.79400635 130.54472351 C 218.79324341 127.34632111 216.70965576 124.22167969 214.56292725 121.02481079 C 212.43914795 117.90610504 210.47647095 114.70699310 208.53633118 111.60756683 C 206.50379944 108.39070892 204.51705933 105.18039703 202.78645325 101.88958740 C 201.24816895 98.66007996 199.76074219 95.36262512 198.40245056 91.88109589 C 197.57089233 88.24224854 196.95724487 84.59476471 196.41265869 80.90860748 C 196.27304077 77.22719574 196.49536133 73.45330048 196.78372192 69.69455719 C 197.45452881 65.98438263 198.35543823 62.37916565 199.62234497 58.84223557 C 201.02279663 55.23529434 202.80426025 51.75707245 204.92173767 48.45129395 C 207.25727844 45.10081100 209.80834961 41.89422607 212.85630798 39.04459763 C 215.75802612 36.25853729 219.09213257 33.82554626 222.62762451 31.72224808 C 226.34794617 29.65844727 230.21336365 28.07497406 234.27870178 26.69770432 C 238.43615723 25.33284378 242.61846924 24.33620071 247.08593750 23.78706360 C 251.62045288 23.44170952 256.08392334 23.44947243 260.40847778 23.69023514 C 264.56207275 24.43770599 268.67938232 25.28984642 272.57757568 26.38863945 C 276.13446045 27.65256691 279.45046997 29.32446098 282.64959717 31.08323860 C 285.83346558 32.81854630 288.83508301 34.69200134 291.66571045 36.83670425 C 294.48193359 38.96777344 296.87387085 41.50288391 299.09866333 44.30215073 C 301.18911743 46.98287201 302.97891235 50.03995132 304.54067993 53.32102966 C 305.99102783 56.73874664 307.22787476 60.28867722 308.26339722 63.99065399 C 308.78756714 67.94116974 309.09866333 71.90254211 309.15432739 76.03269196 C 309.13616943 80.11378479 308.90985107 84.15914917 308.43121338 88.18692780 C 307.74328613 92.10646057 306.85275269 95.95171356 305.74029541 99.62119293 C 304.28131104 103.12197113 302.56842041 106.26758575 300.65447998 109.25430298 C 298.49291992 111.99237061 296.01184082 114.53414154 293.25805664 116.76708984 C 290.35903931 118.75186157 287.25717163 120.40251923 283.84292603 121.89421082 C 280.31961060 123.14530182 276.67291260 124.31375122 272.90573120 125.20247650 C 268.93316650 126.08048248 264.97146606 126.84346008 261.06185913 127.52986908 C 257.01876831 128.31565857 253.07971191 129.04699707 249.23127747 129.94985962 C 245.44744873 130.69613647 241.64732361 131.13995361 237.83979797 131.19705200 C 234.04800415 131.09033203 230.17607117 131.00238037 220.79400635 130.54472351" stroke-width="1.92141438" fill="rgb(55, 136, 41)" opacity="1.0" stroke="rgb(22, 40, 18)" stroke-opacity="0.9692842" stroke-linecap="round" stroke-linejoin="round"/>
    <path d="M 325.97848511 234.99330139 C 323.23895264 234.95722961 320.58563232 234.67906189 317.91650391 234.30221558 C 315.29541016 233.89297485 312.54794312 233.33757019 309.67239380 232.70193481 C 306.84997559 231.99900818 304.10510254 230.86054993 301.25341797 229.55842590 C 298.43005371 228.06291199 295.81750488 226.17562866 293.29971313 223.99801636 C 290.75933838 221.78811646 288.46066284 219.47399902 286.50021362 216.69548035 C 284.65191650 213.79705811 283.03527832 210.75086975 281.60519409 207.60098267 C 280.41226196 204.27203369 279.55331421 200.97573853 278.89505005 197.70370483 C 278.46664429 194.57255554 278.38104248 191.52900696 278.41439819 188.50375366 C 278.50399780 185.45872498 279.10382080 182.36293030 279.80895996 179.31007385 C 280.71005249 176.22393799 281.97756958 173.16941833 283.38174438 170.09960938 C 284.95223999 167.03138733 286.74929810 164.03819275 288.68835449 161.10354614 C 290.71603394 158.35740662 292.97247314 155.79264832 295.39239502 153.41267395 C 297.92758179 151.08068848 300.56423950 148.88981628 303.21865845 147.08332825 C 305.94894409 145.52030945 308.76901245 144.08081055 311.74313354 142.97480774 C 314.66860962 142.16177368 317.53649902 141.57006836 320.37570190 141.37719727 C 323.38397217 141.45442200 326.44607544 141.69151306 329.37304688 142.20751953 C 332.27859497 142.87957764 335.21124268 143.35328674 338.18011475 143.83093262 C 341.13882446 144.66014099 343.78375244 146.05140686 346.58221436 147.43791199 C 349.41363525 148.99562073 352.09356689 150.68324280 354.61380005 152.60797119 C 356.92181396 154.82064819 359.30895996 157.17642212 361.41839600 159.48028564 C 363.39013672 162.06681824 365.10940552 164.75558472 366.64453125 167.57218933 C 368.17468262 170.49394226 369.23196411 173.38000488 370.01632690 176.48707581 C 370.96362305 179.78498840 371.54092407 183.03684998 371.70877075 186.44500732 C 371.77938843 189.86027527 371.64846802 193.30746460 371.29605103 196.79519653 C 370.64367676 200.18731689 369.63516235 203.39558411 368.31417847 206.49005127 C 366.89987183 209.58906555 365.41415405 212.47822571 363.41500854 215.34741211 C 361.43798828 217.99575806 359.38964844 220.59072876 357.23120117 223.07130432 C 354.60189819 224.96522522 351.93948364 226.76783752 349.19534302 228.44760132 C 346.33374023 229.80227661 343.51269531 231.10668945 340.65863037 232.26425171 C 337.64721680 233.23925781 334.59011841 234.31282043 325.97848511 234.99330139" stroke-width="1.95752549" fill="rgb(71, 145, 49)" opacity="1.0" stroke="rgb(13, 34, 7)" stroke-opacity="0.92233956" stroke-linecap="round" stroke-linejoin="round"/>
    <path d="M 229.94017029 160.75788879 C 228.28152466 163.06143188 226.59782410 165.43173218 224.86212158 167.80242920 C 223.23005676 170.13308716 221.44042969 172.43327332 219.68829346 174.73323059 C 217.95547485 176.97711182 216.18086243 179.10250854 214.29454041 181.16761780 C 212.36163330 183.18026733 210.43850708 184.99722290 208.52577209 186.66464233 C 206.47277832 188.14001465 204.25914001 189.17024231 201.78631592 189.85975647 C 199.08387756 190.39617920 196.32588196 190.69084167 193.41638184 190.72123718 C 190.39694214 190.73815918 187.33982849 190.32568359 184.22444153 189.85607910 C 181.12187195 189.33885193 178.04263306 188.43516541 175.15086365 187.31195068 C 172.23922729 185.97067261 169.66120911 184.50172424 167.21173096 182.53221130 C 164.74252319 180.48435974 162.42721558 178.40390015 160.44387817 175.97895813 C 158.62498474 173.42350769 156.94798279 170.74774170 155.40336609 168.06814575 C 154.21469116 165.22999573 153.25880432 162.33575439 152.44421387 159.41818237 C 151.90780640 156.43890381 151.55822754 153.40782166 151.54946899 150.31152344 C 151.58441162 147.21524048 151.83753967 144.20053101 152.21466064 141.30467224 C 152.93827820 138.49818420 153.75440979 135.83639526 154.60133362 133.25001526 C 155.73010254 130.82991028 157.00971985 128.55139160 158.10494995 126.41409302 C 159.47541809 124.28205872 160.98742676 122.24014282 162.44166565 120.41504669 C 164.14620972 118.64476776 165.87675476 116.79673767 167.60592651 115.08856964 C 169.67614746 113.55471802 171.81990051 112.13404846 174.14955139 110.89231873 C 176.65496826 109.58036041 179.18740845 108.35752869 182.01873779 107.34176636 C 184.99368286 106.64272308 188.05439758 105.89952850 191.23788452 105.43862915 C 194.46054077 105.05821991 197.73974609 105.10282135 200.92276001 105.07999420 C 204.11944580 105.31424713 207.25588989 105.98595428 210.16912842 106.94734955 C 213.09460449 108.02420807 215.78869629 109.36425781 218.36529541 110.93991089 C 220.72416687 112.71149445 222.96955872 114.55885315 225.10902405 116.54856873 C 226.99917603 118.70380402 228.63426208 120.94355774 230.08506775 123.33335114 C 231.55792236 125.78596497 232.67884827 128.28608704 233.51065063 130.87953186 C 233.98680115 133.67517090 234.26022339 136.50593567 234.44259644 139.42918396 C 234.35798645 142.23579407 234.24060059 145.11811829 234.18774414 148.06864929 C 234.10208130 150.99961853 234.10479736 153.82092285 229.94017029 160.75788879" stroke-width="1.89460742" fill="rgb(78, 161, 62)" opacity="1.0" stroke="rgb(13, 35, 11)" stroke-opacity="0.95339787" stroke-linecap="round" stroke-linejoin="round"/>
    <path d="M 328.49591064 139.64855957 C 324.55349731 139.96473694 320.75384521 140.35908508 316.97470093 140.85765076 C 313.26113892 141.32038879 309.42037964 141.64443970 305.63107300 141.78092957 C 301.93258667 141.80017090 298.18624878 141.53366089 294.44216919 141.07647705 C 290.83963013 140.37709045 287.30648804 139.39160156 283.80633545 138.11999512 C 280.52059937 136.60852051 277.33154297 134.78782654 274.40460205 132.61427307 C 271.68353271 130.15261841 269.32720947 127.42391968 267.21646118 124.39405060 C 265.55609131 121.15296936 264.30093384 117.56086731 263.43017578 113.78883362 C 262.93707275 109.97254944 262.83569336 105.90578461 263.11077881 101.81864166 C 263.81768799 97.73465729 264.99057007 93.75372314 266.44918823 89.82260132 C 268.19543457 86.17146301 270.28881836 82.70272064 272.83795166 79.59070587 C 275.68490601 76.85590363 278.78591919 74.47499847 282.23336792 72.65946198 C 286.02017212 71.26701355 289.95742798 70.34204865 294.02444458 69.85059357 C 298.26562500 69.64014435 302.57989502 69.52824402 306.84780884 69.88687134 C 311.03588867 70.76378632 315.06011963 72.15003204 318.99224854 73.87158966 C 322.66952515 75.91721344 326.07171631 78.47525787 329.10559082 81.48081970 C 332.07858276 84.43488312 334.71060181 87.75392151 336.80877686 91.38667297 C 338.49755859 95.04638672 339.77081299 98.93956757 340.56295776 102.83700562 C 340.97406006 106.83010864 340.97549438 110.94937134 340.67233276 115.04222107 C 339.94143677 118.97802734 338.79156494 122.73980713 337.16598511 126.55043793 C 335.27679443 130.11663818 333.04666138 133.57592773 328.49591064 139.64855957" stroke-width="1.78724957" fill="rgb(95, 174, 62)" opacity="1.0" stroke="rgb(21, 50, 13)" stroke-opacity="0.94825655" stroke-linecap="round" stroke-linejoin="round"/>
    <path d="M 249.17799377 171.34751892 C 248.91091919 172.89625549 248.63278198 174.36665344 248.23797607 175.85614014 C 247.61546326 177.21443176 246.83753967 178.62057495 245.84326172 179.93357849 C 244.64315796 181.33935547 243.35990906 182.71363831 241.76249695 183.91830444 C 239.71363831 185.00111389 237.52593994 186.09095764 235.10293579 187.02648926 C 232.64433289 188.01861572 230.09291077 188.65106201 227.41094971 189.08790588 C 224.82270813 189.36921692 222.29914856 189.22747803 219.71795654 188.84501648 C 217.05783081 188.47706604 214.64466858 187.78892517 212.38700867 186.84817505 C 210.18739319 185.50193787 208.07508850 184.00540161 206.21937561 182.20770264 C 204.63310242 180.15097046 203.25009155 178.00016785 202.06069946 175.67373657 C 201.12895203 173.16528320 200.49967957 170.56454468 200.14175415 167.96449280 C 200.10322571 165.25250244 200.12905884 162.45051575 200.43478394 159.70733643 C 201.12580872 157.13832092 202.19680786 154.65582275 203.59376526 152.26481628 C 205.22956848 150.06668091 207.13821411 148.03755188 209.31137085 146.24203491 C 211.65725708 144.61071777 214.08183289 143.31420898 216.72843933 142.38505554 C 219.46423340 141.74276733 222.24183655 141.44976807 225.09655762 141.46478271 C 227.75155640 141.69754028 230.33479309 142.14567566 232.74107361 142.78146362 C 234.88348389 143.50180054 236.81948853 144.54753113 238.46032715 145.99208069 C 240.08418274 147.50120544 241.50605774 149.09063721 242.65789795 150.87335205 C 243.71913147 152.58914185 244.93803406 153.86187744 246.47311401 154.67442322 C 248.05398560 155.36056519 249.42810059 156.13653564 249.17799377 171.34751892" stroke-width="1.63159752" fill="rgb(111, 194, 90)" opacity="1.0" stroke="rgb(16, 33, 13)" stroke-opacity="0.890673" stroke-linecap="round" stroke-linejoin="round"/>
    <path d="M 298.86999512 170.63804626 C 296.30081177 171.83898926 293.75384521 172.98536682 291.08853149 173.84509277 C 288.45404053 174.40066528 285.68884277 174.72686768 283.00668335 174.83049011 C 280.34417725 174.72560120 277.69863892 174.34384155 275.07150269 173.64038086 C 272.46112061 172.89077759 269.90856934 171.76370239 267.55712891 170.22668457 C 265.21475220 168.43092346 262.67098999 166.68614197 260.16064453 164.91755676 C 258.05807495 162.80148315 256.30517578 160.23709106 254.94775391 157.35487366 C 254.01316833 154.25433350 253.28315735 151.07096863 252.67417908 147.81129456 C 252.49833679 144.70567322 252.71464539 141.59902954 253.25801086 138.65751648 C 254.04470825 135.80615234 255.25805664 133.30242920 256.85760498 130.88496399 C 258.84191895 128.67752075 260.88229370 126.46170807 263.07214355 124.36109924 C 265.46188354 122.46637726 268.08822632 120.81336212 270.82955933 119.53105927 C 273.76779175 118.60393524 276.82974243 118.01477051 280.04809570 117.72415161 C 283.21606445 117.65277100 286.34268188 117.91064453 289.51287842 118.51567078 C 292.59811401 119.30426025 295.61093140 120.35677338 298.38204956 121.81703186 C 300.91461182 123.60828400 303.31912231 125.56155396 305.51745605 127.61698914 C 307.42984009 129.89236450 309.00546265 132.28868103 310.30816650 134.92010498 C 311.42160034 137.49821472 312.17022705 140.16864014 312.52450562 142.95256042 C 312.74032593 145.79798889 312.61334229 148.61390686 312.23953247 151.39602661 C 311.52416992 154.25433350 310.50286865 157.07026672 309.27294922 159.81111145 C 307.88830566 162.60661316 306.47094727 165.47850037 298.86999512 170.63804626" stroke-width="1.65089083" fill="rgb(144, 207, 120)" opacity="1.0" stroke="rgb(8, 24, 5)" stroke-opacity="0.8512152" stroke-linecap="round" stroke-linejoin="round"/>
    <path d="M 259.13204956 195.15451050 C 260.09790039 196.87808228 260.97882080 198.54261780 261.75338745 200.29293823 C 262.24642944 202.18032837 262.57781982 204.02853394 262.92272949 205.97511292 C 262.99975586 207.92436218 262.83065796 209.74653625 262.34436035 211.43373108 C 261.59399414 212.96235657 260.80807495 214.53338623 259.94198608 216.03707886 C 258.90710449 217.28627014 257.77597046 218.50459290 256.52359009 219.52316284 C 255.24406433 220.53814697 253.90565491 221.34538269 252.40003967 221.98269653 C 250.79141235 222.53073120 248.99165344 222.97100830 247.26580811 223.31007385 C 245.39399719 223.51937866 243.58198547 223.62065125 241.71810913 223.67521667 C 239.88011169 223.42228699 238.10450745 222.71151733 236.40486145 221.75386047 C 234.76506042 220.78541565 233.37145996 219.44786072 232.16975403 217.93699646 C 231.04917908 216.49252319 230.12086487 214.79164124 229.44245911 213.02423096 C 229.01347351 211.31016541 228.62117004 209.58711243 228.34521484 207.90982056 C 228.64808655 206.42565918 229.02008057 204.90809631 229.29109192 203.40167236 C 229.70349121 201.92173767 230.37071228 200.62896729 231.18511963 199.37882996 C 231.85455322 198.09812927 232.90960693 196.85322571 234.14399719 195.91220093 C 235.35035706 194.86682129 236.71611023 193.70033264 238.22682190 192.91624451 C 239.85656738 192.19677734 241.53341675 191.48571777 243.23358154 190.98455811 C 244.97567749 190.78211975 246.75701904 190.61970520 248.42770386 190.46214294 C 250.08964539 190.67369080 251.73185730 191.09332275 253.25231934 191.70135498 C 254.71340942 192.39886475 256.30752563 193.16937256 259.13204956 195.15451050" stroke-width="1.73683417" fill="rgb(159, 214, 133)" opacity="1.0" stroke="rgb(25, 35, 20)" stroke-opacity="0.94702375" stroke-linecap="round" stroke-linejoin="round"/>
    <path d="M 261.95928955 57.44937897 C 262.96313477 56.63755798 263.97225952 55.87462234 265.03469849 55.13046265 C 266.20138550 54.50942230 267.37393188 53.86838531 268.64062500 53.24405670 C 269.95166016 52.80908203 271.19259644 52.61346436 272.69064331 52.58117294 C 274.12603760 52.62128067 275.55319214 52.77755356 276.98928833 53.01381683 C 278.42794800 53.36990356 279.87686157 53.90357590 281.08370972 54.73754120 C 282.33404541 55.63140488 283.53283691 56.66623688 284.55258179 57.81484985 C 285.40536499 59.07508087 286.13983154 60.49689865 286.78881836 61.86085129 C 287.38677979 63.34997177 287.88723755 64.75820923 288.27304077 66.15343475 C 288.35330200 67.69135284 288.30685425 69.15832520 287.99893188 70.47273254 C 287.27658081 71.82157135 286.39361572 73.24343109 285.58361816 74.69927979 C 284.50790405 76.06116486 283.32312012 77.26300049 282.08135986 78.30145264 C 280.71868896 79.15915680 279.24411011 79.84960175 277.68127441 80.37837219 C 276.14959717 80.95304871 274.66247559 81.33486176 273.22424316 81.43088531 C 271.69143677 81.55356598 270.19039917 81.44924927 268.77517700 80.98394775 C 267.33319092 80.49742889 265.97436523 79.89047241 264.68627930 79.18809509 C 263.38687134 78.46759796 262.20986938 77.57545471 261.18002319 76.36182404 C 260.32363892 74.97480774 259.60699463 73.67752838 258.96221924 72.31254578 C 258.43865967 70.85144043 258.15347290 69.27437592 258.04354858 67.88266754 C 258.13464355 66.56716919 258.38372803 65.18105316 258.63632202 63.75572968 C 258.88540649 62.34515762 259.20437622 60.96049881 261.95928955 57.44937897" stroke-width="1.72789025" fill="rgb(182, 227, 161)" opacity="1.0" stroke="rgb(19, 41, 15)" stroke-opacity="0.9303481" stroke-linecap="round" stroke-linejoin="round"/>
    <path d="M 222.92304993 335.85220337 C 224.63328552 337.25381470 226.13249207 338.75781250 227.46577454 340.34744263 C 228.90539551 341.91448975 230.12791443 343.36904907 231.14474487 344.87545776 C 232.04273987 345.93331909 232.69636536 346.81671143 232.97232056 347.52499390 C 232.73017883 348.00161743 231.96594238 348.43417358 230.87829590 348.97109985 C 229.61705017 349.62954712 228.11308289 350.05331421 226.22842407 350.28741455 C 224.09393311 350.34710693 221.62292480 350.42477417 218.87265015 350.54293823 C 216.06022644 350.62866211 213.11174011 350.59487915 210.16561890 350.54534912 C 207.14529419 350.64779663 204.17630005 350.60485840 201.28213501 350.50335693 C 198.54081726 350.50292969 195.84411621 350.59185791 193.35902405 350.74807739 C 191.14436340 350.70776367 188.98861694 350.62872314 187.11869812 350.58593750 C 185.57421875 350.80142212 184.47032166 350.89767456 183.61460876 350.80749512 C 183.07006836 350.52813721 183.00427246 350.09213257 183.20605469 349.37844849 C 183.71827698 348.34820557 184.25480652 346.84976196 185.09098816 345.35498047 C 186.32113647 343.81460571 187.61634827 342.12518311 188.89135742 340.19042969 C 190.31721497 338.45150757 191.95326233 337.02926636 193.88665771 335.60467529 C 195.72503662 334.27664185 197.55058289 333.06469727 199.46627808 332.19876099 C 201.48742676 331.59362793 203.43554688 331.25665283 205.29541016 331.06607056 C 207.14234924 331.02975464 209.04064941 331.13705444 210.82015991 331.30969238 C 212.53811646 331.66275024 214.28138733 332.03610229 216.05023193 332.41146851 C 217.85397339 333.13827515 219.57958984 333.72634888 222.92304993 335.85220337" stroke-width="1.88979423" fill="rgb(225, 213, 183)" opacity="1.0" stroke="rgb(3, 1, 4)" stroke-opacity="0.83222985" stroke-linecap="round" stroke-linejoin="round"/>
    <path d="M 296.62127686 350.57168579 C 294.54202271 350.48971558 292.51010132 350.44656372 290.28439331 350.41970825 C 288.11248779 350.42694092 285.80679321 350.42526245 283.41149902 350.49267578 C 280.96487427 350.49353027 278.34619141 350.47146606 275.74911499 350.52246094 C 273.10278320 350.38235474 270.42990112 350.33264160 267.63806152 350.39169312 C 264.82946777 350.45114136 262.11141968 350.41613770 259.37622070 350.40090942 C 256.80072021 350.42773438 254.55387878 350.54690552 252.59780884 350.46444702 C 251.01039124 350.50942993 249.67709351 350.60794067 248.71908569 350.45223999 C 248.40432739 349.86782837 248.47261047 349.02600098 249.04002380 348.08578491 C 250.17776489 347.27920532 251.60903931 346.56405640 253.07427979 345.91635132 C 254.06736755 344.79721069 254.84201050 343.54394531 255.86610413 342.36318970 C 257.18713379 341.30163574 258.77645874 340.08871460 260.40689087 338.84646606 C 262.02963257 337.62936401 263.90203857 336.49261475 265.84750366 335.55111694 C 267.83758545 334.84329224 269.87127686 334.16613770 271.82781982 333.56765747 C 273.81301880 333.26980591 275.79055786 333.28054810 277.79513550 333.47506714 C 279.70401001 333.72711182 281.44558716 334.09222412 283.19287109 334.70651245 C 284.94815063 335.43829346 286.52429199 336.21621704 288.05801392 337.19738770 C 289.39492798 338.30032349 290.65844727 339.51388550 291.77282715 340.84680176 C 292.78335571 342.30395508 293.79919434 343.70980835 294.76049805 345.11895752 C 295.82339478 346.54644775 296.84500122 347.79418945 298.05718994 348.97055054 C 299.25634766 350.16546631 300.40173340 351.24298096 296.62127686 350.57168579" stroke-width="1.96146286" fill="rgb(224, 218, 181)" opacity="1.0" stroke="rgb(8, 0, 6)" stroke-opacity="0.84043163" stroke-linecap="round" stroke-linejoin="round"/>
    <path d="M 324.59704590 348.51620483 C 326.18615723 347.94985962 327.82696533 347.63928223 329.40313721 347.58230591 C 330.96243286 347.49267578 332.45333862 347.46801758 333.80618286 347.82766724 C 334.97296143 348.24740601 335.91000366 348.63925171 336.77313232 349.02212524 C 337.45599365 349.37731934 337.98092651 349.75628662 338.20755005 350.10546875 C 338.02380371 350.39752197 337.64575195 350.59948730 337.12387085 350.71405029 C 336.47741699 350.72143555 335.64407349 350.65362549 334.64593506 350.47900391 C 333.46801758 350.46334839 332.20501709 350.56781006 330.87429810 350.52536011 C 329.57858276 350.55935669 328.24807739 350.53192139 326.87890625 350.57485962 C 325.46279907 350.60543823 324.13372803 350.67245483 322.89544678 350.77084351 C 321.57034302 350.67373657 320.21530151 350.54080200 324.59704590 348.51620483" stroke-width="1.89211464" fill="rgb(239, 234, 202)" opacity="1.0" stroke="rgb(33, 18, 10)" stroke-opacity="0.90108943" stroke-linecap="round" stroke-linejoin="round"/>
    <path d="M 312.52468872 350.89239502 C 311.23846436 351.01684570 309.96978760 350.85903931 308.64105225 350.71215820 C 307.33102417 350.78845215 306.15652466 350.82250977 305.10626221 350.85690308 C 304.07962036 350.95001221 303.18295288 351.00427246 302.47036743 350.85546875 C 302.02911377 350.67184448 301.79055786 350.26110840 301.72741699 349.72879028 C 301.85598755 349.17999268 302.23614502 348.73120117 302.79360962 348.43569946 C 303.69705200 348.23944092 304.69766235 347.94885254 305.79699707 347.54504395 C 306.75692749 347.48239136 307.87060547 347.58142090 309.11059570 347.59902954 C 310.32562256 347.79257202 311.33267212 348.10504150 312.21578979 348.44061279 C 313.12268066 348.81298828 314.07003784 349.17947388 314.98892212 349.51947021 C 315.83697510 350.15396118 316.51858521 350.68002319 312.52468872 350.89239502" stroke-width="1.93115246" fill="rgb(228, 215, 191)" opacity="1.0" stroke="rgb(34, 22, 14)" stroke-opacity="0.8603702" stroke-linecap="round" stroke-linejoin="round"/>
  </g>
</svg>
