<?xml version="1.0" ?>
<svg xmlns="http://www.w3.org/2000/svg" version="1.1" width="512" height="512" viewBox="0 0 512 512">
  <defs/>
  <g>
    <path d="M 351.87658691 437.32095337 C 350.19357300 441.96713257 346.72857666 444.33453369 341.96075439 445.40820312 C 337.19293213 446.48187256 331.12231445 446.26177979 324.22808838 445.73303223 C 317.33386230 445.20425415 309.61602783 444.36682129 301.55383301 444.20571899 C 294.16000366 444.07369995 287.34771729 444.19195557 280.74932861 444.37872314 C 274.15093994 444.56549072 267.76641846 444.82080078 261.22808838 444.96289062 C 254.68978882 445.10498047 247.99765015 445.13388062 240.78402710 444.86785889 C 234.13059998 445.60748291 227.53474426 445.94793701 220.97644043 446.06903076 C 214.41812134 446.19012451 207.89736938 446.09185791 201.39416504 445.95407104 C 194.89094543 445.81628418 188.40527344 445.63897705 181.91711426 445.60192871 C 171.56948853 446.00061035 165.06764221 445.66223145 160.96469116 444.03887939 C 156.86174011 442.41552734 155.15768433 439.50723267 154.40560913 434.76617432 C 153.65353394 430.02508545 153.85345459 423.45123291 153.55844116 414.49676514 C 154.40132141 409.15640259 154.38012695 402.67599487 154.15682983 395.75479126 C 153.93353271 388.83358765 153.50814819 381.47158813 153.54263306 374.36804199 C 153.57711792 367.26449585 154.07147217 360.41940308 155.68768311 354.53198242 C 160.87338257 352.55084229 164.91177368 351.40084839 168.81079102 350.66403198 C 172.70980835 349.92718506 176.46943665 349.60354614 181.09765625 349.27508545 C 185.72586060 348.94665527 191.22262573 348.61340332 198.59591675 347.85742188 C 207.47387695 347.61196899 214.39836121 347.60531616 220.56250000 347.67855835 C 226.72665405 347.75183105 232.13044739 347.90502930 237.96704102 347.97924805 C 243.80363464 348.05346680 250.07302856 348.04870605 257.96832275 347.80606079 C 265.05160522 347.79025269 271.81585693 348.15533447 278.37603760 348.62255859 C 284.93618774 349.08975220 291.29223633 349.65905762 297.55914307 350.05160522 C 303.82604980 350.44415283 310.00378418 350.65997314 316.20724487 350.42022705 C 326.40576172 351.54266357 334.26293945 351.42657471 340.07434082 351.73007202 C 345.88574219 352.03356934 349.65142822 352.75665283 351.66693115 355.55749512 C 353.68243408 358.35833740 353.94775391 363.23687744 352.75854492 371.85128784 C 352.29809570 380.68362427 352.26559448 388.61453247 352.35394287 396.02612305 C 352.44226074 403.43771362 352.65139771 410.32998657 352.67422485 417.08508301 C 352.69705200 423.84017944 352.53356934 430.45806885 351.87658691 437.32095337" stroke-width="1.37189829" fill="rgb(174, 83, 40)" opacity="1.0" stroke="rgb(36, 10, 0)" stroke-opacity="1.0" stroke-linecap="round" stroke-linejoin="round"/>
    <path d="M 328.11840820 448.09118652 C 321.24072266 448.51791382 316.01654053 448.54663086 310.31863403 448.51263428 C 304.62069702 448.47860718 298.44897461 448.38183594 289.67614746 448.55758667 C 281.91326904 448.30950928 275.65618896 448.42559814 269.24212646 448.50543213 C 262.82809448 448.58529663 256.25711060 448.62893677 247.86650085 448.23605347 C 241.26580811 448.46759033 235.32321167 448.66989136 228.81399536 448.72628784 C 222.30476379 448.78271484 215.22889709 448.69323730 206.36163330 448.34124756 C 199.27301025 447.90802002 192.24880981 448.24603271 184.90522766 448.47369385 C 177.56163025 448.70135498 169.89865112 448.81869507 161.53248596 447.94421387 C 156.49652100 441.36514282 157.60848999 439.65936279 161.99200439 439.65002441 C 166.37551880 439.64065552 174.03057861 441.32769775 182.08084106 441.53427124 C 191.27548218 441.68801880 197.04373169 441.95074463 201.95797729 442.04833984 C 206.87220764 442.14599609 210.93241882 442.07852173 216.71093750 441.57192993 C 224.77973938 441.35406494 230.98742676 441.39923096 236.65745544 441.53701782 C 242.32746887 441.67480469 247.45982361 441.90521240 253.37794495 442.05783081 C 261.42541504 441.17419434 267.04818726 441.26724243 272.81277466 441.48403931 C 278.57733154 441.70083618 284.48370361 442.04138184 293.09829712 441.65277100 C 300.86953735 442.36309814 307.75448608 442.07958984 314.61294556 441.69827271 C 321.47137451 441.31695557 328.30331421 440.83776855 335.96850586 441.15673828 C 344.32504272 441.98321533 348.76290894 444.47671509 347.91143799 446.38363647 C 347.05999756 448.29058838 340.91918945 449.61096191 328.11840820 448.09118652" stroke-width="0.56716156" fill="rgb(132, 64, 34)" opacity="1.0" stroke="rgb(144, 98, 78)" stroke-opacity="1.0" stroke-linecap="round" stroke-linejoin="round"/>
    <path d="M 247.93154907 277.94213867 C 247.52447510 286.74078369 247.89122009 294.96069336 249.11448669 304.12783813 C 250.33775330 313.29495239 252.41754150 323.40927124 255.43656921 335.99670410 C 254.39932251 349.92315674 250.89111328 351.68304443 247.32254028 346.93133545 C 243.75395203 342.17959595 240.12496948 330.91629028 238.84614563 318.79638672 C 236.46353149 308.83352661 235.71246338 298.69238281 235.78962708 288.50286865 C 235.86679077 278.31329346 236.77218628 268.07534790 237.70249939 257.91882324 C 240.30882263 246.45266724 242.48912048 238.59765625 244.11547852 230.50488281 C 245.74183655 222.41210938 246.81427002 214.08157349 247.20484924 201.66438293 C 246.28747559 192.08901978 245.26309204 183.59158325 245.15325928 174.17582703 C 245.04341125 164.76007080 245.84811401 154.42599487 248.58891296 141.17738342 C 253.35113525 131.16368103 257.40182495 125.16387939 259.82336426 119.32293701 C 262.24487305 113.48199463 263.03723145 107.79991150 261.28280640 98.42163086 C 257.19671631 79.46998596 258.95178223 73.60559082 262.51458740 75.92173767 C 266.07742310 78.23789215 271.44799805 88.73459625 274.59286499 102.50515747 C 275.30801392 112.56004333 273.85528564 119.86734772 271.37982178 127.35418701 C 268.90438843 134.84103394 265.40621948 142.50740051 262.03048706 153.28042603 C 260.67453003 166.88061523 260.42340088 177.36424255 260.00964355 186.88378906 C 259.59588623 196.40335083 259.01950073 204.95884705 257.01309204 214.70277405 C 255.54168701 226.10336304 253.48539734 234.41694641 251.68991089 243.62850952 C 249.89440918 252.84008789 248.35974121 262.94964600 247.93154907 277.94213867" stroke-width="0.33715665" fill="rgb(114, 59, 36)" opacity="1.0" stroke="rgb(0, 11, 0)" stroke-opacity="1.0" stroke-linecap="round" stroke-linejoin="round"/>
    <path d="M 208.54325867 236.22213745 C 210.05392456 235.78106689 211.35388184 235.38110352 212.61706543 234.89950562 C 213.88024902 234.41792297 215.10665894 233.85472107 216.47024536 233.08720398 C 217.94924927 232.33935547 219.37738037 232.09715271 220.73571777 232.28044128 C 222.09405518 232.46372986 223.38259888 233.07249451 224.58239746 234.02655029 C 225.66207886 234.92961121 226.91920471 235.45236206 228.34005737 235.88726807 C 229.76092529 236.32217407 231.34548950 236.66921997 233.08006287 237.22090149 C 235.05668640 237.51577759 236.60443115 237.78982544 238.00141907 238.17135620 C 239.39840698 238.55290222 240.64462280 239.04196167 242.01818848 239.76684570 C 243.36239624 240.98190308 244.11535645 242.45246887 244.18943787 243.71762085 C 244.26350403 244.98277283 243.65869141 246.04251099 242.28733826 246.43592834 C 240.67556763 246.44973755 239.48968506 245.94915771 238.57255554 245.42620850 C 237.65542603 244.90327454 237.00704956 244.35798645 236.47035217 244.28237915 C 234.85328674 244.06877136 233.48715210 243.70153809 232.10462952 243.26695251 C 230.72210693 242.83236694 229.32318115 242.33044434 227.64054871 241.84744263 C 226.05447388 241.33438110 224.81054688 240.66964722 223.47341919 240.23068237 C 222.13629150 239.79170227 220.70596313 239.57847595 218.74702454 239.96839905 C 217.34225464 240.34017944 215.91287231 240.87179565 214.44625854 241.18846130 C 212.97964478 241.50514221 211.47583008 241.60687256 209.92218018 241.11886597 C 208.24476624 240.23046875 206.88710022 239.42507935 206.45526123 238.63238525 C 206.02340698 237.83969116 206.51739502 237.05969238 208.54325867 236.22213745" stroke-width="0.55525702" fill="rgb(92, 53, 34)" opacity="1.0" stroke="rgb(61, 61, 51)" stroke-opacity="1.0" stroke-linecap="round" stroke-linejoin="round"/>
    <path d="M 292.22219849 192.53131104 C 290.92416382 192.45968628 289.72180176 192.39053345 288.28128052 192.35691833 C 286.84075928 192.32331848 285.16210938 192.32525635 282.91143799 192.39584351 C 281.27636719 192.45959473 279.82257080 192.33712769 278.23205566 192.28968811 C 276.64154053 192.24224854 274.91430664 192.26983643 272.73245239 192.63369751 C 271.03421021 193.17559814 269.88916016 193.94036865 268.75192261 194.78079224 C 267.61468506 195.62120056 266.48529053 196.53726196 264.81826782 197.38174438 C 263.50021362 196.94822693 262.13323975 196.50607300 261.20327759 195.86468506 C 260.27331543 195.22329712 259.78039551 194.38267517 260.21041870 193.15223694 C 261.81271362 191.92968750 263.45175171 190.90618896 265.01089478 190.10137939 C 266.57003784 189.29656982 268.04925537 188.71046448 269.33190918 188.36270142 C 272.18234253 187.48362732 273.42520142 187.15940857 274.42733765 186.85064697 C 275.42944336 186.54187012 276.19079590 186.24853516 278.07824707 185.43124390 C 280.84826660 184.81460571 282.01428223 184.48194885 283.27416992 184.33831787 C 284.53405762 184.19467163 285.88781738 184.24006653 289.03326416 184.37953186 C 290.98770142 184.58038330 292.65289307 184.75028992 294.25152588 184.98703003 C 295.85018921 185.22377014 297.38232422 185.52734375 299.07064819 185.99554443 C 300.52136230 186.31875610 302.51144409 187.00212097 303.76257324 188.08828735 C 305.01367188 189.17443848 305.52581787 190.66342163 304.02066040 192.59783936 C 302.24340820 193.32934570 300.74160767 193.55783081 298.96023560 193.48088074 C 297.17883301 193.40393066 295.11785889 193.02154541 292.22219849 192.53131104" stroke-width="0.26569986" fill="rgb(94, 39, 23)" opacity="1.0" stroke="rgb(19, 13, 6)" stroke-opacity="1.0" stroke-linecap="round" stroke-linejoin="round"/>
    <path d="M 235.29811096 137.44601440 C 233.28347778 137.50521851 231.94300842 137.46345520 230.48870850 137.63272095 C 229.03442383 137.80198669 227.46630859 138.18228149 224.99644470 139.08554077 C 222.87936401 140.02441406 221.34527588 140.65440369 219.79058838 141.25410461 C 218.23588562 141.85379028 216.66058350 142.42318726 214.46109009 143.24090576 C 212.34146118 144.31289673 210.82965088 145.24456787 209.86347961 145.33891296 C 208.89730835 145.43325806 208.47676086 144.69030762 208.53965759 142.41308594 C 208.84350586 139.94097900 208.84150696 138.26718140 209.09278870 137.01055908 C 209.34407043 135.75393677 209.84861755 134.91448975 211.16555786 134.11109924 C 212.95721436 132.68664551 214.41944885 131.93200684 215.96965027 131.42816162 C 217.51985168 130.92431641 219.15802002 130.67127991 221.30157471 130.25001526 C 224.50671387 130.11322021 226.05766296 130.22254944 227.20390320 130.21441650 C 228.35014343 130.20628357 229.09169006 130.08065796 230.67802429 129.47395325 C 233.11883545 128.51217651 234.78274536 128.23587036 236.36624146 128.59138489 C 237.94973755 128.94688416 239.45281982 129.93420410 241.57199097 131.49964905 C 243.45446777 132.59486389 244.28643799 133.51011658 245.22854614 134.42654419 C 246.17065430 135.34295654 247.22290039 136.26055908 249.54595947 137.36044312 C 251.86500549 138.70214844 253.04981995 140.25212097 252.94337463 141.23760986 C 252.83691406 142.22308350 251.43920898 142.64410400 248.59323120 141.72790527 C 245.99856567 141.06756592 243.94926453 140.18318176 241.91139221 139.37083435 C 239.87351990 138.55848694 237.84707642 137.81817627 235.29811096 137.44601440" stroke-width="0.69766486" fill="rgb(65, 36, 27)" opacity="1.0" stroke="rgb(0, 0, 0)" stroke-opacity="1.0" stroke-linecap="round" stroke-linejoin="round"/>
    <path d="M 173.33015442 276.21942139 C 169.03288269 274.74792480 166.10241699 273.66647339 163.34922791 271.97784424 C 160.59603882 270.28918457 158.02011108 267.99334717 154.43196106 264.09307861 C 152.07125854 261.08151245 149.85580444 257.53839111 148.26744080 253.51667786 C 146.67907715 249.49496460 145.71781921 244.99468994 145.86550903 240.06878662 C 145.89521790 236.52424622 145.91371155 233.01936340 146.70045471 229.22743225 C 147.48718262 225.43548584 149.04217529 221.35647583 152.14489746 216.66369629 C 153.42517090 214.09436035 156.01635742 211.19488525 159.35633850 208.55903625 C 162.69630432 205.92317200 166.78504944 203.55091858 171.06040955 202.03601074 C 174.71708679 200.81838989 178.88591003 199.93092346 183.30911255 199.81808472 C 187.73229980 199.70523071 192.40988159 200.36700439 197.08407593 202.24786377 C 200.74180603 204.00708008 203.45373535 205.03878784 205.92228699 206.37123108 C 208.39083862 207.70367432 210.61599731 209.33685303 213.30021667 212.29898071 C 216.81719971 215.50364685 219.43937683 219.28875732 221.19181824 223.12130737 C 222.94424438 226.95384216 223.82693481 230.83381653 223.86497498 234.22821045 C 223.79414368 239.41880798 223.36480713 243.73565674 222.42555237 247.68209839 C 221.48629761 251.62852478 220.03713989 255.20452881 217.92663574 258.91342163 C 214.49438477 263.10729980 212.10667419 265.81896973 209.60697937 267.99523926 C 207.10726929 270.17147827 204.49557495 271.81228638 200.61532593 273.86434937 C 195.31542969 276.03656006 190.67481995 276.90362549 186.26885986 277.08850098 C 181.86288452 277.27337646 177.69154358 276.77603149 173.33015442 276.21942139" stroke-width="0.24809460" fill="rgb(39, 89, 33)" opacity="1.0" stroke="rgb(6, 0, 13)" stroke-opacity="1.0" stroke-linecap="round" stroke-linejoin="round"/>
    <path d="M 222.30508423 125.98593140 C 220.09812927 125.05832672 218.09359741 123.53005981 216.11761475 121.42746735 C 214.14164734 119.32487488 212.19424438 116.64794922 210.10153198 113.42304993 C 208.00881958 110.19815063 205.77081299 106.42526245 203.21362305 102.13073730 C 201.74575806 98.42568207 200.39968872 95.18044281 199.30816650 92.02846527 C 198.21665955 88.87648773 197.37969971 85.81776428 196.93006897 82.48575592 C 196.48043823 79.15373993 196.41812134 75.54843140 196.87588501 71.30328369 C 197.79203796 66.65058899 199.04164124 62.23819733 200.56007385 58.22246933 C 202.07850647 54.20674133 203.86576843 50.58767700 205.85725403 47.52164078 C 207.84872437 44.45560455 210.04443359 41.94259644 212.37973022 40.13897705 C 216.73226929 36.16296387 220.67028809 33.36294937 224.36300659 31.31328773 C 228.05572510 29.26362610 231.50312805 27.96431351 234.87443542 26.98970032 C 238.24575806 26.01508904 241.54098511 25.36517715 244.92932129 24.61431885 C 249.66024780 24.01034546 254.10975647 23.87416458 258.36807251 24.17629051 C 262.62640381 24.47841644 266.69354248 25.21884918 270.65979004 26.36810303 C 274.62600708 27.51735687 278.49127197 29.07543564 282.34588623 31.01284790 C 287.81182861 35.01814270 291.05126953 37.22054291 293.24191284 38.84821701 C 295.43255615 40.47589111 296.57434082 41.52883911 297.84500122 43.23522568 C 299.11563110 44.94161606 300.51513672 47.30144501 303.22109985 51.54287720 C 305.19717407 55.78912354 306.58377075 60.01383972 307.52828979 64.17890930 C 308.47283936 68.34397888 308.97528076 72.44940948 309.18301392 76.45706177 C 309.39074707 80.46472168 309.30377197 84.37461853 309.06948853 88.14862061 C 308.26892090 92.87050629 307.29660034 97.38691711 306.06442261 101.50149536 C 304.83227539 105.61607361 303.34020996 109.32880402 301.50018311 112.44333649 C 299.66015625 115.55786133 297.47210693 118.07418823 294.84796143 119.79592896 C 292.14907837 121.46009827 288.95111084 122.63650513 285.39245605 123.56870270 C 281.83380127 124.50090027 277.91442871 125.18890381 273.77273560 125.87624359 C 269.63104248 126.56359100 265.26702881 127.25028992 260.81903076 128.17988586 C 256.85351562 128.50781250 253.01632690 129.11221313 249.07453918 129.52603149 C 245.13275146 129.93984985 241.08636475 130.16311646 236.70243835 129.72877502 C 232.31851196 129.29443359 227.59704590 128.20248413 222.30508423 125.98593140" stroke-width="1.29489255" fill="rgb(55, 136, 38)" opacity="1.0" stroke="rgb(19, 50, 14)" stroke-opacity="1.0" stroke-linecap="round" stroke-linejoin="round"/>
    <path d="M 328.25601196 234.26797485 C 326.26306152 234.63990784 323.57980347 234.72778320 320.56066895 234.49214172 C 317.54156494 234.25650024 314.18661499 233.69735718 310.85028076 232.77525330 C 307.51397705 231.85314941 304.19628906 230.56808472 301.25173950 228.88061523 C 298.71218872 227.69271851 296.17224121 226.00769043 293.77096558 223.91815186 C 291.36968994 221.82861328 289.10705566 219.33454895 287.12216187 216.52859497 C 285.13726807 213.72265625 283.43011475 210.60482788 282.13970947 207.26776123 C 281.14318848 204.93112183 280.28546143 202.12840271 279.70065308 199.05406189 C 279.11584473 195.97972107 278.80392456 192.63375854 278.89907837 189.21066284 C 278.99426270 185.78755188 279.49645996 182.28729248 280.53985596 178.90435791 C 280.92260742 176.29933167 281.74813843 173.41790771 282.96835327 170.46334839 C 284.18856812 167.50878906 285.80346680 164.48107910 287.76501465 161.58348083 C 289.72656250 158.68588257 292.03472900 155.91839600 294.64144897 153.48423767 C 297.47454834 151.17723083 300.28781128 149.22399902 303.19058228 147.63600159 C 306.09335327 146.04798889 309.08563232 144.82519531 312.27673340 143.97904968 C 315.46783447 143.13291931 318.85778809 142.66342163 322.55593872 142.58203125 C 326.05892944 142.72476196 328.94696045 142.77909851 331.57009888 142.98768616 C 334.19323730 143.19627380 336.55151367 143.55911255 338.99496460 144.31883240 C 341.43841553 145.07856750 343.96704102 146.23519897 346.93090820 148.03135681 C 349.00372314 149.11146545 351.16751099 150.39224243 353.39477539 152.08647156 C 355.62207031 153.78070068 357.91284180 155.88842773 360.23959351 158.62242126 C 362.56637573 161.35641479 364.92913818 164.71670532 367.30041504 168.91610718 C 368.11877441 170.69462585 369.03045654 173.29640198 369.79650879 176.34260559 C 370.56256104 179.38880920 371.18295288 182.87945557 371.41873169 186.43568420 C 371.65447998 189.99192810 371.50561523 193.61376953 370.73312378 196.92239380 C 370.35568237 199.79238892 369.45922852 202.86305237 368.16146851 205.93582153 C 366.86373901 209.00857544 365.16473389 212.08345032 363.18222046 214.96185303 C 361.19970703 217.84025574 358.93371582 220.52218628 356.50192261 222.80909729 C 353.81610107 225.09353638 351.19631958 226.97308350 348.42565918 228.51554871 C 345.65502930 230.05801392 342.73348999 231.26339722 339.44418335 232.19952393 C 336.15490723 233.13565063 332.49780273 233.80252075 328.25601196 234.26797485" stroke-width="1.23664606" fill="rgb(70, 144, 47)" opacity="1.0" stroke="rgb(4, 32, 0)" stroke-opacity="1.0" stroke-linecap="round" stroke-linejoin="round"/>
    <path d="M 227.91230774 159.97830200 C 226.41362000 162.93305969 225.37164307 165.02354431 224.32727051 166.91838074 C 223.28288269 168.81320190 222.23608398 170.51235962 220.72778320 172.68444824 C 219.21946716 174.85653687 217.24963379 177.50155640 214.35914612 181.28811646 C 212.94641113 182.84797668 211.21015930 184.48283386 209.11103821 185.93080139 C 207.01193237 187.37878418 204.54994202 188.63989258 201.68576050 189.45222473 C 198.82156372 190.26455688 195.55517578 190.62814331 191.84722900 190.28108215 C 189.28715515 190.19500732 186.68339539 189.98797607 184.04470825 189.52053833 C 181.40603638 189.05310059 178.73245239 188.32522583 176.03274536 187.19750977 C 173.33302307 186.06977844 170.60717773 184.54217529 167.86398315 182.47525024 C 164.79986572 180.06108093 162.42764282 177.66551208 160.53448486 175.29718018 C 158.64132690 172.92884827 157.22721863 170.58776855 156.07936096 168.28257751 C 154.93150330 165.97738647 154.04989624 163.70809937 153.22167969 161.48335266 C 152.41378784 157.61891174 152.02864075 154.05259705 151.95800781 150.77839661 C 151.88735962 147.50419617 152.13119507 144.52209473 152.58128357 141.82604980 C 153.03135681 139.13002014 153.68768311 136.72003174 154.44197083 134.59008789 C 157.11396790 129.64944458 158.59967041 126.78491974 159.65588379 124.88844299 C 160.71211243 122.99196625 161.33886719 122.06353760 162.29296875 120.99507904 C 163.24707031 119.92662048 164.52851868 118.71813965 166.89414978 116.26156616 C 169.23030090 114.13747406 171.83753967 112.36251068 174.60928345 110.90422058 C 177.38102722 109.44592285 180.31729126 108.30430603 183.31152344 107.44688416 C 186.30574036 106.58946991 189.35794067 106.01626587 192.36152649 105.69479370 C 195.88212585 105.59453583 199.17787170 105.59775543 202.26370239 105.83742523 C 205.34951782 106.07709503 208.22541809 106.55321503 210.90631104 107.39874268 C 213.58720398 108.24427032 216.07308960 109.45921326 218.37887573 111.17652893 C 220.35890198 112.25730133 222.57125854 114.10021973 224.68766785 116.33953094 C 226.80407715 118.57883453 228.82453918 121.21452332 230.42077637 123.88083649 C 232.01701355 126.54714966 233.18902588 129.24409485 233.60855103 131.60589600 C 234.29055786 135.24261475 234.19677734 138.18814087 233.66468811 140.97224426 C 233.13259888 143.75634766 232.16220093 146.37905884 231.09098816 149.37013245 C 230.01976013 152.36120605 228.84771729 155.72067261 227.91230774 159.97830200" stroke-width="1.22773635" fill="rgb(76, 164, 59)" opacity="1.0" stroke="rgb(27, 58, 24)" stroke-opacity="1.0" stroke-linecap="round" stroke-linejoin="round"/>
    <path d="M 328.95318604 137.92272949 C 326.46215820 139.94358826 323.15679932 140.40039062 319.33090210 140.44575500 C 315.50497437 140.49113464 311.15850830 140.12506104 306.58514404 140.50019836 C 303.26568604 140.68452454 299.67678833 141.90942383 296.06478882 142.59815979 C 292.45275879 143.28689575 288.81768799 143.43948364 285.40582275 141.47914124 C 281.22433472 139.27813721 277.43545532 137.02697754 274.35449219 134.61216736 C 271.27355957 132.19734192 268.90051270 129.61886597 267.55065918 126.76322937 C 265.63650513 123.25729370 264.55307007 118.90859985 263.95419312 114.45684814 C 263.35528564 110.00509644 263.24096680 105.45030212 263.26507568 101.53216553 C 264.04812622 97.09570312 265.16278076 93.14161682 266.84564209 89.45755005 C 268.52853394 85.77348328 270.77963257 82.35943604 273.83560181 79.00305176 C 279.85229492 75.25395966 282.12985229 73.50950623 284.02694702 72.51849365 C 285.92401123 71.52748108 287.44064331 71.28990173 291.93542480 70.55456543 C 296.24182129 69.74385834 300.52081299 69.54667664 304.83377075 70.04445648 C 309.14672852 70.54223633 313.49365234 71.73497009 317.93582153 73.70408630 C 322.32519531 75.92821503 326.00585938 78.83342743 328.94766235 81.76650238 C 331.88949585 84.69956970 334.09246826 87.66050720 335.52648926 89.99607849 C 337.89782715 94.63511658 339.28625488 98.96850586 339.96105957 103.07014465 C 340.63586426 107.17178345 340.59710693 111.04166412 340.11404419 114.75369263 C 339.51345825 119.01881409 337.93835449 123.74061584 335.90582275 127.93135834 C 333.87332153 132.12210083 331.38339233 135.78179932 328.95318604 137.92272949" stroke-width="1.17422235" fill="rgb(96, 173, 64)" opacity="1.0" stroke="rgb(29, 67, 20)" stroke-opacity="1.0" stroke-linecap="round" stroke-linejoin="round"/>
    <path d="M 249.61178589 166.24716187 C 249.29354858 168.06806946 248.89312744 170.28666687 248.32231140 172.77603149 C 247.75151062 175.26541138 247.01031494 178.02555847 246.01057434 180.92956543 C 244.48348999 183.22000122 242.77651978 183.85908508 240.97706604 184.27661133 C 239.17761230 184.69412231 237.28565979 184.89009094 235.38858032 186.29429626 C 232.83987427 187.77874756 229.91899109 188.47961426 227.15849304 188.73660278 C 224.39799500 188.99359131 221.79788208 188.80667114 219.89073181 188.51553345 C 216.18721008 187.66299438 213.40673828 186.99740601 211.29934692 186.05274963 C 209.19195557 185.10810852 207.75762939 183.88441467 206.74644470 181.91571045 C 204.97396851 179.84375000 203.43006897 177.56819153 202.31503296 175.06613159 C 201.19999695 172.56408691 200.51382446 169.83554077 200.45681763 166.85758972 C 200.77902222 162.25828552 200.88143921 160.41784668 201.16726685 159.08938599 C 201.45310974 157.76095581 201.92237854 156.94450378 202.97833252 154.39320374 C 204.54708862 151.44851685 206.39147949 149.16500854 208.46095276 147.35160828 C 210.53042603 145.53820801 212.82498169 144.19488525 215.29406738 143.13055420 C 219.38464355 142.18045044 222.32150269 141.72029114 224.80470276 141.63925171 C 227.28788757 141.55821228 229.31741333 141.85629272 231.59335327 142.42269897 C 234.42884827 143.17343140 236.58099365 144.66055298 238.33232117 146.39291382 C 240.08364868 148.12530518 241.43418884 150.10293579 242.66647339 151.83476257 C 245.78521729 153.15899658 247.22599792 154.54673767 248.03488159 156.71110535 C 248.84375000 158.87548828 249.02072144 161.81646729 249.61178589 166.24716187" stroke-width="1.16525078" fill="rgb(113, 195, 90)" opacity="1.0" stroke="rgb(43, 59, 40)" stroke-opacity="1.0" stroke-linecap="round" stroke-linejoin="round"/>
    <path d="M 301.22814941 169.19245911 C 298.70877075 171.14582825 295.79574585 172.43226624 292.91662598 173.26005554 C 290.03750610 174.08784485 287.19229126 174.45698547 284.80850220 174.57577515 C 281.19860840 174.44004822 278.18356323 174.07792664 275.37048340 173.33059692 C 272.55737305 172.58326721 269.94622803 171.45071411 267.14407349 169.77415466 C 264.71191406 167.96496582 262.59869385 166.67024231 260.65243530 164.90756226 C 258.70617676 163.14486694 256.92681885 160.91418457 255.16238403 157.23307800 C 254.01722717 154.30503845 253.19123840 151.77325439 252.86213684 148.95297241 C 252.53303528 146.13269043 252.70080566 143.02391052 253.54319763 138.94189453 C 254.38728333 135.95791626 255.88270569 133.18283081 257.73309326 130.63728333 C 259.58349609 128.09173584 261.78884888 125.77572632 264.05279541 123.70986938 C 268.60433960 121.16232300 270.33612061 119.97789001 271.79302979 119.30418396 C 273.24990845 118.63047028 274.43188477 118.46747589 277.88375854 117.96279907 C 281.32214355 117.59651184 284.48831177 117.64383698 287.62469482 118.17782593 C 290.76110840 118.71182251 293.86770630 119.73248291 297.18698120 121.31286621 C 300.30773926 123.05829620 303.11840820 125.25003052 305.36074829 127.55627441 C 307.60308838 129.86251831 309.27709961 132.28326416 310.12454224 134.48670959 C 311.53765869 137.75450134 312.22644043 140.91804504 312.44381714 143.99333191 C 312.66119385 147.06861877 312.40716553 150.05564880 311.93466187 152.97042847 C 311.49230957 155.92303467 309.92431641 159.26647949 307.91259766 162.22778320 C 305.90087891 165.18910217 303.44540405 167.76831055 301.22814941 169.19245911" stroke-width="1.03795588" fill="rgb(146, 208, 118)" opacity="1.0" stroke="rgb(30, 46, 28)" stroke-opacity="1.0" stroke-linecap="round" stroke-linejoin="round"/>
    <path d="M 259.48846436 196.03369141 C 260.50140381 197.12139893 261.25274658 198.77067566 261.75125122 200.51809692 C 262.24972534 202.26551819 262.49536133 204.11111450 262.49676514 205.59146118 C 262.29373169 207.68444824 262.23040771 209.46141052 261.92462158 211.06831360 C 261.61880493 212.67520142 261.07049561 214.11203003 259.89743042 215.52474976 C 258.90441895 216.77029419 258.02349854 217.92532349 256.87673950 218.98733521 C 255.72998047 220.04934692 254.31738281 221.01834106 252.26100159 221.89178467 C 250.63226318 222.42980957 249.19377136 222.83505249 247.52189636 223.08125305 C 245.85002136 223.32745361 243.94476318 223.41459656 241.38252258 223.31643677 C 240.05593872 222.91961670 238.55201721 222.42578125 237.02497864 221.58203125 C 235.49795532 220.73826599 233.94781494 219.54458618 232.52882385 217.74807739 C 231.43122864 215.60125732 230.81387329 214.47364807 230.35919189 213.53451538 C 229.90451050 212.59538269 229.61250305 211.84471130 229.16561890 210.45175171 C 228.67803955 208.89338684 228.88351440 206.89381409 229.38226318 204.93611145 C 229.88102722 202.97840881 230.67308044 201.06257629 231.35864258 199.67167664 C 233.00549316 197.46459961 234.35305786 196.03613281 235.63554382 195.00727844 C 236.91802979 193.97842407 238.13542175 193.34921265 239.52195740 192.74067688 C 241.25653076 191.87387085 243.20846558 191.30389404 245.06083679 190.98835754 C 246.91322327 190.67283630 248.66606140 190.61178589 250.00242615 190.76284790 C 252.21957397 191.13240051 254.06072998 191.79003906 255.61276245 192.68533325 C 257.16479492 193.58062744 258.42773438 194.71356201 259.48846436 196.03369141" stroke-width="1.21846414" fill="rgb(157, 217, 130)" opacity="1.0" stroke="rgb(21, 35, 18)" stroke-opacity="1.0" stroke-linecap="round" stroke-linejoin="round"/>
    <path d="M 262.03656006 57.65942383 C 262.90020752 56.85040283 264.20455933 55.93738556 265.59112549 55.08863068 C 266.97772217 54.23987579 268.44650269 53.45538330 269.63906860 52.90341187 C 270.82714844 52.61857605 271.97167969 52.42510605 273.13714600 52.42354965 C 274.30261230 52.42199326 275.48901367 52.61235046 276.76080322 53.09516907 C 278.03326416 53.33195496 279.52523804 53.90670013 280.90261841 54.71161652 C 282.27999878 55.51653671 283.54278564 56.55162811 284.35693359 57.70910645 C 285.53616333 58.94821930 286.43750000 60.46401596 287.09414673 62.01214600 C 287.75079346 63.56027603 288.16278076 65.14073944 288.36331177 66.50918579 C 288.51617432 68.20951843 288.19323730 69.72904205 287.56643677 71.17440796 C 286.93963623 72.61978149 286.00897217 73.99099731 284.94628906 75.39471436 C 282.75744629 77.20167542 281.94866943 77.92691040 281.26959229 78.39877319 C 280.59048462 78.87063599 280.04107666 79.08911896 278.37100220 79.88258362 C 276.79547119 80.76533508 275.03591919 81.28459930 273.34014893 81.46330261 C 271.64437866 81.64201355 270.01239014 81.48015594 268.69210815 81.00067139 C 266.24981689 79.76301575 265.05841064 79.10535431 264.06707764 78.38224030 C 263.07574463 77.65912628 262.28454590 76.87055969 260.64257812 75.37109375 C 259.39218140 73.57254028 258.77566528 72.02353668 258.52355957 70.64440155 C 258.27142334 69.26525879 258.38372803 68.05599213 258.59091187 66.93690491 C 258.66174316 64.67247772 258.86520386 62.92049408 259.37994385 61.45092392 C 259.89471436 59.98135376 260.72070312 58.79419708 262.03656006 57.65942383" stroke-width="1.10622680" fill="rgb(178, 224, 157)" opacity="1.0" stroke="rgb(23, 18, 32)" stroke-opacity="1.0" stroke-linecap="round" stroke-linejoin="round"/>
    <path d="M 222.42854309 335.98767090 C 223.23477173 336.42758179 224.54270935 337.61666870 225.90458679 339.05569458 C 227.26646423 340.49475098 228.68228149 342.18371582 229.70433044 343.62335205 C 231.82943726 345.28265381 232.91891479 347.11666870 232.61743164 348.40521240 C 232.31593323 349.69372559 230.62345886 350.43676758 227.18466187 349.91415405 C 225.21539307 349.81805420 223.47787476 349.85696411 221.58140564 349.92257690 C 219.68495178 349.98818970 217.62956238 350.08044434 215.02456665 350.09103394 C 212.90434265 350.13171387 210.88305664 350.09445190 208.89375305 350.07968140 C 206.90444946 350.06491089 204.94714355 350.07263184 202.95486450 350.20315552 C 200.43064880 350.14953613 198.24145508 350.05142212 196.29612732 350.03952026 C 194.35081482 350.02758789 192.64938354 350.10189819 191.10072327 350.39306641 C 188.13430786 350.49963379 186.03903198 350.63238525 184.82148743 350.45117188 C 183.60392761 350.26995850 183.26411438 349.77478027 183.80863953 348.62551880 C 184.08963013 347.34475708 184.91751099 345.79473877 185.99967957 344.19409180 C 187.08184814 342.59344482 188.41827393 340.94219971 189.71640015 339.45901489 C 190.90048218 338.34698486 191.86372375 337.37103271 193.10272217 336.36209106 C 194.34172058 335.35311890 195.85647583 334.31112671 198.14360046 333.06692505 C 201.03837585 331.95654297 202.57687378 331.41384888 204.11196899 331.17382812 C 205.64704895 330.93383789 207.17871094 330.99655151 210.05978394 331.09698486 C 211.93383789 331.35629272 213.88916016 331.81118774 215.94439697 332.58514404 C 217.99964905 333.35910034 220.15481567 334.45211792 222.42854309 335.98767090" stroke-width="1.18236935" fill="rgb(224, 212, 181)" opacity="1.0" stroke="rgb(35, 38, 43)" stroke-opacity="1.0" stroke-linecap="round" stroke-linejoin="round"/>
    <path d="M 293.60632324 350.37347412 C 291.76153564 350.38803101 290.48956299 350.36676025 288.97293091 350.36242676 C 287.45626831 350.35806274 285.69494629 350.37060547 282.87149048 350.45275879 C 280.71319580 350.41162109 278.84039307 350.39941406 276.90200806 350.35861206 C 274.96362305 350.31781006 272.95965576 350.24838257 270.53900146 350.09283447 C 268.97320557 350.13928223 266.95983887 350.14178467 264.82510376 350.15997314 C 262.69039917 350.17816162 260.43432617 350.21203613 258.38323975 350.32122803 C 256.15536499 350.05358887 254.36868286 350.21469116 252.72825623 350.32238770 C 251.08784485 350.43008423 249.59368896 350.48434448 247.95083618 350.00302124 C 249.07601929 348.35113525 250.44406128 347.16510010 251.97059631 345.92639160 C 253.49713135 344.68768311 255.18215942 343.39630127 256.94131470 341.53372192 C 258.48040771 340.28668213 259.58203125 339.35827637 260.72192383 338.54440308 C 261.86184692 337.73052979 263.04000854 337.03121948 264.73214722 336.24243164 C 267.03454590 335.24255371 269.01571655 334.62466431 270.81533813 334.23721313 C 272.61499023 333.84976196 274.23306274 333.69274902 275.80929565 333.61465454 C 278.45495605 333.76223755 280.56048584 334.06106567 282.38073730 334.61080933 C 284.20095825 335.16055298 285.73590088 335.96118164 287.24038696 337.11239624 C 289.03118896 338.19326782 290.41305542 339.63650513 291.65527344 341.16744995 C 292.89749146 342.69839478 294.00006104 344.31701660 295.23226929 345.74871826 C 296.44958496 347.36608887 298.32299805 348.82492065 298.75213623 349.72805786 C 299.18127441 350.63122559 298.16613770 350.97869873 293.60632324 350.37347412" stroke-width="1.20734751" fill="rgb(226, 216, 180)" opacity="1.0" stroke="rgb(17, 16, 22)" stroke-opacity="1.0" stroke-linecap="round" stroke-linejoin="round"/>
    <path d="M 325.71466064 348.20004272 C 326.66488647 348.10021973 326.88223267 348.16906738 328.45858765 347.99896240 C 329.33413696 348.03506470 330.15844727 347.97488403 331.45346069 347.93753052 C 332.23593140 347.93597412 333.10083008 347.95361328 334.41601562 348.13549805 C 335.12435913 348.27239990 336.40744019 348.63320923 337.02975464 349.62805176 C 336.55233765 350.56253052 335.85217285 350.25128174 334.55911255 350.37908936 C 333.16400146 350.43243408 333.29504395 350.46057129 332.01742554 350.49050903 C 330.76068115 350.53890991 330.63763428 350.53399658 329.17269897 350.67294312 C 328.35144043 350.71627808 327.29495239 350.58871460 326.13415527 350.56448364 C 325.21829224 350.47982788 323.97146606 350.42480469 323.23986816 349.65267944 C 323.32723999 348.55239868 324.18756104 348.54925537 325.71466064 348.20004272" stroke-width="1.27198315" fill="rgb(229, 212, 181)" opacity="1.0" stroke="rgb(73, 55, 43)" stroke-opacity="1.0" stroke-linecap="round" stroke-linejoin="round"/>
    <path d="M 313.28021240 350.67166138 C 312.14602661 350.69424438 312.08197021 350.67126465 310.60684204 350.70071411 C 309.62313843 350.74050903 309.05401611 350.68859863 307.81008911 350.73120117 C 306.91567993 350.79782104 306.06423950 350.74472046 304.95767212 350.81881714 C 304.05526733 350.85668945 302.98962402 351.10537720 302.45889282 349.94110107 C 302.52697754 348.95312500 302.83856201 348.46121216 304.09829712 348.10498047 C 305.45117188 347.89492798 305.21539307 347.98425293 306.43441772 347.84399414 C 307.68493652 347.82083130 308.15429688 347.87536621 309.20898438 347.90048218 C 310.02963257 347.97784424 310.84997559 348.17788696 312.01345825 348.41812134 C 312.89355469 348.60522461 313.66180420 348.70275879 314.73822021 349.43338013 C 315.71759033 350.43252563 314.48953247 350.64514160 313.28021240 350.67166138" stroke-width="1.12689006" fill="rgb(235, 224, 192)" opacity="1.0" stroke="rgb(56, 45, 38)" stroke-opacity="1.0" stroke-linecap="round" stroke-linejoin="round"/>
  </g>
</svg>
