<?xml version="1.0" ?>
<svg xmlns="http://www.w3.org/2000/svg" version="1.1" width="512" height="512" viewBox="0 0 512 512">
  <defs/>
  <g>
    <path d="M 350.30200195 441.97943115 C 347.69018555 444.02841187 344.51983643 445.44787598 340.83886719 446.30020142 C 336.33557129 446.56448364 331.13919067 446.51391602 325.30471802 446.39016724 C 319.03604126 446.35177612 312.53024292 446.29086304 305.64694214 446.14437866 C 298.54067993 446.05612183 291.23641968 445.86755371 283.86749268 445.67788696 C 276.56396484 445.47857666 269.36569214 445.24526978 262.28811646 444.95919800 C 255.30130005 444.93450928 248.39329529 445.21655273 241.44409180 445.67028809 C 234.36999512 446.02874756 227.21356201 446.25378418 220.16773987 446.31384277 C 213.04747009 446.30038452 205.80894470 446.15518188 198.63592529 446.06829834 C 191.66589355 446.03274536 184.91436768 446.12069702 178.42182922 446.37707520 C 172.33244324 446.75970459 166.88917542 446.93618774 162.16235352 446.26882935 C 158.42761230 444.28027344 155.71891785 440.85034180 153.96580505 436.28372192 C 153.23361206 430.52270508 153.28385925 423.80612183 153.50592041 416.37081909 C 153.50367737 408.32919312 153.44157410 399.80624390 153.53010559 391.12527466 C 153.54287720 382.77038574 153.55679321 374.92025757 153.53675842 367.88110352 C 153.41319275 361.91015625 153.42613220 357.33856201 154.09098816 354.25466919 C 155.84140015 352.89633179 158.71731567 352.59265137 162.68051147 352.14868164 C 167.43112183 350.72506714 172.92945862 349.45016479 179.18997192 348.68469238 C 186.03868103 348.75912476 193.01644897 348.97500610 200.02545166 349.54348755 C 206.81460571 350.22204590 213.53395081 350.61886597 220.03395081 350.59985352 C 226.37734985 350.17645264 232.46701050 349.45120239 238.27566528 348.07263184 C 244.08164978 346.55001831 250.06491089 345.71411133 256.29687500 345.45169067 C 262.81555176 345.48483276 269.58419800 345.80026245 276.66940308 346.39321899 C 284.00549316 346.92507935 291.60900879 347.69256592 299.17092896 348.63705444 C 306.86050415 349.68957520 314.38626099 350.45977783 321.81146240 350.89825439 C 328.77630615 351.25198364 335.34054565 351.65225220 341.06619263 351.84420776 C 345.91427612 351.68734741 349.66625977 352.00048828 352.18820190 353.64834595 C 353.23556519 356.77987671 353.20388794 361.27069092 353.11175537 366.90905762 C 353.09207153 373.66375732 353.07733154 381.24368286 353.20666504 389.62841797 C 353.23678589 398.54205322 353.15625000 407.91506958 353.13476562 417.48983765 C 353.38818359 427.35903931 353.90399170 437.28509521 350.30200195 441.97943115" stroke-width="2.00000000" fill="rgb(175, 83, 41)" opacity="1.0" stroke="rgb(22, 6, 0)" stroke-opacity="0.8696963" stroke-linecap="round" stroke-linejoin="round"/>
    <path d="M 329.94699097 448.31240845 C 323.03805542 448.39749146 316.20312500 448.24127197 309.53054810 448.32095337 C 302.97015381 448.35971069 296.46200562 448.45001221 290.10372925 448.37322998 C 283.74035645 448.31555176 277.29742432 448.27853394 270.78601074 448.23718262 C 264.01455688 448.19860840 256.95791626 448.24551392 249.46569824 448.30670166 C 241.75177002 448.42968750 233.70474243 448.37396240 225.54498291 448.27062988 C 217.43214417 448.30224609 209.26391602 448.34500122 201.32211304 448.34634399 C 193.81787109 448.41845703 186.88056946 448.36071777 180.72349548 448.40618896 C 175.53666687 448.43020630 171.52995300 447.92541504 168.72804260 446.92678833 C 167.14282227 445.78680420 166.91127014 444.71102905 168.01794434 443.82009888 C 170.47529602 443.37930298 174.07623291 443.30929565 178.64607239 443.46527100 C 184.18682861 443.54641724 190.39976501 443.58462524 197.01579285 443.54669189 C 203.84210205 443.47311401 210.55924988 443.44247437 217.15867615 443.45413208 C 223.60470581 443.59887695 229.89462280 443.65798950 235.95460510 443.67056274 C 242.09349060 443.59765625 248.20390320 443.03820801 254.48431396 442.72094727 C 260.99130249 442.62680054 267.72640991 442.72927856 274.60314941 442.71896362 C 281.66412354 442.77886963 288.87747192 442.74468994 296.08084106 442.81784058 C 303.18325806 442.74575806 310.02468872 442.70764160 316.45449829 442.70861816 C 322.49621582 442.62475586 327.96859741 442.62347412 332.95150757 442.69894409 C 337.42593384 443.00454712 341.43704224 443.56964111 345.07272339 444.71020508 C 348.44833374 446.57308960 351.74276733 448.80722046 329.94699097 448.31240845" stroke-width="0.86970061" fill="rgb(143, 66, 38)" opacity="1.0" stroke="rgb(0, 0, 0)" stroke-opacity="0.5409196" stroke-linecap="round" stroke-linejoin="round"/>
    <path d="M 247.71101379 281.95928955 C 247.78311157 293.12393188 248.68884277 304.08853149 250.60917664 314.60598755 C 252.86361694 324.25036621 254.97833252 332.54013062 255.41386414 339.12445068 C 253.50537109 343.72631836 250.15962219 345.75915527 246.59172058 344.89944458 C 243.90487671 340.84115601 242.09391785 334.23876953 240.25213623 325.89868164 C 238.16072083 316.43756104 236.65411377 306.01916504 236.03353882 294.90417480 C 235.98611450 283.47344971 236.47705078 271.92895508 237.69760132 260.63928223 C 239.46290588 249.64147949 242.21255493 239.16583252 244.77256775 229.25674438 C 245.93142700 219.69274902 246.00604248 210.57318115 245.43370056 201.51809692 C 244.56416321 192.46978760 244.09158325 183.29759216 244.34754944 173.78869629 C 245.31608582 164.03701782 246.57064819 153.94848633 248.26637268 143.67623901 C 251.92361450 133.74174500 255.55883789 123.79144287 258.58364868 114.09558868 C 260.93579102 105.30162811 262.75375366 97.69690704 264.12936401 91.50222015 C 265.10131836 87.01406097 265.77932739 84.60025787 266.19494629 84.20947266 C 266.27392578 86.00524139 266.21917725 89.79859924 265.84652710 95.37958527 C 265.42459106 102.58840942 264.91635132 111.21252441 264.32025146 120.95445251 C 263.52462769 131.55451965 262.63607788 142.64395142 261.74456787 153.87371826 C 260.95693970 165.11056519 260.29534912 176.18164062 259.96725464 186.77333069 C 259.54769897 196.85044861 258.59997559 206.32040405 257.36581421 215.60267639 C 255.62231445 224.74678040 253.61906433 233.89448547 251.60551453 243.22306824 C 249.91278076 252.74386597 248.25592041 262.32745361 247.71101379 281.95928955" stroke-width="0.59707862" fill="rgb(108, 55, 33)" opacity="1.0" stroke="rgb(0, 0, 0)" stroke-opacity="0.42621264" stroke-linecap="round" stroke-linejoin="round"/>
    <path d="M 208.97668457 234.66416931 C 210.16421509 234.47775269 211.27653503 234.32392883 212.49993896 234.16455078 C 213.68017578 233.95513916 214.86492920 233.86747742 216.10694885 233.73699951 C 217.38227844 233.64849854 218.71340942 233.64015198 220.02757263 233.69297791 C 221.40574646 233.83082581 222.84953308 234.12631226 224.31918335 234.48101807 C 225.74095154 234.97055054 227.29121399 235.65251160 228.79750061 236.21342468 C 230.55799866 236.71174622 232.26763916 237.04782104 234.03472900 237.37506104 C 235.71179199 237.73080444 237.29043579 238.24371338 238.74217224 238.71844482 C 240.07501221 239.14382935 241.18699646 239.37872314 242.04539490 239.92796326 C 242.53387451 240.61581421 242.85562134 241.39913940 242.87539673 242.31958008 C 242.73753357 243.18070984 242.43612671 244.05793762 242.05358887 244.91491699 C 241.49734497 245.46052551 240.89952087 245.83164978 240.15933228 245.89888000 C 239.24748230 245.63253784 238.27320862 245.11193848 237.12641907 244.56210327 C 235.76554871 244.08390808 234.29771423 243.67712402 232.74186707 243.18527222 C 231.18826294 242.62200928 229.65730286 242.08126831 228.06140137 241.53524780 C 226.49374390 241.08317566 224.96856689 240.71331787 223.35656738 240.46516418 C 221.86460876 240.39515686 220.27015686 240.27322388 218.83377075 240.17304993 C 217.37246704 240.07489014 215.96838379 239.97532654 214.52282715 239.98840332 C 213.22900391 239.89529419 211.83004761 239.89738464 210.48585510 239.85366821 C 209.19143677 239.73780823 207.87226868 239.69064331 206.49763489 239.59574890 C 205.25549316 239.53320312 203.89035034 239.33917236 208.97668457 234.66416931" stroke-width="0.55703139" fill="rgb(84, 44, 32)" opacity="1.0" stroke="rgb(18, 5, 0)" stroke-opacity="0.39612082" stroke-linecap="round" stroke-linejoin="round"/>
    <path d="M 292.93371582 192.72850037 C 291.34576416 192.43247986 289.65319824 192.16993713 288.06707764 191.95365906 C 286.38748169 191.70632935 284.72006226 191.53138733 282.95120239 191.47491455 C 281.20114136 191.42950439 279.39114380 191.51345825 277.49188232 191.59393311 C 275.66986084 191.83831787 273.79324341 192.37757874 272.00289917 193.10539246 C 270.32031250 193.98654175 268.69815063 194.93312073 267.16888428 195.83360291 C 265.86495972 196.80812073 264.69210815 197.54852295 263.66687012 197.89300537 C 262.51840210 197.63882446 261.45486450 196.91091919 260.61877441 196.05650330 C 260.06002808 194.88407898 259.77713013 193.71357727 260.04379272 192.66178894 C 260.92102051 192.02606201 262.27139282 191.53254700 263.76644897 190.82333374 C 265.25708008 189.99624634 266.89877319 189.26126099 268.69857788 188.77665710 C 270.44723511 188.12545776 272.18054199 187.55026245 273.89419556 187.04895020 C 275.58178711 186.46852112 277.30700684 185.88429260 278.92926025 185.29827881 C 280.70355225 184.80696106 282.39440918 184.42700195 284.12200928 184.17214966 C 285.87899780 184.00228882 287.64477539 183.99496460 289.44787598 184.03451538 C 291.29837036 184.21180725 293.00222778 184.49772644 294.71258545 184.97639465 C 296.27108765 185.50810242 297.68063354 186.00268555 298.85119629 186.57633972 C 299.94219971 187.23143005 300.75564575 187.92170715 301.33810425 188.67419434 C 301.64395142 189.44606018 301.82546997 190.21347046 301.77331543 191.02030945 C 301.64434814 191.84031677 301.46612549 192.69602966 301.14193726 193.55004883 C 300.83160400 194.37722778 300.56256104 195.18937683 292.93371582 192.72850037" stroke-width="0.68043280" fill="rgb(80, 44, 28)" opacity="1.0" stroke="rgb(0, 0, 0)" stroke-opacity="0.3417982" stroke-linecap="round" stroke-linejoin="round"/>
    <path d="M 235.44421387 136.37969971 C 233.58015442 137.13441467 231.86543274 137.79270935 229.99357605 138.48103333 C 228.22831726 139.20970154 226.38502502 139.97172546 224.60871887 140.69175720 C 222.79165649 141.31588745 221.02101135 141.87657166 219.26794434 142.35997009 C 217.56556702 142.77716064 215.98791504 143.08082581 214.47650146 143.23007202 C 213.07737732 143.27156067 211.89131165 143.13031006 210.88540649 142.80871582 C 210.13610840 142.34327698 209.50102234 141.69699097 209.18177795 141.01004028 C 209.14237976 140.08192444 209.30033875 139.22438049 209.65254211 138.24816895 C 210.33267212 137.24488831 211.19285583 136.25627136 212.09086609 135.23094177 C 213.38937378 134.24108887 214.68144226 133.31471252 216.10011292 132.35263062 C 217.66001892 131.48631287 219.29568481 130.69517517 220.98034668 129.98809814 C 222.70278931 129.41604614 224.47369385 128.91477966 226.26309204 128.56642151 C 228.22499084 128.37088013 230.13801575 128.29663086 232.17956543 128.43484497 C 234.25952148 128.66589355 236.25514221 129.10827637 238.33940125 129.65727234 C 240.30113220 130.44302368 242.09532166 131.43949890 243.75302124 132.51066589 C 245.01702881 133.75419617 246.07116699 135.05751038 247.23554993 135.90579224 C 248.51940918 136.06472778 249.72673035 136.15467834 250.73597717 136.53334045 C 251.29624939 137.33734131 251.46540833 138.51119995 251.23062134 139.74792480 C 250.60229492 140.87692261 249.65914917 141.71615601 248.41700745 141.92105103 C 246.97554016 141.50189209 245.28425598 140.84773254 243.33123779 140.10192871 C 241.33993530 139.47337341 239.27894592 139.00564575 235.44421387 136.37969971" stroke-width="0.69371057" fill="rgb(69, 32, 28)" opacity="1.0" stroke="rgb(0, 0, 0)" stroke-opacity="0.379202" stroke-linecap="round" stroke-linejoin="round"/>
    <path d="M 171.58206177 275.57870483 C 168.17695618 274.44113159 165.05043030 272.84027100 162.04016113 270.97143555 C 159.14286804 268.92059326 156.44091797 266.60815430 154.00674438 263.75939941 C 151.81498718 260.74172974 149.82656860 257.47033691 148.25537109 253.86242676 C 146.95768738 249.88615417 146.06431580 245.76269531 145.56343079 241.53196716 C 145.47132874 237.34286499 145.84584045 233.00541687 146.54620361 228.85409546 C 147.70697021 224.84890747 149.38238525 220.98548889 151.47825623 217.41294861 C 153.79969788 213.98956299 156.58944702 210.79411316 159.72425842 208.05879211 C 163.15914917 205.72671509 166.83168030 203.76144409 170.67572021 202.08808899 C 174.62312317 200.87431335 178.68496704 200.19554138 182.79322815 199.94047546 C 186.85009766 200.00161743 190.83018494 200.55163574 194.76535034 201.58709717 C 198.67953491 202.70567322 202.33833313 204.20794678 205.90872192 206.22973633 C 209.10008240 208.44689941 211.98289490 210.96865845 214.65306091 213.82992554 C 217.17161560 216.84051514 219.42222595 220.05702209 221.16973877 223.52920532 C 222.67675781 227.14782715 223.73902893 230.81944275 224.20881653 234.80833435 C 224.21316528 238.84820557 223.66511536 242.95468140 222.68037415 247.10562134 C 221.43032837 251.14530945 219.73185730 255.03907776 217.64321899 258.69802856 C 215.27624512 262.10940552 212.62413025 265.16744995 209.73355103 267.94274902 C 206.71453857 270.36865234 203.52677917 272.44265747 200.14158630 274.01983643 C 196.62693787 275.34533691 193.07814026 276.23550415 189.42710876 276.86077881 C 185.64782715 277.23233032 181.80764771 277.60296631 171.58206177 275.57870483" stroke-width="0.49879780" fill="rgb(37, 87, 33)" opacity="1.0" stroke="rgb(12, 0, 21)" stroke-opacity="0.41614813" stroke-linecap="round" stroke-linejoin="round"/>
    <path d="M 221.94645691 129.35804749 C 219.75648499 126.50036621 217.60346985 123.57760620 215.41203308 120.76300049 C 213.24050903 117.94395447 211.08428955 114.97322083 208.93084717 111.88333130 C 206.87490845 108.74935913 204.85484314 105.62278748 203.08895874 102.25620270 C 201.46682739 98.81128693 199.90177917 95.29492950 198.61392212 91.83417511 C 197.68687439 88.30350494 196.99101257 84.61341858 196.49610901 80.93479156 C 196.32402039 77.09511566 196.41281128 73.31905365 196.73878479 69.60428619 C 197.56129456 66.04803467 198.54646301 62.29587936 199.73135376 58.51189041 C 201.22042847 54.84067917 203.02824402 51.32668304 205.19441223 47.94694138 C 207.70867920 44.59749603 210.39176941 41.46448135 213.30094910 38.48870468 C 216.46360779 35.86615753 219.61399841 33.59730530 223.00343323 31.56822586 C 226.46339417 29.66701889 230.07023621 28.02798462 233.83508301 26.72388268 C 237.85005188 25.62829590 242.04724121 24.55573273 246.37725830 23.78065109 C 250.74830627 23.58673286 255.06045532 23.55277252 259.64529419 23.76828194 C 264.09143066 24.32981873 268.19335938 25.21551514 272.21740723 26.27753830 C 276.02157593 27.53182411 279.47756958 29.47633743 282.88601685 31.28354263 C 286.13150024 33.04444885 289.27420044 34.91794968 292.10696411 37.05078125 C 294.59335327 39.35047150 296.90341187 41.72504425 298.98638916 44.22689438 C 301.01458740 46.74392700 302.75213623 49.34270859 304.20150757 52.50212479 C 305.61746216 55.80655670 306.84130859 59.21424484 308.02804565 62.96206665 C 308.69433594 66.97383118 309.01037598 71.19745636 309.29098511 75.52696228 C 309.38595581 79.86602783 309.25515747 84.25392914 308.93508911 88.65180206 C 308.39312744 92.87731171 307.48147583 96.94321442 306.40917969 100.87584686 C 305.08544922 104.54187012 303.41406250 108.00109100 301.46975708 111.06804657 C 299.30368042 113.87596893 296.94989014 116.41799164 294.19375610 118.61606598 C 291.20352173 120.48624420 288.04431152 122.08133698 284.62557983 123.34523773 C 280.97149658 124.37528992 277.22171021 125.26523590 273.34924316 126.07902527 C 269.36447144 126.70480347 265.23641968 127.19339752 261.13534546 127.72612000 C 256.98953247 128.39428711 252.95649719 129.15733337 248.83439636 130.01568604 C 244.90617371 130.73960876 240.88687134 131.09817505 236.84225464 131.21199036 C 232.85591125 131.39959717 228.79641724 131.56382751 221.94645691 129.35804749" stroke-width="1.95441639" fill="rgb(56, 137, 37)" opacity="1.0" stroke="rgb(27, 47, 22)" stroke-opacity="1.0" stroke-linecap="round" stroke-linejoin="round"/>
    <path d="M 328.26556396 234.87214661 C 325.37359619 235.04396057 322.43081665 234.83486938 319.27929688 234.61552429 C 316.24926758 234.08976746 313.20510864 233.62687683 310.18667603 232.85047913 C 307.27160645 231.96130371 304.36660767 230.92720032 301.38217163 229.58000183 C 298.52026367 228.00146484 295.86447144 226.20692444 293.46856689 224.09228516 C 290.98602295 221.91027832 288.63589478 219.61689758 286.71130371 216.89463806 C 284.77178955 213.98835754 283.18041992 211.04096985 281.76419067 208.03263855 C 280.61090088 204.79962158 279.76208496 201.60842896 278.99746704 198.51547241 C 278.43069458 195.41424561 278.35177612 192.15315247 278.46957397 188.93765259 C 278.52874756 185.90666199 279.03079224 182.88009644 279.82275391 179.71226501 C 280.69818115 176.63482666 281.81106567 173.56324768 283.16961670 170.43096924 C 284.77847290 167.31056213 286.53836060 164.18534851 288.44155884 161.20700073 C 290.46804810 158.42706299 292.71072388 155.57760620 295.13479614 152.95486450 C 297.66137695 150.63890076 300.29556274 148.54328918 303.06796265 146.68887329 C 305.95697021 145.15135193 309.03207397 143.79397583 312.04983521 142.69456482 C 315.13955688 141.95285034 318.15753174 141.54064941 321.16729736 141.46289062 C 324.15939331 141.61744690 327.12371826 141.85588074 329.96911621 142.41369629 C 332.83847046 143.05856323 335.74856567 143.42718506 338.49490356 143.87651062 C 341.19207764 144.79421997 343.82595825 145.97401428 346.40478516 147.39811707 C 349.03768921 148.90066528 351.71368408 150.43533325 354.23022461 152.21238708 C 356.54223633 154.47100830 358.84646606 156.75306702 361.12109375 159.09730530 C 363.13604736 161.69900513 364.91433716 164.47254944 366.44027710 167.29481506 C 368.09460449 170.15902710 369.29193115 173.23355103 370.07785034 176.49263000 C 370.90216064 179.78184509 371.52764893 183.14001465 371.75689697 186.51802063 C 371.79165649 189.97839355 371.57620239 193.43963623 371.16400146 196.82283020 C 370.64367676 200.20547485 369.63195801 203.52021790 368.35821533 206.48387146 C 366.90527344 209.53788757 365.32540894 212.54191589 363.44049072 215.30842590 C 361.48266602 218.00848389 359.32467651 220.57217407 357.03952026 222.97561646 C 354.51834106 225.07334900 351.76815796 226.89477539 348.88137817 228.61167908 C 345.89321899 230.04389954 343.01443481 231.44903564 340.00701904 232.54275513 C 337.03390503 233.31762695 333.92889404 234.27188110 328.26556396 234.87214661" stroke-width="1.97165048" fill="rgb(69, 142, 48)" opacity="1.0" stroke="rgb(12, 34, 8)" stroke-opacity="0.9191473" stroke-linecap="round" stroke-linejoin="round"/>
    <path d="M 228.99815369 159.97714233 C 227.60508728 162.33383179 226.11303711 164.81535339 224.52102661 167.13923645 C 223.01452637 169.51136780 221.49021912 171.91220093 219.93286133 174.24482727 C 218.22962952 176.45230103 216.47392273 178.62174988 214.73468018 180.84086609 C 212.85700989 182.90072632 210.84574890 184.68215942 208.91494751 186.41081238 C 206.80471802 187.88526917 204.47322083 189.06558228 201.99383545 189.95863342 C 199.28694153 190.50704956 196.41607666 190.73054504 193.37503052 190.76785278 C 190.24418640 190.75192261 187.08613586 190.45779419 183.97808838 190.00340271 C 180.91372681 189.37107849 178.00271606 188.44165039 175.12786865 187.24319458 C 172.29841614 185.98515320 169.63647461 184.48953247 167.26335144 182.57327271 C 164.80067444 180.62927246 162.53758240 178.56297302 160.58226013 176.21638489 C 158.72924805 173.63191223 157.14372253 170.97453308 155.57737732 168.27032471 C 154.25981140 165.57722473 153.26715088 162.64802551 152.41241455 159.65954590 C 151.89988708 156.60461426 151.65707397 153.48332214 151.51861572 150.43592834 C 151.54786682 147.32957458 151.82546997 144.28613281 152.18891907 141.25892639 C 152.82597351 138.51330566 153.64317322 135.93733215 154.60896301 133.38796997 C 155.69248962 130.83285522 156.82824707 128.58799744 158.10601807 126.39304352 C 159.34347534 124.26201630 160.76757812 122.26228333 162.35018921 120.46482849 C 163.91453552 118.67190552 165.75062561 116.89984894 167.55000305 115.12742615 C 169.59445190 113.56813812 171.76670837 112.15560150 174.20333862 110.74918365 C 176.76496887 109.36624146 179.54025269 108.21216583 182.48765564 107.20251465 C 185.60969543 106.47386169 188.78581238 105.75519562 192.04324341 105.39021301 C 195.26545715 105.09413910 198.51264954 105.05020142 201.65948486 105.12764740 C 204.85522461 105.50809479 207.79689026 106.11572266 210.67671204 107.02390289 C 213.37532043 108.21835327 216.13191223 109.58238220 218.58981323 111.11263275 C 220.99096680 112.83309174 223.19921875 114.70584106 225.32806396 116.84514618 C 227.22056580 119.05886078 228.96928406 121.45935822 230.49491882 123.87987518 C 231.85192871 126.40570831 232.93882751 128.96688843 233.72991943 131.69599915 C 234.12161255 134.46995544 234.35682678 137.30897522 234.48352051 140.33227539 C 234.38069153 143.27516174 234.28704834 146.44226074 234.17662048 149.52230835 C 234.11114502 152.68124390 233.95779419 155.77961731 228.99815369 159.97714233" stroke-width="1.86706591" fill="rgb(76, 161, 60)" opacity="1.0" stroke="rgb(8, 34, 7)" stroke-opacity="0.9312672" stroke-linecap="round" stroke-linejoin="round"/>
    <path d="M 328.40652466 139.44869995 C 324.76574707 139.97827148 321.16854858 140.40161133 317.55117798 140.86518860 C 313.82025146 141.25021362 310.16757202 141.66352844 306.48822021 141.93292236 C 302.72973633 142.11753845 299.05496216 142.14469910 295.48840332 141.91088867 C 291.93365479 141.48240662 288.42517090 140.77600098 284.84899902 139.68954468 C 281.48635864 138.31355286 278.22143555 136.47627258 275.15380859 134.22232056 C 272.35403442 131.62246704 269.75387573 128.67263794 267.58325195 125.38385010 C 265.71472168 121.74588013 264.35818481 117.83190155 263.43240356 113.77890778 C 262.91726685 109.53761292 262.72357178 105.27353668 263.23101807 101.01976013 C 264.05297852 96.79664612 265.29492188 92.67695618 266.94143677 88.81735229 C 268.82675171 85.11621857 270.96444702 81.74100494 273.46844482 78.76592255 C 276.32891846 76.14858246 279.43753052 74.00175476 282.83169556 72.30307007 C 286.41146851 71.03742218 290.17471313 70.24287415 294.17398071 69.86032867 C 298.35342407 69.65136719 302.50820923 69.61735535 306.65789795 69.96457672 C 310.78546143 70.82975006 314.77499390 72.14651489 318.55328369 73.71332550 C 322.28216553 75.65200806 325.56182861 78.14520264 328.67755127 80.99374390 C 331.68426514 84.05907440 334.26962280 87.36108398 336.62344360 91.03969574 C 338.46560669 94.72756958 339.79400635 98.81165314 340.56158447 102.96374512 C 341.05535889 107.19901276 341.02670288 111.37996674 340.51321411 115.55784607 C 339.67169189 119.75027466 338.46325684 123.95104980 336.56112671 127.79050446 C 334.32449341 131.59376526 331.86044312 135.35137939 328.40652466 139.44869995" stroke-width="1.77466393" fill="rgb(94, 171, 66)" opacity="1.0" stroke="rgb(14, 49, 9)" stroke-opacity="0.9473536" stroke-linecap="round" stroke-linejoin="round"/>
    <path d="M 249.22418213 170.03028870 C 249.09158325 171.69027710 248.86378479 173.29011536 248.45719910 174.82797241 C 247.93009949 176.38999939 247.18461609 177.94256592 246.15724182 179.45393372 C 245.02035522 180.99478149 243.64715576 182.47636414 241.90216064 183.85769653 C 239.81811523 184.95513916 237.50309753 186.05326843 235.13958740 187.09642029 C 232.72666931 188.09426880 230.06866455 188.70999146 227.44337463 189.11021423 C 224.84086609 189.37046814 222.25067139 189.17098999 219.61140442 188.83406067 C 216.95399475 188.43157959 214.54249573 187.78692627 212.24261475 186.71423340 C 210.03150940 185.40144348 207.85621643 183.74957275 205.96296692 181.86285400 C 204.28544617 179.73304749 202.92593384 177.44064331 201.83952332 174.96174622 C 201.00895691 172.43852234 200.41491699 169.86643982 200.06752014 167.30079651 C 200.07054138 164.58621216 200.17114258 161.97093201 200.54562378 159.42707825 C 201.23358154 156.89953613 202.23136902 154.55934143 203.54264832 152.38529968 C 205.12870789 150.28529358 206.79867554 148.35375977 208.80549622 146.62001038 C 210.96107483 145.06695557 213.39236450 143.67854309 215.97798157 142.65505981 C 218.54583740 141.92521667 221.40528870 141.51510620 224.24407959 141.36802673 C 227.10122681 141.53990173 229.88093567 142.00823975 232.51309204 142.62701416 C 234.96517944 143.44795227 236.93116760 144.61505127 238.62779236 146.15347290 C 240.33842468 147.72425842 241.64984131 149.40095520 242.85487366 151.12455750 C 243.81140137 152.74885559 244.97764587 154.05680847 246.47840881 154.91964722 C 247.97703552 155.58685303 249.33654785 156.22085571 249.22418213 170.03028870" stroke-width="1.64014256" fill="rgb(111, 194, 90)" opacity="1.0" stroke="rgb(13, 32, 11)" stroke-opacity="0.89885074" stroke-linecap="round" stroke-linejoin="round"/>
    <path d="M 298.96875000 170.56753540 C 296.45578003 171.76454163 294.02398682 172.85304260 291.50189209 173.70530701 C 288.83676147 174.31495667 286.14080811 174.70175171 283.47079468 174.80618286 C 280.76266479 174.76583862 278.13015747 174.50637817 275.42221069 173.71833801 C 272.78463745 172.90495300 270.18313599 171.85540771 267.71148682 170.28530884 C 265.20223999 168.44088745 262.57803345 166.77537537 260.09069824 165.05290222 C 258.03881836 162.77677917 256.24172974 160.16448975 254.85734558 157.24549866 C 253.89224243 154.16131592 253.21786499 150.93127441 252.71379089 147.63876343 C 252.51126099 144.48886108 252.69261169 141.33778381 253.20936584 138.38035583 C 254.10861206 135.52813721 255.36650085 132.95254517 257.12277222 130.49768066 C 259.10446167 128.19155884 261.20263672 126.05077362 263.44015503 123.98677826 C 265.89138794 122.14511871 268.40698242 120.61280823 271.07531738 119.49218750 C 273.82897949 118.53167725 276.81524658 118.07604980 279.76983643 117.77972412 C 282.74978638 117.53334045 285.81710815 117.66864014 288.79159546 118.27256012 C 291.71215820 119.08470917 294.65728760 120.07761383 297.59811401 121.42883301 C 300.31826782 123.06312561 302.88552856 125.03368378 305.17910767 127.20924377 C 307.27551270 129.56202698 309.03082275 132.16412354 310.39303589 134.95350647 C 311.44052124 137.84397888 312.22164917 140.82272339 312.69720459 143.79548645 C 312.75497437 146.79031372 312.54269409 149.71113586 312.04467773 152.52143860 C 311.22204590 155.26400757 310.07586670 157.88458252 308.83251953 160.52514648 C 307.53442383 163.06976318 306.14114380 165.79165649 298.96875000 170.56753540" stroke-width="1.67037022" fill="rgb(146, 209, 120)" opacity="1.0" stroke="rgb(10, 25, 5)" stroke-opacity="0.8528569" stroke-linecap="round" stroke-linejoin="round"/>
    <path d="M 259.39810181 195.57214355 C 260.16476440 197.18417358 260.98754883 198.70764160 261.74279785 200.37841797 C 262.19363403 202.18107605 262.63040161 203.97741699 262.86322021 205.82946777 C 262.92935181 207.66369629 262.85003662 209.49504089 262.51861572 211.18766785 C 261.80017090 212.69105530 260.99435425 214.20501709 260.18386841 215.71472168 C 259.06790161 217.00056458 257.95843506 218.15895081 256.80029297 219.28160095 C 255.60052490 220.36456299 254.08526611 221.30017090 252.55824280 222.01698303 C 250.83480835 222.50971985 249.10568237 222.99708557 247.28465271 223.24797058 C 245.38134766 223.53637695 243.50326538 223.84306335 241.75395203 223.72261047 C 239.95114136 223.24191284 238.17164612 222.67910767 236.48475647 221.87843323 C 234.95494080 220.80749512 233.60459900 219.54638672 232.36341858 218.25732422 C 231.34048462 216.72148132 230.47715759 214.98110962 229.78678894 213.39720154 C 229.16476440 211.80097961 228.70945740 210.16084290 228.50636292 208.40156555 C 228.52464294 206.79852295 228.85876465 205.25216675 229.24330139 203.65270996 C 229.65000916 202.07489014 230.25488281 200.60466003 231.15547180 199.20436096 C 232.16029358 197.88366699 233.29942322 196.64677429 234.57601929 195.54771423 C 235.85090637 194.48422241 237.22442627 193.45146179 238.70956421 192.61100769 C 240.32478333 191.98985291 241.95809937 191.32345581 243.67393494 190.79547119 C 245.50840759 190.58149719 247.31803894 190.52529907 249.18872070 190.55503845 C 250.97608948 190.88072205 252.75161743 191.55059814 254.53186035 192.44039917 C 256.32937622 193.33261108 258.09048462 194.22904968 259.39810181 195.57214355" stroke-width="1.72477174" fill="rgb(157, 217, 135)" opacity="1.0" stroke="rgb(28, 35, 21)" stroke-opacity="0.96329695" stroke-linecap="round" stroke-linejoin="round"/>
    <path d="M 262.29455566 57.36034012 C 263.28479004 56.39823151 264.34722900 55.53575516 265.45651245 54.87844849 C 266.62442017 54.23913574 267.83990479 53.68028641 269.09133911 53.15649414 C 270.19348145 52.83432007 271.46704102 52.66319656 272.88128662 52.54098511 C 274.18502808 52.60633850 275.61581421 52.77314758 277.10345459 52.94933319 C 278.52832031 53.40853882 279.75765991 54.03430557 281.15524292 54.75509262 C 282.43820190 55.74070358 283.70291138 56.76626587 284.74691772 57.96430969 C 285.67300415 59.28001022 286.39260864 60.72447586 287.02328491 62.28807831 C 287.53518677 63.76399612 288.08947754 65.24082947 288.39694214 66.72772217 C 288.47412109 68.20799255 288.31610107 69.52798462 287.81417847 70.84841919 C 287.05700684 72.24928284 286.31091309 73.69999695 285.33511353 75.04935455 C 284.38519287 76.28778076 283.20153809 77.38124084 282.01156616 78.44335175 C 280.55676270 79.23838806 279.10272217 79.91473389 277.57562256 80.55664062 C 276.20828247 81.05879974 274.65533447 81.36997223 273.09512329 81.49578094 C 271.48040771 81.50238800 269.99011230 81.28404236 268.50317383 80.89723206 C 267.04855347 80.33136749 265.51086426 79.72016907 264.16970825 78.94683075 C 262.95483398 78.06964874 261.91137695 77.03628540 260.91125488 75.84019470 C 259.97137451 74.65977478 259.29229736 73.29132080 258.79153442 71.92478943 C 258.46112061 70.43724823 258.22122192 68.98142242 258.07318115 67.42897797 C 258.21881104 66.03961945 258.56515503 64.51991272 258.85098267 63.06282806 C 259.29049683 61.54056931 259.70660400 60.09880829 262.29455566 57.36034012" stroke-width="1.70381379" fill="rgb(185, 229, 165)" opacity="1.0" stroke="rgb(16, 39, 13)" stroke-opacity="0.92155385" stroke-linecap="round" stroke-linejoin="round"/>
    <path d="M 221.87889099 335.06939697 C 223.74880981 336.53588867 225.50753784 338.09439087 227.12527466 339.79901123 C 228.70381165 341.45791626 230.05215454 343.11065674 231.06652832 344.70223999 C 232.05389404 345.95645142 232.86546326 346.81784058 232.93707275 347.54168701 C 232.37010193 348.26901245 231.25592041 348.87509155 229.74569702 349.62954712 C 227.97659302 350.24334717 226.07055664 350.43496704 223.86495972 350.39169312 C 221.49734497 350.41921997 219.12940979 350.47244263 216.71754456 350.53796387 C 214.21847534 350.64828491 211.71029663 350.60598755 209.31582642 350.51315308 C 206.85743713 350.52612305 204.30096436 350.58547974 201.92472839 350.61315918 C 199.51173401 350.63906860 197.09893799 350.55096436 194.65817261 350.61172485 C 192.42126465 350.67999268 190.22875977 350.64886475 188.20417786 350.61047363 C 186.32774353 350.70501709 184.86602783 350.85726929 183.85848999 350.89578247 C 183.24703979 350.70361328 182.99871826 350.31130981 183.06990051 349.48910522 C 183.56085205 348.39221191 184.26901245 346.97991943 185.12736511 345.45880127 C 186.21334839 343.90548706 187.52381897 342.18209839 188.74832153 340.27835083 C 190.16033936 338.63577271 191.83602905 337.23403931 193.58422852 335.87002563 C 195.35693359 334.54745483 197.12976074 333.35879517 199.02836609 332.37466431 C 200.92893982 331.74209595 202.84443665 331.39685059 204.76010132 331.07974243 C 206.67918396 331.04110718 208.61544800 331.14334106 210.55755615 331.22912598 C 212.43585205 331.56628418 214.29200745 332.03222656 216.17118835 332.55590820 C 217.99093628 333.25030518 220.05123901 334.01684570 221.87889099 335.06939697" stroke-width="1.87596071" fill="rgb(223, 217, 185)" opacity="1.0" stroke="rgb(7, 3, 6)" stroke-opacity="0.8367948" stroke-linecap="round" stroke-linejoin="round"/>
    <path d="M 295.99694824 350.27246094 C 293.73712158 350.49291992 291.64529419 350.54391479 289.57507324 350.45031738 C 287.42468262 350.52963257 285.35903931 350.51486206 283.28973389 350.49606323 C 281.27606201 350.56472778 279.26736450 350.51217651 277.16030884 350.48986816 C 274.96118164 350.49130249 272.73818970 350.39004517 270.39865112 350.37948608 C 267.92950439 350.45971680 265.28491211 350.44708252 262.59689331 350.40945435 C 259.79006958 350.40728760 257.11038208 350.41464233 254.58686829 350.42916870 C 252.22204590 350.43020630 250.30181885 350.53591919 249.07151794 350.45831299 C 248.48208618 349.99475098 248.44342041 349.12878418 248.84204102 348.26205444 C 249.92242432 347.44656372 251.33100891 346.69509888 252.81387329 346.23648071 C 253.91372681 345.27059937 254.65509033 343.94863892 255.49674988 342.68124390 C 256.69714355 341.42514038 258.24383545 340.25241089 260.04614258 339.13952637 C 261.72509766 337.86404419 263.52581787 336.69012451 265.52404785 335.65927124 C 267.53521729 334.80694580 269.47927856 334.25122070 271.46249390 333.86001587 C 273.33236694 333.55615234 275.14764404 333.29418945 276.92126465 333.33605957 C 278.83267212 333.55654907 280.74127197 333.96780396 282.50869751 334.43966675 C 284.28454590 335.03045654 286.04809570 335.91983032 287.70135498 336.95001221 C 289.31430054 338.17547607 290.59100342 339.59234619 291.83801270 341.10220337 C 293.04733276 342.56417847 294.08752441 343.98797607 295.06179810 345.42422485 C 296.06539917 346.90203857 297.08895874 348.21377563 298.23196411 349.27468872 C 299.45022583 350.28662109 300.71466064 351.27642822 295.99694824 350.27246094" stroke-width="1.94790053" fill="rgb(227, 214, 181)" opacity="1.0" stroke="rgb(7, 0, 2)" stroke-opacity="0.84422547" stroke-linecap="round" stroke-linejoin="round"/>
    <path d="M 324.54476929 348.33395386 C 326.15460205 348.03201294 327.71533203 347.79760742 329.19161987 347.70907593 C 330.62100220 347.47918701 331.97674561 347.56961060 333.20056152 347.70837402 C 334.37713623 347.94873047 335.46850586 348.24395752 336.28823853 348.59933472 C 337.05828857 348.96493530 337.57354736 349.47225952 337.80230713 349.97592163 C 337.76724243 350.33758545 337.39242554 350.56793213 336.81039429 350.75204468 C 335.87145996 350.67523193 334.82153320 350.47607422 333.60916138 350.45419312 C 332.30938721 350.47970581 330.76599121 350.50256348 329.36526489 350.51245117 C 327.92889404 350.52145386 326.57379150 350.62274170 325.38110352 350.75149536 C 324.30068970 350.69845581 323.30538940 350.75320435 322.38516235 350.78659058 C 321.46469116 350.63967896 320.53085327 350.32247925 324.54476929 348.33395386" stroke-width="1.89256525" fill="rgb(250, 239, 210)" opacity="1.0" stroke="rgb(37, 20, 9)" stroke-opacity="0.8863624" stroke-linecap="round" stroke-linejoin="round"/>
    <path d="M 314.21206665 350.83969116 C 312.71752930 350.92446899 311.34381104 350.97186279 309.91644287 350.91653442 C 308.58450317 350.92276001 307.30233765 350.80755615 306.01452637 350.79446411 C 304.79898071 350.75973511 303.75030518 350.83453369 302.84167480 350.88833618 C 302.33187866 350.72326660 301.95944214 350.47244263 301.84436035 349.93234253 C 301.83480835 349.34344482 302.11151123 348.80239868 302.64382935 348.52880859 C 303.40014648 348.32138062 304.41885376 347.99316406 305.49496460 347.74310303 C 306.56793213 347.66146851 307.71395874 347.63894653 308.96527100 347.63116455 C 310.12469482 347.75225830 311.21670532 348.05242920 312.12988281 348.25625610 C 313.10269165 348.50271606 313.92514038 349.07244873 314.79199219 349.52673340 C 315.55380249 349.97338867 316.27017212 350.70651245 314.21206665 350.83969116" stroke-width="1.94163835" fill="rgb(230, 223, 192)" opacity="1.0" stroke="rgb(40, 28, 13)" stroke-opacity="0.8274294" stroke-linecap="round" stroke-linejoin="round"/>
  </g>
</svg>
