<svg xmlns="http://www.w3.org/2000/svg" viewBox="0 0 512 512" height="512.0px" width="512.0px">
<path id="" fill="#D2691E" fill-opacity="1.0" stroke="#000000" stroke-width="0.0" stroke-opacity="1.0" stroke-linecap="round" stroke-linejoin="round"  filling="0" d="M256 400 C239 350 223 300 206 250 C239 250 273 250 306 250 C289 300 273 350 256 400"></path>
<path id="" fill="#FFB6C1" fill-opacity="1.0" stroke="#000000" stroke-width="0.0" stroke-opacity="1.0" stroke-linecap="round" stroke-linejoin="round"  filling="0" d="M316 220 C316 236 310 251 298 262 C287 274 272 280 256 280 C240 280 225 274 214 262 C202 251 196 236 196 220 C196 204 202 189 214 178 C225 166 240 160 256 160 C272 160 287 166 298 178 C310 189 316 204 316 220"></path>
<path id="" fill="#8B4513" fill-opacity="1.0" stroke="#000000" stroke-width="0.0" stroke-opacity="1.0" stroke-linecap="round" stroke-linejoin="round"  filling="0" d="M311 150 C311 165 305 179 295 189 C285 199 271 205 256 205 C241 205 227 199 217 189 C207 179 201 165 201 150 C201 135 207 121 217 111 C227 101 241 95 256 95 C271 95 285 101 295 111 C305 121 311 135 311 150"></path>
<path id="" fill="#FFFAF0" fill-opacity="1.0" stroke="#000000" stroke-width="0.0" stroke-opacity="1.0" stroke-linecap="round" stroke-linejoin="round"  filling="0" d="M306 90 C306 103 301 116 291 125 C282 135 269 140 256 140 C243 140 230 135 221 125 C211 116 206 103 206 90 C206 77 211 64 221 55 C230 45 243 40 256 40 C269 40 282 45 291 55 C301 64 306 77 306 90"></path>
</svg>