<svg viewBox="0 0 512 512" xmlns="http://www.w3.org/2000/svg">
  <!-- Pot body -->
  <rect x="156" y="350" width="200" height="100" rx="10" ry="10" fill="#FF0000"/>
  <!-- Pot base -->
  <rect x="161" y="440" width="190" height="10" fill="#CC0000"/>
  <!-- Pot curved sides -->
  <path d="M161 350 Q156 400 161 450" fill="none" stroke="#CC0000" stroke-width="2"/>
  <path d="M351 350 Q356 400 351 450" fill="none" stroke="#CC0000" stroke-width="2"/>
  <!-- Tree trunk -->
  <path d="M256 350 Q236 300 246 250 T256 200" fill="none" stroke="#8B4513" stroke-width="10"/>
  <!-- Main branches -->
  <path d="M246 250 Q226 230 206 240" fill="none" stroke="#8B4513" stroke-width="6"/>
  <path d="M256 200 Q286 180 306 190" fill="none" stroke="#8B4513" stroke-width="6"/>
  <!-- Tree foliage outline -->
  <polygon points="226,350 176,150 256,50 336,150 286,350" fill="#006400"/>
  <!-- Leaf clusters -->
  <circle cx="206" cy="240" r="30" fill="#008000"/>
  <circle cx="256" cy="100" r="50" fill="#008000"/>
  <circle cx="306" cy="190" r="40" fill="#008000"/>
  <circle cx="226" cy="170" r="35" fill="#008000"/>
  <circle cx="286" cy="150" r="35" fill="#008000"/>
</svg>