<svg viewBox="0 0 512 512" xmlns="http://www.w3.org/2000/svg">
  <!-- Pot body with shading -->
  <rect x="156" y="350" width="200" height="100" rx="10" ry="10" fill="#D32F2F"/>
  <path d="M156 350 Q 256 370 356 350 L 356 450 Q 256 430 156 450 Z" fill="#B71C1C" fill-opacity="0.3"/>
  <!-- Pot base -->
  <rect x="161" y="440" width="190" height="10" fill="#8B0000"/>
  <!-- Tree trunk -->
  <path d="M256 350 Q236 300 246 250 T256 150 Q 266 100 256 50" fill="none" stroke="#5D4037" stroke-width="15"/>
  <!-- Main branches -->
  <path d="M246 250 Q226 230 186 240" fill="none" stroke="#5D4037" stroke-width="8"/>
  <path d="M256 200 Q286 180 326 190" fill="none" stroke="#5D4037" stroke-width="8"/>
  <path d="M256 150 Q226 130 196 150" fill="none" stroke="#5D4037" stroke-width="6"/>
  <path d="M256 100 Q286 80 306 110" fill="none" stroke="#5D4037" stroke-width="6"/>
  <!-- Leaf clusters -->
  <circle cx="186" cy="240" r="40" fill="#1B5E20"/>
  <circle cx="256" cy="80" r="60" fill="#2E7D32"/>
  <circle cx="326" cy="190" r="50" fill="#388E3C"/>
  <circle cx="196" cy="150" r="45" fill="#43A047"/>
  <circle cx="306" cy="110" r="40" fill="#4CAF50"/>
  <!-- Additional smaller leaf clusters for texture -->
  <circle cx="226" cy="170" r="25" fill="#66BB6A"/>
  <circle cx="286" cy="150" r="30" fill="#81C784"/>
  <circle cx="246" cy="210" r="20" fill="#A5D6A7"/>
  <circle cx="276" cy="70" r="15" fill="#C8E6C9"/>
</svg>