<svg viewBox="0 0 512 512" xmlns="http://www.w3.org/2000/svg">
  <!-- Pot base -->
  <rect x="156" y="440" width="200" height="20" fill="#8B0000"/>
  <!-- Pot body with shading -->
  <rect x="166" y="360" width="180" height="80" rx="10" ry="10" fill="#D32F2F"/>
  <path d="M166 360 Q 256 380 346 360 L 346 440 Q 256 420 166 440 Z" fill="#B71C1C" fill-opacity="0.3"/>
  <!-- Bonsai trunk -->
  <path d="M256 360 Q 236 320 246 280 T 236 220 Q 246 180 256 150 Q 266 180 276 220 T 266 280 Q 276 320 256 360" fill="none" stroke="#5D4037" stroke-width="10"/>
  <!-- Main branches -->
  <path d="M246 280 Q 216 260 196 270" fill="none" stroke="#5D4037" stroke-width="6"/>
  <path d="M266 280 Q 296 260 316 270" fill="none" stroke="#5D4037" stroke-width="6"/>
  <path d="M236 220 Q 206 200 186 210" fill="none" stroke="#5D4037" stroke-width="4"/>
  <path d="M276 220 Q 306 200 326 210" fill="none" stroke="#5D4037" stroke-width="4"/>
  <!-- Leaf clusters -->
  <circle cx="196" cy="270" r="30" fill="#2E7D32"/>
  <circle cx="316" cy="270" r="35" fill="#1B5E20"/>
  <circle cx="186" cy="210" r="25" fill="#388E3C"/>
  <circle cx="326" cy="210" r="28" fill="#43A047"/>
  <circle cx="256" cy="150" r="40" fill="#4CAF50"/>
  <circle cx="226" cy="190" r="20" fill="#66BB6A"/>
  <circle cx="286" cy="190" r="22" fill="#81C784"/>
  <circle cx="236" cy="240" r="18" fill="#A5D6A7"/>
  <circle cx="276" cy="240" r="19" fill="#C8E6C9"/>
  <!-- Small leaf details -->
  <circle cx="196" cy="250" r="5" fill="#E8F5E9"/>
  <circle cx="316" cy="250" r="6" fill="#E8F5E9"/>
  <circle cx="256" cy="130" r="7" fill="#E8F5E9"/>
</svg>