<svg viewBox="0 0 512 512" xmlns="http://www.w3.org/2000/svg">
  <!-- Ice sheet base -->
  <rect x="0" y="340" width="512" height="172" fill="#e6f3ff"/>
  <!-- Ice texture -->
  <polygon points="50,360 80,380 30,390" fill="#d6e9ff"/>
  <polygon points="200,370 230,390 180,400" fill="#d6e9ff"/>
  <polygon points="400,350 430,370 380,380" fill="#d6e9ff"/>
  <!-- Penguin body -->
  <ellipse cx="256" cy="256" rx="40" ry="60" fill="#000000"/>
  <!-- Penguin belly -->
  <ellipse cx="256" cy="276" rx="30" ry="50" fill="#ffffff"/>
  <!-- Penguin head -->
  <circle cx="256" cy="176" r="40" fill="#000000"/>
  <!-- Penguin beak -->
  <polygon points="246,206 256,216 266,206" fill="#ffa500"/>
  <!-- Penguin left flipper -->
  <polygon points="216,246 196,296 216,346" fill="#000000"/>
  <!-- Penguin right flipper -->
  <polygon points="296,246 316,296 296,346" fill="#000000"/>
  <!-- Penguin left foot -->
  <polygon points="226,356 246,356 236,376" fill="#ffa500"/>
  <!-- Penguin right foot -->
  <polygon points="266,356 286,356 276,376" fill="#ffa500"/>
  <!-- Penguin left eye -->
  <circle cx="241" cy="171" r="5" fill="#ffffff"/>
  <!-- Penguin right eye -->
  <circle cx="271" cy="171" r="5" fill="#ffffff"/>
</svg>