<?xml version="1.0" ?>
<svg xmlns="http://www.w3.org/2000/svg" version="1.1" width="512" height="512" viewBox="0 0 512 512">
  <defs/>
  <g>
    <path d="M 579.01849365 477.46154785 C 565.70654297 483.89639282 552.34893799 490.28494263 539.00286865 496.69595337 C 525.58557129 503.00183105 512.09344482 509.21340942 498.48062134 515.21093750 C 484.72586060 521.09393311 470.79956055 526.70166016 456.73229980 532.19177246 C 442.44464111 537.40704346 427.94091797 542.38446045 413.26385498 547.11846924 C 398.30239868 551.56945801 383.02105713 555.71221924 367.58978271 559.51794434 C 351.78567505 562.96716309 335.72750854 566.05773926 319.42254639 568.71807861 C 302.82080078 570.99566650 285.97662354 572.82513428 268.92907715 574.14996338 C 251.64604187 574.95367432 234.22309875 575.25598145 216.66233826 574.97509766 C 198.98406982 574.10510254 181.35337830 572.66796875 163.70475769 570.64971924 C 146.16230774 567.94366455 128.88706970 564.64556885 111.86959076 560.65283203 C 95.26434326 555.94122314 79.16928101 550.55859375 63.68505478 544.39477539 C 49.02014542 537.50030518 35.16533661 529.76696777 22.44007111 521.23425293 C 10.89681149 511.80578613 0.70611471 501.54901123 -8.10904598 490.49438477 C -15.42999077 478.79174805 -21.40581512 466.64743042 -25.97248268 454.16091919 C -29.13381386 441.53054810 -30.94726753 428.91470337 -31.39503288 416.44708252 C -30.41865349 404.24972534 -28.17765045 392.53063965 -24.50372696 381.48358154 C -19.43310356 371.30282593 -13.01360416 362.22402954 -5.11028671 354.54544067 C 4.24989033 348.42916870 15.10018539 344.10510254 27.43508911 341.48858643 C 41.03405380 340.44049072 55.81701279 340.26062012 71.50323486 340.50274658 C 87.98085022 340.64410400 105.03990173 340.75610352 122.67709351 340.74621582 C 140.62033081 340.75082397 158.86256409 340.72622681 177.27877808 340.73144531 C 195.83816528 340.65664673 214.36853027 340.55358887 232.83830261 340.43099976 C 251.24203491 340.34051514 269.43518066 340.32376099 287.40798950 340.39920044 C 305.13391113 340.52722168 322.55844116 340.63061523 339.72384644 340.72280884 C 356.52877808 340.75469971 372.98913574 340.78576660 389.14157104 340.80004883 C 404.95263672 340.80651855 420.41354370 340.79382324 435.57833862 340.74023438 C 450.45913696 340.65429688 465.01541138 340.64779663 479.34973145 340.71432495 C 493.40399170 341.13690186 507.27142334 341.88641357 520.98004150 343.21640015 C 534.51818848 344.90347290 547.98632812 346.93521118 561.41131592 349.16094971 C 574.78582764 351.58898926 588.17871094 353.99264526 579.01849365 477.46154785" stroke-width="1.92111230" fill="rgb(230, 244, 247)" opacity="1.0" stroke="rgb(220, 244, 248)" stroke-opacity="0.06874745" stroke-linecap="round" stroke-linejoin="round"/>
    <path d="M 68.78580475 368.90740967 C 69.52631378 370.23477173 70.28860474 371.49530029 70.95201111 372.78369141 C 71.62877655 374.08428955 72.22650146 375.31878662 72.70950317 376.58071899 C 73.09838104 377.77206421 73.37659454 378.89627075 73.49813080 379.99017334 C 73.42121887 380.95144653 73.22379303 381.80511475 72.72585297 382.55688477 C 72.04540253 383.10382080 71.13684082 383.53521729 69.97907257 383.79968262 C 68.66241455 383.93234253 67.19177246 384.02401733 65.50304413 384.00253296 C 63.76093292 384.01205444 61.89365768 384.00134277 59.93740845 383.98245239 C 57.95500565 383.99966431 55.92547989 383.96673584 53.92094803 384.00518799 C 51.90199661 383.98843384 49.96754837 383.97235107 48.09623337 384.03521729 C 46.30457306 384.02453613 44.64200974 384.00042725 43.12825394 383.97723389 C 41.80226135 383.81851196 40.61795807 383.54376221 39.71248627 383.08718872 C 39.00926590 382.47320557 38.53635406 381.66693115 38.33946228 380.72174072 C 38.27298737 379.61932373 38.46493912 378.46945190 38.79375076 377.19784546 C 39.27910614 375.86798096 39.86083603 374.51788330 40.52172089 373.13452148 C 41.36706543 371.76565552 42.20070648 370.39807129 43.12856674 369.11032104 C 44.11329651 367.85653687 45.14989853 366.67248535 46.19076920 365.61553955 C 47.31317902 364.62237549 48.39903259 363.81185913 49.59992981 363.11102295 C 50.80562592 362.57077026 52.00418472 362.16479492 53.23972321 361.87423706 C 54.52506638 361.74911499 55.71497726 361.68594360 57.01808167 361.74752808 C 58.27668762 361.77789307 59.54924011 361.84649658 68.78580475 368.90740967" stroke-width="1.13245523" fill="rgb(187, 232, 244)" opacity="1.0" stroke="rgb(212, 241, 246)" stroke-opacity="0.96695995" stroke-linecap="round" stroke-linejoin="round"/>
    <path d="M 221.65055847 393.41183472 C 220.54656982 393.52395630 219.36390686 393.55926514 218.20428467 393.61050415 C 217.02816772 393.63580322 215.78492737 393.64056396 214.52020264 393.64083862 C 213.21884155 393.62579346 211.84614563 393.66531372 210.45364380 393.70513916 C 209.00363159 393.71459961 207.55549622 393.75860596 206.01336670 393.73361206 C 204.49877930 393.69808960 202.96627808 393.71667480 201.45317078 393.72012329 C 199.93278503 393.75402832 198.48878479 393.79531860 197.12019348 393.79290771 C 195.76754761 393.78643799 194.62792969 393.67672729 193.55183411 393.44537354 C 192.69387817 393.09747314 191.98861694 392.53814697 191.51019287 391.85507202 C 191.17991638 390.99868774 191.07962036 390.05065918 191.12382507 388.95541382 C 191.36357117 387.82650757 191.74842834 386.58557129 192.27275085 385.28399658 C 192.88282776 384.01751709 193.58682251 382.67172241 194.35202026 381.31805420 C 195.17527771 380.01666260 196.00663757 378.70980835 196.88598633 377.51635742 C 197.80006409 376.36331177 198.74803162 375.33102417 199.79946899 374.54034424 C 200.91365051 373.85800171 202.05671692 373.38098145 203.28657532 373.15505981 C 204.59901428 373.03256226 205.82145691 373.06167603 207.17391968 373.21362305 C 208.42958069 373.46405029 209.72763062 373.83776855 210.93342590 374.35681152 C 212.12826538 374.97250366 213.23069763 375.76574707 214.32687378 376.59710693 C 215.31211853 377.63107300 216.28109741 378.68960571 217.22982788 379.84997559 C 218.13682556 381.02316284 219.04940796 382.25228882 219.96243286 383.49896240 C 220.89135742 384.72164917 221.81095886 385.99591064 221.65055847 393.41183472" stroke-width="1.70083296" fill="rgb(188, 232, 244)" opacity="1.0" stroke="rgb(222, 245, 249)" stroke-opacity="0.96703565" stroke-linecap="round" stroke-linejoin="round"/>
    <path d="M 419.46017456 374.50894165 C 418.28695679 374.60284424 417.17419434 374.59173584 416.02178955 374.65701294 C 414.79049683 374.70672607 413.56588745 374.67901611 412.28027344 374.71893311 C 410.95764160 374.74688721 409.55865479 374.73501587 408.17385864 374.76751709 C 406.68023682 374.78048706 405.19396973 374.82342529 403.70333862 374.85122681 C 402.14672852 374.88253784 400.60140991 374.92633057 399.14080811 374.92382812 C 397.65567017 374.93676758 396.21157837 374.90786743 394.88885498 374.89001465 C 393.62579346 374.76272583 392.50030518 374.70458984 391.51873779 374.41064453 C 390.72418213 374.05255127 390.09619141 373.55749512 389.71008301 372.91989136 C 389.50741577 372.11016846 389.51727295 371.22610474 389.69137573 370.18780518 C 390.07431030 369.10729980 390.49649048 367.92144775 391.08001709 366.66247559 C 391.71362305 365.38015747 392.37817383 364.06927490 393.06329346 362.72497559 C 393.88766479 361.46810913 394.68457031 360.19650269 395.53787231 359.06076050 C 396.48828125 358.00625610 397.47216797 357.03305054 398.45367432 356.25198364 C 399.47314453 355.55926514 400.51251221 355.01931763 401.58438110 354.77133179 C 402.64990234 354.62188721 403.77362061 354.72140503 404.86917114 354.96533203 C 405.98159790 355.36749268 407.10748291 355.87069702 408.20141602 356.44869995 C 409.28341675 357.16650391 410.34878540 357.95968628 411.34445190 358.80892944 C 412.30743408 359.76559448 413.28350830 360.78359985 414.12750244 361.86993408 C 415.01434326 362.95278931 415.86129761 364.13360596 416.70474243 365.28610229 C 417.51910400 366.43908691 418.42541504 367.63378906 419.46017456 374.50894165" stroke-width="1.13773334" fill="rgb(190, 234, 245)" opacity="1.0" stroke="rgb(206, 237, 243)" stroke-opacity="0.87726533" stroke-linecap="round" stroke-linejoin="round"/>
    <path d="M 114.95045471 415.20532227 C 115.37334442 416.13955688 115.78869629 417.01913452 116.20525360 417.88699341 C 116.55332184 418.79870605 116.89177704 419.65893555 117.15171051 420.52359009 C 117.26303864 421.33755493 117.25393677 422.13110352 117.16659546 422.85668945 C 116.86396027 423.47436523 116.39745331 424.04733276 115.80071259 424.42999268 C 114.94889069 424.73455811 113.97747040 424.88430786 112.83535767 424.94403076 C 111.56407166 424.97430420 110.16600037 424.95785522 108.67334747 424.92953491 C 107.10923767 424.88497925 105.41653442 424.91180420 103.77448273 424.87304688 C 102.00550842 424.84118652 100.28227997 424.90258789 98.59015656 424.91540527 C 96.87926483 424.91864014 95.29686737 424.97891235 93.73780823 424.96057129 C 92.31157684 424.96047974 91.01496124 424.82635498 89.82402802 424.65151978 C 88.90689087 424.31423950 88.06786346 423.80264282 87.52083588 423.18844604 C 87.18302155 422.39837646 87.01831818 421.47277832 87.06570435 420.46566772 C 87.30480194 419.35534668 87.64963531 418.16900635 88.13410950 416.93887329 C 88.75476837 415.70339966 89.37998962 414.41326904 90.15847778 413.17700195 C 90.94423676 411.94528198 91.77342224 410.77258301 92.64879608 409.64968872 C 93.54676056 408.62356567 94.44158173 407.66641235 95.39891815 406.85006714 C 96.32458496 406.17968750 97.34383392 405.68200684 98.38333130 405.37387085 C 99.43714142 405.24404907 100.54526520 405.30026245 101.68879700 405.43185425 C 102.80867767 405.64895630 104.00502014 405.92956543 105.15172577 406.20922852 C 106.38882446 406.45178223 107.56169891 406.76684570 114.95045471 415.20532227" stroke-width="1.25094473" fill="rgb(186, 232, 244)" opacity="1.0" stroke="rgb(211, 240, 246)" stroke-opacity="1.0" stroke-linecap="round" stroke-linejoin="round"/>
    <path d="M 319.56161499 431.75439453 C 317.90795898 431.86242676 316.23471069 431.87896729 314.55117798 431.92221069 C 312.87927246 431.95306396 311.17700195 431.95565796 309.46044922 431.94201660 C 307.74844360 431.91622925 306.01486206 431.94116211 304.27563477 431.92156982 C 302.56649780 431.91915894 300.79992676 431.90112305 299.10693359 431.91897583 C 297.46020508 431.93551636 295.79699707 431.93368530 294.24493408 431.99899292 C 292.81759644 431.99713135 291.41531372 431.99200439 290.21429443 431.89657593 C 289.18176270 431.67431641 288.31091309 431.30514526 287.67816162 430.76779175 C 287.24530029 430.00552368 287.05209351 429.14489746 287.02563477 428.07205200 C 287.17697144 426.95553589 287.49307251 425.66549683 287.92529297 424.36331177 C 288.47290039 422.99505615 289.15991211 421.57904053 289.89736938 420.18679810 C 290.75122070 418.76983643 291.70285034 417.42874146 292.69357300 416.13668823 C 293.78463745 414.91171265 294.91491699 413.82974243 296.14663696 412.87997437 C 297.38357544 412.02944946 298.69290161 411.38485718 300.08615112 410.95544434 C 301.44534302 410.65948486 302.84689331 410.54409790 304.26626587 410.64935303 C 305.65228271 410.85867310 307.01638794 411.26913452 308.38635254 411.76303101 C 309.65997314 412.42135620 310.97134399 413.12188721 312.14819336 413.95455933 C 313.31045532 414.87130737 314.42599487 415.81655884 315.39880371 416.86962891 C 316.29669189 418.00308228 317.13070679 419.17269897 317.83227539 420.42919922 C 318.47207642 421.77105713 319.08267212 423.10305786 319.62887573 424.44302368 C 320.20553589 425.83673096 320.75137329 427.19302368 319.56161499 431.75439453" stroke-width="1.13058472" fill="rgb(188, 232, 244)" opacity="1.0" stroke="rgb(212, 241, 246)" stroke-opacity="0.9822476" stroke-linecap="round" stroke-linejoin="round"/>
    <path d="M 270.47125244 349.28549194 C 265.72265625 347.88565063 260.91604614 346.52593994 256.18002319 345.10473633 C 251.48039246 343.66955566 246.76358032 342.24343872 242.11114502 340.72906494 C 237.67004395 339.22570801 233.26176453 337.57348633 229.05072021 335.74191284 C 225.00221252 333.81121826 221.20965576 331.74374390 217.64971924 329.48150635 C 214.40884399 326.95733643 211.50892639 324.14825439 209.24758911 320.78314209 C 207.54478455 316.76406860 206.15666199 312.27728271 204.84111023 307.37481689 C 203.48815918 302.25476074 202.25050354 296.99331665 201.24012756 291.46975708 C 200.24916077 285.82785034 199.08413696 280.16378784 197.87692261 274.56436157 C 196.86935425 269.02139282 196.36415100 263.42440796 196.36856079 257.88330078 C 197.09849548 252.52760315 198.32949829 247.23789978 199.82958984 241.83761597 C 201.41629028 236.56198120 203.29498291 231.29695129 205.60092163 226.33120728 C 208.05073547 221.27226257 210.85980225 216.54989624 213.93515015 211.82521057 C 216.90283203 207.14033508 219.79885864 202.53819275 222.80970764 198.12817383 C 226.04287720 193.99359131 229.57382202 190.35275269 233.18313599 187.10737610 C 236.84999084 184.13140869 240.60682678 181.60873413 244.43232727 179.49501038 C 248.33610535 177.94316101 252.31747437 176.78628540 256.27301025 176.19436646 C 260.16143799 176.02388000 263.95574951 176.35647583 267.72747803 177.17239380 C 271.44107056 178.49234009 274.98019409 180.30366516 278.29373169 182.55612183 C 281.49871826 185.24301147 284.51809692 188.25617981 287.24429321 191.68734741 C 289.60577393 195.50718689 291.62799072 199.62004089 293.52767944 203.82577515 C 295.92025757 207.76701355 298.57528687 211.66087341 301.34744263 215.54437256 C 303.90081787 219.65866089 305.99938965 223.96249390 308.06668091 228.50947571 C 310.14651489 233.03738403 311.77227783 237.80224609 313.19140625 242.55334473 C 314.70681763 247.22833252 315.93597412 251.97187805 316.31100464 256.86688232 C 315.94274902 261.91107178 315.20465088 267.03662109 314.38800049 272.27407837 C 313.80752563 277.61972046 313.18710327 282.94033813 312.14364624 288.10253906 C 311.53421021 293.31549072 310.65759277 298.40734863 309.18884277 303.37774658 C 307.34259033 308.46719360 305.67904663 313.43701172 303.74255371 318.36660767 C 301.16400146 322.71664429 298.25546265 326.80166626 295.34896851 330.82806396 C 292.38500977 334.87759399 289.34609985 338.93740845 270.47125244 349.28549194" stroke-width="0.69031191" fill="rgb(5, 1, 4)" opacity="1.0" stroke="rgb(0, 0, 0)" stroke-opacity="0.4865724" stroke-linecap="round" stroke-linejoin="round"/>
    <path d="M 303.41149902 306.23251343 C 302.87271118 309.41482544 301.96078491 312.54061890 300.97335815 315.74322510 C 300.36199951 319.07019043 300.12518311 322.54678345 299.60873413 326.05514526 C 298.33032227 329.52590942 296.64639282 332.95980835 294.59600830 336.32556152 C 292.09677124 339.64196777 289.32623291 342.85119629 286.30178833 345.89419556 C 283.03826904 348.56787109 279.55679321 351.07244873 275.90289307 353.26281738 C 272.02468872 355.06848145 268.06094360 356.47219849 263.97933960 357.66125488 C 259.81735229 358.38031006 255.68846130 358.87725830 251.56069946 358.96966553 C 247.44874573 358.80096436 243.47360229 358.22534180 239.57681274 357.23498535 C 235.84451294 355.92822266 232.22474670 354.19039917 228.89184570 351.97525024 C 225.75463867 349.37893677 222.89706421 346.42630005 220.37194824 343.08209229 C 218.10656738 339.40704346 216.12683105 335.49658203 214.41076660 331.38714600 C 213.17176819 327.06042480 212.34591675 322.57302856 211.62724304 318.06719971 C 210.55476379 313.67141724 209.69300842 309.34844971 209.03930664 304.88967896 C 208.18748474 300.46514893 207.80061340 296.23022461 207.67199707 291.87954712 C 207.35255432 287.56698608 207.36723328 283.34988403 207.75949097 279.27798462 C 208.53179932 275.43887329 209.44195557 271.54119873 209.94987488 267.51919556 C 210.67234802 263.42166138 211.40747070 259.32400513 212.76959229 255.24751282 C 214.29907227 251.00885010 216.06005859 246.92271423 218.06376648 242.80772400 C 220.35351562 238.85375977 222.83563232 235.15992737 225.70574951 231.71429443 C 228.69645691 228.55934143 231.84700012 225.70693970 235.20075989 223.16677856 C 238.50859070 221.02058411 242.33241272 219.69577026 246.24026489 218.68496704 C 250.15518188 217.74345398 254.05036926 217.12396240 258.05075073 217.09033203 C 262.05514526 217.56056213 265.91201782 218.59364319 269.75823975 220.00752258 C 273.62292480 221.62292480 277.32382202 223.56985474 280.75122070 225.79109192 C 283.88345337 228.40882874 286.61987305 231.36907959 289.07449341 234.65995789 C 291.66372681 237.87237549 293.99288940 241.28517151 295.76095581 245.04373169 C 297.48562622 248.93450928 299.13562012 252.94848633 300.51342773 257.16104126 C 301.61923218 261.56362915 302.73144531 266.02355957 303.77719116 270.59643555 C 304.73306274 275.27908325 305.30545044 279.97668457 305.55325317 284.68676758 C 305.55679321 289.54626465 305.63125610 294.55786133 303.41149902 306.23251343" stroke-width="0.63750976" fill="rgb(245, 244, 236)" opacity="1.0" stroke="rgb(245, 245, 242)" stroke-opacity="0.46214145" stroke-linecap="round" stroke-linejoin="round"/>
    <path d="M 273.68289185 216.40840149 C 270.34228516 216.38902283 266.94058228 216.44039917 263.57958984 216.57720947 C 260.20776367 216.63964844 256.81549072 216.57824707 253.53413391 216.36851501 C 250.23728943 216.21986389 246.93486023 215.91113281 243.70841980 215.52239990 C 240.63288879 215.15843201 237.63569641 214.73359680 234.73533630 214.08041382 C 232.03186035 213.32682800 229.57630920 212.50006104 227.29142761 211.52761841 C 225.21418762 210.31779480 223.43478394 208.95848083 222.10223389 207.48553467 C 221.17227173 205.76919556 220.58477783 203.76690674 220.34881592 201.62080383 C 220.51161194 199.31723022 220.93370056 196.80722046 221.09587097 194.15029907 C 220.79341125 191.33763123 220.05197144 188.65873718 218.80076599 186.02130127 C 217.84414673 183.26028442 217.58300781 180.32214355 217.45292664 177.24555969 C 217.35203552 174.14163208 217.54232788 171.02545166 218.06163025 167.98414612 C 218.82649231 164.98423767 219.88861084 162.08572388 221.14405823 159.24691772 C 222.34161377 156.47447205 223.74568176 153.76060486 225.24728394 151.18078613 C 226.91040039 148.86886597 228.96253967 146.69235229 230.97099304 144.74330139 C 233.20709229 142.94956970 235.69219971 141.31828308 238.31628418 140.07312012 C 240.95094299 138.96389771 243.82135010 138.10868835 246.74961853 137.35144043 C 249.54763794 136.58525085 252.30346680 136.23339844 255.21333313 136.13325500 C 258.20080566 136.14070129 261.18466187 136.44975281 263.94238281 136.84051514 C 266.76071167 137.23944092 269.51364136 138.05540466 272.11737061 139.14097595 C 274.65774536 140.32098389 277.16516113 141.51455688 279.53753662 142.98571777 C 281.64120483 144.49861145 283.61947632 146.23677063 285.37881470 148.29705811 C 287.23522949 150.23908997 288.84729004 152.45465088 290.10287476 155.03382874 C 291.39987183 157.67987061 292.75375366 160.39886475 293.87509155 163.35711670 C 294.82113647 166.46438599 295.62377930 169.58714294 295.88192749 172.79565430 C 295.71270752 175.97767639 295.35812378 179.16081238 295.05490112 182.30659485 C 294.55474854 185.21545410 293.66571045 187.74214172 292.66140747 190.14694214 C 291.89294434 192.77786255 291.59582520 195.37084961 291.51550293 197.98028564 C 291.47943115 200.71656799 291.38916016 203.45960999 291.24844360 206.28720093 C 291.00775146 209.13137817 290.75509644 211.99798584 290.46166992 214.83964539 C 290.12341309 217.77647400 289.61825562 220.67686462 273.68289185 216.40840149" stroke-width="0.67068070" fill="rgb(0, 2, 1)" opacity="1.0" stroke="rgb(0, 0, 0)" stroke-opacity="0.48192266" stroke-linecap="round" stroke-linejoin="round"/>
    <path d="M 194.04486084 332.83544922 C 193.85649109 333.27767944 193.53025818 333.72653198 193.20909119 334.02093506 C 192.81437683 334.18420410 192.38252258 334.23641968 191.85192871 334.14328003 C 191.31463623 333.65185547 190.69508362 333.01937866 190.05369568 332.12365723 C 189.27891541 330.82006836 188.43165588 329.19790649 187.58430481 327.37780762 C 186.68443298 325.23355103 185.60490417 322.76864624 184.63702393 319.96356201 C 183.61474609 316.99822998 182.46517944 313.76605225 181.22991943 310.44430542 C 180.13195801 307.06518555 179.51972961 303.35736084 179.21743774 299.55371094 C 178.99348450 295.82608032 179.04707336 292.19372559 179.53567505 288.44009399 C 180.24426270 284.77032471 181.64796448 281.53555298 183.38414001 278.14208984 C 185.19801331 274.89392090 187.07991028 271.78488159 188.94299316 268.84140015 C 190.61419678 265.98071289 192.11805725 263.35494995 193.60124207 261.16052246 C 194.88969421 259.27374268 195.60749817 257.53628540 195.81123352 255.89474487 C 196.27609253 254.78044128 196.66542053 254.09365845 196.96548462 253.85980225 C 197.33338928 254.28656006 197.65589905 255.32246399 197.96864319 256.88510132 C 198.29745483 258.91479492 198.53392029 261.38116455 198.69845581 264.21807861 C 198.69380188 267.44329834 198.57304382 270.97933960 198.29042053 274.75299072 C 197.78100586 278.71444702 197.48985291 282.90435791 197.22062683 287.32394409 C 196.50642395 291.87896729 195.78627014 296.45300293 195.21160889 300.95968628 C 195.28128052 305.52047729 195.19654846 310.13314819 194.71290588 314.66461182 C 194.75578308 319.02719116 194.75630188 323.30532837 194.04486084 332.83544922" stroke-width="0.62366027" fill="rgb(4, 2, 0)" opacity="1.0" stroke="rgb(0, 0, 0)" stroke-opacity="0.46140617" stroke-linecap="round" stroke-linejoin="round"/>
    <path d="M 326.48013306 323.72384644 C 325.87091064 325.83831787 325.05767822 327.89523315 324.01992798 329.70977783 C 322.99053955 331.31167603 321.90667725 332.67520142 321.01245117 333.74499512 C 320.19207764 334.25036621 319.41369629 334.07955933 318.89874268 333.23971558 C 318.59515381 332.11614990 318.55874634 330.49417114 318.21109009 328.40545654 C 317.71969604 325.93194580 317.63616943 323.08416748 317.65081787 319.79342651 C 317.62716675 316.12838745 317.54440308 312.16793823 317.41860962 307.98468018 C 317.47903442 303.65835571 317.35498047 299.29635620 317.21005249 294.99432373 C 316.82144165 290.70739746 316.10406494 286.57818604 315.25753784 282.63766479 C 314.57202148 278.81011963 313.89071655 275.13311768 313.40301514 271.55230713 C 313.25323486 268.20520020 313.30899048 265.12426758 313.47796631 262.25720215 C 313.74713135 259.65429688 314.08499146 257.43539429 314.45587158 255.61596680 C 314.90234375 254.14796448 315.28366089 253.01358032 315.58758545 252.36099243 C 315.75537109 252.29562378 315.93093872 252.71215820 316.04049683 253.50607300 C 316.40414429 254.60176086 317.00424194 256.19854736 317.70089722 258.01535034 C 318.81967163 259.99111938 320.21148682 262.14028931 321.65908813 264.57342529 C 323.11956787 267.21807861 324.66296387 269.97906494 326.16714478 272.96487427 C 327.84271240 275.74160767 329.34622192 278.77615356 330.80493164 281.73403931 C 332.07507324 284.64224243 332.82077026 287.70977783 333.27478027 290.76394653 C 333.45706177 293.88076782 333.39337158 297.04986572 333.16174316 300.14736938 C 333.11480713 303.23254395 333.04214478 306.28414917 326.48013306 323.72384644" stroke-width="0.67158061" fill="rgb(4, 2, 1)" opacity="1.0" stroke="rgb(0, 0, 0)" stroke-opacity="0.462702" stroke-linecap="round" stroke-linejoin="round"/>
    <path d="M 229.86936951 350.17385864 C 230.62106323 350.02371216 231.37783813 349.91546631 232.21089172 349.96826172 C 233.15264893 350.11303711 234.09474182 350.36590576 235.07090759 350.66049194 C 236.17694092 351.05178833 237.42643738 351.37435913 238.68659973 351.76681519 C 239.99803162 352.22314453 241.37753296 352.62017822 242.76148987 352.94973755 C 244.16336060 353.16598511 245.45454407 353.27859497 246.54226685 353.40185547 C 247.46623230 353.72607422 248.03797913 354.24496460 248.26879883 354.98928833 C 248.23666382 355.93762207 247.93513489 357.15258789 247.63627625 358.53268433 C 247.39758301 360.00183105 247.25865173 361.45138550 247.17543030 362.85385132 C 247.03794861 364.13635254 246.80070496 365.05938721 246.46778870 365.65414429 C 246.03350830 365.69531250 245.45614624 365.28363037 244.88975525 364.53656006 C 244.22677612 363.54043579 243.44314575 362.63693237 242.42085266 361.91479492 C 241.39776611 361.47793579 240.29042053 361.37411499 239.26129150 361.55899048 C 238.29110718 362.01870728 237.41288757 362.77761841 236.80531311 363.65170288 C 236.35337830 364.57000732 235.99043274 365.29315186 235.68933105 365.68365479 C 235.37068176 365.65286255 235.17936707 365.26690674 235.02249146 364.51318359 C 234.79429626 363.56118774 234.38786316 362.61688232 233.82083130 361.84384155 C 233.00833130 361.29696655 232.06301880 360.86947632 231.00007629 360.64749146 C 229.83712769 360.68728638 228.67938232 361.01901245 227.40281677 361.63088989 C 226.10224915 362.48614502 224.70291138 363.33306885 223.18243408 363.94067383 C 221.40756226 364.45104980 219.58976746 364.85931396 229.86936951 350.17385864" stroke-width="1.06720114" fill="rgb(243, 170, 77)" opacity="1.0" stroke="rgb(225, 182, 130)" stroke-opacity="0.9933901" stroke-linecap="round" stroke-linejoin="round"/>
    <path d="M 261.29956055 354.12997437 C 263.24218750 353.89068604 265.24618530 353.49334717 267.17272949 353.11972046 C 268.97042847 352.79690552 270.71362305 352.43051147 272.39157104 351.99832153 C 273.87951660 351.47097778 275.10247803 350.95611572 276.19732666 350.46151733 C 277.15618896 350.16458130 277.97509766 350.26242065 278.81094360 350.74124146 C 279.70541382 351.54489136 280.64141846 352.62490845 281.59857178 353.79165649 C 282.48675537 355.06170654 283.40521240 356.47698975 284.32119751 357.92303467 C 285.21090698 359.18322754 285.98922729 360.31240845 286.50494385 361.34313965 C 286.76995850 362.27987671 286.84494019 362.92657471 286.66418457 363.17443848 C 286.22915649 363.01516724 285.53018188 362.68386841 284.67895508 362.24053955 C 283.57931519 361.74893188 282.37698364 361.31546021 281.11096191 360.86874390 C 279.91152954 360.45574951 278.74951172 360.21661377 277.59033203 360.24075317 C 276.57141113 360.53244019 275.83746338 361.06304932 275.25219727 361.80453491 C 274.74984741 362.71255493 274.43249512 363.63885498 274.32818604 364.53881836 C 274.24118042 365.33230591 274.16033936 365.92016602 273.91928101 366.25219727 C 273.63742065 366.20816040 273.29721069 365.76678467 272.90676880 365.17825317 C 272.44412231 364.39282227 271.89669800 363.59680176 271.34222412 362.89004517 C 270.76391602 362.43106079 270.12774658 362.15097046 269.44833374 362.00106812 C 268.66387939 362.13845825 267.88693237 362.41000366 267.19113159 362.87857056 C 266.58267212 363.52459717 266.11972046 364.16232300 265.74923706 364.75592041 C 265.48510742 365.30020142 265.38220215 365.69076538 261.29956055 354.12997437" stroke-width="1.22197127" fill="rgb(243, 165, 72)" opacity="1.0" stroke="rgb(221, 168, 106)" stroke-opacity="0.9998206" stroke-linecap="round" stroke-linejoin="round"/>
    <path d="M 248.24652100 193.01289368 C 248.96310425 192.47557068 249.81039429 192.08415222 250.74089050 191.89982605 C 251.63447571 191.52336121 252.59529114 191.05516052 253.60758972 190.71826172 C 254.74806213 190.54498291 255.93933105 190.39505005 257.04440308 190.35256958 C 258.17141724 190.45530701 259.31402588 190.83668518 260.50787354 191.27879333 C 261.69204712 191.63676453 262.78625488 192.05041504 263.87402344 192.67454529 C 264.85443115 193.36814880 265.70315552 194.03228760 266.57394409 194.56236267 C 267.46878052 194.92155457 268.10260010 195.38221741 268.51132202 196.08398438 C 268.70306396 196.75202942 268.66207886 197.32604980 268.42739868 198.03327942 C 267.99804688 198.63508606 267.27560425 199.24816895 266.37921143 199.87748718 C 265.47271729 200.54635620 264.52743530 201.33296204 263.55572510 202.27816772 C 262.56143188 203.17755127 261.65051270 204.08474731 260.75750732 205.07144165 C 259.88320923 205.95658875 259.01525879 206.61534119 258.34509277 207.33576965 C 257.91577148 208.08824158 257.62445068 208.79899597 257.40768433 209.26429749 C 257.13494873 209.43157959 256.74731445 209.23902893 256.26986694 208.86064148 C 255.75718689 208.36563110 255.13452148 207.66378784 254.46417236 206.89172363 C 253.75814819 206.07167053 253.01405334 205.19850159 252.15541077 204.38854980 C 251.23794556 203.61631775 250.31690979 202.87446594 249.32896423 202.25555420 C 248.36590576 201.65249634 247.53695679 200.87101746 246.69236755 200.22967529 C 245.80043030 199.71903992 245.02766418 198.98410034 244.39572144 198.18527222 C 243.83654785 197.14436340 243.30433655 196.07020569 248.24652100 193.01289368" stroke-width="0.65810859" fill="rgb(249, 207, 109)" opacity="1.0" stroke="rgb(130, 102, 71)" stroke-opacity="0.71902496" stroke-linecap="round" stroke-linejoin="round"/>
    <path d="M 270.39614868 177.82701111 C 269.62020874 176.36112976 269.08135986 174.72775269 268.90957642 173.11500549 C 268.89727783 171.38264465 269.14224243 169.71040344 269.61645508 168.14266968 C 270.44140625 166.87902832 271.56106567 165.89234924 272.81372070 165.12379456 C 274.20953369 164.67884827 275.70065308 164.40948486 277.12988281 164.33802795 C 278.46221924 164.71630859 279.65991211 165.41285706 280.76385498 166.35491943 C 281.83132935 167.47659302 282.64898682 168.66105652 283.41461182 169.89907837 C 283.88360596 171.27674866 284.10519409 172.69316101 283.92471313 174.06904602 C 283.55139160 175.48359680 283.03030396 176.84431458 282.51232910 178.14860535 C 281.66571045 179.32948303 280.77142334 180.32583618 279.56832886 181.22747803 C 277.90130615 181.81419373 276.06350708 182.57562256 270.39614868 177.82701111" stroke-width="0.65628052" fill="rgb(243, 244, 244)" opacity="1.0" stroke="rgb(133, 134, 133)" stroke-opacity="0.81908345" stroke-linecap="round" stroke-linejoin="round"/>
    <path d="M 241.49165344 177.77377319 C 240.65277100 178.72888184 239.76365662 179.74645996 238.76251221 180.60827637 C 237.70899963 181.16088867 236.65586853 181.54063416 235.46879578 181.58418274 C 234.16123962 181.23162842 232.86714172 180.66169739 231.66856384 179.89416504 C 230.63368225 178.90927124 229.80619812 177.73429871 229.08908081 176.61399841 C 228.74310303 175.38990784 228.56809998 173.95504761 228.62438965 172.53240967 C 228.66807556 171.21278381 228.87603760 170.00236511 229.60340881 168.76824951 C 230.31985474 167.49185181 231.14724731 166.48147583 232.26084900 165.57690430 C 233.74897766 165.04887390 235.36280823 164.71438599 236.88330078 164.51133728 C 238.54234314 164.98890686 240.16192627 165.94587708 241.52383423 167.69572449 C 242.94491577 169.83964539 244.52531433 171.85494995 241.49165344 177.77377319" stroke-width="0.67005366" fill="rgb(251, 250, 248)" opacity="1.0" stroke="rgb(132, 132, 131)" stroke-opacity="0.8834502" stroke-linecap="round" stroke-linejoin="round"/>
    <path d="M 272.33950806 170.20669556 C 273.14822388 169.40367126 273.77227783 168.31369019 274.55050659 167.54347229 C 275.55276489 167.37237549 276.69750977 167.41581726 277.83526611 167.61561584 C 279.00787354 168.04277039 280.05895996 168.61753845 280.88186646 169.32446289 C 281.42446899 170.27290344 281.90917969 171.30326843 282.06777954 172.38414001 C 282.01077271 173.61004639 281.86575317 174.62652588 281.66156006 175.56253052 C 281.18597412 176.56628418 280.56851196 177.38754272 279.91259766 177.90858459 C 279.20947266 178.50601196 278.37313843 179.01759338 277.40057373 179.18722534 C 276.50268555 178.95948792 275.54089355 178.67536926 274.61990356 178.38613892 C 273.84436035 177.88645935 273.16775513 177.14988708 272.56842041 176.50541687 C 271.90362549 175.97517395 271.24743652 175.42930603 272.33950806 170.20669556" stroke-width="0.65427399" fill="rgb(8, 8, 7)" opacity="1.0" stroke="rgb(106, 106, 106)" stroke-opacity="0.8899349" stroke-linecap="round" stroke-linejoin="round"/>
    <path d="M 230.55204773 175.91842651 C 230.23464966 174.66363525 229.98988342 173.32144165 230.13316345 172.02659607 C 230.26361084 170.88356018 230.70819092 169.83789062 231.34083557 168.92370605 C 232.27111816 168.29846191 233.37623596 167.98606873 234.37002563 167.66195679 C 235.41639709 167.44189453 236.42021179 167.46180725 237.43547058 167.75347900 C 238.27188110 168.30693054 239.02227783 168.98765564 239.73504639 169.81204224 C 240.15444946 170.84771729 240.52949524 171.88929749 240.84954834 172.91841125 C 240.91886902 173.88963318 240.60469055 174.82969666 240.19232178 175.72039795 C 239.79077148 176.68095398 239.17941284 177.51568604 238.43069458 178.23724365 C 237.59686279 178.92045593 236.65707397 179.27703857 235.49449158 179.09405518 C 234.07798767 178.86022949 232.57443237 178.79075623 230.55204773 175.91842651" stroke-width="0.54284769" fill="rgb(4, 5, 3)" opacity="1.0" stroke="rgb(113, 112, 112)" stroke-opacity="0.7795029" stroke-linecap="round" stroke-linejoin="round"/>
  </g>
</svg>
