<?xml version="1.0" ?>
<svg xmlns="http://www.w3.org/2000/svg" version="1.1" width="512" height="512" viewBox="0 0 512 512">
  <defs/>
  <g>
    <path d="M 558.21887207 451.86099243 C 548.52600098 461.97143555 538.84381104 472.06253052 529.07086182 482.07229614 C 519.11181641 491.96908569 508.71878052 501.55639648 497.80999756 510.70251465 C 486.14743042 519.29016113 473.89071655 527.28515625 460.86022949 534.53900146 C 447.03939819 541.08508301 432.54248047 546.70623779 417.54364014 551.70104980 C 401.92639160 555.75836182 386.00701904 559.07873535 369.68908691 561.64343262 C 353.18402100 563.63372803 336.49752808 565.07812500 319.77822876 566.21185303 C 303.01843262 567.03668213 286.41555786 567.59820557 269.71426392 568.09771729 C 253.16282654 568.37561035 236.74250793 568.47814941 220.21119690 568.58691406 C 203.79176331 568.58398438 187.21322632 568.46215820 170.59979248 568.08618164 C 153.86479187 567.28454590 137.15103149 565.94927979 120.43427277 563.99267578 C 103.79267120 561.17840576 87.46107483 557.32885742 71.44532013 552.41778564 C 56.04285812 546.26251221 41.28795624 538.76922607 27.43886375 529.99890137 C 14.46714592 519.95745850 2.65058303 508.81900024 -7.87184381 496.73965454 C -16.96844292 483.62316895 -24.43239021 469.77862549 -30.31582642 455.48306274 C -34.54851151 440.86859131 -36.98071671 426.45288086 -37.66267776 412.48767090 C -36.54058838 399.33227539 -33.62080383 387.11248779 -28.97136497 376.25650024 C -22.58290863 366.67111206 -14.43036270 358.59088135 -4.66531134 352.03384399 C 6.65344000 346.86270142 19.36673546 343.20056152 33.25057602 340.97421265 C 48.17985535 339.87945557 63.96476746 339.57318115 80.48242188 339.57861328 C 97.50478363 339.85330200 114.85765076 340.22741699 132.52140808 340.50842285 C 150.33596802 340.69357300 168.11874390 340.71722412 185.79893494 340.65618896 C 203.30822754 340.63180542 220.56883240 340.68237305 237.70065308 340.82904053 C 254.67517090 340.84707642 271.51284790 340.75567627 288.27557373 340.57290649 C 305.07299805 340.49105835 321.89236450 340.41885376 338.75067139 340.48904419 C 355.69479370 340.47549438 372.58181763 340.39572144 389.41189575 340.11599731 C 406.03244019 339.72009277 422.33370972 339.46664429 438.16696167 339.70803833 C 453.44766235 340.53500366 467.92761230 342.18151855 481.56002808 344.82073975 C 494.22940063 348.67102051 506.03045654 353.72155762 517.35870361 359.92996216 C 527.93505859 366.99810791 538.18957520 374.89361572 548.13696289 383.27276611 C 558.04516602 391.86965942 567.90759277 400.63882446 558.21887207 451.86099243" stroke-width="1.81470764" fill="rgb(234, 246, 245)" opacity="1.0" stroke="rgb(227, 249, 251)" stroke-opacity="0.11427574" stroke-linecap="round" stroke-linejoin="round"/>
    <path d="M 66.11962891 366.06738281 C 67.24573517 367.40081787 68.27494812 368.80374146 69.37056732 370.17172241 C 70.29591370 371.62048340 71.20482635 373.04516602 71.96549225 374.45916748 C 72.59349060 375.84365845 73.04640198 377.26513672 73.38702393 378.49588013 C 73.38562012 379.74523926 73.26096344 380.80841064 72.86563110 381.76165771 C 72.14306641 382.57473755 71.28032684 383.17312622 70.07064056 383.64517212 C 68.73506165 383.92181396 67.22489166 384.09844971 65.42617035 384.13836670 C 63.67543030 384.16464233 61.74882889 384.15808105 59.70936966 384.12985229 C 57.71559143 384.13427734 55.64928055 384.18389893 53.60345078 384.10388184 C 51.64739227 384.19866943 49.68680954 384.25277710 47.85461044 384.21997070 C 46.12424850 384.25167847 44.48516846 384.21127319 43.09672165 384.08367920 C 41.73750305 383.89028931 40.66226959 383.55172729 39.73055649 383.07971191 C 39.09335327 382.45034790 38.55271149 381.70584106 38.29413605 380.70043945 C 38.18387985 379.68026733 38.36475372 378.49044800 38.64216995 377.16748047 C 39.09938812 375.77700806 39.70339966 374.37908936 40.46762085 372.84963989 C 41.23239517 371.37139893 42.25019836 369.94381714 43.29627609 368.48150635 C 44.41359711 367.16232300 45.65129852 365.91601562 46.94638443 364.79641724 C 48.28568268 363.83041382 49.71843719 363.08511353 51.13032913 362.45431519 C 52.61107635 362.09225464 54.11812973 361.88757324 55.53196335 361.80899048 C 57.04161072 362.00164795 58.53535461 362.20205688 59.94661331 362.57037354 C 61.35351181 362.91619873 62.85564804 363.30923462 66.11962891 366.06738281" stroke-width="1.18021441" fill="rgb(191, 233, 241)" opacity="1.0" stroke="rgb(179, 239, 250)" stroke-opacity="0.2857318" stroke-linecap="round" stroke-linejoin="round"/>
    <path d="M 222.13267517 393.07138062 C 221.24716187 393.19418335 220.41059875 393.25115967 219.50930786 393.36285400 C 218.52027893 393.44909668 217.56033325 393.48461914 216.39869690 393.56686401 C 215.23307800 393.56500244 213.90751648 393.59841919 212.56727600 393.63482666 C 211.09219360 393.61962891 209.51860046 393.67938232 207.97358704 393.72207642 C 206.29495239 393.68325806 204.68391418 393.71069336 203.01284790 393.73629761 C 201.31611633 393.75128174 199.74957275 393.74194336 198.19989014 393.76574707 C 196.75926208 393.63223267 195.38998413 393.43099976 194.29081726 393.15844727 C 193.22831726 392.64303589 192.46745300 392.08062744 191.87225342 391.26593018 C 191.48957825 390.42025757 191.37245178 389.42593384 191.41406250 388.27084351 C 191.67106628 387.13674927 192.04435730 385.85693359 192.56822205 384.58013916 C 193.20266724 383.35119629 193.87461853 382.00930786 194.59161377 380.71655273 C 195.46606445 379.49496460 196.21412659 378.26242065 197.14085388 377.18151855 C 198.04899597 376.10601807 199.03594971 375.21667480 200.06292725 374.44735718 C 201.19775391 373.77432251 202.33274841 373.32070923 203.58169556 373.02914429 C 204.87657166 372.90896606 206.12341309 372.91842651 207.47598267 373.20611572 C 208.78193665 373.53994751 210.07806396 374.07827759 211.36740112 374.72979736 C 212.62297058 375.54034424 213.77117920 376.39923096 214.94377136 377.47055054 C 216.00743103 378.54278564 217.01988220 379.71896362 217.98229980 380.95620728 C 218.88385010 382.27679443 219.71095276 383.53253174 220.53836060 384.89123535 C 221.28898621 386.29806519 222.02316284 387.59231567 222.13267517 393.07138062" stroke-width="1.77786183" fill="rgb(186, 235, 242)" opacity="1.0" stroke="rgb(206, 247, 255)" stroke-opacity="0.35287964" stroke-linecap="round" stroke-linejoin="round"/>
    <path d="M 420.26083374 374.62057495 C 419.39581299 374.80447388 418.47412109 374.88079834 417.56854248 375.00375366 C 416.55130005 375.10552979 415.53033447 375.14346313 414.33456421 375.16345215 C 413.14862061 375.22097778 411.77456665 375.22836304 410.33380127 375.26367188 C 408.76358032 375.28860474 407.21914673 375.28326416 405.48114014 375.32720947 C 403.82418823 375.35000610 402.07901001 375.36611938 400.37631226 375.37353516 C 398.70159912 375.34295654 397.07235718 375.36538696 395.50433350 375.29742432 C 394.12222290 375.14062500 392.80688477 374.93206787 391.68063354 374.64804077 C 390.81634521 374.12500000 390.04418945 373.59133911 389.50155640 372.80557251 C 389.34738159 371.91497803 389.22189331 370.92272949 389.35821533 369.78753662 C 389.70718384 368.61468506 390.11798096 367.32293701 390.72161865 365.98452759 C 391.35070801 364.67858887 392.08132935 363.28558350 392.92297363 361.98263550 C 393.72851562 360.70599365 394.64385986 359.43206787 395.61199951 358.33847046 C 396.59753418 357.26245117 397.58044434 356.35836792 398.65066528 355.62066650 C 399.71710205 354.94815063 400.85089111 354.60443115 401.99737549 354.35003662 C 403.16903687 354.32083130 404.39385986 354.48864746 405.55303955 354.78179932 C 406.78100586 355.21783447 407.91879272 355.81207275 409.04162598 356.47418213 C 410.21951294 357.29421997 411.26037598 358.15783691 412.29614258 359.13253784 C 413.37387085 360.18106079 414.24444580 361.27770996 415.16870117 362.41586304 C 416.06292725 363.66152954 416.85339355 364.85952759 417.66342163 366.09387207 C 418.47598267 367.39843750 419.22555542 368.60806274 420.26083374 374.62057495" stroke-width="1.36648655" fill="rgb(192, 234, 244)" opacity="1.0" stroke="rgb(158, 239, 255)" stroke-opacity="0.15380086" stroke-linecap="round" stroke-linejoin="round"/>
    <path d="M 112.52631378 411.84371948 C 113.29264832 413.00314331 114.09900665 414.06124878 114.87030792 415.22204590 C 115.50627899 416.37414551 116.12215424 417.49853516 116.64601135 418.58673096 C 117.05229187 419.74856567 117.22580719 420.73266602 117.28298950 421.70132446 C 117.13710022 422.61807251 116.71243286 423.33483887 116.14406586 424.01354980 C 115.33390808 424.45892334 114.28652191 424.86264038 113.14540863 425.05538940 C 111.79116821 425.16793823 110.29265594 425.23333740 108.79467010 425.20715332 C 107.17639160 425.19967651 105.44951630 425.20211792 103.75675201 425.17535400 C 102.00872803 425.19653320 100.32447052 425.17312622 98.54589081 425.21005249 C 96.92634583 425.22503662 95.32117462 425.23937988 93.81261444 425.21368408 C 92.41291809 425.17666626 91.13249969 424.99819946 89.98724365 424.77114868 C 89.03418732 424.39007568 88.25270844 423.88775635 87.60215759 423.23712158 C 87.24690247 422.44857788 87.04238892 421.57394409 86.98224640 420.48434448 C 87.14991760 419.37939453 87.49210358 418.12927246 87.95030975 416.87646484 C 88.53800201 415.53515625 89.22445679 414.15554810 90.05468750 412.81579590 C 90.87631989 411.53268433 91.86968994 410.25860596 92.81683350 409.07897949 C 93.87818909 408.03369141 94.96751404 407.14306641 96.12256622 406.34326172 C 97.31089783 405.74392700 98.56269836 405.42623901 99.82305145 405.22427368 C 101.10727692 405.22665405 102.45397949 405.42767334 103.71726990 405.76199341 C 104.99111176 406.16717529 106.27909088 406.74160767 107.51500702 407.33163452 C 108.76070404 407.94775391 109.98243713 408.61264038 112.52631378 411.84371948" stroke-width="1.11462474" fill="rgb(186, 234, 244)" opacity="1.0" stroke="rgb(168, 237, 246)" stroke-opacity="0.2763194" stroke-linecap="round" stroke-linejoin="round"/>
    <path d="M 319.74816895 431.94970703 C 318.37008667 432.03021240 317.07144165 432.11999512 315.69857788 432.17874146 C 314.25064087 432.24029541 312.78933716 432.22839355 311.30493164 432.24310303 C 309.65664673 432.24246216 308.05139160 432.17904663 306.31472778 432.19631958 C 304.56384277 432.13992310 302.77560425 432.15341187 300.97393799 432.13922119 C 299.16271973 432.20919800 297.38287354 432.13088989 295.64895630 432.23486328 C 294.00329590 432.20208740 292.46011353 432.16040039 291.02743530 431.97592163 C 289.80291748 431.69308472 288.78085327 431.19046021 287.94363403 430.59072876 C 287.37481689 429.72430420 287.04226685 428.78894043 286.99560547 427.65066528 C 287.07901001 426.46435547 287.45785522 425.07101440 287.83786011 423.72375488 C 288.49044800 422.36651611 289.19717407 420.86282349 289.98086548 419.38864136 C 290.89288330 418.06396484 291.80609131 416.66711426 292.84484863 415.42965698 C 293.91772461 414.25869751 295.06445312 413.25143433 296.29983521 412.36889648 C 297.56903076 411.62478638 298.88641357 411.11264038 300.33386230 410.68145752 C 301.70095825 410.45596313 303.14788818 410.40194702 304.63952637 410.46768188 C 306.06976318 410.77331543 307.52761841 411.17068481 308.97738647 411.69744873 C 310.32736206 412.40039062 311.72418213 413.20489502 312.94168091 414.09829712 C 314.18984985 415.20733643 315.30102539 416.36621094 316.26962280 417.53619385 C 317.25393677 418.91412354 317.98764038 420.25354004 318.74887085 421.68515015 C 319.35247803 423.13760376 319.94503784 424.62445068 320.48013306 426.09887695 C 321.01193237 427.58114624 321.53906250 429.06231689 319.74816895 431.94970703" stroke-width="1.34881353" fill="rgb(187, 234, 243)" opacity="1.0" stroke="rgb(197, 245, 255)" stroke-opacity="0.33606002" stroke-linecap="round" stroke-linejoin="round"/>
    <path d="M 276.30368042 342.94696045 C 270.91195679 342.37466431 265.59094238 341.82958984 260.22677612 341.32421875 C 254.89402771 340.65466309 249.68569946 340.06875610 244.58372498 339.19851685 C 239.49967957 338.31060791 234.64109802 337.17514038 229.97705078 335.75256348 C 225.55145264 334.03152466 221.38882446 332.07351685 217.56387329 329.75051880 C 214.22140503 327.02401733 211.22866821 323.87933350 208.98329163 320.08026123 C 207.27467346 315.65832520 205.73095703 310.86276245 204.32606506 305.75946045 C 203.15026855 300.44482422 201.84904480 294.95785522 200.86997986 289.37341309 C 199.69897461 283.83358765 198.58523560 278.29907227 197.54553223 272.84667969 C 196.92523193 267.48117065 196.61279297 262.15921021 196.79228210 256.98367310 C 197.40429688 251.92880249 198.36091614 246.87629700 199.73782349 241.84579468 C 201.31341553 236.90818787 203.17077637 232.02896118 205.26347351 227.16015625 C 207.60401917 222.25682068 210.28390503 217.53646851 213.25723267 212.87474060 C 216.27746582 208.13810730 219.36741638 203.44850159 222.55465698 198.83206177 C 225.93357849 194.32247925 229.39038086 190.16799927 233.10040283 186.11602783 C 236.92791748 182.51417542 240.79779053 179.31298828 244.78459167 176.49822998 C 248.81983948 174.25885010 252.87211609 172.52404785 256.91256714 171.33784485 C 260.79983521 170.81214905 264.58038330 170.95596313 268.24200439 171.59712219 C 271.71633911 172.90830994 274.99816895 174.83410645 278.04052734 177.33792114 C 280.97274780 180.39523315 283.61398315 183.94380188 286.07949829 187.87419128 C 288.34295654 192.13516235 290.45541382 196.61514282 292.48251343 201.24679565 C 294.66085815 205.80255127 297.36846924 210.09747314 300.38378906 214.19909668 C 303.26577759 218.53303528 305.66546631 223.12850952 307.79794312 227.89227295 C 309.93319702 232.76234436 311.72860718 237.61859131 313.33581543 242.70962524 C 314.76770020 247.70869446 315.81585693 252.77604675 316.20837402 257.91888428 C 315.91250610 263.21804810 315.17703247 268.51849365 314.32812500 273.97167969 C 313.50195312 279.48037720 312.67480469 284.94149780 311.86065674 290.29486084 C 311.12927246 295.65585327 310.01422119 300.73648071 308.41806030 305.60464478 C 306.85107422 310.43142700 305.12365723 315.07937622 302.97003174 319.52343750 C 300.29119873 323.76513672 297.45217896 328.07843018 294.58935547 332.40386963 C 291.80126953 336.72729492 289.05831909 341.11114502 276.30368042 342.94696045" stroke-width="0.74219990" fill="rgb(2, 0, 2)" opacity="1.0" stroke="rgb(0, 0, 0)" stroke-opacity="0.5042167" stroke-linecap="round" stroke-linejoin="round"/>
    <path d="M 303.88433838 303.76797485 C 303.22665405 307.45275879 302.29046631 311.20205688 301.23724365 314.89248657 C 300.55410767 318.69259644 300.07833862 322.53765869 299.36123657 326.41567993 C 298.04345703 330.25180054 296.13763428 334.00643921 293.89465332 337.73632812 C 291.41564941 341.41030884 288.69564819 344.95498657 285.75048828 348.29180908 C 282.70104980 351.50991821 279.41906738 354.33609009 275.90484619 356.80206299 C 272.19024658 358.99301147 268.44329834 360.63153076 264.48968506 361.95660400 C 260.43350220 362.87442017 256.41607666 363.23690796 252.32275391 363.24917603 C 248.21450806 362.77410889 244.12297058 361.81478882 240.14157104 360.34561157 C 236.30155945 358.56814575 232.73866272 356.25076294 229.29406738 353.69854736 C 226.09204102 350.79202271 223.23823547 347.46841431 220.64044189 343.87515259 C 218.21914673 340.12973022 216.22602844 336.06329346 214.55270386 331.76745605 C 213.27186584 327.24673462 212.38243103 322.58938599 211.59236145 317.89636230 C 210.54557800 313.25390625 209.52139282 308.55313110 208.83804321 303.94851685 C 208.24511719 299.43206787 207.83782959 294.85287476 207.55928040 290.46676636 C 207.36578369 286.24804688 207.48411560 282.10974121 208.03283691 278.06515503 C 208.84983826 274.09524536 209.65365601 270.18621826 210.28379822 266.18652344 C 210.93215942 262.28350830 211.79714966 258.38616943 212.96058655 254.63897705 C 214.36090088 250.88021851 215.94046021 247.25851440 217.71823120 243.66333008 C 219.67120361 240.11508179 221.77577209 236.63810730 224.28337097 233.43016052 C 227.01136780 230.23918152 230.00027466 227.29077148 233.15930176 224.62231445 C 236.54083252 222.22952271 240.28775024 220.42483521 244.37570190 219.16979980 C 248.53503418 218.06965637 252.79980469 217.23449707 257.18914795 216.94331360 C 261.49322510 217.43812561 265.74996948 218.54345703 269.91796875 220.07136536 C 274.14593506 221.89793396 278.03311157 224.03250122 281.57489014 226.55668640 C 284.95028687 229.48269653 287.80148315 232.82630920 290.44885254 236.41537476 C 293.05133057 239.95852661 295.20895386 243.83053589 296.99560547 247.96151733 C 298.75946045 251.98863220 300.22433472 256.15100098 301.33074951 260.62628174 C 302.46377563 264.96023560 303.47735596 269.26248169 304.37048340 273.67089844 C 305.16259766 277.98992920 305.50634766 282.29522705 305.52371216 286.57171631 C 305.42465210 290.98605347 305.37521362 295.37460327 303.88433838 303.76797485" stroke-width="0.62049353" fill="rgb(244, 244, 235)" opacity="1.0" stroke="rgb(246, 246, 245)" stroke-opacity="0.47196445" stroke-linecap="round" stroke-linejoin="round"/>
    <path d="M 274.31018066 216.27005005 C 271.19613647 216.34518433 267.99731445 216.37030029 264.88931274 216.42100525 C 261.73605347 216.47062683 258.58514404 216.52391052 255.41644287 216.51554871 C 252.25334167 216.50675964 249.15332031 216.58363342 246.03018188 216.60757446 C 242.99038696 216.49057007 239.92294312 216.34703064 237.01826477 216.01296997 C 234.21607971 215.48484802 231.51339722 214.61402893 229.05348206 213.60005188 C 226.83564758 212.35758972 224.87661743 210.82734680 223.21545410 208.97525024 C 221.87083435 206.96095276 220.91921997 204.75149536 220.43965149 202.30805969 C 220.46937561 199.72100830 220.80718994 197.06927490 221.02189636 194.37974548 C 220.75248718 191.68061829 220.05734253 188.95938110 218.98066711 186.24748230 C 218.12382507 183.36926270 217.61447144 180.48828125 217.46943665 177.39738464 C 217.38189697 174.20417786 217.48822021 171.05902100 218.05239868 167.93640137 C 218.89135742 164.84381104 220.00392151 161.88696289 221.25935364 158.95086670 C 222.56857300 156.05252075 224.05516052 153.35279846 225.59602356 150.71037292 C 227.34620667 148.34188843 229.32809448 146.21113586 231.42630005 144.33206177 C 233.74168396 142.68470764 236.13917542 141.20478821 238.53605652 140.01878357 C 241.09466553 138.93920898 243.68699646 138.08683777 246.26664734 137.35346985 C 248.88223267 136.73710632 251.45188904 136.34976196 254.09147644 136.23252869 C 256.78439331 136.14094543 259.50021362 136.27378845 262.24145508 136.65664673 C 265.02566528 137.03776550 267.75000000 137.63829041 270.45971680 138.47845459 C 273.24542236 139.59136963 275.98699951 140.80021667 278.56994629 142.29907227 C 280.96813965 143.95051575 283.18246460 145.87170410 285.26916504 148.02084351 C 287.14987183 150.22994995 288.93511963 152.63888550 290.34594727 155.29293823 C 291.65704346 158.14474487 292.96069336 160.95097351 294.00476074 163.85223389 C 294.86892700 166.89204407 295.59020996 169.93194580 295.81198120 172.99781799 C 295.73913574 176.05393982 295.48602295 179.12532043 295.03424072 182.10778809 C 294.49633789 185.01345825 293.54583740 187.68412781 292.63723755 190.29478455 C 291.95391846 193.05162048 291.59246826 195.78617859 291.17132568 198.59004211 C 290.32693481 201.29611206 289.00720215 203.97122192 287.43136597 206.60974121 C 285.65179443 209.16738892 283.74401855 211.77239990 281.67227173 214.25750732 C 279.66577148 216.82916260 277.53671265 219.31791687 274.31018066 216.27005005" stroke-width="0.67640245" fill="rgb(3, 3, 4)" opacity="1.0" stroke="rgb(0, 0, 0)" stroke-opacity="0.48960546" stroke-linecap="round" stroke-linejoin="round"/>
    <path d="M 194.36898804 333.41711426 C 193.34474182 333.79376221 192.88726807 334.32244873 193.16178894 335.07171631 C 193.63420105 335.81011963 194.20666504 336.25091553 194.95370483 337.00332642 C 195.35070801 337.57400513 195.16012573 337.77734375 194.73768616 337.10739136 C 193.89208984 335.96026611 192.23570251 334.48663330 190.21026611 332.52517700 C 188.38534546 329.86346436 186.71850586 326.28201294 185.29379272 322.29431152 C 183.69348145 318.36929321 182.21737671 314.27264404 180.80247498 310.13833618 C 179.56501770 306.33511353 179.03971863 302.38549805 178.82937622 298.61737061 C 178.76167297 295.09124756 178.82460022 291.67333984 179.35836792 288.30566406 C 179.93592834 285.27062988 181.14433289 282.08413696 182.58299255 279.12313843 C 184.17803955 275.85479736 186.23193359 272.71701050 188.45951843 269.27725220 C 190.61019897 265.68029785 192.52293396 262.12161255 194.53724670 259.11178589 C 195.60128784 256.24609375 196.21524048 253.80786133 196.98423767 252.11001587 C 197.94409180 251.20468140 198.74528503 251.07012939 199.36283875 251.45451355 C 199.73071289 252.53819275 199.81860352 254.31181335 199.88893127 256.69772339 C 199.91598511 259.54885864 199.78471375 262.86807251 199.42376709 266.41839600 C 198.84837341 270.12585449 198.42260742 274.02893066 197.97525024 277.86193848 C 197.77737427 281.62701416 197.75518799 285.35052490 197.29292297 289.04696655 C 196.63087463 292.71356201 196.23060608 296.32983398 195.68147278 300.00195312 C 195.37510681 303.48718262 195.51039124 307.16040039 195.33691406 310.85342407 C 195.11302185 314.44869995 195.39926147 318.07467651 194.36898804 333.41711426" stroke-width="0.00000000" fill="rgb(6, 4, 3)" opacity="1.0" stroke="rgb(54, 50, 52)" stroke-opacity="1.0" stroke-linecap="round" stroke-linejoin="round"/>
    <path d="M 330.23886108 313.06356812 C 328.92294312 316.85754395 327.59033203 320.60665894 326.38949585 324.24014282 C 325.23013306 327.47482300 323.76983643 330.21804810 322.33923340 332.30572510 C 321.13162231 333.70510864 320.02990723 334.24185181 319.15655518 333.74609375 C 318.63262939 332.42834473 318.36300659 330.32894897 318.09906006 327.57495117 C 317.84585571 324.47402954 317.70034790 321.01760864 317.66516113 317.29852295 C 317.49697876 313.41079712 317.41815186 309.43066406 317.49114990 305.37414551 C 317.51034546 301.36917114 317.28216553 297.37191772 316.99737549 293.47058105 C 316.60531616 289.72219849 316.05920410 286.04067993 315.33135986 282.54898071 C 314.65444946 279.11437988 314.04498291 275.64907837 313.46957397 272.43283081 C 312.75314331 269.27612305 312.12283325 266.33499146 311.72766113 263.38485718 C 311.55114746 260.65722656 311.50228882 258.07690430 311.56457520 255.76051331 C 311.84240723 253.86634827 312.39859009 252.43711853 313.04205322 251.31745911 C 313.85440063 250.80776978 314.65689087 250.85494995 315.31219482 251.57240295 C 315.86132812 253.00393677 316.50192261 254.91677856 317.33139038 257.02740479 C 318.52246094 259.46115112 320.00735474 261.98233032 321.60293579 264.75384521 C 323.16699219 267.76782227 324.84927368 270.81484985 326.70559692 273.86535645 C 328.46792603 277.01776123 329.97863770 280.11309814 331.43286133 283.10308838 C 332.49481201 286.13433838 333.16854858 289.05853271 333.42843628 291.99783325 C 333.40316772 294.97012329 333.29376221 297.88644409 333.05316162 300.79745483 C 332.84240723 303.72946167 332.60839844 306.63470459 330.23886108 313.06356812" stroke-width="0.69784695" fill="rgb(4, 1, 5)" opacity="1.0" stroke="rgb(0, 0, 0)" stroke-opacity="0.5179526" stroke-linecap="round" stroke-linejoin="round"/>
    <path d="M 226.88569641 354.41140747 C 227.40637207 353.60519409 227.96278381 352.64471436 228.53329468 351.78961182 C 229.11421204 350.94531250 229.76281738 350.32681274 230.61801147 349.91491699 C 231.61331177 349.78112793 232.76754761 349.99862671 234.15040588 350.30303955 C 235.61639404 350.81411743 237.19984436 351.32223511 238.86921692 351.88510132 C 240.56370544 352.38302612 242.28471375 352.72280884 243.86856079 353.03283691 C 245.33598328 353.22781372 246.58786011 353.55654907 247.45756531 354.09146118 C 247.93530273 354.83840942 248.05337524 356.06188965 247.85356140 357.31454468 C 247.70495605 358.79385376 247.43974304 360.37832642 247.30938721 361.91604614 C 247.16976929 363.32836914 246.98573303 364.56860352 246.71855164 365.34948730 C 246.26234436 365.74005127 245.72143555 365.53680420 245.15461731 364.92828369 C 244.38772583 364.00000000 243.61914062 363.00192261 242.70521545 362.14685059 C 241.57960510 361.55752563 240.46981812 361.40905762 239.35827637 361.63046265 C 238.30474854 362.13943481 237.49011230 362.97088623 236.77578735 363.78332520 C 236.10473633 364.32040405 235.59704590 364.50225830 234.98962402 364.11660767 C 234.44267273 363.23455811 233.80691528 362.30868530 232.84725952 361.53564453 C 231.82960510 361.00064087 230.51828003 360.91278076 229.31814575 361.08093262 C 228.05894470 361.47247314 227.06455994 361.96008301 226.10914612 362.49603271 C 225.24580383 363.04769897 224.54937744 363.47219849 223.84533691 363.67340088 C 223.16125488 363.75790405 222.56347656 363.74853516 221.97300720 363.71597290 C 221.39732361 363.80197144 220.91940308 363.90411377 226.88569641 354.41140747" stroke-width="1.01948583" fill="rgb(244, 172, 76)" opacity="1.0" stroke="rgb(228, 184, 133)" stroke-opacity="0.98055094" stroke-linecap="round" stroke-linejoin="round"/>
    <path d="M 260.51391602 353.89379883 C 262.12637329 353.61477661 263.77856445 353.51116943 265.38525391 353.27621460 C 266.95614624 352.98233032 268.59042358 352.67855835 270.12487793 352.29791260 C 271.62399292 351.85824585 273.06988525 351.36849976 274.40435791 350.83587646 C 275.62582397 350.33139038 276.71945190 349.97583008 277.79156494 349.92825317 C 278.68460083 350.39971924 279.58569336 351.12152100 280.47610474 352.14245605 C 281.43685913 353.31460571 282.43692017 354.55978394 283.47155762 355.89718628 C 284.38806152 357.32080078 285.28598022 358.72149658 286.04461670 360.13037109 C 286.67874146 361.36331177 287.06854248 362.48593140 287.32556152 363.26922607 C 287.19454956 363.74182129 286.90167236 363.81448364 286.25958252 363.59976196 C 285.34704590 362.98205566 284.20742798 362.37731934 282.93750000 361.67541504 C 281.47372437 361.15139771 280.07272339 360.73632812 278.59637451 360.56927490 C 277.32788086 360.67868042 276.34747314 361.23645020 275.53466797 362.06842041 C 274.99984741 363.24493408 274.73336792 364.34991455 274.52252197 365.26065063 C 274.15286255 365.84197998 273.66714478 365.94345093 273.09735107 365.66220093 C 272.39703369 365.00689697 271.64123535 364.16400146 270.74182129 363.50051880 C 269.75067139 363.08563232 268.66345215 363.09292603 267.72488403 363.41500854 C 266.79583740 363.88900757 266.02462769 364.40234375 265.25500488 364.61096191 C 264.68099976 364.31039429 264.20242310 363.55145264 263.92535400 362.45346069 C 263.50790405 361.21771240 263.10073853 359.75753784 262.63845825 358.28814697 C 262.08700562 356.78170776 261.54327393 355.26153564 260.51391602 353.89379883" stroke-width="1.03585899" fill="rgb(244, 162, 73)" opacity="1.0" stroke="rgb(214, 156, 79)" stroke-opacity="0.7625955" stroke-linecap="round" stroke-linejoin="round"/>
    <path d="M 247.89778137 193.12641907 C 248.68580627 192.71067810 249.48988342 192.27168274 250.42239380 191.96075439 C 251.27096558 191.72673035 252.10769653 191.32336426 252.97360229 190.90690613 C 253.85644531 190.66683960 254.79699707 190.45413208 255.81369019 190.38874817 C 256.80059814 190.33743286 257.90289307 190.46937561 259.01892090 190.72648621 C 260.10113525 191.11407471 261.25701904 191.51724243 262.43246460 191.88905334 C 263.51306152 192.40715027 264.65051270 193.02886963 265.55981445 193.77656555 C 266.50201416 194.39842224 267.35894775 194.92219543 268.09646606 195.43778992 C 268.46493530 196.10169983 268.72839355 196.80531311 268.67974854 197.50187683 C 268.40902710 198.14697266 267.88076782 198.76350403 267.08425903 199.29826355 C 266.22238159 200.01495361 265.25335693 200.80328369 264.25616455 201.60517883 C 263.21609497 202.62330627 262.16293335 203.63787842 261.15704346 204.61799622 C 260.05133057 205.58389282 259.14138794 206.53967285 258.39453125 207.43580627 C 257.84609985 208.33624268 257.38647461 208.98075867 256.91000366 209.28533936 C 256.48791504 209.15905762 256.02688599 208.73196411 255.42524719 208.01301575 C 254.74594116 207.12370300 253.87277222 206.18434143 252.91560364 205.19616699 C 251.88792419 204.26606750 250.80555725 203.39321899 249.71740723 202.51704407 C 248.67591858 201.77066040 247.67282104 201.08993530 246.75933838 200.29772949 C 245.96685791 199.75778198 245.27146912 199.21333313 244.70867920 198.71520996 C 244.36456299 198.17945862 244.09858704 197.68128967 244.00793457 197.06932068 C 244.00068665 196.46676636 243.91844177 195.68725586 247.89778137 193.12641907" stroke-width="0.68140310" fill="rgb(249, 207, 110)" opacity="1.0" stroke="rgb(131, 102, 74)" stroke-opacity="0.7693462" stroke-linecap="round" stroke-linejoin="round"/>
    <path d="M 270.52032471 177.80868530 C 269.84597778 176.49053955 269.32138062 175.25956726 268.93319702 173.93063354 C 268.85211182 172.45837402 268.90039062 170.97573853 269.23367310 169.44648743 C 269.68252563 168.04507446 270.47903442 166.85183716 271.67098999 165.78446960 C 272.93984985 165.03448486 274.37152100 164.62440491 275.95181274 164.38212585 C 277.48229980 164.53665161 278.95883179 165.11656189 280.16720581 165.93043518 C 281.36843872 167.05714417 282.40875244 168.26260376 283.19641113 169.68194580 C 283.72824097 171.09335327 283.94238281 172.57292175 283.97421265 174.01634216 C 283.65713501 175.51856995 283.12982178 176.85188293 282.52142334 178.14474487 C 281.65933228 179.30751038 280.63745117 180.35964966 279.44982910 181.07258606 C 277.99649048 181.92846680 276.46850586 182.76065063 270.52032471 177.80868530" stroke-width="0.63823378" fill="rgb(250, 244, 249)" opacity="1.0" stroke="rgb(148, 147, 148)" stroke-opacity="0.86234206" stroke-linecap="round" stroke-linejoin="round"/>
    <path d="M 242.94644165 175.33050537 C 242.01918030 176.82777405 241.10125732 178.27850342 240.07914734 179.50459290 C 238.91123962 180.55915833 237.60957336 181.24826050 236.22496033 181.57000732 C 234.97669983 181.45033264 233.61813354 180.92146301 232.21502686 180.22427368 C 230.98141479 179.25192261 229.94309998 178.09957886 229.14114380 176.57856750 C 228.75062561 174.94367981 228.50578308 173.26171875 228.50216675 171.55053711 C 229.01190186 169.94920349 229.80427551 168.48515320 230.66421509 167.16343689 C 231.60256958 166.12371826 232.66375732 165.42953491 234.00674438 165.02200317 C 235.27685547 164.61528015 236.62673950 164.42971802 237.83596802 164.73738098 C 239.17198181 165.34927368 240.30590820 166.31707764 241.46713257 167.66731262 C 242.66781616 169.14721680 243.85490417 170.53913879 242.94644165 175.33050537" stroke-width="0.69076455" fill="rgb(245, 245, 245)" opacity="1.0" stroke="rgb(128, 129, 129)" stroke-opacity="0.8931991" stroke-linecap="round" stroke-linejoin="round"/>
    <path d="M 272.52249146 169.91923523 C 273.13879395 168.97619629 273.72460938 168.30694580 274.46926880 167.67959595 C 275.24539185 167.41763306 276.24084473 167.31214905 277.19082642 167.43348694 C 278.17541504 167.68122864 279.20535278 168.08998108 280.16360474 168.59619141 C 280.92932129 169.24851990 281.49084473 170.21971130 281.87646484 171.25546265 C 282.12350464 172.40161133 282.15722656 173.54252625 281.94726562 174.79051208 C 281.64459229 175.86836243 281.14749146 176.88778687 280.32562256 177.76353455 C 279.51806641 178.41212463 278.59985352 178.91120911 277.68838501 179.21772766 C 276.75888062 179.19346619 275.79785156 178.90655518 274.92752075 178.45845032 C 274.11206055 177.99443054 273.31842041 177.46278381 272.62689209 176.77325439 C 271.76422119 176.00370789 270.99420166 175.12866211 272.52249146 169.91923523" stroke-width="0.64882898" fill="rgb(6, 5, 6)" opacity="1.0" stroke="rgb(116, 116, 117)" stroke-opacity="0.82438695" stroke-linecap="round" stroke-linejoin="round"/>
    <path d="M 230.79786682 176.37347412 C 230.33343506 175.29620361 230.03311157 174.10009766 230.03448486 172.78300476 C 230.11297607 171.60923767 230.39747620 170.47453308 230.82144165 169.62458801 C 231.49937439 168.83798218 232.38795471 168.28175354 233.40698242 167.95918274 C 234.40490723 167.60824585 235.55789185 167.33955383 236.74485779 167.42201233 C 237.80453491 167.89480591 238.78570557 168.62953186 239.54666138 169.57124329 C 240.22697449 170.62181091 240.64299011 171.84202576 240.86628723 172.93824768 C 240.80191040 174.15171814 240.55041504 175.18118286 240.09400940 176.14947510 C 239.58630371 177.02964783 238.91786194 177.77781677 238.23309326 178.33427429 C 237.42861938 178.78814697 236.56155396 179.09849548 235.57856750 179.16352844 C 234.47113037 179.11137390 233.33532715 179.03039551 230.79786682 176.37347412" stroke-width="0.60087782" fill="rgb(8, 7, 9)" opacity="1.0" stroke="rgb(131, 132, 131)" stroke-opacity="0.78993666" stroke-linecap="round" stroke-linejoin="round"/>
  </g>
</svg>
