<svg xmlns="http://www.w3.org/2000/svg" viewBox="0 0 512 512" height="512.0px" width="512.0px">
<path id="" fill="rgb(233, 245, 247)" fill-opacity="1.0" stroke="rgb(217, 237, 240)" stroke-width="2.0" stroke-opacity="1.0" stroke-linecap="round" stroke-linejoin="round"  filling="0" d="M545.052795 440.623627 C541.148865 455.744415 535.567322 469.113068 528.386047 481.033386 C521.204773 492.953705 512.423767 503.425720 502.121002 512.753235 C491.818237 522.080811 479.993652 530.263794 466.725159 537.606201 C447.736511 544.550110 429.600037 549.363281 412.272034 552.863281 C394.944031 556.363281 378.424500 558.550110 362.669800 560.241394 C346.915100 561.932678 331.925232 563.128418 317.656464 564.646179 C303.184174 566.793274 288.454681 567.884888 273.175049 568.200073 C257.895386 568.515259 242.065582 568.054016 225.392563 567.095398 C208.719559 566.136780 191.203369 564.680786 172.550995 563.006470 C154.217880 562.343140 136.547165 561.645569 119.582535 560.281311 C102.617905 558.916992 86.359352 556.885925 70.850571 553.555664 C55.341789 550.225403 40.582779 545.595886 26.617218 539.034668 C14.322246 527.573853 3.507324 514.905640 -5.810667 501.273895 C-15.128657 487.642151 -22.949718 473.046906 -29.256969 457.732117 C-35.564224 442.417328 -40.357666 426.382996 -43.620422 409.873077 C-38.117023 393.768036 -32.484917 380.793976 -25.955780 370.594635 C-19.426641 360.395294 -12.000472 352.970673 -2.908951 347.964478 C6.182570 342.958313 16.939444 340.370544 30.129990 339.844940 C47.099888 340.104889 64.410370 340.434265 81.891281 340.733276 C99.372192 341.032288 117.023529 341.300964 134.675140 341.439484 C152.326767 341.578003 169.978653 341.586426 187.460663 341.364899 C207.023834 341.377502 224.669952 341.243042 241.291580 341.083984 C257.913208 340.924896 273.510315 340.741180 288.975525 340.655273 C304.440735 340.569397 319.774048 340.581299 335.867981 340.813446 C352.220795 341.079193 368.190765 341.071198 384.158813 340.993683 C400.126862 340.916138 416.092957 340.769104 432.437927 340.756775 C448.782898 340.744446 465.506775 340.866882 482.990417 341.328247 C497.774628 341.689697 512.158997 345.099884 523.913940 352.067169 C535.668823 359.034485 544.794312 369.558899 549.060669 384.148865 C553.327026 398.738800 552.734253 417.394257 545.052795 440.623627"></path>
<path id="" fill="rgb(189, 232, 245)" fill-opacity="1.0" stroke="rgb(255, 255, 255)" stroke-width="0.51122737" stroke-opacity="1.0" stroke-linecap="round" stroke-linejoin="round"  filling="0" d="M65.589066 365.775421 C66.741829 366.708130 67.814491 367.744568 68.773155 368.924530 C69.731819 370.104492 70.576485 371.427917 71.273254 372.934601 C72.086678 374.542328 72.808128 376.196167 73.256332 377.813049 C73.704529 379.429932 73.879486 381.009827 73.599915 382.469635 C72.164352 383.667145 70.570282 384.112061 68.952736 384.284088 C67.335190 384.456146 65.694168 384.355347 64.164703 384.461426 C62.768173 384.430695 61.216835 384.390656 59.501572 384.352173 C57.786312 384.313721 55.907127 384.276794 53.854904 384.252289 C52.187630 384.110382 50.541843 384.136719 48.852509 384.210388 C47.163174 384.283997 45.430290 384.404938 43.588821 384.452179 C41.676430 384.276978 40.041569 384.005859 38.891129 383.570862 C37.740692 383.135864 37.074677 382.536926 37.099976 381.706055 C37.091011 380.244507 37.486382 378.708313 38.121292 377.102356 C38.756199 375.496399 39.630646 373.820679 40.579834 372.080078 C41.510071 370.575134 42.381454 369.223999 43.358429 368.002014 C44.335403 366.780029 45.417969 365.687134 46.770569 364.698761 C47.987862 363.583923 49.360390 362.698425 50.832268 362.081238 C52.304150 361.464050 53.875381 361.115112 55.490082 361.073486 C57.677765 361.437683 59.495468 362.133057 61.119774 362.977417 C62.744076 363.821777 64.174980 364.815125 65.589066 365.775421"></path>
<path id="" fill="rgb(191, 232, 245)" fill-opacity="1.0" stroke="rgb(255, 255, 255)" stroke-width="0.69445372" stroke-opacity="1.0" stroke-linecap="round" stroke-linejoin="round"  filling="0" d="M222.343750 390.580048 C222.118835 391.965057 221.606262 393.139587 220.752472 393.878265 C219.898682 394.616913 218.703690 394.919678 217.113922 394.561157 C215.382568 394.287354 213.826263 394.201782 212.333191 394.199249 C210.840134 394.196747 209.410324 394.277283 207.932007 394.335724 C206.368729 394.333069 204.948715 394.292542 203.529022 394.232300 C202.109329 394.172058 200.689941 394.092041 199.127930 394.010376 C197.668594 393.596252 195.967041 393.475433 194.373734 393.323547 C192.780426 393.171692 191.295364 392.988770 190.269028 392.450439 C190.668716 390.592834 191.093140 389.273376 191.558319 387.994202 C192.023529 386.715027 192.529495 385.476135 193.092300 383.779663 C194.117081 381.781006 194.734802 380.704285 195.231659 379.908691 C195.728516 379.113098 196.104523 378.598633 196.645905 377.724548 C197.402298 376.676880 198.113617 375.643463 199.097778 374.738556 C200.081940 373.833679 201.338943 373.057312 203.186737 372.523804 C204.502945 372.398834 205.908691 372.524780 207.354340 372.881409 C208.799988 373.238037 210.285522 373.825317 211.761307 374.623047 C213.432068 375.513397 214.755707 376.573181 215.851776 377.713135 C216.947861 378.853119 217.816406 380.073242 218.576965 381.284332 C219.209030 382.405273 219.773865 383.604767 220.369125 385.086243 C220.964371 386.567719 221.590027 388.331177 222.343750 390.580048"></path>
<path id="" fill="rgb(191, 232, 245)" fill-opacity="1.0" stroke="rgb(255, 255, 255)" stroke-width="0.39645779" stroke-opacity="1.0" stroke-linecap="round" stroke-linejoin="round"  filling="0" d="M419.617188 371.518951 C419.760986 372.437103 419.508972 373.335510 418.734314 374.076691 C417.959717 374.817871 416.662476 375.401855 414.715973 375.691223 C413.102997 375.774780 411.523834 375.694550 409.993683 375.569489 C408.463501 375.444397 406.982361 375.274475 405.565369 375.178711 C403.932556 374.996490 402.447906 375.029510 401.005920 375.114014 C399.563965 375.198547 398.164642 375.334534 396.702484 375.358246 C395.148254 375.387329 393.681183 375.386261 392.366699 375.064545 C391.052246 374.742859 389.890381 374.100525 388.946472 372.847107 C388.560577 371.765381 388.711273 370.608215 389.158447 369.302185 C389.605621 367.996185 390.349304 366.541351 391.149384 364.864380 C391.966583 363.542236 392.537842 362.367096 393.076202 361.328674 C393.614563 360.290222 394.119995 359.388458 394.805634 358.613007 C395.920380 357.413239 396.990601 356.339722 398.140656 355.505157 C399.290680 354.670593 400.520508 354.074951 401.954468 353.830933 C403.041962 353.763245 404.219330 353.852966 405.531128 354.241974 C406.842926 354.631012 408.289124 355.319336 409.914337 356.448883 C410.862366 356.967804 411.824707 357.770844 412.773438 358.824127 C413.722168 359.877411 414.657288 361.180969 415.550812 362.700867 C416.156433 363.852081 416.812103 364.884216 417.496826 366.214752 C418.181580 367.545288 418.895386 369.174194 419.617188 371.518951"></path>
<path id="" fill="rgb(188, 233, 244)" fill-opacity="1.0" stroke="rgb(255, 255, 255)" stroke-width="0.50267422" stroke-opacity="1.0" stroke-linecap="round" stroke-linejoin="round"  filling="0" d="M112.416077 411.225861 C113.053238 411.939728 113.726654 412.702728 114.419533 413.697357 C115.112411 414.691956 115.824753 415.918213 116.539764 417.558502 C117.341797 419.182800 117.815353 420.611389 117.846817 421.856537 C117.878281 423.101685 117.467651 424.163391 116.501312 425.053833 C115.304214 425.665771 114.021317 425.797821 112.598358 425.755249 C111.175392 425.712677 109.612366 425.495483 107.855011 425.408875 C106.212097 425.425842 104.688965 425.355377 103.228210 425.318512 C101.767448 425.281647 100.369057 425.278381 98.975616 425.429810 C97.480621 425.135254 96.074608 425.145081 94.615288 425.232025 C93.155960 425.318970 91.643333 425.483063 89.935104 425.496979 C88.598412 425.147827 87.586319 424.590912 87.043503 423.835297 C86.500687 423.079712 86.427139 422.125366 86.967529 420.981384 C87.202667 419.439148 87.525764 417.830994 88.000305 416.332001 C88.474854 414.833008 89.100838 413.443146 89.941757 412.337524 C90.986000 411.260803 91.960770 410.155640 92.935699 409.093719 C93.910629 408.031799 94.885719 407.013153 95.930618 406.109528 C96.883011 405.234802 98.151077 404.743347 99.569504 404.603516 C100.987946 404.463684 102.556747 404.675476 104.110626 405.207275 C105.780426 405.916321 107.202965 406.739746 108.534966 407.726532 C109.866966 408.713318 111.108429 409.863434 112.416077 411.225861"></path>
<path id="" fill="rgb(190, 232, 243)" fill-opacity="1.0" stroke="rgb(255, 255, 255)" stroke-width="0.56216931" stroke-opacity="1.0" stroke-linecap="round" stroke-linejoin="round"  filling="0" d="M319.469238 431.928925 C318.964294 432.571136 318.010742 432.704834 316.649750 432.692413 C315.288757 432.679962 313.520294 432.521423 311.385437 432.579102 C309.655945 432.526367 308.059082 432.443237 306.441956 432.372253 C304.824829 432.301300 303.187378 432.242493 301.376709 432.238464 C299.481812 432.183411 297.856628 432.165100 296.327637 432.170807 C294.798615 432.176514 293.365784 432.206238 291.855591 432.247314 C289.677795 432.190491 288.057770 431.938446 287.098969 431.231628 C286.140198 430.524811 285.842651 429.363251 286.309845 427.487396 C286.622253 425.961670 287.264648 424.564087 288.041473 423.101074 C288.818298 421.638062 289.729553 420.109558 290.579712 418.321991 C291.420227 417.043884 292.021454 415.903656 292.739899 414.945312 C293.458313 413.986938 294.293976 413.210480 295.603363 412.659943 C297.325928 411.774811 298.662109 411.125549 300.032013 410.742340 C301.401917 410.359131 302.805511 410.241974 304.662872 410.421021 C305.922607 410.571320 307.312164 410.924530 308.782593 411.518738 C310.253021 412.112946 311.804321 412.948151 313.387512 414.062439 C314.572937 414.993164 315.734863 416.238617 316.774933 417.601562 C317.815002 418.964508 318.733276 420.444946 319.431427 421.845764 C319.976196 423.264343 320.489807 424.862427 320.615112 426.567230 C320.740448 428.272034 320.477509 430.083557 319.469238 431.928925"></path>
<path id="" fill="rgb(0, 0, 1)" fill-opacity="1.0" stroke="rgb(17, 17, 17)" stroke-width="0.53217351" stroke-opacity="1.0" stroke-linecap="round" stroke-linejoin="round"  filling="0" d="M273.802063 337.993347 C269.620392 338.938812 265.420563 339.732605 261.065643 340.162842 C256.710754 340.593079 252.200775 340.659790 247.398804 340.151062 C242.596832 339.642365 237.502869 338.558289 231.979965 336.686920 C225.567322 334.610077 220.716812 332.023682 216.983032 328.958893 C213.249268 325.894104 210.632233 322.350952 208.686554 318.360657 C206.740891 314.370331 205.466583 309.932861 204.418274 305.079407 C203.144592 299.697632 201.837479 294.082306 200.724457 288.515991 C199.611435 282.949646 198.692505 277.432312 198.195221 272.246521 C197.697937 267.060699 197.622314 262.206421 198.195862 257.966217 C198.198105 251.708374 198.951309 246.254013 200.262833 241.222595 C201.574356 236.191193 203.444183 231.582733 205.679626 227.016708 C207.915070 222.450699 210.516144 217.927124 213.290176 213.065460 C216.237991 208.244263 219.174667 203.623306 222.251587 199.282608 C225.328506 194.941910 228.545685 190.881470 232.054535 187.181305 C235.563385 183.481140 239.363892 180.141266 243.607483 177.241714 C248.877518 174.617493 253.501572 172.186401 257.653381 170.522644 C261.805206 168.858887 265.484802 167.962479 268.865875 168.407639 C272.246979 168.852798 275.329590 170.639526 278.287476 174.342041 C282.569427 179.552963 285.404938 184.622391 287.592163 189.393585 C289.779388 194.164764 291.318329 198.637726 293.007172 202.655685 C294.695984 206.673645 296.534729 210.236603 299.321503 213.187820 C302.403748 217.965775 305.169922 222.749008 307.467255 227.615234 C309.764587 232.481445 311.593109 237.430664 312.800018 242.540588 C314.006897 247.650528 314.592224 252.921173 314.403137 258.430237 C314.460938 264.859497 314.190063 270.526764 313.679840 275.772003 C313.169617 281.017212 312.419983 285.840424 311.520325 290.581543 C310.620605 295.322662 309.570862 299.981750 308.460266 304.898712 C306.829437 310.656372 304.991486 315.284149 302.413483 319.218384 C299.835510 323.152649 296.517517 326.393402 291.926575 329.377106 C287.335632 332.360779 281.471771 335.087402 273.802063 337.993347"></path>
<path id="" fill="rgb(244, 243, 235)" fill-opacity="1.0" stroke="rgb(253, 255, 255)" stroke-width="0.48402044" stroke-opacity="1.0" stroke-linecap="round" stroke-linejoin="round"  filling="0" d="M304.254822 301.757019 C303.327393 307.391724 302.552704 311.238281 301.632507 314.555634 C300.712280 317.872986 299.646515 320.661102 298.136932 324.178955 C296.627350 327.696838 294.673950 331.944427 291.978424 338.180725 C289.798584 341.614044 287.830688 345.058594 285.566742 348.313690 C283.302795 351.568817 280.742798 354.634521 277.378723 357.310089 C274.014679 359.985687 269.846558 362.271179 264.366425 363.965942 C260.662170 364.547455 256.989288 364.882385 253.177597 364.576569 C249.365906 364.270752 245.415436 363.324188 241.156036 361.342682 C236.896637 359.361206 232.328308 356.344788 227.280914 351.899231 C224.792587 349.477875 222.725342 346.822266 220.907135 343.718262 C219.088928 340.614258 217.519791 337.061829 216.027664 332.846863 C214.535538 328.631897 213.120453 323.754395 211.610352 318.000183 C210.618790 313.368439 209.706787 308.776428 209.006027 304.170654 C208.305267 299.564880 207.815735 294.945374 207.669067 290.258667 C207.522400 285.571991 207.718628 280.818115 208.389359 275.943573 C209.300980 271.603821 209.926285 268.010895 210.590073 264.693909 C211.253860 261.376953 211.956146 258.335907 213.021744 255.099899 C214.087341 251.863892 215.516235 248.432922 217.633270 244.336090 C219.604630 240.661041 221.564346 237.316498 223.852127 234.257828 C226.139893 231.199142 228.755737 228.426300 232.039322 225.894669 C235.322922 223.363022 239.274277 221.072571 244.233093 218.978668 C249.960464 217.900635 254.538239 217.402237 258.581482 217.542252 C262.624756 217.682251 266.133484 218.460678 269.722778 219.936279 C273.312073 221.411896 276.981934 223.584702 281.347412 226.513489 C285.615814 230.564606 288.838684 234.301773 291.371399 237.907639 C293.904083 241.513504 295.746582 244.988068 297.254181 248.513977 C298.761810 252.039886 299.934570 255.617157 301.127747 259.428406 C302.278473 264.409973 303.301636 269.321381 304.057037 274.139954 C304.812439 278.958557 305.300110 283.684326 305.379822 288.294708 C305.459534 292.905090 305.131256 297.400055 304.254822 301.757019"></path>
<path id="" fill="rgb(2, 0, 0)" fill-opacity="1.0" stroke="rgb(0, 0, 0)" stroke-width="0.48024896" stroke-opacity="1.0" stroke-linecap="round" stroke-linejoin="round"  filling="0" d="M271.224609 217.841156 C270.184692 218.116745 268.245361 217.736359 265.759460 217.154648 C263.273560 216.572937 260.241028 215.789902 257.014709 215.260162 C253.788406 214.730438 250.368286 214.454010 247.107162 214.885544 C243.185776 214.793488 239.646042 215.252884 236.535141 215.672882 C233.424240 216.092896 230.742172 216.473495 228.536133 216.223877 C226.330093 215.974258 224.600067 215.094406 223.393280 212.993484 C222.678787 209.779541 222.248215 206.457596 221.902924 203.215515 C221.557632 199.973419 221.297623 196.811172 220.924255 193.916611 C220.550903 191.022034 220.064178 188.395157 219.265503 186.223785 C218.340393 182.517624 217.711365 179.555069 217.482834 176.795303 C217.254303 174.035538 217.426300 171.478546 218.103195 168.583527 C218.780090 165.688477 219.961914 162.455399 221.753082 158.343430 C223.171249 155.610001 224.302414 153.348755 225.601364 151.309875 C226.900314 149.270996 228.367050 147.454498 230.456360 145.610565 C232.545654 143.766602 235.257538 141.895203 239.046799 139.746536 C243.867661 138.536301 246.651123 137.730896 248.611816 137.211914 C250.572510 136.692917 251.710464 136.460327 253.240326 136.395721 C254.770203 136.331116 256.691986 136.434479 260.220337 136.587372 C263.691528 136.988342 266.948273 137.665741 269.970490 138.640366 C272.992737 139.614990 275.780457 140.886841 278.313568 142.476730 C280.846710 144.066620 283.125244 145.974548 285.129150 148.221313 C287.339844 150.874634 289.163910 153.621643 290.629852 156.393631 C292.095795 159.165619 293.203613 161.962585 293.981812 164.715790 C294.760010 167.469009 295.208557 170.178497 295.356049 172.775513 C295.606842 175.112854 295.464691 177.687485 295.029816 180.414383 C294.594971 183.141281 293.867371 186.020447 292.947296 188.966843 C292.027222 191.913254 290.914612 194.926880 289.709778 197.922729 C288.166290 200.859650 286.705872 203.879745 285.075317 206.658585 C283.444763 209.437439 281.644104 211.975021 279.420044 213.946930 C277.196014 215.918823 274.548584 217.325043 271.224609 217.841156"></path>
<path id="" fill="rgb(7, 1, 2)" fill-opacity="1.0" stroke="rgb(54, 50, 52)" stroke-width="0.0" stroke-opacity="1.0" stroke-linecap="round" stroke-linejoin="round"  filling="0" d="M194.872864 322.770508 C194.537613 325.386597 194.226135 328.530212 194.305298 331.967560 C194.384460 335.404877 194.854279 339.135925 196.081604 342.926941 C196.989136 343.263977 196.892395 341.798126 195.810425 339.559845 C194.728439 337.321533 192.661224 334.310791 189.627777 331.558044 C187.339615 327.950836 185.718811 324.596649 184.394897 321.153656 C183.070984 317.710663 182.043976 314.178833 180.943390 310.216370 C179.803375 305.182678 179.230942 302.449615 179.020828 299.591644 C178.810730 296.733704 178.962952 293.750885 179.272263 288.217743 C180.661453 283.402832 181.432159 281.072876 182.619415 278.649719 C183.806671 276.226532 185.410461 273.710175 188.465820 268.522491 C191.118622 264.078827 192.625031 262.220520 193.761230 260.429901 C194.897446 258.639252 195.663452 256.916321 196.835434 252.743347 C197.401398 246.052628 199.070984 245.589905 200.576843 247.877808 C202.082687 250.165710 203.424805 255.204239 203.335785 259.516022 C202.445709 262.549164 201.376511 265.284760 200.439484 268.237061 C199.502441 271.189331 198.697571 274.358276 198.336121 278.258118 C197.793976 282.396210 197.426056 286.143585 197.053329 289.742035 C196.680603 293.340515 196.303040 296.790039 195.741653 300.332397 C195.226410 304.517944 195.212402 307.502930 195.225601 310.753784 C195.238800 314.004639 195.279236 317.521393 194.872864 322.770508"></path>
<path id="" fill="rgb(2, 1, 1)" fill-opacity="1.0" stroke="rgb(2, 1, 2)" stroke-width="0.57174605" stroke-opacity="1.0" stroke-linecap="round" stroke-linejoin="round"  filling="0" d="M330.476318 312.421631 C329.153473 315.883972 328.456848 317.891083 327.613037 320.135864 C326.769226 322.380615 325.778259 324.863037 323.866730 329.275879 C322.017883 333.185608 320.482513 334.179810 319.421356 332.870972 C318.360168 331.562103 317.773193 327.950134 317.821045 322.647522 C317.851135 319.349976 317.754913 316.714111 317.665405 313.822693 C317.575897 310.931305 317.493103 307.784363 317.549988 303.464722 C317.924561 300.033783 317.888031 296.783447 317.560852 293.566925 C317.233704 290.350403 316.615936 287.167664 315.828094 283.871887 C315.018921 279.827881 314.203613 276.899994 313.335205 274.185669 C312.466797 271.471344 311.545349 268.970581 310.523834 265.780823 C309.423370 261.454468 308.884155 258.535706 308.778717 256.048798 C308.673248 253.561874 309.001556 251.506805 309.636108 248.907837 C311.736816 246.687912 313.160004 247.606720 314.386688 249.832138 C315.613373 252.057571 316.643555 255.589630 317.958252 258.596222 C319.492554 261.495361 320.784180 263.853668 322.138519 266.212555 C323.492859 268.571442 324.909912 270.930908 326.695068 273.832458 C328.401733 277.208191 329.856262 280.199707 330.983704 283.075378 C332.111145 285.951050 332.911530 288.710876 333.309937 291.623169 C333.434540 295.568970 333.087036 299.109680 332.527893 302.493408 C331.968811 305.877136 331.198090 309.103821 330.476318 312.421631"></path>
<path id="" fill="rgb(241, 169, 78)" fill-opacity="1.0" stroke="rgb(231, 180, 121)" stroke-width="0.57502037" stroke-opacity="1.0" stroke-linecap="round" stroke-linejoin="round"  filling="0" d="M225.776367 355.638275 C226.099182 354.955261 226.633163 353.887726 227.416016 352.853424 C228.198883 351.819122 229.230621 350.818054 230.548950 350.268036 C232.075073 349.595215 233.347595 349.765808 234.602280 350.228088 C235.856964 350.690369 237.093796 351.444336 238.548492 351.938202 C239.617249 352.248779 240.858963 352.356201 242.237045 352.504608 C243.615143 352.653015 245.129608 352.842407 246.743851 353.316833 C248.385300 353.972839 248.625458 355.035431 248.359070 356.320465 C248.092667 357.605469 247.319717 359.112915 246.934937 360.658630 C246.924683 362.046814 247.311737 363.398926 247.357330 364.283051 C247.402924 365.167175 247.107025 365.583282 245.730865 365.099426 C243.549713 363.905823 242.793716 363.054718 242.182083 362.426697 C241.570465 361.798706 241.103180 361.393799 239.499466 361.092590 C238.501587 361.977905 237.743256 363.582092 237.019821 364.743164 C236.296402 365.904236 235.607880 366.622131 234.749634 365.734833 C234.318146 363.556519 233.895538 361.880920 233.058777 361.086945 C232.221985 360.292969 230.971039 360.380585 228.882797 361.728699 C227.038300 362.307678 225.739380 363.026306 224.623535 363.409576 C223.507690 363.792847 222.574890 363.840729 221.462646 363.078186 C221.762924 361.998779 222.573608 360.945984 223.443100 359.759460 C224.312592 358.572937 225.240875 357.252686 225.776367 355.638275"></path>
<path id="" fill="rgb(238, 167, 81)" fill-opacity="1.0" stroke="rgb(134, 255, 199)" stroke-width="0.0" stroke-opacity="1.0" stroke-linecap="round" stroke-linejoin="round"  filling="0" d="M260.994476 352.776001 C262.628876 352.321838 263.625000 352.400940 264.723267 352.460480 C265.821533 352.520020 267.021973 352.560059 269.064972 352.027863 C270.493835 351.724854 271.956451 350.767090 273.438019 349.977905 C274.919617 349.188690 276.420135 348.568024 277.924774 348.939148 C279.054871 349.293030 280.076416 350.170319 281.091888 351.326141 C282.107330 352.481964 283.116638 353.916321 284.222198 355.384308 C285.081696 356.777039 285.830505 358.100067 286.508972 359.240692 C287.187408 360.381317 287.795532 361.339539 288.373596 362.002716 C288.714142 363.295746 288.012817 363.680298 287.024261 363.637970 C286.035736 363.595642 284.760010 363.126465 283.951782 362.711975 C281.576965 362.291656 280.402863 361.659729 279.512848 361.339294 C278.622803 361.018890 278.016846 361.009979 276.778229 361.835693 C276.013428 363.693054 275.755219 365.262756 275.204742 366.257660 C274.654297 367.252594 273.811584 367.672791 271.877808 367.231110 C271.505676 364.954559 271.182037 363.630371 270.464874 363.302307 C269.747681 362.974274 268.636993 363.642334 266.690704 365.350342 C265.087219 366.050629 264.116333 365.771667 263.491302 364.827515 C262.866272 363.883301 262.587097 362.273895 262.367004 360.313232 C262.403320 359.019714 261.299988 357.779266 260.567657 356.540283 C259.835358 355.301270 259.474060 354.063721 260.994476 352.776001"></path>
<path id="" fill="rgb(248, 203, 108)" fill-opacity="1.0" stroke="rgb(164, 133, 101)" stroke-width="0.42600811" stroke-opacity="1.0" stroke-linecap="round" stroke-linejoin="round"  filling="0" d="M248.165604 193.468353 C248.489838 193.395798 249.287491 192.971802 250.265106 192.453552 C251.242706 191.935303 252.400269 191.322784 253.444351 190.873184 C254.472992 190.476242 255.254074 190.299667 256.036896 190.335770 C256.819702 190.371872 257.604248 190.620667 258.639862 191.074448 C260.127563 191.552795 260.893250 191.749664 261.660034 192.024857 C262.426788 192.300034 263.194641 192.653519 264.686554 193.445084 C265.742310 194.042282 266.863037 194.868240 267.590759 195.691711 C268.318451 196.515167 268.653137 197.336136 268.136841 197.923355 C267.700684 198.267120 267.017975 198.925476 266.272430 199.682129 C265.526917 200.438782 264.718567 201.293732 264.031219 202.030731 C262.404785 203.123444 261.674957 203.596603 261.204681 203.993607 C260.734436 204.390594 260.523682 204.711456 259.935455 205.499557 C259.147827 207.166946 258.449219 208.128799 257.644440 208.401917 C256.839630 208.675018 255.928589 208.259384 254.716034 207.171783 C253.884094 206.328903 253.172134 205.411957 252.425430 204.548172 C251.678726 203.684402 250.897278 202.873795 249.926331 202.243607 C248.914001 201.460739 247.969864 200.726257 247.094070 200.042175 C246.218262 199.358093 245.410797 198.724396 244.671799 198.143112 C244.081131 196.929306 244.146545 196.445404 244.763657 195.922546 C245.380753 195.399704 246.549530 194.837921 248.165604 193.468353"></path>
<path id="" fill="rgb(219, 219, 219)" fill-opacity="1.0" stroke="rgb(172, 172, 171)" stroke-width="0.36118713" stroke-opacity="1.0" stroke-linecap="round" stroke-linejoin="round"  filling="0" d="M271.953247 178.972107 C271.430481 178.433578 270.225220 177.084991 269.362610 175.352768 C268.934113 173.936890 268.826782 172.763382 268.911133 170.883560 C268.602722 169.278168 269.718597 167.572693 271.041962 166.502106 C272.399475 165.148926 274.297089 164.280380 275.629456 164.067062 C277.485962 164.141785 278.963196 165.153137 280.428528 166.123108 C282.452332 168.433578 282.227173 167.824997 283.037048 169.465668 C283.784332 171.050400 283.814758 173.077805 283.671875 174.858719 C283.022552 177.081848 282.334381 178.460526 281.504089 179.460297 C280.147797 180.922272 278.588379 181.735077 277.075684 181.657135 C275.415558 181.652100 274.306458 180.730255 271.953247 178.972107"></path>
<path id="" fill="rgb(211, 212, 211)" fill-opacity="1.0" stroke="rgb(144, 146, 144)" stroke-width="0.3750824" stroke-opacity="1.0" stroke-linecap="round" stroke-linejoin="round"  filling="0" d="M243.148422 174.164551 C242.741272 175.478363 241.793732 177.479752 241.062149 178.582336 C239.836685 179.734116 238.567719 180.534805 237.277130 181.788940 C235.452927 182.699020 234.965286 181.952499 232.913849 180.796707 C231.444702 179.720291 230.220673 178.952423 229.196152 177.062149 C228.675812 175.311996 228.484070 173.249237 228.548508 172.059021 C229.231369 168.898621 228.842361 169.470474 229.747147 167.963058 C230.887131 166.588394 232.587967 165.349243 234.170868 164.728699 C236.570511 164.002991 237.855301 164.158691 239.111877 165.148972 C240.599472 166.299683 241.902145 167.953156 242.365570 168.849792 C243.723801 170.800812 243.594269 171.756958 243.148422 174.164551"></path>
<path id="" fill="rgb(7, 7, 7)" fill-opacity="1.0" stroke="rgb(96, 96, 95)" stroke-width="0.35101122" stroke-opacity="1.0" stroke-linecap="round" stroke-linejoin="round"  filling="0" d="M272.212067 171.391220 C272.337677 171.101212 272.788483 169.531464 273.416962 168.457764 C274.047363 167.748093 275.052521 167.380249 276.633301 167.506485 C277.667877 167.632324 278.806702 167.736053 279.710876 168.679016 C280.669830 169.651154 280.983490 170.878540 281.751007 171.699280 C282.636475 172.885864 282.531494 173.748901 282.332214 174.753433 C281.314667 176.767136 281.612244 176.434540 280.898041 177.429520 C280.197083 178.372147 278.559052 178.842545 277.507080 178.945847 C275.625397 178.791031 275.250366 178.434341 274.215240 177.751572 C273.027222 177.059677 271.979065 176.064804 271.749603 175.458481 C271.384003 174.189590 271.978363 173.582123 272.212067 171.391220"></path>
<path id="" fill="rgb(1, 1, 1)" fill-opacity="1.0" stroke="rgb(238, 237, 239)" stroke-width="1.38578546" stroke-opacity="1.0" stroke-linecap="round" stroke-linejoin="round"  filling="0" d="M231.084457 176.557556 C230.749283 176.111572 230.003189 174.577164 229.492142 173.544342 C229.325974 172.470673 230.051758 171.664536 230.704803 170.315720 C231.302155 169.095840 231.366638 168.654312 232.847488 167.633408 C234.051544 166.982285 235.473923 167.323395 236.344635 167.843216 C237.882843 168.142273 238.675217 168.562195 239.334396 169.380890 C240.347290 171.553818 240.069489 171.291656 240.640045 172.379395 C241.295883 172.992035 240.340576 174.497513 239.877731 175.741714 C239.071213 177.334152 239.181610 177.802521 237.955093 178.435135 C236.841049 179.186996 235.148926 179.039261 234.427582 178.655380 C232.746964 178.290436 232.696732 178.149765 231.084457 176.557556"></path>
</svg>