<?xml version="1.0" ?>
<svg xmlns="http://www.w3.org/2000/svg" version="1.1" width="512" height="512" viewBox="0 0 512 512">
  <defs/>
  <g>
    <path d="M 545.05279541 440.62362671 C 541.14886475 455.74441528 535.56732178 469.11306763 528.38604736 481.03338623 C 521.20477295 492.95370483 512.42376709 503.42572021 502.12100220 512.75323486 C 491.81823730 522.08081055 479.99365234 530.26379395 466.72515869 537.60620117 C 447.73651123 544.55010986 429.60003662 549.36328125 412.27203369 552.86328125 C 394.94403076 556.36328125 378.42449951 558.55010986 362.66979980 560.24139404 C 346.91510010 561.93267822 331.92523193 563.12841797 317.65646362 564.64617920 C 303.18417358 566.79327393 288.45468140 567.88488770 273.17504883 568.20007324 C 257.89538574 568.51525879 242.06558228 568.05401611 225.39256287 567.09539795 C 208.71955872 566.13677979 191.20336914 564.68078613 172.55099487 563.00646973 C 154.21788025 562.34313965 136.54716492 561.64556885 119.58253479 560.28131104 C 102.61790466 558.91699219 86.35935211 556.88592529 70.85057068 553.55566406 C 55.34178925 550.22540283 40.58277893 545.59588623 26.61721802 539.03466797 C 14.32224560 527.57385254 3.50732398 514.90563965 -5.81066704 501.27389526 C -15.12865734 487.64215088 -22.94971848 473.04690552 -29.25696945 457.73211670 C -35.56422424 442.41732788 -40.35766602 426.38299561 -43.62042236 409.87307739 C -38.11702347 393.76803589 -32.48491669 380.79397583 -25.95578003 370.59463501 C -19.42664146 360.39529419 -12.00047207 352.97067261 -2.90895104 347.96447754 C 6.18256998 342.95831299 16.93944359 340.37054443 30.12998962 339.84494019 C 47.09988785 340.10488892 64.41036987 340.43426514 81.89128113 340.73327637 C 99.37219238 341.03228760 117.02352905 341.30096436 134.67514038 341.43948364 C 152.32676697 341.57800293 169.97865295 341.58642578 187.46066284 341.36489868 C 207.02383423 341.37750244 224.66995239 341.24304199 241.29158020 341.08398438 C 257.91320801 340.92489624 273.51031494 340.74118042 288.97552490 340.65527344 C 304.44073486 340.56939697 319.77404785 340.58129883 335.86798096 340.81344604 C 352.22079468 341.07919312 368.19076538 341.07119751 384.15881348 340.99368286 C 400.12686157 340.91613770 416.09295654 340.76910400 432.43792725 340.75677490 C 448.78289795 340.74444580 465.50677490 340.86688232 482.99041748 341.32824707 C 497.77462769 341.68969727 512.15899658 345.09988403 523.91394043 352.06716919 C 535.66882324 359.03448486 544.79431152 369.55889893 549.06066895 384.14886475 C 553.32702637 398.73880005 552.73425293 417.39425659 545.05279541 440.62362671" stroke-width="2.00000000" fill="rgb(233, 245, 247)" opacity="1.0" stroke="rgb(217, 237, 240)" stroke-opacity="1.0" stroke-linecap="round" stroke-linejoin="round"/>
    <path d="M 65.58906555 365.77542114 C 66.74182892 366.70812988 67.81449127 367.74456787 68.77315521 368.92453003 C 69.73181915 370.10449219 70.57648468 371.42791748 71.27325439 372.93460083 C 72.08667755 374.54232788 72.80812836 376.19616699 73.25633240 377.81304932 C 73.70452881 379.42993164 73.87948608 381.00982666 73.59991455 382.46963501 C 72.16435242 383.66714478 70.57028198 384.11206055 68.95273590 384.28408813 C 67.33518982 384.45614624 65.69416809 384.35534668 64.16470337 384.46142578 C 62.76817322 384.43069458 61.21683502 384.39065552 59.50157166 384.35217285 C 57.78631210 384.31372070 55.90712738 384.27679443 53.85490417 384.25228882 C 52.18762970 384.11038208 50.54184341 384.13671875 48.85250854 384.21038818 C 47.16317368 384.28399658 45.43029022 384.40493774 43.58882141 384.45217896 C 41.67642975 384.27697754 40.04156876 384.00585938 38.89112854 383.57086182 C 37.74069214 383.13586426 37.07467651 382.53692627 37.09997559 381.70605469 C 37.09101105 380.24450684 37.48638153 378.70831299 38.12129211 377.10235596 C 38.75619888 375.49639893 39.63064575 373.82067871 40.57983398 372.08007812 C 41.51007080 370.57513428 42.38145447 369.22399902 43.35842896 368.00201416 C 44.33540344 366.78002930 45.41796875 365.68713379 46.77056885 364.69876099 C 47.98786163 363.58392334 49.36038971 362.69842529 50.83226776 362.08123779 C 52.30414963 361.46405029 53.87538147 361.11511230 55.49008179 361.07348633 C 57.67776489 361.43768311 59.49546814 362.13305664 61.11977386 362.97741699 C 62.74407578 363.82177734 64.17498016 364.81512451 65.58906555 365.77542114" stroke-width="0.51122737" fill="rgb(189, 232, 245)" opacity="1.0" stroke="rgb(255, 255, 255)" stroke-opacity="1.0" stroke-linecap="round" stroke-linejoin="round"/>
    <path d="M 222.34375000 390.58004761 C 222.11883545 391.96505737 221.60626221 393.13958740 220.75247192 393.87826538 C 219.89868164 394.61691284 218.70368958 394.91967773 217.11392212 394.56115723 C 215.38256836 394.28735352 213.82626343 394.20178223 212.33319092 394.19924927 C 210.84013367 394.19674683 209.41032410 394.27728271 207.93200684 394.33572388 C 206.36872864 394.33306885 204.94871521 394.29254150 203.52902222 394.23229980 C 202.10932922 394.17205811 200.68994141 394.09204102 199.12792969 394.01037598 C 197.66859436 393.59625244 195.96704102 393.47543335 194.37373352 393.32354736 C 192.78042603 393.17169189 191.29536438 392.98876953 190.26902771 392.45043945 C 190.66871643 390.59283447 191.09313965 389.27337646 191.55831909 387.99420166 C 192.02352905 386.71502686 192.52949524 385.47613525 193.09230042 383.77966309 C 194.11708069 381.78100586 194.73480225 380.70428467 195.23165894 379.90869141 C 195.72851562 379.11309814 196.10452271 378.59863281 196.64590454 377.72454834 C 197.40229797 376.67687988 198.11361694 375.64346313 199.09777832 374.73855591 C 200.08193970 373.83367920 201.33894348 373.05731201 203.18673706 372.52380371 C 204.50294495 372.39883423 205.90869141 372.52478027 207.35433960 372.88140869 C 208.79998779 373.23803711 210.28552246 373.82531738 211.76130676 374.62304688 C 213.43206787 375.51339722 214.75570679 376.57318115 215.85177612 377.71313477 C 216.94786072 378.85311890 217.81640625 380.07324219 218.57696533 381.28433228 C 219.20903015 382.40527344 219.77386475 383.60476685 220.36912537 385.08624268 C 220.96437073 386.56771851 221.59002686 388.33117676 222.34375000 390.58004761" stroke-width="0.69445372" fill="rgb(191, 232, 245)" opacity="1.0" stroke="rgb(255, 255, 255)" stroke-opacity="1.0" stroke-linecap="round" stroke-linejoin="round"/>
    <path d="M 419.61718750 371.51895142 C 419.76098633 372.43710327 419.50897217 373.33551025 418.73431396 374.07669067 C 417.95971680 374.81787109 416.66247559 375.40185547 414.71597290 375.69122314 C 413.10299683 375.77478027 411.52383423 375.69454956 409.99368286 375.56948853 C 408.46350098 375.44439697 406.98236084 375.27447510 405.56536865 375.17871094 C 403.93255615 374.99649048 402.44790649 375.02951050 401.00592041 375.11401367 C 399.56396484 375.19854736 398.16464233 375.33453369 396.70248413 375.35824585 C 395.14825439 375.38732910 393.68118286 375.38626099 392.36669922 375.06454468 C 391.05224609 374.74285889 389.89038086 374.10052490 388.94647217 372.84710693 C 388.56057739 371.76538086 388.71127319 370.60821533 389.15844727 369.30218506 C 389.60562134 367.99618530 390.34930420 366.54135132 391.14938354 364.86437988 C 391.96658325 363.54223633 392.53784180 362.36709595 393.07620239 361.32867432 C 393.61456299 360.29022217 394.11999512 359.38845825 394.80563354 358.61300659 C 395.92037964 357.41323853 396.99060059 356.33972168 398.14065552 355.50515747 C 399.29067993 354.67059326 400.52050781 354.07495117 401.95446777 353.83093262 C 403.04196167 353.76324463 404.21932983 353.85296631 405.53112793 354.24197388 C 406.84292603 354.63101196 408.28912354 355.31933594 409.91433716 356.44888306 C 410.86236572 356.96780396 411.82470703 357.77084351 412.77343750 358.82412720 C 413.72216797 359.87741089 414.65728760 361.18096924 415.55081177 362.70086670 C 416.15643311 363.85208130 416.81210327 364.88421631 417.49682617 366.21475220 C 418.18157959 367.54528809 418.89538574 369.17419434 419.61718750 371.51895142" stroke-width="0.39645779" fill="rgb(191, 232, 245)" opacity="1.0" stroke="rgb(255, 255, 255)" stroke-opacity="1.0" stroke-linecap="round" stroke-linejoin="round"/>
    <path d="M 112.41607666 411.22586060 C 113.05323792 411.93972778 113.72665405 412.70272827 114.41953278 413.69735718 C 115.11241150 414.69195557 115.82475281 415.91821289 116.53976440 417.55850220 C 117.34179688 419.18280029 117.81535339 420.61138916 117.84681702 421.85653687 C 117.87828064 423.10168457 117.46765137 424.16339111 116.50131226 425.05383301 C 115.30421448 425.66577148 114.02131653 425.79782104 112.59835815 425.75524902 C 111.17539215 425.71267700 109.61236572 425.49548340 107.85501099 425.40887451 C 106.21209717 425.42584229 104.68896484 425.35537720 103.22821045 425.31851196 C 101.76744843 425.28164673 100.36905670 425.27838135 98.97561646 425.42980957 C 97.48062134 425.13525391 96.07460785 425.14508057 94.61528778 425.23202515 C 93.15596008 425.31896973 91.64333344 425.48306274 89.93510437 425.49697876 C 88.59841156 425.14782715 87.58631897 424.59091187 87.04350281 423.83529663 C 86.50068665 423.07971191 86.42713928 422.12536621 86.96752930 420.98138428 C 87.20266724 419.43914795 87.52576447 417.83099365 88.00030518 416.33200073 C 88.47485352 414.83300781 89.10083771 413.44314575 89.94175720 412.33752441 C 90.98600006 411.26080322 91.96076965 410.15563965 92.93569946 409.09371948 C 93.91062927 408.03179932 94.88571930 407.01315308 95.93061829 406.10952759 C 96.88301086 405.23480225 98.15107727 404.74334717 99.56950378 404.60351562 C 100.98794556 404.46368408 102.55674744 404.67547607 104.11062622 405.20727539 C 105.78042603 405.91632080 107.20296478 406.73974609 108.53496552 407.72653198 C 109.86696625 408.71331787 111.10842896 409.86343384 112.41607666 411.22586060" stroke-width="0.50267422" fill="rgb(188, 233, 244)" opacity="1.0" stroke="rgb(255, 255, 255)" stroke-opacity="1.0" stroke-linecap="round" stroke-linejoin="round"/>
    <path d="M 319.46923828 431.92892456 C 318.96429443 432.57113647 318.01074219 432.70483398 316.64974976 432.69241333 C 315.28875732 432.67996216 313.52029419 432.52142334 311.38543701 432.57910156 C 309.65594482 432.52636719 308.05908203 432.44323730 306.44195557 432.37225342 C 304.82482910 432.30130005 303.18737793 432.24249268 301.37670898 432.23846436 C 299.48181152 432.18341064 297.85662842 432.16510010 296.32763672 432.17080688 C 294.79861450 432.17651367 293.36578369 432.20623779 291.85559082 432.24731445 C 289.67779541 432.19049072 288.05776978 431.93844604 287.09896851 431.23162842 C 286.14019775 430.52481079 285.84265137 429.36325073 286.30984497 427.48739624 C 286.62225342 425.96166992 287.26464844 424.56408691 288.04147339 423.10107422 C 288.81829834 421.63806152 289.72955322 420.10955811 290.57971191 418.32199097 C 291.42022705 417.04388428 292.02145386 415.90365601 292.73989868 414.94531250 C 293.45831299 413.98693848 294.29397583 413.21047974 295.60336304 412.65994263 C 297.32592773 411.77481079 298.66210938 411.12554932 300.03201294 410.74234009 C 301.40191650 410.35913086 302.80551147 410.24197388 304.66287231 410.42102051 C 305.92260742 410.57131958 307.31216431 410.92453003 308.78259277 411.51873779 C 310.25302124 412.11294556 311.80432129 412.94815063 313.38751221 414.06243896 C 314.57293701 414.99316406 315.73486328 416.23861694 316.77493286 417.60156250 C 317.81500244 418.96450806 318.73327637 420.44494629 319.43142700 421.84576416 C 319.97619629 423.26434326 320.48980713 424.86242676 320.61511230 426.56723022 C 320.74044800 428.27203369 320.47750854 430.08355713 319.46923828 431.92892456" stroke-width="0.56216931" fill="rgb(190, 232, 243)" opacity="1.0" stroke="rgb(255, 255, 255)" stroke-opacity="1.0" stroke-linecap="round" stroke-linejoin="round"/>
    <path d="M 273.80206299 337.99334717 C 269.62039185 338.93881226 265.42056274 339.73260498 261.06564331 340.16284180 C 256.71075439 340.59307861 252.20077515 340.65979004 247.39880371 340.15106201 C 242.59683228 339.64236450 237.50286865 338.55828857 231.97996521 336.68692017 C 225.56732178 334.61007690 220.71681213 332.02368164 216.98303223 328.95889282 C 213.24926758 325.89410400 210.63223267 322.35095215 208.68655396 318.36065674 C 206.74089050 314.37033081 205.46658325 309.93286133 204.41827393 305.07940674 C 203.14459229 299.69763184 201.83747864 294.08230591 200.72445679 288.51599121 C 199.61143494 282.94964600 198.69250488 277.43231201 198.19522095 272.24652100 C 197.69793701 267.06069946 197.62231445 262.20642090 198.19586182 257.96621704 C 198.19810486 251.70837402 198.95130920 246.25401306 200.26283264 241.22259521 C 201.57435608 236.19119263 203.44418335 231.58273315 205.67962646 227.01670837 C 207.91506958 222.45069885 210.51614380 217.92712402 213.29017639 213.06546021 C 216.23799133 208.24426270 219.17466736 203.62330627 222.25158691 199.28260803 C 225.32850647 194.94190979 228.54568481 190.88146973 232.05453491 187.18130493 C 235.56338501 183.48114014 239.36389160 180.14126587 243.60748291 177.24171448 C 248.87751770 174.61749268 253.50157166 172.18640137 257.65338135 170.52264404 C 261.80520630 168.85888672 265.48480225 167.96247864 268.86587524 168.40763855 C 272.24697876 168.85279846 275.32958984 170.63952637 278.28747559 174.34204102 C 282.56942749 179.55296326 285.40493774 184.62239075 287.59216309 189.39358521 C 289.77938843 194.16476440 291.31832886 198.63772583 293.00717163 202.65568542 C 294.69598389 206.67364502 296.53472900 210.23660278 299.32150269 213.18782043 C 302.40374756 217.96577454 305.16992188 222.74900818 307.46725464 227.61523438 C 309.76458740 232.48144531 311.59310913 237.43066406 312.80001831 242.54058838 C 314.00689697 247.65052795 314.59222412 252.92117310 314.40313721 258.43023682 C 314.46093750 264.85949707 314.19006348 270.52676392 313.67984009 275.77200317 C 313.16961670 281.01721191 312.41998291 285.84042358 311.52032471 290.58154297 C 310.62060547 295.32266235 309.57086182 299.98175049 308.46026611 304.89871216 C 306.82943726 310.65637207 304.99148560 315.28414917 302.41348267 319.21838379 C 299.83551025 323.15264893 296.51751709 326.39340210 291.92657471 329.37710571 C 287.33563232 332.36077881 281.47177124 335.08740234 273.80206299 337.99334717" stroke-width="0.53217351" fill="rgb(0, 0, 1)" opacity="1.0" stroke="rgb(17, 17, 17)" stroke-opacity="1.0" stroke-linecap="round" stroke-linejoin="round"/>
    <path d="M 304.25482178 301.75701904 C 303.32739258 307.39172363 302.55270386 311.23828125 301.63250732 314.55563354 C 300.71228027 317.87298584 299.64651489 320.66110229 298.13693237 324.17895508 C 296.62734985 327.69683838 294.67395020 331.94442749 291.97842407 338.18072510 C 289.79858398 341.61404419 287.83068848 345.05859375 285.56674194 348.31369019 C 283.30279541 351.56881714 280.74279785 354.63452148 277.37872314 357.31008911 C 274.01467896 359.98568726 269.84655762 362.27117920 264.36642456 363.96594238 C 260.66217041 364.54745483 256.98928833 364.88238525 253.17759705 364.57656860 C 249.36590576 364.27075195 245.41543579 363.32418823 241.15603638 361.34268188 C 236.89663696 359.36120605 232.32830811 356.34478760 227.28091431 351.89923096 C 224.79258728 349.47787476 222.72534180 346.82226562 220.90713501 343.71826172 C 219.08892822 340.61425781 217.51979065 337.06182861 216.02766418 332.84686279 C 214.53553772 328.63189697 213.12045288 323.75439453 211.61035156 318.00018311 C 210.61878967 313.36843872 209.70678711 308.77642822 209.00602722 304.17065430 C 208.30526733 299.56488037 207.81573486 294.94537354 207.66906738 290.25866699 C 207.52239990 285.57199097 207.71862793 280.81811523 208.38935852 275.94357300 C 209.30097961 271.60382080 209.92628479 268.01089478 210.59007263 264.69390869 C 211.25386047 261.37695312 211.95614624 258.33590698 213.02174377 255.09989929 C 214.08734131 251.86389160 215.51623535 248.43292236 217.63327026 244.33609009 C 219.60462952 240.66104126 221.56434631 237.31649780 223.85212708 234.25782776 C 226.13989258 231.19914246 228.75573730 228.42630005 232.03932190 225.89466858 C 235.32292175 223.36302185 239.27427673 221.07257080 244.23309326 218.97866821 C 249.96046448 217.90063477 254.53823853 217.40223694 258.58148193 217.54225159 C 262.62475586 217.68225098 266.13348389 218.46067810 269.72277832 219.93627930 C 273.31207275 221.41189575 276.98193359 223.58470154 281.34741211 226.51348877 C 285.61581421 230.56460571 288.83868408 234.30177307 291.37139893 237.90763855 C 293.90408325 241.51350403 295.74658203 244.98806763 297.25418091 248.51397705 C 298.76181030 252.03988647 299.93457031 255.61715698 301.12774658 259.42840576 C 302.27847290 264.40997314 303.30163574 269.32138062 304.05703735 274.13995361 C 304.81243896 278.95855713 305.30010986 283.68432617 305.37982178 288.29470825 C 305.45953369 292.90509033 305.13125610 297.40005493 304.25482178 301.75701904" stroke-width="0.48402044" fill="rgb(244, 243, 235)" opacity="1.0" stroke="rgb(253, 255, 255)" stroke-opacity="1.0" stroke-linecap="round" stroke-linejoin="round"/>
    <path d="M 271.22460938 217.84115601 C 270.18469238 218.11674500 268.24536133 217.73635864 265.75946045 217.15464783 C 263.27355957 216.57293701 260.24102783 215.78990173 257.01470947 215.26016235 C 253.78840637 214.73043823 250.36828613 214.45401001 247.10716248 214.88554382 C 243.18577576 214.79348755 239.64604187 215.25288391 236.53514099 215.67288208 C 233.42424011 216.09289551 230.74217224 216.47349548 228.53613281 216.22387695 C 226.33009338 215.97425842 224.60006714 215.09440613 223.39328003 212.99348450 C 222.67878723 209.77954102 222.24821472 206.45759583 221.90292358 203.21551514 C 221.55763245 199.97341919 221.29762268 196.81117249 220.92425537 193.91661072 C 220.55090332 191.02203369 220.06417847 188.39515686 219.26550293 186.22378540 C 218.34039307 182.51762390 217.71136475 179.55506897 217.48283386 176.79530334 C 217.25430298 174.03553772 217.42630005 171.47854614 218.10319519 168.58352661 C 218.78009033 165.68847656 219.96191406 162.45539856 221.75308228 158.34342957 C 223.17124939 155.61000061 224.30241394 153.34875488 225.60136414 151.30987549 C 226.90031433 149.27099609 228.36705017 147.45449829 230.45635986 145.61056519 C 232.54565430 143.76660156 235.25753784 141.89520264 239.04679871 139.74653625 C 243.86766052 138.53630066 246.65112305 137.73089600 248.61181641 137.21191406 C 250.57250977 136.69291687 251.71046448 136.46032715 253.24032593 136.39572144 C 254.77020264 136.33111572 256.69198608 136.43447876 260.22033691 136.58737183 C 263.69152832 136.98834229 266.94827271 137.66574097 269.97048950 138.64036560 C 272.99273682 139.61499023 275.78045654 140.88684082 278.31356812 142.47673035 C 280.84671021 144.06661987 283.12524414 145.97454834 285.12915039 148.22131348 C 287.33984375 150.87463379 289.16390991 153.62164307 290.62985229 156.39363098 C 292.09579468 159.16561890 293.20361328 161.96258545 293.98181152 164.71578979 C 294.76000977 167.46900940 295.20855713 170.17849731 295.35604858 172.77551270 C 295.60684204 175.11285400 295.46469116 177.68748474 295.02981567 180.41438293 C 294.59497070 183.14128113 293.86737061 186.02044678 292.94729614 188.96684265 C 292.02722168 191.91325378 290.91461182 194.92687988 289.70977783 197.92272949 C 288.16629028 200.85964966 286.70587158 203.87974548 285.07531738 206.65858459 C 283.44476318 209.43743896 281.64410400 211.97502136 279.42004395 213.94692993 C 277.19601440 215.91882324 274.54858398 217.32504272 271.22460938 217.84115601" stroke-width="0.48024896" fill="rgb(2, 0, 0)" opacity="1.0" stroke="rgb(0, 0, 0)" stroke-opacity="1.0" stroke-linecap="round" stroke-linejoin="round"/>
    <path d="M 194.87286377 322.77050781 C 194.53761292 325.38659668 194.22613525 328.53021240 194.30529785 331.96755981 C 194.38446045 335.40487671 194.85427856 339.13592529 196.08160400 342.92694092 C 196.98913574 343.26397705 196.89239502 341.79812622 195.81042480 339.55984497 C 194.72843933 337.32153320 192.66122437 334.31079102 189.62777710 331.55804443 C 187.33961487 327.95083618 185.71881104 324.59664917 184.39489746 321.15365601 C 183.07098389 317.71066284 182.04397583 314.17883301 180.94338989 310.21636963 C 179.80337524 305.18267822 179.23094177 302.44961548 179.02082825 299.59164429 C 178.81072998 296.73370361 178.96295166 293.75088501 179.27226257 288.21774292 C 180.66145325 283.40283203 181.43215942 281.07287598 182.61941528 278.64971924 C 183.80667114 276.22653198 185.41046143 273.71017456 188.46582031 268.52249146 C 191.11862183 264.07882690 192.62503052 262.22052002 193.76123047 260.42990112 C 194.89744568 258.63925171 195.66345215 256.91632080 196.83543396 252.74334717 C 197.40139771 246.05262756 199.07098389 245.58990479 200.57684326 247.87780762 C 202.08268738 250.16571045 203.42480469 255.20423889 203.33578491 259.51602173 C 202.44570923 262.54916382 201.37651062 265.28475952 200.43948364 268.23706055 C 199.50244141 271.18933105 198.69757080 274.35827637 198.33612061 278.25811768 C 197.79397583 282.39620972 197.42605591 286.14358521 197.05332947 289.74203491 C 196.68060303 293.34051514 196.30303955 296.79003906 195.74165344 300.33239746 C 195.22640991 304.51794434 195.21240234 307.50292969 195.22560120 310.75378418 C 195.23880005 314.00463867 195.27923584 317.52139282 194.87286377 322.77050781" stroke-width="0.00000000" fill="rgb(7, 1, 2)" opacity="1.0" stroke="rgb(54, 50, 52)" stroke-opacity="1.0" stroke-linecap="round" stroke-linejoin="round"/>
    <path d="M 330.47631836 312.42163086 C 329.15347290 315.88397217 328.45684814 317.89108276 327.61303711 320.13586426 C 326.76922607 322.38061523 325.77825928 324.86303711 323.86672974 329.27587891 C 322.01788330 333.18560791 320.48251343 334.17980957 319.42135620 332.87097168 C 318.36016846 331.56210327 317.77319336 327.95013428 317.82104492 322.64752197 C 317.85113525 319.34997559 317.75491333 316.71411133 317.66540527 313.82269287 C 317.57589722 310.93130493 317.49310303 307.78436279 317.54998779 303.46472168 C 317.92456055 300.03378296 317.88803101 296.78344727 317.56085205 293.56692505 C 317.23370361 290.35040283 316.61593628 287.16766357 315.82809448 283.87188721 C 315.01892090 279.82788086 314.20361328 276.89999390 313.33520508 274.18566895 C 312.46679688 271.47134399 311.54534912 268.97058105 310.52383423 265.78082275 C 309.42337036 261.45446777 308.88415527 258.53570557 308.77871704 256.04879761 C 308.67324829 253.56187439 309.00155640 251.50680542 309.63610840 248.90783691 C 311.73681641 246.68791199 313.16000366 247.60671997 314.38668823 249.83213806 C 315.61337280 252.05757141 316.64355469 255.58963013 317.95825195 258.59622192 C 319.49255371 261.49536133 320.78417969 263.85366821 322.13851929 266.21255493 C 323.49285889 268.57144165 324.90991211 270.93090820 326.69506836 273.83245850 C 328.40173340 277.20819092 329.85626221 280.19970703 330.98370361 283.07537842 C 332.11114502 285.95104980 332.91152954 288.71087646 333.30993652 291.62316895 C 333.43453979 295.56896973 333.08703613 299.10968018 332.52789307 302.49340820 C 331.96881104 305.87713623 331.19808960 309.10382080 330.47631836 312.42163086" stroke-width="0.57174605" fill="rgb(2, 1, 1)" opacity="1.0" stroke="rgb(2, 1, 2)" stroke-opacity="1.0" stroke-linecap="round" stroke-linejoin="round"/>
    <path d="M 225.77636719 355.63827515 C 226.09918213 354.95526123 226.63316345 353.88772583 227.41601562 352.85342407 C 228.19888306 351.81912231 229.23062134 350.81805420 230.54895020 350.26803589 C 232.07507324 349.59521484 233.34759521 349.76580811 234.60227966 350.22808838 C 235.85696411 350.69036865 237.09379578 351.44433594 238.54849243 351.93820190 C 239.61724854 352.24877930 240.85896301 352.35620117 242.23704529 352.50460815 C 243.61514282 352.65301514 245.12960815 352.84240723 246.74385071 353.31683350 C 248.38529968 353.97283936 248.62545776 355.03543091 248.35906982 356.32046509 C 248.09266663 357.60546875 247.31971741 359.11291504 246.93493652 360.65863037 C 246.92468262 362.04681396 247.31173706 363.39892578 247.35733032 364.28305054 C 247.40292358 365.16717529 247.10702515 365.58328247 245.73086548 365.09942627 C 243.54971313 363.90582275 242.79371643 363.05471802 242.18208313 362.42669678 C 241.57046509 361.79870605 241.10317993 361.39379883 239.49946594 361.09259033 C 238.50158691 361.97790527 237.74325562 363.58209229 237.01982117 364.74316406 C 236.29640198 365.90423584 235.60787964 366.62213135 234.74963379 365.73483276 C 234.31814575 363.55651855 233.89553833 361.88092041 233.05877686 361.08694458 C 232.22198486 360.29296875 230.97103882 360.38058472 228.88279724 361.72869873 C 227.03829956 362.30767822 225.73937988 363.02630615 224.62353516 363.40957642 C 223.50769043 363.79284668 222.57489014 363.84072876 221.46264648 363.07818604 C 221.76292419 361.99877930 222.57360840 360.94598389 223.44309998 359.75946045 C 224.31259155 358.57293701 225.24087524 357.25268555 225.77636719 355.63827515" stroke-width="0.57502037" fill="rgb(241, 169, 78)" opacity="1.0" stroke="rgb(231, 180, 121)" stroke-opacity="1.0" stroke-linecap="round" stroke-linejoin="round"/>
    <path d="M 260.99447632 352.77600098 C 262.62887573 352.32183838 263.62500000 352.40093994 264.72326660 352.46047974 C 265.82153320 352.52001953 267.02197266 352.56005859 269.06497192 352.02786255 C 270.49383545 351.72485352 271.95645142 350.76708984 273.43801880 349.97790527 C 274.91961670 349.18869019 276.42013550 348.56802368 277.92477417 348.93914795 C 279.05487061 349.29302979 280.07641602 350.17031860 281.09188843 351.32614136 C 282.10733032 352.48196411 283.11663818 353.91632080 284.22219849 355.38430786 C 285.08169556 356.77703857 285.83050537 358.10006714 286.50897217 359.24069214 C 287.18740845 360.38131714 287.79553223 361.33953857 288.37359619 362.00271606 C 288.71414185 363.29574585 288.01281738 363.68029785 287.02426147 363.63796997 C 286.03573608 363.59564209 284.76000977 363.12646484 283.95178223 362.71197510 C 281.57696533 362.29165649 280.40286255 361.65972900 279.51284790 361.33929443 C 278.62280273 361.01889038 278.01684570 361.00997925 276.77822876 361.83569336 C 276.01342773 363.69305420 275.75521851 365.26275635 275.20474243 366.25765991 C 274.65429688 367.25259399 273.81158447 367.67279053 271.87780762 367.23110962 C 271.50567627 364.95455933 271.18203735 363.63037109 270.46487427 363.30230713 C 269.74768066 362.97427368 268.63699341 363.64233398 266.69070435 365.35034180 C 265.08721924 366.05062866 264.11633301 365.77166748 263.49130249 364.82751465 C 262.86627197 363.88330078 262.58709717 362.27389526 262.36700439 360.31323242 C 262.40332031 359.01971436 261.29998779 357.77926636 260.56765747 356.54028320 C 259.83535767 355.30126953 259.47406006 354.06372070 260.99447632 352.77600098" stroke-width="0.00000000" fill="rgb(238, 167, 81)" opacity="1.0" stroke="rgb(134, 255, 199)" stroke-opacity="1.0" stroke-linecap="round" stroke-linejoin="round"/>
    <path d="M 248.16560364 193.46835327 C 248.48983765 193.39579773 249.28749084 192.97180176 250.26510620 192.45355225 C 251.24270630 191.93530273 252.40026855 191.32278442 253.44435120 190.87318420 C 254.47299194 190.47624207 255.25407410 190.29966736 256.03689575 190.33576965 C 256.81970215 190.37187195 257.60424805 190.62066650 258.63986206 191.07444763 C 260.12756348 191.55279541 260.89324951 191.74966431 261.66003418 192.02485657 C 262.42678833 192.30003357 263.19464111 192.65351868 264.68655396 193.44508362 C 265.74230957 194.04228210 266.86303711 194.86824036 267.59075928 195.69171143 C 268.31845093 196.51516724 268.65313721 197.33613586 268.13684082 197.92335510 C 267.70068359 198.26712036 267.01797485 198.92547607 266.27243042 199.68212891 C 265.52691650 200.43878174 264.71856689 201.29373169 264.03121948 202.03073120 C 262.40478516 203.12344360 261.67495728 203.59660339 261.20468140 203.99360657 C 260.73443604 204.39059448 260.52368164 204.71145630 259.93545532 205.49955750 C 259.14782715 207.16694641 258.44921875 208.12879944 257.64443970 208.40191650 C 256.83963013 208.67501831 255.92858887 208.25938416 254.71603394 207.17178345 C 253.88409424 206.32890320 253.17213440 205.41195679 252.42543030 204.54817200 C 251.67872620 203.68440247 250.89727783 202.87379456 249.92633057 202.24360657 C 248.91400146 201.46073914 247.96986389 200.72625732 247.09407043 200.04217529 C 246.21826172 199.35809326 245.41079712 198.72439575 244.67179871 198.14311218 C 244.08113098 196.92930603 244.14654541 196.44540405 244.76365662 195.92254639 C 245.38075256 195.39970398 246.54953003 194.83792114 248.16560364 193.46835327" stroke-width="0.42600811" fill="rgb(248, 203, 108)" opacity="1.0" stroke="rgb(164, 133, 101)" stroke-opacity="1.0" stroke-linecap="round" stroke-linejoin="round"/>
    <path d="M 271.95324707 178.97210693 C 271.43048096 178.43357849 270.22521973 177.08499146 269.36260986 175.35276794 C 268.93411255 173.93688965 268.82678223 172.76338196 268.91113281 170.88356018 C 268.60272217 169.27816772 269.71859741 167.57269287 271.04196167 166.50210571 C 272.39947510 165.14892578 274.29708862 164.28038025 275.62945557 164.06706238 C 277.48596191 164.14178467 278.96319580 165.15313721 280.42852783 166.12310791 C 282.45233154 168.43357849 282.22717285 167.82499695 283.03704834 169.46566772 C 283.78433228 171.05039978 283.81475830 173.07780457 283.67187500 174.85871887 C 283.02255249 177.08184814 282.33438110 178.46052551 281.50408936 179.46029663 C 280.14779663 180.92227173 278.58837891 181.73507690 277.07568359 181.65713501 C 275.41555786 181.65209961 274.30645752 180.73025513 271.95324707 178.97210693" stroke-width="0.36118713" fill="rgb(219, 219, 219)" opacity="1.0" stroke="rgb(172, 172, 171)" stroke-opacity="1.0" stroke-linecap="round" stroke-linejoin="round"/>
    <path d="M 243.14842224 174.16455078 C 242.74127197 175.47836304 241.79373169 177.47975159 241.06214905 178.58233643 C 239.83668518 179.73411560 238.56771851 180.53480530 237.27713013 181.78894043 C 235.45292664 182.69902039 234.96528625 181.95249939 232.91384888 180.79670715 C 231.44470215 179.72029114 230.22067261 178.95242310 229.19615173 177.06214905 C 228.67581177 175.31199646 228.48406982 173.24923706 228.54850769 172.05902100 C 229.23136902 168.89862061 228.84236145 169.47047424 229.74714661 167.96305847 C 230.88713074 166.58839417 232.58796692 165.34924316 234.17086792 164.72869873 C 236.57051086 164.00299072 237.85530090 164.15869141 239.11187744 165.14897156 C 240.59947205 166.29968262 241.90214539 167.95315552 242.36557007 168.84979248 C 243.72380066 170.80081177 243.59426880 171.75695801 243.14842224 174.16455078" stroke-width="0.37508240" fill="rgb(211, 212, 211)" opacity="1.0" stroke="rgb(144, 146, 144)" stroke-opacity="1.0" stroke-linecap="round" stroke-linejoin="round"/>
    <path d="M 272.21206665 171.39122009 C 272.33767700 171.10121155 272.78848267 169.53146362 273.41696167 168.45776367 C 274.04736328 167.74809265 275.05252075 167.38024902 276.63330078 167.50648499 C 277.66787720 167.63232422 278.80670166 167.73605347 279.71087646 168.67901611 C 280.66983032 169.65115356 280.98348999 170.87854004 281.75100708 171.69927979 C 282.63647461 172.88586426 282.53149414 173.74890137 282.33221436 174.75343323 C 281.31466675 176.76713562 281.61224365 176.43453979 280.89804077 177.42951965 C 280.19708252 178.37214661 278.55905151 178.84254456 277.50708008 178.94584656 C 275.62539673 178.79103088 275.25036621 178.43434143 274.21524048 177.75157166 C 273.02722168 177.05967712 271.97906494 176.06480408 271.74960327 175.45848083 C 271.38400269 174.18959045 271.97836304 173.58212280 272.21206665 171.39122009" stroke-width="0.35101122" fill="rgb(7, 7, 7)" opacity="1.0" stroke="rgb(96, 96, 95)" stroke-opacity="1.0" stroke-linecap="round" stroke-linejoin="round"/>
    <path d="M 231.08445740 176.55755615 C 230.74928284 176.11157227 230.00318909 174.57716370 229.49214172 173.54434204 C 229.32597351 172.47067261 230.05175781 171.66453552 230.70480347 170.31571960 C 231.30215454 169.09584045 231.36663818 168.65431213 232.84748840 167.63340759 C 234.05154419 166.98228455 235.47392273 167.32339478 236.34463501 167.84321594 C 237.88284302 168.14227295 238.67521667 168.56219482 239.33439636 169.38088989 C 240.34729004 171.55381775 240.06948853 171.29165649 240.64004517 172.37939453 C 241.29588318 172.99203491 240.34057617 174.49751282 239.87773132 175.74171448 C 239.07121277 177.33415222 239.18161011 177.80252075 237.95509338 178.43513489 C 236.84104919 179.18699646 235.14892578 179.03926086 234.42758179 178.65538025 C 232.74696350 178.29043579 232.69673157 178.14976501 231.08445740 176.55755615" stroke-width="1.38578546" fill="rgb(1, 1, 1)" opacity="1.0" stroke="rgb(238, 237, 239)" stroke-opacity="1.0" stroke-linecap="round" stroke-linejoin="round"/>
  </g>
</svg>
