<?xml version="1.0" ?>
<svg xmlns="http://www.w3.org/2000/svg" version="1.1" width="512" height="512" viewBox="0 0 512 512">
  <defs/>
  <g>
    <path d="M 569.47491455 463.51144409 C 557.48083496 471.70861816 545.49804688 479.99020386 533.42510986 488.19128418 C 521.34362793 496.17095947 508.99133301 504.02642822 496.48065186 511.51757812 C 483.70971680 518.60498047 470.57635498 525.31573486 457.19247437 531.57006836 C 443.48449707 537.43536377 429.37496948 542.82525635 414.94436646 547.70684814 C 400.24566650 552.22784424 385.04702759 556.24957275 369.68054199 559.79241943 C 354.02062988 562.97100830 337.94360352 565.64636230 321.58895874 567.92016602 C 305.06692505 569.79345703 288.25036621 571.28668213 271.24612427 572.46203613 C 254.12442017 573.21301270 236.89147949 573.60589600 219.55294800 573.55218506 C 202.21037292 573.01275635 184.86598206 572.00354004 167.56443787 570.45397949 C 150.39509583 568.28387451 133.33735657 565.45477295 116.56957245 561.88964844 C 100.07844543 557.60351562 83.99960327 552.38958740 68.47942352 546.41497803 C 53.51091385 539.49908447 39.39501572 531.63116455 26.13591957 522.90460205 C 13.96089268 513.23291016 3.02437186 502.70535278 -6.64947081 491.40567017 C -14.90723610 479.43731689 -21.71117592 467.02246094 -26.91406631 454.27871704 C -30.72766876 441.44998169 -32.84656906 428.67596436 -33.36265182 416.17388916 C -32.27169800 404.18051147 -29.67093849 392.71533203 -25.33152580 382.12121582 C -19.52552795 372.46948242 -12.13843822 363.85891724 -3.29182243 356.52578735 C 7.06453705 350.54083252 18.79308701 345.99911499 31.77226639 342.84896851 C 45.96728516 341.03381348 61.08509445 340.12554932 77.00986481 339.91891479 C 93.64066315 340.07669067 110.71994019 340.39517212 128.23039246 340.72378540 C 145.98841858 340.89450073 163.95611572 340.88958740 182.04246521 340.87640381 C 200.13677979 340.78356934 218.32487488 340.63925171 236.32566833 340.60742188 C 254.32089233 340.57702637 272.16445923 340.54931641 289.76242065 340.66537476 C 307.20938110 340.70916748 324.44726562 340.81259155 341.41421509 340.91891479 C 358.10791016 340.96673584 374.52813721 340.92666626 390.64016724 340.92483521 C 406.34829712 340.88748169 421.73464966 340.81045532 436.72308350 340.84597778 C 451.26675415 341.12231445 465.46432495 341.95556641 479.15600586 343.61621094 C 492.44125366 346.35665894 505.38662720 350.01303101 517.90478516 354.54800415 C 530.25524902 359.77163696 542.34204102 365.33221436 554.36175537 371.19476318 C 566.39080811 377.22955322 578.27050781 383.28347778 569.47491455 463.51144409" stroke-width="2.00000000" fill="rgb(230, 244, 248)" opacity="1.0" stroke="rgb(204, 234, 242)" stroke-opacity="0.118423596" stroke-linecap="round" stroke-linejoin="round"/>
    <path d="M 67.45949554 367.67395020 C 68.26187897 368.95654297 69.12058258 370.13433838 69.93241882 371.40811157 C 70.67697144 372.64904785 71.38367462 373.90783691 71.99260712 375.15710449 C 72.51676178 376.43261719 72.87014008 377.61776733 73.11241913 378.78369141 C 73.19242096 379.89608765 73.00128174 380.88220215 72.60916901 381.72470093 C 71.99753571 382.50625610 71.09033203 383.03372192 70.02305603 383.44653320 C 68.65193939 383.71310425 67.20322418 383.88784790 65.48851776 383.95764160 C 63.73836136 384.00012207 61.85407257 384.00106812 59.85802841 384.00042725 C 57.88695526 383.96749878 55.86301422 383.97973633 53.80100632 383.98193359 C 51.86274719 383.96066284 49.91466904 384.00787354 48.06532288 384.01486206 C 46.32468796 383.95770264 44.65990448 383.95477295 43.24402618 383.86080933 C 41.91780853 383.60687256 40.79811859 383.29147339 39.83497238 382.82766724 C 39.23722839 382.16436768 38.73350143 381.37747192 38.50870895 380.45870972 C 38.44757462 379.37301636 38.64285660 378.24548340 38.91741943 376.96441650 C 39.43192291 375.63369751 40.01648331 374.30892944 40.73710632 372.89221191 C 41.57989883 371.45046997 42.45104218 370.12695312 43.48832321 368.76678467 C 44.50765610 367.42260742 45.64045334 366.31704712 46.83876038 365.17803955 C 48.04720306 364.25180054 49.33749771 363.48608398 50.65331650 362.86959839 C 51.97786331 362.44271851 53.32006836 362.19815063 54.69938660 362.13397217 C 56.01183319 362.13235474 57.36730194 362.31488037 58.69306183 362.58013916 C 59.99593735 362.79034424 61.33685684 363.07006836 67.45949554 367.67395020" stroke-width="1.18963039" fill="rgb(190, 231, 244)" opacity="1.0" stroke="rgb(198, 236, 244)" stroke-opacity="0.6275849" stroke-linecap="round" stroke-linejoin="round"/>
    <path d="M 221.87219238 393.41656494 C 220.91958618 393.49328613 219.96028137 393.47998047 218.99134827 393.56753540 C 217.91564941 393.55780029 216.84255981 393.56427002 215.67446899 393.60479736 C 214.42344666 393.59512329 213.11618042 393.59368896 211.78814697 393.62127686 C 210.35487366 393.66061401 208.82498169 393.67462158 207.32644653 393.68511963 C 205.74594116 393.72064209 204.11943054 393.74346924 202.53407288 393.72766113 C 200.92343140 393.78808594 199.39372253 393.77328491 197.85343933 393.77578735 C 196.47114563 393.71893311 195.14898682 393.58712769 193.96087646 393.26849365 C 193.04139709 392.93270874 192.19406128 392.30670166 191.60273743 391.60186768 C 191.31719971 390.76513672 191.17842102 389.73217773 191.23483276 388.65927124 C 191.51634216 387.49133301 191.92147827 386.23599243 192.43424988 384.94909668 C 193.06176758 383.66958618 193.75207520 382.26446533 194.52627563 381.00811768 C 195.29450989 379.67767334 196.17427063 378.46194458 197.06480408 377.22726440 C 197.99853516 376.21270752 199.02214050 375.23962402 200.08616638 374.42398071 C 201.18666077 373.84707642 202.41674805 373.34402466 203.61390686 373.12542725 C 204.89814758 372.99057007 206.17736816 373.06265259 207.48571777 373.23809814 C 208.80258179 373.55941772 210.03352356 374.02142334 211.33041382 374.61694336 C 212.51997375 375.29058838 213.64224243 376.16232300 214.76496887 377.10848999 C 215.79856873 378.15191650 216.73339844 379.24526978 217.69673157 380.49114990 C 218.60418701 381.69995117 219.42565918 382.92913818 220.23675537 384.26605225 C 221.09175110 385.52951050 221.84129333 386.84451294 221.87219238 393.41656494" stroke-width="1.65111184" fill="rgb(190, 234, 245)" opacity="1.0" stroke="rgb(224, 245, 250)" stroke-opacity="0.9735224" stroke-linecap="round" stroke-linejoin="round"/>
    <path d="M 419.84713745 374.61135864 C 418.82192993 374.70062256 417.89163208 374.79360962 416.85324097 374.85940552 C 415.78543091 374.92532349 414.68579102 374.96984863 413.46408081 375.01135254 C 412.24301147 375.02359009 410.89431763 375.03317261 409.47280884 375.04440308 C 408.00759888 375.06799316 406.49188232 375.03173828 404.88311768 375.09509277 C 403.27920532 375.10336304 401.67721558 375.12524414 400.01876831 375.14044189 C 398.45251465 375.16436768 396.94949341 375.16079712 395.45254517 375.10885620 C 394.07611084 374.98867798 392.88751221 374.82061768 391.77761841 374.55267334 C 390.89822388 374.09756470 390.18930054 373.51168823 389.74172974 372.83795166 C 389.44778442 371.95150757 389.44805908 370.97094727 389.55850220 369.92584229 C 389.88192749 368.74029541 390.33480835 367.50860596 390.88961792 366.25064087 C 391.48452759 364.89144897 392.28961182 363.60525513 392.97482300 362.25161743 C 393.82299805 360.97201538 394.72619629 359.77410889 395.59045410 358.59683228 C 396.60009766 357.56420898 397.57244873 356.63870239 398.59347534 355.84463501 C 399.64678955 355.25061035 400.76846313 354.78460693 401.87780762 354.53601074 C 402.97848511 354.50964355 404.15716553 354.62200928 405.35324097 354.90283203 C 406.44012451 355.35458374 407.65844727 355.86968994 408.75463867 356.55285645 C 409.88095093 357.31173706 410.93994141 358.13665771 411.99270630 359.07809448 C 412.94708252 360.08541870 413.92376709 361.16665649 414.76635742 362.24877930 C 415.69415283 363.42681885 416.43045044 364.60766602 417.29946899 365.81356812 C 418.08132935 366.99166870 418.82205200 368.24761963 419.84713745 374.61135864" stroke-width="1.09820163" fill="rgb(188, 231, 245)" opacity="1.0" stroke="rgb(186, 233, 244)" stroke-opacity="0.42728037" stroke-linecap="round" stroke-linejoin="round"/>
    <path d="M 113.43794250 413.46252441 C 113.99795532 414.37377930 114.69422150 415.35815430 115.23931885 416.27813721 C 115.75960541 417.25643921 116.26941681 418.19543457 116.65734100 419.20513916 C 116.89183044 420.08444214 117.04672241 421.00646973 117.03738403 421.85403442 C 116.84841919 422.63320923 116.44050598 423.26678467 115.90614319 423.85266113 C 115.15198517 424.29818726 114.15393829 424.57788086 113.07561493 424.82269287 C 111.79879761 424.86236572 110.32755280 424.94119263 108.88775635 424.99661255 C 107.22911835 424.92138672 105.55837250 424.93707275 103.86878204 424.90930176 C 102.07874298 424.90878296 100.38285065 424.93338013 98.64929199 424.93090820 C 97.00495148 424.95446777 95.36519623 424.97457886 93.90293121 424.93295288 C 92.43624878 424.85223389 91.18762970 424.70153809 90.05213165 424.45837402 C 89.09054565 424.06439209 88.31794739 423.59225464 87.72987366 422.93780518 C 87.38489532 422.17080688 87.19818115 421.27069092 87.20796204 420.30001831 C 87.41087341 419.20074463 87.77683258 418.04074097 88.21375275 416.81225586 C 88.80689240 415.58953857 89.51094055 414.26965332 90.24848938 413.04394531 C 91.11529541 411.77069092 91.98641205 410.53704834 92.94950867 409.48913574 C 93.91870880 408.34872437 94.96916962 407.48355103 96.01127625 406.67422485 C 97.11053467 406.06243896 98.24023438 405.64382935 99.42289734 405.40731812 C 100.56367493 405.34793091 101.75376892 405.45794678 102.98822784 405.67697144 C 104.12502289 406.01022339 105.27139282 406.37963867 106.46470642 406.81597900 C 107.56638336 407.32785034 108.67541504 407.70745850 113.43794250 413.46252441" stroke-width="1.26014912" fill="rgb(183, 233, 245)" opacity="1.0" stroke="rgb(192, 235, 244)" stroke-opacity="0.5850225" stroke-linecap="round" stroke-linejoin="round"/>
    <path d="M 319.65240479 431.73324585 C 318.19088745 431.79962158 316.72659302 431.86422729 315.20117188 431.86657715 C 313.70715332 431.95797729 312.14495850 431.89501953 310.52200317 431.96087646 C 308.92190552 431.91921997 307.20474243 431.95245361 305.52395630 431.91342163 C 303.76596069 431.92871094 302.03115845 431.95913696 300.29016113 431.96273804 C 298.55285645 431.97705078 296.84826660 432.00595093 295.25997925 431.99194336 C 293.65029907 431.98974609 292.23165894 431.91284180 290.92245483 431.68984985 C 289.74450684 431.46063232 288.78482056 431.01177979 288.02902222 430.40267944 C 287.50076294 429.68994141 287.18853760 428.76782227 287.11477661 427.73547363 C 287.26416016 426.63137817 287.50555420 425.34152222 288.01028442 424.08142090 C 288.57263184 422.68115234 289.23312378 421.32855225 290.04708862 419.90408325 C 290.90518188 418.52719116 291.86181641 417.18945312 292.87451172 415.92651367 C 294.01559448 414.74862671 295.14117432 413.65475464 296.40780640 412.78308105 C 297.69055176 412.00149536 298.99691772 411.32391357 300.40908813 410.98202515 C 301.80319214 410.72915649 303.17541504 410.61206055 304.64468384 410.75918579 C 306.02102661 411.00860596 307.39895630 411.39782715 308.77087402 411.96597290 C 310.08853149 412.63943481 311.36254883 413.41567993 312.56164551 414.26165771 C 313.71728516 415.25961304 314.78134155 416.37179565 315.76034546 417.45809937 C 316.62237549 418.69577026 317.44091797 420.01403809 318.14355469 421.32034302 C 318.82360840 422.71508789 319.38040161 424.06838989 319.96600342 425.50558472 C 320.54565430 426.89035034 321.03897095 428.30496216 319.65240479 431.73324585" stroke-width="1.11433804" fill="rgb(186, 233, 245)" opacity="1.0" stroke="rgb(205, 239, 246)" stroke-opacity="0.79811245" stroke-linecap="round" stroke-linejoin="round"/>
    <path d="M 274.10824585 345.70520020 C 269.04998779 344.73840332 263.92996216 343.83428955 258.71014404 342.86795044 C 253.64779663 341.85894775 248.56988525 340.82733154 243.61064148 339.76403809 C 238.72218323 338.45858765 234.06654358 337.12524414 229.49002075 335.54339600 C 225.22645569 333.81207275 221.15008545 331.80252075 217.51567078 329.49270630 C 214.11863708 326.90600586 211.33477783 323.85964966 209.02252197 320.24746704 C 207.31654358 316.07702637 205.93186951 311.41763306 204.58248901 306.43920898 C 203.22143555 301.23272705 202.06222534 295.94848633 201.02526855 290.41635132 C 199.93548584 284.93774414 198.88319397 279.48147583 197.96231079 273.94934082 C 197.11738586 268.48214722 196.46440125 263.09530640 196.45816040 257.84133911 C 197.20338440 252.54504395 198.32946777 247.28955078 199.77011108 242.12055969 C 201.26338196 236.90213013 203.06980896 231.80413818 205.31703186 226.80068970 C 207.81053162 221.82528687 210.61021423 217.01416016 213.68995667 212.30424500 C 216.70686340 207.45526123 219.78395081 202.72908020 223.03843689 198.28479004 C 226.27893066 193.87500000 229.79277039 189.83004761 233.46278381 186.23272705 C 237.20223999 183.01568604 241.02319336 180.07707214 244.87150574 177.68379211 C 248.71069336 175.79666138 252.56893921 174.38603210 256.44729614 173.43157959 C 260.20349121 173.04512024 263.83700562 173.30685425 267.50695801 174.05889893 C 271.03878784 175.35690308 274.32467651 177.22454834 277.48754883 179.52894592 C 280.49765015 182.36437988 283.43603516 185.62191772 286.05529785 189.21134949 C 288.43713379 193.19836426 290.69781494 197.49157715 292.75784302 201.93025208 C 294.93395996 206.29409790 297.71453857 210.43650818 300.68426514 214.53924561 C 303.39343262 218.82536316 305.72637939 223.37638855 307.95233154 228.10694885 C 310.05676270 232.84111023 311.90673828 237.70129395 313.29769897 242.67642212 C 314.72555542 247.63984680 315.88601685 252.58895874 316.27056885 257.60031128 C 315.97009277 262.75610352 315.31671143 267.89511108 314.51516724 273.19894409 C 313.66397095 278.56607056 312.86282349 283.84207153 312.02334595 289.05468750 C 311.38214111 294.37326050 310.40719604 299.31344604 308.88293457 304.12338257 C 307.16549683 309.01239014 305.55661011 313.76229858 303.63485718 318.42602539 C 301.05889893 322.67285156 298.33172607 326.80163574 295.45950317 330.89450073 C 292.59527588 335.02435303 289.78439331 339.12734985 274.10824585 345.70520020" stroke-width="0.72263312" fill="rgb(0, 3, 2)" opacity="1.0" stroke="rgb(0, 0, 0)" stroke-opacity="0.4997685" stroke-linecap="round" stroke-linejoin="round"/>
    <path d="M 303.60723877 305.27655029 C 302.83947754 308.82659912 301.89239502 312.27474976 300.97256470 315.75704956 C 300.46096802 319.43447876 300.04660034 323.12057495 299.36892700 326.78253174 C 297.97314453 330.40304565 296.17758179 333.99291992 293.94860840 337.57775879 C 291.52215576 340.99328613 288.70242310 344.28045654 285.72882080 347.41741943 C 282.55532837 350.31570435 279.18911743 352.95520020 275.59066772 355.23345947 C 271.88134766 357.24929810 268.03836060 358.82208252 264.13632202 360.10504150 C 260.10754395 360.89947510 256.02783203 361.37918091 252.00593567 361.43087769 C 247.91146851 361.06799316 243.94961548 360.30429077 240.03640747 359.16467285 C 236.23847961 357.61123657 232.64971924 355.56674194 229.27633667 353.20275879 C 226.08236694 350.51684570 223.10722351 347.37823486 220.51657104 343.92813110 C 218.19883728 340.14825439 216.20281982 336.14184570 214.64550781 331.97229004 C 213.31724548 327.45684814 212.44367981 322.89529419 211.67587280 318.30148315 C 210.63157654 313.79745483 209.66265869 309.28613281 208.99267578 304.75863647 C 208.27644348 300.30935669 207.87365723 296.01351929 207.65322876 291.69149780 C 207.28942871 287.41744995 207.40731812 283.25744629 207.73959351 279.24246216 C 208.67150879 275.25640869 209.45944214 271.32348633 210.04597473 267.29299927 C 210.68928528 263.16744995 211.57833862 259.15316772 212.82456970 255.22985840 C 214.31391907 251.22331238 216.06309509 247.17428589 217.90620422 243.29635620 C 219.94471741 239.42410278 222.45710754 235.77027893 225.11328125 232.36630249 C 227.89846802 229.21025085 230.99291992 226.22300720 234.31840515 223.72521973 C 237.75804138 221.58131409 241.34640503 220.00413513 245.20248413 218.87400818 C 249.12286377 217.89256287 253.14094543 217.17863464 257.27084351 216.97148132 C 261.41583252 217.45449829 265.36004639 218.39637756 269.39721680 219.95504761 C 273.46453857 221.65673828 277.43438721 223.68128967 281.03173828 226.10162354 C 284.41036987 228.89958191 287.32864380 232.16279602 289.93643188 235.75843811 C 292.59515381 239.36468506 294.85299683 243.14717102 296.81814575 247.19380188 C 298.54037476 251.27920532 300.03463745 255.52101135 301.13748169 259.89190674 C 302.25393677 264.23330688 303.29742432 268.53027344 304.21792603 272.91372681 C 304.96908569 277.27789307 305.38449097 281.61071777 305.52285767 285.91177368 C 305.46057129 290.35058594 305.43948364 294.74942017 303.60723877 305.27655029" stroke-width="0.61510837" fill="rgb(245, 241, 233)" opacity="1.0" stroke="rgb(249, 249, 247)" stroke-opacity="0.46119893" stroke-linecap="round" stroke-linejoin="round"/>
    <path d="M 274.44561768 216.27317810 C 271.07614136 216.34234619 267.80166626 216.44023132 264.57220459 216.45088196 C 261.26757812 216.48808289 257.96536255 216.54035950 254.70129395 216.45494080 C 251.50648499 216.61555481 248.28007507 216.53184509 245.11273193 216.40391541 C 242.00343323 216.15071106 239.02532959 215.73152161 236.11517334 215.15676880 C 233.31410217 214.42628479 230.70086670 213.50790405 228.30964661 212.34989929 C 226.15396118 211.05567932 224.30706787 209.60931396 222.67317200 207.89355469 C 221.51539612 205.99832153 220.73977661 203.93170166 220.42724609 201.68946838 C 220.59178162 199.27499390 220.82575989 196.71781921 221.02857971 194.12725830 C 220.74118042 191.49723816 219.91171265 188.76350403 218.81111145 186.08575439 C 217.95091248 183.26721191 217.56451416 180.28053284 217.45257568 177.24005127 C 217.27708435 174.14639282 217.48132324 171.04238892 218.06712341 167.97444153 C 218.74362183 164.94079590 219.84530640 162.05957031 221.13034058 159.16831970 C 222.34179688 156.36178589 223.77738953 153.73544312 225.33634949 151.15420532 C 227.07896423 148.81571960 228.95318604 146.62294006 231.05380249 144.64974976 C 233.24832153 142.89122009 235.69012451 141.48114014 238.19955444 140.14724731 C 240.81484985 139.04496765 243.41831970 138.16809082 246.19850159 137.37886047 C 249.00608826 136.73866272 251.76715088 136.31610107 254.48547363 136.12739563 C 257.26956177 136.14717102 260.15792847 136.36291504 263.01879883 136.68379211 C 265.84024048 137.06716919 268.54669189 137.73803711 271.23028564 138.80737305 C 273.86148071 139.92489624 276.41680908 141.15702820 278.89715576 142.59504700 C 281.32131958 144.09883118 283.28109741 146.05610657 285.25561523 148.07733154 C 287.21258545 150.14399719 288.88049316 152.53585815 290.15185547 155.17269897 C 291.50549316 157.93484497 292.84765625 160.75354004 293.87286377 163.67948914 C 294.83258057 166.75726318 295.53390503 169.85002136 295.84570312 172.95239258 C 295.71502686 176.13470459 295.41583252 179.23507690 294.98458862 182.28587341 C 294.36654663 185.27189636 293.46444702 188.00737000 292.55596924 190.64372253 C 291.88787842 193.35614014 291.55203247 196.05081177 291.35064697 198.71443176 C 290.85168457 201.43627930 290.07183838 204.16668701 289.05706787 206.80816650 C 287.94281006 209.39744568 286.67233276 212.12866211 285.32800293 214.75434875 C 283.90493774 217.31825256 282.57580566 220.00654602 274.44561768 216.27317810" stroke-width="0.66103321" fill="rgb(4, 0, 0)" opacity="1.0" stroke="rgb(0, 0, 0)" stroke-opacity="0.49265194" stroke-linecap="round" stroke-linejoin="round"/>
    <path d="M 194.22724915 333.77423096 C 193.86320496 333.70260620 193.52038574 333.83813477 192.99234009 333.97656250 C 192.62770081 333.97128296 192.58935547 333.93240356 192.50083923 334.15231323 C 192.21582031 334.54650879 191.99255371 334.60110474 191.68576050 334.37832642 C 191.19914246 333.90469360 190.41023254 332.91680908 189.40689087 331.33486938 C 188.12577820 329.15216064 186.84756470 326.31277466 185.55587769 322.99554443 C 184.10946655 319.11059570 182.63171387 315.26449585 181.29400635 311.23519897 C 180.06195068 307.21551514 179.30238342 303.40805054 178.95843506 299.66613770 C 178.81474304 295.80361938 178.92050171 292.05923462 179.29145813 288.55050659 C 180.01445007 285.29708862 181.06838989 282.02764893 182.66246033 278.84512329 C 184.49603271 275.75527954 186.47599792 272.75009155 188.51434326 269.28930664 C 190.45736694 265.75280762 192.41502380 262.62542725 194.20884705 259.67813110 C 195.56977844 257.21264648 196.26051331 255.15138245 196.61859131 253.51268005 C 196.96612549 252.49378967 197.42317200 252.19288635 197.70556641 252.63528442 C 197.93658447 253.59315491 198.24800110 254.93542480 198.58880615 256.79421997 C 198.87492371 259.24438477 199.01524353 262.02011108 198.94480896 265.07397461 C 198.80888367 268.26229858 198.59434509 271.60574341 198.30885315 275.09848022 C 198.09136963 278.70605469 197.86485291 282.61682129 197.43067932 286.54598999 C 196.90339661 290.56015015 196.24279785 294.90838623 195.60758972 299.30450439 C 195.31120300 303.78991699 195.22294617 308.39630127 195.16783142 312.92352295 C 195.23757935 317.46942139 195.10821533 322.01181030 194.22724915 333.77423096" stroke-width="0.27241534" fill="rgb(5, 2, 3)" opacity="1.0" stroke="rgb(97, 96, 96)" stroke-opacity="0.5875358" stroke-linecap="round" stroke-linejoin="round"/>
    <path d="M 328.20629883 318.84484863 C 327.29217529 321.90625000 326.18508911 324.74954224 325.17089844 327.38128662 C 324.05136108 329.77786255 322.85501099 331.79263306 321.62823486 333.16461182 C 320.66259766 334.01931763 319.77725220 334.10089111 319.07675171 333.57965088 C 318.74337769 332.43023682 318.47573853 330.61288452 318.19989014 328.33093262 C 317.90255737 325.62036133 317.76644897 322.46963501 317.67443848 318.99047852 C 317.61886597 315.23007202 317.59170532 311.30694580 317.63558960 307.13275146 C 317.61206055 302.92031860 317.44653320 298.70169067 317.18133545 294.46072388 C 316.76156616 290.35382080 316.06329346 286.36444092 315.27191162 282.37902832 C 314.62121582 278.58731079 314.09155273 274.95010376 313.59817505 271.43841553 C 313.35494995 268.05145264 313.24191284 264.98706055 313.22442627 262.11508179 C 313.20251465 259.52487183 313.34680176 257.27322388 313.57049561 255.42884827 C 313.84921265 253.85816956 314.24594116 252.78234863 314.63049316 252.09542847 C 315.10681152 251.80168152 315.56799316 252.08483887 315.87393188 252.84109497 C 316.17233276 254.10356140 316.76303101 255.79113770 317.62008667 257.66558838 C 318.67904663 259.78500366 320.09616089 262.07092285 321.61398315 264.62033081 C 323.03311157 267.31820679 324.61129761 270.20428467 326.27615356 273.07382202 C 327.91232300 275.94152832 329.46307373 278.97921753 330.84259033 281.92626953 C 332.00161743 284.80944824 332.79980469 287.81796265 333.22567749 290.78927612 C 333.33276367 293.85253906 333.25936890 296.93347168 333.17840576 300.00854492 C 333.03781128 303.09524536 332.87716675 306.09677124 328.20629883 318.84484863" stroke-width="0.69913852" fill="rgb(1, 5, 0)" opacity="1.0" stroke="rgb(0, 0, 0)" stroke-opacity="0.5085115" stroke-linecap="round" stroke-linejoin="round"/>
    <path d="M 228.52397156 352.20410156 C 228.94786072 351.61990356 229.33062744 351.06094360 229.80258179 350.60882568 C 230.37414551 350.30328369 231.08544922 350.11581421 231.94638062 350.20132446 C 232.91189575 350.41961670 234.16621399 350.71566772 235.45008850 351.16876221 C 236.90965271 351.53280640 238.39912415 351.98962402 240.02809143 352.43200684 C 241.57609558 352.87466431 243.16242981 353.10650635 244.57366943 353.38775635 C 245.83934021 353.65652466 246.84616089 353.99819946 247.46911621 354.64593506 C 247.76380920 355.61788940 247.72863770 356.91690063 247.52001953 358.29660034 C 247.34294128 359.78692627 247.21183777 361.25064087 246.99145508 362.63143921 C 246.78254700 363.68911743 246.49215698 364.68740845 246.11952209 365.11871338 C 245.69760132 365.12588501 245.25012207 364.74795532 244.62576294 364.07543945 C 244.06935120 363.24893188 243.31016541 362.39910889 242.50714111 361.69619751 C 241.56607056 361.22354126 240.46794128 361.16775513 239.44961548 361.29333496 C 238.55162048 361.79144287 237.70735168 362.39974976 237.04888916 363.15145874 C 236.44346619 363.91607666 235.95736694 364.36151123 235.49572754 364.42904663 C 235.10411072 364.05334473 234.67465210 363.28454590 234.24061584 362.44979858 C 233.70651245 361.64807129 232.91653442 361.03311157 231.98922729 360.67120361 C 231.00862122 360.52334595 229.85830688 360.54824829 228.83871460 360.80114746 C 227.72279358 361.24658203 226.77221680 361.89456177 225.79396057 362.57839966 C 224.79365540 363.14495850 223.78268433 363.67300415 222.68482971 364.03955078 C 221.55358887 364.33099365 220.51512146 364.70944214 228.52397156 352.20410156" stroke-width="1.18321705" fill="rgb(242, 172, 73)" opacity="1.0" stroke="rgb(224, 178, 121)" stroke-opacity="0.9839607" stroke-linecap="round" stroke-linejoin="round"/>
    <path d="M 261.05303955 353.96502686 C 262.78875732 353.77142334 264.49865723 353.51568604 266.23016357 353.24746704 C 267.98345947 352.96804810 269.62664795 352.57376099 271.21414185 352.22222900 C 272.69604492 351.86389160 274.05752563 351.31661987 275.31518555 350.76467896 C 276.38189697 350.30545044 277.37237549 350.12301636 278.35263062 350.35430908 C 279.21694946 350.94638062 280.11892700 351.87570190 281.05499268 353.02255249 C 282.02169800 354.30975342 282.96438599 355.64065552 283.89947510 357.04641724 C 284.84649658 358.38293457 285.64950562 359.74237061 286.24822998 360.90539551 C 286.78256226 361.94439697 286.98779297 362.71154785 286.98593140 363.21670532 C 286.65441895 363.34414673 286.16247559 363.14395142 285.43054199 362.66885376 C 284.41784668 362.18975830 283.21157837 361.65811157 281.91937256 361.13586426 C 280.55102539 360.69277954 279.22476196 360.43496704 277.98596191 360.37023926 C 276.83081055 360.70120239 275.83776855 361.32730103 275.16387939 362.22656250 C 274.72174072 363.21887207 274.37683105 364.31930542 274.31277466 365.16567993 C 274.01361084 365.78771973 273.63677979 365.92395020 273.13876343 365.70059204 C 272.67727661 365.05093384 272.09765625 364.33575439 271.40774536 363.56954956 C 270.56457520 363.10122681 269.59573364 362.82534790 268.60458374 362.88452148 C 267.62896729 363.16488647 266.80645752 363.51779175 266.17114258 364.02499390 C 265.66207886 364.38949585 265.24139404 364.56738281 264.87252808 364.41186523 C 264.56234741 363.88888550 264.26458740 363.26007080 264.07226562 362.44400024 C 263.92413330 361.58306885 263.67404175 360.68789673 261.05303955 353.96502686" stroke-width="1.14948869" fill="rgb(244, 165, 72)" opacity="1.0" stroke="rgb(221, 171, 113)" stroke-opacity="0.9933591" stroke-linecap="round" stroke-linejoin="round"/>
    <path d="M 248.16909790 193.01731873 C 248.90638733 192.60171509 249.73010254 192.23327637 250.61257935 191.93136597 C 251.36882019 191.55006409 252.26977539 191.16178894 253.18106079 190.80148315 C 254.05561829 190.56297302 255.06526184 190.45312500 256.06085205 190.39241028 C 257.07119751 190.44491577 258.15426636 190.63389587 259.25674438 190.86679077 C 260.40368652 191.25419617 261.55734253 191.60202026 262.80633545 192.07806396 C 263.87780762 192.57235718 264.90374756 193.27232361 265.84811401 193.99423218 C 266.70855713 194.53894043 267.54919434 195.02349854 268.16738892 195.65769958 C 268.56610107 196.27680969 268.74871826 196.97462463 268.59756470 197.64476013 C 268.30380249 198.31510925 267.64636230 198.86285400 266.84436035 199.46780396 C 265.91659546 200.15434265 264.90631104 200.97445679 263.89663696 201.90020752 C 262.89883423 202.90049744 261.89349365 203.90214539 260.82562256 204.88369751 C 259.92224121 205.81266785 259.03292847 206.66957092 258.30899048 207.52835083 C 257.83624268 208.36045837 257.42184448 208.98925781 257.02996826 209.36816406 C 256.62936401 209.32830811 256.14959717 208.87400818 255.67477417 208.20411682 C 255.00199890 207.46653748 254.22665405 206.67895508 253.41996765 205.72344971 C 252.53283691 204.75375366 251.61579895 203.93328857 250.63655090 203.13272095 C 249.61611938 202.45945740 248.67082214 201.75485229 247.82470703 201.03742981 C 247.01681519 200.40438843 246.19873047 199.86010742 245.47285461 199.37507629 C 244.88578796 198.92274475 244.44958496 198.24903870 244.15025330 197.52970886 C 243.89146423 196.82023621 243.65167236 196.01884460 248.16909790 193.01731873" stroke-width="0.69981551" fill="rgb(245, 206, 110)" opacity="1.0" stroke="rgb(133, 104, 70)" stroke-opacity="0.74878335" stroke-linecap="round" stroke-linejoin="round"/>
    <path d="M 270.39895630 177.79417419 C 269.62918091 176.23025513 269.11962891 174.56642151 268.92211914 173.03642273 C 268.90042114 171.39234924 269.16458130 169.80403137 269.64950562 168.37573242 C 270.34649658 167.04864502 271.33334351 166.04531860 272.57821655 165.26605225 C 273.83044434 164.72868347 275.14114380 164.37796021 276.56140137 164.39973450 C 277.86007690 164.66539001 279.08950806 165.18965149 280.20425415 165.96130371 C 281.21911621 166.90423584 282.14401245 168.00106812 282.97003174 169.21823120 C 283.60040283 170.51574707 283.89456177 171.85171509 283.94824219 173.28021240 C 283.76641846 174.77661133 283.36776733 176.22329712 282.82601929 177.61036682 C 282.06423950 178.89669800 281.05001831 180.02670288 279.76773071 180.98681641 C 278.25476074 181.93800354 276.50225830 182.82391357 270.39895630 177.79417419" stroke-width="0.66127282" fill="rgb(243, 244, 244)" opacity="1.0" stroke="rgb(138, 138, 138)" stroke-opacity="0.8262195" stroke-linecap="round" stroke-linejoin="round"/>
    <path d="M 241.50245667 177.79370117 C 240.66885376 178.74963379 239.64622498 179.71214294 238.67027283 180.55291748 C 237.55622864 181.16131592 236.49891663 181.42857361 235.23933411 181.46197510 C 234.02787781 181.19331360 232.80335999 180.53353882 231.63616943 179.80899048 C 230.62629700 178.93743896 229.78985596 177.78894043 229.07174683 176.47772217 C 228.68672180 175.05017090 228.55764771 173.65460205 228.48719788 172.16360474 C 228.77030945 170.78218079 229.21252441 169.41735840 229.89466858 168.21514893 C 230.65724182 167.08572388 231.63002014 166.02824402 232.83839417 165.27130127 C 234.27055359 164.79785156 235.77769470 164.52467346 237.35461426 164.63058472 C 238.87864685 165.21873474 240.34300232 166.32987976 241.61665344 167.83572388 C 243.00657654 169.79824829 244.49903870 171.86054993 241.50245667 177.79370117" stroke-width="0.65164357" fill="rgb(244, 246, 245)" opacity="1.0" stroke="rgb(127, 127, 127)" stroke-opacity="0.88730717" stroke-linecap="round" stroke-linejoin="round"/>
    <path d="M 272.41561890 170.16487122 C 273.04968262 169.13450623 273.76196289 168.21192932 274.54470825 167.61914062 C 275.45159912 167.32844543 276.46096802 167.27474976 277.60116577 167.54931641 C 278.69412231 167.82908630 279.73464966 168.27668762 280.68087769 169.03358459 C 281.35281372 169.91763306 281.73211670 170.91140747 282.01696777 171.96690369 C 282.16458130 173.04673767 282.09539795 174.13107300 281.84823608 175.13972473 C 281.49172974 176.13499451 280.96615601 177.11293030 280.26690674 177.87733459 C 279.48254395 178.45712280 278.51208496 178.92514038 277.63494873 179.14202881 C 276.80853271 179.14384460 275.82803345 178.89952087 274.81625366 178.62443542 C 273.98617554 178.12162781 273.34375000 177.47044373 272.68231201 176.65214539 C 271.86325073 175.99436951 271.09564209 175.30113220 272.41561890 170.16487122" stroke-width="0.64139110" fill="rgb(8, 8, 10)" opacity="1.0" stroke="rgb(118, 118, 119)" stroke-opacity="0.81155485" stroke-linecap="round" stroke-linejoin="round"/>
    <path d="M 230.40814209 175.60443115 C 230.17214966 174.31854248 230.10008240 173.07124329 230.16746521 171.88737488 C 230.38043213 170.77210999 230.83276367 169.78779602 231.43580627 168.98115540 C 232.32081604 168.40614319 233.32780457 168.00611877 234.31901550 167.58801270 C 235.25785828 167.38758850 236.28939819 167.48983765 237.28182983 167.75598145 C 238.06961060 168.23083496 238.90591431 168.83157349 239.62501526 169.65486145 C 240.15812683 170.54327393 240.51623535 171.51754761 240.79702759 172.55993652 C 240.85710144 173.67958069 240.73881531 174.58233643 240.34751892 175.49754333 C 239.82702637 176.40209961 239.28564453 177.22610474 238.67955017 178.00889587 C 237.80513000 178.67398071 236.84411621 179.07040405 235.82542419 179.11788940 C 234.49008179 179.12557983 232.92173767 179.25061035 230.40814209 175.60443115" stroke-width="0.59137088" fill="rgb(5, 5, 2)" opacity="1.0" stroke="rgb(112, 112, 111)" stroke-opacity="0.8181037" stroke-linecap="round" stroke-linejoin="round"/>
  </g>
</svg>
