<?xml version="1.0" ?>
<svg xmlns="http://www.w3.org/2000/svg" version="1.1" width="512" height="512" viewBox="0 0 512 512">
  <defs/>
  <g>
    <path d="M 582.13482666 482.05300903 C 568.35736084 487.87384033 554.58435059 493.71472168 540.79028320 499.52014160 C 526.97497559 505.32046509 513.11395264 511.03909302 499.16113281 516.71038818 C 485.13128662 522.21539307 470.95968628 527.66058350 456.65844727 532.90655518 C 442.16616821 537.99456787 427.49035645 542.84594727 412.57855225 547.47393799 C 397.45666504 551.81365967 382.06640625 555.85723877 366.42349243 559.59362793 C 350.51828003 562.94104004 334.35733032 565.93902588 317.91394043 568.56787109 C 301.24108887 570.74298096 284.30319214 572.52178955 267.15502930 573.82250977 C 249.78799438 574.65393066 232.24633789 574.97052002 214.59577942 574.76892090 C 196.83935547 573.96704102 179.07855225 572.66241455 161.34974670 570.72729492 C 143.71020508 568.19110107 126.27866364 565.04064941 109.11212921 561.28424072 C 92.32505798 556.86883545 76.01836395 551.83660889 60.30060959 546.08190918 C 45.32036972 539.58111572 31.29110146 532.23132324 18.38853645 523.96563721 C 6.83711958 514.64965820 -3.19217801 504.22720337 -11.69282246 492.80209351 C -18.64955521 480.49581909 -24.13298607 467.57180786 -28.26737213 454.32409668 C -31.14285278 440.88623047 -32.77249527 427.47219849 -33.21213531 414.23522949 C -32.44928360 401.30993652 -30.39962769 388.93167114 -27.12533188 377.41754150 C -22.54708481 366.96115112 -16.57447433 357.82366943 -9.15727234 350.32760620 C -0.17928667 344.83929443 10.49208641 341.63037109 22.75629044 340.48367310 C 36.47906876 340.43020630 51.42986298 340.60592651 67.35517883 340.75195312 C 84.08645630 340.74111938 101.44182587 340.71353149 119.28176117 340.66448975 C 137.51380920 340.65362549 155.99298096 340.65115356 174.62759399 340.64645386 C 193.34567261 340.56170654 212.05915833 340.40078735 230.68185425 340.27441406 C 249.18730164 340.19519043 267.49099731 340.16281128 285.55258179 340.15765381 C 303.36331177 340.30911255 320.87457275 340.52142334 338.06439209 340.63494873 C 354.94805908 340.68542480 371.51098633 340.70452881 387.73519897 340.70269775 C 403.66247559 340.71658325 419.26672363 340.74340820 434.59115601 340.71054077 C 449.64828491 340.66012573 464.45480347 340.70770264 479.05389404 340.69409180 C 493.45733643 340.71221924 507.71148682 340.90740967 521.86029053 341.30941772 C 535.88397217 341.90524292 549.84259033 342.61166382 563.82177734 343.35733032 C 577.76080322 344.11349487 591.67596436 344.84747314 582.13482666 482.05300903" stroke-width="2.00000000" fill="rgb(233, 244, 246)" opacity="1.0" stroke="rgb(230, 250, 252)" stroke-opacity="0.036002904" stroke-linecap="round" stroke-linejoin="round"/>
    <path d="M 68.55628204 368.60452271 C 69.45029449 370.11401367 70.34214783 371.62014771 71.17072296 373.05001831 C 71.86620331 374.47302246 72.46649170 375.85885620 72.92575073 377.17211914 C 73.29467773 378.40475464 73.51085663 379.56329346 73.58464050 380.62701416 C 73.53062439 381.58578491 73.26277161 382.40008545 72.79666901 383.05270386 C 72.10800171 383.51293945 71.14081573 383.79400635 70.00644684 383.93597412 C 68.65979767 384.00347900 67.15360260 384.01525879 65.49979401 383.97467041 C 63.72484207 383.97467041 61.86098099 383.98693848 59.90988922 383.96762085 C 57.91716385 383.98605347 55.89545441 383.99560547 53.86114120 383.98861694 C 51.85659790 384.00994873 49.88764191 384.01403809 47.94660568 383.98583984 C 46.13343430 384.01037598 44.44329834 384.02056885 42.86446762 384.02700806 C 41.49576569 383.97058105 40.33089066 383.80075073 39.40295792 383.48635864 C 38.74018097 382.93350220 38.34399033 382.21743774 38.16780472 381.30099487 C 38.15279770 380.19683838 38.34875488 378.99847412 38.67450333 377.73635864 C 39.09843063 376.35211182 39.67246246 374.93612671 40.33766937 373.51583862 C 41.09496689 372.10610962 41.95382690 370.72467041 42.86298370 369.41213989 C 43.81048203 368.17910767 44.83823395 367.01388550 45.88144684 365.94595337 C 46.90457916 364.93533325 47.98536682 364.00906372 49.09142303 363.24417114 C 50.22581482 362.58206177 51.39448547 362.04061890 52.61486053 361.71109009 C 53.84713364 361.57717896 55.15754700 361.55538940 56.50524139 361.64859009 C 57.91892624 361.71548462 59.36430740 361.74206543 68.55628204 368.60452271" stroke-width="1.08593130" fill="rgb(189, 233, 242)" opacity="1.0" stroke="rgb(215, 242, 247)" stroke-opacity="0.99473894" stroke-linecap="round" stroke-linejoin="round"/>
    <path d="M 221.60272217 393.43505859 C 220.38916016 393.52111816 219.14030457 393.59570312 217.90162659 393.64050293 C 216.62776184 393.68139648 215.34515381 393.64254761 214.00706482 393.57723999 C 212.66482544 393.57440186 211.29045105 393.64392090 209.86676025 393.72720337 C 208.44451904 393.78649902 206.96333313 393.76708984 205.47319031 393.72189331 C 203.98838806 393.67724609 202.45904541 393.69812012 200.95571899 393.74893188 C 199.44531250 393.75900269 197.95809937 393.73944092 196.55273438 393.75897217 C 195.23741150 393.74075317 194.02674866 393.72375488 192.96694946 393.64138794 C 192.13630676 393.41381836 191.56228638 392.98715210 191.21658325 392.34933472 C 191.06991577 391.47970581 191.05088806 390.43704224 191.15092468 389.26794434 C 191.37336731 388.00930786 191.76501465 386.69674683 192.24273682 385.37136841 C 192.86946106 384.04849243 193.59022522 382.71621704 194.37261963 381.41061401 C 195.18957520 380.10845947 195.99281311 378.82305908 196.81762695 377.56927490 C 197.68280029 376.45928955 198.59895325 375.39724731 199.54669189 374.51242065 C 200.60728455 373.86865234 201.74949646 373.40625000 202.95896912 373.16567993 C 204.25175476 373.08126831 205.53977966 373.07260132 206.85089111 373.19891357 C 208.15052795 373.38916016 209.44541931 373.69845581 210.70872498 374.16192627 C 211.89585876 374.77401733 213.05563354 375.49465942 214.09304810 376.39190674 C 215.13784790 377.37847900 216.11355591 378.50057983 217.09451294 379.68865967 C 218.04997253 380.92755127 218.99650574 382.24548340 219.95349121 383.60763550 C 220.92601013 384.96960449 221.94049072 386.39297485 221.60272217 393.43505859" stroke-width="1.71891105" fill="rgb(188, 232, 243)" opacity="1.0" stroke="rgb(224, 245, 250)" stroke-opacity="1.0" stroke-linecap="round" stroke-linejoin="round"/>
    <path d="M 419.20648193 374.41186523 C 418.01263428 374.48855591 416.81643677 374.55950928 415.60882568 374.61001587 C 414.34994507 374.63616943 413.07769775 374.61746216 411.77261353 374.61672974 C 410.41033936 374.64511108 408.99993896 374.67190552 407.57135010 374.70095825 C 406.11584473 374.73071289 404.62915039 374.69708252 403.12960815 374.64038086 C 401.61849976 374.61083984 400.11309814 374.56707764 398.64706421 374.53030396 C 397.20187378 374.55648804 395.82992554 374.59759521 394.50662231 374.65121460 C 393.30780029 374.65841675 392.23776245 374.57617188 391.32061768 374.37780762 C 390.56774902 374.05645752 390.02197266 373.58364868 389.65127563 372.95629883 C 389.50408936 372.18798828 389.55654907 371.30432129 389.77059937 370.31457520 C 390.15133667 369.24209595 390.65515137 368.07781982 391.21615601 366.84951782 C 391.80899048 365.55105591 392.48248291 364.23791504 393.15332031 362.92480469 C 393.85644531 361.60699463 394.62677002 360.35739136 395.50076294 359.21884155 C 396.41824341 358.14108276 397.37911987 357.17282104 398.36029053 356.32522583 C 399.34652710 355.61822510 400.34310913 355.07925415 401.36077881 354.76071167 C 402.39065552 354.59893799 403.44201660 354.66284180 404.53994751 354.93768311 C 405.66424561 355.32104492 406.75521851 355.83361816 407.88461304 356.40777588 C 408.97625732 357.01251221 410.06051636 357.77426147 411.08154297 358.63287354 C 412.06866455 359.58166504 413.02014160 360.62921143 413.90420532 361.75314331 C 414.79193115 362.94720459 415.64437866 364.17431641 416.55206299 365.43539429 C 417.43606567 366.67858887 418.39828491 367.90991211 419.20648193 374.41186523" stroke-width="1.09178269" fill="rgb(190, 232, 243)" opacity="1.0" stroke="rgb(204, 235, 241)" stroke-opacity="0.9694868" stroke-linecap="round" stroke-linejoin="round"/>
    <path d="M 115.19795227 415.49444580 C 115.64379883 416.49819946 116.11254883 417.47549438 116.51573181 418.47311401 C 116.96820068 419.39492798 117.29776001 420.29714966 117.46184540 421.19686890 C 117.54936218 422.06539917 117.48655701 422.87539673 117.32440186 423.57958984 C 117.07418823 424.18847656 116.62857819 424.62261963 116.00147247 424.88491821 C 115.14059448 424.99728394 114.12292480 424.98587036 112.92068481 424.96502686 C 111.58850098 424.94226074 110.15056610 424.94488525 108.59345245 424.96392822 C 106.98086548 424.95339966 105.30130768 424.94802856 103.58454132 424.92364502 C 101.82452393 424.89886475 100.08012390 424.90139771 98.33114624 424.93563843 C 96.62849426 424.98632812 94.98627472 425.05316162 93.42375183 425.11392212 C 91.96201324 425.10501099 90.65062714 425.03207397 89.50465393 424.92077637 C 88.52410126 424.64822388 87.78599548 424.20114136 87.26097870 423.60733032 C 86.93635559 422.85977173 86.79602814 421.92016602 86.87705231 420.87826538 C 87.06291199 419.74673462 87.40708160 418.52459717 87.86196899 417.27459717 C 88.45330811 415.97503662 89.13671875 414.70812988 89.91474152 413.46456909 C 90.71899414 412.21615601 91.58230591 411.01101685 92.44974518 409.85592651 C 93.32333374 408.73596191 94.21496582 407.72045898 95.07937622 406.77719116 C 95.96106720 405.99517822 96.88639832 405.40423584 97.87294769 405.03082275 C 98.94976044 404.87167358 100.08108521 404.92553711 101.31373596 405.13842773 C 102.59493256 405.43301392 103.93374634 405.86422729 105.33824158 406.32330322 C 106.80268860 406.72103882 108.28936005 407.07833862 115.19795227 415.49444580" stroke-width="1.21383417" fill="rgb(187, 232, 243)" opacity="1.0" stroke="rgb(215, 243, 246)" stroke-opacity="0.9936435" stroke-linecap="round" stroke-linejoin="round"/>
    <path d="M 319.59963989 431.81326294 C 317.87390137 431.89318848 316.12829590 431.93725586 314.38641357 431.96237183 C 312.62921143 431.97824097 310.87564087 431.98339844 309.10494995 431.97195435 C 307.32928467 431.95535278 305.55636597 431.97515869 303.77108765 431.94989014 C 302.00930786 431.94927979 300.21197510 431.95904541 298.48809814 431.94876099 C 296.77575684 431.94204712 295.11502075 431.95919800 293.56845093 431.98553467 C 292.07510376 431.99032593 290.73968506 432.02627563 289.56237793 431.98309326 C 288.56048584 431.87475586 287.76409912 431.58587646 287.20150757 431.09182739 C 286.87570190 430.41592407 286.77502441 429.51977539 286.82760620 428.47125244 C 287.02764893 427.28137207 287.35650635 425.99838257 287.79284668 424.62731934 C 288.38217163 423.19094849 289.04177856 421.73126221 289.79824829 420.25192261 C 290.63534546 418.81835938 291.56936646 417.41027832 292.58285522 416.08444214 C 293.63998413 414.86361694 294.79129028 413.76205444 295.99057007 412.76370239 C 297.22000122 411.95620728 298.53311157 411.31573486 299.86190796 410.82290649 C 301.24673462 410.55917358 302.62896729 410.47329712 304.01989746 410.54110718 C 305.42257690 410.75680542 306.77893066 411.13607788 308.13040161 411.63314819 C 309.42620850 412.22232056 310.70910645 412.93988037 311.94415283 413.74011230 C 313.09713745 414.62945557 314.21646118 415.58111572 315.27609253 416.57986450 C 316.24484253 417.68356323 317.07348633 418.84451294 317.80831909 420.12316895 C 318.44152832 421.50814819 319.00744629 422.90551758 319.57611084 424.38345337 C 320.18286133 425.83956909 320.80966187 427.32376099 319.59963989 431.81326294" stroke-width="1.09051216" fill="rgb(188, 233, 243)" opacity="1.0" stroke="rgb(213, 241, 245)" stroke-opacity="0.9988996" stroke-linecap="round" stroke-linejoin="round"/>
    <path d="M 268.81256104 350.91781616 C 264.21560669 349.29690552 259.65716553 347.62039185 255.15309143 345.91036987 C 250.61288452 344.25765991 246.07183838 342.61737061 241.63510132 340.81396484 C 237.33451843 338.89709473 233.10827637 336.97308350 228.99093628 334.97854614 C 225.06796265 332.90090942 221.30853271 330.76495361 217.65902710 328.66220093 C 214.22418213 326.52636719 211.26847839 324.17327881 209.35969543 320.88604736 C 207.74926758 316.80850220 206.19700623 312.38729858 204.78739929 307.43548584 C 203.61616516 302.09863281 202.08464050 296.65545654 201.19285583 291.04244995 C 200.09188843 285.17486572 198.94802856 279.25613403 197.57839966 273.34347534 C 196.47456360 267.46603394 195.85690308 261.72885132 196.00602722 256.46795654 C 197.46115112 251.57389832 198.74552917 246.62562561 199.99685669 241.48585510 C 201.46031189 236.31567383 203.21318054 231.13862610 205.78025818 226.40026855 C 208.00238037 221.22456360 210.86650085 216.38497925 214.09007263 211.76713562 C 216.94482422 207.07508850 219.95014954 202.59812927 223.13209534 198.41696167 C 226.40261841 194.44424438 229.87123108 190.90496826 233.45330811 187.76763916 C 237.11369324 184.92010498 240.87870789 182.45198059 244.70724487 180.46643066 C 248.63356018 179.02572632 252.64288330 178.02140808 256.63046265 177.38056946 C 260.51571655 177.21200562 264.31771851 177.53643799 268.06631470 178.36030579 C 271.73791504 179.64633179 275.29785156 181.34863281 278.73117065 183.48051453 C 282.00079346 186.02232361 285.00970459 188.99324036 287.68243408 192.28826904 C 289.96145630 195.93246460 291.90280151 199.93623352 293.67843628 204.02816772 C 296.13415527 207.93083191 298.66787720 211.84700012 301.41104126 215.74220276 C 304.11422729 219.62150574 306.03158569 224.07710266 308.14059448 228.54866028 C 310.22857666 233.05418396 311.92190552 237.79699707 313.21228027 242.75054932 C 314.65512085 247.48455811 315.94882202 252.17105103 316.18106079 257.08248901 C 315.83230591 262.16220093 314.84658813 267.47381592 313.90728760 272.89608765 C 313.49496460 278.22558594 313.24636841 283.54364014 312.05709839 288.54794312 C 311.50347900 293.44802856 310.59963989 298.47601318 309.16394043 303.47302246 C 307.19549561 308.66558838 305.58349609 314.10604858 303.46936035 319.12771606 C 300.45034790 323.36361694 297.25708008 327.40942383 294.10076904 331.48559570 C 291.01159668 335.62142944 287.96228027 339.79431152 268.81256104 350.91781616" stroke-width="0.69237781" fill="rgb(2, 3, 3)" opacity="1.0" stroke="rgb(0, 0, 0)" stroke-opacity="0.49640363" stroke-linecap="round" stroke-linejoin="round"/>
    <path d="M 303.50296021 305.17263794 C 303.23080444 308.39318848 302.53485107 311.38830566 301.23379517 314.37475586 C 300.53994751 317.81292725 300.02294922 321.42755127 299.94998169 325.02951050 C 298.85937500 328.57064819 297.07305908 332.07369995 294.99026489 335.49316406 C 292.46707153 338.85729980 289.65417480 342.16268921 286.71047974 345.27896118 C 283.57763672 348.05477905 280.16390991 350.50720215 276.44110107 352.63330078 C 272.48007202 354.33172607 268.39807129 355.57385254 264.22906494 356.47024536 C 259.99307251 357.08645630 255.66302490 357.43814087 251.27658081 357.60897827 C 246.95587158 357.56622314 242.74258423 357.24169922 238.62159729 356.54534912 C 234.71728516 355.40228271 231.15609741 353.74713135 227.90327454 351.65332031 C 224.97534180 349.10842896 222.31329346 346.09170532 219.92208862 342.64013672 C 217.77691650 338.87142944 215.83605957 334.87161255 214.15139771 330.61172485 C 213.08465576 326.11587524 212.15344238 321.58489990 211.57299805 316.93554688 C 210.28097534 312.88711548 209.50877380 308.60153198 209.06024170 304.40689087 C 208.16569519 300.21102905 207.77493286 295.94470215 207.70536804 291.50683594 C 207.36224365 287.25048828 207.40748596 283.06991577 207.72834778 278.99829102 C 208.69706726 275.18322754 209.50927734 271.70501709 209.98789978 267.89181519 C 210.62211609 263.90954590 211.32846069 259.80523682 212.61730957 255.61338806 C 214.16531372 251.41893005 216.03456116 247.17897034 218.08229065 243.04919434 C 220.25863647 238.89035034 222.77430725 235.10646057 225.71878052 231.69839478 C 228.57315063 228.38858032 231.76957703 225.61865234 235.20402527 223.27006531 C 238.47555542 221.01605225 242.08128357 219.74089050 246.04148865 218.75796509 C 250.00181580 217.66716003 253.95606995 216.92260742 257.94778442 216.91261292 C 261.89025879 217.39755249 265.81350708 218.64067078 269.66143799 219.99348450 C 273.42559814 221.56753540 276.93411255 223.56402588 280.37078857 225.71284485 C 283.62368774 228.16130066 286.44125366 230.94371033 288.72921753 234.28956604 C 291.27648926 237.46255493 293.60812378 240.68211365 295.35177612 244.39233398 C 297.15844727 248.30326843 298.92327881 252.24223328 300.40698242 256.57931519 C 301.38003540 261.08129883 302.74221802 265.64257812 303.62145996 270.43344116 C 304.67776489 275.15737915 305.33056641 279.97528076 305.54086304 285.05343628 C 305.42172241 290.27673340 305.59460449 295.45056152 303.50296021 305.17263794" stroke-width="0.62651193" fill="rgb(245, 244, 237)" opacity="1.0" stroke="rgb(246, 245, 243)" stroke-opacity="0.47763398" stroke-linecap="round" stroke-linejoin="round"/>
    <path d="M 273.11444092 217.64677429 C 269.70672607 217.38223267 266.32870483 217.13229370 262.93038940 216.89054871 C 259.54022217 216.68794250 256.22317505 216.61314392 252.96212769 216.29994202 C 249.64270020 215.99449158 246.37852478 215.67967224 243.19700623 215.33300781 C 240.13316345 214.94056702 237.13070679 214.52114868 234.22268677 214.04309082 C 231.54206848 213.46765137 229.05233765 212.71809387 226.72033691 211.77603149 C 224.65806580 210.73329163 222.99253845 209.55087280 221.70866394 208.11674500 C 220.72282410 206.43949890 220.14317322 204.54382324 220.13319397 202.37628174 C 220.48600769 199.73645020 220.80429077 197.00793457 221.12368774 194.39559937 C 220.59751892 191.36503601 220.03269958 188.43992615 218.84397888 185.86584473 C 217.89405823 183.05766296 217.63027954 180.02229309 217.51100159 176.90496826 C 217.26904297 173.87132263 217.51542664 170.94236755 218.14813232 167.95613098 C 218.87809753 164.96310425 219.84176636 162.13615417 221.19586182 159.34170532 C 222.39427185 156.49234009 223.81263733 153.78475952 225.27975464 151.12788391 C 226.89804077 148.85241699 228.92846680 146.95126343 230.83418274 144.88380432 C 233.15858459 143.08583069 235.64881897 141.43548584 238.27023315 140.12005615 C 240.97088623 138.91381836 243.84317017 138.17300415 246.79379272 137.29176331 C 249.64250183 136.63348389 252.51113892 136.14817810 255.54875183 136.12541199 C 258.62207031 136.30230713 261.58639526 136.50765991 264.46026611 137.00679016 C 267.19766235 137.28918457 269.73144531 138.17622375 272.32647705 139.28976440 C 274.88253784 140.38957214 277.22375488 141.73835754 279.55166626 143.18835449 C 281.77636719 144.48931885 283.50799561 146.28302002 285.21673584 148.21803284 C 287.14077759 150.04336548 288.66433716 152.29553223 290.01248169 154.79486084 C 291.18841553 157.46051025 292.59362793 160.16178894 293.67333984 162.95964050 C 294.51275635 166.01852417 295.42431641 169.18331909 295.83575439 172.31098938 C 295.84378052 175.61924744 295.43630981 178.89305115 295.00524902 181.98509216 C 294.83435059 184.68489075 293.72592163 186.96759033 292.84786987 189.48257446 C 292.17187500 192.11126709 291.58465576 194.77389526 291.57586670 197.34599304 C 291.42623901 199.99404907 291.44848633 202.78375244 291.56539917 205.69377136 C 291.65835571 208.63566589 291.71908569 211.56555176 291.77050781 214.52148438 C 291.83575439 217.52398682 291.96875000 220.52796936 273.11444092 217.64677429" stroke-width="0.66328496" fill="rgb(1, 2, 2)" opacity="1.0" stroke="rgb(0, 0, 0)" stroke-opacity="0.5035026" stroke-linecap="round" stroke-linejoin="round"/>
    <path d="M 194.08041382 332.93643188 C 193.73234558 333.37261963 193.52340698 333.79974365 193.28611755 334.08856201 C 192.78196716 334.08352661 192.29856873 334.15664673 191.89030457 334.12609863 C 191.47959900 333.68798828 190.80332947 333.05157471 190.10214233 332.13803101 C 189.40692139 330.79336548 188.49969482 329.17941284 187.56433105 327.38934326 C 186.69036865 324.99591064 185.63464355 322.48071289 184.45578003 319.68923950 C 183.45433044 316.55166626 182.25335693 313.36083984 181.05743408 309.86993408 C 179.95109558 306.49514771 179.46757507 302.78430176 179.07337952 299.02584839 C 178.95164490 295.27673340 179.03048706 291.61068726 179.61940002 288.02993774 C 180.17214966 284.61428833 181.65272522 281.52465820 183.35095215 278.23165894 C 185.09883118 274.93197632 186.99359131 271.80511475 188.86007690 268.80734253 C 190.67391968 266.13024902 191.85694885 263.61145020 193.26797485 261.55441284 C 194.44194031 259.74697876 195.28848267 258.24957275 196.01797485 257.19042969 C 196.16079712 256.21313477 196.33351135 255.63807678 196.59071350 255.61448669 C 196.92048645 256.04986572 197.35626221 256.90148926 197.81909180 258.28579712 C 198.21728516 260.27380371 198.62654114 262.73776245 198.89344788 265.52639771 C 198.89706421 268.60754395 198.69818115 272.04452515 198.37326050 275.85778809 C 197.68756104 279.83529663 197.50553894 284.08978271 197.07086182 288.63177490 C 196.12126160 293.62902832 195.56004333 298.59143066 195.11900330 303.28393555 C 195.30372620 307.54479980 195.07135010 311.20257568 194.60327148 314.67303467 C 194.82151794 318.07891846 194.92745972 321.53836060 194.08041382 332.93643188" stroke-width="0.61499065" fill="rgb(2, 2, 4)" opacity="1.0" stroke="rgb(0, 0, 0)" stroke-opacity="0.45128995" stroke-linecap="round" stroke-linejoin="round"/>
    <path d="M 326.46984863 323.79873657 C 325.88742065 326.25329590 324.77990723 328.46508789 323.61087036 330.43423462 C 322.53866577 332.14248657 321.45742798 333.32794189 320.51422119 334.15203857 C 319.78399658 334.16732788 319.08499146 333.65045166 318.68750000 332.75112915 C 318.57980347 331.40634155 318.55313110 329.90051270 318.17199707 328.27261353 C 317.67706299 326.20474243 317.50875854 323.68634033 317.75201416 320.70181274 C 317.55731201 317.16806030 317.53512573 313.04168701 317.47821045 308.61004639 C 317.50109863 304.13949585 317.36849976 299.63073730 317.16250610 295.14474487 C 316.77008057 290.75000000 316.13119507 286.53060913 315.14282227 282.46640015 C 314.52142334 278.59899902 313.72726440 275.01202393 313.03472900 271.50070190 C 312.71218872 268.13626099 312.74234009 265.00216675 313.07830811 262.14270020 C 313.51672363 259.59271240 313.95007324 257.38018799 314.50408936 255.51065063 C 315.17568970 253.98023987 315.71331787 252.95365906 316.06918335 252.47520447 C 316.25775146 252.43640137 316.09332275 252.79057312 316.05291748 253.46633911 C 316.41705322 254.44030762 316.98443604 255.91397095 317.72698975 257.77716064 C 318.71386719 259.88302612 320.21429443 262.06875610 321.63796997 264.50329590 C 323.05084229 267.21600342 324.62417603 269.94168091 326.13662720 272.81713867 C 327.95358276 275.62985229 329.36849976 278.70089722 330.72302246 281.77944946 C 332.01986694 284.65249634 332.97283936 287.62124634 333.34066772 290.72048950 C 333.37316895 293.92761230 333.49359131 297.20812988 333.10177612 300.24096680 C 333.17971802 303.13082886 333.06469727 305.94015503 326.46984863 323.79873657" stroke-width="0.67389524" fill="rgb(2, 1, 1)" opacity="1.0" stroke="rgb(0, 0, 0)" stroke-opacity="0.4700063" stroke-linecap="round" stroke-linejoin="round"/>
    <path d="M 229.48338318 350.06924438 C 230.53126526 349.76473999 231.55230713 349.62368774 232.59678650 349.64642334 C 233.69346619 349.90533447 234.84246826 350.36218262 236.11154175 350.88824463 C 237.60639954 351.23635864 239.13113403 351.63574219 240.62255859 352.12023926 C 242.15884399 352.58355713 243.69685364 352.93020630 245.09469604 353.12258911 C 246.30120850 353.18215942 247.32783508 353.24829102 248.07632446 353.45620728 C 248.46719360 353.99832153 248.52810669 354.85583496 248.45335388 355.97827148 C 248.26838684 357.29095459 248.00164795 358.70593262 247.67489624 360.20715332 C 247.47280884 361.79388428 247.28535461 363.34753418 247.07905579 364.73797607 C 246.97297668 365.93112183 246.89625549 366.69812012 246.64076233 367.03836060 C 246.21640015 366.89468384 245.73791504 366.25274658 245.18766785 365.26397705 C 244.30313110 364.26379395 243.45996094 363.18292236 242.53131104 362.26013184 C 241.36869812 361.74102783 240.17910767 361.58096313 239.05458069 361.77880859 C 238.00941467 362.42401123 237.19772339 363.44418335 236.58917236 364.46896362 C 236.07685852 365.57916260 235.63967896 366.49914551 235.36183167 367.04367065 C 235.12699890 367.13735962 234.97589111 366.74581909 234.85671997 365.86672974 C 234.75704956 364.78952026 234.39826965 363.71923828 233.92657471 362.63800049 C 233.37718201 361.66296387 232.61306763 361.12799072 231.65101624 360.90600586 C 230.47560120 360.99990845 229.03112793 361.39688110 227.56748962 361.83624268 C 226.29083252 362.78689575 225.07695007 363.73919678 223.52340698 364.39224243 C 221.43534851 364.49398804 219.24493408 364.64212036 229.48338318 350.06924438" stroke-width="0.93169940" fill="rgb(242, 172, 78)" opacity="1.0" stroke="rgb(233, 195, 153)" stroke-opacity="0.91470665" stroke-linecap="round" stroke-linejoin="round"/>
    <path d="M 261.14462280 353.87118530 C 263.08685303 353.91992188 265.11849976 353.60815430 267.16058350 353.12579346 C 269.12869263 352.88259888 270.94152832 352.48425293 272.64947510 351.90432739 C 274.10986328 351.46148682 275.33483887 350.89511108 276.31546021 350.30599976 C 277.02166748 349.79010010 277.73953247 349.77990723 278.53363037 350.33789062 C 279.35995483 351.39495850 280.30416870 352.37759399 281.32324219 353.64920044 C 282.46725464 354.97283936 283.47940063 356.44573975 284.33132935 358.15893555 C 285.27191162 359.44665527 286.06454468 360.54443359 286.52770996 361.62585449 C 286.81045532 362.80792236 286.87286377 363.69985962 286.75399780 364.01077271 C 286.59585571 363.76229858 286.19088745 363.12911987 285.27603149 362.47048950 C 284.06845093 361.96569824 282.77978516 361.49398804 281.45727539 360.96463013 C 280.14456177 360.43524170 278.86456299 360.24340820 277.60330200 360.38598633 C 276.38647461 360.73339844 275.33694458 361.12130737 274.59780884 361.82363892 C 274.30740356 362.66442871 274.34274292 363.57717896 274.34753418 364.49911499 C 274.26455688 365.38894653 274.15396118 366.09524536 273.96835327 366.41723633 C 273.63891602 366.25927734 273.30236816 365.71517944 272.81832886 365.14398193 C 272.25430298 364.40545654 271.71618652 363.41455078 271.20056152 362.56118774 C 270.55508423 362.11843872 269.69213867 361.95001221 268.79895020 361.94934082 C 268.00646973 362.20678711 267.31674194 362.75613403 266.70422363 363.61239624 C 266.18151855 364.41244507 265.62396240 364.75320435 265.14147949 364.90795898 C 264.99346924 365.07781982 265.53100586 365.38015747 261.14462280 353.87118530" stroke-width="1.19476616" fill="rgb(245, 163, 73)" opacity="1.0" stroke="rgb(219, 167, 106)" stroke-opacity="1.0" stroke-linecap="round" stroke-linejoin="round"/>
    <path d="M 248.39370728 192.83200073 C 248.85377502 192.26585388 249.60565186 191.97805786 250.58857727 191.95396423 C 251.49668884 191.55540466 252.63261414 191.05297852 253.85018921 190.73080444 C 255.15881348 190.44700623 256.41610718 190.33764648 257.75326538 190.45588684 C 259.03237915 190.79806519 260.15798950 191.25358582 261.34945679 191.49522400 C 262.41415405 191.97299194 263.44662476 192.48083496 264.44070435 192.91711426 C 265.29357910 193.60095215 265.92172241 194.23168945 266.55877686 194.68910217 C 267.57958984 194.78627014 268.15570068 195.31054688 268.46511841 195.97363281 C 268.70486450 196.71902466 268.74844360 197.32740784 268.47674561 198.05899048 C 267.86569214 198.62005615 267.15646362 199.31912231 266.25643921 200.02416992 C 265.14022827 200.64053345 264.26406860 201.44505310 263.51751709 202.39509583 C 262.60415649 203.30320740 261.63107300 203.99960327 260.81271362 204.84094238 C 260.15673828 205.89010620 259.17953491 206.51792908 258.31881714 207.06809998 C 257.94589233 207.75915527 257.71813965 208.57061768 257.53479004 209.12719727 C 257.30441284 209.40866089 256.88067627 209.38272095 256.46255493 208.99285889 C 255.89457703 208.46968079 255.20484924 207.83792114 254.61209106 206.96885681 C 253.89631653 206.20564270 253.13188171 205.49612427 252.50547791 204.60755920 C 251.59255981 203.96617126 250.71342468 203.41278076 249.91157532 202.56237793 C 248.93653870 202.00624084 248.05682373 201.32714844 247.25628662 200.64294434 C 246.31886292 200.02929688 245.38436890 199.27410889 244.50512695 198.43145752 C 243.75810242 197.33901978 243.13697815 196.02836609 248.39370728 192.83200073" stroke-width="0.66390902" fill="rgb(248, 206, 111)" opacity="1.0" stroke="rgb(135, 107, 75)" stroke-opacity="0.7213906" stroke-linecap="round" stroke-linejoin="round"/>
    <path d="M 270.70785522 178.04040527 C 269.59552002 176.41860962 268.88873291 175.02549744 268.90203857 173.30915833 C 268.74679565 171.54228210 268.95449829 169.69665527 269.67367554 168.26589966 C 270.32843018 166.87834167 271.65051270 165.82347107 273.01531982 165.07151794 C 274.39526367 164.50929260 275.94894409 164.40525818 277.42428589 164.44874573 C 278.64074707 164.71166992 279.75384521 165.46559143 280.83322144 166.37533569 C 281.81359863 167.54150391 282.72042847 168.71495056 283.45251465 170.00314331 C 283.88800049 171.32377625 284.01663208 172.88198853 283.92803955 174.42285156 C 283.65078735 175.67254639 282.97604370 177.04916382 282.42877197 178.26643372 C 281.56094360 179.35638428 280.65710449 180.41908264 279.50332642 181.28344727 C 277.71118164 181.88439941 275.71331787 182.43415833 270.70785522 178.04040527" stroke-width="0.64142615" fill="rgb(241, 241, 241)" opacity="1.0" stroke="rgb(129, 129, 128)" stroke-opacity="0.797462" stroke-linecap="round" stroke-linejoin="round"/>
    <path d="M 241.47846985 177.86660767 C 240.56092834 178.84567261 239.66839600 179.84271240 238.71253967 180.63069153 C 237.65963745 181.07392883 236.60795593 181.55656433 235.65777588 181.77006531 C 234.42526245 181.20489502 232.86090088 180.55624390 231.60694885 179.90071106 C 230.69927979 178.82785034 229.81137085 177.70861816 229.05718994 176.53869629 C 228.79747009 175.29144287 228.54608154 174.03825378 228.55816650 172.81452942 C 228.66406250 171.40438843 228.86787415 170.17042542 229.54566956 169.09089661 C 230.29101562 167.80345154 231.09403992 166.55873108 232.14590454 165.69461060 C 233.49867249 165.19505310 234.98803711 164.78663635 236.57656860 164.48422241 C 238.42373657 164.85952759 240.09608459 165.85008240 241.43339539 167.66693115 C 243.02938843 169.82772827 244.74263000 172.21220398 241.47846985 177.86660767" stroke-width="0.65035951" fill="rgb(244, 243, 243)" opacity="1.0" stroke="rgb(130, 131, 130)" stroke-opacity="0.864169" stroke-linecap="round" stroke-linejoin="round"/>
    <path d="M 272.38873291 170.31987000 C 273.06619263 169.31694031 273.71914673 168.29940796 274.58688354 167.62922668 C 275.65039062 167.41401672 276.74545288 167.44432068 277.98275757 167.68186951 C 279.24310303 168.07656860 280.20806885 168.66078186 280.99453735 169.45893860 C 281.42822266 170.50595093 281.81179810 171.61285400 282.17874146 172.55712891 C 282.01971436 173.49066162 281.82626343 174.47048950 281.64242554 175.57008362 C 281.25424194 176.57283020 280.69012451 177.40388489 279.89114380 177.88450623 C 279.11990356 178.58090210 278.30737305 179.04370117 277.45462036 179.22064209 C 276.29669189 179.00047302 275.44253540 178.60597229 274.54327393 178.32301331 C 273.72653198 177.81698608 273.18652344 177.04791260 272.60391235 176.37480164 C 271.91799927 175.94688416 271.26965332 175.57604980 272.38873291 170.31987000" stroke-width="0.65851247" fill="rgb(6, 6, 5)" opacity="1.0" stroke="rgb(102, 102, 102)" stroke-opacity="0.91542953" stroke-linecap="round" stroke-linejoin="round"/>
    <path d="M 230.64263916 176.16290283 C 230.21783447 174.81391907 229.98843384 173.59419250 230.09613037 172.27838135 C 230.27432251 170.95162964 230.70086670 169.80665588 231.40994263 168.93516541 C 232.34388733 168.35484314 233.41668701 168.00184631 234.44656372 167.56608582 C 235.52427673 167.33198547 236.47555542 167.38597107 237.23974609 167.74108887 C 238.04734802 168.39530945 238.93681335 168.94293213 239.72535706 169.64656067 C 240.21118164 170.89674377 240.51823425 172.07762146 240.86116028 173.17276001 C 240.78517151 174.16519165 240.53817749 175.14149475 240.05747986 175.95332336 C 239.80119324 176.95561218 239.21501160 177.69796753 238.35723877 178.30435181 C 237.54005432 178.82540894 236.55601501 179.22145081 235.49606323 179.15328979 C 234.23950195 178.83839417 232.78982544 178.74891663 230.64263916 176.16290283" stroke-width="0.56808555" fill="rgb(5, 9, 8)" opacity="1.0" stroke="rgb(113, 112, 112)" stroke-opacity="0.7872995" stroke-linecap="round" stroke-linejoin="round"/>
  </g>
</svg>
