<?xml version="1.0" ?>
<svg xmlns="http://www.w3.org/2000/svg" version="1.1" width="512" height="512" viewBox="0 0 512 512">
  <defs/>
  <g>
    <path d="M 575.45977783 472.18069458 C 562.62841797 479.19992065 549.70129395 486.21221924 536.77435303 493.20669556 C 523.82446289 500.10971069 510.73529053 506.88909912 497.55084229 513.47003174 C 484.17434692 519.76312256 470.60647583 525.86016846 456.84219360 531.62707520 C 442.81350708 537.09545898 428.53607178 542.29052734 414.00576782 547.13391113 C 399.15344238 551.61737061 384.05770874 555.78802490 368.65222168 559.52282715 C 352.95993042 562.96801758 336.99536133 565.95635986 320.72311401 568.56158447 C 304.23193359 570.78271484 287.46099854 572.55529785 270.46929932 573.83264160 C 253.25210571 574.68701172 235.92402649 575.00061035 218.40948486 574.77117920 C 200.81787109 574.03442383 183.25308228 572.70257568 165.70777893 570.72650146 C 148.24536133 568.19482422 131.02932739 564.92651367 114.02291107 560.95587158 C 97.44576263 556.35784912 81.28819275 550.90356445 65.77258301 544.70812988 C 50.99412537 537.72039795 37.03881836 529.87963867 24.11519814 521.24194336 C 12.38446236 511.75158691 1.88113534 501.47402954 -7.22528458 490.38989258 C -14.88066769 478.77957153 -21.13440132 466.70346069 -25.92979813 454.30133057 C -29.31258965 441.84359741 -31.09103584 429.38052368 -31.51311874 417.06582642 C -30.55389404 405.12231445 -27.95669556 393.76107788 -24.00903130 383.04898071 C -18.54913521 373.29098511 -11.68773842 364.55957031 -3.27694535 357.07473755 C 6.46578169 350.97280884 17.63385773 346.34277344 30.16101646 343.25595093 C 43.84593201 341.47518921 58.64468384 340.78652954 74.24548340 340.69039917 C 90.72480011 340.76095581 107.72673035 340.86834717 125.20947266 340.86718750 C 143.14559937 340.84066772 161.28895569 340.87588501 179.61418152 340.84997559 C 198.01153564 340.73532104 216.43733215 340.73471069 234.78025818 340.61459351 C 252.96948242 340.58917236 271.05883789 340.54190063 288.89941406 340.60333252 C 306.50103760 340.67681885 323.85812378 340.78637695 340.88558960 340.84631348 C 357.61224365 340.92120361 374.05419922 340.91546631 390.07815552 340.92852783 C 405.85284424 340.94796753 421.21359253 340.87942505 436.23892212 340.78839111 C 450.99127197 340.75988770 465.35864258 340.93823242 479.41207886 341.58432007 C 493.17282104 343.04437256 506.60913086 345.23544312 519.80163574 348.13952637 C 532.82275391 351.68041992 545.64855957 355.46691895 558.50103760 359.56790161 C 571.21368408 363.78244019 584.01959229 367.99441528 575.45977783 472.18069458" stroke-width="1.99501252" fill="rgb(233, 243, 245)" opacity="1.0" stroke="rgb(203, 234, 241)" stroke-opacity="0.10153999" stroke-linecap="round" stroke-linejoin="round"/>
    <path d="M 68.34741974 368.64849854 C 69.12118530 369.91448975 69.82096863 371.07946777 70.52579498 372.28665161 C 71.22770691 373.52566528 71.80455017 374.71151733 72.35985565 375.88763428 C 72.76581573 377.10577393 73.13639069 378.22189331 73.25778961 379.28854370 C 73.26686859 380.33123779 73.05195618 381.22674561 72.61660004 382.05981445 C 71.94795227 382.64334106 71.05068207 383.20361328 69.94313812 383.53054810 C 68.61450958 383.77743530 67.12235260 383.89874268 65.51421356 383.97833252 C 63.71138000 383.99584961 61.89316177 383.98925781 59.92324829 384.00088501 C 57.94638062 383.98645020 55.97422791 383.96578979 53.91067123 384.00939941 C 51.97249222 383.96276855 50.00303650 384.00125122 48.15214920 384.01312256 C 46.36483002 384.01611328 44.74097443 383.96020508 43.23063660 383.89682007 C 41.86576462 383.70559692 40.78687668 383.34790039 39.81962967 382.89251709 C 39.11119843 382.25701904 38.70552826 381.42163086 38.42258835 380.49642944 C 38.42606354 379.40087891 38.59495926 378.22778320 38.92623520 377.00491333 C 39.38535690 375.67178345 40.00199509 374.31066895 40.69210815 372.94351196 C 41.51207352 371.57885742 42.36220551 370.20651245 43.36000061 368.90164185 C 44.32466507 367.64498901 45.42260361 366.46530151 46.52195358 365.41094971 C 47.67055130 364.46401978 48.89828491 363.64617920 50.10485458 363.00787354 C 51.37053299 362.50643921 52.66550064 362.15686035 53.94103241 361.96597290 C 55.21488571 361.88970947 56.53995514 361.97030640 57.79990768 362.05508423 C 59.05174637 362.22476196 60.44029236 362.36331177 68.34741974 368.64849854" stroke-width="1.18123245" fill="rgb(187, 232, 242)" opacity="1.0" stroke="rgb(213, 240, 246)" stroke-opacity="0.9981495" stroke-linecap="round" stroke-linejoin="round"/>
    <path d="M 221.65737915 393.47247314 C 220.70162964 393.46704102 219.59564209 393.55340576 218.51777649 393.57366943 C 217.39361572 393.59002686 216.26298523 393.59991455 215.03448486 393.61642456 C 213.77230835 393.57275391 212.45390320 393.62646484 211.09727478 393.64422607 C 209.62892151 393.67935181 208.17752075 393.67550659 206.66419983 393.73730469 C 205.09744263 393.74682617 203.56800842 393.69424438 201.97172546 393.74517822 C 200.44490051 393.76644897 198.96704102 393.78985596 197.48857117 393.79772949 C 196.15124512 393.74401855 194.93121338 393.62182617 193.75823975 393.37149048 C 192.86839294 392.97079468 192.09117126 392.43322754 191.50003052 391.74255371 C 191.22718811 390.89028931 191.06268311 389.92837524 191.13714600 388.85696411 C 191.40515137 387.69903564 191.79225159 386.43212891 192.30976868 385.20095825 C 192.97479248 383.85757446 193.64633179 382.51092529 194.41856384 381.19149780 C 195.22529602 379.86645508 196.08349609 378.58532715 196.96301270 377.36779785 C 197.89587402 376.24807739 198.92031860 375.31179810 199.95155334 374.45501709 C 201.07363892 373.83343506 202.27905273 373.37890625 203.48237610 373.10650635 C 204.79090881 373.01623535 206.04362488 373.06304932 207.37257385 373.21963501 C 208.64999390 373.51406860 209.90405273 373.97006226 211.16319275 374.48867798 C 212.33413696 375.16372681 213.46313477 375.94262695 214.55412292 376.87930298 C 215.53201294 377.83843994 216.52900696 378.94039917 217.40565491 380.11093140 C 218.31208801 381.29724121 219.23182678 382.47311401 220.06629944 383.73501587 C 220.95024109 384.96908569 221.82858276 386.23724365 221.65737915 393.47247314" stroke-width="1.69762301" fill="rgb(191, 232, 242)" opacity="1.0" stroke="rgb(222, 246, 250)" stroke-opacity="0.9656701" stroke-linecap="round" stroke-linejoin="round"/>
    <path d="M 419.65899658 374.54922485 C 418.63964844 374.61972046 417.49740601 374.65066528 416.38967896 374.63372803 C 415.21994019 374.69869995 414.03591919 374.73428345 412.76898193 374.69979858 C 411.49887085 374.79000854 410.13479614 374.76535034 408.71524048 374.85675049 C 407.29974365 374.85971069 405.77954102 374.92871094 404.27362061 374.94631958 C 402.72656250 374.96350098 401.16943359 375.01242065 399.61917114 375.00241089 C 398.11581421 375.05099487 396.62533569 374.99942017 395.25350952 375.00442505 C 393.90036011 374.90307617 392.76528931 374.74719238 391.71218872 374.48956299 C 390.84649658 374.07101440 390.20706177 373.51889038 389.74484253 372.86932373 C 389.52197266 372.04321289 389.55435181 371.09078979 389.64703369 370.07357788 C 390.04888916 368.96160889 390.50469971 367.73254395 391.06161499 366.49130249 C 391.66326904 365.21658325 392.41998291 363.89123535 393.12506104 362.58056641 C 393.91378784 361.29232788 394.77301025 360.07498169 395.64395142 358.91738892 C 396.58740234 357.86633301 397.59854126 356.93188477 398.56134033 356.16876221 C 399.64682007 355.45901489 400.67642212 355.06649780 401.78930664 354.70364380 C 402.88446045 354.67605591 404.02005005 354.73403931 405.12777710 355.00006104 C 406.27218628 355.41552734 407.37490845 355.88723755 408.48324585 356.55780029 C 409.57986450 357.23342896 410.62561035 358.07418823 411.60537720 358.97976685 C 412.63104248 359.94110107 413.51873779 360.96981812 414.42379761 362.10742188 C 415.28860474 363.18832397 416.10006714 364.33255005 416.94482422 365.51516724 C 417.71926880 366.69812012 418.54281616 367.86697388 419.65899658 374.54922485" stroke-width="1.13784158" fill="rgb(191, 231, 242)" opacity="1.0" stroke="rgb(201, 234, 242)" stroke-opacity="0.7469693" stroke-linecap="round" stroke-linejoin="round"/>
    <path d="M 114.30289459 414.54800415 C 114.82177734 415.41311646 115.27429199 416.30136108 115.70878601 417.14440918 C 116.17411804 418.07022095 116.50363159 418.93005371 116.76299286 419.81359863 C 116.98221588 420.66088867 117.02479553 421.51242065 116.95388794 422.27380371 C 116.77764893 422.99298096 116.34499359 423.57427979 115.75856781 424.11413574 C 115.01153564 424.45419312 114.02780914 424.68142700 112.91891479 424.84545898 C 111.65677643 424.92834473 110.28131104 424.89630127 108.75068665 424.93371582 C 107.19689941 424.91314697 105.55537415 424.85546875 103.82424164 424.88262939 C 102.11913300 424.84222412 100.37846375 424.88116455 98.68439484 424.88995361 C 96.99019623 424.91238403 95.40359497 424.95007324 93.84506989 424.91339111 C 92.45288086 424.86096191 91.14760590 424.68411255 89.99174500 424.47180176 C 89.03989410 424.09484863 88.28662109 423.59829712 87.66857147 422.91864014 C 87.35950470 422.19876099 87.19171906 421.24603271 87.23308563 420.27764893 C 87.44151306 419.19531250 87.79293060 418.02133179 88.27825165 416.86392212 C 88.87342834 415.61849976 89.55279541 414.36923218 90.32079315 413.16613770 C 91.17085266 411.94427490 92.01982880 410.77163696 92.96997833 409.66738892 C 93.88507080 408.62207031 94.83679962 407.69122314 95.81774902 406.87783813 C 96.82083893 406.19451904 97.83042908 405.74426270 98.93680573 405.46926880 C 99.96801758 405.33447266 101.12444305 405.41116333 102.19068909 405.54385376 C 103.33632660 405.77328491 104.44981384 406.09753418 105.52797699 406.42083740 C 106.70774078 406.72122192 107.77340698 407.10513306 114.30289459 414.54800415" stroke-width="1.23386180" fill="rgb(187, 231, 243)" opacity="1.0" stroke="rgb(205, 237, 245)" stroke-opacity="0.8389598" stroke-linecap="round" stroke-linejoin="round"/>
    <path d="M 319.53802490 431.85522461 C 317.96023560 431.83865356 316.41827393 431.89877319 314.82699585 431.92974854 C 313.22213745 431.93322754 311.62506104 431.93563843 309.94519043 431.93341064 C 308.28338623 431.93627930 306.59832764 431.90414429 304.86642456 431.93115234 C 303.14837646 431.92431641 301.40847778 431.91677856 299.71276855 431.95870972 C 297.99234009 431.96661377 296.32818604 431.99743652 294.75430298 431.97195435 C 293.24142456 432.02108765 291.82571411 431.96566772 290.56384277 431.83197021 C 289.46768188 431.57174683 288.51400757 431.18716431 287.84963989 430.61065674 C 287.35708618 429.84768677 287.10650635 428.99786377 287.09991455 427.92208862 C 287.19042969 426.77459717 287.52581787 425.56344604 287.98989868 424.21456909 C 288.51431274 422.85992432 289.19738770 421.46246338 289.99755859 420.05459595 C 290.83676147 418.67630005 291.76943970 417.31469727 292.79495239 416.05981445 C 293.89321899 414.83029175 295.01153564 413.76361084 296.28158569 412.80938721 C 297.49862671 412.01095581 298.88934326 411.38012695 300.19796753 410.95007324 C 301.64477539 410.66259766 303.03152466 410.60736084 304.44082642 410.65283203 C 305.86444092 410.96215820 307.24102783 411.35095215 308.57809448 411.84838867 C 309.92590332 412.53866577 311.16503906 413.28503418 312.38214111 414.13067627 C 313.54641724 415.06411743 314.58148193 416.08834839 315.57885742 417.17825317 C 316.43960571 418.36859131 317.24084473 419.58889771 317.98233032 420.90722656 C 318.57507324 422.21270752 319.23275757 423.53292847 319.77990723 424.93899536 C 320.32940674 426.27230835 320.87213135 427.65216064 319.53802490 431.85522461" stroke-width="1.09467196" fill="rgb(189, 232, 243)" opacity="1.0" stroke="rgb(211, 238, 243)" stroke-opacity="1.0" stroke-linecap="round" stroke-linejoin="round"/>
    <path d="M 272.22576904 347.62023926 C 267.32373047 346.48126221 262.29324341 345.30255127 257.36492920 344.08911133 C 252.50671387 342.86523438 247.60740662 341.62203979 242.77799988 340.29849243 C 238.11193848 338.89041138 233.58982849 337.30627441 229.19409180 335.62588501 C 225.00357056 333.82669067 221.10685730 331.73678589 217.51467896 329.46633911 C 214.18988037 326.94558716 211.33198547 324.07901001 209.16098022 320.56503296 C 207.50753784 316.48034668 206.14483643 311.97711182 204.82153320 307.04879761 C 203.47796631 301.96456909 202.17172241 296.73623657 201.23031616 291.29354858 C 200.23300171 285.67294312 199.14321899 280.01193237 197.96974182 274.49191284 C 197.06675720 268.99804688 196.48667908 263.41693115 196.36387634 257.92425537 C 196.99479675 252.60353088 198.30900574 247.33724976 199.83819580 242.06803894 C 201.34616089 236.76741028 203.14320374 231.53068542 205.50012207 226.49937439 C 207.92816162 221.58624268 210.85179138 216.75070190 213.85440063 212.02391052 C 216.87408447 207.24673462 219.89344788 202.63031006 222.95979309 198.15516663 C 226.22561646 193.92372131 229.69812012 190.08415222 233.24978638 186.62744141 C 236.94181824 183.55842590 240.77613831 180.85862732 244.56660461 178.69143677 C 248.40147400 176.94523621 252.26594543 175.65072632 256.20346069 174.90068054 C 259.99786377 174.74603271 263.74398804 175.01017761 267.53469849 175.81668091 C 271.14385986 177.12309265 274.56237793 178.91778564 277.84378052 181.16146851 C 280.99099731 183.93571472 283.98623657 187.09388733 286.75152588 190.64068604 C 289.12280273 194.44616699 291.25692749 198.65353394 293.22760010 202.95532227 C 295.52130127 207.13983154 298.23123169 211.12542725 300.98562622 215.11607361 C 303.75137329 219.31568909 306.01242065 223.67987061 308.03607178 228.29660034 C 310.11004639 233.01405334 311.82357788 237.75991821 313.27368164 242.52993774 C 314.65765381 247.50167847 315.80535889 252.31486511 316.19726562 257.15097046 C 315.95062256 262.17471313 315.29434204 267.39904785 314.51324463 272.65756226 C 313.73245239 277.89086914 312.94668579 283.19995117 312.09097290 288.42001343 C 311.48690796 293.67837524 310.59692383 298.77819824 309.07739258 303.71856689 C 307.34350586 308.60205078 305.61685181 313.41552734 303.69287109 318.19726562 C 301.22766113 322.45996094 298.48492432 326.56433105 295.55877686 330.63961792 C 292.66256714 334.61462402 289.80130005 338.59719849 272.22576904 347.62023926" stroke-width="0.69627637" fill="rgb(1, 4, 3)" opacity="1.0" stroke="rgb(0, 0, 0)" stroke-opacity="0.49308506" stroke-linecap="round" stroke-linejoin="round"/>
    <path d="M 303.42587280 306.08117676 C 302.72470093 309.36318970 301.83828735 312.65496826 300.96994019 315.92202759 C 300.32580566 319.37521362 300.07995605 322.90341187 299.48327637 326.49035645 C 298.17453003 330.03079224 296.36514282 333.52484131 294.27331543 337.01998901 C 291.81213379 340.35360718 289.09222412 343.62283325 286.01510620 346.62078857 C 282.79791260 349.44827271 279.36251831 351.91723633 275.66342163 354.13235474 C 271.84838867 356.04519653 267.93450928 357.55017090 263.96557617 358.77291870 C 259.89672852 359.57205200 255.78770447 360.03030396 251.66192627 360.09271240 C 247.67022705 359.80725098 243.71424866 359.17468262 239.77281189 358.13208008 C 235.99005127 356.65588379 232.42623901 354.80187988 229.03697205 352.59750366 C 225.84393311 350.01010132 222.94999695 346.99774170 220.36996460 343.67257690 C 218.05389404 340.06930542 216.18397522 336.15579224 214.64875793 331.99633789 C 213.46020508 327.64483643 212.44279480 323.11004639 211.71670532 318.58367920 C 210.71774292 314.18270874 209.80387878 309.58148193 209.06434631 305.09872437 C 208.35385132 300.76629639 207.86737061 296.34683228 207.70494080 291.87673950 C 207.40267944 287.59381104 207.28158569 283.46670532 207.73992920 279.38879395 C 208.64701843 275.37847900 209.52366638 271.37591553 210.05941772 267.31597900 C 210.69783020 263.26269531 211.54138184 259.15173340 212.82975769 255.09272766 C 214.37969971 251.03939819 216.16984558 246.95693970 218.05851746 242.89393616 C 220.23956299 238.93759155 222.72399902 235.29965210 225.49240112 231.83787537 C 228.48028564 228.64186096 231.57530212 225.80432129 234.97956848 223.30780029 C 238.37203979 221.17489624 242.02975464 219.76443481 245.99017334 218.77468872 C 249.93875122 217.88603210 253.80659485 217.18922424 257.79858398 216.93501282 C 261.78219604 217.53868103 265.70870972 218.54722595 269.63931274 219.99841309 C 273.53961182 221.68049622 277.36331177 223.66944885 280.77413940 225.99491882 C 284.10842896 228.64717102 286.92797852 231.72450256 289.45077515 235.17193604 C 292.09136963 238.56803894 294.30819702 242.10638428 296.20236206 246.06813049 C 298.00488281 250.08250427 299.59848022 254.14411926 300.77899170 258.45874023 C 301.86782837 262.88156128 303.02896118 267.30429077 303.97341919 271.77111816 C 304.92984009 276.17089844 305.40975952 280.71185303 305.49572754 285.32983398 C 305.48599243 289.93206787 305.52062988 294.52111816 303.42587280 306.08117676" stroke-width="0.61378807" fill="rgb(245, 244, 237)" opacity="1.0" stroke="rgb(247, 248, 246)" stroke-opacity="0.4675719" stroke-linecap="round" stroke-linejoin="round"/>
    <path d="M 274.21405029 216.26290894 C 270.80154419 216.47297668 267.42321777 216.52561951 264.13916016 216.55072021 C 260.72628784 216.54397583 257.37701416 216.50462341 254.05587769 216.47714233 C 250.78195190 216.55845642 247.52499390 216.61378479 244.32089233 216.46911621 C 241.21562195 216.07901001 238.21942139 215.55654907 235.35435486 214.98414612 C 232.59750366 214.14366150 230.04518127 213.05799866 227.70094299 211.95643616 C 225.66621399 210.65814209 223.87028503 209.09875488 222.33625793 207.37409973 C 221.30859375 205.55068970 220.63241577 203.52215576 220.43328857 201.24755859 C 220.62113953 198.92178345 220.93943787 196.52105713 221.05429077 193.98548889 C 220.59223938 191.34278870 219.84060669 188.62786865 218.88510132 185.94848633 C 217.96879578 183.18879700 217.55064392 180.29560852 217.47480774 177.31260681 C 217.31785583 174.22526550 217.50299072 171.12483215 218.04608154 167.98609924 C 218.87730408 165.00018311 219.84451294 162.14993286 221.09942627 159.31707764 C 222.38508606 156.44439697 223.80395508 153.61685181 225.22625732 151.08995056 C 227.01251221 148.79728699 228.98495483 146.64004517 231.01403809 144.63583374 C 233.24443054 142.87905884 235.65559387 141.31906128 238.23846436 140.08309937 C 240.95216370 139.04653931 243.70651245 138.13504028 246.48992920 137.30804443 C 249.27122498 136.69085693 252.14089966 136.26721191 255.00971985 136.15577698 C 257.80255127 136.26550293 260.67453003 136.43276978 263.54669189 136.83898926 C 266.36737061 137.31842041 269.11145020 138.03662109 271.68743896 139.00842285 C 274.32489014 140.07115173 276.89108276 141.39402771 279.21209717 142.84579468 C 281.45852661 144.35449219 283.49856567 146.15653992 285.33480835 148.24104309 C 287.15866089 150.22612000 288.80526733 152.56414795 290.15454102 155.15174866 C 291.46447754 157.82167053 292.72830200 160.61419678 293.84948730 163.53103638 C 294.74612427 166.65216064 295.48745728 169.73336792 295.84628296 172.81282043 C 295.76684570 175.99586487 295.42468262 179.23371887 294.96350098 182.28092957 C 294.44253540 185.14410400 293.53027344 187.94731140 292.57778931 190.60253906 C 291.82589722 193.23501587 291.51849365 195.83476257 291.46835327 198.57514954 C 291.19592285 201.32397461 290.79486084 204.00840759 290.24716187 206.71836853 C 289.61111450 209.45494080 288.77871704 212.15979004 287.90371704 214.93692017 C 287.08676147 217.66271973 286.28918457 220.34194946 274.21405029 216.26290894" stroke-width="0.67410028" fill="rgb(2, 2, 2)" opacity="1.0" stroke="rgb(0, 0, 0)" stroke-opacity="0.49512398" stroke-linecap="round" stroke-linejoin="round"/>
    <path d="M 194.06097412 332.85876465 C 193.79573059 333.32278442 193.46000671 333.73297119 193.11486816 334.00524902 C 192.85015869 334.12600708 192.40002441 334.16012573 191.83331299 334.11529541 C 191.30506897 333.75408936 190.89550781 333.26412964 190.36889648 332.56149292 C 189.70782471 331.51867676 188.99639893 330.14468384 188.13989258 328.50134277 C 187.14784241 326.55291748 186.17762756 324.13919067 185.12760925 321.45339966 C 184.11396790 318.44708252 182.94024658 315.26504517 181.72227478 311.81536865 C 180.52270508 308.35018921 179.78498840 304.58786011 179.31126404 300.71524048 C 179.07330322 296.80200195 179.04945374 292.85107422 179.44461060 288.96405029 C 180.23727417 285.17279053 181.67510986 281.59396362 183.38877869 278.16082764 C 185.26206970 274.78329468 187.29185486 271.62454224 189.17982483 268.58740234 C 190.83496094 265.60525513 192.36369324 262.89743042 193.87704468 260.66864014 C 195.08074951 258.70220947 195.79672241 256.93722534 196.15829468 255.45275879 C 196.45170593 254.40567017 196.77619934 253.89556885 197.12733459 253.83877563 C 197.44602966 254.35900879 197.72045898 255.41773987 198.01861572 256.97705078 C 198.34002686 258.99166870 198.49761963 261.38720703 198.58418274 264.26876831 C 198.62258911 267.48022461 198.57220459 270.85449219 198.26426697 274.55932617 C 197.80413818 278.53634644 197.51828003 282.66412354 197.24038696 286.82095337 C 196.55944824 291.14172363 195.88348389 295.48147583 195.30537415 299.90103149 C 195.09660339 304.37695312 195.01928711 308.78863525 194.76177979 313.28735352 C 194.65278625 317.74108887 194.76354980 322.18975830 194.06097412 332.85876465" stroke-width="0.61614466" fill="rgb(4, 3, 1)" opacity="1.0" stroke="rgb(0, 0, 0)" stroke-opacity="0.489311" stroke-linecap="round" stroke-linejoin="round"/>
    <path d="M 327.23715210 321.59188843 C 326.51370239 323.96411133 325.67483521 326.33627319 324.68209839 328.49581909 C 323.61193848 330.49810791 322.53741455 332.09274292 321.44912720 333.34667969 C 320.47055054 334.02880859 319.65444946 334.10168457 319.05471802 333.49795532 C 318.69784546 332.29507446 318.51052856 330.63168335 318.16809082 328.45355225 C 317.83627319 325.76013184 317.60427856 322.81317139 317.66018677 319.40087891 C 317.60379028 315.65994263 317.52285767 311.64016724 317.51727295 307.56292725 C 317.47900391 303.37551880 317.41494751 299.05075073 317.20819092 294.71981812 C 316.80908203 290.54623413 316.20495605 286.55340576 315.32788086 282.54254150 C 314.50869751 278.71594238 313.97702026 275.01000977 313.60018921 271.45117188 C 313.37048340 268.14044189 313.29058838 265.02688599 313.35406494 262.16775513 C 313.49694824 259.60900879 313.79791260 257.36434937 314.14639282 255.47254944 C 314.48840332 253.95668030 314.89547729 252.86050415 315.27127075 252.14985657 C 315.57189941 252.06748962 315.82635498 252.39828491 316.03439331 253.18870544 C 316.35104370 254.36087036 316.95590210 255.99108887 317.73620605 257.87811279 C 318.80548096 259.87936401 320.06848145 262.11331177 321.52990723 264.64743042 C 323.01016235 267.25753784 324.51235962 270.00320435 326.13598633 272.91076660 C 327.84844971 275.80947876 329.36053467 278.70742798 330.77734375 281.69876099 C 332.07257080 284.69692993 332.88705444 287.61819458 333.31668091 290.67224121 C 333.42709351 293.83819580 333.33261108 296.95339966 333.09841919 299.99673462 C 332.95544434 303.08764648 333.02014160 306.24386597 327.23715210 321.59188843" stroke-width="0.69282591" fill="rgb(1, 4, 4)" opacity="1.0" stroke="rgb(0, 0, 0)" stroke-opacity="0.47777766" stroke-linecap="round" stroke-linejoin="round"/>
    <path d="M 229.78266907 350.57681274 C 230.25863647 350.31341553 230.80514526 350.14233398 231.33161926 350.02639771 C 232.00444031 350.12353516 232.68904114 350.32168579 233.58374023 350.61419678 C 234.59133911 350.96151733 235.73544312 351.26834106 236.99288940 351.67636108 C 238.32756042 352.04910278 239.72900391 352.38391113 241.19358826 352.79492188 C 242.65354919 353.05844116 243.96955872 353.40356445 245.26220703 353.55242920 C 246.35264587 353.72027588 247.12345886 354.04266357 247.58999634 354.70962524 C 247.69654846 355.61154175 247.61369324 356.88500977 247.54284668 358.28735352 C 247.38468933 359.81686401 247.18873596 361.27236938 247.00070190 362.66867065 C 246.75346375 363.81347656 246.40852356 364.67462158 246.08357239 365.14276123 C 245.67214966 365.15649414 245.18794250 364.74276733 244.62991333 364.01712036 C 244.04325867 363.17669678 243.33392334 362.31008911 242.49401855 361.59262085 C 241.51333618 361.23379517 240.51991272 361.05319214 239.46980286 361.20043945 C 238.51860046 361.69781494 237.73661804 362.38110352 237.03517151 363.10153198 C 236.57289124 363.89843750 236.06407166 364.44821167 235.68130493 364.77008057 C 235.41320801 364.65109253 235.13990784 364.23126221 234.92808533 363.50686646 C 234.54893494 362.73501587 234.06095886 361.97726440 233.39309692 361.33416748 C 232.48844910 360.76000977 231.47171021 360.41726685 230.40283203 360.42868042 C 229.28903198 360.61123657 228.11340332 361.07821655 226.93931580 361.66534424 C 225.71168518 362.44677734 224.48480225 363.16900635 223.10369873 363.86407471 C 221.59873962 364.40167236 220.12988281 365.02166748 229.78266907 350.57681274" stroke-width="1.22732604" fill="rgb(246, 170, 76)" opacity="1.0" stroke="rgb(225, 173, 116)" stroke-opacity="1.0" stroke-linecap="round" stroke-linejoin="round"/>
    <path d="M 261.20303345 353.98132324 C 263.07962036 353.83105469 264.99176025 353.52136230 266.87817383 353.22286987 C 268.62088013 352.84170532 270.36633301 352.46527100 272.00338745 352.02960205 C 273.45220947 351.58959961 274.75955200 351.06399536 275.89010620 350.50903320 C 276.90591431 350.12844849 277.87945557 350.16778564 278.70812988 350.56677246 C 279.57254028 351.37667847 280.53945923 352.38961792 281.45370483 353.57720947 C 282.38180542 354.85757446 283.29794312 356.23889160 284.20211792 357.66415405 C 285.01123047 358.91168213 285.85449219 360.09646606 286.36557007 361.20944214 C 286.72683716 362.00878906 286.79586792 362.76239014 286.64913940 363.09631348 C 286.21115112 363.06277466 285.56753540 362.74688721 284.61657715 362.29290771 C 283.58859253 361.83563232 282.33773804 361.36856079 281.03112793 360.88064575 C 279.77343750 360.48513794 278.58599854 360.29431152 277.45648193 360.41671753 C 276.49984741 360.81497192 275.63394165 361.59109497 274.99172974 362.40191650 C 274.51831055 363.32861328 274.39620972 364.30657959 274.28494263 365.20272827 C 274.20513916 365.83026123 274.02020264 366.29751587 273.73703003 366.31109619 C 273.29699707 365.86508179 272.86331177 365.21871948 272.36221313 364.39834595 C 271.81042480 363.57052612 271.20773315 362.90866089 270.48266602 362.33331299 C 269.68737793 362.06390381 268.94985962 362.05569458 268.19784546 362.19869995 C 267.53887939 362.66259766 266.96630859 363.23120117 266.45358276 363.77392578 C 265.96212769 364.25708008 265.57943726 364.60641479 265.38500977 364.87039185 C 265.26055908 365.15896606 265.28848267 365.34628296 261.20303345 353.98132324" stroke-width="1.16692364" fill="rgb(245, 164, 74)" opacity="1.0" stroke="rgb(221, 171, 110)" stroke-opacity="0.9902249" stroke-linecap="round" stroke-linejoin="round"/>
    <path d="M 248.09204102 192.98348999 C 248.91572571 192.51715088 249.74874878 192.19720459 250.64042664 191.90121460 C 251.46929932 191.51611328 252.31681824 191.10499573 253.23713684 190.72883606 C 254.23341370 190.49862671 255.30343628 190.41343689 256.37991333 190.40612793 C 257.45220947 190.45794678 258.56109619 190.63073730 259.76092529 191.01350403 C 260.95492554 191.31269836 262.13308716 191.73193359 263.29074097 192.30950928 C 264.37200928 192.90370178 265.33380127 193.55180359 266.21719360 194.28169250 C 267.14416504 194.80143738 267.88723755 195.28079224 268.42422485 195.89801025 C 268.67880249 196.55133057 268.74356079 197.23437500 268.55734253 197.88247681 C 268.14004517 198.55181885 267.51052856 199.12669373 266.64227295 199.72604370 C 265.71527100 200.41125488 264.74545288 201.13838196 263.72042847 202.09936523 C 262.74087524 203.09501648 261.76873779 204.05308533 260.76821899 204.94857788 C 259.82275391 205.88403320 258.97116089 206.69735718 258.28964233 207.47297668 C 257.87768555 208.27374268 257.52853394 208.94778442 257.19067383 209.34968567 C 256.79577637 209.33979797 256.43377686 209.07649231 255.97724915 208.60006714 C 255.35208130 207.90423584 254.71093750 207.18927002 254.00433350 206.33628845 C 253.17546082 205.50778198 252.36698914 204.65838623 251.48284912 203.82588196 C 250.50138855 203.14263916 249.61474609 202.37353516 248.65313721 201.71954346 C 247.75680542 201.11219788 246.89793396 200.52551270 246.18826294 199.87136841 C 245.47642517 199.34001160 244.77505493 198.69319153 244.24029541 197.85296631 C 243.87944031 196.95146179 243.39172363 195.99568176 248.09204102 192.98348999" stroke-width="0.70330465" fill="rgb(247, 206, 110)" opacity="1.0" stroke="rgb(132, 104, 73)" stroke-opacity="0.7401837" stroke-linecap="round" stroke-linejoin="round"/>
    <path d="M 270.35861206 177.80223083 C 269.56262207 176.27130127 269.13018799 174.66928101 268.84704590 172.98561096 C 268.81567383 171.39289856 269.03134155 169.74630737 269.59774780 168.25856018 C 270.48846436 166.98446655 271.54629517 165.96713257 272.80111694 165.12860107 C 274.16510010 164.58209229 275.53475952 164.31843567 276.98764038 164.39457703 C 278.27648926 164.78961182 279.49832153 165.43261719 280.60430908 166.23982239 C 281.59393311 167.29301453 282.57620239 168.43162537 283.26861572 169.61837769 C 283.79934692 170.86097717 284.04797363 172.23182678 283.95223999 173.64741516 C 283.74081421 175.07106018 283.35546875 176.41426086 282.72579956 177.81202698 C 281.96121216 179.03482056 280.94235229 180.10760498 279.61541748 180.99572754 C 277.99374390 181.83845520 276.50396729 182.80099487 270.35861206 177.80223083" stroke-width="0.63633871" fill="rgb(245, 247, 247)" opacity="1.0" stroke="rgb(143, 143, 143)" stroke-opacity="0.8565819" stroke-linecap="round" stroke-linejoin="round"/>
    <path d="M 241.54193115 177.76466370 C 240.61756897 178.79586792 239.72404480 179.81225586 238.70079041 180.58551025 C 237.54539490 181.07830811 236.47550964 181.37948608 235.36332703 181.50720215 C 234.15093994 181.19105530 232.89654541 180.61637878 231.70771790 179.79235840 C 230.66844177 178.87800598 229.84765625 177.73362732 229.18348694 176.52749634 C 228.70275879 175.26333618 228.51527405 173.87530518 228.45343018 172.45028687 C 228.62416077 171.08598328 228.98812866 169.83396912 229.65312195 168.57498169 C 230.48077393 167.35652161 231.38868713 166.29040527 232.47151184 165.45864868 C 233.90257263 164.97850037 235.54679871 164.65921021 237.16577148 164.54873657 C 238.67855835 165.02877808 240.13888550 166.11454773 241.55558777 167.82971191 C 243.01245117 169.81948853 244.61666870 171.72505188 241.54193115 177.76466370" stroke-width="0.64906394" fill="rgb(245, 247, 247)" opacity="1.0" stroke="rgb(130, 131, 130)" stroke-opacity="0.88783556" stroke-linecap="round" stroke-linejoin="round"/>
    <path d="M 272.44149780 170.10383606 C 273.11578369 169.15267944 273.87023926 168.25485229 274.62429810 167.61363220 C 275.55041504 167.36756897 276.54782104 167.39904785 277.68872070 167.65789795 C 278.83197021 167.97883606 279.81365967 168.49040222 280.71704102 169.25828552 C 281.39071655 170.20098877 281.81304932 171.31494141 282.12280273 172.42712402 C 282.13424683 173.50277710 281.88513184 174.49156189 281.55917358 175.44891357 C 281.19421387 176.39372253 280.69738770 177.22106934 280.02224731 177.86799622 C 279.29776001 178.44741821 278.49444580 178.89573669 277.61141968 179.11672974 C 276.72732544 179.10392761 275.88427734 178.83930969 274.97747803 178.49304199 C 274.10989380 178.02862549 273.36721802 177.42704773 272.71047974 176.68142700 C 271.93450928 175.97512817 271.20806885 175.27548218 272.44149780 170.10383606" stroke-width="0.69387519" fill="rgb(6, 7, 6)" opacity="1.0" stroke="rgb(96, 96, 97)" stroke-opacity="0.92269826" stroke-linecap="round" stroke-linejoin="round"/>
    <path d="M 230.57499695 175.77087402 C 230.22959900 174.56813049 229.97412109 173.33534241 230.08221436 172.06645203 C 230.38844299 170.84803772 230.80259705 169.84323120 231.42434692 168.99465942 C 232.26094055 168.35511780 233.28146362 167.93168640 234.32499695 167.60990906 C 235.30735779 167.47155762 236.31864929 167.46086121 237.33020020 167.66876221 C 238.19998169 168.21452332 238.89955139 168.97837830 239.56283569 169.78625488 C 240.12918091 170.73777771 240.58168030 171.64883423 240.78396606 172.69287109 C 240.86520386 173.80880737 240.72334290 174.86921692 240.31199646 175.75131226 C 239.78039551 176.64990234 239.17382812 177.42875671 238.47821045 178.14927673 C 237.70051575 178.72750854 236.73663330 179.07012939 235.62889099 179.15716553 C 234.36306763 179.02351379 232.92102051 178.93048096 230.57499695 175.77087402" stroke-width="0.62024891" fill="rgb(4, 7, 6)" opacity="1.0" stroke="rgb(116, 115, 116)" stroke-opacity="0.8066526" stroke-linecap="round" stroke-linejoin="round"/>
  </g>
</svg>
