<svg xmlns="http://www.w3.org/2000/svg" viewBox="0 0 512 512" height="512.0px" width="512.0px">
<path id="" fill="#e6f3ff" fill-opacity="1.0" stroke="#000000" stroke-width="0.0" stroke-opacity="1.0" stroke-linecap="round" stroke-linejoin="round"  filling="0" d="M0 0 C171 0 341 0 512 0 C512 171 512 341 512 512 C341 512 171 512 0 512 C0 341 0 171 0 0"></path>
<path id="" fill="#008000" fill-opacity="1.0" stroke="#000000" stroke-width="0.0" stroke-opacity="1.0" stroke-linecap="round" stroke-linejoin="round"  filling="0" d="M260 340 C260 387 260 433 260 480 C257 480 255 480 252 480 C252 433 252 387 252 340 C255 340 257 340 260 340"></path>
<path id="" fill="#ffffff" fill-opacity="1.0" stroke="#000000" stroke-width="0.0" stroke-opacity="1.0" stroke-linecap="round" stroke-linejoin="round"  filling="0" d="M276 196 C276 215 274 232 270 245 C266 259 261 266 256 266 C251 266 246 259 242 245 C238 232 236 215 236 196 C236 177 238 160 242 147 C246 133 251 126 256 126 C261 126 266 133 270 147 C274 160 276 177 276 196"></path>
<path id="" fill="#ffffff" fill-opacity="1.0" stroke="#000000" stroke-width="0.0" stroke-opacity="1.0" stroke-linecap="round" stroke-linejoin="round"  filling="0" d="M303 214 C284 248 261 270 251 265 C241 259 249 228 269 194 C288 161 311 138 321 143 C331 149 323 181 303 214"></path>
<path id="" fill="#ffffff" fill-opacity="1.0" stroke="#000000" stroke-width="0.0" stroke-opacity="1.0" stroke-linecap="round" stroke-linejoin="round"  filling="0" d="M318 243 C284 263 253 271 247 261 C242 251 264 228 298 209 C331 189 363 181 369 191 C374 201 351 224 318 243"></path>
<path id="" fill="#ffffff" fill-opacity="1.0" stroke="#000000" stroke-width="0.0" stroke-opacity="1.0" stroke-linecap="round" stroke-linejoin="round"  filling="0" d="M316 276 C277 276 246 267 246 256 C246 245 277 236 316 236 C355 236 386 245 386 256 C386 267 355 276 316 276"></path>
<path id="" fill="#ffffff" fill-opacity="1.0" stroke="#000000" stroke-width="0.0" stroke-opacity="1.0" stroke-linecap="round" stroke-linejoin="round"  filling="0" d="M298 303 C264 284 242 261 247 251 C253 241 284 249 318 269 C351 288 374 311 369 321 C363 331 331 323 298 303"></path>
<path id="" fill="#ffffff" fill-opacity="1.0" stroke="#000000" stroke-width="0.0" stroke-opacity="1.0" stroke-linecap="round" stroke-linejoin="round"  filling="0" d="M269 318 C249 284 241 253 251 247 C261 242 284 264 303 298 C323 331 331 363 321 369 C311 374 288 351 269 318"></path>
<path id="" fill="#ffffff" fill-opacity="1.0" stroke="#000000" stroke-width="0.0" stroke-opacity="1.0" stroke-linecap="round" stroke-linejoin="round"  filling="0" d="M236 316 C236 277 245 246 256 246 C267 246 276 277 276 316 C276 355 267 386 256 386 C245 386 236 355 236 316"></path>
<path id="" fill="#ffffff" fill-opacity="1.0" stroke="#000000" stroke-width="0.0" stroke-opacity="1.0" stroke-linecap="round" stroke-linejoin="round"  filling="0" d="M209 298 C228 264 251 242 261 247 C271 253 263 284 243 318 C224 351 201 374 191 369 C181 363 189 331 209 298"></path>
<path id="" fill="#ffffff" fill-opacity="1.0" stroke="#000000" stroke-width="0.0" stroke-opacity="1.0" stroke-linecap="round" stroke-linejoin="round"  filling="0" d="M194 269 C228 249 259 241 265 251 C270 261 248 284 214 303 C181 323 149 331 143 321 C138 311 161 288 194 269"></path>
<path id="" fill="#ffffff" fill-opacity="1.0" stroke="#000000" stroke-width="0.0" stroke-opacity="1.0" stroke-linecap="round" stroke-linejoin="round"  filling="0" d="M196 236 C235 236 266 245 266 256 C266 267 235 276 196 276 C157 276 126 267 126 256 C126 245 157 236 196 236"></path>
<path id="" fill="#ffffff" fill-opacity="1.0" stroke="#000000" stroke-width="0.0" stroke-opacity="1.0" stroke-linecap="round" stroke-linejoin="round"  filling="0" d="M214 209 C248 228 270 251 265 261 C259 271 228 263 194 243 C161 224 138 201 143 191 C149 181 181 189 214 209"></path>
<path id="" fill="#ffffff" fill-opacity="1.0" stroke="#000000" stroke-width="0.0" stroke-opacity="1.0" stroke-linecap="round" stroke-linejoin="round"  filling="0" d="M243 194 C263 228 271 259 261 265 C251 270 228 248 209 214 C189 181 181 149 191 143 C201 138 224 161 243 194"></path>
<path id="" fill="#ffff00" fill-opacity="1.0" stroke="#000000" stroke-width="0.0" stroke-opacity="1.0" stroke-linecap="round" stroke-linejoin="round"  filling="0" d="M316 256 C316 272 310 287 298 298 C287 310 272 316 256 316 C240 316 225 310 214 298 C202 287 196 272 196 256 C196 240 202 225 214 214 C225 202 240 196 256 196 C272 196 287 202 298 214 C310 225 316 240 316 256"></path>
</svg>